<svg width="138" height="132" viewBox="0 0 138 132" fill="none" xmlns="http://www.w3.org/2000/svg">
<path d="M44.3877 21.8954C44.3379 20.35 46.0627 19.4137 47.2375 20.3484L59.7137 30.2752L45.0833 43.4663L44.3877 21.8954Z" fill="#8B7A70"/>
<path d="M7.97252 89.2837C5.814 90.9763 6.84228 94.432 9.5113 94.4549L23.5224 94.5756L22.6263 77.7929L7.97252 89.2837Z" fill="#BFD6F7"/>
<path d="M131.297 55.3394C131.943 53.8458 130.537 52.2827 129.081 52.8738L114.89 58.6311L122.255 76.2602L131.297 55.3394Z" fill="#BFD6F7"/>
<path d="M123.391 86.4364C123.391 118.345 100.557 131.66 72.3906 131.66C44.2241 131.66 21.3906 118.345 21.3906 86.4364C21.3906 54.5275 44.2241 28.6602 72.3906 28.6602C100.557 28.6602 123.391 54.5275 123.391 86.4364Z" fill="#BFD6F7"/>
<path fill-rule="evenodd" clip-rule="evenodd" d="M58.2594 47.793C57.6221 47.793 57.1055 48.3096 57.1055 48.9469C57.1055 49.5842 57.6221 50.1008 58.2594 50.1008H60.2175V55.4844H58.2594C57.6221 55.4844 57.1055 56.001 57.1055 56.6383C57.1055 57.2756 57.6221 57.7922 58.2594 57.7922H69.9515C70.5888 57.7922 71.1054 57.2756 71.1054 56.6383C71.1054 56.001 70.5888 55.4844 69.9515 55.4844H67.9922V50.1008H69.9515C70.5888 50.1008 71.1054 49.5842 71.1054 48.9469C71.1054 48.3096 70.5888 47.793 69.9515 47.793H58.2594ZM65.6589 50.1008H62.5508V55.4844H65.6589V50.1008Z" fill="#8B7A70"/>
<path fill-rule="evenodd" clip-rule="evenodd" d="M87.1539 47.793C86.5166 47.793 86 48.3096 86 48.9469C86 49.5842 86.5166 50.1008 87.1539 50.1008H89.112V55.4844H87.1539C86.5166 55.4844 86 56.001 86 56.6383C86 57.2756 86.5166 57.7922 87.1539 57.7922H98.8461C99.4833 57.7922 100 57.2756 100 56.6383C100 56.001 99.4833 55.4844 98.8461 55.4844H96.8906V50.1008H98.8461C99.4833 50.1008 100 49.5842 100 48.9469C100 48.3096 99.4833 47.793 98.8461 47.793H87.1539ZM94.5573 50.1008H91.4453V55.4844H94.5573V50.1008Z" fill="#8B7A70"/>
<path fill-rule="evenodd" clip-rule="evenodd" d="M104.154 17C103.517 17 103 17.5166 103 18.1539C103 18.7912 103.517 19.3079 104.154 19.3079H106.112V24.6914H104.154C103.517 24.6914 103 25.208 103 25.8453C103 26.4826 103.517 26.9993 104.154 26.9993H115.846C116.483 26.9993 117 26.4826 117 25.8453C117 25.208 116.483 24.6914 115.846 24.6914H113.891V19.3079H115.846C116.483 19.3079 117 18.7912 117 18.1539C117 17.5166 116.483 17 115.846 17H104.154ZM111.557 19.3079H108.445V24.6914H111.557V19.3079Z" fill="#9BC0F5"/>
<ellipse cx="4.46579" cy="3.55783" rx="4.46579" ry="3.55783" transform="matrix(0.998508 -0.054597 0.0479631 0.998849 76 61.2812)" fill="#FAB9B9"/>
<path d="M114.279 101.452C114.279 115.646 95.7404 126.968 76.5058 126.968C57.2711 126.968 37 121.933 37 107.739C37 93.5444 60.9098 72.793 80.1445 72.793C99.3791 72.793 114.279 87.2579 114.279 101.452Z" fill="#EDF3FD"/>
</svg>
