<svg width="114" height="132" viewBox="0 0 114 132" fill="none" xmlns="http://www.w3.org/2000/svg">
<path d="M83.4744 23.2387C84.7201 22.5133 86.2524 23.4859 85.9233 24.7931L82.0839 40.0433L64.4731 34.3034L83.4744 23.2387Z" fill="#98887F"/>
<path d="M25.029 23.2319C23.766 22.4986 22.218 23.5075 22.5862 24.824L26.7721 39.7895L43.8178 34.1415L25.029 23.2319Z" fill="#98887F"/>
<path d="M108 86.5771C108 118.486 85.1665 131.801 57 131.801C28.8335 131.801 6 118.486 6 86.5771C6 54.6681 28.8335 28.8008 57 28.8008C85.1665 28.8008 108 54.6681 108 86.5771Z" fill="#FBD498"/>
<path d="M65.3819 53.9876C64.9907 53.9474 64.721 53.5949 64.7872 53.2083C64.9251 52.4038 65.1576 51.0711 65.3527 50.0699C65.5534 49.0397 65.8657 47.5845 66.0491 46.7404C66.1307 46.3648 66.5031 46.1175 66.8807 46.1864L69.347 46.636C69.7252 46.705 69.9655 47.0654 69.8846 47.4419C69.7195 48.21 69.4497 49.4819 69.2555 50.4786C69.058 51.4923 68.8341 52.8439 68.705 53.6436C68.6445 54.0183 68.2941 54.2871 67.9154 54.2481L65.3819 53.9876Z" fill="#98887F"/>
<path d="M96.1529 27.2404C95.7519 27.2086 95.4719 26.8498 95.542 26.455C95.7361 25.3632 96.1133 23.263 96.4146 21.7167C96.7234 20.1316 97.2042 17.8371 97.444 16.7011C97.5243 16.3205 97.9024 16.0703 98.2837 16.1436L100.745 16.6166C101.118 16.6884 101.355 17.0438 101.277 17.4163C101.06 18.4514 100.638 20.4817 100.334 22.0384C100.026 23.6208 99.653 25.779 99.4714 26.8449C99.4092 27.2099 99.0709 27.4721 98.7004 27.4427L96.1529 27.2404Z" fill="#FFC46A"/>
<path d="M95.3341 31.9696C94.9669 31.9188 94.7134 31.5915 94.766 31.2255C94.8018 30.9771 94.8452 30.699 94.8899 30.4697C94.9373 30.2265 95.0092 29.9196 95.0753 29.6503C95.1633 29.2917 95.5212 29.0606 95.8847 29.1215L98.3575 29.5358C98.7515 29.6018 98.9978 29.983 98.9063 30.3725C98.8568 30.5835 98.806 30.8109 98.7673 31.0091C98.7283 31.2092 98.6936 31.4466 98.6651 31.6689C98.6134 32.0723 98.2362 32.3713 97.8322 32.3154L95.3341 31.9696Z" fill="#FFC46A"/>
<path d="M42.2369 54.5361C41.8524 54.6121 41.4714 54.3568 41.396 53.9713C41.2391 53.1691 40.9829 51.8389 40.8099 50.8337C40.6318 49.7994 40.4075 48.3298 40.2794 47.4769C40.2225 47.0973 40.4864 46.7545 40.8682 46.7096L43.3616 46.4162C43.744 46.3712 44.1 46.6425 44.158 47.0227C44.2762 47.7984 44.4753 49.0818 44.6476 50.0826C44.8228 51.1004 45.0937 52.446 45.2573 53.2411C45.3339 53.6136 45.0984 53.9704 44.7263 54.044L42.2369 54.5361Z" fill="#98887F"/>
<path d="M51.7243 64.118C51.568 66.0473 51.5211 66.6257 52.2652 68.1147C53.1619 69.1521 53.5506 69.3816 55.2825 70.2142C57.0144 71.0468 60.2213 69.7781 60.3959 67.6229C60.5522 65.6937 62.0106 61.6426 58.3299 59.2118C54.6493 56.781 52.3092 59.0914 52.0676 59.88C51.7245 61 51.9491 61.3434 51.7243 64.118Z" fill="#EF8E8E"/>
<path d="M92.0342 104.822C91.4792 117.663 73.996 127.281 56.3154 126.633C38.6349 125.984 20.1985 120.746 20.7536 107.904C21.3086 95.0631 38.505 75.5989 56.1856 76.2473C73.8661 76.8957 92.5893 91.9809 92.0342 104.822Z" fill="#FDEACE"/>
<path d="M44.0648 64.4328C45.1438 63.3357 44.1664 61.5319 42.6436 61.8098L26.0338 64.8412C23.2234 65.3541 21.8115 68.4941 23.3251 70.8651L26.9314 76.5145C28.4089 78.8291 31.7809 78.9927 33.5122 76.8339L40.7731 67.7798L44.0648 64.4328Z" fill="#FFC46A"/>
<path d="M68.4547 64.4328C67.3758 63.3357 68.3531 61.5319 69.8759 61.8098L86.4857 64.8412C89.2961 65.3541 90.7081 68.4941 89.1945 70.8651L85.5881 76.5145C84.1106 78.8291 80.7386 78.9927 79.0073 76.8339L71.7464 67.7798L68.4547 64.4328Z" fill="#FFC46A"/>
</svg>
