<svg width="138" height="132" viewBox="0 0 138 132" fill="none" xmlns="http://www.w3.org/2000/svg">
<g clip-path="url(#clip0_46_49651)">
<path fill-rule="evenodd" clip-rule="evenodd" d="M61.529 16.3114C65.1256 17.577 69.7434 21.2967 65.7092 29.7489L79.2778 33.1707C79.1123 26.2376 75.3307 13.1595 61.529 16.3114ZM40.0094 24.3968C37.5811 27.2999 35.525 32.8153 43.2523 37.9848L33.4054 47.7826C30.0327 41.7811 26.6318 28.7019 40.0094 24.3968Z" fill="#98887F"/>
<path d="M119.331 76.1827C125.565 107.229 105.995 124.635 78.645 130.127C51.2951 135.619 26.5222 127.117 20.288 96.071C14.0538 65.0251 31.1715 35.4053 58.5215 29.9132C85.8715 24.4212 113.097 45.1367 119.331 76.1827Z" fill="#70F5D9"/>
<path d="M113.695 94.2921C116.274 107.136 100.432 120.974 81.8594 124.704C63.2873 128.433 42.7996 127.807 40.2206 114.964C37.6416 102.12 56.9573 78.7079 75.5294 74.9785C94.1015 71.2492 111.116 81.4488 113.695 94.2921Z" fill="#B2FCEC"/>
<path d="M55.1627 48.79C55.7591 50.2165 54.5173 52.094 52.3893 52.9836C50.2612 53.8732 48.0527 53.438 47.4564 52.0115C46.8601 50.5851 49.1383 51.187 51.2664 50.2974C53.3944 49.4079 54.5664 47.3636 55.1627 48.79Z" fill="#98887F"/>
<path d="M77.4612 44.4457C77.5816 45.9871 75.8151 47.3822 73.5156 47.5618C71.2161 47.7415 69.2544 46.6375 69.134 45.0961C69.0136 43.5547 70.9894 44.8388 73.2889 44.6592C75.5884 44.4796 77.3408 42.9043 77.4612 44.4457Z" fill="#98887F"/>
<ellipse cx="66.3472" cy="56.3646" rx="2.41786" ry="2.85747" transform="rotate(-11.3543 66.3472 56.3646)" fill="#C18D8D"/>
<path d="M44.7903 14.2954C53.4963 11.6795 64.0481 29.0538 64.0481 29.0538C64.0481 29.0538 59.4434 32.9449 55.8708 34.0789C52.0766 35.2832 45.6892 34.5701 45.6892 34.5701C45.6892 34.5701 46.9429 28.7191 46.6059 23.3369C46.2623 17.8497 40.3952 15.616 44.7903 14.2954Z" fill="#D4C2F3"/>
<ellipse cx="53.6889" cy="21.7134" rx="2.19805" ry="3.07727" transform="rotate(-40.711 53.6889 21.7134)" fill="#DCCEF7"/>
<ellipse cx="51.0194" cy="30.1745" rx="2.19805" ry="2.41013" transform="rotate(-40.711 51.0194 30.1745)" fill="#DCCEF7"/>
<ellipse cx="58.755" cy="28.0559" rx="2.85112" ry="2.27173" transform="rotate(-78.8928 58.755 28.0559)" fill="#DCCEF7"/>
<path d="M46.9784 18.6825C47.5085 19.8196 47.3844 21.116 46.3348 21.6053C46.3348 21.6053 45.6982 20.1551 45.2377 19.3508C44.5471 18.1443 43.5977 16.7656 43.5977 16.7656C44.6473 16.2763 46.4483 17.5453 46.9784 18.6825Z" fill="#DCCEF7"/>
<path d="M39.0858 11.4219C39.3195 11.1058 39.7548 11.0184 40.0924 11.2197V11.2197C40.3213 11.3563 40.6049 11.3638 40.8408 11.2394V11.2394C41.1884 11.056 41.6185 11.1661 41.8353 11.494V11.494C41.9824 11.7164 42.2346 11.8461 42.5011 11.8364V11.8364C42.8939 11.822 43.2336 12.1078 43.2867 12.4973V12.4973C43.3227 12.7615 43.4936 12.9879 43.7379 13.0947V13.0947C44.0981 13.2522 44.2801 13.6571 44.159 14.031V14.031C44.0768 14.2846 44.1326 14.5628 44.3063 14.765V14.765C44.5625 15.0632 44.5508 15.507 44.2794 15.7913V15.7913C44.0953 15.9841 44.025 16.259 44.0937 16.5166V16.5166C44.1952 16.8963 43.9921 17.2911 43.6242 17.4295V17.4295C43.3747 17.5234 43.192 17.7405 43.1422 18.0024V18.0024C43.0688 18.3886 42.7146 18.6561 42.3231 18.6212V18.6212C42.0575 18.5975 41.7988 18.7139 41.6403 18.9282V18.9282C41.4066 19.2443 40.9713 19.3317 40.6337 19.1304V19.1304C40.4048 18.9938 40.1212 18.9863 39.8853 19.1107V19.1107C39.5377 19.2941 39.1076 19.184 38.8908 18.8561V18.8561C38.7437 18.6337 38.4915 18.504 38.225 18.5137V18.5137C37.8322 18.5281 37.4925 18.2423 37.4394 17.8528V17.8528C37.4034 17.5886 37.2325 17.3622 36.9882 17.2554V17.2554C36.628 17.0979 36.446 16.693 36.5671 16.3191V16.3191C36.6493 16.0655 36.5935 15.7873 36.4198 15.5851V15.5851C36.1636 15.2869 36.1753 14.8431 36.4467 14.5588V14.5588C36.6308 14.366 36.7011 14.0911 36.6324 13.8335V13.8335C36.5309 13.4538 36.734 13.059 37.1019 12.9206V12.9206C37.3514 12.8267 37.5341 12.6096 37.5839 12.3477V12.3477C37.6573 11.9615 38.0115 11.694 38.403 11.7289V11.7289C38.6686 11.7526 38.9273 11.6362 39.0858 11.4219V11.4219Z" fill="#E2ECFA"/>
<path d="M38.8848 64.4606C39.6425 63.0726 41.7043 63.3121 42.1237 64.8367L45.2818 76.3158C45.5138 77.1592 45.0898 78.0424 44.2589 78.3154C42.9406 78.7486 40.9429 79.2605 39.2938 79.069C37.5997 78.8723 35.3627 77.8275 33.9152 77.0667C33.0836 76.6296 32.8043 75.5994 33.2545 74.7748L38.8848 64.4606Z" fill="#55DDBF"/>
<path d="M113.275 44.3255C114.653 43.5495 116.275 44.8446 115.823 46.36L112.422 57.7694C112.172 58.6077 111.344 59.1323 110.495 58.9237C109.147 58.5929 107.182 57.9691 105.884 56.9332C104.552 55.869 103.208 53.798 102.383 52.3861C101.909 51.5748 102.218 50.5531 103.036 50.0921L113.275 44.3255Z" fill="#70F5D8"/>
</g>
<defs>
<clipPath id="clip0_46_49651">
<rect width="114" height="132" fill="white" transform="translate(12)"/>
</clipPath>
</defs>
</svg>
