<svg width="714" height="370" viewBox="0 0 714 370" fill="none" xmlns="http://www.w3.org/2000/svg">
<g clip-path="url(#clip0_54_17567)">
<rect width="714" height="370" fill="#7F1304"/>
<g clip-path="url(#clip1_54_17567)">
<g clip-path="url(#clip2_54_17567)">
<rect width="715" height="372" transform="translate(0 -2)" fill="#C12E02"/>
<path d="M207.303 74.3426C174.123 65.2183 53.8463 109.942 -2.14453 133.444V372.96H715.367V89.8956C700.851 84.7113 665.598 74.3426 640.713 74.3426C609.607 74.3426 558.801 126.186 535.99 133.444C513.178 140.701 493.478 111.67 454.077 110.633C414.676 109.596 418.824 125.149 350.391 142.776C281.957 160.403 248.778 85.748 207.303 74.3426Z" fill="#DC4609"/>
<path d="M26.4606 -0.0756804L60.4313 -2L55.6762 32.8501L63.1803 77.42L67.4508 192.544L14.6201 231.413L21.1322 101.544L0 88.3915V64.293L21.1322 77.42V32.8501L26.4606 -0.0756804Z" fill="#620901"/>
<path d="M477.223 -9.8706L511.193 -11.7949L506.438 23.0552L513.942 67.6251L514.979 94.9L534.932 78.6304L572.255 55.5318L569.979 67.6251L534.932 99.1124L514.979 126.679L518.09 243.869H463.465L471.894 91.7493L431.437 86.9982L403.847 78.6304L410.674 70.646L435.68 75.4846L454.302 76.495L448.396 60.2271L453.091 55.5318L458.344 66.2457L464.551 75.4846L471.894 73.5603L470.578 28.1977L454.701 -6.88747H467.246L474.106 11.7332L477.223 -9.8706Z" fill="#620901"/>
<path d="M693.103 -2H655.569V34.0881V43.0223V51.9565V58.806L642.69 220.974L699.377 234.075L696.868 91.0154L716 47.0936V32.0347L693.103 58.806V14.0477V-2Z" fill="#620901"/>
<path d="M208.604 -0.0762849L174.633 -2.00061V34.0875V43.0217V51.9559V58.8055L161.755 220.973L218.442 234.074L215.856 54.6919L240.361 37.8167L284.002 6.20726L273.021 4.2364L253.313 16.3431L255.43 -5.05469L248.245 -2.00067L242.895 21.9741L212.167 37.8167V14.0471L208.604 -0.0762849Z" fill="#620901"/>
<path d="M88.4906 -2H126.518V37.0022L131.002 72.6428L172.629 37.0022L151.102 -2H160.746L181.737 30.1552L220.314 -2H235.064L135.086 99.7866L143.655 237.492L88.4906 220.889V146.766V72.6428L25.626 -2H43.6336L88.4906 44.5333V-2Z" fill="#7F1304"/>
<path d="M623.034 -2.00047L588.124 -4.78125L565.854 76.8484L547.413 57.2393L554.24 16.7817L547.413 5.81656L538.717 48.5428L495.235 16.7817L488.05 19.4285L551.071 79.4347L562.538 99.9656L554.24 153.344L565.854 265.873L613.418 220.888L603.526 128.188L613.418 72.6423L676.282 -2.00047H661.98L635.135 27.7469L613.418 44.5329L623.034 -2.00047Z" fill="#7F1304"/>
<path d="M306.349 -4.78125H350.654L356.025 44.7923L358.751 76.103L391.364 55.0313L384.538 16.7817L391.364 5.81656L400.06 48.5428L443.543 16.7817L450.727 19.4285L387.706 79.4347L366.393 107.674L369.332 153.344L372.923 265.873L298.161 222.85L311.262 153.344V62.9142L262.495 -2.00047H276.797L292.703 11.058L311.262 31.8005L306.349 -4.78125Z" fill="#7F1304"/>
</g>
<path d="M153.989 114.352C149.214 131.404 129.547 136.52 120.31 136.947C126.136 140.357 140.262 144.621 150.152 134.389C160.043 124.157 156.831 116.767 153.989 114.352Z" fill="#F47C0F"/>
<path d="M496.183 64.6559C490.609 63.011 495.465 57.8875 497.525 54.424C500.454 49.501 506.207 51.6159 510.81 48.2056C517.313 43.3864 523.331 31.6875 523.331 31.6875C527.205 44.5996 518.956 73.1151 505.941 89.3829C505.941 89.3829 507.207 67.9094 496.183 64.6559Z" fill="#F47C0F"/>
<path d="M403.458 55.252C406.593 58.0289 407.446 60.4525 405.042 62.0836C401.626 64.402 399.655 62.0836 390.97 63.5801C385.221 64.5707 376.06 75.2867 376.06 75.2867C377.477 65.6748 398.424 33.6769 405.042 42.9413C405.042 42.9413 397.257 49.7594 403.458 55.252Z" fill="#F47C0F"/>
<path d="M487.642 168.535C487.571 161 504.062 152.329 508.539 160.218C511.738 169.601 495.106 161.711 487.642 168.535Z" fill="#F47C0F"/>
<path d="M0 273H715V370H0V273Z" fill="#7F1304"/>
<path d="M0 221.624C10.2134 220.657 32.5097 214.662 28.2465 198.415C22.9174 178.106 57.5533 127.334 96.1855 131.686C82.6755 143.569 63.7614 169.249 96.1855 176.904C124.717 183.639 141.047 174.062 147.472 166.444C148.185 165.394 148.883 164.403 149.555 163.482C149.041 164.402 148.349 165.405 147.472 166.444C136.886 182.052 123.009 210.887 139.317 221.624C161.073 235.949 225.062 177.418 193.068 116.1C198.077 123.065 211.316 134.265 224.206 123.348C240.319 109.702 263.685 73.7135 240.447 46C251.144 52.4263 275.193 63.3509 285.815 55.6394C267.004 74.6615 234.251 119.126 253.726 144.805C264.102 159.731 291.782 122.41 285.815 108.389C288.946 114.898 299.261 124.012 315.469 108.389C335.728 88.8602 323.458 84.3563 332.982 73.6396C331.183 82.6278 330.632 100.259 342.823 98.8758C355.014 97.493 360.885 90.6482 362.297 87.3986C360.949 94.1658 352.189 109.853 327.929 118.463C297.605 129.225 254.255 160.598 250.472 191.111C246.688 221.624 289.667 268.032 359.481 199.859C393.9 170.758 401.288 138.864 401.288 138.864C413.787 147.005 443.65 154.321 463.102 118.463C476.995 98.8758 476.573 91.9263 476.995 82.7829C481.549 88.4968 489.289 102.267 483.825 111.636C476.995 123.348 429.953 157.777 442.805 184.944C453.087 206.677 474.436 191.722 483.825 181.528C483.683 188.306 479.34 204.912 463.102 217.112C442.805 244.707 549.572 239.566 527.463 163.482C531.729 163.387 541.193 166.864 544.917 181.528C543.753 181.528 561.208 218.252 589.135 181.528C617.063 144.805 600.973 147.821 616.131 123.348C631.289 98.8758 655.921 114.969 664.447 98.8758C666.974 104.254 667.1 116.678 647.395 123.348C622.763 131.686 641.71 175.758 664.447 163.482C670.452 159.476 681.495 156.178 677.624 175.033C677.37 175.31 674.314 166.437 667.184 173.092C660.055 179.747 651.27 190.614 664.447 212.482C671.723 224.247 688.872 217.457 696.667 207.271C702.903 199.122 711.882 201.386 715 203.536V324L698.38 305.591L635.164 310.711L561.304 316.054C561.304 316.054 583.037 310.555 592.138 300.629C597.379 294.913 602.266 283.548 602.266 283.548C602.266 283.548 541.44 288.536 517.458 289.18C495.31 289.774 460.723 289.18 460.723 289.18L96.1855 285.748L83.4792 306.426L91.3642 309.964L82.9307 307.318L83.4792 306.426L37.3986 285.748H0V221.624Z" fill="#F47C0F"/>
<path d="M42.5166 246.903C34.1737 256.53 10.696 256.262 0 254.925V298.075C5.24442 292.316 17.7431 288.17 35.9032 298.075C72.5525 320.095 119.528 320.095 119.528 320.095C68.9436 303.967 93.343 294.639 96.264 293.476C106.228 289.508 179.056 288.17 210.978 289.42H464.076L409.137 277.774C409.137 277.774 384.635 273.779 380.169 261.621C376.308 251.114 387.161 233.822 387.161 233.822C387.161 233.822 354.727 255.094 331.223 261.621C308.213 268.011 293.672 271.643 270.29 266.786C250.176 262.607 226.205 255.141 222.988 243.769C219.771 232.398 217.242 205.076 232.863 186.762C248.484 168.448 247.002 157.885 244.309 154.892C244.758 156.389 243.86 160.055 236.678 162.748C217.601 167.461 229.945 134.918 231.067 134.469C219.935 139.317 217.315 156.896 217.396 165.079C219 253.321 116.319 263.749 119.528 240.486C122.095 221.875 105.088 214.013 96.264 212.409C105.89 220.431 101.077 242.892 75.4068 246.903C54.8705 250.112 62.5716 235.405 68.9892 227.651C63.6412 230.057 50.8595 237.277 42.5166 246.903Z" fill="#F4A138"/>
<path d="M613.029 295.945C603.196 309.07 562.797 316.802 551 317.59C551 317.59 570.586 319.781 583.184 320.345C620.744 322.024 656.37 315.811 679.197 312.951C686.832 311.994 708.821 309.54 705.572 320.345C704.29 324.608 698.517 329 698.517 329L715 323.597V225C715 225 711.938 244.445 702.955 249.312C695.894 253.138 690.579 249.783 682.669 249.312C668.404 248.463 646.534 243.234 646.534 243.234C646.534 243.234 663.542 252.369 663.65 262.818C663.738 271.232 659.785 276.979 652.873 281.052C645.941 285.137 639.823 284.486 632.587 281.052C626.668 278.243 620.542 268.896 620.542 268.896C617.352 273.402 622.861 282.821 613.029 295.945Z" fill="#F4A138"/>
<g filter="url(#filter0_d_54_17567)">
<path d="M540.828 321.026C522.589 337.402 422.22 334.026 344.844 334.026C267.468 334.026 133.411 334.026 124.828 303.179C142.062 271.21 155.347 285.932 193.562 260.292C240.787 228.606 252.73 208.14 306.828 202.526C360.145 196.992 411.363 180.403 451.059 231.18C455.519 236.885 464.615 243.972 475.328 251.327C479.654 254.296 486.763 264.9 507.328 268.48C540.828 275.48 520.743 279.91 530.328 286.48C557.139 304.86 553.976 309.221 540.828 321.026Z" fill="url(#paint0_linear_54_17567)"/>
<circle cx="291.828" cy="240.48" r="4" fill="#6C6C6C"/>
<circle cx="396.828" cy="245.48" r="3" fill="#6C6C6C"/>
<path d="M394.828 276.48C389.386 283.752 381.828 279.478 372.328 269.98C370.828 268.48 361.328 268.111 356.828 274.98C351.328 279.48 343.828 276.48 350.829 269.98C359.413 262.702 364.315 261.674 369.519 260.829C372.657 260.32 379.766 259.672 385.828 263.98C389.47 266.568 395.328 267.48 394.828 276.48Z" fill="#F2A3A3"/>
<path d="M231.391 295.599C191.945 324.287 297.114 322.112 340.776 322.112C384.437 322.112 511.891 334.964 511.891 308.099C511.891 281.233 380.052 291.599 336.391 291.599C292.729 291.599 275.391 263.599 231.391 295.599Z" fill="#E6E6E6"/>
<path d="M161.181 260.088C157.338 260.088 157.236 267.598 161.041 270.358L196.556 296.123C196.556 296.123 209.721 298.172 215.772 282.708C222.299 266.03 211.974 260.088 211.974 260.088L161.181 260.088Z" fill="#98887F"/>
</g>
<path d="M184.389 81.1015L219.821 36.8105L340.144 41.6087L507.711 44.9305L531.702 71.5049L525.058 118.01L497.376 149.752L407.688 146.799L388.126 172.266L378.16 144.585L340.144 140.894L217.976 159.717L184.389 81.1015Z" fill="#091A21"/>
<path d="M253.653 77.7256L258.292 78.2822H259.257L259.943 77.7256H260.63C261.632 78.4307 262.133 79.2965 262.133 80.3232C262.133 80.7809 262.083 81.4674 261.984 82.3828L262.393 86.7432C262.158 87.5719 261.978 87.9863 261.854 87.9863H261.446C260.58 87.9863 259.715 87.1204 258.849 85.3887C258.552 83.4714 258.187 82.5127 257.754 82.5127C257.457 82.0921 256.999 81.7272 256.381 81.418L255.564 81.5479L254.748 81.1396C253.041 81.1396 251.81 82.1416 251.056 84.1455V84.7021C251.056 86.8421 253.653 88.3451 258.849 89.2109C260.506 90.2747 261.688 91.957 262.393 94.2578C262.702 94.4434 262.887 95.2227 262.949 96.5957C263.061 96.5957 263.147 96.9111 263.209 97.542C262.603 100.177 261.558 102.088 260.073 103.275C259.381 103.708 257.97 104.259 255.843 104.927H255.026C253.629 104.927 252.348 104.519 251.186 103.702H249.423L248.736 104.24H247.642C246.912 103.745 246.547 103.065 246.547 102.199C246.547 101.408 246.726 99.3109 247.085 95.9092V94.2578C247.085 94.1217 247.271 93.9424 247.642 93.7197H248.05C248.817 93.7197 249.726 94.9505 250.777 97.4121C252.002 98.9583 253.369 99.7314 254.878 99.7314H255.026C256.647 99.7314 257.921 98.5439 258.849 96.1689V95.9092C258.403 93.7197 257.309 92.625 255.564 92.625C250.74 91.4499 248.328 89.3965 248.328 86.4648C248.155 86.4648 248.019 85.4629 247.92 83.459C248.229 81.9004 249.547 80.2181 251.872 78.4121C252.75 78.4121 253.344 78.1833 253.653 77.7256ZM252.559 79.6367C252.719 80.181 253.128 80.4531 253.783 80.4531H254.062C254.062 80.3913 254.105 80.1191 254.191 79.6367H254.6L254.47 80.6016C254.692 80.6016 255.101 80.7376 255.694 81.0098C256.004 80.8242 256.282 80.7314 256.529 80.7314H256.938C257.816 80.7314 258.496 81.418 258.979 82.791C258.979 85.2773 259.844 86.8236 261.576 87.4297L261.854 86.6133C261.756 84.8073 261.619 83.2116 261.446 81.8262C261.533 81.4798 261.576 81.1149 261.576 80.7314V80.3232C261.576 79.4574 261.211 78.777 260.481 78.2822H260.203C260.203 78.9131 259.931 79.2285 259.387 79.2285H258.44C258.082 78.9564 257.803 78.8203 257.605 78.8203L258.032 79.3584V79.7852H257.884C256.424 79.5625 255.694 79.3337 255.694 79.0986V78.4121L254.748 78.2822H253.932C253.016 78.7275 252.559 79.179 252.559 79.6367ZM256.381 80.8799V81.0098H257.067V80.8799H256.381ZM256.938 81.1396V81.2881C257.024 81.2881 257.525 81.6963 258.44 82.5127V82.3828C257.834 81.6777 257.333 81.2633 256.938 81.1396ZM257.884 81.418V81.5479L258.292 81.8262V81.6963L257.884 81.418ZM250.369 82.9209C250.394 83.1064 250.487 83.1992 250.647 83.1992C250.833 82.7415 251.198 82.1911 251.742 81.5479H251.464C250.734 81.8942 250.369 82.3519 250.369 82.9209ZM251.872 81.6963L251.464 82.2344H251.594L252.002 81.6963H251.872ZM258.7 82.6426V83.1992H258.849V82.6426H258.7ZM249.961 88.3945C249.986 88.5677 250.078 88.6543 250.239 88.6543C250.672 88.0234 250.944 87.708 251.056 87.708C251.241 87.7327 251.334 87.8255 251.334 87.9863C251.235 88.4564 251.186 88.7285 251.186 88.8027C251.643 89.582 251.872 90.083 251.872 90.3057C251.699 90.3923 251.563 90.4355 251.464 90.4355V90.5654C253.666 91.6663 255.713 92.2168 257.605 92.2168C258.793 92.7116 259.387 94.2578 259.387 96.8555C259.387 98.4759 257.748 99.7067 254.47 100.548H254.062C253.517 99.9665 252.379 99.4655 250.647 99.0449C249.856 96.3607 249.033 94.765 248.18 94.2578H247.642L247.493 94.9443V96.3174C247.778 96.6143 247.92 96.8431 247.92 97.0039C247.635 97.4616 247.493 97.9131 247.493 98.3584V98.915H247.92C248.068 98.915 248.204 98.5934 248.328 97.9502H248.866C249.163 97.9502 249.349 98.6367 249.423 100.01L250.091 100.548C250.091 100.424 250.227 100.288 250.499 100.14H250.926C251.099 100.164 251.186 100.257 251.186 100.418V100.696C251.186 100.869 251.099 100.956 250.926 100.956L249.961 100.696L249.831 100.956V101.364C249.831 101.488 250.283 101.81 251.186 102.329C251.792 103.517 252.521 104.11 253.375 104.11C253.375 104.284 254.148 104.42 255.694 104.519C256.56 104.061 257.612 103.696 258.849 103.424C260.308 102.595 261.403 101.228 262.133 99.3232C262.257 99.3232 262.436 98.7295 262.671 97.542C262.374 95.266 262.009 94.1279 261.576 94.1279H261.446V93.998C261.446 93.7878 261.49 93.6022 261.576 93.4414C261.156 92.3281 260.339 91.1901 259.127 90.0273H258.7C258.7 90.2995 258.614 90.4355 258.44 90.4355H258.292C258.131 90.4355 257.902 90.1201 257.605 89.4893C253.239 88.4007 251.056 87.4854 251.056 86.7432L250.647 86.4648C250.425 86.4648 250.196 87.1081 249.961 88.3945ZM251.186 86.6133V86.7432L251.594 87.0215V86.8916L251.186 86.6133ZM257.754 90.9922H258.162C258.298 90.9922 258.434 91.1283 258.57 91.4004V91.9385H258.032C257.847 91.9385 257.754 91.8457 257.754 91.6602V90.9922ZM256.938 91.5303H257.346V91.9385H256.938V91.5303ZM259.535 93.8496H259.943V94.2578H259.535V93.8496ZM259.127 95.6309V96.8555H259.257V95.6309H259.127ZM248.736 95.7607L248.866 96.0391C248.866 96.2246 248.773 96.3174 248.588 96.3174L248.458 96.0391C248.483 95.8535 248.576 95.7607 248.736 95.7607ZM250.926 98.2285V98.3584C251.012 98.5439 251.056 98.68 251.056 98.7666H251.464C251.464 98.6305 251.285 98.4512 250.926 98.2285ZM258.44 98.2285L258.032 98.7666H258.162L258.57 98.2285H258.44ZM254.191 100.27V100.418H254.748V100.27H254.191ZM247.233 102.329L247.085 102.607C247.246 103.337 247.611 103.702 248.18 103.702V103.146C247.895 102.601 247.58 102.329 247.233 102.329ZM273.896 78.041H274.843C275.696 78.041 276.612 81.3252 277.589 87.8936C278.677 91.4313 279.543 94.7093 280.187 97.7275C281.213 99.113 282.215 99.9355 283.192 100.195C283.737 100.826 284.009 101.599 284.009 102.515V102.923C284.009 103.405 282.184 103.77 278.535 104.018C278.535 104.191 278.306 104.277 277.849 104.277C277.304 104.215 277.032 104.129 277.032 104.018C276.674 104.191 276.358 104.277 276.086 104.277C275.542 104.277 275.041 103.64 274.583 102.366C274.299 102.366 274.156 102.28 274.156 102.106V101.828C274.527 101.544 274.756 100.907 274.843 99.917C275.548 99.917 275.962 99.7314 276.086 99.3604V98.9521C276.086 97.9997 275.628 97.4059 274.713 97.1709C273.105 97.1709 272.06 97.6719 271.577 98.6738C271.577 98.8594 271.528 98.9521 271.429 98.9521C271.998 100.498 272.635 101.271 273.34 101.271L273.618 101.698V102.106L273.488 102.923C273.575 103.071 273.618 103.3 273.618 103.609C273.123 104.03 272.486 104.345 271.707 104.556L270.074 104.277L266.104 104.704C265.015 104.024 264.471 103.337 264.471 102.645C264.471 101.977 265.151 101.34 266.512 100.733C267.674 99.6325 268.54 97.9007 269.109 95.5381L268.979 95.2598V94.4434C270.068 92.8971 270.612 90.7139 270.612 87.8936V87.3369C270.959 86.6689 271.503 84.8939 272.245 82.0117C272.381 81.9251 272.66 81.8818 273.08 81.8818V81.4551C273.08 81.3561 272.987 80.8551 272.802 79.9521V78.7275C273.037 78.2699 273.402 78.041 273.896 78.041ZM275.121 87.3369V87.6152H273.618C273.433 87.6152 273.16 88.9326 272.802 91.5674C272.703 91.5674 272.653 91.7529 272.653 92.124C273.445 93.0394 273.903 93.4971 274.026 93.4971H274.435C275.065 93.4971 275.659 92.9033 276.216 91.7158C275.758 91.221 275.529 90.2624 275.529 88.8398C275.406 88.8398 275.313 88.3389 275.251 87.3369H275.121ZM268.553 98.6738C268.466 99.0944 268.423 99.4593 268.423 99.7686C268.596 99.8675 268.732 99.917 268.831 99.917L269.518 99.7686V99.6387C269.518 98.9954 269.196 98.6738 268.553 98.6738ZM270.204 100.604H270.074C269.171 100.418 268.528 100.232 268.145 100.047C268.145 100.591 267.872 100.863 267.328 100.863C266.574 101.321 266.122 101.55 265.974 101.55C266.134 102.366 266.314 102.774 266.512 102.774H266.92C266.92 102.144 267.192 101.828 267.736 101.828L268.293 101.958V102.515C268.107 102.873 267.879 103.053 267.606 103.053V103.739H267.736C268.54 103.826 268.998 103.869 269.109 103.869C269.382 103.869 269.518 103.69 269.518 103.331H269.647C269.957 103.628 270.371 103.857 270.891 104.018C270.977 104.018 271.021 103.968 271.021 103.869L271.707 104.018C272.548 103.646 273.006 103.461 273.08 103.461L272.932 103.201C272.932 102.818 273.024 102.36 273.21 101.828C271.565 101.222 270.742 100.449 270.742 99.5088C270.458 99.5088 270.278 99.8737 270.204 100.604ZM271.15 99.5088V99.6387C271.286 100.01 271.429 100.195 271.577 100.195C271.392 99.8984 271.299 99.6696 271.299 99.5088H271.15ZM271.15 100.195V100.325C271.559 100.684 271.787 100.863 271.837 100.863V100.733C271.787 100.733 271.559 100.554 271.15 100.195ZM265.009 102.774C265.368 103.517 265.868 104.018 266.512 104.277C266.512 104.191 266.555 104.147 266.642 104.147C266.642 103.999 266.419 103.77 265.974 103.461L265.825 102.774H265.009ZM293.564 78.0039C298.129 78.0039 300.906 79.0986 301.896 81.2881C301.896 81.3994 302.353 81.8509 303.269 82.6426C303.17 83.125 303.12 83.3971 303.12 83.459C303.306 84.7454 303.398 85.6113 303.398 86.0566C303.398 86.6133 302.761 88.0729 301.487 90.4355C301.302 90.8438 301.209 91.4808 301.209 92.3467C301.58 94.2887 301.994 95.9277 302.452 97.2637C302.625 97.7214 304.035 99.181 306.683 101.643L306.812 102.329V102.867C306.812 103.671 306.225 104.129 305.05 104.24H304.901C302.044 103.882 300.269 103.702 299.576 103.702C298.488 102.168 297.943 100.437 297.943 98.5068L298.203 98.3584C298.203 98.2223 297.931 96.9049 297.387 94.4062C296.719 93.3053 296.082 92.7549 295.476 92.7549C294.115 93.2744 293.435 94.097 293.435 95.2227L293.843 96.4473C293.744 97.1029 293.694 97.4678 293.694 97.542C293.707 98.4079 294.758 99.7747 296.849 101.643V103.702C296.552 104.246 296.051 104.519 295.346 104.519H291.783C290.905 104.692 290.404 104.778 290.28 104.778C288.549 104.296 287.683 103.98 287.683 103.832L287.404 103.962H287.145C286.501 103.467 286.18 102.966 286.18 102.459V101.921C286.18 101.241 286.817 100.647 288.091 100.14C289.365 98.9769 290.002 97.5173 290.002 95.7607V95.6309C289.915 93.3548 289.779 91.623 289.594 90.4355C289.866 88.5677 290.002 87.2936 290.002 86.6133C290.002 84.1022 289.458 82.5065 288.369 81.8262C287.59 81.3932 287.046 80.9355 286.736 80.4531V79.5068C286.736 79.3708 287.052 79.0492 287.683 78.542H288.777C288.864 78.542 288.907 78.5915 288.907 78.6904C290.837 78.2327 292.389 78.0039 293.564 78.0039ZM289.056 79.915V81.0098H288.907L288.499 80.7314H287.831C287.831 80.8923 288.691 81.3499 290.41 82.1045C290.695 82.3148 290.837 82.4508 290.837 82.5127V82.6426C290.837 82.8281 290.651 82.9209 290.28 82.9209V83.6074L290.559 84.0156V84.1455C290.559 84.3311 290.466 84.4238 290.28 84.4238L290.41 84.7021V85.6484L290.559 87.0215H290.688L291.245 86.6133H291.653C292.297 86.7988 292.661 86.8916 292.748 86.8916C292.748 86.7926 292.791 86.7432 292.878 86.7432L292.6 85.5186C292.674 84.1455 292.767 83.459 292.878 83.459C292.767 83.3229 292.674 82.8714 292.6 82.1045L292.878 81.5479L292.47 81.2881H292.191C292.191 81.5602 292.148 81.8757 292.062 82.2344H291.653L291.375 82.1045L291.505 81.8262C290.899 80.2799 290.262 79.5068 289.594 79.5068C289.235 79.6429 289.056 79.779 289.056 79.915ZM293.156 84.832C293.156 86.3288 293.521 87.3307 294.251 87.8379C294.758 88.2956 295.395 88.5244 296.162 88.5244C297.226 88.3389 298.135 87.8812 298.89 87.1514C299.533 86.1989 299.854 85.5618 299.854 85.2402V84.1455C299.854 83.1807 298.989 82.3148 297.257 81.5479C297.047 81.5479 296.861 81.5973 296.7 81.6963C296.205 81.5973 295.797 81.5479 295.476 81.5479C294.709 81.5479 293.979 82.1849 293.286 83.459L293.156 84.832ZM293.008 82.2344C293.107 82.3952 293.156 82.5807 293.156 82.791H293.286C293.286 82.6055 293.558 82.2406 294.103 81.6963H293.843L293.008 82.2344ZM289.186 82.1045C289.186 82.2282 289.322 82.3643 289.594 82.5127V82.3828C289.594 82.1973 289.507 82.1045 289.334 82.1045H289.186ZM290.002 82.9209V83.459H290.15V82.9209H290.002ZM290.41 87.9863V88.8027C290.596 88.7038 290.738 88.6543 290.837 88.6543V88.2461C290.837 88.0729 290.744 87.9863 290.559 87.9863H290.41ZM290.15 90.3057C290.15 90.7757 290.194 91.5488 290.28 92.625H290.688L290.967 91.6602C290.781 91.3633 290.688 91.0911 290.688 90.8438V90.3057H290.15ZM325.85 78.0039C330.414 78.0039 333.191 79.0986 334.181 81.2881C334.181 81.3994 334.638 81.8509 335.554 82.6426C335.455 83.125 335.405 83.3971 335.405 83.459C335.591 84.7454 335.684 85.6113 335.684 86.0566C335.684 86.6133 335.047 88.0729 333.772 90.4355C333.587 90.8438 333.494 91.4808 333.494 92.3467C333.865 94.2887 334.28 95.9277 334.737 97.2637C334.91 97.7214 336.321 99.181 338.968 101.643L339.098 102.329V102.867C339.098 103.671 338.51 104.129 337.335 104.24H337.187C334.329 103.882 332.554 103.702 331.861 103.702C330.773 102.168 330.229 100.437 330.229 98.5068L330.488 98.3584C330.488 98.2223 330.216 96.9049 329.672 94.4062C329.004 93.3053 328.367 92.7549 327.761 92.7549C326.4 93.2744 325.72 94.097 325.72 95.2227L326.128 96.4473C326.029 97.1029 325.979 97.4678 325.979 97.542C325.992 98.4079 327.043 99.7747 329.134 101.643V103.702C328.837 104.246 328.336 104.519 327.631 104.519H324.068C323.19 104.692 322.689 104.778 322.565 104.778C320.834 104.296 319.968 103.98 319.968 103.832L319.689 103.962H319.43C318.786 103.467 318.465 102.966 318.465 102.459V101.921C318.465 101.241 319.102 100.647 320.376 100.14C321.65 98.9769 322.287 97.5173 322.287 95.7607V95.6309C322.201 93.3548 322.064 91.623 321.879 90.4355C322.151 88.5677 322.287 87.2936 322.287 86.6133C322.287 84.1022 321.743 82.5065 320.654 81.8262C319.875 81.3932 319.331 80.9355 319.021 80.4531V79.5068C319.021 79.3708 319.337 79.0492 319.968 78.542H321.062C321.149 78.542 321.192 78.5915 321.192 78.6904C323.122 78.2327 324.674 78.0039 325.85 78.0039ZM321.341 79.915V81.0098H321.192L320.784 80.7314H320.116C320.116 80.8923 320.976 81.3499 322.695 82.1045C322.98 82.3148 323.122 82.4508 323.122 82.5127V82.6426C323.122 82.8281 322.937 82.9209 322.565 82.9209V83.6074L322.844 84.0156V84.1455C322.844 84.3311 322.751 84.4238 322.565 84.4238L322.695 84.7021V85.6484L322.844 87.0215H322.974L323.53 86.6133H323.938C324.582 86.7988 324.947 86.8916 325.033 86.8916C325.033 86.7926 325.076 86.7432 325.163 86.7432L324.885 85.5186C324.959 84.1455 325.052 83.459 325.163 83.459C325.052 83.3229 324.959 82.8714 324.885 82.1045L325.163 81.5479L324.755 81.2881H324.477C324.477 81.5602 324.433 81.8757 324.347 82.2344H323.938L323.66 82.1045L323.79 81.8262C323.184 80.2799 322.547 79.5068 321.879 79.5068C321.52 79.6429 321.341 79.779 321.341 79.915ZM325.441 84.832C325.441 86.3288 325.806 87.3307 326.536 87.8379C327.043 88.2956 327.68 88.5244 328.447 88.5244C329.511 88.3389 330.42 87.8812 331.175 87.1514C331.818 86.1989 332.14 85.5618 332.14 85.2402V84.1455C332.14 83.1807 331.274 82.3148 329.542 81.5479C329.332 81.5479 329.146 81.5973 328.985 81.6963C328.491 81.5973 328.082 81.5479 327.761 81.5479C326.994 81.5479 326.264 82.1849 325.571 83.459L325.441 84.832ZM325.293 82.2344C325.392 82.3952 325.441 82.5807 325.441 82.791H325.571C325.571 82.6055 325.843 82.2406 326.388 81.6963H326.128L325.293 82.2344ZM321.471 82.1045C321.471 82.2282 321.607 82.3643 321.879 82.5127V82.3828C321.879 82.1973 321.792 82.1045 321.619 82.1045H321.471ZM322.287 82.9209V83.459H322.436V82.9209H322.287ZM322.695 87.9863V88.8027C322.881 88.7038 323.023 88.6543 323.122 88.6543V88.2461C323.122 88.0729 323.029 87.9863 322.844 87.9863H322.695ZM322.436 90.3057C322.436 90.7757 322.479 91.5488 322.565 92.625H322.974L323.252 91.6602C323.066 91.3633 322.974 91.0911 322.974 90.8438V90.3057H322.436ZM343.439 78.1338C344.639 78.3193 345.462 78.4121 345.907 78.4121C346.86 78.3255 347.633 78.2822 348.227 78.2822C349.043 79.1481 349.451 79.8285 349.451 80.3232V80.7314C348.635 81.3376 348.227 81.7025 348.227 81.8262C348.041 82.6055 347.948 83.1064 347.948 83.3291C348.802 85.2464 349.532 86.2051 350.138 86.2051H350.546C351.338 86.2051 352.067 85.2031 352.735 83.1992C352.735 81.987 352.278 81.2572 351.362 81.0098L351.232 80.7314V79.6367C351.851 78.7337 352.81 78.2822 354.108 78.2822C354.405 78.2822 354.634 78.3255 354.795 78.4121C355.401 78.3255 356.626 78.2327 358.469 78.1338C359.471 78.1338 360.021 78.9564 360.12 80.6016V80.8799C359.712 81.5107 359.254 81.8262 358.747 81.8262H358.339C358.252 81.8262 358.209 81.7829 358.209 81.6963C356.885 82.389 355.97 83.2982 355.463 84.4238C354.919 86.2174 353.966 88.6296 352.605 91.6602C352.234 92.7734 352.006 94.0537 351.919 95.501C351.919 97.8389 352.599 99.3418 353.96 100.01C354.096 100.195 355.011 100.56 356.706 101.104C357.164 101.575 357.393 101.983 357.393 102.329V102.867C357.393 103.968 357.207 104.519 356.836 104.519C356.391 104.519 355.933 104.382 355.463 104.11C355.463 104.308 354.418 104.58 352.327 104.927L351.362 104.648H350.416C349.773 104.834 349.408 104.927 349.321 104.927C348.864 104.741 348.635 104.605 348.635 104.519C348.437 104.519 347.707 104.655 346.445 104.927H345.907C344.534 104.209 343.848 103.659 343.848 103.275C343.674 102.645 343.588 102.1 343.588 101.643C343.588 101.395 344.497 100.894 346.315 100.14C347.354 100.14 348.171 99.4593 348.765 98.0986L348.635 97.4121C348.635 97.3503 348.678 96.7565 348.765 95.6309C348.765 93.2064 348.177 91.0664 347.002 89.2109C347.002 88.7533 346.544 87.6152 345.629 85.7969C345.171 84.0527 344.398 82.8652 343.31 82.2344C343 81.9622 342.227 81.7829 340.99 81.6963L340.434 81.0098V79.5068C340.434 79.1481 341.436 78.6904 343.439 78.1338ZM340.99 79.6367L340.842 79.915V80.3232C340.842 80.7809 341.071 81.0531 341.528 81.1396V81.2881H341.937V81.0098H341.528L341.658 80.3232V79.915C341.51 79.915 341.287 79.8223 340.99 79.6367ZM371.587 77.5771H371.717L374.055 77.9854C374.525 77.8988 374.976 77.8555 375.409 77.8555C376.325 78.1276 377.419 78.307 378.693 78.3936C379.609 79.0863 380.066 80.7253 380.066 83.3105C380.153 83.6693 380.382 85.265 380.753 88.0977L380.196 88.5059H379.102C378.768 88.5059 378.403 87.3678 378.007 85.0918C377.92 85.0918 377.877 84.999 377.877 84.8135L378.007 84.5352C377.834 83.6569 377.24 82.7477 376.226 81.8076C375.471 81.4489 374.883 81.2695 374.463 81.2695C373.684 81.3561 373.047 81.3994 372.552 81.3994C372.453 81.2262 372.403 81.0902 372.403 80.9912H370.771C370.771 81.3005 370.406 81.4798 369.676 81.5293C368.946 82.4076 368.581 83.0941 368.581 83.5889L368.451 84.8135C368.575 84.8135 368.711 84.9495 368.859 85.2217V86.1865L368.581 87.1328C369.348 88.1348 369.849 88.6357 370.084 88.6357H370.214C370.696 88.6357 371.383 88.1348 372.273 87.1328H372.403V86.1865C372.403 85.6917 372.589 85.3701 372.96 85.2217H373.776C374.11 85.2217 374.611 86.2236 375.279 88.2275C375.193 88.71 375.149 88.9883 375.149 89.0625C375.323 89.7799 375.409 90.5036 375.409 91.2334L375.688 91.1035H376.374C376.56 91.1283 376.652 91.221 376.652 91.3818V91.9199C376.652 92.1055 376.56 92.1982 376.374 92.1982H375.688L375.409 92.0684V93.293L374.871 96.2988L374.314 96.707H373.498C373.09 96.707 372.682 95.7051 372.273 93.7012C371.655 92.8848 371.061 92.4766 370.492 92.4766C369.218 93.0085 368.581 94.4186 368.581 96.707C368.581 98.6367 369.404 99.9108 371.049 100.529L371.995 100.678C373.9 100.678 375.131 100.263 375.688 99.4346C376.331 98.8903 376.652 97.8018 376.652 96.1689C377.048 95.0062 377.636 94.1403 378.415 93.5713H379.51C379.881 93.5713 380.202 94.2083 380.475 95.4824C380.376 98.1419 380.326 99.8242 380.326 100.529L380.196 101.086C380.283 101.247 380.326 101.426 380.326 101.624C379.72 103.628 378.632 104.63 377.061 104.63C377.061 104.729 376.875 104.778 376.504 104.778C375.576 104.778 373.708 104.636 370.9 104.352C367.35 104.525 365.575 104.846 365.575 105.316H365.019C364.722 104.772 364.406 104.5 364.072 104.5C363.12 104.228 362.619 104.092 362.569 104.092H361.475C361.202 104.092 360.974 103.677 360.788 102.849C361.332 101.488 362.105 100.808 363.107 100.808C364.357 100.808 365.315 100.035 365.983 98.4883C365.983 98.2904 365.94 97.7894 365.854 96.9854C365.854 96.5648 365.897 95.5133 365.983 93.8311C365.897 92.5199 365.854 91.79 365.854 91.6416C366.212 88.2028 366.392 85.8835 366.392 84.6836C366.392 83.5827 365.934 82.7601 365.019 82.2158C365.019 82.154 364.746 81.9746 364.202 81.6777C363.485 81.8633 362.94 81.9561 362.569 81.9561L361.196 80.583V79.0801C361.196 78.6224 362.019 78.2575 363.664 77.9854C363.936 78.0719 364.072 78.1647 364.072 78.2637C364.27 78.2637 364.45 78.2142 364.61 78.1152C364.833 78.1152 365.52 78.1647 366.67 78.2637C369.948 78.14 371.587 77.9111 371.587 77.5771ZM370.771 78.5234H370.362C369.373 78.5234 367.777 78.6595 365.575 78.9316V78.8018L365.445 78.5234L364.48 78.6719H364.202L363.386 78.5234C363.25 78.5234 362.705 78.709 361.753 79.0801V80.4346C361.753 80.583 362.118 80.9046 362.848 81.3994C364.332 81.1273 365.285 80.9912 365.705 80.9912C366.534 81.486 366.948 82.9456 366.948 85.3701V86.4648L367.895 86.873L368.173 86.4648L367.895 86.0381V85.6299L368.173 85.2217C367.987 85.2217 367.895 85.0856 367.895 84.8135C367.944 83.8115 368.037 83.3105 368.173 83.3105L368.024 83.0322V81.3994L368.173 80.7129L369.806 80.8613H370.362C370.362 80.4408 370.771 80.1624 371.587 80.0264H371.865L372.96 80.8613H373.498L374.185 80.7129V80.583C373.826 79.8656 373.232 79.179 372.403 78.5234C372.403 78.2513 372.311 78.1152 372.125 78.1152H371.717C371.383 78.3874 371.067 78.5234 370.771 78.5234ZM370.084 78.2637V78.3936H370.9V78.2637H370.084ZM374.593 78.5234C374.803 79.0801 374.989 79.3584 375.149 79.3584H375.558C375.558 79.2594 375.601 79.1172 375.688 78.9316C375.44 78.9316 375.304 78.709 375.279 78.2637C374.822 78.3503 374.593 78.4368 374.593 78.5234ZM371.179 80.583V80.7129H371.865C371.865 80.5273 371.772 80.4346 371.587 80.4346C371.414 80.5335 371.278 80.583 371.179 80.583ZM368.859 80.9912V81.1211H369.676V80.9912H368.859ZM365.019 81.1211V81.2695H365.575V81.1211H365.019ZM368.173 81.2695V82.3643H368.303V81.2695H368.173ZM368.451 81.2695V82.3643C368.587 82.3643 368.903 81.9993 369.397 81.2695H368.451ZM364.889 81.6777C364.975 81.6777 365.383 81.9499 366.113 82.4941C365.878 81.7643 365.656 81.3994 365.445 81.3994H365.167C364.981 81.4242 364.889 81.5169 364.889 81.6777ZM376.133 106.43H376.801C376.986 106.467 377.079 106.56 377.079 106.708V107.933C377.079 108.069 376.943 108.211 376.671 108.359H376.541C376.046 108.359 375.725 108.174 375.576 107.803V106.986C375.576 106.838 375.762 106.652 376.133 106.43ZM378.823 86.4648V86.7246C378.959 87.0957 379.095 87.2812 379.231 87.2812H379.51V86.7246C379.349 86.7246 379.12 86.638 378.823 86.4648ZM392.35 77.9854C394.514 77.9854 396.339 78.8512 397.823 80.583C398.961 82.1169 399.734 84.1641 400.143 86.7246C400.563 86.7246 400.928 88.4131 401.237 91.79L400.421 94.9258L400.551 95.2041V95.4824C400.551 96.1009 400.322 97.1029 399.864 98.4883L400.013 99.1748C398.974 101.166 397.557 102.669 395.764 103.684C394.96 104.129 394.323 104.352 393.853 104.352C392.578 104.079 391.261 103.9 389.9 103.813C389.01 103.059 388.008 101.964 386.895 100.529C386.004 100.529 385.138 98.0244 384.297 93.0146C384.297 92.9157 384.34 92.7796 384.427 92.6064C384.34 91.5303 384.297 90.7572 384.297 90.2871C384.297 86.6009 385.435 83.3167 387.711 80.4346C388.49 80.4346 389.127 79.9336 389.622 78.9316C389.622 78.5729 390.531 78.2575 392.35 77.9854ZM388.397 80.7129V80.9912C388.447 81.5355 388.583 81.8076 388.806 81.8076H388.936C390.123 81.0778 391.311 80.7129 392.498 80.7129L392.22 80.3047V80.1748H392.35C393.686 80.3975 394.601 80.6696 395.096 80.9912C395.244 81.0778 395.424 81.1211 395.634 81.1211C395.906 81.0592 396.085 80.8799 396.172 80.583L396.042 79.8965H394.539C394.329 79.8965 394.1 79.4883 393.853 78.6719L392.22 78.5234C390.748 78.5234 389.839 79.1172 389.492 80.3047C388.923 80.5768 388.558 80.7129 388.397 80.7129ZM387.841 87.8193V89.0625C387.841 89.1491 387.798 89.1924 387.711 89.1924L387.841 89.4707C387.754 89.9408 387.711 90.2129 387.711 90.2871C387.896 90.6211 387.989 90.986 387.989 91.3818V91.6416C387.705 92.0003 387.562 92.2786 387.562 92.4766C387.562 93.8372 387.977 95.0186 388.806 96.0205C389.412 97.5049 390.364 98.5996 391.663 99.3047C391.997 99.4902 392.362 99.583 392.758 99.583H393.036C394.298 99.583 395.529 98.7171 396.729 96.9854C397.001 96.5277 397.366 95.1113 397.823 92.7363C398.009 92.7363 398.102 92.1488 398.102 90.9736C397.842 86.236 397.341 83.7311 396.599 83.459C395.312 81.9993 394.125 81.2695 393.036 81.2695H392.628C390.797 81.2695 389.523 82.3148 388.806 84.4053C388.806 85.0732 388.62 85.4814 388.249 85.6299C387.977 86.5205 387.841 87.2503 387.841 87.8193ZM428.03 78.1152C430.306 78.8698 431.444 80.1006 431.444 81.8076C431.321 81.8076 431.185 81.9437 431.036 82.2158L430.22 82.0859C429.267 82.1725 428.494 82.2158 427.9 82.2158C427.084 82.9704 426.676 83.5641 426.676 83.9971C426.577 84.9495 426.527 85.7227 426.527 86.3164C426.527 87.4544 426.663 88.8213 426.936 90.417C426.762 92.1117 426.676 93.7507 426.676 95.334V98.0801C426.676 98.5996 426.762 99.5088 426.936 100.808C426.775 100.808 426.595 101.216 426.397 102.032C424.789 103.937 423.559 105.125 422.705 105.595H421.48C420.59 105.78 420.089 105.873 419.978 105.873H419.699C417.114 105.873 415.246 104.593 414.096 102.032C413.824 102.032 413.502 101.445 413.131 100.27L413.279 98.6182C413.18 97.7152 413.131 97.0348 413.131 96.5771C413.131 95.5752 414.09 94.6165 416.007 93.7012H416.693C418.104 93.7012 418.969 95.2041 419.291 98.21L419.143 98.8965C419.786 99.8984 420.472 100.399 421.202 100.399C421.202 100.486 421.245 100.529 421.332 100.529H421.48C422.755 99.7871 423.392 99.0573 423.392 98.3398C423.33 94.9753 423.144 93.293 422.835 93.293C422.934 92.056 422.983 91.1468 422.983 90.5654V89.3223C422.983 88.7409 422.934 88.1533 422.835 87.5596L423.113 85.2217C422.928 85.2217 422.835 85.1351 422.835 84.9619C422.835 84.5042 422.928 84.2754 423.113 84.2754C422.47 82.6302 421.239 81.8076 419.421 81.8076C418.332 81.6715 417.788 81.4922 417.788 81.2695V80.0264C418.369 78.9378 419.328 78.3936 420.664 78.3936H426.397L428.03 78.1152ZM423.392 93.0146C423.664 93.6826 423.8 94.2331 423.8 94.666H424.895C425.08 94.6908 425.173 94.7773 425.173 94.9258V95.4824C425.173 95.569 425.123 95.6123 425.024 95.6123C425.123 96.6143 425.352 97.1152 425.711 97.1152V97.6719C425.439 97.9935 425.303 98.3089 425.303 98.6182C425.575 99.348 425.89 99.7129 426.249 99.7129V99.583C426.249 99.4964 426.206 99.1315 426.119 98.4883C426.206 97.8574 426.249 97.3564 426.249 96.9854C425.804 96.7503 425.581 96.3854 425.581 95.8906C425.94 94.765 426.119 94.0785 426.119 93.8311C425.958 93.1012 425.779 92.7363 425.581 92.7363C424.925 92.8353 424.561 92.8848 424.486 92.8848C424.301 92.7858 424.165 92.7363 424.078 92.7363L423.392 93.0146ZM426.249 98.21V98.748H426.397V98.21H426.249ZM441.037 77.9854C443.202 77.9854 445.026 78.8512 446.511 80.583C447.649 82.1169 448.422 84.1641 448.83 86.7246C449.251 86.7246 449.616 88.4131 449.925 91.79L449.108 94.9258L449.238 95.2041V95.4824C449.238 96.1009 449.009 97.1029 448.552 98.4883L448.7 99.1748C447.661 101.166 446.245 102.669 444.451 103.684C443.647 104.129 443.01 104.352 442.54 104.352C441.266 104.079 439.949 103.9 438.588 103.813C437.697 103.059 436.695 101.964 435.582 100.529C434.691 100.529 433.826 98.0244 432.984 93.0146C432.984 92.9157 433.028 92.7796 433.114 92.6064C433.028 91.5303 432.984 90.7572 432.984 90.2871C432.984 86.6009 434.122 83.3167 436.398 80.4346C437.178 80.4346 437.815 79.9336 438.31 78.9316C438.31 78.5729 439.219 78.2575 441.037 77.9854ZM437.085 80.7129V80.9912C437.134 81.5355 437.271 81.8076 437.493 81.8076H437.623C438.811 81.0778 439.998 80.7129 441.186 80.7129L440.907 80.3047V80.1748H441.037C442.373 80.3975 443.288 80.6696 443.783 80.9912C443.932 81.0778 444.111 81.1211 444.321 81.1211C444.593 81.0592 444.773 80.8799 444.859 80.583L444.729 79.8965H443.227C443.016 79.8965 442.787 79.4883 442.54 78.6719L440.907 78.5234C439.435 78.5234 438.526 79.1172 438.18 80.3047C437.611 80.5768 437.246 80.7129 437.085 80.7129ZM436.528 87.8193V89.0625C436.528 89.1491 436.485 89.1924 436.398 89.1924L436.528 89.4707C436.442 89.9408 436.398 90.2129 436.398 90.2871C436.584 90.6211 436.677 90.986 436.677 91.3818V91.6416C436.392 92.0003 436.25 92.2786 436.25 92.4766C436.25 93.8372 436.664 95.0186 437.493 96.0205C438.099 97.5049 439.052 98.5996 440.351 99.3047C440.685 99.4902 441.049 99.583 441.445 99.583H441.724C442.985 99.583 444.216 98.7171 445.416 96.9854C445.688 96.5277 446.053 95.1113 446.511 92.7363C446.696 92.7363 446.789 92.1488 446.789 90.9736C446.529 86.236 446.028 83.7311 445.286 83.459C444 81.9993 442.812 81.2695 441.724 81.2695H441.315C439.485 81.2695 438.211 82.3148 437.493 84.4053C437.493 85.0732 437.308 85.4814 436.937 85.6299C436.664 86.5205 436.528 87.2503 436.528 87.8193ZM457.811 97.208H458.534C459.697 97.208 460.464 98.5439 460.835 101.216C460.588 103.232 459.74 104.24 458.293 104.24C458.021 104.401 457.78 104.481 457.569 104.481C456.271 104.098 455.621 103.851 455.621 103.739C454.891 102.663 454.526 101.939 454.526 101.568V99.5088C454.526 99.348 454.65 99.2676 454.897 99.2676V98.4141C455.677 97.61 456.648 97.208 457.811 97.208ZM455.621 98.3027L455.51 98.5439C455.658 98.4574 455.776 98.4141 455.862 98.4141V98.3027H455.621ZM455.009 99.8799V101.327C455.009 101.537 455.089 101.896 455.25 102.403H455.38V102.292C455.293 102.144 455.25 102.026 455.25 101.939L455.51 101.81H455.621C455.621 102.193 455.825 102.558 456.233 102.904H456.345C456.345 102.743 456.388 102.663 456.475 102.663C456.475 102.292 456.227 101.562 455.732 100.474C455.732 100.078 455.491 99.8799 455.009 99.8799ZM453.933 103.016C454.489 103.016 454.768 103.3 454.768 103.869V104.24C454.768 104.401 454.687 104.481 454.526 104.481H454.044C453.92 104.481 453.759 104.314 453.562 103.98V103.387C453.562 103.275 453.685 103.152 453.933 103.016ZM454.044 103.517V103.869C454.069 104.03 454.149 104.11 454.285 104.11V103.739C454.285 103.591 454.205 103.517 454.044 103.517ZM470.057 97.208H470.78C471.943 97.208 472.71 98.5439 473.081 101.216C472.834 103.232 471.986 104.24 470.539 104.24C470.267 104.401 470.026 104.481 469.815 104.481C468.517 104.098 467.867 103.851 467.867 103.739C467.137 102.663 466.772 101.939 466.772 101.568V99.5088C466.772 99.348 466.896 99.2676 467.144 99.2676V98.4141C467.923 97.61 468.894 97.208 470.057 97.208ZM467.867 98.3027L467.756 98.5439C467.904 98.4574 468.022 98.4141 468.108 98.4141V98.3027H467.867ZM467.255 99.8799V101.327C467.255 101.537 467.335 101.896 467.496 102.403H467.626V102.292C467.539 102.144 467.496 102.026 467.496 101.939L467.756 101.81H467.867C467.867 102.193 468.071 102.558 468.479 102.904H468.591C468.591 102.743 468.634 102.663 468.721 102.663C468.721 102.292 468.473 101.562 467.979 100.474C467.979 100.078 467.737 99.8799 467.255 99.8799ZM466.179 103.016C466.735 103.016 467.014 103.3 467.014 103.869V104.24C467.014 104.401 466.933 104.481 466.772 104.481H466.29C466.166 104.481 466.006 104.314 465.808 103.98V103.387C465.808 103.275 465.931 103.152 466.179 103.016ZM466.29 103.517V103.869C466.315 104.03 466.395 104.11 466.531 104.11V103.739C466.531 103.591 466.451 103.517 466.29 103.517ZM482.303 97.208H483.026C484.189 97.208 484.956 98.5439 485.327 101.216C485.08 103.232 484.232 104.24 482.785 104.24C482.513 104.401 482.272 104.481 482.062 104.481C480.763 104.098 480.113 103.851 480.113 103.739C479.383 102.663 479.019 101.939 479.019 101.568V99.5088C479.019 99.348 479.142 99.2676 479.39 99.2676V98.4141C480.169 97.61 481.14 97.208 482.303 97.208ZM480.113 98.3027L480.002 98.5439C480.15 98.4574 480.268 98.4141 480.354 98.4141V98.3027H480.113ZM479.501 99.8799V101.327C479.501 101.537 479.581 101.896 479.742 102.403H479.872V102.292C479.785 102.144 479.742 102.026 479.742 101.939L480.002 101.81H480.113C480.113 102.193 480.317 102.558 480.726 102.904H480.837C480.837 102.743 480.88 102.663 480.967 102.663C480.967 102.292 480.719 101.562 480.225 100.474C480.225 100.078 479.983 99.8799 479.501 99.8799ZM478.425 103.016C478.981 103.016 479.26 103.3 479.26 103.869V104.24C479.26 104.401 479.179 104.481 479.019 104.481H478.536C478.412 104.481 478.252 104.314 478.054 103.98V103.387C478.054 103.275 478.177 103.152 478.425 103.016ZM478.536 103.517V103.869C478.561 104.03 478.641 104.11 478.777 104.11V103.739C478.777 103.591 478.697 103.517 478.536 103.517Z" fill="white"/>
</g>
</g>
<defs>
<filter id="filter0_d_54_17567" x="104.828" y="175.48" width="465.863" height="178.834" filterUnits="userSpaceOnUse" color-interpolation-filters="sRGB">
<feFlood flood-opacity="0" result="BackgroundImageFix"/>
<feColorMatrix in="SourceAlpha" type="matrix" values="0 0 0 0 0 0 0 0 0 0 0 0 0 0 0 0 0 0 127 0" result="hardAlpha"/>
<feOffset/>
<feGaussianBlur stdDeviation="10"/>
<feComposite in2="hardAlpha" operator="out"/>
<feColorMatrix type="matrix" values="0 0 0 0 0 0 0 0 0 0 0 0 0 0 0 0 0 0 0.2 0"/>
<feBlend mode="normal" in2="BackgroundImageFix" result="effect1_dropShadow_54_17567"/>
<feBlend mode="normal" in="SourceGraphic" in2="effect1_dropShadow_54_17567" result="shape"/>
</filter>
<linearGradient id="paint0_linear_54_17567" x1="403.076" y1="264.897" x2="410.319" y2="155.088" gradientUnits="userSpaceOnUse">
<stop stop-color="#BFD6F7"/>
<stop offset="1" stop-color="#F47C0F"/>
</linearGradient>
<clipPath id="clip0_54_17567">
<rect width="714" height="370" fill="white"/>
</clipPath>
<clipPath id="clip1_54_17567">
<rect width="714" height="370" fill="white" transform="translate(0 -2)"/>
</clipPath>
<clipPath id="clip2_54_17567">
<rect width="715" height="372" fill="white" transform="translate(0 -2)"/>
</clipPath>
</defs>
</svg>
