<svg width="714" height="370" viewBox="0 0 714 370" fill="none" xmlns="http://www.w3.org/2000/svg">
<g clip-path="url(#clip0_54_17566)">
<rect width="714" height="370" fill="#1C1C1C"/>
<g clip-path="url(#clip1_54_17566)">
<rect width="716.09" height="370" transform="translate(0 2)" fill="#441022"/>
<path d="M275.5 253.5C189.1 255.5 126.833 268.667 106.5 275V370.5H692.5V287.5C686.333 283.333 662.6 272.9 617 264.5C560 254 383.5 251 275.5 253.5Z" fill="#FF9510"/>
<ellipse cx="276.5" cy="270.5" rx="16.5" ry="3.5" fill="#F26C0C"/>
<path d="M225 293C200.2 294.6 180.334 312.667 173.5 321.5C155.667 318.334 119.7 311.8 118.5 311C117 310 105.5 286.5 114.5 286.5C123.5 286.5 153 278.5 202 275.5C251 272.5 259 279.5 264.5 286.5C270 293.5 256 291 225 293Z" fill="#FEAF09"/>
<path d="M213 329.5C212 322.5 239 322 242.5 322V329.5C255.333 333.833 283.1 343 291.5 345C299.9 347 358 348.167 386 348.5L495 305.5C501.833 305.833 516.2 307.5 519 311.5C522.5 316.5 514 314.5 499.5 322C485 329.5 486 332.5 491.5 337.5C497 342.5 474 344 455 345C436 346 435 354.5 417 355C399 355.5 392 356.5 368.5 361C345 365.5 328.5 368 311 364.5C293.5 361 286.5 361.5 264 361C241.5 360.5 229 358 234 352C239 346 214 336.5 213 329.5Z" fill="#FEAF09"/>
<path d="M320.466 78.699C325.8 76.699 372.336 59.4788 394 68.4984C418.5 78.6981 438.5 79.1993 461 100C473.44 111.501 483.1 171.2 473.5 180C463.9 188.8 451.001 243 451.001 243L398.85 231.812C366.075 227.806 325.428 222.815 299.501 210.5C259.117 191.317 265.247 148.2 267.466 134.698C272.266 105.499 285.466 92.5319 291.466 89.6984L320.466 78.699Z" fill="#4D1846"/>
<path d="M241.5 311L282.5 295.5H440.5H495.5C496.833 301.833 497.3 315.6 488.5 320C479.7 324.4 438.167 343.167 418.5 352C393.667 354.667 340.4 360 326 360C311.6 360 278.333 354.667 263.5 352L237.5 336L241.5 311Z" fill="#551018"/>
<path d="M666.5 281.5L596.5 262.5L604 231.5C608 224.333 616.5 209 618.5 205C620.5 201 642.667 197.333 653.5 196C657.833 194.5 667.2 190.1 670 184.5C673.5 177.5 687 165.5 692 159.5C696 154.7 707.333 157.5 712.5 159.5L697 241L666.5 281.5Z" fill="#A81B26"/>
<path d="M205 71.0007C193.4 50.6007 179.833 49.5007 174.5 51.5007L145.5 62.5C139.5 65.3336 126.3 78.3005 121.5 107.5C116.7 136.699 150.167 188.333 167.5 210.5C176 200.333 195.4 177.8 205 169C214.6 160.2 219.667 133 221 120.5C220.5 112.5 216.6 91.4007 205 71.0007Z" fill="#4D1846"/>
<path d="M609.966 74.7006C598.366 54.3006 568.799 61.7009 563.466 63.7009L534.466 74.7002C528.466 77.5338 515.266 90.5007 510.466 119.7C505.666 148.9 539.133 200.533 556.466 222.7C564.966 212.534 584.366 190 593.966 181.2C603.566 172.4 626.667 166 628 153.5C650.034 153.5 621.566 95.1006 609.966 74.7006Z" fill="#4D1846"/>
<path d="M576.5 154.5C582.1 134.9 604.5 121.667 615 117.5V123L621 129L647 131H661.5L670 154.5V184L647 191H615C612 193.5 604.1 201.7 596.5 214.5C588.9 227.3 590 251.833 591.5 262.5H556L505.5 255H450V243H474.5C477.333 237.167 483.3 225.5 484.5 225.5C486 225.5 499 240.5 505.5 225.5C512 210.5 524 192.5 528 191C537.393 187.478 553.167 203.667 556 209.5C560.5 199.333 570.9 174.1 576.5 154.5Z" fill="#880633"/>
<path d="M194 56C196.667 59.8333 203.2 69.8 208 79C222.311 102.374 219.139 130.906 218.5 139L221 123.5V102L218.5 86.5L194 56Z" fill="#611C3B"/>
<path d="M527 80.5C524.333 84.3333 522.949 90 520.5 94C506.189 117.374 512.861 141.905 513.5 149.999L511 134.499V112.999L513.5 97.4992L527 80.5Z" fill="#611C3B"/>
<path d="M300 80.5L286.5 92.5L311.5 82L328.5 76H318L300 80.5Z" fill="#611C3B"/>
<path d="M443.631 81.2269L423 78.0003L443.631 86.5L463.597 102.057L457.602 93.436L443.631 81.2269Z" fill="#611C3B"/>
<path d="M213.5 140C207.5 123.2 178.333 120.667 164.5 121.5L155.5 115C152.833 115.333 146 119.56 146 125C146 129 145.667 128.5 143 132L151.5 149.5H128L94.5 148C102 159 92.6 183.2 101 196C109.4 208.8 144.5 258 160.5 263.5L219 259.5L248 254C257.333 253.667 277.3 253.2 282.5 254C287.7 254.8 300.333 258 306 259.5C303.333 234.833 295.9 183.4 287.5 175C279.1 166.6 272.667 158.833 270.5 156C266.5 156.333 257.5 158.9 253.5 166.5C249.5 174.1 240.5 175.333 236.5 175C231.333 170.333 219.5 156.8 213.5 140Z" fill="#8D061E"/>
<path d="M128 178C130.761 180.761 114.833 160.333 111 152.5L94 147.5L75.0004 154.5C74.6671 160.833 75.1996 179 75.9996 181C76.7996 183 87.1666 199.167 85.4999 208.5L111 272.5H130H145L166.5 262.5L145 248L119.5 205L111 173.5L103.5 160L97 154.5L107 156.5C113.833 162.833 125 175 128 178Z" fill="#3B0631"/>
<path d="M266.5 325.5L241.5 311L236.5 336L263 352.5L313.5 360.5H335.5L418 352.5L491.5 318.5L496.5 310.5V295L482 306.5L414.5 338.5L337 343L317 338.5L266.5 325.5Z" fill="#B91823"/>
<path d="M224 243.999C217.5 235.999 216.5 240.499 209.5 220.499C207.3 214.498 200 203 196.5 191C193.7 181.4 195.333 167.333 196.5 161.5C196.5 151.5 195.167 144 194.5 141.5C193 136 190 136.499 179.5 132.499C169 128.499 164 120.999 166 123.499C168 125.999 185.5 132.499 193 136.499C200.5 140.499 196.5 153.999 202 182.999C207.5 211.999 209.5 211.999 217.5 229.499C225.5 246.999 224 231.999 235.5 243.999C244.7 253.599 250.334 256.999 252 257.499L224 262.499C226.167 258.999 229.2 250.399 224 243.999Z" fill="#FF9510"/>
<mask id="mask0_54_17566" style="mask-type:alpha" maskUnits="userSpaceOnUse" x="272" y="98" width="188" height="224">
<path d="M460 234.654C460 286.784 417.915 322 366 322C314.085 322 272 286.784 272 234.654C272 182.524 314.085 98 366 98C417.915 98 460 182.524 460 234.654Z" fill="url(#paint0_linear_54_17566)"/>
</mask>
<g mask="url(#mask0_54_17566)">
<path d="M460 234.654C460 286.784 417.915 322 366 322C314.085 322 272 286.784 272 234.654C272 182.524 314.085 98 366 98C417.915 98 460 182.524 460 234.654Z" fill="url(#paint1_linear_54_17566)"/>
<path d="M439.525 189.672C440.401 208.706 428.824 234.711 413.101 235.435C397.377 236.158 383.461 211.325 382.586 192.292C381.71 173.258 393.746 157.242 409.47 156.518C425.193 155.795 438.65 170.638 439.525 189.672Z" fill="#92B9F2"/>
<path d="M289.681 259.874C308.614 262.013 332.467 277.548 330.7 293.189C328.933 308.83 302.215 318.652 283.282 316.513C264.349 314.375 250.432 299.961 252.199 284.321C253.966 268.68 270.747 257.735 289.681 259.874Z" fill="#92B9F2"/>
<path d="M309.162 163.947C307.38 150.469 317.65 130.797 333.255 128.734C348.859 126.672 363.888 142.999 365.67 156.477C367.452 169.955 356.247 182.553 340.642 184.616C325.038 186.679 310.944 177.425 309.162 163.947Z" fill="#92B9F2"/>
<path d="M378.244 129.504C367.863 120.212 359.972 101.13 367.338 92.9008C374.705 84.6711 394.541 90.4096 404.922 99.702C415.302 108.994 417.746 123.199 410.379 131.428C403.012 139.658 388.625 138.797 378.244 129.504Z" fill="#92B9F2"/>
<path d="M411.505 271.405C412.86 287.155 401.137 309.354 384.442 310.791C367.748 312.228 352.403 292.359 351.048 276.609C349.692 260.86 360.924 240.091 377.619 238.654C394.313 237.217 410.149 255.656 411.505 271.405Z" fill="#92B9F2"/>
<path d="M448.639 295.985C435.52 287.165 429.347 258.51 443.343 237.693C457.339 216.875 486.206 211.779 499.324 220.599C512.443 229.42 517.98 256.543 503.984 277.36C489.988 298.178 461.758 304.806 448.639 295.985Z" fill="#92B9F2"/>
<path d="M223.639 241.985C210.52 233.165 204.347 204.51 218.343 183.693C232.339 162.875 261.206 157.779 274.324 166.599C287.443 175.42 292.98 202.543 278.984 223.36C264.988 244.178 236.758 250.806 223.639 241.985Z" fill="#92B9F2"/>
<path d="M317.785 200.115C331.821 198.354 344.025 208.209 345.76 222.036C347.495 235.863 338.104 248.426 324.068 250.188C310.032 251.949 298.876 241.963 297.141 228.136C295.406 214.309 303.75 201.877 317.785 200.115Z" fill="#92B9F2"/>
</g>
<path d="M460 234.654C460 286.784 417.915 322 366 322C314.085 322 272 286.784 272 234.654C272 182.524 314.085 98 366 98C417.915 98 460 182.524 460 234.654Z" fill="url(#paint2_linear_54_17566)" style="mix-blend-mode:plus-lighter"/>
<path d="M166 238C162 232 164.333 218.5 166 212.5C168.333 217.833 173 229.4 173 233C173 236.6 181.333 242.833 185.5 245.5L208 260.5L189 261.5C183.167 256.333 170 244 166 238Z" fill="#63072F"/>
<path d="M163 166C163.8 169.2 165.667 187 166.5 195.5L168 174L164.5 151.5L154.5 139.5C152.5 135.667 148.5 127.5 148.5 125.5C148.5 123.5 149.5 119.667 150 118L146 122.5C146 123.5 145.9 126 145.5 128C145.1 130 143.667 130.833 143 131L152 149L159.5 156C160.333 158 162.2 162.8 163 166Z" fill="#710819"/>
<path d="M178.5 306C177.3 302 173.333 287.333 171 280C169 281 161.8 292.4 153 300C142 309.5 126.5 298 120.5 290.5C115.7 284.5 109.833 264.333 107.5 255L114 287.5C117.667 293.667 132.435 315.032 147.5 307.5C164.5 299 168.211 280.422 170 284C171 286 175 310 176 312C177 314 192.5 347.5 190.5 340.5C188.5 333.5 180 311 178.5 306Z" fill="#B40600"/>
<path d="M103.187 225.013C103.173 224.748 103.147 224.456 103.105 224.141C102.068 218.716 91.563 215.889 89.1871 213.513C87.1871 211.513 79.354 209.013 75.6874 208.013C72.5207 200.513 68 181.999 71.4995 191.499C75.4443 202.209 85.6874 207.513 94.1874 211.513C100.42 214.446 102.648 220.682 103.105 224.141C103.159 224.424 103.187 224.715 103.187 225.013Z" fill="#B40600"/>
<path d="M253.5 186C248.7 179.2 241.167 177.5 238 177.5L236 176.5C235.2 176.1 233 172.333 232 170.5C232.5 171.333 234.2 173.3 237 174.5C240.5 176 244.5 173.5 246 173C247.5 172.5 250.5 171 252 168.5C254.4 163.3 258.667 160.333 260.5 159.5C258 161 258 163.5 255.5 168.5C253 173.5 258.5 175 261 186C263 194.8 265.833 200.333 267 202C264.5 199.5 258.3 192.8 253.5 186Z" fill="#63072F"/>
<path d="M467 249C471 247.5 471.5 244.5 474.5 242.5V247.5L468.5 253.5C466.667 252.5 463.8 250.2 467 249Z" fill="#710819"/>
<path d="M561.5 237L549 248L563 254L581 262.5L591 254L589.5 233H577.5L561.5 237Z" fill="#710819"/>
<path d="M526 204.5L521.5 239L512 237.5L499 235L496.5 232L503.5 229L514.5 206L522 197L526 204.5Z" fill="#710819"/>
<path d="M497 243C492.6 242.2 486.5 231.667 484 226.5C484 225 485.5 225 488 227.5C490 229.5 494.833 231.334 497 232C497 233.334 499.5 236.1 509.5 236.5C522 237 582.5 257.5 554 251C525.5 244.5 502.5 244 497 243Z" fill="#A81B26"/>
<path d="M536.5 190L528 191V201L535.5 208L538.5 219.5L543 223L565 224C568.833 226.833 576.6 232.6 577 233C577.4 233.4 585.5 233.833 589.5 234V228.5L593 218.5H584L570 217L556 209L546.5 193L536.5 190Z" fill="#A81B26"/>
<path d="M637 209.5L618.5 203L657 195L668 198L708.5 200L705 212.5L668 209.5H637Z" fill="#D62727"/>
<path d="M606.5 180L614.5 189.5L648 191L629.5 184L603 174L582 170L606.5 180Z" fill="#A81B26"/>
<path d="M682 178.5C680.8 179.7 675.833 179 673.5 178.5L676.5 173H679C681.833 173.5 687.9 174.5 689.5 174.5C691.5 174.5 698 173 699 173C699.8 173 693 176.667 689.5 178.5C687.5 178 683.2 177.3 682 178.5Z" fill="#D62727"/>
<path d="M620 128.5C614.8 126.1 613.833 121.5 614 119.5L620 126H626.5H659L676 132C679.167 133.667 687.4 137 695 137H711.5V146.5L705.5 157H695L687.5 164.5L676 176L671 184C669.167 186 664.7 190.6 661.5 193C658.3 195.4 657.167 195.667 657 195.5L640 198L620 203.5L605 229C602.667 235.167 599.2 248.8 600 256C600.8 263.2 610.667 268.5 616 270C603.667 268.333 579.4 264.5 581 262.5C583 260 588.5 254.5 588.5 251.5V233C588.5 229 591.5 222.333 593 219.5C599.334 210.333 612.4 191.6 614 190C615.6 188.4 632 189.333 640 190C644.334 189.5 654.7 187.6 661.5 184C670 179.5 666 179 668 171C669.6 164.6 668.667 156.667 668 153.5L661.5 132L653 130.5H635C633.5 130.5 626.5 131.5 620 128.5Z" fill="#FF9510"/>
<path d="M615.5 191C616.167 193.833 617.5 199.9 617.5 201.5L638 196L655 194L647.5 191H641L622.5 190L615.5 191Z" fill="#FFFA47"/>
<path d="M226.5 244.5L224 242L222.5 241L228.5 240L231.5 242L226.5 244.5Z" fill="#FEFC12"/>
<path d="M670.5 158C670.167 161.667 669.4 169.8 669 173L675.5 163L680 168L692 156L703 151.5C700.333 150.667 694.8 149 694 149H687L680 140.5H674L664 133L670.5 158Z" fill="#FFFA47"/>
<path d="M196.5 175C195.3 183.4 197.667 192.5 199 196L200 190C200.833 190.5 202.6 191.6 203 192C202.2 190.4 200 179 199 173.5V180.5C198.667 179.833 197.7 177.8 196.5 175Z" fill="#FEFC12"/>
<path d="M463 286.001C442.2 285.201 452.666 278.001 460.5 274.501C466.5 271.818 473.6 265.401 488 267.001C506 269.001 532 274.501 563.5 274.501C595 274.501 609 286.001 654.5 290.001C690.9 293.201 658 316.334 637 327.501C620.667 327.334 582.3 325.801 559.5 321.001C531 315.001 553 302.001 529 290.001C505 278.001 489 287.001 463 286.001Z" fill="#FEAD0A"/>
<path d="M39.4996 70.5C37.0996 97.3 62.833 170.667 75.9996 204C82.9998 207 98 214.7 102 221.5C107 230 105.5 289.5 133.5 302C161.5 314.5 171.5 271 171.5 283.5C171.5 293.5 192.5 347 203 372.5H0.5V1H716.5V372.5H528.5C532.333 362.333 541.9 343.8 549.5 351L549.66 351.151C559.085 360.083 566.652 367.253 593.5 323.5C620.5 279.5 665 306 692 221.5C719 137 697.5 38 692 38C687.6 38 681.5 44.3333 679 47.5C678.333 38.6667 670.2 21 643 21C609 21 587.5 38 579.5 53.5C571.5 69 534 124 540 104C546 84 529.5 47.5 513.5 30C497.5 12.5 479.5 25.5 428.5 38C377.5 50.5 332.5 30 324.5 30C316.5 30 317.5 45 311.5 47.5C305.5 50 257 21 243.5 21C230 21 203 40.5 171.5 38C146.3 36 103.667 25.8333 85.5 21C71.1665 26.3333 41.8996 43.7 39.4996 70.5Z" fill="#1C1C1C"/>
<ellipse cx="533" cy="332" rx="16" ry="4" fill="#F26C0C"/>
<ellipse cx="513" cy="342" rx="7" ry="2" fill="#F26C0C"/>
<ellipse cx="234" cy="304" rx="7" ry="2" fill="#F26C0C"/>
<ellipse cx="211" cy="310" rx="13" ry="4" fill="#F26C0C"/>
<path d="M549.922 259.546C549.077 261.29 545.873 263.72 545.316 263.45C544.759 263.181 544.494 259.072 545.338 257.327C546.183 255.582 547.266 253.811 549.466 254.876C551.667 255.942 550.766 257.801 549.922 259.546Z" fill="#FFFA47"/>
<path d="M628.975 236.585C628.811 238.516 627.062 241.963 626.572 241.922C626.083 241.88 624.78 238.173 624.945 236.242C625.109 234.311 625.445 232.266 627.38 232.43C629.315 232.595 629.14 234.654 628.975 236.585Z" fill="#FFFA47"/>
<path d="M185.626 185.315C187.191 185.468 189.944 187.193 189.896 187.682C189.848 188.171 186.799 189.494 185.233 189.341C183.668 189.188 182.016 188.864 182.204 186.932C182.393 184.999 184.061 185.162 185.626 185.315Z" fill="#FFFA47"/>
<path d="M254.251 240.139C255.309 241.024 256.432 243.656 256.15 243.993C255.867 244.329 252.987 243.797 251.929 242.912C250.872 242.026 249.837 240.971 250.951 239.64C252.066 238.309 253.193 239.253 254.251 240.139Z" fill="#FFFA47"/>
<path d="M644.672 174.548C643.498 175.186 640.948 175.665 640.82 175.428C640.691 175.191 642.438 173.234 643.611 172.597C644.785 171.959 646.079 171.357 646.587 172.294C647.096 173.231 645.845 173.91 644.672 174.548Z" fill="#FFFA47"/>
<circle cx="1" cy="1" r="1" transform="matrix(1 0 0 -1 255 228)" fill="#FF9510"/>
<circle cx="1" cy="1" r="1" transform="matrix(1 0 0 -1 182 120)" fill="#FF9510"/>
<circle cx="1" cy="1" r="1" transform="matrix(1 0 0 -1 188 179)" fill="#FF9510"/>
<circle cx="1" cy="1" r="1" transform="matrix(1 0 0 -1 636 245)" fill="#FF9510"/>
<circle cx="1" cy="1" r="1" transform="matrix(1 0 0 -1 573 207)" fill="#FF9510"/>
<circle cx="1" cy="1" r="1" transform="matrix(1 0 0 -1 468 232)" fill="#FF9510"/>
<circle cx="1" cy="1" r="1" transform="matrix(1 0 0 -1 534 254)" fill="#FF9510"/>
</g>
</g>
<defs>
<linearGradient id="paint0_linear_54_17566" x1="366" y1="223.5" x2="366" y2="373.5" gradientUnits="userSpaceOnUse">
<stop stop-color="#BFD6F7"/>
<stop offset="1" stop-color="#FF9510"/>
</linearGradient>
<linearGradient id="paint1_linear_54_17566" x1="366" y1="223.5" x2="366" y2="373.5" gradientUnits="userSpaceOnUse">
<stop stop-color="#BFD6F7"/>
<stop offset="1" stop-color="#FF9510"/>
</linearGradient>
<linearGradient id="paint2_linear_54_17566" x1="366" y1="223.5" x2="366" y2="373.5" gradientUnits="userSpaceOnUse">
<stop stop-color="#BFD6F7" stop-opacity="0"/>
<stop offset="1" stop-color="#B06200" stop-opacity="0.3"/>
</linearGradient>
<clipPath id="clip0_54_17566">
<rect width="714" height="370" fill="white"/>
</clipPath>
<clipPath id="clip1_54_17566">
<rect width="714" height="370" fill="white" transform="translate(0 2)"/>
</clipPath>
</defs>
</svg>
