<svg width="72" height="62" viewBox="0 0 72 62" fill="none" xmlns="http://www.w3.org/2000/svg">
<path d="M63.4589 20.727C63.7502 20.617 64.0754 20.7641 64.1853 21.0553L66.2588 26.5502C66.3688 26.8415 66.2217 27.1667 65.9305 27.2766L60.8635 29.1886C60.4485 29.3452 60.0236 28.9833 60.1122 28.5486L60.3251 27.5042C60.3498 27.3832 60.334 27.2575 60.2803 27.1464L59.6478 25.8371C59.5629 25.6615 59.3933 25.5422 59.1993 25.5217L58.6771 25.4667C58.4633 25.4441 58.2809 25.302 58.2069 25.1001L57.6289 23.5238C57.5225 23.2334 57.6698 22.9115 57.9591 22.8023L63.4589 20.727Z" fill="#2AD4AF"/>
<path d="M64.0523 22.8159L59.4379 19.1826C59.1016 18.9178 58.6143 18.9758 58.3495 19.3121L54.7129 23.9306C54.4499 24.2647 54.5051 24.7483 54.8367 25.0145L56.1461 26.0655C56.3766 26.2506 56.6923 26.2884 56.96 26.163L57.4079 25.9532C57.5275 25.8972 57.6685 25.9128 57.7729 25.9937L58.9467 26.9018C58.9948 26.939 59.0325 26.9881 59.056 27.0443L59.4686 28.0289C59.6969 28.574 60.4268 28.6732 60.7924 28.2089L64.1818 23.9043C64.4466 23.568 64.3886 23.0807 64.0523 22.8159Z" fill="#2AD4AF" stroke="#7FE6CF" stroke-width="0.422767"/>
<path d="M58.2464 25.4843C58.1376 25.3986 58.1236 25.308 58.2073 25.2089L58.5105 24.8961C58.5839 24.8173 58.6592 24.8084 58.7434 24.8747L59.1015 25.1566C59.1857 25.223 59.1934 25.3143 59.1203 25.4217L58.9024 25.7562C58.8167 25.865 58.7148 25.8644 58.5975 25.7607L58.2464 25.4843ZM61.3311 24.0801C61.1155 24.3539 60.8094 24.4826 60.422 24.4619C60.0317 24.4447 59.8149 24.4673 59.7651 24.5305L59.497 24.871C59.4113 24.9798 59.318 24.9973 59.2197 24.9199L58.9213 24.6849C58.83 24.6131 58.8203 24.5315 58.8887 24.4375L59.2286 24.0057C59.3309 23.8758 59.5789 23.8208 59.9769 23.8498C60.3749 23.8789 60.6402 23.8091 60.7729 23.6406C61.099 23.2264 61.1042 22.8949 60.7952 22.6516C60.4863 22.4084 60.2185 22.4307 59.9919 22.7186C59.9145 22.8169 59.8301 22.8301 59.7424 22.761L59.4721 22.5481C59.3878 22.4818 59.3851 22.4057 59.4598 22.311C59.9759 21.6482 60.5579 21.5663 61.1969 22.0693C61.8884 22.6139 61.9362 23.2827 61.3311 24.0801Z" fill="#7FE6CF"/>
<path fill-rule="evenodd" clip-rule="evenodd" d="M35.2841 3.43016C36.8279 4.3483 38.6158 6.49465 35.9685 10.0244L41.9183 12.8633C42.4848 9.6457 41.9512 3.25442 35.2841 3.43016ZM24.5938 5.16903C23.2029 6.28472 21.7417 8.64147 24.8313 11.7458L19.3745 15.358C18.3734 12.2732 18.0156 5.91671 24.5938 5.16903Z" fill="#98887F"/>
<path fill-rule="evenodd" clip-rule="evenodd" d="M33.2831 57.045C46.4249 57.045 57.0784 50.8203 57.0784 35.9026C57.0784 35.0466 57.0433 34.2 56.9747 33.3644L61.5951 26.1818C61.9573 25.6188 61.513 24.8857 60.8463 24.9463L55.2335 25.4561C51.6353 15.7257 43.1623 8.89168 33.2831 8.89168C21.7557 8.89168 12.1428 18.1962 9.95497 30.55L4.38279 35.369C3.449 36.1765 4.07876 37.7081 5.31053 37.6252L9.52187 37.3418C10.189 51.2217 20.5722 57.045 33.2831 57.045Z" fill="#70F5D9"/>
<path d="M52.7961 43.7448C52.7961 49.9161 44.1952 54.8386 35.2712 54.8386C26.3472 54.8386 16.9424 52.6494 16.9424 46.478C16.9424 40.3067 28.0354 31.2844 36.9594 31.2844C45.8834 31.2844 52.7961 37.5735 52.7961 43.7448Z" fill="#B2FCEC"/>
<rect x="36.4515" y="16.1127" width="2.61767" height="2.52486" rx="0.563035" transform="rotate(-9.38793 36.4515 16.1127)" stroke="#98887F" stroke-width="0.900856"/>
<rect x="35.7305" y="14.5154" width="0.900086" height="2.78592" rx="0.225214" transform="rotate(-9.38793 35.7305 14.5154)" fill="#98887F"/>
<rect x="38.3145" y="14.0893" width="0.900086" height="2.78592" rx="0.225214" transform="rotate(-9.38793 38.3145 14.0893)" fill="#98887F"/>
<path d="M32.5588 23.302C32.2843 23.2313 31.8806 22.8098 31.5446 22.3884C31.3772 22.1784 31.6239 21.8731 31.8897 21.9111C33.7176 22.1725 35.6157 20.7182 36.268 21.2037C36.7372 21.624 34.8035 23.8794 32.5588 23.302Z" fill="#EF8E8E"/>
<rect x="26.1761" y="18.0077" width="2.72743" height="2.63072" rx="0.586642" transform="rotate(-12.9891 26.1761 18.0077)" stroke="#98887F" stroke-width="0.938628"/>
<mask id="path-12-outside-1_3369_17445" maskUnits="userSpaceOnUse" x="-0.0654297" y="-0.573181" width="70" height="62" fill="black">
<rect fill="white" x="-0.0654297" y="-0.573181" width="70" height="62"/>
<path fill-rule="evenodd" clip-rule="evenodd" d="M36.5558 9.14481C38.3101 6.13489 36.6951 4.26957 35.284 3.43037C40.7107 3.28732 42.0738 7.49502 42.0877 10.8008C47.6637 13.3231 52.2015 18.1701 54.7721 24.287C54.7899 24.2071 54.8254 24.1297 54.8795 24.0611L58.516 19.4426C58.7086 19.198 59.063 19.1558 59.3076 19.3484L61.8351 21.3385L63.4586 20.7259C63.7499 20.616 64.0751 20.763 64.185 21.0543L66.2585 26.5491C66.3684 26.8404 66.2214 27.1656 65.9301 27.2755L60.8632 29.1876C60.4482 29.3442 60.0232 28.9822 60.1118 28.5476L60.1298 28.4594L56.9747 33.3641C57.0433 34.1997 57.0784 35.0464 57.0784 35.9023C57.0784 50.82 46.4249 57.0448 33.2831 57.0448C20.5722 57.0448 10.189 51.2215 9.52186 37.3415L5.31053 37.6249C4.07876 37.7078 3.449 36.1763 4.38279 35.3687L9.95497 30.5497C11.132 23.9034 14.4583 18.1396 19.0755 14.2325C18.3786 10.942 18.7398 5.83499 24.5937 5.16964C23.3226 6.18925 21.9928 8.24539 24.1314 10.9614C26.9486 9.62785 30.0401 8.89143 33.2831 8.89143C34.3934 8.89143 35.486 8.97775 36.5558 9.14481ZM55.675 25.4158L55.0163 24.887C55.0905 25.0755 55.1629 25.2651 55.2335 25.4559L55.675 25.4158Z"/>
</mask>
<path d="M35.284 3.43037L35.1937 0.00344038C33.6676 0.0436674 32.352 1.08815 31.9668 2.56535C31.5816 4.04255 32.2196 5.59647 33.5317 6.3768L35.284 3.43037ZM36.5558 9.14481L36.027 12.5319C37.4215 12.7496 38.8069 12.0904 39.5176 10.871L36.5558 9.14481ZM42.0877 10.8008L38.6596 10.8152C38.6653 12.1565 39.4527 13.3713 40.6748 13.9242L42.0877 10.8008ZM54.7721 24.287L51.6117 25.6151C52.1899 26.9911 53.5919 27.8348 55.0784 27.7014C56.5649 27.5681 57.7943 26.4883 58.1184 25.0314L54.7721 24.287ZM54.8795 24.0611L57.5728 26.1819L57.5729 26.1819L54.8795 24.0611ZM58.516 19.4426L55.8226 17.3218L55.8226 17.3219L58.516 19.4426ZM59.3076 19.3484L61.4283 16.655L61.4283 16.655L59.3076 19.3484ZM61.8351 21.3385L59.7143 24.032C60.658 24.775 61.9217 24.9699 63.0454 24.5459L61.8351 21.3385ZM63.4586 20.7259L64.6689 23.9333L64.6689 23.9333L63.4586 20.7259ZM64.185 21.0543L67.3924 19.844L67.3924 19.8439L64.185 21.0543ZM66.2585 26.5491L63.0511 27.7594L63.0512 27.7595L66.2585 26.5491ZM65.9301 27.2755L67.1404 30.4829L67.1404 30.4829L65.9301 27.2755ZM60.8632 29.1876L59.6529 25.9802L59.6529 25.9802L60.8632 29.1876ZM60.1118 28.5476L56.7528 27.8628L56.7528 27.8628L60.1118 28.5476ZM60.1298 28.4594L63.4888 29.1443C63.8184 27.5277 62.9498 25.9057 61.4216 25.284C59.8935 24.6624 58.1393 25.2173 57.2467 26.6048L60.1298 28.4594ZM56.9747 33.3641L54.0916 31.5095C53.6839 32.1432 53.4964 32.8936 53.5581 33.6446L56.9747 33.3641ZM9.52186 37.3415L12.946 37.1769C12.9018 36.2574 12.4897 35.3943 11.8023 34.7819C11.115 34.1695 10.2102 33.8593 9.2917 33.9211L9.52186 37.3415ZM5.31053 37.6249L5.54069 41.0453L5.54069 41.0453L5.31053 37.6249ZM4.38279 35.3687L2.14033 32.7758L2.14033 32.7758L4.38279 35.3687ZM9.95497 30.5497L12.1974 33.1427C12.7931 32.6275 13.1932 31.923 13.3306 31.1475L9.95497 30.5497ZM19.0755 14.2325L21.29 16.8494C22.2531 16.0345 22.6907 14.7564 22.4293 13.5221L19.0755 14.2325ZM24.5937 5.16964L26.7387 7.84374C27.9296 6.88851 28.3453 5.26096 27.7583 3.85169C27.1714 2.44242 25.7234 1.59105 24.2066 1.76346L24.5937 5.16964ZM24.1314 10.9614L21.438 13.0822C22.427 14.3383 24.153 14.7439 25.5981 14.0599L24.1314 10.9614ZM55.0163 24.887L57.1622 22.2136C55.95 21.2405 54.2348 21.2049 52.9832 22.1268C51.7316 23.0486 51.257 24.6972 51.8267 26.1435L55.0163 24.887ZM55.675 25.4158L55.9851 28.8298C57.3775 28.7034 58.5535 27.7441 58.9572 26.4056C59.3608 25.0671 58.9113 23.6176 57.821 22.7424L55.675 25.4158ZM55.2335 25.4559L52.0181 26.6449C52.5555 28.098 54.0006 29.0101 55.5436 28.87L55.2335 25.4559ZM33.5317 6.3768C33.6608 6.4536 33.7667 6.53854 33.8375 6.61324C33.9054 6.68476 33.9112 6.71451 33.9033 6.6937C33.889 6.65631 33.8981 6.63965 33.8918 6.69232C33.8837 6.75998 33.8402 6.99633 33.594 7.41862L39.5176 10.871C40.8175 8.64074 41.1048 6.33896 40.3106 4.25344C39.5802 2.33576 38.1359 1.13791 37.0363 0.483942L33.5317 6.3768ZM45.5158 10.7864C45.5073 8.76844 45.1015 6.09268 43.517 3.84628C41.7793 1.38278 38.952 -0.0956277 35.1937 0.00344038L35.3743 6.8573C37.0427 6.81332 37.6103 7.36724 37.9143 7.79826C38.3715 8.44638 38.6542 9.52735 38.6596 10.8152L45.5158 10.7864ZM57.9325 22.9589C55.0613 16.1267 49.9423 10.5913 43.5006 7.67735L40.6748 13.9242C45.385 16.0549 49.3417 20.2135 51.6117 25.6151L57.9325 22.9589ZM52.1861 21.9403C51.807 22.4218 51.5527 22.9718 51.4257 23.5427L58.1184 25.0314C58.027 25.4423 57.8439 25.8377 57.5728 26.1819L52.1861 21.9403ZM55.8226 17.3219L52.1861 21.9404L57.5729 26.1819L61.2094 21.5633L55.8226 17.3219ZM61.4283 16.655C59.6962 15.2912 57.1864 15.5897 55.8226 17.3218L61.2094 21.5634C60.2307 22.8063 58.4298 23.0205 57.1869 22.0419L61.4283 16.655ZM63.9558 18.6451L61.4283 16.655L57.1868 22.0418L59.7143 24.032L63.9558 18.6451ZM62.2483 17.5185L60.6248 18.1312L63.0454 24.5459L64.6689 23.9333L62.2483 17.5185ZM67.3924 19.8439C66.614 17.7814 64.311 16.7402 62.2483 17.5185L64.6689 23.9333C63.1888 24.4918 61.5362 23.7447 60.9777 22.2646L67.3924 19.8439ZM69.4659 25.3388L67.3924 19.844L60.9776 22.2646L63.0511 27.7594L69.4659 25.3388ZM67.1404 30.4829C69.2031 29.7046 70.2442 27.4015 69.4659 25.3388L63.0512 27.7595C62.4926 26.2793 63.2397 24.6267 64.7198 24.0682L67.1404 30.4829ZM62.0735 32.3949L67.1404 30.4829L64.7198 24.0682L59.6529 25.9802L62.0735 32.3949ZM56.7528 27.8628C56.1253 30.9408 59.1345 33.504 62.0735 32.3949L59.6529 25.9802C61.7618 25.1844 63.9212 27.0237 63.4709 29.2324L56.7528 27.8628ZM56.7708 27.7746L56.7528 27.8628L63.4709 29.2324L63.4888 29.1443L56.7708 27.7746ZM59.8578 35.2188L63.0129 30.3141L57.2467 26.6048L54.0916 31.5095L59.8578 35.2188ZM60.5065 35.9023C60.5065 34.9527 60.4676 34.0125 60.3913 33.0836L53.5581 33.6446C53.619 34.387 53.6503 35.14 53.6503 35.9023H60.5065ZM33.2831 60.4729C40.334 60.4729 47.1328 58.8102 52.2413 54.7519C57.4728 50.5958 60.5065 44.2623 60.5065 35.9023H53.6503C53.6503 42.46 51.3573 46.6977 47.9765 49.3835C44.4729 52.1669 39.374 53.6166 33.2831 53.6166V60.4729ZM6.0977 37.5061C6.47559 45.3682 9.66916 51.283 14.8334 55.1438C19.8802 58.9168 26.4598 60.4729 33.2831 60.4729V53.6166C27.3955 53.6166 22.428 52.2611 18.9387 49.6525C15.5668 47.1316 13.2353 43.1948 12.946 37.1769L6.0977 37.5061ZM5.54069 41.0453L9.75203 40.7619L9.2917 33.9211L5.08036 34.2045L5.54069 41.0453ZM2.14033 32.7758C-1.28223 35.7357 1.02597 41.3491 5.54069 41.0453L5.08036 34.2045C7.13154 34.0665 8.18024 36.6169 6.62526 37.9617L2.14033 32.7758ZM7.71251 27.9568L2.14033 32.7758L6.62525 37.9617L12.1974 33.1427L7.71251 27.9568ZM16.8611 11.6155C11.6014 16.0662 7.88859 22.5593 6.57937 29.9519L13.3306 31.1475C14.3755 25.2474 17.3151 20.2129 21.29 16.8494L16.8611 11.6155ZM22.4293 13.5221C22.1549 12.227 22.1798 10.9093 22.5444 10.0304C22.7043 9.64523 22.9156 9.37127 23.198 9.1631C23.4848 8.95168 24.0115 8.68601 24.9808 8.57583L24.2066 1.76346C20.0956 2.23071 17.4444 4.43191 16.2117 7.40285C15.1065 10.0665 15.2992 12.9475 15.7218 14.9428L22.4293 13.5221ZM22.4486 2.49555C21.4555 3.29223 20.1969 4.6733 19.7418 6.66617C19.2468 8.83411 19.8492 11.0645 21.438 13.0822L26.8248 8.84065C26.5266 8.46195 26.4531 8.23888 26.4368 8.1775C26.4244 8.13071 26.4357 8.14999 26.426 8.19258C26.4202 8.21787 26.4203 8.19081 26.4755 8.11334C26.5333 8.03232 26.6239 7.93585 26.7387 7.84374L22.4486 2.49555ZM33.2831 5.46331C29.513 5.46331 25.9221 6.32096 22.6647 7.8629L25.5981 14.0599C27.9751 12.9347 30.5672 12.3195 33.2831 12.3195V5.46331ZM37.0847 5.75773C35.8409 5.56351 34.5715 5.46331 33.2831 5.46331V12.3195C34.2153 12.3195 35.1311 12.392 36.027 12.5319L37.0847 5.75773ZM52.8703 27.5603L53.5291 28.0891L57.821 22.7424L57.1622 22.2136L52.8703 27.5603ZM58.4488 24.2669C58.3699 24.0536 58.2889 23.8414 58.2058 23.6304L51.8267 26.1435C51.8921 26.3095 51.956 26.4767 52.0181 26.6449L58.4488 24.2669ZM55.3649 22.0017L54.9234 22.0418L55.5436 28.87L55.9851 28.8298L55.3649 22.0017Z" fill="white" mask="url(#path-12-outside-1_3369_17445)"/>
</svg>
