<svg width="714" height="370" viewBox="0 0 714 370" fill="none" xmlns="http://www.w3.org/2000/svg">
<g clip-path="url(#clip0_54_17569)">
<g clip-path="url(#clip1_54_17569)">
<rect width="714" height="370" fill="url(#paint0_linear_54_17569)"/>
<rect x="467.77" y="163.242" width="6.2672" height="35.375" rx="3.1336" transform="rotate(26.4734 467.77 163.242)" fill="white"/>
<rect x="348.77" y="90.2422" width="6.2672" height="35.375" rx="3.1336" transform="rotate(26.4734 348.77 90.2422)" fill="white"/>
<path d="M312 322.09C239 212.999 10.7413 229.202 -42.9832 322.09H-47V373.998L312 366.485V322.09Z" fill="#9F734C"/>
<path d="M720 319.533C606 228 431.049 241.746 372.386 319.533H368V363.002L720 353.502V319.533Z" fill="#9F734C"/>
<path d="M716 350.111C407.2 186.911 115 282.111 8 350.111L0 355V388.111L716 382.611V350.111Z" fill="#4F3823"/>
<path d="M64.4727 309.555V337.385H65.6722V309.555H64.4727Z" fill="#46B637"/>
<path d="M41.3566 303.214C44.3677 307.961 53.3164 315.875 65.0225 309.555C60.9307 305.427 50.4689 298.38 41.3566 303.214Z" fill="#46B637"/>
<path d="M88.6434 303.214C85.6323 307.961 76.6836 315.875 64.9775 309.555C69.0693 305.427 79.5311 298.38 88.6434 303.214Z" fill="#46B637"/>
<path d="M651.633 313.352V345.913H653.036V313.352H651.633Z" fill="#37B67F"/>
<path d="M624.587 305.926C628.11 311.48 638.58 320.739 652.276 313.345C647.489 308.515 635.249 300.27 624.587 305.926Z" fill="#37B67F"/>
<path d="M679.913 305.926C676.39 311.48 665.92 320.739 652.224 313.345C657.011 308.515 669.251 300.27 679.913 305.926Z" fill="#37B67F"/>
<path d="M536.129 279.438V298.919H536.969V279.438H536.129Z" fill="#37B637"/>
<path d="M508.688 273.491C512.174 278.978 522.528 288.126 536.066 280.829C531.331 276.057 519.227 267.909 508.688 273.491Z" fill="#37B637"/>
<path d="M563.335 274.084C560.103 279.718 550.308 288.99 536.991 281.014C541.454 276.16 552.971 267.978 563.335 274.084Z" fill="#37B637"/>
<path d="M536.133 263.391V282.872H536.973V263.391H536.133Z" fill="#37B637"/>
<path d="M519.95 258.95C522.057 262.273 528.322 267.812 536.516 263.389C533.652 260.499 526.328 255.566 519.95 258.95Z" fill="#37B637"/>
<path d="M553.05 258.95C550.943 262.273 544.678 267.812 536.484 263.389C539.348 260.499 546.672 255.566 553.05 258.95Z" fill="#37B637"/>
<path d="M144.148 246.906V299.386H146.411V246.906H144.148Z" fill="#00B33B"/>
<path d="M100.558 234.942C106.236 243.893 123.111 258.817 145.185 246.9C137.469 239.115 117.741 225.826 100.558 234.942Z" fill="#00B33B"/>
<path d="M189.727 234.942C184.049 243.893 167.174 258.817 145.1 246.9C152.816 239.115 172.544 225.826 189.727 234.942Z" fill="#00B33B"/>
<path d="M160.987 257.859C158.844 261.007 152.663 266.056 145.089 261.072C147.931 258.409 155.088 254.038 160.987 257.859Z" fill="#00B33B"/>
<path d="M144.979 236.046C146.642 238.283 148.923 243.996 144.738 248.947C143.477 246.258 141.758 239.913 144.979 236.046Z" fill="#00B33B"/>
<path d="M129.962 258.274C131.973 261.269 137.784 266.065 144.938 261.29C142.267 258.759 135.534 254.613 129.962 258.274Z" fill="#00B33B"/>
<path d="M203.705 201.208C198.179 200.941 195.486 207.857 199.739 211.397L221.739 229.709L240.761 203L203.705 201.208Z" fill="#BFD6F7"/>
<path d="M463.605 187.523C465.228 185 463.236 181.714 460.249 181.985L428.141 184.902L440.673 223.17L463.605 187.523Z" fill="#BFD6F7"/>
<path d="M319.412 111.737C317.505 109.421 313.768 110.314 313.114 113.242L306.088 144.707L346.355 144.458L319.412 111.737Z" fill="#98887F"/>
<path d="M475.797 288.511C475.797 355.371 413.5 328.777 342.218 328.777C283.318 328.777 177.996 388.011 217.915 236.859C234.35 159.327 283.318 137.984 342.218 137.984C401.119 137.984 475.797 221.651 475.797 288.511Z" fill="#BFD6F7"/>
<ellipse cx="306.816" cy="173.38" rx="3.76801" ry="4.01211" transform="rotate(44.9601 306.816 173.38)" fill="#6C6C6C"/>
<ellipse cx="3.76801" cy="3.58399" rx="3.76801" ry="3.58399" transform="matrix(-0.707599 0.706615 0.706615 0.707599 362.891 165.324)" fill="#6C6C6C"/>
<path d="M347.5 183.863C347.922 191.213 340.777 192.19 336.804 192.419C332.831 192.647 323.822 192.599 323.399 185.249C322.977 177.899 332.21 181.855 336.183 181.626C340.156 181.398 347.077 176.512 347.5 183.863Z" fill="#F2A3A3"/>
<path d="M445.029 286.723C457.905 315.465 455.503 323.244 336.003 323.244C295.913 323.244 236.672 347.859 236.672 323.244C236.672 298.629 271.054 230.935 353.726 235.141C393.816 235.141 432.708 259.221 445.029 286.723Z" fill="#E6E6E6"/>
<path d="M150.304 317.365C159.858 332.426 188.251 357.537 225.394 337.485C212.411 324.387 179.217 302.026 150.304 317.365Z" fill="#30CC30"/>
<path d="M291.696 317.501C282.142 332.563 253.749 357.673 216.606 337.622C229.589 324.524 262.783 302.163 291.696 317.501Z" fill="#30CC30"/>
<rect x="219.156" y="336.496" width="5.10887" height="60.1712" fill="#30CC30"/>
<path d="M57.4678 342.595C62.9453 351.155 79.2242 365.426 100.519 354.03C93.0755 346.586 74.0443 333.877 57.4678 342.595Z" fill="#37B67F"/>
<path d="M138.532 342.673C133.055 351.233 116.776 365.504 95.4809 354.108C102.924 346.664 121.956 333.955 138.532 342.673Z" fill="#37B67F"/>
<rect x="96.9414" y="353.469" width="2.92909" height="34.1979" fill="#37B67F"/>
<path d="M518.869 333.18C525.239 343.528 544.168 360.78 568.929 347.003C560.274 338.004 538.145 322.641 518.869 333.18Z" fill="#68B637"/>
<path d="M613.131 333.277C606.761 343.625 587.832 360.877 563.071 347.101C571.726 338.102 593.855 322.739 613.131 333.277Z" fill="#68B637"/>
<rect x="564.77" y="346.328" width="3.40592" height="41.3406" fill="#68B637"/>
<path d="M414.393 266.441C417.648 283.978 434.642 317.859 476.58 313.089C469.412 296.097 446.939 262.979 414.393 266.441Z" fill="#37B67F"/>
<path d="M533.361 266.295C530.277 283.862 513.614 317.907 471.631 313.545C478.633 296.484 500.783 263.149 533.361 266.295Z" fill="#37B67F"/>
<rect x="473.152" y="309.484" width="5.10887" height="60.1712" fill="#37B67F"/>
<path d="M452.303 326.045C455.195 330.604 463.791 338.206 475.035 332.136C471.104 328.171 461.056 321.401 452.303 326.045Z" fill="#37B67F"/>
<path d="M496.677 328.045C493.785 332.604 485.19 340.206 473.946 334.136C477.876 330.171 487.925 323.401 496.677 328.045Z" fill="#37B67F"/>
<rect x="46.7695" y="176" width="6.2672" height="35.375" rx="3.1336" transform="rotate(26.4734 46.7695 176)" fill="white"/>
<rect x="452.77" y="103.242" width="6.2672" height="35.375" rx="3.1336" transform="rotate(26.4734 452.77 103.242)" fill="#BCFDFF"/>
<rect x="681.77" y="205.242" width="6.2672" height="35.375" rx="3.1336" transform="rotate(26.4734 681.77 205.242)" fill="#BCFDFF"/>
<rect x="606.77" y="129.242" width="6.2672" height="35.375" rx="3.1336" transform="rotate(26.4734 606.77 129.242)" fill="white"/>
<rect x="215.77" y="113" width="6.2672" height="35.375" rx="3.1336" transform="rotate(26.4734 215.77 113)" fill="#82E8FF"/>
<rect x="175.77" y="196.242" width="6.2672" height="35.375" rx="3.1336" transform="rotate(26.4734 175.77 196.242)" fill="#71BAFF"/>
<rect x="505.77" y="152.242" width="6.2672" height="35.375" rx="3.1336" transform="rotate(26.4734 505.77 152.242)" fill="#BCFDFF"/>
<rect x="606.77" y="201.242" width="6.2672" height="35.375" rx="3.1336" transform="rotate(26.4734 606.77 201.242)" fill="#BCFDFF"/>
<rect x="536.77" y="208.242" width="6.2672" height="35.375" rx="3.1336" transform="rotate(26.4734 536.77 208.242)" fill="#71BAFF"/>
<rect x="670.77" y="129.242" width="6.2672" height="35.375" rx="3.1336" transform="rotate(26.4734 670.77 129.242)" fill="#71BAFF"/>
<rect opacity="0.5" x="111" y="158.418" width="6.2672" height="35.375" rx="3.1336" transform="rotate(26.4734 111 158.418)" fill="#82E8FF"/>
<circle cx="180.726" cy="65.5146" r="37.7256" fill="#FFFEC9"/>
<path d="M726.469 92.6112H416.231C404.916 94.1622 391.496 75.2134 418.654 62.5588C445.811 49.9042 482.221 57.286 497.031 62.5588C495.866 58.1131 499.827 48.4154 524.987 45.1897C550.148 41.964 563.76 53.1504 567.421 59.1468C570.25 42.5014 588.587 10.5753 639.308 16.0341C690.029 21.493 698.715 53.6671 696.718 69.0718C715.089 54.9284 730.965 76.2614 726.469 92.6112Z" fill="white"/>
<path d="M223.156 124.701H-18.1832C-30.9525 97.6023 -49.3524 42.4245 18.75 24.3758C65.7185 11.9281 107.563 40.8622 110.916 74.8073C132.864 57.6007 164.451 58.0585 198.882 71.16C217.843 78.375 245.569 124.701 223.156 124.701Z" fill="white"/>
<path d="M511 113.246H794.699C809.71 97.2591 819.717 62.6243 739.661 51.9778C659.604 41.3312 651.5 67.741 631.5 89.7422C558 47.7422 526.177 100.021 511 113.246Z" fill="#DBF5FF"/>
<path d="M179.954 143.254H-130.284C-141.6 144.805 -155.019 125.856 -127.862 113.202C-100.704 100.547 -64.2948 107.929 -49.4847 113.202C-50.6495 108.756 -46.6891 99.0582 -21.5285 95.8325C3.6321 92.6068 17.2441 103.793 20.905 109.79C23.7339 93.1442 61.327 79.8963 96.0838 83.6373C117.03 85.8918 152.199 104.31 150.202 119.715C168.574 105.571 184.45 126.904 179.954 143.254Z" fill="#DBF5FF"/>
<path d="M438.263 161.836L444.041 140.792C389.038 150.964 370.289 120.645 375.953 104.774C340.399 91.1158 360.926 63.36 380.279 61.6374C387.014 18.9336 425.765 29.3083 444.888 37.9721C468.5 9.55236 506.98 29.679 516.083 45.7618C572.431 36.4317 597.504 82.0224 583.552 97.4088C606.81 126.876 588.028 140.918 569.465 140.953C567.834 170.4 537.764 159.017 522.362 153.649C502.322 170.364 473.25 153.889 463.054 145.34L438.263 161.836Z" fill="#37B67F"/>
<path d="M405.694 87C405.069 87.275 404.494 87.175 404.119 86.65C403.444 85.675 403.544 84.35 404.044 83.375C404.419 82.675 404.419 82.425 404.219 81.8C403.794 80.375 403.769 79.825 404.069 77.45C404.094 77.25 404.044 77.1 403.919 77.15C403.069 77.425 402.694 76.725 402.319 76.725C401.944 76.725 401.194 77.375 400.319 77.375C399.469 77.375 399.344 77 398.744 77.5C398.269 77.875 397.719 78.25 397.094 78.6C396.219 79.075 395.594 79.575 395.169 80.1C394.944 80.425 394.644 80.75 394.319 81.125C393.994 81.45 393.769 81.8 393.594 82.15C393.319 82.725 391.344 84.9 390.869 85.125C390.244 85.45 389.019 85 388.694 84.3C388.469 83.8 388.619 83.475 389.344 82.7C389.819 82.225 389.919 82.025 390.194 81.225C390.519 80.225 390.869 79.8 392.244 78.9C392.769 78.55 393.269 78.175 393.694 77.75C394.569 77.025 394.894 76.75 395.919 76.325C397.219 75.725 397.469 75.425 397.694 73.95C397.969 72.35 397.844 72.225 396.069 72.625C395.444 72.75 394.894 72.8 394.419 72.775C393.944 72.75 393.569 72.775 393.344 72.85C392.619 73.05 390.919 72.825 389.519 72.325C389.094 72.15 388.944 71.7 389.144 71.125C389.319 70.7 389.719 70.425 390.319 70.35C390.919 70.275 391.819 70.375 392.994 70.625C393.594 70.75 393.619 70.75 394.144 70.525C395.094 70.1 396.119 70.05 397.219 70.35C397.569 70.45 397.844 70.5 398.069 70.525C398.469 70.6 398.494 70.6 399.194 71.075C399.819 71.5 400.294 72.15 400.569 73.025C400.769 73.625 400.744 73.75 400.519 74.275C400.394 74.55 400.319 74.725 400.344 74.75C400.344 74.8 400.419 74.825 400.544 74.825C400.869 74.825 401.194 74.675 401.519 74.35C401.944 73.925 402.544 73.9 403.319 74.3C404.194 74.725 404.344 74.575 404.344 73.275C404.344 71.25 403.069 68.375 404.094 67.875C405.044 67.4 406.244 68.1 406.469 69.275C406.644 70.2 406.694 71.225 406.619 72.35C406.569 72.975 406.544 73.35 406.569 73.5C406.569 73.675 406.619 73.875 406.694 74.15C407.069 75.625 406.969 77.225 406.444 78.4C406.269 78.775 406.269 79.425 406.444 80.3C406.669 81.6 406.669 82.675 406.444 83.55C406.244 84.225 406.244 84.3 406.269 85.275C406.269 85.9 406.244 86.325 406.169 86.5C406.094 86.7 405.944 86.875 405.694 87ZM427.751 87.25C427.151 87.725 426.126 87.525 425.851 86.85C425.776 86.675 425.726 86.175 425.726 85.4C425.726 84.625 425.776 84.075 425.851 83.75C425.976 83.225 426.051 82.175 425.976 82.1C425.876 82.075 424.576 82.4 423.951 82.675C420.726 83.975 419.501 84.025 417.226 82.9C416.126 82.375 415.326 82.325 414.026 82.7C412.551 83.125 411.526 83.2 410.976 82.925C410.201 82.55 409.676 81.85 409.676 81.25C409.676 80.525 410.226 80.35 411.301 80.675C411.901 80.85 412.626 80.875 413.451 80.75C416.126 80.325 417.776 80.425 419.401 81.15C420.001 81.45 420.301 81.45 421.301 81.075C422.476 80.675 423.326 80.4 423.826 80.275C424.551 80.05 425.176 80.125 425.701 80.5C426.026 80.725 426.201 80.65 426.201 80.225C426.201 80.1 426.176 79.925 426.151 79.75C426.101 79.425 426.076 79.1 426.076 78.8C426.076 78.25 425.851 77.525 425.426 76.6L425.051 75.775L425.126 74.3C425.251 71.825 425.226 70.125 425.051 69.25C424.851 68.325 425.001 67.775 425.501 67.575C425.626 67.55 426.226 67.6 426.426 67.7C426.801 67.9 427.076 68.375 427.201 69.1C427.376 70.125 427.376 70.45 427.276 71.825C427.151 73.425 427.201 74.525 427.401 75.1C427.726 75.975 427.901 76.85 427.951 77.775C427.976 78.35 428.051 78.825 428.176 79.15C428.601 80.325 428.626 81.175 428.401 82.675C428.276 83.35 428.226 84.15 428.226 85.1C428.226 85.925 428.201 86.425 428.176 86.625C428.126 86.85 427.976 87.05 427.751 87.25ZM416.226 79.525C415.751 79.475 415.376 79.425 415.151 79.35L412.976 78.525C411.676 78.025 411.226 77.575 410.901 76.45C410.826 76.15 410.801 75.8 410.801 75.4C410.776 74.6 410.926 74.5 411.101 73.925C411.176 73.675 411.351 73.225 411.676 72.575C412.251 71.45 412.476 71.15 413.351 70.725C413.976 70.4 413.976 70.425 413.876 70.025C413.751 69.475 413.976 69.075 414.501 68.825C415.176 68.5 416.576 68.975 416.676 69.575L416.751 69.85C417.551 69.475 418.576 69.55 419.151 70.15C419.351 70.375 419.476 70.925 419.301 71.3C419.176 71.575 419.076 71.725 418.926 71.825C418.926 71.9 418.976 72 419.076 72.175C419.551 73.15 420.576 75.8 420.676 76.325C420.976 77.8 420.776 78.05 418.751 79.025C417.726 79.525 417.301 79.625 416.226 79.525ZM416.976 76.975C418.051 76.8 418.226 76.675 417.926 76C417.801 75.775 417.751 75.475 417.726 75.15C417.701 74.825 417.651 74.55 417.576 74.375C417.501 74.2 417.476 74.05 417.476 73.95C417.476 73.675 417.251 73.475 416.776 73.325C416.501 73.25 416.251 73.15 416.076 72.975C415.876 72.8 415.701 72.775 415.526 72.85C415.351 72.925 414.851 73.325 414.076 74L413.476 74.5C413.101 74.775 412.926 75.35 413.051 75.775C413.126 76 413.451 76.15 414.001 76.25C414.276 76.3 414.626 76.425 415.076 76.65C415.876 77.025 416.276 77.1 416.976 76.975ZM447.24 82.375C446.34 81.9 445.84 81.8 444.215 81.675C443.74 81.625 443.315 81.55 442.915 81.45C442.115 81.225 442.09 81.225 441.59 81.5C440.89 81.875 440.54 81.775 439.815 81.05C438.215 79.575 437.84 76.45 438.865 73.45C439.14 72.675 439.14 72.7 439.115 71.625C439.09 70.225 439.24 69.925 440.215 69.425C441.09 69 441.54 68.95 442.065 69.25C442.24 69.325 442.415 69.325 442.59 69.3C442.765 69.275 443.215 69.15 443.94 68.925C444.565 68.75 445.04 68.625 445.415 68.6C446.215 68.5 447.265 68.625 447.865 68.85C448.09 68.925 448.265 68.975 448.44 68.975C448.59 68.975 448.715 69 448.79 69.075L449.565 69.925C450.265 70.7 450.165 71.775 449.34 72.2C449.015 72.375 447.64 71.95 446.915 71.425C446.665 71.25 446.465 71.175 446.29 71.175C446.115 71.175 445.765 71.275 445.29 71.5C444.34 71.9 443.44 72.125 442.565 72.15C441.64 72.175 441.69 72.15 441.565 72.775C441.49 73.2 441.29 73.975 440.965 75.1C440.59 76.3 440.69 77.075 441.365 78.375C441.665 78.95 441.79 79.025 442.315 78.95C442.84 78.925 444.015 79.025 445.865 79.25C447.24 79.4 448.315 79.85 449.09 80.6C449.765 81.225 449.765 81.375 449.34 81.95C448.765 82.625 448.065 82.75 447.24 82.375ZM453.365 87.075C453.09 87.15 452.74 87.05 452.315 86.775C451.74 86.425 451.59 85.2 451.815 83.1L451.89 82.2C451.89 82.075 451.865 81.925 451.79 81.75C451.715 81.5 451.64 81.175 451.615 80.75C451.59 80.325 451.515 79.9 451.34 79.425C450.94 78.2 450.99 77.4 451.59 76.175C451.79 75.775 451.915 75.425 451.94 75.15C451.99 74.85 452.065 74.575 452.19 74.3C452.465 73.625 452.69 72.95 452.865 72.3L453.065 71.5C453.24 70.925 453.215 70.2 453.04 69.325C452.865 68.625 453.315 67.9 453.94 67.725C454.54 67.6 455.215 67.85 455.44 68.325C455.74 68.9 455.915 70.85 455.69 71.35C455.565 71.725 455.215 73.125 455.19 73.55C455.165 73.825 455.065 74.175 454.915 74.625C454.64 75.425 454.64 75.4 455.165 75.275C455.965 75.1 457.24 75.175 457.815 75.4C458.14 75.55 458.415 75.65 458.64 75.725C459.415 75.95 459.34 76.675 458.54 77.475C458.265 77.75 457.365 77.8 456.565 77.675C456.39 77.65 456.115 77.7 455.715 77.85C454.915 78.175 454.365 78.35 454.04 78.35C453.465 78.35 453.365 78.55 453.59 78.975C453.74 79.3 453.89 79.85 454.015 80.6L454.24 81.95C454.34 82.425 454.365 82.85 454.34 83.225C454.29 83.7 454.29 84.375 454.315 85.3C454.34 86.475 454.165 86.8 453.365 87.075ZM474.577 87.125C474.277 86.95 474.102 86.725 474.027 86.4C473.952 86.1 473.952 85.45 474.002 84.425C474.027 83.6 474.052 82.95 473.927 82.8C473.777 82.675 473.327 82.925 472.777 83.275C470.952 84.375 470.702 84.425 468.002 84.425C466.577 84.425 465.627 84.4 465.152 84.35C464.727 84.275 464.252 84.275 463.752 84.35C461.352 84.725 460.602 84.425 460.277 83.1C460.102 82.3 460.227 81.95 460.677 82.025C461.102 82.1 461.452 82.15 461.677 82.15C461.902 82.15 462.152 82.1 462.477 82.025C462.902 81.9 463.152 81.85 463.277 81.85C463.477 81.85 463.777 81.6 463.777 81.375C463.777 81.275 463.827 80.925 463.952 80.35C464.352 78.575 464.252 78.2 463.252 77.875C461.627 77.275 461.027 76.325 461.027 74.25C461.027 73.35 461.052 73.175 461.352 72.1C461.727 70.975 462.227 70.4 463.202 70.125C463.702 69.95 463.827 69.85 463.827 69.475C463.827 68.25 465.727 67.875 466.552 68.975C466.777 69.25 466.777 69.225 467.152 69.2C467.952 69.1 468.652 69.775 468.777 70.8L469.077 71.9C469.602 73.425 469.802 75.625 469.477 76.225C469.302 76.525 468.877 76.925 468.702 76.925C468.477 76.925 466.377 77.675 466.252 77.775C466.152 77.9 466.252 78.125 466.527 78.475C466.777 78.75 466.902 79.15 466.902 79.625C466.902 79.925 466.752 80.55 466.477 81.5C466.252 82.175 466.302 82.225 466.827 82.1C467.102 82.025 467.577 82 468.202 82.025C469.327 82.1 469.702 82.025 470.577 81.525C471.627 80.975 472.427 80.825 472.977 81.1C473.677 81.475 473.852 81.275 473.752 80.25C473.627 79.05 473.602 78.15 473.727 77.575L473.902 76.5C473.927 76.275 474.052 75.55 474.302 74.35C474.777 72.225 474.802 71.075 474.477 69.775C474.252 68.8 474.502 67.85 475.102 67.65C475.527 67.475 476.327 67.7 476.602 68.075C477.202 68.9 477.452 70.65 477.152 71.925C476.977 72.6 476.852 73.275 476.752 73.95C476.627 74.625 476.577 75.025 476.602 75.125C476.652 75.2 476.727 75.225 476.852 75.2C478.727 74.75 480.602 75.9 480.202 76.975C479.977 77.75 479.577 77.925 478.352 77.925C477.777 77.925 477.402 77.975 477.227 78.075C477.052 78.175 476.752 78.275 476.352 78.4C475.452 78.7 475.352 78.825 475.627 79.425C476.452 81.325 476.527 81.875 476.502 84.275C476.477 85.575 476.427 86.3 476.377 86.45C476.202 87.125 475.277 87.45 474.577 87.125ZM464.702 75.375C465.977 75.95 466.852 75.675 467.152 74.65C467.452 73.575 467.252 73.025 466.427 72.65C466.152 72.525 465.902 72.425 465.727 72.3C465.552 72.175 465.377 72.125 465.252 72.175C465.102 72.25 464.827 72.45 464.402 72.8L463.427 73.625C463.027 73.925 462.877 74.425 463.052 74.85C463.102 74.975 463.177 75.05 463.302 75.1C463.402 75.15 463.602 75.2 463.902 75.225C464.277 75.25 464.527 75.3 464.702 75.375ZM487.935 86.975C487.535 86.6 487.485 86.075 487.66 84.975C487.735 84.525 487.935 84.025 488.235 83.5C488.36 83.275 488.41 83.075 488.385 82.95L488.285 81.3C488.26 80.175 488.21 79.425 488.135 79C488.06 78.575 487.96 78.25 487.81 78.025C487.135 77.05 487.01 76.175 487.11 73.8L487.16 73.175L486.46 72.775C485.985 72.525 485.585 72.375 485.26 72.3C484.285 72.15 483.61 72.15 483.235 72.275C482.21 72.6 481.26 72.075 481.26 71.175C481.26 70.55 481.61 70.125 482.285 69.925C482.96 69.75 484.06 69.75 485.585 69.95C486.01 70 486.51 70.15 487.085 70.4C487.51 70.6 487.71 70.5 487.71 69.975C487.71 69.85 488.11 69.3 488.31 69.225C489.485 68.7 490.66 69.85 490.085 71.025C490.01 71.175 489.985 71.275 490.01 71.325C490.035 71.4 490.56 71.3 490.86 71.2C490.985 71.15 491.335 71.1 491.91 71.075C492.635 71.025 493.41 70.925 494.285 70.775C495.46 70.575 496.385 70.8 497.01 71.475C497.51 71.975 497.635 72.625 497.41 73.05C496.985 73.825 496.21 73.975 495.435 73.3C495.26 73.15 495.085 73.075 494.91 73.1C494.21 73.175 493.61 73.275 493.085 73.35C492.81 73.375 492.56 73.4 492.285 73.4C492.01 73.4 491.735 73.45 491.46 73.525C491.11 73.6 490.735 73.65 490.31 73.7C489.485 73.8 489.535 73.75 489.535 74.95C489.535 76.175 489.585 76.425 490.01 76.925C490.31 77.25 490.485 77.6 490.56 77.95C490.61 78.325 490.685 79.375 490.76 81.1L490.86 82.85C490.935 83.475 490.81 84.05 490.485 84.575C490.16 85.1 489.985 85.675 489.935 86.275C489.835 87.3 488.71 87.7 487.935 86.975ZM502.584 86.825C501.809 87.85 500.534 87.275 500.359 85.85C500.334 85.625 500.309 85.45 500.234 85.35C500.059 85.075 500.034 84.475 500.159 83.525L500.334 82.275C500.334 82.1 500.309 81.9 500.234 81.65L500.084 80.975C500.059 80.8 500.009 80.775 499.734 80.75C498.859 80.625 498.509 80.175 498.509 79.1C498.509 77.975 498.834 77.725 500.259 77.65L501.009 77.6L501.159 77.15C501.259 76.825 501.309 76.5 501.334 76.175C501.359 75.8 501.409 75.5 501.434 75.275C501.509 74.8 501.359 73.975 500.934 72.85C500.609 71.95 501.084 71.1 501.984 71.1C502.709 71.075 503.084 71.45 503.309 72.35L503.509 72.975C503.884 74.175 503.934 74.85 503.759 76.425C503.709 76.95 503.709 77.25 503.734 77.275C503.759 77.3 504.159 77.3 504.934 77.25C506.109 77.175 506.409 77.2 507.134 77.4C507.384 77.475 507.884 77.5 508.609 77.475C510.084 77.45 509.909 77.6 509.984 76.125C510.009 75.375 510.034 74.925 510.084 74.775C510.309 74.05 510.059 71.825 509.684 71.725C508.634 71.3 508.809 69.475 509.909 69.2L510.359 69.125L510.684 69.2C511.409 69.325 512.009 70 512.209 70.875C512.584 72.45 512.684 74.275 512.459 75.2C512.359 75.725 512.334 77.125 512.459 77.225C512.509 77.275 512.634 77.3 512.809 77.3C513.309 77.3 513.659 77.475 513.884 77.8C514.284 78.5 513.859 79.4 512.834 79.6C512.359 79.675 511.984 79.925 511.984 80.15C511.984 80.275 511.934 80.4 511.859 80.575C511.609 81.1 511.509 81.6 511.559 82.05L511.634 83.6C511.659 84.425 511.659 84.875 511.684 84.95C511.684 86 510.209 86.85 509.134 86.025C508.759 85.625 508.709 85.15 509.034 84.6C509.209 84.3 509.234 83.4 509.159 81.925C509.084 81.2 509.134 80.95 509.409 80.225C509.484 80 509.484 79.875 509.384 79.825C509.259 79.775 508.909 79.75 508.284 79.75C507.609 79.775 507.084 79.725 506.684 79.65C505.884 79.475 503.984 79.525 503.359 79.725C502.934 79.85 502.509 80.725 502.609 81.225C502.734 81.8 502.759 82.725 502.684 82.9C502.559 83.175 502.534 84.525 502.659 84.8C502.859 85.2 502.809 86.525 502.584 86.825ZM523.375 86.95C523 87.325 522.675 87.3 522.05 86.825C521.825 86.65 521.675 86.375 521.6 86.05C521.525 85.725 521.525 85.15 521.575 84.375L521.65 83.175L521.6 82.125L521.525 79.125L521.475 77L521 77.025C520.7 77.025 520.325 77.1 519.9 77.225C518.875 77.55 518.025 77.475 517.325 77.05C516.75 76.7 516.625 76.275 516.9 75.8C517 75.65 517.15 75.5 517.35 75.375C518.275 74.725 519.35 74.45 520.6 74.575C521.625 74.675 521.625 74.7 521.7 73.8C521.725 73.375 521.775 73.05 521.825 72.85C521.875 72.65 521.9 72.4 521.9 72.1L521.95 70.975C522.05 70.2 521.975 69.875 521.675 69.375C521.425 68.975 521.35 68.65 521.475 68.425C521.575 68.15 522 67.75 522.175 67.725C522.875 67.525 523.925 68.075 524.3 68.8C524.5 69.225 524.6 70.8 524.425 71.825C524.3 72.775 524.225 73.7 524.2 74.625C524.175 76.35 524.075 77.525 523.925 78.1C523.875 78.35 523.875 78.675 523.9 79.05C523.95 79.475 523.975 79.9 523.975 80.375C523.975 80.8 524 81.375 524.05 82.075C524.075 82.7 524.075 83.15 524.025 83.4L523.95 84.85C523.875 86.225 523.8 86.525 523.375 86.95Z" fill="#F6FDFC"/>
<path d="M404.919 109.612C404.094 109.612 403.469 109.037 403.469 108.237C403.469 107.937 403.569 107.687 403.744 107.512C403.919 107.337 404.319 107.112 404.944 106.812C405.444 106.562 406.069 106.212 406.794 105.762L408.519 104.712L411.894 102.787C412.394 102.512 412.644 102.337 412.644 102.262C412.644 102.187 412.419 102.137 411.944 102.087L410.194 101.887C409.544 101.812 409.094 101.787 408.819 101.812C408.169 101.887 407.794 101.912 407.694 101.887C407.569 101.887 407.394 101.837 407.169 101.712C406.169 101.212 406.044 100.087 406.944 99.6875C407.269 99.5375 407.544 99.4625 407.744 99.4375C407.869 99.4125 408.144 99.4375 408.519 99.4875C408.894 99.5125 409.619 99.5375 410.669 99.5375C411.694 99.5125 412.494 99.5375 413.094 99.6125C413.669 99.6875 414.144 99.7125 414.569 99.7125C415.394 99.7125 415.994 99.9375 416.369 100.412C417.069 101.337 416.519 102.837 414.944 103.837C414.619 104.062 414.469 104.187 414.469 104.262C414.469 104.387 415.019 104.637 416.144 105.012L416.969 105.312C417.744 105.587 418.444 105.887 419.019 106.237C420.444 107.112 420.844 108.237 420.069 109.112C419.469 109.812 418.469 109.712 417.594 108.837C417.169 108.362 416.819 108.212 415.919 107.912C415.494 107.787 415.094 107.612 414.719 107.387C413.844 106.837 413.019 106.412 412.244 106.137C411.719 105.937 411.744 105.912 411.319 106.287C410.844 106.687 410.169 107.062 409.319 107.387C408.294 107.762 407.469 108.162 406.844 108.587C406.219 109.012 405.769 109.287 405.544 109.412C405.319 109.537 405.094 109.612 404.919 109.612ZM413.019 117.038C411.519 117.038 410.594 116.963 410.219 116.838C409.744 116.663 409.069 116.663 408.194 116.813C406.444 117.113 405.419 117.013 405.094 116.488C404.919 116.263 404.969 115.562 405.094 115.287C405.419 114.762 407.269 114.312 408.694 114.387C410.219 114.487 408.794 113.537 409.244 111.462C409.519 110.212 409.719 109.388 409.869 109.012C410.019 108.637 410.219 108.387 410.469 108.312C410.844 108.212 411.919 108.287 412.044 108.412C412.344 108.687 412.394 111.387 412.119 112.912C411.994 113.637 412.019 114.062 412.144 114.187C412.269 114.312 414.719 114.412 415.244 114.312C416.119 114.137 416.444 113.887 416.719 113.112C417.044 112.287 417.394 112.062 418.694 111.962C419.644 111.862 420.294 111.887 420.644 112.012C420.994 112.162 421.169 112.487 421.169 112.987C421.169 114.212 420.744 114.812 419.894 114.812C419.419 114.812 419.469 114.812 418.994 115.287C418.094 116.213 417.794 116.363 416.019 116.838C415.519 116.963 414.519 117.038 413.019 117.038ZM438.083 109.362C437.183 108.837 436.258 108.937 435.283 109.137C434.608 109.262 434.383 109.213 433.783 108.812C432.258 107.787 431.733 108.112 430.358 108.112C429.808 108.112 429.333 108.062 428.958 107.987C428.533 107.912 427.958 107.862 427.233 107.862C425.533 107.862 424.233 107.662 423.333 107.237C422.408 106.837 422.033 106.287 422.183 105.587C422.308 105.012 422.958 104.787 424.083 104.912L424.708 104.987C424.983 105.012 425.158 105.037 425.233 105.062C425.583 105.087 425.908 105.162 426.183 105.237C426.458 105.312 427.133 105.387 428.208 105.412C429.883 105.437 429.883 105.462 431.783 105.837C432.258 105.937 432.908 105.862 433.733 105.612C434.083 105.487 434.308 105.437 434.383 105.437C434.608 105.437 434.783 105.087 434.933 104.412C435.058 103.737 435.133 102.862 435.133 101.837C435.108 101.062 435.083 100.662 435.058 100.637C434.933 100.562 434.383 100.587 433.433 100.762C432.533 100.887 432.508 100.887 432.008 100.587C431.808 100.462 431.808 100.462 431.508 100.637C431.133 100.837 430.658 100.962 430.083 101.012C429.508 101.062 428.208 101.087 426.183 101.087C425.383 101.087 424.908 100.462 425.008 99.5375C425.133 98.6375 425.983 98.2125 427.208 98.4375C428.083 98.6125 428.708 98.6875 429.058 98.6625C429.408 98.6625 429.733 98.5875 430.033 98.4125C430.608 98.0625 431.083 97.8375 431.433 97.7625C432.158 97.6125 433.033 97.7125 434.058 98.0875C434.708 98.3125 435.108 98.4125 435.233 98.4125C435.658 98.4125 436.808 98.9375 437.233 99.3375C437.908 100.012 438.083 101.337 437.783 103.012C437.558 104.087 437.433 104.712 437.358 104.912C437.283 105.137 437.108 105.337 436.858 105.537C436.058 106.237 436.158 106.537 437.183 106.562C437.833 106.587 438.483 106.737 439.133 106.987C439.458 107.112 439.633 107.162 439.658 107.162C439.933 107.262 440.208 107.737 440.208 108.062C440.208 108.762 439.083 109.937 438.083 109.362ZM431.808 118.688C429.833 118.888 425.208 118.788 424.483 118.563C422.883 118.038 422.558 116.838 423.558 115.362C423.983 114.762 423.933 114.712 423.133 114.337C421.908 113.762 421.933 113.037 423.208 112.337C423.383 112.237 423.633 111.937 423.933 111.437C424.508 110.537 425.533 110.262 426.358 110.787C426.758 111.062 426.758 111.062 427.433 110.937C428.458 110.762 429.408 110.762 430.283 110.937C431.108 111.112 431.733 111.087 432.208 110.887C432.483 110.762 432.683 110.687 432.808 110.662C433.383 110.437 433.858 110.312 434.208 110.262C434.683 110.187 435.058 110.212 435.333 110.337C435.508 110.412 435.783 110.487 436.108 110.512C436.633 110.587 437.533 110.987 437.733 111.262C438.308 112.037 438.808 115.913 438.483 116.888C438.208 117.688 437.633 118.138 436.708 118.213C436.358 118.238 436.033 118.288 435.708 118.363C435.408 118.438 434.858 118.513 434.083 118.538C433.258 118.563 432.483 118.613 431.808 118.688ZM428.183 116.413C429.258 116.438 430.158 116.438 430.908 116.388C431.733 116.313 432.458 116.288 433.058 116.288C433.758 116.288 434.408 116.238 435.033 116.163C435.633 116.088 435.983 116.013 436.108 115.913C436.158 115.863 436.183 115.737 436.158 115.512C436.133 115.287 436.083 114.862 436.058 114.187C436.033 113.637 436.008 113.287 435.958 113.162C435.883 113.037 435.733 112.937 435.483 112.862C435.333 112.837 435.033 112.812 434.583 112.812C434.108 112.812 433.758 112.837 433.533 112.887L432.808 113.037C432.533 113.112 431.883 113.137 430.883 113.112C428.958 113.087 426.608 113.412 426.333 113.737C426.208 113.862 426.233 114.437 426.358 114.812C426.408 114.937 426.433 115.162 426.433 115.537V115.687C426.408 116.013 426.483 116.213 426.608 116.263C426.733 116.338 427.158 116.388 427.908 116.413H428.183ZM445.414 110.662C444.964 110.562 444.664 110.537 444.489 110.562C443.514 110.737 442.539 108.712 442.539 106.612C442.539 106.162 442.514 105.862 442.489 105.737C442.464 105.612 442.389 105.562 442.289 105.537C442.264 105.537 442.214 105.537 442.139 105.512C442.064 105.487 442.014 105.487 441.989 105.487C441.589 105.387 441.214 104.812 441.214 104.287C441.214 103.812 441.314 103.562 441.789 103.137C442.114 102.812 442.139 102.787 442.139 102.487C442.139 101.312 444.139 100.812 444.464 101.937C444.589 102.337 444.664 102.337 445.289 102.062C446.414 101.562 447.539 101.287 448.714 101.212C449.339 101.187 449.789 101.113 450.014 101.012C450.289 100.887 450.514 100.812 450.664 100.787C451.264 100.612 451.864 100.812 452.489 101.387C453.414 102.262 453.789 104.337 453.489 107.012L453.339 108.612C453.214 110.212 452.364 110.962 451.189 110.537C450.814 110.387 450.039 110.387 448.814 110.562C447.239 110.762 446.089 110.787 445.414 110.662ZM456.714 112.662C455.989 113.437 455.139 112.987 455.264 111.912C455.289 111.712 455.239 111.412 455.164 111.037C455.014 110.412 454.939 109.687 454.939 108.862C454.939 108.037 455.014 107.387 455.164 106.887C455.264 106.512 455.264 106.162 455.139 105.787C454.864 105.062 455.214 103.612 455.789 103.237C455.964 103.112 456.064 102.987 456.064 102.912C456.064 102.637 455.989 102.237 455.814 101.762C455.764 101.637 455.714 101.437 455.689 101.137C455.639 100.812 455.514 100.462 455.314 100.087C454.814 99.0625 454.964 98.2875 455.739 98.0125C455.964 97.9375 456.789 98.0125 457.064 98.1125C457.689 98.4125 458.014 99.7375 458.064 102.112C458.089 103.037 458.114 103.537 458.139 103.562C458.164 103.587 458.514 103.612 459.189 103.637C460.364 103.687 461.289 103.862 461.914 104.187C462.489 104.487 462.614 104.912 462.289 105.487C461.964 106.012 461.464 106.337 460.764 106.462C460.414 106.512 460.064 106.487 459.739 106.362C459.364 106.237 457.614 106.112 457.539 106.237C457.314 106.562 457.239 107.762 457.264 109.812C457.264 110.837 457.239 111.512 457.189 111.812C457.114 112.112 456.964 112.387 456.714 112.662ZM448.714 118.313C446.539 118.288 446.289 118.163 445.689 116.963C445.364 116.238 445.114 115.637 444.989 115.112C444.864 114.687 444.764 114.387 444.639 114.187C444.314 113.487 444.589 112.587 445.289 112.287C446.114 111.887 446.789 112.312 446.914 113.237C447.014 114.312 447.064 114.462 447.639 115.287C447.814 115.587 447.964 115.762 448.064 115.787C448.339 115.938 449.189 115.762 450.264 115.913C450.739 116.013 451.364 115.988 452.089 115.863C454.464 115.462 455.414 115.412 456.789 115.637C457.214 115.712 457.764 115.737 458.439 115.687C459.264 115.612 459.839 115.637 460.164 115.712C460.489 115.787 460.739 115.988 460.889 116.288C461.214 116.963 460.939 117.663 460.264 117.963C459.864 118.138 457.514 118.088 456.539 117.863C455.614 117.663 454.989 117.713 453.689 118.138C452.114 118.613 451.464 118.688 450.389 118.388L448.714 118.313ZM446.964 108.437C447.739 108.312 448.664 108.237 449.714 108.212C450.739 108.187 451.289 108.137 451.339 108.062C451.389 107.987 451.414 107.487 451.414 106.512C451.414 105.537 451.389 104.912 451.339 104.637L451.189 103.787C451.139 103.462 451.089 103.287 451.064 103.237C450.989 103.087 450.639 103.112 450.014 103.287C449.589 103.412 449.139 103.512 448.639 103.587C447.514 103.762 446.439 104.087 445.439 104.537L444.964 104.737C444.589 104.862 444.664 105.812 445.189 107.537L445.264 107.837C445.539 108.712 445.514 108.712 446.589 108.512L446.964 108.437ZM472.563 118.138C471.838 117.913 471.588 117.538 471.563 116.438L471.538 115.712L471.188 115.512C470.638 115.187 470.413 114.762 470.488 114.212C470.613 113.387 471.288 113.087 472.313 113.412C472.688 113.537 472.913 113.512 473.013 113.362C473.113 113.237 473.238 112.737 473.388 111.887C473.513 111.062 473.688 110.537 473.863 110.312C474.288 109.812 474.388 108.862 474.113 108.087C474.063 107.987 474.038 107.687 474.013 107.187C473.963 106.412 473.788 105.487 473.488 104.462L473.138 103.212C472.963 102.712 472.938 102.637 472.638 102.637C472.213 102.637 471.913 102.437 471.688 102.062C471.238 101.287 471.488 100.262 472.288 99.9875C472.788 99.8375 473.738 99.8625 475.163 100.062L476.613 100.262C477.188 100.312 477.713 100.462 478.138 100.737C478.513 100.987 479.063 101.137 479.763 101.187C480.863 101.287 481.363 101.512 481.788 102.112C481.963 102.362 482.413 102.687 483.113 103.062C483.788 103.437 484.238 103.912 484.488 104.487C484.588 104.762 484.738 105.062 484.963 105.337C485.488 106.012 485.613 106.287 485.738 107.562C486.038 110.362 485.838 112.337 485.163 113.512L484.663 114.387C484.188 115.187 483.913 115.462 483.038 115.888L482.013 116.438C481.038 116.963 477.263 117.363 474.663 117.188C474.363 117.163 474.163 117.163 474.063 117.188C473.963 117.213 473.913 117.288 473.913 117.388C473.913 117.813 473.038 118.313 472.563 118.138ZM477.113 114.787C479.513 114.762 480.138 114.662 481.463 113.962C482.388 113.487 482.713 113.087 483.213 111.862C483.388 111.437 483.463 109.388 483.338 108.587C483.288 108.312 483.238 107.962 483.213 107.537C483.188 107.062 483.163 106.987 482.863 106.587C482.663 106.312 482.488 106.012 482.363 105.737C482.213 105.412 482.088 105.237 481.963 105.187C481.163 104.762 480.588 104.362 480.238 103.987C479.863 103.662 479.863 103.662 479.138 103.562C478.363 103.487 477.688 103.262 477.138 102.937C476.863 102.762 476.563 102.662 476.263 102.613L475.763 102.562C475.688 102.587 475.638 102.613 475.613 102.662C475.563 102.712 475.588 102.912 475.713 103.237C476.138 104.612 476.388 105.887 476.488 107.112C476.513 107.537 476.563 107.912 476.638 108.237C476.913 109.637 476.863 110.262 476.388 110.987L476.038 111.562C475.963 111.662 475.888 111.962 475.788 112.462C475.613 113.437 475.488 114.062 475.363 114.287C475.238 114.537 475.238 114.687 475.338 114.712C475.463 114.762 476.038 114.787 477.113 114.787ZM495.232 117.763C494.857 118.138 494.532 118.113 493.907 117.638C493.682 117.462 493.532 117.188 493.457 116.863C493.382 116.538 493.382 115.963 493.432 115.187L493.507 113.987L493.457 112.937L493.382 109.937L493.332 107.812L492.857 107.837C492.557 107.837 492.182 107.912 491.757 108.037C490.732 108.362 489.882 108.287 489.182 107.862C488.607 107.512 488.482 107.087 488.757 106.612C488.857 106.462 489.007 106.312 489.207 106.187C490.132 105.537 491.207 105.262 492.457 105.387C493.482 105.487 493.482 105.512 493.557 104.612C493.582 104.187 493.632 103.862 493.682 103.662C493.732 103.462 493.757 103.212 493.757 102.912L493.807 101.787C493.907 101.012 493.832 100.687 493.532 100.188C493.282 99.7875 493.207 99.4625 493.332 99.2375C493.432 98.9625 493.857 98.5625 494.032 98.5375C494.732 98.3375 495.782 98.8875 496.157 99.6125C496.357 100.037 496.457 101.612 496.282 102.637C496.157 103.587 496.082 104.512 496.057 105.437C496.032 107.162 495.932 108.337 495.782 108.912C495.732 109.162 495.732 109.487 495.757 109.862C495.807 110.287 495.832 110.712 495.832 111.187C495.832 111.612 495.857 112.187 495.907 112.887C495.932 113.512 495.932 113.962 495.882 114.212L495.807 115.662C495.732 117.038 495.657 117.338 495.232 117.763ZM514.047 114.988C512.022 114.962 511.947 114.962 510.472 114.437C508.697 113.787 507.572 112.987 507.097 112.062C506.172 110.187 506.172 108.912 507.172 107.587C507.572 107.062 508.722 106.287 509.122 106.287C509.222 106.287 510.897 105.787 511.272 105.612C511.672 105.437 511.647 105.362 511.172 105.387C510.922 105.387 510.572 105.412 510.147 105.462C509.072 105.612 508.397 105.687 508.122 105.687C507.847 105.687 507.572 105.637 507.297 105.512C506.472 105.137 506.197 104.812 506.097 104.187C506.047 103.762 506.222 103.437 506.622 103.212C507.022 103.012 507.672 102.912 508.547 102.912C509.722 102.937 510.522 102.837 510.922 102.613C511.072 102.537 511.272 102.487 511.522 102.462C511.797 102.437 511.947 102.362 511.947 102.287C511.922 102.212 511.697 101.962 511.247 101.537C510.547 100.912 510.772 99.0375 511.597 98.8125C511.997 98.6875 512.397 98.7125 512.822 98.8625L513.797 99.2125C514.222 99.3875 514.647 99.5125 515.097 99.6375C516.222 99.9125 516.622 100.237 516.622 100.912C516.622 101.487 516.497 101.637 515.697 102.237C515.172 102.587 515.222 102.637 515.872 102.637C517.572 102.662 518.322 103.437 517.622 104.462C517.147 105.162 516.822 105.287 515.522 105.212C513.922 105.137 512.747 105.312 512.797 105.462C512.822 105.512 513.072 105.537 513.497 105.537C514.497 105.512 515.447 105.837 515.447 106.237C515.447 107.037 516.772 108.362 517.772 108.587C518.847 108.862 519.372 109.562 519.372 110.712C519.372 111.912 519.347 112.337 519.297 112.862C519.222 113.512 518.672 113.837 517.922 114.212C516.497 114.937 516.222 114.988 514.047 114.988ZM515.547 112.287C515.547 112.287 516.497 111.037 516.222 110.662C515.947 110.287 514.722 109.987 514.597 109.837C514.422 109.637 514.322 109.487 514.322 109.412C514.322 109.037 513.497 108.537 512.597 108.312C512.247 108.237 511.997 108.187 511.897 108.187C511.722 108.187 509.697 109.887 509.472 110.212C509.097 110.812 509.397 111.262 510.247 111.437C510.622 111.512 511.347 111.687 512.397 112.012C512.872 112.162 513.272 112.212 513.622 112.187C514.397 112.112 514.722 112.412 515.547 112.287ZM522.397 117.663C521.872 117.363 521.722 117.138 521.497 116.538C521.372 116.113 521.447 115.037 521.672 114.762C522.097 114.187 522.097 114.062 521.847 113.262C521.647 112.587 521.522 110.887 521.547 109.762C521.597 109.262 521.572 108.762 521.522 108.287C521.472 107.587 521.447 107.562 521.672 106.587C521.947 105.312 522.097 104.062 522.097 102.837C522.097 101.612 521.947 100.687 521.697 100.062C521.447 99.4625 521.622 98.8875 522.022 98.7125C522.747 98.4125 523.572 98.7875 523.972 99.4875C524.497 100.587 524.572 103.412 524.072 105.937C523.997 106.262 523.972 106.812 523.972 107.537C523.972 108.512 523.847 109.287 523.622 109.862C523.397 110.362 523.447 110.637 523.722 111.312C524.197 112.437 524.372 113.987 524.122 114.812C524.022 115.187 524.022 115.662 524.122 116.188C524.447 117.663 523.597 118.363 522.397 117.663ZM542.929 119.263C542.304 119.363 541.404 119.288 540.229 119.013C538.429 118.638 537.704 118.663 536.004 119.138C535.129 119.363 533.979 119.388 532.579 119.188C532.004 119.112 531.579 119.063 531.304 119.063C528.829 119.038 527.179 117.413 527.179 115.262C527.179 113.312 529.079 113.187 531.654 113.412L532.554 113.512C534.029 113.687 537.779 113.812 539.104 113.337C539.304 113.262 539.629 113.187 540.079 113.112C540.854 113.012 541.054 112.962 541.079 112.513C541.079 112.237 540.154 112.138 538.679 112.237C538.104 112.287 537.154 112.312 535.854 112.312C534.304 112.287 533.254 112.362 532.704 112.513C531.779 112.737 530.579 112.087 530.579 111.412C530.579 110.887 531.229 110.287 532.004 110.112C532.179 110.062 533.554 110.037 536.129 110.012C540.229 110.012 539.954 110.012 542.079 110.312C543.279 110.512 543.779 111.437 543.254 112.513C543.079 112.862 543.054 112.737 543.129 113.287C543.204 114.337 542.679 114.762 540.904 115.162C540.479 115.237 540.004 115.462 539.404 115.512C535.629 115.838 534.529 115.888 532.354 115.587L530.579 115.437C530.429 115.412 530.304 115.512 530.304 115.662C530.279 115.812 530.304 116.188 530.554 116.338C530.779 116.488 531.204 116.613 531.479 116.713C532.004 116.913 534.504 116.813 535.829 116.688C537.029 116.563 538.279 116.563 539.579 116.713C541.004 116.888 542.179 116.938 543.054 116.888C544.304 116.788 545.179 116.838 545.679 117.063C546.154 117.288 546.279 117.663 546.054 118.163C545.929 118.488 545.679 118.688 545.354 118.813C545.004 118.938 544.204 119.063 542.929 119.263ZM529.279 109.062C527.704 109.162 526.904 108.487 527.379 107.462C527.504 107.162 527.654 106.962 527.829 106.862C528.204 106.612 529.229 106.537 530.654 106.662C531.379 106.687 531.904 106.662 532.229 106.587C532.779 106.462 533.279 106.437 533.729 106.462C534.154 106.487 535.079 106.637 536.454 106.912C537.204 107.062 537.979 107.062 538.754 106.937C538.979 106.912 539.404 106.862 540.029 106.837C540.654 106.812 541.079 106.762 541.279 106.687C541.754 106.487 542.504 106.337 543.529 106.212C544.604 106.087 546.104 106.262 546.404 106.537C546.729 106.862 546.754 107.537 546.429 107.937C546.154 108.312 544.779 108.787 544.354 108.687C543.954 108.612 543.279 108.662 542.354 108.837C539.729 109.337 536.604 109.362 534.329 108.862C533.554 108.687 533.454 108.687 532.579 108.787C531.579 108.912 530.479 108.987 529.279 109.062ZM536.479 105.062C535.254 105.137 533.854 105.062 532.279 104.837C531.204 104.662 531.154 104.537 531.179 102.912C531.254 101.113 531.004 100.737 529.904 101.037C528.104 101.462 527.729 100.362 529.129 98.8375C529.504 98.4125 530.354 98.6375 530.354 98.6125C530.354 98.4875 530.079 97.6625 530.379 97.5375C530.579 97.4375 530.729 97.3875 530.804 97.3875C530.879 97.3875 531.004 97.4125 531.229 97.4625C531.654 97.5875 532.054 97.8375 532.429 98.2125L532.704 98.5125L533.654 98.4125L535.479 98.2875C535.704 98.2625 536.829 98.1625 537.204 98.1625C537.729 98.1125 538.229 98.0875 538.679 98.0875C539.104 98.0875 539.504 98.0625 539.929 97.9875C541.404 97.7625 542.304 98.0625 543.029 99.0375C543.204 99.3125 543.604 100.437 543.804 101.312L544.104 102.537C544.329 103.337 544.079 103.762 543.254 104.037L542.279 104.412C541.254 104.812 540.754 104.887 539.054 104.962L536.479 105.062ZM534.504 102.987C535.154 103.012 535.704 103.012 536.179 102.963C538.979 102.762 540.454 102.613 540.629 102.487C540.729 102.387 540.804 100.237 540.679 100.037C540.604 99.9375 540.354 99.9375 539.929 100.037C538.879 100.287 536.829 100.537 533.779 100.812L533.329 100.862V101.762C533.354 102.963 533.304 102.912 534.504 102.987ZM564.65 118.463C564.425 118.313 564.275 117.988 564.25 117.462C564.2 116.963 564.25 116.188 564.425 115.112C564.5 114.637 564.5 114.163 564.45 113.687C564.4 113.237 564.35 112.162 564.3 110.437C564.25 108.712 564.225 107.837 564.2 107.812C564.175 107.737 564.075 107.712 563.875 107.712C563.65 107.737 563.425 107.787 563.2 107.862C562.925 107.937 562.6 108.012 562.2 108.037C561.85 108.062 561.65 108.112 561.625 108.187C561.6 108.262 561.6 108.612 561.675 109.237C562.15 113.812 562.325 116.238 562.15 116.538C561.95 116.938 561.15 117.413 560.775 117.338C560 117.188 559.75 116.438 560.025 115.112C560.1 114.637 560.15 114.012 560.125 113.262C560.125 112.537 560.15 111.937 560.175 111.512C560.225 110.887 560.1 110.262 559.775 109.687C559.6 109.412 559.5 109.062 559.45 108.687C559.35 108.062 559.325 107.987 558.925 107.512C558.45 106.987 558.5 106.637 559.2 105.712C559.525 105.237 559.75 104.462 559.825 103.362C559.85 102.862 559.9 102.412 560 101.987C560.1 101.612 560.15 101.187 560.15 100.762C560.15 99.3875 560.525 98.6875 561.3 98.6875C562.1 98.6875 562.65 99.1875 562.575 99.9625C562.55 100.312 562.575 100.662 562.625 100.987C562.65 101.337 562.625 101.787 562.55 102.312C562.425 102.987 562.325 103.687 562.225 104.462L562.125 105.237C562.1 105.337 562.125 105.387 562.25 105.387C562.325 105.362 562.525 105.312 562.8 105.187C563.1 105.062 563.45 104.962 563.875 104.862C564.975 104.662 565.35 104.012 565.425 102.312C565.45 101.662 565.45 101.237 565.425 101.012C565.375 100.812 565.25 100.612 565.025 100.437C564.625 100.062 564.625 100.062 564.725 99.5875C564.925 98.6625 565.225 98.1625 565.625 98.0375C566.325 97.8375 567.25 98.1625 567.525 98.6875C568.25 100.112 568.3 103.237 567.6 104.262C567.375 104.637 567.325 104.837 567.225 105.837C567.125 107.262 566.9 107.887 566.175 108.712C566.05 108.887 565.975 109.037 565.975 109.213C565.975 109.388 566.05 109.762 566.2 110.312C566.375 111.062 566.525 112.012 566.65 113.162C566.775 114.487 566.65 116.813 566.35 117.513C565.95 118.588 565.375 118.913 564.65 118.463ZM550.625 113.562C550.225 113.937 549.475 113.837 549.075 113.412C548.45 112.712 548.2 111.862 548.1 110.137C548.075 109.437 547.975 108.762 547.85 108.137C547.725 107.562 547.65 107.112 547.65 106.787C547.65 106.462 547.7 106.012 547.8 105.462C547.9 105.012 547.95 104.662 547.95 104.387C547.95 104.112 547.9 103.737 547.8 103.262C547.475 101.437 547.8 100.512 548.9 100.287C549.525 100.162 550.225 100.387 550.4 100.787C550.475 100.912 550.525 101.512 550.575 102.562C550.6 103.612 550.625 105.737 550.625 108.962C550.625 109.787 551.15 110.162 552.175 110.087C552.35 110.112 552.525 110.062 552.675 109.987C552.825 109.912 553.1 109.712 553.5 109.388C554.7 108.487 555.85 108.687 557.375 110.087C558.2 110.862 558.425 111.762 558.05 112.312C557.65 112.862 556.9 113.262 555.775 112.862C554.6 112.487 554.1 112.537 553 113.012C552.7 113.137 552.35 113.212 551.925 113.237C551.3 113.262 550.85 113.387 550.625 113.562ZM572.318 110.862C571.718 111.537 570.993 111.387 569.893 110.362C569.093 109.637 569.168 108.262 570.043 107.037C570.193 106.812 570.268 106.587 570.268 106.337C570.268 106.087 570.193 105.737 570.043 105.287C569.643 104.162 569.593 103.687 569.793 102.613C569.843 102.287 569.843 101.962 569.768 101.662C569.568 100.562 569.918 99.6375 570.693 99.4625C571.368 99.2875 571.993 99.6125 572.193 100.188C572.318 100.612 572.393 102.187 572.293 103.112C572.193 103.837 572.218 103.887 572.343 104.262C573.018 105.987 572.993 107.287 572.293 108.162C572.118 108.412 572.018 108.587 571.993 108.662C571.968 108.762 572.043 108.862 572.168 108.962C572.668 109.287 572.743 110.362 572.318 110.862ZM572.943 116.863C572.193 117.363 571.068 116.963 570.843 115.938C570.818 115.712 570.718 115.462 570.543 115.212C569.943 114.212 570.343 113.212 571.418 112.937C571.918 112.812 572.743 113.087 573.068 113.512C573.143 113.612 573.193 113.712 573.218 113.812L573.293 114.587L573.368 115.712C573.443 116.238 573.318 116.613 572.943 116.863Z" fill="#F6FDFC"/>
</g>
</g>
<defs>
<linearGradient id="paint0_linear_54_17569" x1="357" y1="146.21" x2="357" y2="-1.73536e-06" gradientUnits="userSpaceOnUse">
<stop stop-color="#E4FFEC"/>
<stop offset="1" stop-color="#C7F3FE"/>
</linearGradient>
<clipPath id="clip0_54_17569">
<rect width="714" height="370" fill="white"/>
</clipPath>
<clipPath id="clip1_54_17569">
<rect width="714" height="370" fill="white"/>
</clipPath>
</defs>
</svg>
