<svg width="138" height="133" viewBox="0 0 138 133" fill="none" xmlns="http://www.w3.org/2000/svg">
<path d="M124.384 82.3711C125.914 82.4262 126.705 80.5387 125.575 79.527L109.537 65.1579C109.07 64.7393 108.314 64.9747 108.154 65.5888L104.259 80.5431C104.125 81.0556 104.492 81.5538 105.02 81.5774L116.309 82.0805L124.384 82.3711Z" fill="#FBD498"/>
<path d="M87.2519 22.7788C88.3957 22.0949 89.8045 23.1708 89.5976 24.5702L87.3598 39.7062L71.0002 32.4956L87.2519 22.7788Z" fill="#98887F"/>
<path d="M31.8574 26.8533C30.7058 26.1859 29.3132 27.2794 29.5369 28.6755L31.9571 43.7832L48.2287 36.341L31.8574 26.8533Z" fill="#98887F"/>
<path d="M114 87.1767C114 119.086 91.1665 132.4 63 132.4C34.8335 132.4 12 119.086 12 87.1767C12 55.2677 34.8335 29.4004 63 29.4004C91.1665 29.4004 114 55.2677 114 87.1767Z" fill="#FBD498"/>
<path d="M72.5622 57.0658C72.1388 57.0881 71.7926 56.7496 71.8134 56.3317C71.8602 55.3929 71.9428 53.7887 72.0183 52.586C72.0964 51.3428 72.2272 49.5698 72.3012 48.5843C72.3314 48.1831 72.691 47.8806 73.0961 47.9151L74.1999 48.0092C74.5898 48.0424 74.8771 48.3753 74.8486 48.7615C74.7826 49.6533 74.668 51.234 74.591 52.4586C74.5123 53.7114 74.4345 55.3955 74.3941 56.3108C74.3777 56.6836 74.0743 56.9859 73.6967 57.0058L72.5622 57.0658Z" fill="#98887F"/>
<path d="M64.8569 47.9695C64.842 47.5484 65.197 47.1997 65.6233 47.2186C66.6408 47.2637 68.4324 47.3456 69.7692 47.4202C71.1514 47.4974 73.1324 47.6274 74.1964 47.6985C74.6037 47.7256 74.8994 48.081 74.8506 48.4825L74.726 49.5095C74.6794 49.8928 74.3345 50.1763 73.9456 50.1507C72.9837 50.0875 71.2133 49.9732 69.8477 49.897C68.4502 49.8189 66.5608 49.7415 65.5761 49.7029C65.2024 49.6883 64.9074 49.3952 64.8943 49.0262L64.8569 47.9695Z" fill="#98887F"/>
<path d="M66.4735 50.9737C66.4672 50.5588 66.8185 50.2197 67.2383 50.2373C68.0856 50.273 69.4598 50.3333 70.4981 50.3912C71.5737 50.4513 73.0931 50.5537 73.9859 50.6153C74.3901 50.6432 74.6843 50.9944 74.6392 51.3932L74.5231 52.4208C74.4794 52.8073 74.1317 53.0944 73.7399 53.0679C72.9316 53.0132 71.5822 52.9241 70.528 52.8653C69.4482 52.805 68.0085 52.7497 67.1749 52.7197C66.7944 52.7061 66.4952 52.4042 66.4895 52.0283L66.4735 50.9737Z" fill="#98887F"/>
<path d="M110.562 26.0638C110.139 26.0862 109.793 25.7476 109.813 25.3297C109.86 24.3909 109.943 22.7867 110.018 21.5841C110.096 20.3409 110.227 18.5679 110.301 17.5823C110.331 17.1811 110.691 16.8787 111.096 16.9132L112.2 17.0072C112.59 17.0404 112.877 17.3734 112.849 17.7595C112.783 18.6514 112.668 20.2321 112.591 21.4567C112.512 22.7094 112.434 24.3935 112.394 25.3089C112.378 25.6816 112.074 25.9839 111.697 26.0039L110.562 26.0638Z" fill="#FFC46A"/>
<path d="M102.857 16.9675C102.842 16.5465 103.197 16.1978 103.623 16.2167C104.641 16.2618 106.432 16.3436 107.769 16.4183C109.151 16.4954 111.132 16.6255 112.196 16.6965C112.604 16.7237 112.899 17.079 112.851 17.4805L112.726 18.5075C112.679 18.8908 112.335 19.1743 111.946 19.1488C110.984 19.0855 109.213 18.9712 107.848 18.895C106.45 18.817 104.561 18.7395 103.576 18.701C103.202 18.6863 102.907 18.3932 102.894 18.0243L102.857 16.9675Z" fill="#FFC46A"/>
<path d="M104.474 19.9718C104.467 19.5569 104.819 19.2178 105.238 19.2354C106.086 19.271 107.46 19.3313 108.498 19.3893C109.574 19.4493 111.093 19.5518 111.986 19.6134C112.39 19.6412 112.684 19.9925 112.639 20.3912L112.523 21.4188C112.479 21.8054 112.132 22.0925 111.74 22.066C110.932 22.0113 109.582 21.9222 108.528 21.8633C107.448 21.803 106.009 21.7477 105.175 21.7178C104.794 21.7041 104.495 21.4022 104.49 21.0263L104.474 19.9718Z" fill="#FFC46A"/>
<path d="M47.2023 57.5691C46.7853 57.6297 46.4024 57.3233 46.3735 56.9044C46.3089 55.9666 46.2013 54.3665 46.1341 53.1653C46.0647 51.9237 45.985 50.1517 45.942 49.1648C45.9244 48.7615 46.2449 48.4268 46.6505 48.4241L47.7656 48.4168C48.1562 48.4143 48.4806 48.7206 48.498 49.1088C48.538 50.002 48.6109 51.5812 48.6793 52.804C48.7493 54.0547 48.8709 55.7329 48.9392 56.6473C48.9671 57.0213 48.7019 57.3511 48.3296 57.4052L47.2023 57.5691Z" fill="#98887F"/>
<path d="M38.4629 49.2341C38.3979 48.8148 38.7087 48.4337 39.1339 48.4137C40.1514 48.3657 41.9456 48.2835 43.2858 48.2357C44.6715 48.1862 46.6604 48.1347 47.727 48.1082C48.1342 48.0981 48.4693 48.4261 48.4684 48.8316L48.4659 49.8574C48.465 50.2442 48.1568 50.5586 47.7684 50.5687C46.8043 50.5935 45.0266 50.6415 43.6572 50.6904C42.2557 50.7404 40.3636 50.836 39.38 50.8874C39.0081 50.9069 38.6812 50.6416 38.6243 50.2747L38.4629 49.2341Z" fill="#98887F"/>
<path d="M40.4251 52.0718C40.3695 51.6579 40.6777 51.2868 41.0962 51.2661C41.9435 51.2242 43.3197 51.1586 44.3607 51.1215C45.4392 51.083 46.9653 51.0462 47.8607 51.0259C48.2648 51.0168 48.5981 51.3408 48.6005 51.7432L48.6065 52.7688C48.6088 53.1586 48.2981 53.4769 47.9066 53.4863C47.0962 53.5057 45.7408 53.5402 44.6834 53.578C43.6003 53.6166 42.1588 53.6932 41.3261 53.7394C40.9476 53.7605 40.6154 53.4867 40.5651 53.1121L40.4251 52.0718Z" fill="#98887F"/>
<path d="M52.999 65.8208C56.2161 66.3093 56.7268 66.2966 58.9612 66.3101C61.1958 66.323 61.6421 66.3098 64.3229 65.8211C67.499 65.2421 68.8056 62.8184 67.0037 63.3781C64.999 64.0008 64.3229 64.3556 57.3526 64.3556C50.8305 64.3556 51.499 63.0217 50.3825 63.3783C49.9988 63.5008 50.5706 65.4521 52.999 65.8208Z" fill="#EF8E8E"/>
<path d="M103.2 104.146C103.2 116.363 84.2671 127.8 66.1034 127.8C47.9397 127.8 28 120.409 28 108.193C28 95.9759 47.9397 77.4004 66.1034 77.4004C84.2671 77.4004 103.2 91.9292 103.2 104.146Z" fill="#FDEACE"/>
<path d="M44.0648 72.4328C45.1438 71.3357 44.1664 69.5319 42.6436 69.8098L26.0338 72.8412C23.2234 73.3541 21.8115 76.4941 23.3251 78.8651L26.9314 84.5145C28.4089 86.8291 31.7809 86.9927 33.5122 84.8339L40.7731 75.7798L44.0648 72.4328Z" fill="#FFC46A"/>
</svg>
