<svg width="341" height="307" viewBox="0 0 341 307" fill="none" xmlns="http://www.w3.org/2000/svg">
<circle cx="295.501" cy="77.7068" r="27.9143" transform="rotate(45.8455 295.501 77.7068)" fill="#A07BE5"/>
<circle cx="295.651" cy="77.7079" r="20.9357" transform="rotate(45.8455 295.651 77.7079)" fill="#DDD0F6"/>
<path d="M126.963 34.2228C127.472 31.0309 131.431 29.8232 133.636 32.1874L157.32 57.5926L119.769 79.3167L126.963 34.2228Z" fill="#8B7A70"/>
<path fill-rule="evenodd" clip-rule="evenodd" d="M159.71 289.444C223.166 289.444 274.607 259.387 274.607 187.356C274.607 183.222 274.437 179.133 274.106 175.098L296.414 140.419C298.163 137.7 296.018 134.161 292.799 134.453L265.698 136.915C248.324 89.9304 207.412 56.9321 159.71 56.9321C104.049 56.9321 57.632 101.86 47.068 161.511L20.1623 184.78C15.6535 188.679 18.6943 196.074 24.6419 195.674L44.9767 194.305C48.198 261.326 98.3338 289.444 159.71 289.444Z" fill="#BFA5ED"/>
<path d="M252.654 225.396C252.654 255.194 211.123 278.963 168.033 278.963C124.943 278.963 79.5312 268.392 79.5312 238.593C79.5312 208.795 133.095 165.23 176.185 165.23C219.275 165.23 252.654 195.597 252.654 225.396Z" fill="#DDD0F6"/>
<path d="M120.41 102.272C120.306 101.811 120.595 101.352 121.056 101.247L140.489 96.8335C140.95 96.7287 141.409 97.0178 141.514 97.4792L142.739 102.871C142.854 103.377 142.495 103.868 141.978 103.914L132.483 104.748C132.408 104.755 132.334 104.771 132.263 104.797L121.852 108.621L120.41 102.272Z" fill="#8B7A70"/>
<path d="M123.639 116.477L134.553 115.718L143.813 112.052C144.302 111.858 144.848 112.146 144.964 112.659L146.066 117.513C146.171 117.974 145.882 118.433 145.421 118.538L125.988 122.951C125.526 123.056 125.067 122.767 124.963 122.306L123.639 116.477Z" fill="#8B7A70"/>
<path d="M125.986 122.951C125.524 123.056 125.065 122.767 124.961 122.306L120.818 104.063L128.764 102.259L129.015 110.355C129.019 110.497 129.047 110.637 129.097 110.77L133.097 121.336L125.986 122.951Z" fill="#8B7A70"/>
<ellipse cx="171.692" cy="132.536" rx="5.69876" ry="7.47036" transform="rotate(-8.74215 171.692 132.536)" fill="#FAB9B9"/>
<path d="M195.736 98.7412C195.901 99.5977 195.55 100.08 194.722 100.24L184.301 102.254L185.261 107.222C188.733 106.492 192.203 105.288 195.67 103.611C196.247 103.381 196.594 103.492 196.688 103.977L197.108 106.147C197.212 106.69 197.05 107.076 196.615 107.279C193.067 109.149 188.347 110.624 182.408 111.772C181.78 111.893 181.416 111.697 181.311 111.154L179.237 100.419C179.093 99.6765 179.45 99.2226 180.306 99.057L191.042 96.9825L190.446 93.8989L179.511 96.012C178.768 96.1555 178.348 95.822 178.194 95.0225L177.902 93.5092C177.747 92.7098 178.012 92.2438 178.755 92.1004L192.574 89.43C193.431 89.2645 193.97 89.6045 194.125 90.404L195.736 98.7412Z" fill="#8B7A70"/>
<path d="M290.399 123.742L299.195 123.797L298.12 160.774C298.082 162.108 296.936 163.125 295.607 163.006L290.62 162.561C289.356 162.448 288.401 161.346 288.468 160.08L290.399 123.742Z" fill="#A07BE5"/>
<mask id="path-12-outside-1_1930_7888" maskUnits="userSpaceOnUse" x="0.0117188" y="12.9126" width="341" height="294" fill="black">
<rect fill="white" x="0.0117188" y="12.9126" width="341" height="294"/>
<path fill-rule="evenodd" clip-rule="evenodd" d="M133.649 32.1513C131.445 29.7871 127.486 30.9947 126.977 34.1866L122.219 64.0065C84.1553 78.9202 55.1532 115.902 47.0816 161.479L20.176 184.748C15.6671 188.647 18.7079 196.042 24.6556 195.642L44.9904 194.274C48.2117 261.294 98.3475 289.412 159.723 289.412C223.179 289.412 274.621 259.355 274.621 187.324C274.621 183.191 274.451 179.103 274.12 175.068L288.904 152.086L288.481 160.044C288.414 161.31 289.369 162.411 290.634 162.524L295.62 162.97C296.95 163.089 298.095 162.072 298.134 160.738L299.104 127.353C304.876 126.61 310.465 124.062 314.962 119.696C326.023 108.957 326.283 91.2846 315.544 80.2237C304.805 69.1629 287.133 68.9021 276.072 79.6412C265.011 90.3804 264.75 108.053 275.489 119.114C279.631 123.38 284.805 126.039 290.233 127.081L289.828 134.692L265.712 136.883C248.338 89.8987 207.426 56.9004 159.723 56.9004C158.733 56.9004 157.746 56.9146 156.762 56.9428L133.649 32.1513Z"/>
</mask>
<path d="M126.977 34.1866L109.748 31.4379L109.748 31.438L126.977 34.1866ZM133.649 32.1513L146.41 20.2545L146.41 20.2544L133.649 32.1513ZM122.219 64.0065L128.584 80.2506L137.875 76.6101L139.448 66.7552L122.219 64.0065ZM47.0816 161.479L58.494 174.675L63.1803 170.622L64.2607 164.521L47.0816 161.479ZM20.176 184.748L8.76364 171.552L8.76362 171.552L20.176 184.748ZM24.6556 195.642L25.827 213.049H25.827L24.6556 195.642ZM44.9904 194.274L62.4167 193.436L61.5629 175.673L43.819 176.867L44.9904 194.274ZM274.12 175.068L259.447 165.63L256.248 170.603L256.732 176.496L274.12 175.068ZM288.904 152.086L306.326 153.012L309.816 87.3305L274.231 142.647L288.904 152.086ZM288.481 160.044L271.059 159.118L271.059 159.118L288.481 160.044ZM290.634 162.524L289.081 179.902L289.081 179.902L290.634 162.524ZM295.62 162.97L294.068 180.347L294.068 180.347L295.62 162.97ZM298.134 160.738L280.695 160.231V160.231L298.134 160.738ZM299.104 127.353L296.875 110.05L282.098 111.953L281.665 126.846L299.104 127.353ZM314.962 119.696L302.809 107.179L302.809 107.179L314.962 119.696ZM315.544 80.2237L303.027 92.3769V92.3769L315.544 80.2237ZM276.072 79.6412L263.919 67.1241L263.919 67.1241L276.072 79.6412ZM275.489 119.114L288.007 106.961L288.007 106.961L275.489 119.114ZM290.233 127.081L307.655 128.006L308.462 112.814L293.52 109.947L290.233 127.081ZM289.828 134.692L291.406 152.067L306.449 150.701L307.25 135.618L289.828 134.692ZM265.712 136.883L249.349 142.934L253.983 155.467L267.29 154.258L265.712 136.883ZM156.762 56.9428L144 68.8396L149.379 74.6085L157.262 74.3821L156.762 56.9428ZM144.205 36.9353C142.425 48.0896 128.59 52.3099 120.888 44.0481L146.41 20.2544C134.299 7.26427 112.546 13.8999 109.748 31.4379L144.205 36.9353ZM139.448 66.7552L144.205 36.9353L109.748 31.438L104.99 61.2579L139.448 66.7552ZM64.2607 164.521C71.4027 124.193 96.8393 92.6882 128.584 80.2506L115.854 47.7624C71.4712 65.1521 38.9037 107.61 29.9025 158.437L64.2607 164.521ZM31.5883 197.944L58.494 174.675L35.6693 148.283L8.76364 171.552L31.5883 197.944ZM23.4842 178.235C34.2443 177.511 39.7454 190.889 31.5884 197.944L8.76362 171.552C-8.4111 186.405 3.17159 214.574 25.827 213.049L23.4842 178.235ZM43.819 176.867L23.4842 178.235L25.827 213.049L46.1617 211.681L43.819 176.867ZM159.723 271.966C131.416 271.966 107.641 265.447 90.9953 253.002C74.9476 241.005 63.8018 222.253 62.4167 193.436L27.564 195.111C29.4003 233.314 44.933 262.132 70.1024 280.949C94.6741 299.319 126.654 306.859 159.723 306.859V271.966ZM257.174 187.324C257.174 218.754 246.199 238.943 230.116 251.719C213.407 264.993 189.008 271.966 159.723 271.966V306.859C193.894 306.859 226.944 298.803 251.82 279.04C277.322 258.781 292.067 227.926 292.067 187.324H257.174ZM256.732 176.496C257.024 180.056 257.174 183.668 257.174 187.324H292.067C292.067 182.715 291.878 178.15 291.508 173.641L256.732 176.496ZM274.231 142.647L259.447 165.63L288.793 184.507L303.577 161.525L274.231 142.647ZM305.903 160.969L306.326 153.012L271.482 151.16L271.059 159.118L305.903 160.969ZM292.186 145.147C300.265 145.869 306.335 152.848 305.903 160.969L271.059 159.118C270.493 169.772 278.474 178.954 289.081 179.902L292.186 145.147ZM297.173 145.593L292.186 145.147L289.081 179.902L294.068 180.347L297.173 145.593ZM280.695 160.231C280.948 151.515 288.502 144.818 297.172 145.593L294.068 180.347C305.398 181.359 315.242 172.628 315.573 161.245L280.695 160.231ZM281.665 126.846L280.695 160.231L315.573 161.245L316.543 127.86L281.665 126.846ZM301.332 144.657C310.714 143.449 319.822 139.294 327.115 132.213L302.809 107.179C301.108 108.83 299.038 109.771 296.875 110.05L301.332 144.657ZM327.115 132.213C345.089 114.762 345.513 86.0446 328.061 68.0706L303.027 92.3769C307.054 96.5247 306.957 103.152 302.809 107.179L327.115 132.213ZM328.061 68.0706C310.61 50.0967 281.893 49.6729 263.919 67.1241L288.225 92.1584C292.373 88.1312 299 88.229 303.027 92.3769L328.061 68.0706ZM263.919 67.1241C245.945 84.5752 245.521 113.293 262.972 131.267L288.007 106.961C283.979 102.813 284.077 96.1856 288.225 92.1584L263.919 67.1241ZM262.972 131.267C269.687 138.183 278.117 142.521 286.945 144.215L293.52 109.947C291.493 109.558 289.576 108.577 288.007 106.961L262.972 131.267ZM307.25 135.618L307.655 128.006L272.811 126.155L272.406 133.767L307.25 135.618ZM267.29 154.258L291.406 152.067L288.25 117.318L264.134 119.508L267.29 154.258ZM159.723 74.3468C198.829 74.3468 234.026 101.498 249.349 142.934L282.076 130.832C262.65 78.2992 216.022 39.4539 159.723 39.4539V74.3468ZM157.262 74.3821C158.08 74.3586 158.9 74.3468 159.723 74.3468V39.4539C158.566 39.4539 157.412 39.4705 156.261 39.5036L157.262 74.3821ZM120.888 44.0481L144 68.8396L169.523 45.046L146.41 20.2545L120.888 44.0481Z" fill="white" mask="url(#path-12-outside-1_1930_7888)"/>
</svg>
