<svg width="348" height="420" viewBox="0 0 348 420" fill="none" xmlns="http://www.w3.org/2000/svg">
<path fill-rule="evenodd" clip-rule="evenodd" d="M200.449 187.649C198.68 186.053 195.848 187.153 195.62 189.524L191.687 230.382C99.9455 276.101 98.782 375.804 109.692 420H348V223.948C337.431 210.774 282.288 205.351 232.369 216.451L200.449 187.649Z" fill="#C1ABEB"/>
<path d="M256.799 339.231C252.517 344.19 243.529 356.653 235.608 363.294C251.652 358.834 268.377 316.037 282.808 332.713C297.239 349.389 277.259 375.433 264.787 384.691C292.399 368.285 295.674 342.159 285.184 330.721C274.694 319.282 265.24 329.457 256.799 339.231Z" fill="#A07BE5"/>
<path d="M236.581 314.391L243.487 308.296L262.844 330.225C263.904 331.425 263.79 333.258 262.589 334.318L261.31 335.447L260.609 336.035C260.293 336.3 260.038 336.629 259.859 337L258.449 339.934L236.581 314.391Z" fill="#A07BE5"/>
<ellipse cx="218.857" cy="287.934" rx="35.7396" ry="33.8335" transform="rotate(1.88817 218.857 287.934)" fill="#A07BE5"/>
<ellipse cx="218.847" cy="288.415" rx="26.209" ry="24.7794" transform="rotate(1.88817 218.847 288.415)" fill="#C1ABEB"/>
<path d="M198.713 284.876C198.363 284.326 198.525 283.598 199.075 283.248L222.211 268.534C222.76 268.184 223.488 268.346 223.838 268.896L227.92 275.314C228.304 275.917 228.067 276.72 227.418 277.018L215.502 282.495C215.407 282.538 215.319 282.594 215.239 282.661L203.52 292.434L198.713 284.876Z" fill="#A07BE5"/>
<path d="M209.473 301.793L223.263 295.757L233.564 286.72C234.107 286.244 234.948 286.364 235.336 286.974L239.012 292.753C239.361 293.302 239.199 294.031 238.65 294.38L215.514 309.095C214.964 309.444 214.236 309.282 213.886 308.733L209.473 301.793Z" fill="#A07BE5"/>
<path d="M215.516 309.092C214.967 309.441 214.238 309.279 213.889 308.73L200.076 287.012L209.537 280.995L213.609 291.369C213.68 291.551 213.781 291.719 213.908 291.868L223.982 303.707L215.516 309.092Z" fill="#A07BE5"/>
<ellipse cx="278.311" cy="302.62" rx="7.07365" ry="9.27268" transform="rotate(-28.4036 278.311 302.62)" fill="#A07BE5"/>
<path d="M287.428 247.22C287.979 248.152 287.771 248.862 286.87 249.395L275.529 256.101L278.726 261.508C282.48 259.204 286.033 256.348 289.385 252.94C289.964 252.43 290.416 252.414 290.728 252.942L292.125 255.304C292.474 255.894 292.446 256.414 292.022 256.832C288.656 260.5 283.754 264.196 277.292 268.017C276.608 268.421 276.101 268.344 275.752 267.754L268.843 256.071C268.366 255.263 268.593 254.584 269.525 254.033L281.207 247.124L279.223 243.769L267.323 250.806C266.515 251.283 265.885 251.069 265.371 250.199L264.397 248.552C263.882 247.682 263.998 247.027 264.806 246.549L279.844 237.656C280.776 237.105 281.549 237.277 282.063 238.147L287.428 247.22Z" fill="#A07BE5"/>
</svg>
