<svg width="131" height="132" viewBox="0 0 131 132" fill="none" xmlns="http://www.w3.org/2000/svg">
<path fill-rule="evenodd" clip-rule="evenodd" d="M126.771 56.2796C129.764 54.2449 131.278 50.4642 130.265 46.7828C128.991 42.1541 124.203 39.4352 119.572 40.71C114.941 41.9848 112.219 46.7704 113.494 51.3991C114.204 53.9817 116.009 55.9698 118.27 57.0013L120.416 77.7894C120.58 78.2082 121.111 78.962 122.087 79.3269C120.783 84.7912 109.819 89.2741 108.169 89.728C110.976 88.9553 112.169 91.201 112.169 91.201C120.325 86.3813 123.814 82.5925 123.731 79.5042C124.915 79.3338 125.49 78.5157 125.638 78.0666L126.771 56.2796Z" fill="#98887F"/>
<path d="M22.2992 30.9205C20.8034 30.7502 19.7668 32.3758 20.5522 33.6602L28.9922 47.462L43.4321 33.3269L22.2992 30.9205Z" fill="#98887F"/>
<path d="M80.2004 19.3538C81.4222 18.4742 83.1209 19.386 83.0633 20.8904L82.4439 37.0564L62.9383 31.78L80.2004 19.3538Z" fill="#98887F"/>
<path fill-rule="evenodd" clip-rule="evenodd" d="M64.1792 131.314C92.3457 131.314 115.179 118 115.179 86.0907C115.179 84.5656 115.127 83.0542 115.025 81.5588L124.274 67.1802C125.089 65.9141 124.089 64.2653 122.59 64.4015L111.805 65.3811C104.455 43.7021 85.9033 28.3145 64.1792 28.3145C39.4225 28.3145 18.7858 48.2979 14.152 74.8028L1.00612 86.1718C-1.09401 87.988 0.322322 91.4325 3.09263 91.2461L13.335 90.5568C15.383 119.247 37.3644 131.314 64.1792 131.314Z" fill="#FBD498"/>
<path d="M105.537 98.6244C105.537 112.504 87.2689 125.135 67.1984 125.135C47.128 125.135 26.5234 118.766 26.5234 104.886C26.5234 91.0064 51.4721 70.7148 71.5425 70.7148C91.613 70.7148 105.537 84.7449 105.537 98.6244Z" fill="#FDEACE"/>
<path d="M42.7436 50.6807C42.6852 50.5356 42.7164 50.3706 42.8265 50.2595C43.3401 49.7413 44.8611 48.2608 46.0798 47.6253C47.2803 46.9994 49.2722 46.628 50.0007 46.5074C50.1675 46.4798 50.3308 46.5641 50.409 46.714L51.0793 47.9998C51.1807 48.1942 51.1069 48.4335 50.9132 48.5361C50.2338 48.896 48.7023 49.7059 47.5754 50.2934C46.4947 50.8569 45.0446 52.3086 44.3295 53.0637C44.1258 53.2787 43.7633 53.2133 43.6527 52.9385L42.7436 50.6807Z" fill="#98887F"/>
<path d="M82.2246 49.3572C82.2256 49.6892 82.0216 49.9867 81.7076 50.0945C80.8558 50.3871 79.1339 50.9269 77.9144 50.9688C76.7263 51.0095 75.0728 50.6099 74.207 50.3726C73.8614 50.2778 73.6341 49.9562 73.6463 49.598L73.7033 47.928C73.7255 47.2755 74.5089 46.8888 75.0968 47.1727C75.7229 47.4751 76.4936 47.74 77.2397 47.7144C78.3302 47.677 80.1028 47.2912 81.212 47.0252C81.7213 46.9031 82.2183 47.2859 82.2199 47.8096L82.2246 49.3572Z" fill="#98887F"/>
<path d="M50.0496 46.6504C50.2071 46.5967 50.381 46.6462 50.4837 46.7771C50.9457 47.3655 52.2088 49.0379 52.6851 50.3136C53.1564 51.5759 53.2809 53.5849 53.3118 54.3315C53.319 54.5058 53.2086 54.6608 53.043 54.7158L50.1626 55.6727C49.8948 55.7617 49.6184 55.5525 49.6227 55.2704C49.6366 54.3651 49.6012 52.6171 49.181 51.4917C48.7648 50.3769 47.6067 49.0157 46.9661 48.3161C46.7666 48.0982 46.8529 47.7402 47.1326 47.6449L50.0496 46.6504Z" fill="#98887F"/>
<path d="M74.2433 50.1165C73.8837 50.1071 73.5755 49.8589 73.5022 49.5067C73.3151 48.608 73.0067 46.8811 73.1129 45.6911C73.2197 44.4954 73.8304 42.8841 74.1706 42.0611C74.3026 41.7415 74.6319 41.5557 74.9754 41.5952L76.8156 41.807C77.3996 41.8742 77.7238 42.5354 77.4559 43.0587C77.0321 43.8863 76.5327 45.0318 76.4491 45.9681C76.3645 46.9158 76.673 48.1466 76.9565 49.0361C77.1325 49.5884 76.7195 50.1814 76.14 50.1662L74.2433 50.1165Z" fill="#98887F"/>
<path d="M66.3244 56.9254C63.8994 58.0654 61.5309 57.1749 60.6498 56.5871C59.8258 56.6589 59.4003 56.7283 58.9527 58.4607C58.5051 60.1931 59.6783 61.8514 61.7715 63.3968C63.8647 64.9422 72.0774 64.2968 73.8096 60.527C75.5417 56.7572 72.047 55.1342 71.0841 54.7528C70.1213 54.3713 69.3557 55.5003 66.3244 56.9254Z" fill="#EF8E8E"/>
</svg>
