<svg width="138" height="133" viewBox="0 0 138 133" fill="none" xmlns="http://www.w3.org/2000/svg">
<path d="M87.7858 11.0955C87.5554 9.96339 85.9603 9.70909 85.0357 10.6571L75.998 19.9238L90.4979 24.4224L87.7858 11.0955Z" fill="#8B7A70"/>
<path d="M120.133 87.2001C120.133 119.109 97.2993 132.424 69.1328 132.424C40.9663 132.424 18.1328 119.109 18.1328 87.2001C18.1328 55.2912 40.9663 29.4238 69.1328 29.4238C97.2993 29.4238 120.133 55.2912 120.133 87.2001Z" fill="#CFB8FC"/>
<path fill-rule="evenodd" clip-rule="evenodd" d="M53.3957 45.4238C52.9183 45.4238 52.5312 45.8109 52.5312 46.2883C52.5312 46.3028 52.5316 46.3173 52.5323 46.3316V52.0809C52.5316 52.0953 52.5312 52.1097 52.5312 52.1242C52.5312 52.6017 52.9183 52.9887 53.3957 52.9887H59.4209C59.8983 52.9887 60.2854 52.6017 60.2854 52.1242C60.2854 52.1177 60.2853 52.1111 60.2852 52.1046C60.2852 52.1036 60.2852 52.1026 60.2852 52.1017V46.31C60.2852 46.3093 60.2852 46.3086 60.2852 46.3079C60.2853 46.3014 60.2854 46.2948 60.2854 46.2883C60.2854 45.8109 59.8983 45.4238 59.4209 45.4238H59.399H53.4185H53.3957ZM58.5128 47.1528H54.3047V51.2598H58.5128V47.1528Z" fill="#8B7A70"/>
<path fill-rule="evenodd" clip-rule="evenodd" d="M80.7395 45.4238C80.262 45.4238 79.875 45.8109 79.875 46.2883C79.875 46.3028 79.8754 46.3173 79.8761 46.3316V52.0809C79.8754 52.0953 79.875 52.1097 79.875 52.1242C79.875 52.6017 80.262 52.9887 80.7395 52.9887H86.7647C87.2421 52.9887 87.6291 52.6017 87.6291 52.1242C87.6291 52.1177 87.629 52.1111 87.6289 52.1046C87.6289 52.1036 87.6289 52.1026 87.6289 52.1017V46.31C87.6289 46.3093 87.6289 46.3086 87.6289 46.3079C87.629 46.3014 87.6291 46.2948 87.6291 46.2883C87.6291 45.8109 87.2421 45.4238 86.7647 45.4238H86.7427H80.7623H80.7395ZM85.8565 47.1528H81.6484V51.2598H85.8565V47.1528Z" fill="#8B7A70"/>
<rect x="60.4297" y="56.4238" width="20" height="10.4" rx="1.59243" fill="#EF8E8E"/>
<path d="M106.5 103.648C106.5 117.431 89.1914 128.424 71.2328 128.424C53.2742 128.424 31.5 117.431 31.5 103.648C31.5 89.8661 51.2954 76.4238 69.254 76.4238C87.2127 76.4238 106.5 89.8661 106.5 103.648Z" fill="#EBE1FF"/>
<path fill-rule="evenodd" clip-rule="evenodd" d="M96.9933 32.3298C96.4173 33.053 95.3491 33.5537 94.1153 33.5847C92.2414 33.6316 90.695 32.5772 90.6613 31.2295C90.6452 30.5896 90.9731 29.9986 91.5226 29.5493C91.4012 29.3069 91.3322 29.0457 91.3253 28.7725C91.2915 27.4248 92.7832 26.2942 94.657 26.2473C95.3112 26.2309 95.9254 26.3487 96.4493 26.5664C96.7698 25.4756 98.0977 24.6353 99.7078 24.5949C101.135 24.5592 102.372 25.1621 102.896 26.0468C102.977 26.0406 103.059 26.0364 103.141 26.0344C105.015 25.9874 106.562 27.0418 106.595 28.3895C106.629 29.7372 105.138 30.8678 103.264 30.9147C103.264 30.9147 103.264 30.9147 103.263 30.9147C103.263 30.9148 103.263 30.9149 103.263 30.9149C103.297 32.2626 101.806 33.3932 99.9317 33.4401C98.6971 33.4711 97.6047 33.0239 96.9933 32.3298Z" fill="#D9D9D9"/>
<path fill-rule="evenodd" clip-rule="evenodd" d="M59.8953 24.5922C61.083 25.81 63.2444 26.6245 65.7137 26.6245C69.4625 26.6245 72.5015 24.7472 72.5015 22.4314C72.5015 21.33 71.8141 20.3277 70.6897 19.5795C70.9198 19.1583 71.0445 18.7072 71.0445 18.238C71.0445 15.9222 68.0055 14.0449 64.2566 14.0449C62.9486 14.0449 61.727 14.2735 60.6908 14.6694C59.9955 12.81 57.2983 11.4238 54.0769 11.4238C51.2214 11.4238 48.7778 12.513 47.7753 14.0556C47.6143 14.0485 47.4518 14.0449 47.2879 14.0449C43.539 14.0449 40.5 15.9222 40.5 18.238C40.5 20.5538 43.539 22.4312 47.2879 22.4312C47.2883 22.4312 47.2887 22.4312 47.2891 22.4312C47.2891 22.4312 47.2891 22.4313 47.2891 22.4314C47.2891 24.7472 50.3281 26.6245 54.0769 26.6245C56.5462 26.6245 58.7076 25.81 59.8953 24.5922Z" fill="#D9D9D9"/>
<path d="M19.4218 45.9605C18.1545 45.1013 16.482 46.2809 16.9017 47.7378L22.863 68.4299C23.0367 69.0328 23.8019 69.2344 24.2635 68.799L35.5046 58.1951C35.8898 57.8317 35.8435 57.2148 35.4085 56.9144L26.11 50.4942L19.4218 45.9605Z" fill="#CFB8FC"/>
<path d="M119.324 45.9605C120.592 45.1013 122.264 46.2809 121.844 47.7378L115.883 68.4299C115.709 69.0328 114.944 69.2344 114.483 68.799L103.242 58.1951C102.856 57.8317 102.903 57.2148 103.338 56.9144L112.636 50.4942L119.324 45.9605Z" fill="#CFB8FC"/>
</svg>
