<svg width="243" height="234" viewBox="0 0 243 234" fill="none" xmlns="http://www.w3.org/2000/svg">
<path fill-rule="evenodd" clip-rule="evenodd" d="M95.449 0.75083C93.6801 -0.845231 90.848 0.254477 90.6197 2.62601L86.6873 43.484C-5.05449 89.2022 -6.21797 188.905 4.69222 233.102H243V37.0495C232.431 23.8755 177.288 18.4529 127.369 29.5526L95.449 0.75083Z" fill="#C1ABEB"/>
<path d="M151.799 152.333C147.517 157.292 138.529 169.754 130.608 176.395C146.652 171.936 163.377 129.138 177.808 145.814C192.239 162.49 172.259 188.535 159.787 197.792C187.399 181.387 190.674 155.261 180.184 143.822C169.694 132.384 160.24 142.558 151.799 152.333Z" fill="#A07BE5"/>
<path d="M131.581 127.493L138.487 121.397L157.844 143.326C158.904 144.527 158.79 146.36 157.589 147.419L156.31 148.548L155.609 149.137C155.293 149.401 155.038 149.73 154.859 150.102L153.449 153.035L131.581 127.493Z" fill="#A07BE5"/>
<ellipse cx="113.857" cy="101.036" rx="35.7396" ry="33.8335" transform="rotate(1.88817 113.857 101.036)" fill="#A07BE5"/>
<ellipse cx="113.847" cy="101.516" rx="26.209" ry="24.7794" transform="rotate(1.88817 113.847 101.516)" fill="#C1ABEB"/>
<path d="M93.7127 97.9771C93.3633 97.4278 93.5254 96.6992 94.0748 96.3498L117.211 81.6353C117.76 81.2859 118.488 81.448 118.838 81.9973L122.92 88.416C123.304 89.0189 123.067 89.8215 122.418 90.1198L110.502 95.5963C110.407 95.6397 110.319 95.6955 110.239 95.7621L98.5199 105.536L93.7127 97.9771Z" fill="#A07BE5"/>
<path d="M104.473 114.895L118.263 108.859L128.564 99.8218C129.107 99.3451 129.948 99.4653 130.336 100.075L134.012 105.855C134.361 106.404 134.199 107.133 133.65 107.482L110.514 122.196C109.964 122.546 109.236 122.384 108.886 121.834L104.473 114.895Z" fill="#A07BE5"/>
<path d="M110.516 122.194C109.967 122.543 109.238 122.381 108.889 121.831L95.0759 100.113L104.537 94.0961L108.609 104.47C108.68 104.652 108.781 104.821 108.908 104.97L118.982 116.809L110.516 122.194Z" fill="#A07BE5"/>
<ellipse cx="173.311" cy="115.721" rx="7.07365" ry="9.27268" transform="rotate(-28.4036 173.311 115.721)" fill="#A07BE5"/>
<path d="M182.428 60.3212C182.979 61.2533 182.771 61.9639 181.87 62.4967L170.529 69.203L173.726 74.6092C177.48 72.3055 181.033 69.4496 184.385 66.0414C184.964 65.5312 185.416 65.5156 185.728 66.0437L187.125 68.4051C187.474 68.9954 187.446 69.5152 187.022 69.9335C183.656 73.6016 178.754 77.2971 172.292 81.1188C171.608 81.523 171.101 81.4455 170.752 80.8551L163.843 69.1728C163.366 68.3649 163.593 67.6854 164.525 67.1342L176.207 60.2258L174.223 56.8702L162.323 63.9073C161.515 64.385 160.885 64.1705 160.371 63.3005L159.397 61.6538C158.882 60.7838 158.998 60.1284 159.806 59.6507L174.844 50.7579C175.776 50.2067 176.549 50.3787 177.063 51.2487L182.428 60.3212Z" fill="#A07BE5"/>
</svg>
