<svg width="242" height="224" viewBox="0 0 242 224" fill="none" xmlns="http://www.w3.org/2000/svg">
<path fill-rule="evenodd" clip-rule="evenodd" d="M123.999 52.5128C128.967 55.4355 134.721 62.2681 126.202 73.5044L145.35 82.5417C147.173 72.2989 145.455 51.9533 123.999 52.5128ZM89.5941 58.0504C85.118 61.602 80.4154 69.1043 90.3586 78.9866L72.797 90.4852C69.5751 80.6653 68.4237 60.4305 89.5941 58.0504Z" fill="#98887F"/>
<path d="M191 154.766C191 202.629 156.371 222.602 113.653 222.602C54.9373 222.602 38 199.802 38 151.939C38 104.075 70.9356 68.1016 113.653 68.1016C156.371 68.1016 191 106.903 191 154.766Z" fill="#BFD6F7"/>
<path d="M172.519 177.176C173.532 196.138 146.735 212.738 118.553 214.244C90.3717 215.751 61.1925 202.143 60.1789 183.181C59.1653 164.219 86.4742 142.839 114.656 141.333C142.837 139.826 171.505 158.214 172.519 177.176Z" fill="#EDF3FD"/>
<path d="M103.5 116.973C103.587 117.849 107.486 119.923 116.927 119.014C125.424 118.195 129.208 115.391 129.121 114.515C129.034 113.639 123.234 115.406 116.455 116.058C109.677 116.711 103.413 116.098 103.5 116.973Z" fill="#D39898"/>
<path d="M109.408 97.1156C110.015 102.926 105.174 108.475 98.1774 109.19C91.1803 109.905 85.2952 105.452 84.6884 99.6415C84.392 96.8039 85.4436 94.8473 87.3902 93.4305C89.436 91.9415 92.5304 91.0219 96.2403 90.6428C99.9502 90.2638 103.169 90.5382 105.48 91.5821C107.678 92.5753 109.112 94.2779 109.408 97.1156Z" stroke="#649CED" stroke-width="3"/>
<path d="M143.053 93.682C143.659 99.4921 138.819 105.042 131.822 105.757C124.825 106.472 118.94 102.018 118.333 96.208C118.037 93.3703 119.088 91.4137 121.035 89.9969C123.081 88.5079 126.175 87.5883 129.885 87.2092C133.595 86.8302 136.814 87.1046 139.124 88.1485C141.322 89.1417 142.756 90.8443 143.053 93.682Z" stroke="#649CED" stroke-width="3"/>
<rect x="0.540563" y="0.439329" width="6.97266" height="0.98401" transform="matrix(0.99482 -0.101654 0.103875 0.99459 108.733 95.8269)" fill="#2AD4AF" stroke="#649CED" stroke-width="0.98401"/>
<ellipse cx="131.972" cy="96.9689" rx="3.87224" ry="3.0978" fill="#706660"/>
<ellipse cx="96.3469" cy="100.063" rx="3.87224" ry="3.0978" fill="#706660"/>
<path d="M207.922 110.022C209.761 108.248 208.217 105.21 205.676 105.605L177.965 109.916C173.276 110.645 170.795 115.797 173.205 119.8L178.947 129.337C181.3 133.245 186.892 133.663 189.86 130.154L202.31 115.436L207.922 110.022Z" fill="#BFD6F7"/>
<path d="M100.331 156.408L88.8653 148.645L96.8965 143.017L100.331 156.408Z" fill="#FBE8CC"/>
<path d="M100.33 156.407L94.5978 152.525C94.5978 152.525 96.2447 152.359 97.0712 151.78C97.8977 151.2 98.6134 149.712 98.6134 149.712L100.33 156.407Z" fill="#5F6368"/>
<path d="M67.4501 118.24L69.196 115.042L71.873 113.166L75.4813 112.612L96.8992 143.021L95.1534 146.219L92.4763 148.095L88.8681 148.649L67.4501 118.24Z" fill="#EF5252"/>
<rect width="3.26891" height="40.4285" transform="matrix(0.818945 -0.573872 0.575841 0.817562 69.1909 115.039)" fill="#F48181"/>
<rect x="194.147" y="78.2344" width="21.6039" height="30.2454" rx="2.70048" transform="rotate(26.691 194.147 78.2344)" fill="#2AD4AF"/>
<rect x="224.783" y="93.23" width="21.6038" height="30.2454" rx="2.70048" transform="rotate(68.569 224.783 93.23)" fill="#A07BE5"/>
<rect x="209.677" y="77.0273" width="21.6038" height="30.2454" rx="2.70048" transform="rotate(35.5823 209.677 77.0273)" fill="#FFB440"/>
<path d="M86.8983 137.165C89.0276 136.274 88.7232 133.212 86.4557 132.712L61.7231 127.261C57.5383 126.338 53.7623 129.861 54.479 134.019L56.1867 143.927C56.8863 147.986 61.455 150.17 65.1029 148.19L80.4023 139.883L86.8983 137.165Z" fill="#92B9F2"/>
<path d="M53.8539 26.6205C54.4592 26.3287 54.9132 26.6072 55.2445 27.4422C57.3591 33.5986 58.2591 38.6353 57.8729 42.5513C57.4868 46.4673 57.1406 48.6234 56.8631 49.0058C56.5995 49.417 56.0785 49.8102 55.2714 50.1992L53.2823 51.1578C52.5905 51.4913 52.1174 51.5416 51.8781 51.2662C51.5961 50.9759 51.5447 50.5744 51.8093 50.0916C53.5618 44.7357 53.4988 39.2245 51.5916 33.572C51.4131 33.0541 51.1151 32.8781 50.6538 33.1004L39.815 38.3242C39.152 38.6437 38.682 38.4794 38.3764 37.8453L37.39 35.7986C37.0704 35.1355 37.2208 34.6368 37.8838 34.3172L53.8539 26.6205Z" fill="#F9BC5F"/>
<path d="M124.286 28.2613C124.13 28.8159 123.736 29.0375 123.085 28.9879C116.868 28.6396 111.317 27.8134 106.378 26.4613C105.639 26.2538 105.364 25.8112 105.554 25.1333L111.086 5.41463C111.294 4.67517 111.86 4.4351 112.846 4.7117L115.033 5.32541C115.896 5.56743 116.206 6.11979 115.973 6.95168L111.513 22.8499C114.857 23.7218 119.097 24.2466 124.246 24.4944C124.958 24.5614 125.245 24.8413 125.107 25.3343L124.286 28.2613Z" fill="#7FE6CF"/>
<path d="M187.292 43.16C187.369 43.6661 187.165 44.0212 186.673 44.1934C181.002 46.4849 175.731 48.003 170.796 48.7576C169.974 48.8833 169.505 48.5666 169.384 47.7758L166.332 27.8158C166.201 26.9617 166.608 26.4463 167.62 26.2915L183.215 23.907C183.974 23.791 184.458 24.2026 184.598 25.1199L184.874 26.9229C185.019 27.8719 184.675 28.3776 183.916 28.4937L171.769 30.351L173.738 43.2254C177.281 42.6837 181.328 41.4174 185.943 39.417C186.429 39.213 186.711 39.3641 186.784 39.8386L187.292 43.16Z" fill="#BFA5ED"/>
</svg>
