<svg width="114" height="133" viewBox="0 0 114 133" fill="none" xmlns="http://www.w3.org/2000/svg">
<path d="M75.2858 11.0955C75.0554 9.96339 73.4603 9.70909 72.5357 10.6571L63.498 19.9238L77.9979 24.4224L75.2858 11.0955Z" fill="#8B7A70"/>
<path d="M107.633 87.2001C107.633 119.109 84.7993 132.424 56.6328 132.424C28.4663 132.424 5.63281 119.109 5.63281 87.2001C5.63281 55.2912 28.4663 29.4238 56.6328 29.4238C84.7993 29.4238 107.633 55.2912 107.633 87.2001Z" fill="#CFB8FC"/>
<path fill-rule="evenodd" clip-rule="evenodd" d="M40.8957 45.4238C40.4183 45.4238 40.0312 45.8109 40.0312 46.2883C40.0312 46.3028 40.0316 46.3173 40.0323 46.3316V52.0809C40.0316 52.0953 40.0312 52.1097 40.0312 52.1242C40.0312 52.6017 40.4183 52.9887 40.8957 52.9887H46.9209C47.3983 52.9887 47.7854 52.6017 47.7854 52.1242C47.7854 52.1177 47.7853 52.1111 47.7852 52.1046C47.7852 52.1036 47.7852 52.1026 47.7852 52.1017V46.31C47.7852 46.3093 47.7852 46.3086 47.7852 46.3079C47.7853 46.3014 47.7854 46.2948 47.7854 46.2883C47.7854 45.8109 47.3983 45.4238 46.9209 45.4238H46.899H40.9185H40.8957ZM46.0128 47.1528H41.8047V51.2598H46.0128V47.1528Z" fill="#8B7A70"/>
<path fill-rule="evenodd" clip-rule="evenodd" d="M68.2395 45.4238C67.762 45.4238 67.375 45.8109 67.375 46.2883C67.375 46.3028 67.3754 46.3173 67.3761 46.3316V52.0809C67.3754 52.0953 67.375 52.1097 67.375 52.1242C67.375 52.6017 67.762 52.9887 68.2395 52.9887H74.2647C74.7421 52.9887 75.1291 52.6017 75.1291 52.1242C75.1291 52.1177 75.129 52.1111 75.1289 52.1046C75.1289 52.1036 75.1289 52.1026 75.1289 52.1017V46.31C75.1289 46.3093 75.1289 46.3086 75.1289 46.3079C75.129 46.3014 75.1291 46.2948 75.1291 46.2883C75.1291 45.8109 74.7421 45.4238 74.2647 45.4238H74.2427H68.2623H68.2395ZM73.3565 47.1528H69.1484V51.2598H73.3565V47.1528Z" fill="#8B7A70"/>
<rect x="47.9297" y="56.4238" width="20" height="10.4" rx="1.59243" fill="#EF8E8E"/>
<path d="M94 103.648C94 117.431 76.6914 128.424 58.7328 128.424C40.7742 128.424 19 117.431 19 103.648C19 89.8661 38.7954 76.4238 56.754 76.4238C74.7127 76.4238 94 89.8661 94 103.648Z" fill="#EBE1FF"/>
<path fill-rule="evenodd" clip-rule="evenodd" d="M84.4933 32.3288C83.9173 33.052 82.8491 33.5528 81.6153 33.5837C79.7414 33.6306 78.195 32.5762 78.1613 31.2285C78.1452 30.5886 78.4731 29.9976 79.0226 29.5484C78.9012 29.306 78.8322 29.0447 78.8253 28.7715C78.7915 27.4238 80.2832 26.2932 82.157 26.2463C82.8112 26.2299 83.4254 26.3477 83.9493 26.5654C84.2698 25.4747 85.5977 24.6343 87.2078 24.5939C88.6348 24.5582 89.8718 25.1611 90.3957 26.0459C90.4768 26.0396 90.5587 26.0355 90.6414 26.0334C92.5153 25.9864 94.0617 27.0409 94.0954 28.3885C94.1292 29.7362 92.6376 30.8668 90.7637 30.9138C90.7636 30.9138 90.7635 30.9138 90.7634 30.9138C90.7634 30.9138 90.7634 30.9139 90.7634 30.9139C90.7972 32.2616 89.3055 33.3922 87.4317 33.4391C86.1971 33.4701 85.1047 33.0229 84.4933 32.3288Z" fill="#D9D9D9"/>
<path fill-rule="evenodd" clip-rule="evenodd" d="M47.3953 24.5922C48.583 25.81 50.7444 26.6245 53.2137 26.6245C56.9625 26.6245 60.0015 24.7472 60.0015 22.4314C60.0015 21.33 59.3141 20.3277 58.1897 19.5795C58.4198 19.1583 58.5445 18.7072 58.5445 18.238C58.5445 15.9222 55.5055 14.0449 51.7566 14.0449C50.4486 14.0449 49.227 14.2735 48.1908 14.6694C47.4955 12.81 44.7983 11.4238 41.5769 11.4238C38.7214 11.4238 36.2778 12.513 35.2753 14.0556C35.1143 14.0485 34.9518 14.0449 34.7879 14.0449C31.039 14.0449 28 15.9222 28 18.238C28 20.5538 31.039 22.4312 34.7879 22.4312C34.7883 22.4312 34.7887 22.4312 34.7891 22.4312C34.7891 22.4312 34.7891 22.4313 34.7891 22.4314C34.7891 24.7472 37.8281 26.6245 41.5769 26.6245C44.0462 26.6245 46.2076 25.81 47.3953 24.5922Z" fill="#D9D9D9"/>
<path d="M6.92184 45.9605C5.65447 45.1013 3.98201 46.2809 4.40174 47.7378L10.363 68.4299C10.5367 69.0328 11.3019 69.2344 11.7635 68.799L23.0046 58.1951C23.3898 57.8317 23.3435 57.2148 22.9085 56.9144L13.61 50.4942L6.92184 45.9605Z" fill="#CFB8FC"/>
<path d="M106.824 45.9605C108.092 45.1013 109.764 46.2809 109.344 47.7378L103.383 68.4299C103.209 69.0328 102.444 69.2344 101.983 68.799L90.7415 58.1951C90.3563 57.8317 90.4026 57.2148 90.8376 56.9144L100.136 50.4942L106.824 45.9605Z" fill="#CFB8FC"/>
</svg>
