<svg width="717" height="372" viewBox="0 0 717 372" fill="none" xmlns="http://www.w3.org/2000/svg">
<rect width="716.09" height="370" transform="translate(0 1)" fill="#441022"/>
<path d="M275.5 252.5C189.1 254.5 126.833 267.667 106.5 274V369.5H692.5V286.5C686.333 282.333 662.6 271.9 617 263.5C560 253 383.5 250 275.5 252.5Z" fill="#FF9510"/>
<ellipse cx="276.5" cy="269.5" rx="16.5" ry="3.5" fill="#F26C0C"/>
<path d="M225 292C200.2 293.6 180.333 311.667 173.5 320.5C155.667 317.334 119.7 310.8 118.5 310C117 309 105.5 285.5 114.5 285.5C123.5 285.5 153 277.5 202 274.5C251 271.5 259 278.5 264.5 285.5C270 292.5 256 290 225 292Z" fill="#FEAF09"/>
<path d="M213 328.5C212 321.5 239 321 242.5 321V328.5C255.333 332.833 283.1 342 291.5 344C299.9 346 358 347.167 386 347.5L495 304.5C501.834 304.833 516.2 306.5 519 310.5C522.5 315.5 514 313.5 499.5 321C485 328.5 486 331.5 491.5 336.5C497 341.5 474 343 455 344C436 345 435 353.5 417 354C399 354.5 392 355.5 368.5 360C345 364.5 328.5 367 311 363.5C293.5 360 286.5 360.5 264 360C241.5 359.5 229 357 234 351C239 345 214 335.5 213 328.5Z" fill="#FEAF09"/>
<path d="M320.466 77.699C325.799 75.699 372.335 58.4788 394 67.4984C418.5 77.6981 438.5 78.1993 461 99C473.44 110.501 483.1 170.2 473.5 179C463.9 187.8 451 242 451 242L398.849 230.812C366.075 226.806 325.427 221.815 299.5 209.5C259.116 190.317 265.246 147.2 267.466 133.698C272.266 104.499 285.466 91.5319 291.466 88.6984L320.466 77.699Z" fill="#4D1846"/>
<path d="M241.5 310L282.5 294.5H440.5H495.5C496.833 300.833 497.3 314.6 488.5 319C479.7 323.4 438.167 342.167 418.5 351C393.667 353.667 340.4 359 326 359C311.6 359 278.333 353.667 263.5 351L237.5 335L241.5 310Z" fill="#551018"/>
<path d="M666.5 280.5L596.5 261.5L604 230.5C608 223.333 616.5 208 618.5 204C620.5 200 642.667 196.333 653.5 195C657.833 193.5 667.2 189.1 670 183.5C673.5 176.5 687 164.5 692 158.5C696 153.7 707.333 156.5 712.5 158.5L697 240L666.5 280.5Z" fill="#A81B26"/>
<path d="M205 70.0007C193.4 49.6007 179.833 48.5007 174.5 50.5007L145.5 61.5C139.5 64.3336 126.3 77.3005 121.5 106.5C116.7 135.699 150.167 187.333 167.5 209.5C176 199.333 195.4 176.8 205 168C214.6 159.2 219.667 132 221 119.5C220.5 111.5 216.6 90.4007 205 70.0007Z" fill="#4D1846"/>
<path d="M609.966 73.7006C598.366 53.3006 568.799 60.7009 563.466 62.7009L534.466 73.7002C528.466 76.5338 515.266 89.5007 510.466 118.7C505.666 147.9 539.133 199.533 556.466 221.7C564.966 211.534 584.366 189 593.966 180.2C603.566 171.4 626.667 165 628 152.5C650.034 152.5 621.566 94.1006 609.966 73.7006Z" fill="#4D1846"/>
<path d="M576.5 153.5C582.1 133.9 604.5 120.667 615 116.5V122L621 128L647 130H661.5L670 153.5V183L647 190H615C612 192.5 604.1 200.7 596.5 213.5C588.9 226.3 590 250.833 591.5 261.5H556L505.5 254H450V242H474.5C477.333 236.167 483.3 224.5 484.5 224.5C486 224.5 499 239.5 505.5 224.5C512 209.5 524 191.5 528 190C537.393 186.478 553.167 202.667 556 208.5C560.5 198.333 570.9 173.1 576.5 153.5Z" fill="#880633"/>
<path d="M194 55C196.667 58.8333 203.2 68.8 208 78C222.311 101.374 219.139 129.906 218.5 138L221 122.5V101L218.5 85.5L194 55Z" fill="#611C3B"/>
<path d="M527 79.5C524.333 83.3333 522.948 89 520.5 93C506.189 116.374 512.861 140.905 513.5 148.999L511 133.499V111.999L513.5 96.4992L527 79.5Z" fill="#611C3B"/>
<path d="M300 79.5L286.5 91.5L311.5 81L328.5 75H318L300 79.5Z" fill="#611C3B"/>
<path d="M443.631 80.2269L423 77.0003L443.631 85.5L463.597 101.057L457.602 92.436L443.631 80.2269Z" fill="#611C3B"/>
<path d="M213.5 139C207.5 122.2 178.333 119.667 164.5 120.5L155.5 114C152.833 114.333 146 118.56 146 124C146 128 145.667 127.5 143 131L151.5 148.5H128L94.5 147C102 158 92.6 182.2 101 195C109.4 207.8 144.5 257 160.5 262.5L219 258.5L248 253C257.333 252.667 277.3 252.2 282.5 253C287.7 253.8 300.333 257 306 258.5C303.333 233.833 295.9 182.4 287.5 174C279.1 165.6 272.667 157.833 270.5 155C266.5 155.333 257.5 157.9 253.5 165.5C249.5 173.1 240.5 174.333 236.5 174C231.333 169.333 219.5 155.8 213.5 139Z" fill="#8D061E"/>
<path d="M128 177C130.761 179.761 114.833 159.333 111 151.5L94 146.5L75.0004 153.5C74.6671 159.833 75.1996 178 75.9996 180C76.7996 182 87.1666 198.167 85.4999 207.5L111 271.5H130H145L166.5 261.5L145 247L119.5 204L111 172.5L103.5 159L97 153.5L107 155.5C113.833 161.833 125 174 128 177Z" fill="#3B0631"/>
<path d="M266.5 324.5L241.5 310L236.5 335L263 351.5L313.5 359.5H335.5L418 351.5L491.5 317.5L496.5 309.5V294L482 305.5L414.5 337.5L337 342L317 337.5L266.5 324.5Z" fill="#B91823"/>
<path d="M224 242.999C217.5 234.999 216.5 239.499 209.5 219.499C207.299 213.498 200 202 196.5 190C193.7 180.4 195.333 166.333 196.5 160.5C196.5 150.5 195.166 143 194.5 140.5C193 135 190 135.499 179.5 131.499C169 127.499 164 119.999 166 122.499C168 124.999 185.5 131.499 193 135.499C200.5 139.499 196.5 152.999 202 181.999C207.5 210.999 209.5 210.999 217.5 228.499C225.5 245.999 224 230.999 235.5 242.999C244.7 252.599 250.333 255.999 252 256.499L224 261.499C226.167 257.999 229.2 249.399 224 242.999Z" fill="#FF9510"/>
<mask id="mask0_4058_28166" style="mask-type:alpha" maskUnits="userSpaceOnUse" x="272" y="97" width="188" height="224">
<path d="M460 233.654C460 285.784 417.915 321 366 321C314.085 321 272 285.784 272 233.654C272 181.524 314.085 97 366 97C417.915 97 460 181.524 460 233.654Z" fill="url(#paint0_linear_4058_28166)"/>
</mask>
<g mask="url(#mask0_4058_28166)">
<path d="M460 233.654C460 285.784 417.915 321 366 321C314.085 321 272 285.784 272 233.654C272 181.524 314.085 97 366 97C417.915 97 460 181.524 460 233.654Z" fill="url(#paint1_linear_4058_28166)"/>
<path d="M439.525 188.672C440.401 207.706 428.824 233.711 413.101 234.435C397.377 235.158 383.461 210.325 382.586 191.292C381.71 172.258 393.746 156.242 409.47 155.518C425.193 154.795 438.65 169.638 439.525 188.672Z" fill="#92B9F2"/>
<path d="M289.681 258.874C308.614 261.013 332.467 276.548 330.7 292.189C328.933 307.83 302.215 317.652 283.282 315.513C264.349 313.375 250.432 298.961 252.199 283.321C253.966 267.68 270.747 256.735 289.681 258.874Z" fill="#92B9F2"/>
<path d="M309.161 162.947C307.38 149.469 317.65 129.797 333.254 127.734C348.858 125.672 363.888 141.999 365.67 155.477C367.452 168.955 356.246 181.553 340.642 183.616C325.037 185.679 310.943 176.425 309.161 162.947Z" fill="#92B9F2"/>
<path d="M378.244 128.504C367.864 119.212 359.972 100.13 367.339 91.9008C374.705 83.6711 394.541 89.4096 404.922 98.702C415.303 107.994 417.746 122.199 410.379 130.428C403.013 138.658 388.625 137.797 378.244 128.504Z" fill="#92B9F2"/>
<path d="M411.505 270.405C412.86 286.155 401.137 308.354 384.442 309.791C367.748 311.228 352.403 291.359 351.048 275.609C349.692 259.86 360.924 239.091 377.619 237.654C394.313 236.217 410.149 254.656 411.505 270.405Z" fill="#92B9F2"/>
<path d="M448.639 294.985C435.52 286.165 429.347 257.51 443.343 236.693C457.339 215.875 486.206 210.779 499.324 219.599C512.443 228.42 517.98 255.543 503.984 276.36C489.988 297.178 461.758 303.806 448.639 294.985Z" fill="#92B9F2"/>
<path d="M223.639 240.985C210.52 232.165 204.347 203.51 218.343 182.693C232.339 161.875 261.206 156.779 274.324 165.599C287.443 174.42 292.98 201.543 278.984 222.36C264.988 243.178 236.758 249.806 223.639 240.985Z" fill="#92B9F2"/>
<path d="M317.786 199.115C331.822 197.354 344.025 207.209 345.76 221.036C347.495 234.863 338.104 247.426 324.068 249.188C310.032 250.949 298.876 240.963 297.141 227.136C295.406 213.309 303.75 200.877 317.786 199.115Z" fill="#92B9F2"/>
</g>
<path d="M460 233.654C460 285.784 417.915 321 366 321C314.085 321 272 285.784 272 233.654C272 181.524 314.085 97 366 97C417.915 97 460 181.524 460 233.654Z" fill="url(#paint2_linear_4058_28166)" style="mix-blend-mode:plus-lighter"/>
<path d="M166 237C162 231 164.333 217.5 166 211.5C168.334 216.833 173 228.4 173 232C173 235.6 181.334 241.833 185.5 244.5L208 259.5L189 260.5C183.167 255.333 170 243 166 237Z" fill="#63072F"/>
<path d="M163 165C163.8 168.2 165.667 186 166.5 194.5L168 173L164.5 150.5L154.5 138.5C152.5 134.667 148.5 126.5 148.5 124.5C148.5 122.5 149.5 118.667 150 117L146 121.5C146 122.5 145.9 125 145.5 127C145.1 129 143.667 129.833 143 130L152 148L159.5 155C160.333 157 162.2 161.8 163 165Z" fill="#710819"/>
<path d="M178.5 305C177.3 301 173.333 286.333 171 279C169 280 161.8 291.4 153 299C142 308.5 126.5 297 120.5 289.5C115.7 283.5 109.833 263.333 107.5 254L114 286.5C117.667 292.667 132.435 314.032 147.5 306.5C164.5 298 168.211 279.422 170 283C171 285 175 309 176 311C177 313 192.5 346.5 190.5 339.5C188.5 332.5 180 310 178.5 305Z" fill="#B40600"/>
<path d="M103.188 224.013C103.174 223.748 103.147 223.456 103.105 223.141C102.069 217.716 91.5635 214.889 89.1876 212.513C87.1876 210.513 79.3544 208.013 75.6879 207.013C72.5212 199.513 68.0005 180.999 71.5 190.499C75.4448 201.209 85.6879 206.513 94.1879 210.513C100.42 213.446 102.648 219.682 103.105 223.141C103.16 223.424 103.188 223.715 103.188 224.013Z" fill="#B40600"/>
<path d="M253.5 185C248.7 178.2 241.167 176.5 238 176.5L236 175.5C235.2 175.1 233 171.333 232 169.5C232.5 170.333 234.2 172.3 237 173.5C240.5 175 244.5 172.5 246 172C247.5 171.5 250.5 170 252 167.5C254.4 162.3 258.667 159.333 260.5 158.5C258 160 258 162.5 255.5 167.5C253 172.5 258.5 174 261 185C263 193.8 265.833 199.333 267 201C264.5 198.5 258.3 191.8 253.5 185Z" fill="#63072F"/>
<path d="M467 248C471 246.5 471.5 243.5 474.5 241.5V246.5L468.5 252.5C466.667 251.5 463.8 249.2 467 248Z" fill="#710819"/>
<path d="M561.5 236L549 247L563 253L581 261.5L591 253L589.5 232H577.5L561.5 236Z" fill="#710819"/>
<path d="M526 203.5L521.5 238L512 236.5L499 234L496.5 231L503.5 228L514.5 205L522 196L526 203.5Z" fill="#710819"/>
<path d="M497 242C492.6 241.2 486.5 230.667 484 225.5C484 224 485.5 224 488 226.5C490 228.5 494.833 230.334 497 231C497 232.334 499.5 235.1 509.5 235.5C522 236 582.5 256.5 554 250C525.5 243.5 502.5 243 497 242Z" fill="#A81B26"/>
<path d="M536.5 189L528 190V200L535.5 207L538.5 218.5L543 222L565 223C568.833 225.833 576.6 231.6 577 232C577.4 232.4 585.5 232.833 589.5 233V227.5L593 217.5H584L570 216L556 208L546.5 192L536.5 189Z" fill="#A81B26"/>
<path d="M637 208.5L618.5 202L657 194L668 197L708.5 199L705 211.5L668 208.5H637Z" fill="#D62727"/>
<path d="M606.5 179L614.5 188.5L648 190L629.5 183L603 173L582 169L606.5 179Z" fill="#A81B26"/>
<path d="M682 177.5C680.8 178.7 675.833 178 673.5 177.5L676.5 172H679C681.833 172.5 687.9 173.5 689.5 173.5C691.5 173.5 698 172 699 172C699.8 172 693 175.667 689.5 177.5C687.5 177 683.2 176.3 682 177.5Z" fill="#D62727"/>
<path d="M620 127.5C614.8 125.1 613.833 120.5 614 118.5L620 125H626.5H659L676 131C679.167 132.667 687.4 136 695 136H711.5V145.5L705.5 156H695L687.5 163.5L676 175L671 183C669.167 185 664.7 189.6 661.5 192C658.3 194.4 657.167 194.667 657 194.5L640 197L620 202.5L605 228C602.667 234.167 599.2 247.8 600 255C600.8 262.2 610.667 267.5 616 269C603.667 267.333 579.4 263.5 581 261.5C583 259 588.5 253.5 588.5 250.5V232C588.5 228 591.5 221.333 593 218.5C599.334 209.333 612.4 190.6 614 189C615.6 187.4 632 188.333 640 189C644.334 188.5 654.7 186.6 661.5 183C670 178.5 666 178 668 170C669.6 163.6 668.667 155.667 668 152.5L661.5 131L653 129.5H635C633.5 129.5 626.5 130.5 620 127.5Z" fill="#FF9510"/>
<path d="M615.5 190C616.167 192.833 617.5 198.9 617.5 200.5L638 195L655 193L647.5 190H641L622.5 189L615.5 190Z" fill="#FFFA47"/>
<path d="M226.5 243.5L224 241L222.5 240L228.5 239L231.5 241L226.5 243.5Z" fill="#FEFC12"/>
<path d="M670.5 157C670.167 160.667 669.4 168.8 669 172L675.5 162L680 167L692 155L703 150.5C700.333 149.667 694.8 148 694 148H687L680 139.5H674L664 132L670.5 157Z" fill="#FFFA47"/>
<path d="M196.5 174C195.3 182.4 197.667 191.5 199 195L200 189C200.833 189.5 202.6 190.6 203 191C202.2 189.4 200 178 199 172.5V179.5C198.667 178.833 197.7 176.8 196.5 174Z" fill="#FEFC12"/>
<path d="M463 285.001C442.2 284.201 452.667 277.001 460.5 273.501C466.5 270.818 473.6 264.401 488 266.001C506 268.001 532 273.501 563.5 273.501C595 273.501 609 285.001 654.5 289.001C690.9 292.201 658 315.334 637 326.501C620.667 326.334 582.3 324.801 559.5 320.001C531 314.001 553 301.001 529 289.001C505 277.001 489 286.001 463 285.001Z" fill="#FEAD0A"/>
<path d="M39.4999 69.5C37.0999 96.3 62.8332 169.667 75.9999 203C83 206 98.0002 213.7 102 220.5C107 229 105.5 288.5 133.5 301C161.5 313.5 171.5 270 171.5 282.5C171.5 292.5 192.5 346 203 371.5H0.500244V0H716.5V371.5H528.5C532.334 361.333 541.9 342.8 549.5 350L549.66 350.151C559.085 359.083 566.652 366.253 593.5 322.5C620.5 278.5 665 305 692 220.5C719 136 697.5 37 692 37C687.6 37 681.5 43.3333 679 46.5C678.334 37.6667 670.2 20 643 20C609 20 587.5 37 579.5 52.5C571.5 68 534 123 540 103C546 83 529.5 46.5 513.5 29C497.5 11.5 479.5 24.5 428.5 37C377.5 49.5 332.5 29 324.5 29C316.5 29 317.5 44 311.5 46.5C305.5 49 257 20 243.5 20C230 20 203 39.5 171.5 37C146.3 35 103.667 24.8333 85.5002 20C71.1668 25.3333 41.8999 42.7 39.4999 69.5Z" fill="#1C1C1C"/>
<ellipse cx="533" cy="331" rx="16" ry="4" fill="#F26C0C"/>
<ellipse cx="513" cy="341" rx="7" ry="2" fill="#F26C0C"/>
<ellipse cx="234" cy="303" rx="7" ry="2" fill="#F26C0C"/>
<ellipse cx="211" cy="309" rx="13" ry="4" fill="#F26C0C"/>
<path d="M549.922 258.546C549.077 260.29 545.873 262.72 545.316 262.45C544.759 262.181 544.494 258.072 545.338 256.327C546.183 254.582 547.266 252.811 549.466 253.876C551.667 254.942 550.766 256.801 549.922 258.546Z" fill="#FFFA47"/>
<path d="M628.975 235.585C628.811 237.516 627.062 240.963 626.572 240.922C626.083 240.88 624.78 237.173 624.945 235.242C625.109 233.311 625.445 231.266 627.38 231.43C629.315 231.595 629.14 233.654 628.975 235.585Z" fill="#FFFA47"/>
<path d="M185.626 184.315C187.191 184.468 189.944 186.193 189.896 186.682C189.848 187.171 186.799 188.494 185.233 188.341C183.668 188.188 182.016 187.864 182.204 185.932C182.393 183.999 184.061 184.162 185.626 184.315Z" fill="#FFFA47"/>
<path d="M254.251 239.139C255.309 240.024 256.432 242.656 256.15 242.993C255.867 243.329 252.987 242.797 251.929 241.912C250.872 241.026 249.837 239.971 250.951 238.64C252.066 237.309 253.193 238.253 254.251 239.139Z" fill="#FFFA47"/>
<path d="M644.672 173.548C643.498 174.186 640.948 174.665 640.82 174.428C640.691 174.191 642.438 172.234 643.611 171.597C644.785 170.959 646.079 170.357 646.587 171.294C647.096 172.231 645.845 172.91 644.672 173.548Z" fill="#FFFA47"/>
<circle cx="1" cy="1" r="1" transform="matrix(1 0 0 -1 255 227)" fill="#FF9510"/>
<circle cx="1" cy="1" r="1" transform="matrix(1 0 0 -1 182 119)" fill="#FF9510"/>
<circle cx="1" cy="1" r="1" transform="matrix(1 0 0 -1 188 178)" fill="#FF9510"/>
<circle cx="1" cy="1" r="1" transform="matrix(1 0 0 -1 636 244)" fill="#FF9510"/>
<circle cx="1" cy="1" r="1" transform="matrix(1 0 0 -1 573 206)" fill="#FF9510"/>
<circle cx="1" cy="1" r="1" transform="matrix(1 0 0 -1 468 231)" fill="#FF9510"/>
<circle cx="1" cy="1" r="1" transform="matrix(1 0 0 -1 534 253)" fill="#FF9510"/>
<defs>
<linearGradient id="paint0_linear_4058_28166" x1="366" y1="222.5" x2="366" y2="372.5" gradientUnits="userSpaceOnUse">
<stop stop-color="#BFD6F7"/>
<stop offset="1" stop-color="#FF9510"/>
</linearGradient>
<linearGradient id="paint1_linear_4058_28166" x1="366" y1="222.5" x2="366" y2="372.5" gradientUnits="userSpaceOnUse">
<stop stop-color="#BFD6F7"/>
<stop offset="1" stop-color="#FF9510"/>
</linearGradient>
<linearGradient id="paint2_linear_4058_28166" x1="366" y1="222.5" x2="366" y2="372.5" gradientUnits="userSpaceOnUse">
<stop stop-color="#BFD6F7" stop-opacity="0"/>
<stop offset="1" stop-color="#B06200" stop-opacity="0.3"/>
</linearGradient>
</defs>
</svg>
