<svg width="141" height="132" viewBox="0 0 141 132" fill="none" xmlns="http://www.w3.org/2000/svg">
<path d="M49.6175 19.1039C49.8154 17.7222 51.4824 17.1496 52.3364 18.17L61.9554 29.6625L46.6968 39.4949L49.6175 19.1039Z" fill="#8B7A70"/>
<path fill-rule="evenodd" clip-rule="evenodd" d="M66.744 132C94.9105 132 117.744 118.685 117.744 86.7763C117.744 81.8048 117.19 76.9799 116.147 72.3767L127.467 59.2241C128.395 58.1454 127.747 56.4838 126.419 56.5372L110.551 57.1751C101.647 40.2997 85.3602 29 66.744 29C41.6691 29 20.8208 49.5004 16.5461 76.5136L4.85653 87.7741C3.11595 89.4508 4.20925 92.3867 6.50997 92.2143L15.9195 91.509C18.0843 120.007 40.0124 132 66.744 132Z" fill="#CFB8FC"/>
<path d="M106.942 102.085C106.942 115.5 88.9025 126.2 70.1852 126.2C51.468 126.2 31.7422 121.441 31.7422 108.026C31.7422 94.6119 55.0088 75 73.726 75C92.4433 75 106.942 88.6706 106.942 102.085Z" fill="#EBE1FF"/>
<path d="M45.0947 46.8725C45.0424 46.6549 45.1669 46.4435 45.3727 46.4003L54.042 44.5802C54.2478 44.537 54.4571 44.6784 54.5094 44.8959L55.1206 47.4381C55.178 47.6769 55.0229 47.9026 54.7914 47.9173L50.5404 48.187C50.5067 48.1891 50.4736 48.1959 50.4421 48.2072L45.8145 49.866L45.0947 46.8725Z" fill="#8B7A70"/>
<path d="M46.707 53.5703L51.5959 53.3542L55.7089 51.7544C55.9259 51.67 56.1741 51.8118 56.2322 52.0535L56.7826 54.3424C56.8349 54.5599 56.7104 54.7713 56.5046 54.8146L47.8353 56.6346C47.6295 56.6778 47.4202 56.5365 47.3679 56.3189L46.707 53.5703Z" fill="#8B7A70"/>
<path d="M47.8337 56.6366C47.6278 56.6798 47.4185 56.5385 47.3662 56.3209L45.2981 47.7192L48.8431 46.975L49.0482 50.7722C49.0518 50.8388 49.066 50.9049 49.0901 50.9678L51.006 55.9706L47.8337 56.6366Z" fill="#8B7A70"/>
<ellipse cx="2.61538" cy="3.42844" rx="2.61538" ry="3.42844" transform="matrix(0.962569 -0.127693 0.173294 1.01347 65.3398 58.5703)" fill="#EF8E8E"/>
<path d="M78.8072 45.954C78.8913 46.3575 78.7393 46.5791 78.3696 46.6435L73.7164 47.4542L74.2041 49.7946C75.7538 49.4967 77.2969 48.977 78.8334 48.2354C79.0899 48.135 79.247 48.1913 79.2946 48.4199L79.5077 49.4422C79.5609 49.6977 79.4926 49.8769 79.2998 49.9662C77.7291 50.7974 75.6279 51.4283 72.9762 51.8903C72.6957 51.9391 72.5303 51.8425 72.477 51.5869L71.4231 46.5295C71.3502 46.1798 71.505 45.9716 71.8874 45.905L76.6809 45.0699L76.3781 43.6172L71.4955 44.4678C71.164 44.5256 70.9718 44.3639 70.8933 43.9873L70.7447 43.2744C70.6662 42.8978 70.78 42.6828 71.1114 42.6251L77.2817 41.5502C77.6642 41.4836 77.9102 41.6498 77.9887 42.0264L78.8072 45.954Z" fill="#8B7A70"/>
<path d="M122.154 50.0769L125.418 50.5611L122.607 67.6514C122.516 68.2044 121.982 68.5528 121.438 68.414L119.806 67.9971C119.296 67.8669 118.967 67.3548 119.063 66.8384L122.154 50.0769Z" fill="#8754E6"/>
<ellipse cx="11.6617" cy="11.6617" rx="11.6617" ry="11.6617" transform="matrix(0.500716 0.865612 -0.739601 0.673046 128.32 21.0664)" fill="#8754E6"/>
<ellipse cx="8.74624" cy="8.74625" rx="8.74624" ry="8.74625" transform="matrix(0.500716 0.865612 -0.739601 0.673046 127.68 25.5605)" fill="#DDD0F6"/>
</svg>
