<svg width="114" height="132" viewBox="0 0 114 132" fill="none" xmlns="http://www.w3.org/2000/svg">
<path d="M29.4063 23.9177C29.2646 22.4761 30.8288 21.4981 32.0107 22.2896L44.921 30.935L31.4396 44.5962L29.4063 23.9177Z" fill="#8B7A70"/>
<path d="M108 86.7763C108 118.685 85.1665 132 57 132C28.8335 132 6 118.685 6 86.7763C6 54.8673 28.8335 29 57 29C85.1665 29 108 54.8673 108 86.7763Z" fill="#BFD6F7"/>
<path fill-rule="evenodd" clip-rule="evenodd" d="M47.8603 48.0417C47.8603 47.3995 47.3397 46.8789 46.6975 46.8789C46.0553 46.8789 45.5347 47.3995 45.5347 48.0417V50.5559C45.5347 50.6805 45.5544 50.8006 45.5907 50.9132H42.0239C41.3948 50.9132 40.8848 51.4232 40.8848 52.0523C40.8848 52.6814 41.3948 53.1914 42.0239 53.1914H44.3119L42.2945 58.5949C42.0819 59.1644 42.3664 59.8108 42.9299 60.0386C43.4935 60.2664 44.1227 59.9894 44.3354 59.4199L46.6608 53.1914H46.8528L49.1783 59.4199C49.3909 59.9894 50.0201 60.2664 50.5837 60.0386C51.1473 59.8108 51.4318 59.1644 51.2192 58.5949L49.2017 53.1914H51.5689C52.198 53.1914 52.708 52.6814 52.708 52.0523C52.708 51.4232 52.198 50.9132 51.5689 50.9132H47.8044C47.8407 50.8006 47.8603 50.6805 47.8603 50.5559V48.0417Z" fill="#8B7A70"/>
<path fill-rule="evenodd" clip-rule="evenodd" d="M76.5439 47.2351C76.5439 46.5929 76.0233 46.0723 75.3811 46.0723C74.7389 46.0723 74.2183 46.5929 74.2183 47.2351V49.7492C74.2183 49.8732 74.2377 49.9926 74.2736 50.1046H70.7075C70.0784 50.1046 69.5684 50.6146 69.5684 51.2437C69.5684 51.8728 70.0784 52.3828 70.7075 52.3828H73.0001L70.982 57.7883C70.7694 58.3578 71.0539 59.0041 71.6174 59.2319C72.181 59.4598 72.8102 59.1828 73.0229 58.6133L75.3491 52.3828H75.5357L77.8619 58.6133C78.0745 59.1828 78.7037 59.4598 79.2673 59.2319C79.8309 59.0041 80.1154 58.3578 79.9028 57.7883L77.8846 52.3828H80.2525C80.8816 52.3828 81.3916 51.8728 81.3916 51.2437C81.3916 50.6146 80.8816 50.1046 80.2525 50.1046H76.4886C76.5245 49.9926 76.5439 49.8732 76.5439 49.7492V47.2351Z" fill="#8B7A70"/>
<path d="M67.2421 64.2212C67.3345 66.0987 64.2896 65.8813 61.8737 66.0101C59.4578 66.1389 55.7066 66.5019 55.6141 64.6244C55.5217 62.747 58.6246 59.9135 61.0405 59.7847C63.4564 59.6559 67.1496 62.3438 67.2421 64.2212Z" fill="#FAB9B9"/>
<path d="M62.5873 67.851C61.9114 67.8508 61.3132 67.2249 61.3132 66.6411L61.4244 66.2377C61.4243 65.8346 63.3624 65.8342 65.6444 65.7271C66.5103 65.6864 66.6509 66.571 66.6509 66.571C66.8508 67.8511 66.8508 68.6578 67.2384 69.4644C67.626 70.271 67.626 70.6744 66.8839 70.6629C65.766 70.6456 66.4632 69.3223 66.4632 68.2545C66.4632 67.0445 65.3004 67.0445 64.5252 67.4478C63.75 67.8511 63.3624 67.8511 62.5873 67.851Z" fill="#B3F4FF"/>
<path d="M97.4153 103.422C97.4153 117 79.2293 127.83 60.3603 127.83C41.4912 127.83 21.6055 123.014 21.6055 109.436C21.6055 95.8581 45.0607 76.0078 63.9298 76.0078C82.7988 76.0078 97.4153 89.8446 97.4153 103.422Z" fill="#EDF3FD"/>
<path d="M49.7061 76.4068C58.3209 76.3384 61.3104 81.2048 61.304 84.7404C62.2426 81.5715 66.4659 78.2064 73.5771 78.9708C82.5099 79.9309 82.7668 87.9059 82.0792 92.4145C81.2133 98.0911 77.1853 100.68 73.434 102.723C70.5389 104.301 61.5452 107.935 59.2093 109.274C56.9496 107.573 48.8342 103.217 45.7211 99.5623C42.6079 95.9071 39.2791 91.3809 39.4007 86.9695C39.4984 83.4216 41.0914 76.4753 49.7061 76.4068Z" fill="#FF8181"/>
<path d="M89.5564 24.6736C92.3691 23.7302 94.2206 25.4832 94.8514 26.9879C94.5919 25.5402 95.3744 23.6604 97.8432 23.2309C100.944 22.6913 102.439 25.376 102.439 27.4502C102.439 29.278 101.683 30.7518 100.611 32.324C99.944 33.3023 97.482 35.7708 96.9558 36.5885C95.9102 36.1046 93.148 34.7676 91.4728 33.5431C89.7976 32.3185 89.5565 32.3247 88.0678 30.2607C86.9204 28.6688 86.7436 25.6171 89.5564 24.6736Z" fill="#FFAAAA"/>
<path d="M100.421 12.3146C102.109 12.2534 102.837 13.5094 102.939 14.4329C103.031 13.6005 103.761 12.7003 105.179 12.8642C106.959 13.0701 107.342 14.7773 107.007 15.9099C106.712 16.908 106.062 17.5908 105.223 18.2763C104.7 18.7028 102.958 19.6535 102.538 20.015C102.045 19.5821 100.753 18.4061 100.036 17.4671C99.3186 16.5281 99.186 16.4925 98.7062 15.1252C98.3365 14.0707 98.7325 12.3758 100.421 12.3146Z" fill="#FFCECE"/>
<path d="M79.8336 90.0059C78.7697 91.2441 79.8022 93.1425 81.3696 92.83L99.6305 89.1891C100.528 89.0101 101.088 88.0685 100.83 87.1726L98.1002 77.7116C97.2536 74.7771 93.5957 73.9901 91.5997 76.313L79.8336 90.0059Z" fill="#A2C8FF"/>
<path d="M43.7308 90.8214C44.7835 92.0583 43.7584 93.9436 42.1978 93.6408L24.2064 90.1497C23.3028 89.9744 22.7381 89.0266 23.0011 88.1266L25.7511 78.7153C26.6083 75.7817 30.2734 75.0096 32.2602 77.344L43.7308 90.8214Z" fill="#A2C8FF"/>
</svg>
