<svg width="114" height="132" viewBox="0 0 114 132" fill="none" xmlns="http://www.w3.org/2000/svg">
<g clip-path="url(#clip0_4847_17083)">
<path fill-rule="evenodd" clip-rule="evenodd" d="M49.529 16.3114C53.1256 17.577 57.7434 21.2967 53.7092 29.7489L67.2778 33.1707C67.1123 26.2376 63.3307 13.1595 49.529 16.3114ZM28.0094 24.3968C25.5811 27.2999 23.525 32.8153 31.2523 37.9848L21.4054 47.7826C18.0327 41.7811 14.6318 28.7019 28.0094 24.3968Z" fill="#98887F"/>
<path d="M107.331 76.1827C113.565 107.229 93.995 124.635 66.645 130.127C39.2951 135.619 14.5222 127.117 8.28799 96.071C2.0538 65.0251 19.1715 35.4053 46.5215 29.9132C73.8715 24.4212 101.097 45.1367 107.331 76.1827Z" fill="#70F5D9"/>
<path d="M101.695 94.2921C104.274 107.136 88.4315 120.974 69.8594 124.704C51.2873 128.433 30.7996 127.807 28.2206 114.964C25.6416 102.12 44.9573 78.7079 63.5294 74.9785C82.1015 71.2492 99.1162 81.4488 101.695 94.2921Z" fill="#B2FCEC"/>
<path d="M43.1627 48.79C43.7591 50.2165 42.5173 52.094 40.3893 52.9836C38.2612 53.8732 36.0527 53.438 35.4564 52.0115C34.8601 50.5851 37.1383 51.187 39.2664 50.2974C41.3944 49.4079 42.5664 47.3636 43.1627 48.79Z" fill="#98887F"/>
<path d="M65.4612 44.4457C65.5816 45.9871 63.8151 47.3822 61.5156 47.5618C59.2161 47.7415 57.2544 46.6375 57.134 45.0961C57.0136 43.5547 58.9894 44.8388 61.2889 44.6592C63.5884 44.4796 65.3408 42.9043 65.4612 44.4457Z" fill="#98887F"/>
<ellipse cx="54.3472" cy="56.3646" rx="2.41786" ry="2.85747" transform="rotate(-11.3543 54.3472 56.3646)" fill="#C18D8D"/>
<path d="M32.7903 14.2954C41.4963 11.6795 52.0481 29.0538 52.0481 29.0538C52.0481 29.0538 47.4434 32.9449 43.8708 34.0789C40.0766 35.2832 33.6892 34.5701 33.6892 34.5701C33.6892 34.5701 34.9429 28.7191 34.6059 23.3369C34.2623 17.8497 28.3952 15.616 32.7903 14.2954Z" fill="#D4C2F3"/>
<ellipse cx="41.6889" cy="21.7134" rx="2.19805" ry="3.07727" transform="rotate(-40.711 41.6889 21.7134)" fill="#DCCEF7"/>
<ellipse cx="39.0194" cy="30.1745" rx="2.19805" ry="2.41013" transform="rotate(-40.711 39.0194 30.1745)" fill="#DCCEF7"/>
<ellipse cx="46.755" cy="28.0559" rx="2.85112" ry="2.27173" transform="rotate(-78.8928 46.755 28.0559)" fill="#DCCEF7"/>
<path d="M34.9784 18.6825C35.5085 19.8196 35.3844 21.116 34.3348 21.6053C34.3348 21.6053 33.6982 20.1551 33.2377 19.3508C32.5471 18.1443 31.5977 16.7656 31.5977 16.7656C32.6473 16.2763 34.4483 17.5453 34.9784 18.6825Z" fill="#DCCEF7"/>
<path d="M27.0858 11.4219C27.3195 11.1058 27.7548 11.0184 28.0924 11.2197V11.2197C28.3213 11.3563 28.6049 11.3638 28.8408 11.2394V11.2394C29.1884 11.056 29.6185 11.1661 29.8353 11.494V11.494C29.9824 11.7164 30.2346 11.8461 30.5011 11.8364V11.8364C30.8939 11.822 31.2336 12.1078 31.2867 12.4973V12.4973C31.3227 12.7615 31.4936 12.9879 31.7379 13.0947V13.0947C32.0981 13.2522 32.2801 13.6571 32.159 14.031V14.031C32.0768 14.2846 32.1326 14.5628 32.3063 14.765V14.765C32.5625 15.0632 32.5508 15.507 32.2794 15.7913V15.7913C32.0953 15.9841 32.025 16.259 32.0937 16.5166V16.5166C32.1952 16.8963 31.9921 17.2911 31.6242 17.4295V17.4295C31.3747 17.5234 31.192 17.7405 31.1422 18.0024V18.0024C31.0688 18.3886 30.7146 18.6561 30.3231 18.6212V18.6212C30.0575 18.5975 29.7988 18.7139 29.6403 18.9282V18.9282C29.4066 19.2443 28.9713 19.3317 28.6337 19.1304V19.1304C28.4048 18.9938 28.1212 18.9863 27.8853 19.1107V19.1107C27.5377 19.2941 27.1076 19.184 26.8908 18.8561V18.8561C26.7437 18.6337 26.4915 18.504 26.225 18.5137V18.5137C25.8322 18.5281 25.4925 18.2423 25.4394 17.8528V17.8528C25.4034 17.5886 25.2325 17.3622 24.9882 17.2554V17.2554C24.628 17.0979 24.446 16.693 24.5671 16.3191V16.3191C24.6493 16.0655 24.5935 15.7873 24.4198 15.5851V15.5851C24.1636 15.2869 24.1753 14.8431 24.4467 14.5588V14.5588C24.6308 14.366 24.7011 14.0911 24.6324 13.8335V13.8335C24.5309 13.4538 24.734 13.059 25.1019 12.9206V12.9206C25.3514 12.8267 25.5341 12.6096 25.5839 12.3477V12.3477C25.6573 11.9615 26.0115 11.694 26.403 11.7289V11.7289C26.6686 11.7526 26.9273 11.6362 27.0858 11.4219V11.4219Z" fill="#E2ECFA"/>
<path d="M26.8848 64.4606C27.6425 63.0726 29.7043 63.3121 30.1237 64.8367L33.2818 76.3158C33.5138 77.1592 33.0898 78.0424 32.2589 78.3154C30.9406 78.7486 28.9429 79.2605 27.2938 79.069C25.5997 78.8723 23.3627 77.8275 21.9152 77.0667C21.0836 76.6296 20.8043 75.5994 21.2545 74.7748L26.8848 64.4606Z" fill="#55DDBF"/>
<path d="M101.275 44.3255C102.653 43.5495 104.275 44.8446 103.823 46.36L100.422 57.7694C100.172 58.6077 99.3444 59.1323 98.495 58.9237C97.1474 58.5929 95.1818 57.9691 93.8844 56.9332C92.5516 55.869 91.2076 53.798 90.3827 52.3861C89.9088 51.5748 90.2175 50.5531 91.0361 50.0921L101.275 44.3255Z" fill="#70F5D8"/>
</g>
<defs>
<clipPath id="clip0_4847_17083">
<rect width="114" height="132" fill="white"/>
</clipPath>
</defs>
</svg>
