<svg width="243" height="252" viewBox="0 0 243 252" fill="none" xmlns="http://www.w3.org/2000/svg">
<path fill-rule="evenodd" clip-rule="evenodd" d="M146.057 44.5403C149.287 30.1033 155.791 9.77808 165.465 1.64454C175.899 -7.12654 185.77 21.0503 190.87 42.0744C216.558 42.9384 236.989 47.9239 243 55.4168V251.469H4.69222C-3.71906 217.396 -4.95407 150.33 36.9609 100.446C29.8938 87.8646 19.1246 64.2125 21.6383 50.0464C24.3157 34.9573 56.3982 56.1628 73.1021 69.4042C77.5112 66.6779 82.167 64.0894 87.0817 61.6554C104.625 52.9671 125.42 47.4622 146.057 44.5403Z" fill="#F7D49F"/>
<path fill-rule="evenodd" clip-rule="evenodd" d="M145.986 87.9945C146.126 88.3004 146.341 88.5507 146.601 88.7327C146.913 89.2662 147.471 89.6257 148.117 89.653C150.29 89.7446 154.411 89.7931 157.195 89.0536C160.052 88.2946 163.826 86.0876 165.679 84.9356C166.362 84.5108 166.683 83.698 166.501 82.9144L165.652 79.2624C165.364 78.0265 163.983 77.3917 162.847 77.9558C160.372 79.1845 156.394 81.0552 153.84 81.7338C153.337 81.8675 152.816 81.9454 152.29 81.9797C151.691 80.6667 151.2 79.2871 151.029 78.0428C150.719 75.7865 151.278 72.8111 151.831 70.6272C152.181 69.2465 151.057 67.8607 149.642 68.0181L145.181 68.5142C144.349 68.6068 143.672 69.224 143.533 70.0501C143.175 72.1778 142.605 76.3136 143.001 79.1947C143.394 82.0624 145.057 85.9734 145.986 87.9945ZM73.9823 107.423C73.7659 107.112 73.7502 106.705 73.95 106.383C74.8822 104.882 77.6725 100.562 80.2063 98.4016C82.7025 96.2734 87.2051 94.3182 88.8601 93.6389C89.22 93.4912 89.6269 93.5835 89.8946 93.8601C89.9852 93.8945 90.0715 93.9435 90.15 94.007C91.5593 95.1463 95.4476 98.4117 97.263 101.166C99.0593 103.892 100.441 108.569 100.918 110.315C101.03 110.723 100.853 111.149 100.492 111.368L94.2076 115.188C93.6235 115.543 92.8575 115.198 92.715 114.53C92.2578 112.384 91.2277 108.276 89.6262 105.846C88.914 104.765 87.8217 103.648 86.6631 102.627C86.1502 103.066 85.6498 103.494 85.1826 103.893C82.9358 105.808 80.2974 110.021 79.0174 112.192C78.6529 112.81 77.7613 112.851 77.3514 112.263L73.9823 107.423ZM153.547 215.503L150.756 230.579C150.907 232.013 151.952 234.868 154.844 236.73C153.992 240.589 151.712 245.879 147.154 245.879H156.001C156.823 244.212 158.294 240.894 159.008 238.27C162.658 238.764 165.029 236.81 165.832 235.605L169.416 224.303C176.874 226.671 185.932 227.457 196.323 225.763C180.818 226.682 148.774 219.561 149.119 197.51C149.326 184.24 164.009 186.942 178.974 189.696C188.875 191.518 198.9 193.363 204.936 190.619C197.312 190.619 187.207 188.565 179.834 187.067L179.834 187.067L179.834 187.067L179.833 187.067L179.833 187.067C177.211 186.533 174.934 186.071 173.237 185.796C170.969 185.428 168.668 185.071 166.413 184.82C162.921 183.327 160.567 180.737 159.758 179.489L158.467 184.551C151.619 185.07 146.434 188.153 146.018 197.51C145.731 203.97 148.912 210.848 155.014 216.301L153.547 215.503ZM118.541 111.639C120.94 112.55 127.015 113.371 132.125 109.365C134.697 107.349 136.427 105.646 137.738 104.355C139.683 102.439 140.707 101.431 142.188 101.658C144.669 102.038 153.8 103.978 151.751 113.818C149.701 123.658 130.656 129.629 124.877 127.112C119.097 124.596 115.429 121.315 115.548 116.982C115.667 112.649 116.634 112.255 118.541 111.639ZM161.443 168.079L160.283 175.162C160.859 176.364 163.671 179.208 170.321 180.964C176.971 182.721 181.038 181.696 182.24 180.964L186.483 172.736C197.019 169.258 204.623 159.333 204.623 147.632C204.623 133.035 192.789 121.202 178.192 121.202C163.595 121.202 151.762 133.035 151.762 147.632C151.762 155.872 155.533 163.231 161.443 168.079Z" fill="#F9BC5F"/>
<path d="M177.822 151.37C164.502 147.951 153.972 139.746 150.372 136.07C149.247 136.82 147.672 139.175 150.372 142.595C153.747 146.87 163.196 154.294 177.822 158.119C189.522 161.179 202.046 159.394 206.846 158.119L209.096 151.37C204.221 152.795 191.141 154.79 177.822 151.37Z" fill="#F7D49F"/>
</svg>
