<svg width="232" height="224" viewBox="0 0 232 224" fill="none" xmlns="http://www.w3.org/2000/svg">
<g clip-path="url(#clip0_54_17625)">
<path fill-rule="evenodd" clip-rule="evenodd" d="M122.998 52.5128C127.966 55.4355 133.72 62.2681 125.201 73.5044L144.349 82.5417C146.172 72.2989 144.455 51.9533 122.998 52.5128ZM88.5933 58.0504C84.1171 61.602 79.4146 69.1043 89.3578 78.9866L71.7962 90.4852C68.5742 80.6653 67.4228 60.4305 88.5933 58.0504Z" fill="#98887F"/>
<path d="M190 154.766C190 202.629 155.371 222.602 112.653 222.602C53.9373 222.602 37 199.802 37 151.939C37 104.075 69.9356 68.1016 112.653 68.1016C155.371 68.1016 190 106.903 190 154.766Z" fill="#BFD6F7"/>
<path d="M171.517 177.176C172.53 196.138 145.733 212.738 117.551 214.244C89.3697 215.751 60.1905 202.143 59.1769 183.181C58.1634 164.219 85.4723 142.839 113.654 141.333C141.835 139.826 170.503 158.214 171.517 177.176Z" fill="#EDF3FD"/>
<path d="M102.497 116.973C102.584 117.849 106.483 119.923 115.924 119.014C124.421 118.195 128.205 115.391 128.118 114.515C128.031 113.639 122.231 115.406 115.453 116.058C108.674 116.711 102.41 116.098 102.497 116.973Z" fill="#D39898"/>
<path d="M108.41 97.1156C109.017 102.926 104.176 108.475 97.1793 109.19C90.1823 109.905 84.2971 105.452 83.6903 99.6415C83.394 96.8039 84.4455 94.8473 86.3922 93.4305C88.438 91.9415 91.5324 91.0219 95.2422 90.6428C98.9521 90.2638 102.171 90.5382 104.482 91.5821C106.68 92.5753 108.114 94.2779 108.41 97.1156Z" stroke="#649CED" stroke-width="3"/>
<path d="M142.051 93.682C142.657 99.4921 137.817 105.042 130.82 105.757C123.823 106.472 117.938 102.018 117.331 96.208C117.035 93.3703 118.086 91.4137 120.033 89.9969C122.079 88.5079 125.173 87.5883 128.883 87.2092C132.593 86.8302 135.812 87.1046 138.122 88.1485C140.321 89.1417 141.754 90.8443 142.051 93.682Z" stroke="#649CED" stroke-width="3"/>
<rect x="0.540563" y="0.439329" width="6.97266" height="0.98401" transform="matrix(0.99482 -0.101654 0.103875 0.99459 107.731 95.8269)" fill="#2AD4AF" stroke="#649CED" stroke-width="0.98401"/>
<ellipse cx="130.974" cy="96.9689" rx="3.87224" ry="3.0978" fill="#706660"/>
<ellipse cx="95.3488" cy="100.063" rx="3.87224" ry="3.0978" fill="#706660"/>
<path d="M206.923 110.022C208.763 108.248 207.218 105.21 204.678 105.605L176.967 109.916C172.278 110.645 169.797 115.797 172.207 119.8L177.949 129.337C180.302 133.245 185.894 133.663 188.862 130.154L201.312 115.436L206.923 110.022Z" fill="#BFD6F7"/>
<path d="M99.332 156.408L87.8668 148.645L95.8979 143.017L99.332 156.408Z" fill="#FBE8CC"/>
<path d="M99.332 156.407L93.5994 152.525C93.5994 152.525 95.2463 152.359 96.0728 151.78C96.8993 151.2 97.615 149.712 97.615 149.712L99.332 156.407Z" fill="#5F6368"/>
<path d="M66.4547 118.24L68.2005 115.042L70.8775 113.166L74.4858 112.612L95.9038 143.021L94.1579 146.219L91.4809 148.095L87.8726 148.649L66.4547 118.24Z" fill="#EF5252"/>
<rect width="3.26891" height="40.4285" transform="matrix(0.818945 -0.573872 0.575841 0.817562 68.1914 115.039)" fill="#F48181"/>
<rect x="193.145" y="78.2344" width="21.6039" height="30.2454" rx="2.70048" transform="rotate(26.691 193.145 78.2344)" fill="#2AD4AF"/>
<rect x="223.785" y="93.2305" width="21.6038" height="30.2454" rx="2.70048" transform="rotate(68.569 223.785 93.2305)" fill="#A07BE5"/>
<rect x="208.676" y="77.0273" width="21.6038" height="30.2454" rx="2.70048" transform="rotate(35.5823 208.676 77.0273)" fill="#FFB440"/>
<path d="M85.901 137.165C88.0303 136.274 87.7259 133.212 85.4584 132.712L60.7258 127.261C56.541 126.338 52.765 129.861 53.4817 134.019L55.1894 143.927C55.889 147.986 60.4577 150.17 64.1056 148.19L79.405 139.883L85.901 137.165Z" fill="#92B9F2"/>
<path d="M52.8539 26.621C53.4592 26.3292 53.9132 26.6077 54.2445 27.4427C56.3591 33.5991 57.2591 38.6358 56.8729 42.5518C56.4868 46.4678 56.1406 48.6239 55.8631 49.0063C55.5995 49.4175 55.0785 49.8107 54.2714 50.1997L52.2823 51.1583C51.5905 51.4918 51.1174 51.5421 50.8781 51.2667C50.5961 50.9764 50.5447 50.5749 50.8093 50.0921C52.5618 44.7361 52.4988 39.225 50.5916 33.5725C50.4131 33.0546 50.1151 32.8786 49.6538 33.1008L38.815 38.3247C38.152 38.6442 37.682 38.4799 37.3764 37.8457L36.39 35.799C36.0704 35.136 36.2208 34.6373 36.8838 34.3177L52.8539 26.621Z" fill="#F9BC5F"/>
<path d="M123.287 28.2613C123.131 28.8159 122.737 29.0375 122.086 28.9879C115.869 28.6396 110.318 27.8134 105.379 26.4613C104.64 26.2538 104.365 25.8112 104.555 25.1333L110.087 5.41463C110.295 4.67517 110.861 4.4351 111.847 4.7117L114.034 5.32541C114.897 5.56743 115.207 6.11979 114.974 6.95168L110.514 22.8499C113.858 23.7218 118.098 24.2466 123.247 24.4944C123.959 24.5614 124.246 24.8413 124.108 25.3343L123.287 28.2613Z" fill="#7FE6CF"/>
<path d="M186.292 43.1598C186.369 43.6659 186.165 44.0209 185.673 44.1932C180.002 46.4846 174.731 48.0028 169.796 48.7573C168.974 48.8831 168.505 48.5664 168.384 47.7756L165.332 27.8155C165.201 26.9615 165.608 26.4461 166.62 26.2913L182.215 23.9068C182.974 23.7907 183.458 24.2023 183.598 25.1197L183.874 26.9227C184.019 27.8717 183.675 28.3774 182.916 28.4935L170.769 30.3508L172.738 43.2252C176.281 42.6834 180.328 41.4172 184.943 39.4167C185.429 39.2128 185.711 39.3639 185.784 39.8384L186.292 43.1598Z" fill="#BFA5ED"/>
</g>
<defs>
<clipPath id="clip0_54_17625">
<rect width="232" height="224" fill="white"/>
</clipPath>
</defs>
</svg>
