<svg width="716" height="370" viewBox="0 0 716 370" fill="none" xmlns="http://www.w3.org/2000/svg">
<g clip-path="url(#clip0_4058_27620)">
<rect width="716" height="370" fill="url(#paint0_linear_4058_27620)"/>
<path d="M165.635 305.221L178.689 301.903C180.776 301.373 182.968 301.413 185.035 302.018L187.875 302.851C193.363 304.459 196.173 310.538 193.843 315.761C191.116 321.873 183.072 323.287 178.424 318.471L165.635 305.221Z" fill="#50B94B"/>
<path d="M187.223 310.023L165.597 305.012L186.428 311.859L187.223 310.023Z" fill="#1C7018"/>
<path d="M186.772 201.924L187.32 215.382C187.408 217.534 186.916 219.67 185.896 221.567L184.495 224.173C181.787 229.211 175.258 230.704 170.63 227.345C165.213 223.413 165.492 215.25 171.165 211.698L186.772 201.924Z" fill="#50B94B"/>
<path d="M177.608 222.055L186.982 201.932L175.977 220.897L177.608 222.055Z" fill="#1C7018"/>
<path d="M544.338 170.781L531.284 167.464C529.196 166.933 527.005 166.973 524.938 167.579L522.098 168.411C516.61 170.02 513.8 176.098 516.13 181.321C518.857 187.434 526.901 188.848 531.549 184.032L544.338 170.781Z" fill="#50B94B"/>
<path d="M522.75 175.584L544.376 170.572L523.545 177.419L522.75 175.584Z" fill="#1C7018"/>
<ellipse cx="0.223007" cy="315.241" rx="191.327" ry="83.2296" fill="#99D796"/>
<ellipse cx="135.217" cy="217.8" rx="191.327" ry="83.2296" fill="#99D796"/>
<ellipse cx="362" cy="181.5" rx="85" ry="80.5" fill="#99D796"/>
<ellipse cx="581.815" cy="189.378" rx="191.327" ry="83.2296" fill="#99D796"/>
<ellipse cx="711.737" cy="315.241" rx="191.327" ry="83.2296" fill="#99D796"/>
<ellipse cx="363.082" cy="314.225" rx="304.498" ry="109.619" fill="#99D796"/>
<ellipse cx="586.569" cy="218.452" rx="18.0474" ry="20.6671" fill="#718369"/>
<ellipse cx="598.841" cy="189.105" rx="18.0474" ry="20.6671" fill="#718369"/>
<ellipse cx="632.409" cy="177.118" rx="27.793" ry="20.6671" fill="#718369"/>
<ellipse cx="669.045" cy="197.786" rx="23.6421" ry="31.0007" fill="#718369"/>
<ellipse cx="678.43" cy="228.786" rx="23.6421" ry="20.6671" fill="#718369"/>
<ellipse cx="610.218" cy="233.54" rx="23.5678" ry="15.087" fill="#718369"/>
<ellipse cx="648.894" cy="244.286" rx="23.5678" ry="15.5003" fill="#718369"/>
<ellipse cx="635.657" cy="214.113" rx="42.5919" ry="25.0072" fill="#718369"/>
<ellipse cx="446.975" cy="218.452" rx="18.0474" ry="20.6671" fill="#718369"/>
<ellipse cx="459.247" cy="189.105" rx="18.0474" ry="20.6671" fill="#718369"/>
<ellipse cx="492.816" cy="177.118" rx="27.793" ry="20.6671" fill="#718369"/>
<ellipse cx="529.451" cy="197.786" rx="23.6421" ry="31.0007" fill="#718369"/>
<ellipse cx="538.837" cy="228.786" rx="23.6421" ry="20.6671" fill="#718369"/>
<ellipse cx="470.624" cy="233.54" rx="23.5678" ry="15.087" fill="#718369"/>
<ellipse cx="509.3" cy="244.286" rx="23.5678" ry="15.5003" fill="#718369"/>
<ellipse cx="496.065" cy="214.113" rx="42.5919" ry="25.0072" fill="#718369"/>
<ellipse cx="529.764" cy="183.645" rx="18.0474" ry="30.2151" fill="#62745A"/>
<ellipse cx="531.357" cy="140.739" rx="28.7043" ry="30.2151" fill="#62745A"/>
<ellipse cx="575.604" cy="123.215" rx="27.793" ry="30.2151" fill="#62745A"/>
<ellipse cx="612.24" cy="153.43" rx="23.6421" ry="45.3226" fill="#62745A"/>
<ellipse cx="621.626" cy="198.752" rx="23.6421" ry="30.2151" fill="#62745A"/>
<ellipse cx="553.408" cy="213.86" rx="23.6421" ry="30.2151" fill="#62745A"/>
<ellipse cx="592.089" cy="221.415" rx="23.5678" ry="22.6613" fill="#62745A"/>
<ellipse cx="578.854" cy="177.301" rx="42.5919" ry="36.5603" fill="#62745A"/>
<path d="M568.114 209.631H577.255L592.09 374.001H555.228L568.114 209.631Z" fill="#6F5C36"/>
<path d="M625.768 241.659L627.878 246.641L576.672 268.322L573.657 256.766L625.768 241.659Z" fill="#6F5C36"/>
<path d="M522.594 243.17L517.458 248.004L567.313 283.659L567.313 267.04L522.594 243.17Z" fill="#6F5C36"/>
<ellipse cx="570.568" cy="139.4" rx="32.5676" ry="58.8" fill="#3D9739"/>
<path d="M625.091 49.4992C625.091 81.9736 610.51 108.299 592.524 108.299C574.537 108.299 559.956 81.9736 559.956 49.4992C559.956 17.0249 574.537 -9.30078 592.524 -9.30078C610.51 -9.30078 625.091 17.0249 625.091 49.4992Z" fill="#3D9739"/>
<ellipse cx="653.289" cy="21.8" rx="50.1541" ry="58.8" fill="#3D9739"/>
<ellipse cx="716" cy="71.5" rx="51" ry="79.5" fill="#3D9739"/>
<ellipse cx="736.336" cy="168.8" rx="42.6635" ry="58.8" fill="#3D9739"/>
<ellipse cx="613.244" cy="182.324" rx="42.5294" ry="42.924" fill="#3D9739"/>
<ellipse cx="683.5" cy="204.5" rx="42.5" ry="35.5" fill="#3D9739"/>
<ellipse cx="659.151" cy="127.052" rx="76.8595" ry="71.148" fill="#3D9739"/>
<path d="M639.5 110H670.5L687 414H631L639.5 110Z" fill="#7A4C38"/>
<ellipse cx="226.641" cy="218.452" rx="18.0474" ry="20.6671" fill="#718369"/>
<ellipse cx="238.915" cy="189.105" rx="18.0474" ry="20.6671" fill="#718369"/>
<ellipse cx="272.48" cy="177.118" rx="27.793" ry="20.6671" fill="#718369"/>
<ellipse cx="309.119" cy="197.786" rx="23.6421" ry="31.0007" fill="#718369"/>
<ellipse cx="318.503" cy="228.786" rx="23.6421" ry="20.6671" fill="#718369"/>
<ellipse cx="250.29" cy="233.54" rx="23.5678" ry="15.087" fill="#718369"/>
<ellipse cx="288.966" cy="244.286" rx="23.5678" ry="15.5003" fill="#718369"/>
<ellipse cx="275.729" cy="214.113" rx="42.5919" ry="25.0072" fill="#718369"/>
<ellipse cx="87.0474" cy="218.452" rx="18.0474" ry="20.6671" fill="#718369"/>
<ellipse cx="99.3208" cy="189.105" rx="18.0474" ry="20.6671" fill="#718369"/>
<ellipse cx="132.887" cy="177.118" rx="27.793" ry="20.6671" fill="#718369"/>
<ellipse cx="169.525" cy="197.786" rx="23.6421" ry="31.0007" fill="#718369"/>
<ellipse cx="178.91" cy="228.786" rx="23.6421" ry="20.6671" fill="#718369"/>
<ellipse cx="110.697" cy="233.54" rx="23.5678" ry="15.087" fill="#718369"/>
<ellipse cx="149.372" cy="244.286" rx="23.5678" ry="15.5003" fill="#718369"/>
<ellipse cx="136.135" cy="214.113" rx="42.5919" ry="25.0072" fill="#718369"/>
<ellipse cx="169.836" cy="183.645" rx="18.0474" ry="30.2151" fill="#62745A"/>
<ellipse cx="171.429" cy="140.739" rx="28.7043" ry="30.2151" fill="#62745A"/>
<ellipse cx="215.676" cy="123.215" rx="27.793" ry="30.2151" fill="#62745A"/>
<ellipse cx="252.312" cy="153.43" rx="23.6421" ry="45.3226" fill="#62745A"/>
<ellipse cx="261.699" cy="198.752" rx="23.6421" ry="30.2151" fill="#62745A"/>
<ellipse cx="193.478" cy="213.86" rx="23.6421" ry="30.2151" fill="#62745A"/>
<ellipse cx="232.162" cy="221.415" rx="23.5678" ry="22.6613" fill="#62745A"/>
<ellipse cx="218.926" cy="177.301" rx="42.5919" ry="36.5603" fill="#62745A"/>
<path d="M208.188 209.631H217.328L232.163 374.001H195.301L208.188 209.631Z" fill="#6F5C36"/>
<path d="M265.841 241.659L267.951 246.641L216.745 268.322L213.731 256.766L265.841 241.659Z" fill="#6F5C36"/>
<path d="M162.667 243.17L157.53 248.004L207.386 283.659L207.385 267.04L162.667 243.17Z" fill="#6F5C36"/>
<path d="M229.34 251.111C225.238 254.659 228.004 261.388 233.416 261.024L261.412 259.14L256.847 227.322L229.34 251.111Z" fill="#BFD6F7"/>
<path d="M501.697 207.747C503.288 205.273 501.336 202.052 498.407 202.318L466.934 205.177L479.219 242.69L501.697 207.747Z" fill="#BFD6F7"/>
<path d="M350.339 114.288C348.47 112.017 344.807 112.893 344.166 115.763L337.278 146.607L376.751 146.362L350.339 114.288Z" fill="#98887F"/>
<path d="M483.52 254.457C483.52 319.997 425.047 347.346 367.309 347.346C309.571 347.346 250.52 319.997 250.52 254.457C250.52 188.916 309.571 135.785 367.309 135.785C425.047 135.785 483.52 188.916 483.52 254.457Z" fill="#BFD6F7"/>
<ellipse cx="341.968" cy="185.298" rx="4.94465" ry="5.29784" fill="#6C6C6C"/>
<ellipse cx="397.968" cy="182.298" rx="4.94465" ry="5.29784" fill="#6C6C6C"/>
<path d="M387.101 202.375C387.788 209.56 380.826 210.782 376.942 211.154C373.059 211.526 364.188 210.684 363.5 203.499C362.813 196.315 372.049 200.977 375.932 200.605C379.816 200.234 386.413 195.191 387.101 202.375Z" fill="#F2A3A3"/>
<path d="M466.02 280.5C466.02 307.613 409.438 338.252 370.23 338.252C331.023 338.252 286.02 323.613 286.02 296.5C286.02 269.387 311.937 228 370.23 228C428.524 228 466.02 253.387 466.02 280.5Z" fill="#E6E6E6"/>
<rect x="490.91" y="199.453" width="35.4047" height="11.1602" transform="rotate(9.21533 490.91 199.453)" fill="#F9BC5F"/>
<rect x="509.174" y="238.287" width="24.2445" height="11.1602" transform="rotate(-80.7847 509.174 238.287)" fill="#F9BC5F"/>
<rect x="238.684" y="258.094" width="35.4047" height="11.1602" transform="rotate(152.76 238.684 258.094)" fill="#2AD4AF"/>
<rect x="200.924" y="237.713" width="24.2445" height="11.1602" transform="rotate(62.7603 200.924 237.713)" fill="#2AD4AF"/>
<ellipse cx="314.447" cy="355.121" rx="23.2176" ry="8.80669" transform="rotate(9.56618 314.447 355.121)" fill="#BFD6F7"/>
<ellipse cx="455.826" cy="337.976" rx="23.2176" ry="8.80669" transform="rotate(-19.9802 455.826 337.976)" fill="#BFD6F7"/>
<path d="M370 199.738L372.647 199.896L375.294 199.93C376.491 199.93 381 199 381 199V201C381 202.105 380.105 203 379 203H372C370.895 203 370 202.105 370 201V199.738Z" fill="white"/>
<ellipse cx="95.5" cy="22.5" rx="136.5" ry="190.5" fill="#A7A455"/>
<path d="M96 114.543L136 85.6152L138.305 88.483L101.63 120.91L96 114.543Z" fill="#816D23"/>
<path d="M90.4336 143.656L50.4336 114.729L48.1291 117.596L84.8037 150.024L90.4336 143.656Z" fill="#816D23"/>
<path d="M76.5 82H107.5L124 386H68L76.5 82Z" fill="#816D23"/>
<rect x="170.721" y="59.3555" width="2.72754" height="15.6043" transform="rotate(-22.9236 170.721 59.3555)" fill="#959243"/>
<rect x="152.832" y="105.848" width="2.72754" height="15.6043" transform="rotate(19.3701 152.832 105.848)" fill="#959243"/>
<rect x="183.883" y="100.836" width="2.72754" height="15.6043" transform="rotate(48.8066 183.883 100.836)" fill="#959243"/>
<rect x="133.582" y="51.4023" width="2.72754" height="15.6043" transform="rotate(20.5621 133.582 51.4023)" fill="#959243"/>
<ellipse cx="604.503" cy="321.83" rx="6.68153" ry="12.8301" fill="#FF7A7A"/>
<ellipse cx="604.503" cy="351.598" rx="6.68153" ry="12.8301" fill="#FF7A7A"/>
<ellipse cx="620.352" cy="337.226" rx="7.35592" ry="11.6538" transform="rotate(-90 620.352 337.226)" fill="#FF7A7A"/>
<ellipse cx="7.02682" cy="12.2561" rx="7.02682" ry="12.2561" transform="matrix(0.67236 -0.740224 0.67236 0.740224 580.419 322.141)" fill="#FF7A7A"/>
<ellipse cx="7.02682" cy="12.2561" rx="7.02682" ry="12.2561" transform="matrix(0.67236 -0.740224 0.67236 0.740224 601.24 343.01)" fill="#FF7A7A"/>
<ellipse cx="7.02682" cy="12.2561" rx="7.02682" ry="12.2561" transform="matrix(0.67236 0.740224 -0.67236 0.740224 617.721 311.738)" fill="#FF7A7A"/>
<ellipse cx="7.02682" cy="12.2561" rx="7.02682" ry="12.2561" transform="matrix(0.67236 0.740224 -0.67236 0.740224 596.899 332.607)" fill="#FF7A7A"/>
<ellipse cx="588.654" cy="337.226" rx="7.35592" ry="11.6538" transform="rotate(-90 588.654 337.226)" fill="#FF7A7A"/>
<ellipse cx="604.036" cy="337.398" rx="8.39076" ry="9.23766" fill="#FFD17A"/>
<ellipse cx="158.502" cy="319.83" rx="6.68153" ry="12.8301" fill="#7A85FF"/>
<ellipse cx="158.502" cy="349.598" rx="6.68153" ry="12.8301" fill="#7A85FF"/>
<ellipse cx="174.353" cy="335.226" rx="7.35592" ry="11.6538" transform="rotate(-90 174.353 335.226)" fill="#7A85FF"/>
<ellipse cx="7.02682" cy="12.2561" rx="7.02682" ry="12.2561" transform="matrix(0.67236 -0.740224 0.67236 0.740224 134.418 320.141)" fill="#7A85FF"/>
<ellipse cx="7.02682" cy="12.2561" rx="7.02682" ry="12.2561" transform="matrix(0.67236 -0.740224 0.67236 0.740224 155.24 341.01)" fill="#7A85FF"/>
<ellipse cx="7.02682" cy="12.2561" rx="7.02682" ry="12.2561" transform="matrix(0.67236 0.740224 -0.67236 0.740224 171.721 309.738)" fill="#7A85FF"/>
<ellipse cx="7.02682" cy="12.2561" rx="7.02682" ry="12.2561" transform="matrix(0.67236 0.740224 -0.67236 0.740224 150.898 330.607)" fill="#7A85FF"/>
<ellipse cx="142.654" cy="335.226" rx="7.35592" ry="11.6538" transform="rotate(-90 142.654 335.226)" fill="#7A85FF"/>
<ellipse cx="158.035" cy="335.398" rx="8.39076" ry="9.23766" fill="#FFD17A"/>
<ellipse cx="493" cy="310" rx="6" ry="9" fill="#8DAEFF"/>
<ellipse cx="493" cy="329.5" rx="6" ry="8.5" fill="#8DAEFF"/>
<ellipse cx="504.5" cy="320" rx="6" ry="7.5" transform="rotate(-90 504.5 320)" fill="#8DAEFF"/>
<ellipse cx="5.70402" cy="8.20995" rx="5.70402" ry="8.20995" transform="matrix(0.722867 -0.690988 0.722867 0.690988 474.498 311.359)" fill="#8DAEFF"/>
<ellipse cx="5.70402" cy="7.82301" rx="5.70402" ry="7.82301" transform="matrix(0.722867 -0.690988 0.722867 0.690988 490.156 324.771)" fill="#8DAEFF"/>
<ellipse cx="5.70402" cy="8.01799" rx="5.70402" ry="8.01799" transform="matrix(0.722867 0.690988 -0.722867 0.690988 501.748 303.744)" fill="#8DAEFF"/>
<ellipse cx="5.70402" cy="7.76003" rx="5.70402" ry="7.76003" transform="matrix(0.722867 0.690988 -0.722867 0.690988 486.367 316.889)" fill="#8DAEFF"/>
<ellipse cx="482" cy="320" rx="6" ry="7" transform="rotate(-90 482 320)" fill="#8DAEFF"/>
<ellipse cx="493" cy="319.5" rx="6" ry="6.5" fill="#FFD17A"/>
<ellipse cx="261.504" cy="329" rx="6" ry="9" fill="#FF649D"/>
<ellipse cx="261.502" cy="348.5" rx="6" ry="8.5" fill="#FF649D"/>
<ellipse cx="273.002" cy="339" rx="6" ry="7.5" transform="rotate(-90 273.002 339)" fill="#FF649D"/>
<ellipse cx="5.70402" cy="8.20995" rx="5.70402" ry="8.20995" transform="matrix(0.722867 -0.690988 0.722867 0.690988 243 330.359)" fill="#FF649D"/>
<ellipse cx="5.70402" cy="7.82301" rx="5.70402" ry="7.82301" transform="matrix(0.722867 -0.690988 0.722867 0.690988 258.658 343.771)" fill="#FF649D"/>
<ellipse cx="5.70402" cy="8.63086" rx="5.70402" ry="8.63086" transform="matrix(0.722867 0.690988 -0.722867 0.690988 271.135 321.896)" fill="#FF649D"/>
<ellipse cx="5.70402" cy="7.76003" rx="5.70402" ry="7.76003" transform="matrix(0.722867 0.690988 -0.722867 0.690988 254.871 335.889)" fill="#FF649D"/>
<ellipse cx="250.502" cy="339" rx="6" ry="7" transform="rotate(-90 250.502 339)" fill="#FF649D"/>
<ellipse cx="261.502" cy="338.5" rx="6" ry="6.5" fill="#FFD17A"/>
<path d="M58.3133 322.596C52.8 363.72 17.1406 367.617 0 364.425V374H176L164.867 352.329L144.723 366.944C115.884 331.062 128.112 316.044 137.831 313.02C108.145 303.445 120.867 364.425 116.627 364.425C113.234 364.425 93.3012 342.586 83.759 331.667C92.241 345.274 89.4137 356.53 83.759 364.425C49.4072 355.958 60.4337 331.667 58.3133 322.596Z" fill="#57BB6D"/>
<path d="M473 322.596C467.8 363.72 434.167 367.617 418 364.425V374H584L573.5 352.329L554.5 366.944C527.3 331.062 538.833 316.044 548 313.02C520 303.445 532 364.425 528 364.425C524.8 364.425 506 342.586 497 331.667C505 345.274 502.333 356.53 497 364.425C464.6 355.958 475 331.667 473 322.596Z" fill="#57BB6D"/>
<path d="M266 322.512C271.2 363.312 304.833 367.179 321 364.012V373.512H155L165.5 352.012L184.5 366.512C211.7 330.912 200.167 316.012 191 313.012C219 303.512 207 364.012 211 364.012C214.2 364.012 233 342.346 242 331.512C234 345.012 236.667 356.179 242 364.012C274.4 355.612 264 331.512 266 322.512Z" fill="#57BB6D"/>
<path d="M311 365.501L335 363.001C342.029 356.753 353.01 342.454 344.485 332.451C343.77 331.73 343.105 331.078 342.5 330.501C343.254 331.129 343.913 331.78 344.485 332.451C352.232 340.267 365.739 356.084 370.5 370.001L378 347.001L379.5 370.001C383.667 353.001 394.2 320.601 403 327.001C397.667 329.668 388.6 342.001 395 370.001L411.5 347.001L409.5 370.001L417 358.001L429 370.001C433.667 360.501 440.2 340.401 429 336.001C435.667 337.168 449.3 345.601 450.5 370.001V374.001H311V365.501Z" fill="#57BB6D"/>
<path d="M716 365.469L690.882 362.96C683.525 356.689 672.033 342.338 680.955 332.298C681.703 331.575 682.399 330.92 683.032 330.341C682.243 330.971 681.553 331.625 680.955 332.298C672.847 340.143 658.71 356.018 653.728 369.985L645.878 346.901L644.308 369.985C639.947 352.923 628.923 320.405 619.713 326.828C625.295 329.505 634.784 341.883 628.086 369.985L610.817 346.901L612.91 369.985L605.061 357.942L592.502 369.985C587.618 360.451 580.78 340.277 592.502 335.861C585.524 337.032 571.256 345.496 570 369.985V374H716V365.469Z" fill="#57BB6D"/>
<path d="M455.77 156.242L463.168 136.204C418.703 148.669 397.079 119.087 401.165 103.183C365.45 93.0899 382.902 64.3323 401.528 60.9407C404.268 18.9041 442.792 25.5271 462.119 32.2345C482.505 2.55847 521.633 18.6686 531.895 33.4657C585.744 19.4039 614.126 61.4149 601.955 77.5853C627.143 104.112 610.166 119.407 592.156 121.091C593.19 149.81 563 141.437 547.578 137.597C529.618 155.598 498.59 147.811 487.936 140.421L455.77 156.242Z" fill="white"/>
<path d="M250.895 165.746L243.496 145.708C287.961 158.173 309.585 128.591 305.5 112.687C341.214 102.594 323.762 73.8362 305.136 70.4446C302.396 28.408 263.872 35.031 244.545 41.7384C224.159 12.0624 185.031 28.1725 174.769 42.9696C120.92 28.9078 92.5383 70.9188 104.709 87.0892C79.5215 113.616 96.4985 128.911 114.508 130.595C113.474 159.314 143.664 150.941 159.086 147.101C177.046 165.102 208.074 157.315 218.728 149.925L250.895 165.746Z" fill="white"/>
<path d="M150.157 82.573H138.082V80.618H152.618V84.62C152.618 85.126 152.511 85.4863 152.296 85.701C152.097 85.9157 151.713 86.023 151.146 86.023H140.543V87.012C140.543 87.2727 140.612 87.4413 140.75 87.518C140.888 87.5947 141.133 87.6483 141.486 87.679C142.023 87.725 142.498 87.7557 142.912 87.771C143.341 87.7863 143.832 87.794 144.384 87.794C144.997 87.794 145.687 87.7787 146.454 87.748C147.221 87.7173 148.003 87.6713 148.8 87.61C149.597 87.5487 150.379 87.472 151.146 87.38C151.928 87.288 152.626 87.1807 153.239 87.058L153.469 88.415C153.5 88.6143 153.477 88.76 153.4 88.852C153.339 88.9593 153.193 89.036 152.963 89.082C152.35 89.1893 151.667 89.2813 150.916 89.358C150.165 89.45 149.398 89.519 148.616 89.565C147.834 89.6263 147.067 89.6723 146.316 89.703C145.565 89.7337 144.89 89.749 144.292 89.749C143.755 89.749 143.226 89.7413 142.705 89.726C142.184 89.726 141.655 89.703 141.118 89.657C140.581 89.611 140.121 89.542 139.738 89.45C139.37 89.3733 139.056 89.2507 138.795 89.082C138.55 88.9287 138.366 88.714 138.243 88.438C138.136 88.1773 138.082 87.8323 138.082 87.403V84.068H149.789C150.034 84.068 150.157 83.9453 150.157 83.7V82.573ZM136.035 79.146C135.851 79.146 135.721 79.1077 135.644 79.031C135.583 78.9543 135.552 78.8317 135.552 78.663V77.099H155.148V78.663C155.148 78.8317 155.11 78.9543 155.033 79.031C154.972 79.1077 154.849 79.146 154.665 79.146H136.035ZM138.68 70.958C138.496 70.958 138.366 70.9197 138.289 70.843C138.228 70.7663 138.197 70.6437 138.197 70.475V68.957H150.778C151.468 68.957 151.966 69.095 152.273 69.371C152.595 69.647 152.748 70.13 152.733 70.82C152.718 71.832 152.641 72.7213 152.503 73.488C152.38 74.2393 152.196 74.9677 151.951 75.673C151.874 75.8877 151.782 76.0257 151.675 76.087C151.568 76.133 151.384 76.133 151.123 76.087L149.398 75.673C149.613 74.983 149.789 74.3007 149.927 73.626C150.08 72.9513 150.18 72.2843 150.226 71.625C150.257 71.3643 150.218 71.188 150.111 71.096C150.004 71.004 149.804 70.958 149.513 70.958H138.68ZM170.061 75.42H172.039V68.336H174.5V89.082C174.5 89.404 174.339 89.565 174.017 89.565H172.039V77.49H170.061V87.932C170.061 88.254 169.9 88.415 169.578 88.415H167.6V68.796H170.061V75.42ZM162.655 84.919C162.41 85.2717 162.134 85.3253 161.827 85.08L160.332 84.137C161.022 83.2323 161.574 82.2663 161.988 81.239C162.402 80.1963 162.724 79.169 162.954 78.157C163.184 77.145 163.337 76.179 163.414 75.259C163.491 74.339 163.529 73.5493 163.529 72.89V72.499C163.529 72.2383 163.483 72.062 163.391 71.97C163.299 71.878 163.107 71.832 162.816 71.832H161.896C161.712 71.832 161.582 71.7937 161.505 71.717C161.444 71.6403 161.413 71.5177 161.413 71.349V69.785H164.058C164.794 69.785 165.3 69.946 165.576 70.268C165.867 70.5747 166.013 71.0653 166.013 71.74C166.013 72.706 165.967 73.7487 165.875 74.868C165.798 75.972 165.637 77.099 165.392 78.249C165.162 79.399 164.825 80.5413 164.38 81.676C163.935 82.8107 163.36 83.8917 162.655 84.919ZM157.572 83.309C157.327 83.6617 157.051 83.7153 156.744 83.47L155.318 82.527C156.008 81.6223 156.552 80.7253 156.951 79.836C157.365 78.9313 157.679 78.065 157.894 77.237C158.124 76.409 158.27 75.627 158.331 74.891C158.408 74.155 158.446 73.488 158.446 72.89V72.499C158.446 72.2383 158.4 72.062 158.308 71.97C158.216 71.878 158.024 71.832 157.733 71.832H156.537C156.353 71.832 156.223 71.7937 156.146 71.717C156.085 71.6403 156.054 71.5177 156.054 71.349V69.785H158.975C159.711 69.785 160.217 69.946 160.493 70.268C160.784 70.5747 160.93 71.0653 160.93 71.74C160.93 72.706 160.884 73.672 160.792 74.638C160.715 75.5887 160.554 76.547 160.309 77.513C160.079 78.4637 159.742 79.422 159.297 80.388C158.852 81.354 158.277 82.3277 157.572 83.309ZM188.24 69.67V80.043C188.24 81.193 187.803 82.1207 186.929 82.826C186.07 83.516 184.675 83.861 182.743 83.861C180.826 83.861 179.439 83.516 178.58 82.826C177.737 82.1207 177.315 81.193 177.315 80.043V69.67H179.799V74.454H185.756V69.67H188.24ZM194.519 89.082C194.519 89.404 194.358 89.565 194.036 89.565H192.058V68.336H194.519V89.082ZM182.743 81.814C183.188 81.814 183.594 81.791 183.962 81.745C184.33 81.6837 184.644 81.584 184.905 81.446C185.181 81.308 185.388 81.1163 185.526 80.871C185.679 80.6103 185.756 80.273 185.756 79.859V76.501H179.799V79.859C179.799 80.273 179.868 80.6103 180.006 80.871C180.159 81.1163 180.366 81.308 180.627 81.446C180.888 81.584 181.194 81.6837 181.547 81.745C181.915 81.791 182.314 81.814 182.743 81.814ZM203.458 73.35C203.458 72.706 203.589 72.131 203.849 71.625C204.11 71.119 204.478 70.6897 204.953 70.337C205.429 69.969 206.004 69.693 206.678 69.509C207.368 69.3097 208.143 69.21 209.001 69.21C210.719 69.21 212.076 69.578 213.072 70.314C214.069 71.0347 214.567 72.0467 214.567 73.35C214.567 74.4693 214.192 75.3817 213.44 76.087C212.689 76.7923 211.646 77.237 210.312 77.421V78.824C211.462 78.7473 212.597 78.6477 213.716 78.525C214.836 78.387 215.901 78.2337 216.913 78.065V68.336H219.374V73.35H222.226V74.937C222.226 75.1057 222.188 75.2283 222.111 75.305C222.05 75.3817 221.927 75.42 221.743 75.42H219.374V81.262C219.374 81.584 219.213 81.745 218.891 81.745H216.913V80.066C215.886 80.25 214.751 80.411 213.509 80.549C212.267 80.687 211.018 80.8097 209.76 80.917C208.503 81.009 207.284 81.0857 206.103 81.147C204.938 81.193 203.918 81.216 203.044 81.216C202.83 81.216 202.676 81.1853 202.584 81.124C202.492 81.0627 202.431 80.9093 202.4 80.664L202.17 79.192C202.998 79.1767 203.888 79.1537 204.838 79.123C205.804 79.0923 206.801 79.0463 207.828 78.985V77.421C206.464 77.2523 205.39 76.8153 204.608 76.11C203.842 75.4047 203.458 74.4847 203.458 73.35ZM205.459 85.862C205.459 84.6507 206.065 83.6923 207.276 82.987C208.503 82.2817 210.328 81.929 212.75 81.929C215.173 81.929 216.99 82.2817 218.201 82.987C219.428 83.6923 220.041 84.6507 220.041 85.862C220.041 87.0733 219.428 88.0317 218.201 88.737C216.99 89.4423 215.173 89.795 212.75 89.795C210.328 89.795 208.503 89.4423 207.276 88.737C206.065 88.0317 205.459 87.0733 205.459 85.862ZM217.58 85.862C217.58 85.218 217.166 84.7427 216.338 84.436C215.51 84.114 214.314 83.953 212.75 83.953C211.186 83.953 209.99 84.114 209.162 84.436C208.334 84.7427 207.92 85.218 207.92 85.862C207.92 86.506 208.334 86.9813 209.162 87.288C209.99 87.61 211.186 87.771 212.75 87.771C214.314 87.771 215.51 87.61 216.338 87.288C217.166 86.9813 217.58 86.506 217.58 85.862ZM212.129 73.35C212.129 72.752 211.884 72.2613 211.393 71.878C210.903 71.4947 210.105 71.303 209.001 71.303C207.943 71.303 207.161 71.4947 206.655 71.878C206.149 72.2613 205.896 72.7443 205.896 73.327C205.896 73.9403 206.149 74.4387 206.655 74.822C207.161 75.2053 207.943 75.397 209.001 75.397C210.105 75.397 210.903 75.2053 211.393 74.822C211.884 74.4387 212.129 73.948 212.129 73.35ZM225.432 84.045C225.248 84.045 225.118 84.0067 225.041 83.93C224.98 83.8533 224.949 83.7307 224.949 83.562V82.044H231.09V79.491H223.017C222.833 79.491 222.703 79.4527 222.626 79.376C222.565 79.2993 222.534 79.1767 222.534 79.008V77.444H242.13V79.008C242.13 79.1767 242.092 79.2993 242.015 79.376C241.954 79.4527 241.831 79.491 241.647 79.491H233.574V82.044H239.6V89.174C239.6 89.496 239.439 89.657 239.117 89.657H237.139V84.045H225.432ZM225.662 70.958C225.478 70.958 225.348 70.9197 225.271 70.843C225.21 70.7663 225.179 70.6437 225.179 70.475V68.957H237.76C238.45 68.957 238.949 69.095 239.255 69.371C239.577 69.647 239.731 70.13 239.715 70.82C239.715 71.326 239.7 71.8013 239.669 72.246C239.639 72.6753 239.6 73.1047 239.554 73.534C239.508 73.948 239.439 74.3697 239.347 74.799C239.271 75.2283 239.171 75.673 239.048 76.133C238.987 76.3477 238.895 76.4857 238.772 76.547C238.665 76.593 238.481 76.593 238.22 76.547L236.495 76.225C236.71 75.4277 236.871 74.684 236.978 73.994C237.086 73.304 237.162 72.5143 237.208 71.625C237.224 71.3643 237.178 71.188 237.07 71.096C236.978 71.004 236.787 70.958 236.495 70.958H225.662ZM243.266 79.606C243.082 79.606 242.952 79.5677 242.875 79.491C242.814 79.4143 242.783 79.2917 242.783 79.123V77.559H262.379V79.123C262.379 79.2917 262.341 79.4143 262.264 79.491C262.203 79.5677 262.08 79.606 261.896 79.606H243.266ZM257.388 83.033H245.313V81.078H259.849V84.85C259.849 85.356 259.742 85.7163 259.527 85.931C259.328 86.1457 258.945 86.253 258.377 86.253H247.774V87.012C247.774 87.2727 247.843 87.4413 247.981 87.518C248.119 87.5947 248.365 87.6483 248.717 87.679C249.254 87.725 249.729 87.7557 250.143 87.771C250.573 87.7863 251.063 87.794 251.615 87.794C252.229 87.794 252.919 87.7787 253.685 87.748C254.452 87.7173 255.234 87.6713 256.031 87.61C256.829 87.5487 257.611 87.472 258.377 87.38C259.159 87.288 259.857 87.1807 260.47 87.058L260.7 88.415C260.731 88.6143 260.708 88.76 260.631 88.852C260.57 88.9593 260.424 89.036 260.194 89.082C259.581 89.1893 258.899 89.2813 258.147 89.358C257.396 89.45 256.629 89.519 255.847 89.565C255.065 89.6263 254.299 89.6723 253.547 89.703C252.796 89.7337 252.121 89.749 251.523 89.749C250.987 89.749 250.458 89.7413 249.936 89.726C249.415 89.726 248.886 89.703 248.349 89.657C247.813 89.611 247.353 89.542 246.969 89.45C246.601 89.3733 246.287 89.2507 246.026 89.082C245.781 88.9287 245.597 88.714 245.474 88.438C245.367 88.1773 245.313 87.8323 245.313 87.403V84.298H257.02C257.266 84.298 257.388 84.1753 257.388 83.93V83.033ZM259.941 72.269C259.941 74.8757 257.488 76.179 252.581 76.179C250.159 76.179 248.319 75.857 247.061 75.213C245.819 74.569 245.198 73.5877 245.198 72.269C245.198 70.9503 245.819 69.969 247.061 69.325C248.319 68.681 250.159 68.359 252.581 68.359C257.488 68.359 259.941 69.6623 259.941 72.269ZM252.581 70.337C249.315 70.337 247.682 70.981 247.682 72.269C247.682 73.557 249.315 74.201 252.581 74.201C255.832 74.201 257.457 73.557 257.457 72.269C257.457 70.981 255.832 70.337 252.581 70.337ZM136.035 116.805C135.851 116.805 135.721 116.767 135.644 116.69C135.583 116.613 135.552 116.491 135.552 116.322V114.758H143.119V107.145H145.58V114.758H155.148V116.322C155.148 116.491 155.11 116.613 155.033 116.69C154.972 116.767 154.849 116.805 154.665 116.805H136.035ZM138.68 101.97C138.496 101.97 138.366 101.932 138.289 101.855C138.228 101.778 138.197 101.656 138.197 101.487V99.946H150.778C151.468 99.946 151.966 100.084 152.273 100.36C152.595 100.636 152.748 101.119 152.733 101.809C152.733 102.484 152.702 103.227 152.641 104.04C152.595 104.853 152.526 105.673 152.434 106.501C152.342 107.314 152.235 108.119 152.112 108.916C151.989 109.698 151.859 110.403 151.721 111.032C151.675 111.247 151.591 111.385 151.468 111.446C151.345 111.492 151.154 111.492 150.893 111.446L149.168 111.124C149.306 110.48 149.436 109.805 149.559 109.1C149.682 108.379 149.789 107.651 149.881 106.915C149.973 106.179 150.05 105.451 150.111 104.73C150.172 104.009 150.211 103.312 150.226 102.637C150.241 102.376 150.195 102.2 150.088 102.108C149.996 102.016 149.804 101.97 149.513 101.97H138.68ZM164.127 103.235V103.373C164.127 105.305 164.579 107.076 165.484 108.686C166.389 110.281 167.7 111.615 169.417 112.688L168.382 114.045C168.183 114.29 167.937 114.306 167.646 114.091C166.619 113.309 165.691 112.45 164.863 111.515C164.035 110.58 163.368 109.537 162.862 108.387C162.341 109.552 161.651 110.641 160.792 111.653C159.949 112.65 158.967 113.539 157.848 114.321C157.557 114.52 157.311 114.505 157.112 114.275L156.077 112.918C156.92 112.381 157.687 111.768 158.377 111.078C159.067 110.373 159.65 109.614 160.125 108.801C160.6 107.973 160.968 107.107 161.229 106.202C161.49 105.282 161.62 104.339 161.62 103.373V103.235H157.618C157.434 103.235 157.304 103.197 157.227 103.12C157.166 103.043 157.135 102.921 157.135 102.752V101.165H161.62V98.681H164.127V101.165H168.612V102.752C168.612 102.921 168.574 103.043 168.497 103.12C168.436 103.197 168.313 103.235 168.129 103.235H164.127ZM174.27 119.082C174.27 119.404 174.109 119.565 173.787 119.565H171.809V110.71H168.796C168.612 110.71 168.482 110.672 168.405 110.595C168.344 110.518 168.313 110.396 168.313 110.227V108.64H171.809V106.11H168.796C168.612 106.11 168.482 106.072 168.405 105.995C168.344 105.918 168.313 105.796 168.313 105.627V104.04H171.809V98.336H174.27V119.082ZM194.519 119.082C194.519 119.404 194.358 119.565 194.036 119.565H192.058V115.448H188.217C188.033 115.448 187.903 115.41 187.826 115.333C187.765 115.256 187.734 115.134 187.734 114.965V113.378H192.058V110.664C191.138 110.848 190.088 111.017 188.907 111.17C187.726 111.323 186.507 111.461 185.25 111.584C185.127 112.887 184.974 114.145 184.79 115.356C184.606 116.552 184.391 117.733 184.146 118.898C184.085 119.205 183.901 119.327 183.594 119.266L181.662 118.875C182.214 116.498 182.582 114.137 182.766 111.791C181.723 111.868 180.727 111.921 179.776 111.952C178.841 111.983 178.005 111.998 177.269 111.998C177.054 111.998 176.901 111.967 176.809 111.906C176.717 111.845 176.656 111.691 176.625 111.446L176.395 109.974C177.499 109.959 178.718 109.928 180.052 109.882C181.401 109.821 182.774 109.736 184.169 109.629C185.564 109.522 186.944 109.391 188.309 109.238C189.674 109.085 190.923 108.901 192.058 108.686V98.336H194.519V119.082ZM178.258 101.625C178.074 101.625 177.944 101.587 177.867 101.51C177.806 101.433 177.775 101.311 177.775 101.142V99.555H189.252V101.142C189.252 101.311 189.214 101.433 189.137 101.51C189.076 101.587 188.953 101.625 188.769 101.625H184.79C184.851 102.3 185.035 102.905 185.342 103.442C185.649 103.963 186.032 104.416 186.492 104.799C186.952 105.182 187.466 105.504 188.033 105.765C188.6 106.01 189.183 106.202 189.781 106.34L189.114 107.697C189.022 107.881 188.907 107.988 188.769 108.019C188.631 108.05 188.447 108.027 188.217 107.95C187.266 107.643 186.377 107.214 185.549 106.662C184.721 106.095 184.062 105.412 183.571 104.615C183.295 105.06 182.965 105.481 182.582 105.88C182.199 106.263 181.785 106.616 181.34 106.938C180.895 107.26 180.428 107.544 179.937 107.789C179.462 108.034 178.994 108.234 178.534 108.387C178.319 108.464 178.143 108.494 178.005 108.479C177.882 108.448 177.783 108.349 177.706 108.18L177.016 106.869C177.767 106.624 178.45 106.332 179.063 105.995C179.676 105.658 180.205 105.274 180.65 104.845C181.11 104.416 181.478 103.933 181.754 103.396C182.03 102.859 182.191 102.269 182.237 101.625H178.258ZM214.768 119.082C214.768 119.404 214.607 119.565 214.285 119.565H212.307V107.03H208.604C208.42 107.03 208.29 106.992 208.213 106.915C208.152 106.838 208.121 106.716 208.121 106.547V104.96H212.307V98.336H214.768V119.082ZM198.346 113.861C198.055 114.06 197.809 114.045 197.61 113.815L196.575 112.458C197.418 111.921 198.185 111.308 198.875 110.618C199.565 109.913 200.148 109.154 200.623 108.341C201.098 107.513 201.466 106.647 201.727 105.742C201.988 104.822 202.118 103.879 202.118 102.913V99.578H204.625V102.913C204.625 104.845 205.077 106.616 205.982 108.226C206.887 109.821 208.198 111.155 209.915 112.228L208.88 113.585C208.681 113.83 208.435 113.846 208.144 113.631C207.117 112.849 206.189 111.99 205.361 111.055C204.533 110.12 203.866 109.077 203.36 107.927C202.839 109.092 202.149 110.181 201.29 111.193C200.447 112.19 199.465 113.079 198.346 113.861ZM223.017 116.805C222.833 116.805 222.703 116.767 222.626 116.69C222.565 116.613 222.534 116.491 222.534 116.322V114.758H230.101V107.145H232.562V114.758H242.13V116.322C242.13 116.491 242.092 116.613 242.015 116.69C241.954 116.767 241.831 116.805 241.647 116.805H223.017ZM225.662 101.97C225.478 101.97 225.348 101.932 225.271 101.855C225.21 101.778 225.179 101.656 225.179 101.487V99.946H237.76C238.45 99.946 238.949 100.084 239.255 100.36C239.577 100.636 239.731 101.119 239.715 101.809C239.715 102.484 239.685 103.227 239.623 104.04C239.577 104.853 239.508 105.673 239.416 106.501C239.324 107.314 239.217 108.119 239.094 108.916C238.972 109.698 238.841 110.403 238.703 111.032C238.657 111.247 238.573 111.385 238.45 111.446C238.328 111.492 238.136 111.492 237.875 111.446L236.15 111.124C236.288 110.48 236.419 109.805 236.541 109.1C236.664 108.379 236.771 107.651 236.863 106.915C236.955 106.179 237.032 105.451 237.093 104.73C237.155 104.009 237.193 103.312 237.208 102.637C237.224 102.376 237.178 102.2 237.07 102.108C236.978 102.016 236.787 101.97 236.495 101.97H225.662ZM249.246 113.861C247.33 113.861 245.942 113.516 245.083 112.826C244.24 112.121 243.818 111.193 243.818 110.043V99.785H254.743V110.043C254.743 111.193 254.306 112.121 253.432 112.826C252.574 113.516 251.178 113.861 249.246 113.861ZM259.872 105.42H262.724V107.007C262.724 107.176 262.686 107.298 262.609 107.375C262.548 107.452 262.425 107.49 262.241 107.49H259.872V119.082C259.872 119.404 259.711 119.565 259.389 119.565H257.411V98.336H259.872V105.42ZM249.246 111.814C249.691 111.814 250.097 111.791 250.465 111.745C250.833 111.684 251.148 111.584 251.408 111.446C251.684 111.308 251.891 111.116 252.029 110.871C252.183 110.61 252.259 110.273 252.259 109.859V101.832H246.302V109.859C246.302 110.273 246.371 110.61 246.509 110.871C246.663 111.116 246.87 111.308 247.13 111.446C247.391 111.584 247.698 111.684 248.05 111.745C248.418 111.791 248.817 111.814 249.246 111.814ZM281.501 119.082C281.501 119.404 281.34 119.565 281.018 119.565H279.04V115.448H275.199C275.015 115.448 274.885 115.41 274.808 115.333C274.747 115.256 274.716 115.134 274.716 114.965V113.378H279.04V110.664C278.12 110.848 277.07 111.017 275.889 111.17C274.709 111.323 273.49 111.461 272.232 111.584C272.11 112.887 271.956 114.145 271.772 115.356C271.588 116.552 271.374 117.733 271.128 118.898C271.067 119.205 270.883 119.327 270.576 119.266L268.644 118.875C269.196 116.498 269.564 114.137 269.748 111.791C268.706 111.868 267.709 111.921 266.758 111.952C265.823 111.983 264.987 111.998 264.251 111.998C264.037 111.998 263.883 111.967 263.791 111.906C263.699 111.845 263.638 111.691 263.607 111.446L263.377 109.974C264.481 109.959 265.7 109.928 267.034 109.882C268.384 109.821 269.756 109.736 271.151 109.629C272.547 109.522 273.927 109.391 275.291 109.238C276.656 109.085 277.906 108.901 279.04 108.686V98.336H281.501V119.082ZM264.895 103.718C264.895 103.028 265.026 102.407 265.286 101.855C265.547 101.288 265.915 100.812 266.39 100.429C266.866 100.03 267.441 99.7313 268.115 99.532C268.805 99.3173 269.58 99.21 270.438 99.21C272.156 99.21 273.513 99.6087 274.509 100.406C275.506 101.203 276.004 102.307 276.004 103.718C276.004 105.129 275.506 106.233 274.509 107.03C273.513 107.827 272.156 108.226 270.438 108.226C269.58 108.226 268.805 108.126 268.115 107.927C267.441 107.712 266.866 107.413 266.39 107.03C265.915 106.631 265.547 106.156 265.286 105.604C265.026 105.037 264.895 104.408 264.895 103.718ZM273.566 103.718C273.566 102.982 273.321 102.399 272.83 101.97C272.34 101.525 271.542 101.303 270.438 101.303C269.38 101.303 268.598 101.525 268.092 101.97C267.586 102.399 267.333 102.974 267.333 103.695C267.333 104.431 267.586 105.021 268.092 105.466C268.598 105.911 269.38 106.133 270.438 106.133C271.542 106.133 272.34 105.918 272.83 105.489C273.321 105.044 273.566 104.454 273.566 103.718Z" fill="#363635"/>
<path d="M447.512 59.555V61.602H439.761V66.961C439.761 67.329 439.838 67.582 439.991 67.72C440.144 67.8427 440.367 67.904 440.658 67.904C441.179 67.904 441.8 67.8733 442.521 67.812C443.242 67.7353 443.985 67.651 444.752 67.559C445.534 67.4517 446.301 67.3367 447.052 67.214C447.819 67.076 448.501 66.938 449.099 66.8L449.398 68.249C449.475 68.5863 449.329 68.801 448.961 68.893C448.378 69.0157 447.711 69.1383 446.96 69.261C446.224 69.3837 445.465 69.4987 444.683 69.606C443.901 69.698 443.127 69.7747 442.36 69.836C441.609 69.8973 440.934 69.9357 440.336 69.951C439.278 69.9663 438.504 69.767 438.013 69.353C437.522 68.939 437.277 68.249 437.277 67.283V59.555H447.512ZM441.256 73.539C441.072 73.539 440.942 73.5007 440.865 73.424C440.804 73.3473 440.773 73.2247 440.773 73.056V71.538H454.021V79.174C454.021 79.496 453.86 79.657 453.538 79.657H451.56V73.539H441.256ZM454.021 70.112C454.021 70.434 453.86 70.595 453.538 70.595H451.56V65.351H446.707C446.523 65.351 446.393 65.3127 446.316 65.236C446.255 65.1593 446.224 65.0367 446.224 64.868V63.281H451.56V58.336H454.021V70.112ZM472.752 58.842V63.879C472.752 64.6763 472.56 65.3127 472.177 65.788C471.809 66.248 471.295 66.6007 470.636 66.846C469.992 67.076 469.233 67.2217 468.359 67.283C467.5 67.3443 466.58 67.375 465.599 67.375C464.618 67.375 463.69 67.3443 462.816 67.283C461.957 67.2217 461.198 67.076 460.539 66.846C459.895 66.6007 459.381 66.248 458.998 65.788C458.63 65.3127 458.446 64.6763 458.446 63.879V58.842H460.884V60.797H470.314V58.842H472.752ZM456.284 71.101C456.1 71.101 455.97 71.0627 455.893 70.986C455.832 70.9093 455.801 70.7867 455.801 70.618V69.054H475.397V70.618C475.397 70.7867 475.359 70.9093 475.282 70.986C475.221 71.0627 475.098 71.101 474.914 71.101H467.301V74.643C467.301 74.965 467.14 75.126 466.818 75.126H464.817V71.101H456.284ZM464.794 77.679C465.407 77.679 466.074 77.656 466.795 77.61C467.531 77.5793 468.275 77.5333 469.026 77.472C469.777 77.4107 470.513 77.334 471.234 77.242C471.97 77.15 472.645 77.0427 473.258 76.92L473.488 78.3C473.549 78.7293 473.381 78.9823 472.982 79.059C472.369 79.151 471.702 79.2353 470.981 79.312C470.276 79.404 469.555 79.4807 468.819 79.542C468.098 79.6033 467.378 79.6493 466.657 79.68C465.952 79.7107 465.3 79.726 464.702 79.726C464.165 79.726 463.613 79.7107 463.046 79.68C462.479 79.6647 461.927 79.6263 461.39 79.565C460.332 79.4423 459.558 79.174 459.067 78.76C458.576 78.346 458.331 77.656 458.331 76.69V72.757H460.769V76.299C460.769 76.6823 460.838 76.966 460.976 77.15C461.129 77.334 461.382 77.449 461.735 77.495C462.272 77.5717 462.778 77.6177 463.253 77.633C463.728 77.6637 464.242 77.679 464.794 77.679ZM465.599 65.374C466.258 65.374 466.872 65.374 467.439 65.374C468.022 65.3587 468.528 65.305 468.957 65.213C469.386 65.1057 469.716 64.9447 469.946 64.73C470.191 64.5 470.314 64.178 470.314 63.764V62.798H460.884V63.764C460.884 64.178 460.999 64.5 461.229 64.73C461.474 64.9447 461.812 65.1057 462.241 65.213C462.67 65.305 463.169 65.3587 463.736 65.374C464.303 65.374 464.924 65.374 465.599 65.374ZM490.54 77.932C490.54 78.254 490.379 78.415 490.057 78.415H488.079V67.03H486.423C486.408 68.042 486.316 68.9927 486.147 69.882C485.978 70.756 485.702 71.5227 485.319 72.182C484.936 72.826 484.43 73.3397 483.801 73.723C483.188 74.091 482.429 74.275 481.524 74.275C480.604 74.275 479.83 74.0833 479.201 73.7C478.572 73.3167 478.066 72.7877 477.683 72.113C477.3 71.4383 477.024 70.6487 476.855 69.744C476.702 68.824 476.625 67.8427 476.625 66.8C476.625 65.7573 476.702 64.7837 476.855 63.879C477.024 62.959 477.3 62.1617 477.683 61.487C478.066 60.8123 478.572 60.2833 479.201 59.9C479.83 59.5167 480.604 59.325 481.524 59.325C482.306 59.325 482.981 59.4707 483.548 59.762C484.115 60.038 484.591 60.429 484.974 60.935C485.357 61.4257 485.656 62.016 485.871 62.706C486.101 63.396 486.254 64.1473 486.331 64.96H488.079V58.796H490.54V77.932ZM494.749 79.082C494.749 79.404 494.588 79.565 494.266 79.565H492.288V58.336H494.749V79.082ZM481.524 72.136C481.999 72.136 482.39 72.0057 482.697 71.745C483.019 71.4843 483.272 71.124 483.456 70.664C483.64 70.1887 483.77 69.6213 483.847 68.962C483.924 68.3027 483.962 67.582 483.962 66.8C483.962 66.018 483.924 65.2973 483.847 64.638C483.77 63.9787 483.64 63.419 483.456 62.959C483.272 62.4837 483.019 62.1157 482.697 61.855C482.39 61.5943 481.999 61.464 481.524 61.464C481.049 61.464 480.65 61.5943 480.328 61.855C480.021 62.1157 479.776 62.4837 479.592 62.959C479.408 63.419 479.278 63.9787 479.201 64.638C479.124 65.2973 479.086 66.018 479.086 66.8C479.086 67.582 479.124 68.3027 479.201 68.962C479.278 69.6213 479.408 70.1887 479.592 70.664C479.776 71.124 480.021 71.4843 480.328 71.745C480.65 72.0057 481.049 72.136 481.524 72.136ZM516.545 65.42H518.523V58.336H520.984V79.082C520.984 79.404 520.823 79.565 520.501 79.565H518.523V67.49H516.545V77.932C516.545 78.254 516.384 78.415 516.062 78.415H514.084V58.796H516.545V65.42ZM509.139 74.919C508.894 75.2717 508.618 75.3253 508.311 75.08L506.816 74.137C507.506 73.2323 508.058 72.2663 508.472 71.239C508.886 70.1963 509.208 69.169 509.438 68.157C509.668 67.145 509.822 66.179 509.898 65.259C509.975 64.339 510.013 63.5493 510.013 62.89V62.499C510.013 62.2383 509.967 62.062 509.875 61.97C509.783 61.878 509.592 61.832 509.3 61.832H508.38C508.196 61.832 508.066 61.7937 507.989 61.717C507.928 61.6403 507.897 61.5177 507.897 61.349V59.785H510.542C511.278 59.785 511.784 59.946 512.06 60.268C512.352 60.5747 512.497 61.0653 512.497 61.74C512.497 62.706 512.451 63.7487 512.359 64.868C512.283 65.972 512.122 67.099 511.876 68.249C511.646 69.399 511.309 70.5413 510.864 71.676C510.42 72.8107 509.845 73.8917 509.139 74.919ZM504.056 73.309C503.811 73.6617 503.535 73.7153 503.228 73.47L501.802 72.527C502.492 71.6223 503.037 70.7253 503.435 69.836C503.849 68.9313 504.164 68.065 504.378 67.237C504.608 66.409 504.754 65.627 504.815 64.891C504.892 64.155 504.93 63.488 504.93 62.89V62.499C504.93 62.2383 504.884 62.062 504.792 61.97C504.7 61.878 504.509 61.832 504.217 61.832H503.021C502.837 61.832 502.707 61.7937 502.63 61.717C502.569 61.6403 502.538 61.5177 502.538 61.349V59.785H505.459C506.195 59.785 506.701 59.946 506.977 60.268C507.269 60.5747 507.414 61.0653 507.414 61.74C507.414 62.706 507.368 63.672 507.276 64.638C507.2 65.5887 507.039 66.547 506.793 67.513C506.563 68.4637 506.226 69.422 505.781 70.388C505.337 71.354 504.762 72.3277 504.056 73.309ZM534.724 59.67V70.043C534.724 71.193 534.287 72.1207 533.413 72.826C532.555 73.516 531.159 73.861 529.227 73.861C527.311 73.861 525.923 73.516 525.064 72.826C524.221 72.1207 523.799 71.193 523.799 70.043V59.67H526.283V64.454H532.24V59.67H534.724ZM541.003 79.082C541.003 79.404 540.842 79.565 540.52 79.565H538.542V58.336H541.003V79.082ZM529.227 71.814C529.672 71.814 530.078 71.791 530.446 71.745C530.814 71.6837 531.129 71.584 531.389 71.446C531.665 71.308 531.872 71.1163 532.01 70.871C532.164 70.6103 532.24 70.273 532.24 69.859V66.501H526.283V69.859C526.283 70.273 526.352 70.6103 526.49 70.871C526.644 71.1163 526.851 71.308 527.111 71.446C527.372 71.584 527.679 71.6837 528.031 71.745C528.399 71.791 528.798 71.814 529.227 71.814ZM545.428 64.753H556.928C557.128 64.753 557.227 64.6303 557.227 64.385V61.993H545.428V59.946H559.711V65.397C559.711 65.903 559.604 66.2633 559.389 66.478C559.19 66.6927 558.807 66.8 558.239 66.8H547.889V68.226C547.889 68.6093 547.958 68.893 548.096 69.077C548.25 69.261 548.503 69.376 548.855 69.422C549.392 69.4987 549.875 69.5523 550.304 69.583C550.734 69.5983 551.224 69.606 551.776 69.606C552.39 69.606 553.034 69.5907 553.708 69.56C554.398 69.5293 555.088 69.4833 555.778 69.422C556.484 69.3607 557.174 69.2917 557.848 69.215C558.538 69.123 559.19 69.0233 559.803 68.916L560.01 70.227C560.072 70.6563 559.903 70.9093 559.504 70.986C558.615 71.1547 557.68 71.2927 556.698 71.4C555.732 71.5073 554.774 71.5763 553.823 71.607V74.758H562.379V76.322C562.379 76.4907 562.341 76.6133 562.264 76.69C562.203 76.7667 562.08 76.805 561.896 76.805H543.266C543.082 76.805 542.952 76.7667 542.875 76.69C542.814 76.6133 542.783 76.4907 542.783 76.322V74.758H551.339V71.653C550.864 71.653 550.389 71.6453 549.913 71.63C549.438 71.5993 548.963 71.5533 548.487 71.492C547.429 71.3693 546.655 71.101 546.164 70.687C545.674 70.273 545.428 69.583 545.428 68.617V64.753ZM436.035 99.721C435.851 99.721 435.721 99.6827 435.644 99.606C435.583 99.5293 435.552 99.4067 435.552 99.238V97.674H444.108V96.11C443.633 96.11 443.157 96.1023 442.682 96.087C442.207 96.0563 441.731 96.0103 441.256 95.949C440.198 95.8263 439.424 95.558 438.933 95.144C438.442 94.73 438.197 94.04 438.197 93.074V88.957H452.273V90.912H440.658V92.775C440.658 93.1583 440.727 93.442 440.865 93.626C441.018 93.81 441.271 93.925 441.624 93.971C442.161 94.0477 442.644 94.1013 443.073 94.132C443.502 94.1473 443.993 94.155 444.545 94.155C445.158 94.155 445.802 94.1397 446.477 94.109C447.167 94.0783 447.857 94.04 448.547 93.994C449.252 93.9327 449.942 93.8637 450.617 93.787C451.307 93.695 451.959 93.5953 452.572 93.488L452.779 94.684C452.84 95.1133 452.672 95.3663 452.273 95.443C451.384 95.6117 450.448 95.7497 449.467 95.857C448.501 95.9643 447.543 96.0333 446.592 96.064V97.674H455.148V99.238C455.148 99.4067 455.11 99.5293 455.033 99.606C454.972 99.6827 454.849 99.721 454.665 99.721H436.035ZM450.157 103.033H438.082V101.078H452.618V104.85C452.618 105.356 452.511 105.716 452.296 105.931C452.097 106.146 451.713 106.253 451.146 106.253H440.543V107.012C440.543 107.273 440.612 107.441 440.75 107.518C440.888 107.595 441.133 107.648 441.486 107.679C442.023 107.725 442.498 107.756 442.912 107.771C443.341 107.786 443.832 107.794 444.384 107.794C444.997 107.794 445.687 107.779 446.454 107.748C447.221 107.717 448.003 107.671 448.8 107.61C449.597 107.549 450.379 107.472 451.146 107.38C451.928 107.288 452.626 107.181 453.239 107.058L453.469 108.415C453.5 108.614 453.477 108.76 453.4 108.852C453.339 108.959 453.193 109.036 452.963 109.082C452.35 109.189 451.667 109.281 450.916 109.358C450.165 109.45 449.398 109.519 448.616 109.565C447.834 109.626 447.067 109.672 446.316 109.703C445.565 109.734 444.89 109.749 444.292 109.749C443.755 109.749 443.226 109.741 442.705 109.726C442.184 109.726 441.655 109.703 441.118 109.657C440.581 109.611 440.121 109.542 439.738 109.45C439.37 109.373 439.056 109.251 438.795 109.082C438.55 108.929 438.366 108.714 438.243 108.438C438.136 108.177 438.082 107.832 438.082 107.403V104.298H449.789C450.034 104.298 450.157 104.175 450.157 103.93V103.033ZM462.195 104.275C461.214 104.275 460.37 104.099 459.665 103.746C458.96 103.378 458.377 102.864 457.917 102.205C457.472 101.546 457.143 100.756 456.928 99.836C456.713 98.916 456.606 97.904 456.606 96.8C456.606 95.696 456.713 94.684 456.928 93.764C457.143 92.844 457.472 92.0543 457.917 91.395C458.377 90.7357 458.96 90.2297 459.665 89.877C460.37 89.509 461.214 89.325 462.195 89.325C463.176 89.325 464.02 89.509 464.725 89.877C465.43 90.2297 466.005 90.7357 466.45 91.395C466.91 92.0543 467.247 92.844 467.462 93.764C467.677 94.684 467.784 95.696 467.784 96.8C467.784 97.904 467.677 98.916 467.462 99.836C467.247 100.756 466.91 101.546 466.45 102.205C466.005 102.864 465.43 103.378 464.725 103.746C464.02 104.099 463.176 104.275 462.195 104.275ZM472.89 95.42H475.742V97.007C475.742 97.1757 475.704 97.2983 475.627 97.375C475.566 97.4517 475.443 97.49 475.259 97.49H472.89V109.082C472.89 109.404 472.729 109.565 472.407 109.565H470.429V88.336H472.89V95.42ZM462.195 102.136C463.268 102.136 464.058 101.676 464.564 100.756C465.07 99.8207 465.323 98.502 465.323 96.8C465.323 95.098 465.07 93.787 464.564 92.867C464.058 91.9317 463.268 91.464 462.195 91.464C461.122 91.464 460.332 91.9317 459.826 92.867C459.32 93.787 459.067 95.098 459.067 96.8C459.067 98.502 459.32 99.8207 459.826 100.756C460.332 101.676 461.122 102.136 462.195 102.136ZM476.533 99.721C476.349 99.721 476.219 99.6827 476.142 99.606C476.081 99.5293 476.05 99.4067 476.05 99.238V97.674H484.606V96.156C482.582 96.0487 481.049 95.673 480.006 95.029C478.979 94.385 478.465 93.465 478.465 92.269C478.465 90.9503 479.086 89.969 480.328 89.325C481.585 88.681 483.425 88.359 485.848 88.359C490.755 88.359 493.208 89.6623 493.208 92.269C493.208 94.6457 491.169 95.9413 487.09 96.156V97.674H495.646V99.238C495.646 99.4067 495.608 99.5293 495.531 99.606C495.47 99.6827 495.347 99.721 495.163 99.721H476.533ZM490.655 103.033H478.58V101.078H493.116V104.85C493.116 105.356 493.009 105.716 492.794 105.931C492.595 106.146 492.211 106.253 491.644 106.253H481.041V107.012C481.041 107.273 481.11 107.441 481.248 107.518C481.386 107.595 481.631 107.648 481.984 107.679C482.521 107.725 482.996 107.756 483.41 107.771C483.839 107.786 484.33 107.794 484.882 107.794C485.495 107.794 486.185 107.779 486.952 107.748C487.719 107.717 488.501 107.671 489.298 107.61C490.095 107.549 490.877 107.472 491.644 107.38C492.426 107.288 493.124 107.181 493.737 107.058L493.967 108.415C493.998 108.614 493.975 108.76 493.898 108.852C493.837 108.959 493.691 109.036 493.461 109.082C492.848 109.189 492.165 109.281 491.414 109.358C490.663 109.45 489.896 109.519 489.114 109.565C488.332 109.626 487.565 109.672 486.814 109.703C486.063 109.734 485.388 109.749 484.79 109.749C484.253 109.749 483.724 109.741 483.203 109.726C482.682 109.726 482.153 109.703 481.616 109.657C481.079 109.611 480.619 109.542 480.236 109.45C479.868 109.373 479.554 109.251 479.293 109.082C479.048 108.929 478.864 108.714 478.741 108.438C478.634 108.177 478.58 107.832 478.58 107.403V104.298H490.287C490.532 104.298 490.655 104.175 490.655 103.93V103.033ZM485.848 90.337C482.582 90.337 480.949 90.981 480.949 92.269C480.949 93.557 482.582 94.201 485.848 94.201C489.099 94.201 490.724 93.557 490.724 92.269C490.724 90.981 489.099 90.337 485.848 90.337ZM507.316 102.734V109.082C507.316 109.404 507.155 109.565 506.833 109.565H504.855V102.734H496.782C496.598 102.734 496.468 102.696 496.391 102.619C496.33 102.542 496.299 102.42 496.299 102.251V100.687H515.895V102.251C515.895 102.42 515.857 102.542 515.78 102.619C515.719 102.696 515.596 102.734 515.412 102.734H507.316ZM513.066 98.387C511.456 98.019 510.045 97.4593 508.834 96.708C507.623 95.9413 506.703 94.9983 506.074 93.879C505.43 95.075 504.479 96.0487 503.222 96.8C501.98 97.536 500.592 98.0727 499.059 98.41C498.768 98.4713 498.568 98.3793 498.461 98.134L497.817 96.593C498.737 96.409 499.619 96.1483 500.462 95.811C501.305 95.4737 502.049 95.0443 502.693 94.523C503.337 93.9863 503.851 93.3423 504.234 92.591C504.633 91.8243 504.832 90.935 504.832 89.923V89.256H507.362V89.923C507.362 90.935 507.554 91.8243 507.937 92.591C508.336 93.3423 508.857 93.9863 509.501 94.523C510.145 95.0443 510.889 95.4737 511.732 95.811C512.575 96.1483 513.457 96.409 514.377 96.593L513.733 98.134C513.672 98.272 513.595 98.364 513.503 98.41C513.411 98.4407 513.265 98.433 513.066 98.387ZM517.583 94.201C517.583 93.4037 517.721 92.6753 517.997 92.016C518.288 91.3413 518.679 90.7663 519.17 90.291C519.676 89.8157 520.266 89.4477 520.941 89.187C521.616 88.9263 522.344 88.796 523.126 88.796C523.908 88.796 524.636 88.9263 525.311 89.187C525.986 89.4477 526.576 89.8157 527.082 90.291C527.588 90.7663 527.979 91.3413 528.255 92.016C528.546 92.6753 528.692 93.4037 528.692 94.201C528.692 95.0137 528.546 95.7497 528.255 96.409C527.979 97.0683 527.588 97.6357 527.082 98.111C526.576 98.5863 525.986 98.9543 525.311 99.215C524.636 99.4757 523.908 99.606 523.126 99.606C522.344 99.606 521.616 99.4757 520.941 99.215C520.266 98.9543 519.676 98.5863 519.17 98.111C518.679 97.6357 518.288 97.0683 517.997 96.409C517.721 95.7343 517.583 94.9983 517.583 94.201ZM527.404 110.117C526.576 109.718 525.825 109.189 525.15 108.53C524.491 107.871 523.923 107.127 523.448 106.299C523.003 107.066 522.421 107.74 521.7 108.323C520.995 108.921 520.305 109.389 519.63 109.726C519.369 109.864 519.162 109.826 519.009 109.611L517.997 108.208C518.641 107.932 519.224 107.602 519.745 107.219C520.282 106.836 520.734 106.414 521.102 105.954C521.47 105.479 521.754 104.98 521.953 104.459C522.168 103.922 522.275 103.363 522.275 102.78V101.653H524.644V102.78C524.644 103.792 524.882 104.743 525.357 105.632C525.848 106.506 526.522 107.234 527.381 107.817C528.24 107.234 528.914 106.506 529.405 105.632C529.896 104.743 530.141 103.792 530.141 102.78V101.653H532.51V102.78C532.51 103.363 532.61 103.922 532.809 104.459C533.024 104.98 533.315 105.479 533.683 105.954C534.051 106.414 534.496 106.836 535.017 107.219C535.554 107.602 536.144 107.932 536.788 108.208L535.776 109.611C535.623 109.826 535.416 109.864 535.155 109.726C534.818 109.557 534.465 109.35 534.097 109.105C533.744 108.875 533.399 108.614 533.062 108.323C532.725 108.032 532.403 107.71 532.096 107.357C531.805 107.02 531.544 106.659 531.314 106.276C530.839 107.104 530.271 107.848 529.612 108.507C528.953 109.182 528.217 109.718 527.404 110.117ZM526.254 94.201C526.254 93.235 525.978 92.4453 525.426 91.832C524.889 91.2033 524.123 90.889 523.126 90.889C522.666 90.889 522.244 90.9733 521.861 91.142C521.478 91.2953 521.148 91.5177 520.872 91.809C520.596 92.1003 520.381 92.453 520.228 92.867C520.09 93.2657 520.021 93.7027 520.021 94.178C520.021 95.1593 520.305 95.9643 520.872 96.593C521.439 97.2063 522.191 97.513 523.126 97.513C524.123 97.513 524.889 97.2063 525.426 96.593C525.978 95.9643 526.254 95.167 526.254 94.201ZM535.017 100.112C535.017 100.434 534.856 100.595 534.534 100.595H532.556V88.336H535.017V100.112ZM537.832 94.201C537.832 93.4037 537.97 92.6753 538.246 92.016C538.537 91.3413 538.928 90.7663 539.419 90.291C539.925 89.8157 540.515 89.4477 541.19 89.187C541.865 88.9263 542.593 88.796 543.375 88.796C544.157 88.796 544.885 88.9263 545.56 89.187C546.235 89.4477 546.825 89.8157 547.331 90.291C547.837 90.7663 548.228 91.3413 548.504 92.016C548.795 92.6753 548.941 93.4037 548.941 94.201C548.941 95.0137 548.795 95.7497 548.504 96.409C548.228 97.0683 547.837 97.6357 547.331 98.111C546.825 98.5863 546.235 98.9543 545.56 99.215C544.885 99.4757 544.157 99.606 543.375 99.606C542.593 99.606 541.865 99.4757 541.19 99.215C540.515 98.9543 539.925 98.5863 539.419 98.111C538.928 97.6357 538.537 97.0683 538.246 96.409C537.97 95.7343 537.832 94.9983 537.832 94.201ZM547.653 110.117C546.825 109.718 546.074 109.189 545.399 108.53C544.74 107.871 544.172 107.127 543.697 106.299C543.252 107.066 542.67 107.74 541.949 108.323C541.244 108.921 540.554 109.389 539.879 109.726C539.618 109.864 539.411 109.826 539.258 109.611L538.246 108.208C538.89 107.932 539.473 107.602 539.994 107.219C540.531 106.836 540.983 106.414 541.351 105.954C541.719 105.479 542.003 104.98 542.202 104.459C542.417 103.922 542.524 103.363 542.524 102.78V101.653H544.893V102.78C544.893 103.792 545.131 104.743 545.606 105.632C546.097 106.506 546.771 107.234 547.63 107.817C548.489 107.234 549.163 106.506 549.654 105.632C550.145 104.743 550.39 103.792 550.39 102.78V101.653H552.759V102.78C552.759 103.363 552.859 103.922 553.058 104.459C553.273 104.98 553.564 105.479 553.932 105.954C554.3 106.414 554.745 106.836 555.266 107.219C555.803 107.602 556.393 107.932 557.037 108.208L556.025 109.611C555.872 109.826 555.665 109.864 555.404 109.726C555.067 109.557 554.714 109.35 554.346 109.105C553.993 108.875 553.648 108.614 553.311 108.323C552.974 108.032 552.652 107.71 552.345 107.357C552.054 107.02 551.793 106.659 551.563 106.276C551.088 107.104 550.52 107.848 549.861 108.507C549.202 109.182 548.466 109.718 547.653 110.117ZM555.266 100.112C555.266 100.434 555.105 100.595 554.783 100.595H552.805V95.19H550.252C550.068 95.19 549.938 95.1517 549.861 95.075C549.8 94.9983 549.769 94.8757 549.769 94.707V93.12H552.805V88.336H555.266V100.112ZM546.503 94.201C546.503 93.235 546.227 92.4453 545.675 91.832C545.138 91.2033 544.372 90.889 543.375 90.889C542.915 90.889 542.493 90.9733 542.11 91.142C541.727 91.2953 541.397 91.5177 541.121 91.809C540.845 92.1003 540.63 92.453 540.477 92.867C540.339 93.2657 540.27 93.7027 540.27 94.178C540.27 95.1593 540.554 95.9643 541.121 96.593C541.688 97.2063 542.44 97.513 543.375 97.513C544.372 97.513 545.138 97.2063 545.675 96.593C546.227 95.9643 546.503 95.167 546.503 94.201ZM563.67 104.275C562.689 104.275 561.845 104.099 561.14 103.746C560.435 103.378 559.852 102.864 559.392 102.205C558.947 101.546 558.618 100.756 558.403 99.836C558.188 98.916 558.081 97.904 558.081 96.8C558.081 95.696 558.188 94.684 558.403 93.764C558.618 92.844 558.947 92.0543 559.392 91.395C559.852 90.7357 560.435 90.2297 561.14 89.877C561.845 89.509 562.689 89.325 563.67 89.325C564.651 89.325 565.495 89.509 566.2 89.877C566.905 90.2297 567.48 90.7357 567.925 91.395C568.385 92.0543 568.722 92.844 568.937 93.764C569.152 94.684 569.259 95.696 569.259 96.8C569.259 97.904 569.152 98.916 568.937 99.836C568.722 100.756 568.385 101.546 567.925 102.205C567.48 102.864 566.905 103.378 566.2 103.746C565.495 104.099 564.651 104.275 563.67 104.275ZM575.515 109.082C575.515 109.404 575.354 109.565 575.032 109.565H573.054V97.03H570.501C570.317 97.03 570.187 96.9917 570.11 96.915C570.049 96.8383 570.018 96.7157 570.018 96.547V94.96H573.054V88.336H575.515V109.082ZM563.67 102.136C564.743 102.136 565.533 101.676 566.039 100.756C566.545 99.8207 566.798 98.502 566.798 96.8C566.798 95.098 566.545 93.787 566.039 92.867C565.533 91.9317 564.743 91.464 563.67 91.464C562.597 91.464 561.807 91.9317 561.301 92.867C560.795 93.787 560.542 95.098 560.542 96.8C560.542 98.502 560.795 99.8207 561.301 100.756C561.807 101.676 562.597 102.136 563.67 102.136Z" fill="#363635"/>
</g>
<defs>
<linearGradient id="paint0_linear_4058_27620" x1="358" y1="146.21" x2="358" y2="-1.73536e-06" gradientUnits="userSpaceOnUse">
<stop stop-color="#E4FFEC"/>
<stop offset="1" stop-color="#C7F3FE"/>
</linearGradient>
<clipPath id="clip0_4058_27620">
<rect width="716" height="370" fill="white"/>
</clipPath>
</defs>
</svg>
