<svg width="138" height="132" viewBox="0 0 138 132" fill="none" xmlns="http://www.w3.org/2000/svg">
<path d="M95.9744 23.2387C97.2201 22.5133 98.7524 23.4859 98.4233 24.7931L94.5839 40.0433L76.9731 34.3034L95.9744 23.2387Z" fill="#98887F"/>
<path d="M37.529 23.2319C36.266 22.4986 34.718 23.5075 35.0862 24.824L39.2721 39.7895L56.3178 34.1415L37.529 23.2319Z" fill="#98887F"/>
<path d="M120.5 86.5771C120.5 118.486 97.6665 131.801 69.5 131.801C41.3335 131.801 18.5 118.486 18.5 86.5771C18.5 54.6681 41.3335 28.8008 69.5 28.8008C97.6665 28.8008 120.5 54.6681 120.5 86.5771Z" fill="#FBD498"/>
<path d="M77.8819 53.9876C77.4907 53.9474 77.221 53.5949 77.2872 53.2083C77.4251 52.4038 77.6576 51.0711 77.8527 50.0699C78.0534 49.0397 78.3657 47.5845 78.5491 46.7404C78.6307 46.3648 79.0031 46.1175 79.3807 46.1864L81.847 46.636C82.2252 46.705 82.4655 47.0654 82.3846 47.4419C82.2195 48.21 81.9497 49.4819 81.7555 50.4786C81.558 51.4923 81.3341 52.8439 81.205 53.6436C81.1445 54.0183 80.7941 54.2871 80.4154 54.2481L77.8819 53.9876Z" fill="#98887F"/>
<path d="M108.653 27.2404C108.252 27.2086 107.972 26.8498 108.042 26.455C108.236 25.3632 108.613 23.263 108.915 21.7167C109.223 20.1316 109.704 17.8371 109.944 16.7011C110.024 16.3205 110.402 16.0703 110.784 16.1436L113.245 16.6166C113.618 16.6884 113.855 17.0438 113.777 17.4163C113.56 18.4514 113.138 20.4817 112.834 22.0384C112.526 23.6208 112.153 25.779 111.971 26.8449C111.909 27.2099 111.571 27.4721 111.2 27.4427L108.653 27.2404Z" fill="#FFC46A"/>
<path d="M107.834 31.9696C107.467 31.9188 107.213 31.5915 107.266 31.2255C107.302 30.9771 107.345 30.699 107.39 30.4697C107.437 30.2265 107.509 29.9196 107.575 29.6503C107.663 29.2917 108.021 29.0606 108.385 29.1215L110.858 29.5358C111.252 29.6018 111.498 29.983 111.406 30.3725C111.357 30.5835 111.306 30.8109 111.267 31.0091C111.228 31.2092 111.194 31.4466 111.165 31.6689C111.113 32.0723 110.736 32.3713 110.332 32.3154L107.834 31.9696Z" fill="#FFC46A"/>
<path d="M54.7369 54.5361C54.3524 54.6121 53.9714 54.3568 53.896 53.9713C53.7391 53.1691 53.4829 51.8389 53.3099 50.8337C53.1318 49.7994 52.9075 48.3298 52.7794 47.4769C52.7225 47.0973 52.9864 46.7545 53.3682 46.7096L55.8616 46.4162C56.244 46.3712 56.6 46.6425 56.658 47.0227C56.7762 47.7984 56.9753 49.0818 57.1476 50.0826C57.3228 51.1004 57.5937 52.446 57.7573 53.2411C57.8339 53.6136 57.5984 53.9704 57.2263 54.044L54.7369 54.5361Z" fill="#98887F"/>
<path d="M64.2243 64.118C64.068 66.0473 64.0211 66.6257 64.7652 68.1147C65.6619 69.1521 66.0506 69.3816 67.7825 70.2142C69.5144 71.0468 72.7213 69.7781 72.8959 67.6229C73.0522 65.6937 74.5106 61.6426 70.8299 59.2118C67.1493 56.781 64.8092 59.0914 64.5676 59.88C64.2245 61 64.4491 61.3434 64.2243 64.118Z" fill="#EF8E8E"/>
<path d="M104.534 104.822C103.979 117.663 86.496 127.281 68.8154 126.633C51.1349 125.984 32.6985 120.746 33.2536 107.904C33.8086 95.0631 51.005 75.5989 68.6856 76.2473C86.3661 76.8957 105.089 91.9809 104.534 104.822Z" fill="#FDEACE"/>
<path d="M56.5648 64.4328C57.6438 63.3357 56.6664 61.5319 55.1436 61.8098L38.5338 64.8412C35.7234 65.3541 34.3115 68.4941 35.8251 70.8651L39.4314 76.5145C40.9089 78.8291 44.2809 78.9927 46.0122 76.8339L53.2731 67.7798L56.5648 64.4328Z" fill="#FFC46A"/>
<path d="M80.9547 64.4328C79.8758 63.3357 80.8531 61.5319 82.3759 61.8098L98.9857 64.8412C101.796 65.3541 103.208 68.4941 101.694 70.8651L98.0881 76.5145C96.6106 78.8291 93.2386 78.9927 91.5073 76.8339L84.2464 67.7798L80.9547 64.4328Z" fill="#FFC46A"/>
</svg>
