<svg width="115" height="133" viewBox="0 0 115 133" fill="none" xmlns="http://www.w3.org/2000/svg">
<path d="M112.384 82.3711C113.914 82.4262 114.705 80.5387 113.575 79.527L97.5368 65.1579C97.0696 64.7393 96.3141 64.9747 96.1541 65.5888L92.2589 80.5431C92.1254 81.0556 92.4922 81.5538 93.0204 81.5774L104.309 82.0805L112.384 82.3711Z" fill="#FBD498"/>
<path d="M75.2519 22.7788C76.3957 22.0949 77.8045 23.1708 77.5976 24.5702L75.3598 39.7062L59.0002 32.4956L75.2519 22.7788Z" fill="#98887F"/>
<path d="M19.8574 26.8533C18.7058 26.1859 17.3132 27.2794 17.5369 28.6755L19.9571 43.7832L36.2287 36.341L19.8574 26.8533Z" fill="#98887F"/>
<path d="M102 87.1767C102 119.086 79.1665 132.4 51 132.4C22.8335 132.4 0 119.086 0 87.1767C0 55.2677 22.8335 29.4004 51 29.4004C79.1665 29.4004 102 55.2677 102 87.1767Z" fill="#FBD498"/>
<path d="M60.5622 57.0658C60.1388 57.0881 59.7926 56.7496 59.8134 56.3317C59.8602 55.3929 59.9428 53.7887 60.0183 52.586C60.0964 51.3428 60.2272 49.5698 60.3012 48.5843C60.3314 48.1831 60.691 47.8806 61.0961 47.9151L62.1999 48.0092C62.5898 48.0424 62.8771 48.3753 62.8486 48.7615C62.7826 49.6533 62.668 51.234 62.591 52.4586C62.5123 53.7114 62.4345 55.3955 62.3941 56.3108C62.3777 56.6836 62.0743 56.9859 61.6967 57.0058L60.5622 57.0658Z" fill="#98887F"/>
<path d="M52.8569 47.9695C52.842 47.5484 53.197 47.1997 53.6233 47.2186C54.6408 47.2637 56.4324 47.3456 57.7692 47.4202C59.1514 47.4974 61.1324 47.6274 62.1964 47.6985C62.6037 47.7256 62.8994 48.081 62.8506 48.4825L62.726 49.5095C62.6794 49.8928 62.3345 50.1763 61.9456 50.1507C60.9837 50.0875 59.2133 49.9732 57.8477 49.897C56.4502 49.8189 54.5608 49.7415 53.5761 49.7029C53.2024 49.6883 52.9074 49.3952 52.8943 49.0262L52.8569 47.9695Z" fill="#98887F"/>
<path d="M54.4735 50.9737C54.4672 50.5588 54.8185 50.2197 55.2383 50.2373C56.0856 50.273 57.4598 50.3333 58.4981 50.3912C59.5737 50.4513 61.0931 50.5537 61.9859 50.6153C62.3901 50.6432 62.6843 50.9944 62.6392 51.3932L62.5231 52.4208C62.4794 52.8073 62.1317 53.0944 61.7399 53.0679C60.9316 53.0132 59.5822 52.9241 58.528 52.8653C57.4482 52.805 56.0085 52.7497 55.1749 52.7197C54.7944 52.7061 54.4952 52.4042 54.4895 52.0283L54.4735 50.9737Z" fill="#98887F"/>
<path d="M98.5622 26.0638C98.1388 26.0862 97.7926 25.7476 97.8134 25.3297C97.8602 24.3909 97.9428 22.7867 98.0183 21.5841C98.0964 20.3409 98.2272 18.5679 98.3012 17.5823C98.3314 17.1811 98.691 16.8787 99.0961 16.9132L100.2 17.0072C100.59 17.0404 100.877 17.3734 100.849 17.7595C100.783 18.6514 100.668 20.2321 100.591 21.4567C100.512 22.7094 100.434 24.3935 100.394 25.3089C100.378 25.6816 100.074 25.9839 99.6967 26.0039L98.5622 26.0638Z" fill="#FFC46A"/>
<path d="M90.8569 16.9675C90.842 16.5465 91.197 16.1978 91.6233 16.2167C92.6408 16.2618 94.4324 16.3436 95.7692 16.4183C97.1514 16.4954 99.1324 16.6255 100.196 16.6965C100.604 16.7237 100.899 17.079 100.851 17.4805L100.726 18.5075C100.679 18.8908 100.335 19.1743 99.9456 19.1488C98.9837 19.0855 97.2133 18.9712 95.8477 18.895C94.4502 18.817 92.5608 18.7395 91.5761 18.701C91.2024 18.6863 90.9074 18.3932 90.8943 18.0243L90.8569 16.9675Z" fill="#FFC46A"/>
<path d="M92.4735 19.9718C92.4672 19.5569 92.8185 19.2178 93.2383 19.2354C94.0856 19.271 95.4598 19.3313 96.4981 19.3893C97.5737 19.4493 99.0931 19.5518 99.9859 19.6134C100.39 19.6412 100.684 19.9925 100.639 20.3912L100.523 21.4188C100.479 21.8054 100.132 22.0925 99.7399 22.066C98.9316 22.0113 97.5822 21.9222 96.528 21.8633C95.4482 21.803 94.0085 21.7477 93.1749 21.7178C92.7944 21.7041 92.4952 21.4022 92.4895 21.0263L92.4735 19.9718Z" fill="#FFC46A"/>
<path d="M35.2023 57.5691C34.7853 57.6297 34.4024 57.3233 34.3735 56.9044C34.3089 55.9666 34.2013 54.3665 34.1341 53.1653C34.0647 51.9237 33.985 50.1517 33.942 49.1648C33.9244 48.7615 34.2449 48.4268 34.6505 48.4241L35.7656 48.4168C36.1562 48.4143 36.4806 48.7206 36.498 49.1088C36.538 50.002 36.6109 51.5812 36.6793 52.804C36.7493 54.0547 36.8709 55.7329 36.9392 56.6473C36.9671 57.0213 36.7019 57.3511 36.3296 57.4052L35.2023 57.5691Z" fill="#98887F"/>
<path d="M26.4629 49.2341C26.3979 48.8148 26.7087 48.4337 27.1339 48.4137C28.1514 48.3657 29.9456 48.2835 31.2858 48.2357C32.6715 48.1862 34.6604 48.1347 35.727 48.1082C36.1342 48.0981 36.4693 48.4261 36.4684 48.8316L36.4659 49.8574C36.465 50.2442 36.1568 50.5586 35.7684 50.5687C34.8043 50.5935 33.0266 50.6415 31.6572 50.6904C30.2557 50.7404 28.3636 50.836 27.38 50.8874C27.0081 50.9069 26.6812 50.6416 26.6243 50.2747L26.4629 49.2341Z" fill="#98887F"/>
<path d="M28.4251 52.0718C28.3695 51.6579 28.6777 51.2868 29.0962 51.2661C29.9435 51.2242 31.3197 51.1586 32.3607 51.1215C33.4392 51.083 34.9653 51.0462 35.8607 51.0259C36.2648 51.0168 36.5981 51.3408 36.6005 51.7432L36.6065 52.7688C36.6088 53.1586 36.2981 53.4769 35.9066 53.4863C35.0962 53.5057 33.7408 53.5402 32.6834 53.578C31.6003 53.6166 30.1588 53.6932 29.3261 53.7394C28.9476 53.7605 28.6154 53.4867 28.5651 53.1121L28.4251 52.0718Z" fill="#98887F"/>
<path d="M40.999 65.8208C44.2161 66.3093 44.7268 66.2966 46.9612 66.3101C49.1958 66.323 49.6421 66.3098 52.3229 65.8211C55.499 65.2421 56.8056 62.8184 55.0037 63.3781C52.999 64.0008 52.3229 64.3556 45.3526 64.3556C38.8305 64.3556 39.499 63.0217 38.3825 63.3783C37.9988 63.5008 38.5706 65.4521 40.999 65.8208Z" fill="#EF8E8E"/>
<path d="M91.2 104.146C91.2 116.363 72.2671 127.8 54.1034 127.8C35.9397 127.8 16 120.409 16 108.193C16 95.9759 35.9397 77.4004 54.1034 77.4004C72.2671 77.4004 91.2 91.9292 91.2 104.146Z" fill="#FDEACE"/>
<path d="M32.0648 72.4328C33.1438 71.3357 32.1664 69.5319 30.6436 69.8098L14.0338 72.8412C11.2234 73.3541 9.81145 76.4941 11.3251 78.8651L14.9314 84.5145C16.4089 86.8291 19.7809 86.9927 21.5122 84.8339L28.7731 75.7798L32.0648 72.4328Z" fill="#FFC46A"/>
</svg>
