<svg width="124" height="114" viewBox="0 0 124 114" fill="none" xmlns="http://www.w3.org/2000/svg">
<path d="M59.0971 3.56184C59.791 2.21146 61.7246 2.21895 62.4132 3.57468L70.1145 18.7388L48.901 23.4029L59.0971 3.56184Z" fill="#8B7A70"/>
<path fill-rule="evenodd" clip-rule="evenodd" d="M113.531 70.947C113.394 101.217 90.6837 113.854 62.6892 113.854C35.5306 113.854 13.3455 101.96 11.9196 73.6114L2.89436 74.192C0.330405 74.3569 -1.02175 71.203 0.923471 69.5948L12.8447 59.7395C17.5189 34.5067 38.0587 15.502 62.6892 15.502C86.62 15.502 106.689 33.4423 112.097 57.6045L123.324 65.6094C124.451 66.4132 124.107 68.1742 122.752 68.5292L113.531 70.947Z" fill="#92B9F2"/>
<rect x="38" y="43.1445" width="2" height="8" rx="0.383139" fill="#7A7A7A"/>
<rect x="35" y="44.1445" width="2" height="14" rx="0.383139" transform="rotate(-90 35 44.1445)" fill="#7A7A7A"/>
<rect x="44" y="43.1445" width="2" height="8" rx="0.383139" fill="#7A7A7A"/>
<rect x="67" y="43.1445" width="2" height="8" rx="0.383139" fill="#7A7A7A"/>
<rect x="64" y="44.1445" width="2" height="14" rx="0.383139" transform="rotate(-90 64 44.1445)" fill="#7A7A7A"/>
<rect x="73" y="43.1445" width="2" height="8" rx="0.383139" fill="#7A7A7A"/>
<path d="M66.1591 59.4886C66.1591 57.7843 61.8232 55.6436 56.4746 55.6436C51.126 55.6436 46.79 57.7843 46.79 59.4886C46.79 61.1928 51.126 59.4889 56.4746 59.4889C61.8232 59.4889 66.1591 61.1928 66.1591 59.4886Z" fill="#B06464"/>
<ellipse cx="62.0686" cy="87.4621" rx="37.8469" ry="22.7081" fill="#D1E2FA"/>
</svg>
