<svg width="116" height="132" viewBox="0 0 116 132" fill="none" xmlns="http://www.w3.org/2000/svg">
<path fill-rule="evenodd" clip-rule="evenodd" d="M58.332 18.0075C61.6443 19.956 65.4802 24.5111 59.8005 32.002L72.5658 38.0268C73.7814 31.1983 72.6364 17.6346 58.332 18.0075ZM35.3955 21.6973C32.4114 24.0651 29.2764 29.0666 35.9052 35.6548L24.1975 43.3205C22.0495 36.7739 21.2819 23.2841 35.3955 21.6973Z" fill="#98887F"/>
<path d="M103 86.1747C103 118.084 79.9138 131.398 51.4354 131.398C12.2915 131.398 1 116.199 1 84.2899C1 52.3809 22.9571 28.3984 51.4354 28.3984C79.9138 28.3984 103 54.2658 103 86.1747Z" fill="#70F5D9"/>
<path d="M90.679 101.117C91.3547 113.758 73.4898 124.825 54.7021 125.829C35.9144 126.833 16.4616 117.761 15.7859 105.12C15.1102 92.4788 33.3162 78.2253 52.1038 77.221C70.8915 76.2168 90.0033 88.4755 90.679 101.117Z" fill="#B2FCEC"/>
<path d="M45.1455 61.612C45.2272 62.1931 47.8618 62.7648 54.1257 61.9026C59.7632 61.1267 61.5135 59.9515 61.4317 59.3704C61.35 58.7894 57.7696 59.756 53.2723 60.375C48.775 60.994 45.0638 61.0309 45.1455 61.612Z" fill="#D39898"/>
<path d="M48.6053 47.7431C49.0099 51.6165 45.7829 55.3162 41.1182 55.7928C36.4536 56.2695 32.5301 53.3004 32.1256 49.427C31.928 47.5352 32.629 46.2309 33.9268 45.2863C35.2907 44.2937 37.3536 43.6806 39.8269 43.4279C42.3001 43.1752 44.4462 43.3581 45.9864 44.0541C47.452 44.7162 48.4078 45.8513 48.6053 47.7431Z" stroke="#2AD4AF" stroke-width="2"/>
<path d="M71.035 45.4521C71.4396 49.3254 68.2126 53.0251 63.5479 53.5018C58.8833 53.9784 54.9598 51.0094 54.5553 47.136C54.3577 45.2442 55.0587 43.9399 56.3565 42.9953C57.7204 42.0027 59.7833 41.3896 62.2565 41.1369C64.7298 40.8842 66.8759 41.0671 68.4161 41.763C69.8817 42.4252 70.8375 43.5603 71.035 45.4521Z" stroke="#2AD4AF" stroke-width="2"/>
<rect width="5.30445" height="1.31201" transform="matrix(0.99482 -0.101654 0.103875 0.99459 48.1836 46.8457)" fill="#2AD4AF"/>
<ellipse cx="63.6479" cy="47.6414" rx="2.5815" ry="2.0652" fill="#98887F"/>
<ellipse cx="39.8979" cy="49.7058" rx="2.5815" ry="2.0652" fill="#98887F"/>
<path d="M35.7249 54.6406C36.3012 53.2138 34.7075 51.9221 33.4073 52.7622L19.226 61.9255C16.8265 63.4759 16.7252 66.9172 19.0316 68.5276L24.5271 72.3644C26.7786 73.9363 29.956 72.7957 30.7282 70.1383L33.9666 58.9933L35.7249 54.6406Z" fill="#55DDBF"/>
<path d="M110.896 56.9621C112.003 55.8937 111.073 54.0649 109.544 54.3028L92.8603 56.898C90.0374 57.3371 88.5437 60.439 89.9947 62.8489L93.4518 68.5908C94.8681 70.9433 98.2346 71.1952 100.022 69.0825L107.518 60.2218L110.896 56.9621Z" fill="#70F5D8"/>
<path d="M108.448 27.2567L112.664 35.4687L106.166 36.1857L108.448 27.2567Z" fill="#FBE8CC"/>
<path d="M108.449 27.2563L110.557 31.3623C110.557 31.3623 109.54 30.9321 108.872 31.0059C108.203 31.0796 107.307 31.7208 107.307 31.7208L108.449 27.2563Z" fill="#5F6368"/>
<path d="M115.442 60.1103L113.396 61.4206L111.23 61.6596L108.943 60.8273L106.165 36.1873L108.21 34.877L110.376 34.6381L112.663 35.4704L115.442 60.1103Z" fill="#F9BC5F"/>
<rect width="2.17927" height="26.9523" transform="matrix(-0.993969 0.109663 -0.112054 -0.993702 113.398 61.4199)" fill="#F8D298"/>
</svg>
