<svg width="717" height="372" viewBox="0 0 717 372" fill="none" xmlns="http://www.w3.org/2000/svg">
<g clip-path="url(#clip0_4101_68157)">
<rect width="715" height="372" fill="#C12E02"/>
<path d="M207.303 76.3426C174.123 67.2183 53.8463 111.942 -2.14453 135.444V374.96H715.367V91.8956C700.851 86.7113 665.598 76.3426 640.713 76.3426C609.607 76.3426 558.801 128.186 535.99 135.444C513.178 142.701 493.478 113.67 454.077 112.633C414.676 111.596 418.824 127.149 350.391 144.776C281.957 162.403 248.778 87.748 207.303 76.3426Z" fill="#DC4609"/>
<path d="M26.4606 1.92432L60.4313 -3.2588e-06L55.6762 34.8501L63.1803 79.42L67.4508 194.544L14.6201 233.413L21.1322 103.544L0 90.3915V66.293L21.1322 79.42V34.8501L26.4606 1.92432Z" fill="#620901"/>
<path d="M477.222 -7.8706L511.192 -9.79492L506.437 25.0552L513.941 69.6251L514.978 96.9L534.931 80.6304L572.254 57.5318L569.978 69.6251L534.931 101.112L514.978 128.679L518.089 245.869H463.464L471.893 93.7493L431.436 88.9982L403.846 80.6304L410.673 72.646L435.679 77.4846L454.301 78.495L448.395 62.2271L453.091 57.5318L458.343 68.2457L464.55 77.4846L471.893 75.5603L470.577 30.1977L454.7 -4.88747H467.245L474.105 13.7332L477.222 -7.8706Z" fill="#620901"/>
<path d="M693.103 0H655.569V36.0881V45.0223V53.9565V60.806L642.69 222.974L699.377 236.075L696.868 93.0154L716 49.0936V34.0347L693.103 60.806V16.0477V0Z" fill="#620901"/>
<path d="M208.604 1.92372L174.633 -0.000607491V36.0875V45.0217V53.9559V60.8055L161.755 222.973L218.442 236.074L215.856 56.6919L240.361 39.8167L284.002 8.20726L273.021 6.2364L253.313 18.3431L255.43 -3.05469L248.245 -0.000674725L242.895 23.9741L212.167 39.8167V16.0471L208.604 1.92372Z" fill="#620901"/>
<path d="M88.4897 0H126.517V39.0022L131.001 74.6428L172.628 39.0022L151.101 0H160.745L181.736 32.1552L220.313 0H235.063L135.085 101.787L143.654 239.492L88.4897 222.889V148.766V74.6428L25.625 0H43.6326L88.4897 46.5333V0Z" fill="#7F1304"/>
<path d="M623.034 -0.000469685L588.123 -2.78125L565.853 78.8484L547.413 59.2393L554.239 18.7817L547.413 7.81656L538.716 50.5428L495.234 18.7817L488.049 21.4285L551.07 81.4347L562.537 101.966L554.239 155.344L565.853 267.873L613.417 222.888L603.525 130.188L613.417 74.6423L676.281 -0.000469685H661.979L635.134 29.7469L613.417 46.5329L623.034 -0.000469685Z" fill="#7F1304"/>
<path d="M306.35 -2.78125H350.655L356.026 46.7923L358.752 78.103L391.365 57.0313L384.539 18.7817L391.365 7.81656L400.061 50.5428L443.544 18.7817L450.728 21.4285L387.707 81.4347L366.394 109.674L369.333 155.344L372.924 267.873L298.162 224.85L311.263 155.344V64.9142L262.496 -0.000469685H276.798L292.703 13.058L311.263 33.8005L306.35 -2.78125Z" fill="#7F1304"/>
</g>
<path d="M153.988 116.352C149.213 133.404 129.546 138.52 120.309 138.947C126.135 142.357 140.261 146.621 150.151 136.389C160.042 126.157 156.83 118.767 153.988 116.352Z" fill="#F47C0F"/>
<path d="M496.182 66.6559C490.608 65.011 495.464 59.8875 497.524 56.424C500.453 51.501 506.206 53.6159 510.809 50.2056C517.312 45.3864 523.33 33.6875 523.33 33.6875C527.204 46.5996 518.955 75.1151 505.94 91.3829C505.94 91.3829 507.206 69.9094 496.182 66.6559Z" fill="#F47C0F"/>
<path d="M403.459 57.252C406.594 60.0289 407.447 62.4525 405.043 64.0836C401.627 66.402 399.656 64.0836 390.971 65.5801C385.222 66.5707 376.061 77.2867 376.061 77.2867C377.478 67.6748 398.425 35.6769 405.043 44.9413C405.043 44.9413 397.258 51.7594 403.459 57.252Z" fill="#F47C0F"/>
<path d="M487.641 170.535C487.57 163 504.061 154.329 508.538 162.218C511.737 171.601 495.105 163.711 487.641 170.535Z" fill="#F47C0F"/>
<path d="M0 275H715V372H0V275Z" fill="#7F1304"/>
<path d="M0 223.624C10.2134 222.657 32.5097 216.662 28.2465 200.415C22.9174 180.106 57.5533 129.334 96.1855 133.686C82.6755 145.569 63.7614 171.249 96.1855 178.904C124.717 185.639 141.047 176.062 147.472 168.444C148.185 167.394 148.883 166.403 149.555 165.482C149.041 166.402 148.349 167.405 147.472 168.444C136.886 184.052 123.009 212.887 139.317 223.624C161.073 237.949 225.062 179.418 193.068 118.1C198.077 125.065 211.316 136.265 224.206 125.348C240.319 111.702 263.685 75.7135 240.447 48C251.144 54.4263 275.193 65.3509 285.815 57.6394C267.004 76.6615 234.251 121.126 253.726 146.805C264.102 161.731 291.782 124.41 285.815 110.389C288.946 116.898 299.261 126.012 315.469 110.389C335.728 90.8602 323.458 86.3563 332.982 75.6396C331.183 84.6278 330.632 102.259 342.823 100.876C355.014 99.493 360.885 92.6482 362.297 89.3986C360.949 96.1658 352.189 111.853 327.929 120.463C297.605 131.225 254.255 162.598 250.472 193.111C246.688 223.624 289.667 270.032 359.481 201.859C393.9 172.758 401.288 140.864 401.288 140.864C413.787 149.005 443.65 156.321 463.102 120.463C476.995 100.876 476.573 93.9263 476.995 84.7829C481.549 90.4968 489.289 104.267 483.825 113.636C476.995 125.348 429.953 159.777 442.805 186.944C453.087 208.677 474.436 193.722 483.825 183.528C483.683 190.306 479.34 206.912 463.102 219.112C442.805 246.707 549.572 241.566 527.463 165.482C531.729 165.387 541.193 168.864 544.917 183.528C543.753 183.528 561.208 220.252 589.135 183.528C617.063 146.805 600.973 149.821 616.131 125.348C631.289 100.876 655.921 116.969 664.447 100.876C666.974 106.254 667.1 118.678 647.395 125.348C622.763 133.686 641.71 177.758 664.447 165.482C670.452 161.476 681.495 158.178 677.624 177.033C677.37 177.31 674.314 168.437 667.184 175.092C660.055 181.747 651.27 192.614 664.447 214.482C671.723 226.247 688.872 219.457 696.667 209.271C702.903 201.122 711.882 203.386 715 205.536V326L698.38 307.591L635.164 312.711L561.304 318.054C561.304 318.054 583.037 312.555 592.138 302.629C597.379 296.913 602.266 285.548 602.266 285.548C602.266 285.548 541.44 290.536 517.458 291.18C495.31 291.774 460.723 291.18 460.723 291.18L96.1855 287.748L83.4792 308.426L91.3642 311.964L82.9307 309.318L83.4792 308.426L37.3986 287.748H0V223.624Z" fill="#F47C0F"/>
<path d="M42.5166 248.903C34.1737 258.53 10.696 258.262 0 256.925V300.075C5.24442 294.316 17.7431 290.17 35.9032 300.075C72.5525 322.095 119.528 322.095 119.528 322.095C68.9436 305.967 93.343 296.639 96.264 295.476C106.228 291.508 179.056 290.17 210.978 291.42H464.076L409.137 279.774C409.137 279.774 384.635 275.779 380.169 263.621C376.308 253.114 387.161 235.822 387.161 235.822C387.161 235.822 354.727 257.094 331.223 263.621C308.213 270.011 293.672 273.643 270.29 268.786C250.176 264.607 226.205 257.141 222.988 245.769C219.771 234.398 217.242 207.076 232.863 188.762C248.484 170.448 247.002 159.885 244.309 156.892C244.758 158.389 243.86 162.055 236.678 164.748C217.601 169.461 229.945 136.918 231.067 136.469C219.935 141.317 217.315 158.896 217.396 167.079C219 255.321 116.319 265.749 119.528 242.486C122.095 223.875 105.088 216.013 96.264 214.409C105.89 222.431 101.077 244.892 75.4068 248.903C54.8705 252.112 62.5716 237.405 68.9892 229.651C63.6412 232.057 50.8595 239.277 42.5166 248.903Z" fill="#F4A138"/>
<path d="M613.029 297.945C603.196 311.07 562.797 318.802 551 319.59C551 319.59 570.586 321.781 583.184 322.345C620.744 324.024 656.37 317.811 679.197 314.951C686.832 313.994 708.821 311.54 705.572 322.345C704.29 326.608 698.517 331 698.517 331L715 325.597V227C715 227 711.938 246.445 702.955 251.312C695.894 255.138 690.579 251.783 682.669 251.312C668.404 250.463 646.534 245.234 646.534 245.234C646.534 245.234 663.542 254.369 663.65 264.818C663.738 273.232 659.785 278.979 652.873 283.052C645.941 287.137 639.823 286.486 632.587 283.052C626.668 280.243 620.542 270.896 620.542 270.896C617.352 275.402 622.861 284.821 613.029 297.945Z" fill="#F4A138"/>
<g filter="url(#filter0_d_4101_68157)">
<path d="M540.828 323.026C522.589 339.402 422.22 336.026 344.844 336.026C267.468 336.026 133.411 336.026 124.828 305.179C142.062 273.21 155.347 287.932 193.562 262.292C240.787 230.606 252.73 210.14 306.828 204.526C360.145 198.992 411.363 182.403 451.059 233.18C455.519 238.885 464.615 245.972 475.328 253.327C479.654 256.296 486.763 266.9 507.328 270.48C540.828 277.48 520.743 281.91 530.328 288.48C557.139 306.86 553.976 311.221 540.828 323.026Z" fill="url(#paint0_linear_4101_68157)"/>
<circle cx="291.828" cy="242.48" r="4" fill="#6C6C6C"/>
<circle cx="396.828" cy="247.48" r="3" fill="#6C6C6C"/>
<path d="M394.829 278.48C389.387 285.752 381.829 281.478 372.329 271.98C370.829 270.48 361.329 270.111 356.829 276.98C351.329 281.48 343.829 278.48 350.83 271.98C359.414 264.702 364.315 263.674 369.52 262.829C372.657 262.32 379.767 261.672 385.829 265.98C389.471 268.568 395.329 269.48 394.829 278.48Z" fill="#F2A3A3"/>
<path d="M231.391 297.599C191.945 326.287 297.114 324.112 340.776 324.112C384.437 324.112 511.891 336.964 511.891 310.099C511.891 283.233 380.052 293.599 336.391 293.599C292.729 293.599 275.391 265.599 231.391 297.599Z" fill="#E6E6E6"/>
<path d="M161.181 262.088C157.338 262.088 157.236 269.598 161.041 272.358L196.556 298.123C196.556 298.123 209.721 300.172 215.772 284.708C222.299 268.03 211.974 262.088 211.974 262.088L161.181 262.088Z" fill="#98887F"/>
</g>
<path d="M184.389 83.1015L219.821 38.8105L340.144 43.6087L507.711 46.9305L531.702 73.5049L525.058 120.01L497.376 151.752L407.688 148.799L388.126 174.266L378.16 146.585L340.144 142.894L217.976 161.717L184.389 83.1015Z" fill="#091A21"/>
<path d="M253.652 79.7256L258.291 80.2822H259.256L259.942 79.7256H260.629C261.631 80.4307 262.132 81.2965 262.132 82.3232C262.132 82.7809 262.082 83.4674 261.983 84.3828L262.392 88.7432C262.157 89.5719 261.977 89.9863 261.854 89.9863H261.445C260.579 89.9863 259.714 89.1204 258.848 87.3887C258.551 85.4714 258.186 84.5127 257.753 84.5127C257.456 84.0921 256.998 83.7272 256.38 83.418L255.563 83.5479L254.747 83.1396C253.04 83.1396 251.809 84.1416 251.055 86.1455V86.7021C251.055 88.8421 253.652 90.3451 258.848 91.2109C260.505 92.2747 261.687 93.957 262.392 96.2578C262.701 96.4434 262.886 97.2227 262.948 98.5957C263.06 98.5957 263.146 98.9111 263.208 99.542C262.602 102.177 261.557 104.088 260.072 105.275C259.38 105.708 257.969 106.259 255.842 106.927H255.025C253.628 106.927 252.347 106.519 251.185 105.702H249.422L248.735 106.24H247.641C246.911 105.745 246.546 105.065 246.546 104.199C246.546 103.408 246.725 101.311 247.084 97.9092V96.2578C247.084 96.1217 247.27 95.9424 247.641 95.7197H248.049C248.816 95.7197 249.725 96.9505 250.776 99.4121C252.001 100.958 253.368 101.731 254.877 101.731H255.025C256.646 101.731 257.92 100.544 258.848 98.1689V97.9092C258.402 95.7197 257.308 94.625 255.563 94.625C250.739 93.4499 248.327 91.3965 248.327 88.4648C248.154 88.4648 248.018 87.4629 247.919 85.459C248.228 83.9004 249.546 82.2181 251.871 80.4121C252.749 80.4121 253.343 80.1833 253.652 79.7256ZM252.558 81.6367C252.718 82.181 253.127 82.4531 253.782 82.4531H254.061C254.061 82.3913 254.104 82.1191 254.19 81.6367H254.599L254.469 82.6016C254.691 82.6016 255.1 82.7376 255.693 83.0098C256.003 82.8242 256.281 82.7314 256.528 82.7314H256.937C257.815 82.7314 258.495 83.418 258.978 84.791C258.978 87.2773 259.843 88.8236 261.575 89.4297L261.854 88.6133C261.755 86.8073 261.618 85.2116 261.445 83.8262C261.532 83.4798 261.575 83.1149 261.575 82.7314V82.3232C261.575 81.4574 261.21 80.777 260.48 80.2822H260.202C260.202 80.9131 259.93 81.2285 259.386 81.2285H258.439C258.081 80.9564 257.802 80.8203 257.604 80.8203L258.031 81.3584V81.7852H257.883C256.423 81.5625 255.693 81.3337 255.693 81.0986V80.4121L254.747 80.2822H253.931C253.015 80.7275 252.558 81.179 252.558 81.6367ZM256.38 82.8799V83.0098H257.066V82.8799H256.38ZM256.937 83.1396V83.2881C257.023 83.2881 257.524 83.6963 258.439 84.5127V84.3828C257.833 83.6777 257.332 83.2633 256.937 83.1396ZM257.883 83.418V83.5479L258.291 83.8262V83.6963L257.883 83.418ZM250.368 84.9209C250.393 85.1064 250.486 85.1992 250.646 85.1992C250.832 84.7415 251.197 84.1911 251.741 83.5479H251.463C250.733 83.8942 250.368 84.3519 250.368 84.9209ZM251.871 83.6963L251.463 84.2344H251.593L252.001 83.6963H251.871ZM258.699 84.6426V85.1992H258.848V84.6426H258.699ZM249.96 90.3945C249.985 90.5677 250.077 90.6543 250.238 90.6543C250.671 90.0234 250.943 89.708 251.055 89.708C251.24 89.7327 251.333 89.8255 251.333 89.9863C251.234 90.4564 251.185 90.7285 251.185 90.8027C251.642 91.582 251.871 92.083 251.871 92.3057C251.698 92.3923 251.562 92.4355 251.463 92.4355V92.5654C253.665 93.6663 255.712 94.2168 257.604 94.2168C258.792 94.7116 259.386 96.2578 259.386 98.8555C259.386 100.476 257.747 101.707 254.469 102.548H254.061C253.516 101.966 252.378 101.465 250.646 101.045C249.855 98.3607 249.032 96.765 248.179 96.2578H247.641L247.492 96.9443V98.3174C247.777 98.6143 247.919 98.8431 247.919 99.0039C247.634 99.4616 247.492 99.9131 247.492 100.358V100.915H247.919C248.067 100.915 248.203 100.593 248.327 99.9502H248.865C249.162 99.9502 249.348 100.637 249.422 102.01L250.09 102.548C250.09 102.424 250.226 102.288 250.498 102.14H250.925C251.098 102.164 251.185 102.257 251.185 102.418V102.696C251.185 102.869 251.098 102.956 250.925 102.956L249.96 102.696L249.83 102.956V103.364C249.83 103.488 250.282 103.81 251.185 104.329C251.791 105.517 252.521 106.11 253.374 106.11C253.374 106.284 254.147 106.42 255.693 106.519C256.559 106.061 257.611 105.696 258.848 105.424C260.307 104.595 261.402 103.228 262.132 101.323C262.256 101.323 262.435 100.729 262.67 99.542C262.373 97.266 262.008 96.1279 261.575 96.1279H261.445V95.998C261.445 95.7878 261.489 95.6022 261.575 95.4414C261.155 94.3281 260.338 93.1901 259.126 92.0273H258.699C258.699 92.2995 258.613 92.4355 258.439 92.4355H258.291C258.13 92.4355 257.901 92.1201 257.604 91.4893C253.238 90.4007 251.055 89.4854 251.055 88.7432L250.646 88.4648C250.424 88.4648 250.195 89.1081 249.96 90.3945ZM251.185 88.6133V88.7432L251.593 89.0215V88.8916L251.185 88.6133ZM257.753 92.9922H258.161C258.297 92.9922 258.433 93.1283 258.569 93.4004V93.9385H258.031C257.846 93.9385 257.753 93.8457 257.753 93.6602V92.9922ZM256.937 93.5303H257.345V93.9385H256.937V93.5303ZM259.534 95.8496H259.942V96.2578H259.534V95.8496ZM259.126 97.6309V98.8555H259.256V97.6309H259.126ZM248.735 97.7607L248.865 98.0391C248.865 98.2246 248.772 98.3174 248.587 98.3174L248.457 98.0391C248.482 97.8535 248.575 97.7607 248.735 97.7607ZM250.925 100.229V100.358C251.011 100.544 251.055 100.68 251.055 100.767H251.463C251.463 100.631 251.284 100.451 250.925 100.229ZM258.439 100.229L258.031 100.767H258.161L258.569 100.229H258.439ZM254.19 102.27V102.418H254.747V102.27H254.19ZM247.232 104.329L247.084 104.607C247.245 105.337 247.61 105.702 248.179 105.702V105.146C247.894 104.601 247.579 104.329 247.232 104.329ZM273.896 80.041H274.842C275.695 80.041 276.611 83.3252 277.588 89.8936C278.676 93.4313 279.542 96.7093 280.186 99.7275C281.212 101.113 282.214 101.936 283.191 102.195C283.736 102.826 284.008 103.599 284.008 104.515V104.923C284.008 105.405 282.183 105.77 278.534 106.018C278.534 106.191 278.305 106.277 277.848 106.277C277.303 106.215 277.031 106.129 277.031 106.018C276.673 106.191 276.357 106.277 276.085 106.277C275.541 106.277 275.04 105.64 274.582 104.366C274.298 104.366 274.155 104.28 274.155 104.106V103.828C274.526 103.544 274.755 102.907 274.842 101.917C275.547 101.917 275.961 101.731 276.085 101.36V100.952C276.085 99.9997 275.627 99.4059 274.712 99.1709C273.104 99.1709 272.059 99.6719 271.576 100.674C271.576 100.859 271.527 100.952 271.428 100.952C271.997 102.498 272.634 103.271 273.339 103.271L273.617 103.698V104.106L273.487 104.923C273.574 105.071 273.617 105.3 273.617 105.609C273.122 106.03 272.485 106.345 271.706 106.556L270.073 106.277L266.103 106.704C265.014 106.024 264.47 105.337 264.47 104.645C264.47 103.977 265.15 103.34 266.511 102.733C267.674 101.632 268.539 99.9007 269.108 97.5381L268.979 97.2598V96.4434C270.067 94.8971 270.611 92.7139 270.611 89.8936V89.3369C270.958 88.6689 271.502 86.8939 272.244 84.0117C272.38 83.9251 272.659 83.8818 273.079 83.8818V83.4551C273.079 83.3561 272.986 82.8551 272.801 81.9521V80.7275C273.036 80.2699 273.401 80.041 273.896 80.041ZM275.12 89.3369V89.6152H273.617C273.432 89.6152 273.16 90.9326 272.801 93.5674C272.702 93.5674 272.652 93.7529 272.652 94.124C273.444 95.0394 273.902 95.4971 274.025 95.4971H274.434C275.064 95.4971 275.658 94.9033 276.215 93.7158C275.757 93.221 275.528 92.2624 275.528 90.8398C275.405 90.8398 275.312 90.3389 275.25 89.3369H275.12ZM268.552 100.674C268.465 101.094 268.422 101.459 268.422 101.769C268.595 101.868 268.731 101.917 268.83 101.917L269.517 101.769V101.639C269.517 100.995 269.195 100.674 268.552 100.674ZM270.203 102.604H270.073C269.17 102.418 268.527 102.232 268.144 102.047C268.144 102.591 267.871 102.863 267.327 102.863C266.573 103.321 266.121 103.55 265.973 103.55C266.133 104.366 266.313 104.774 266.511 104.774H266.919C266.919 104.144 267.191 103.828 267.735 103.828L268.292 103.958V104.515C268.106 104.873 267.878 105.053 267.605 105.053V105.739H267.735C268.539 105.826 268.997 105.869 269.108 105.869C269.381 105.869 269.517 105.69 269.517 105.331H269.646C269.956 105.628 270.37 105.857 270.89 106.018C270.976 106.018 271.02 105.968 271.02 105.869L271.706 106.018C272.547 105.646 273.005 105.461 273.079 105.461L272.931 105.201C272.931 104.818 273.023 104.36 273.209 103.828C271.564 103.222 270.741 102.449 270.741 101.509C270.457 101.509 270.277 101.874 270.203 102.604ZM271.149 101.509V101.639C271.285 102.01 271.428 102.195 271.576 102.195C271.391 101.898 271.298 101.67 271.298 101.509H271.149ZM271.149 102.195V102.325C271.558 102.684 271.786 102.863 271.836 102.863V102.733C271.786 102.733 271.558 102.554 271.149 102.195ZM265.008 104.774C265.367 105.517 265.868 106.018 266.511 106.277C266.511 106.191 266.554 106.147 266.641 106.147C266.641 105.999 266.418 105.77 265.973 105.461L265.824 104.774H265.008ZM293.563 80.0039C298.128 80.0039 300.905 81.0986 301.895 83.2881C301.895 83.3994 302.352 83.8509 303.268 84.6426C303.169 85.125 303.119 85.3971 303.119 85.459C303.305 86.7454 303.397 87.6113 303.397 88.0566C303.397 88.6133 302.76 90.0729 301.486 92.4355C301.301 92.8438 301.208 93.4808 301.208 94.3467C301.579 96.2887 301.993 97.9277 302.451 99.2637C302.624 99.7214 304.035 101.181 306.682 103.643L306.812 104.329V104.867C306.812 105.671 306.224 106.129 305.049 106.24H304.9C302.043 105.882 300.268 105.702 299.575 105.702C298.487 104.168 297.942 102.437 297.942 100.507L298.202 100.358C298.202 100.222 297.93 98.9049 297.386 96.4062C296.718 95.3053 296.081 94.7549 295.475 94.7549C294.114 95.2744 293.434 96.097 293.434 97.2227L293.842 98.4473C293.743 99.1029 293.693 99.4678 293.693 99.542C293.706 100.408 294.757 101.775 296.848 103.643V105.702C296.551 106.246 296.05 106.519 295.345 106.519H291.782C290.904 106.692 290.403 106.778 290.279 106.778C288.548 106.296 287.682 105.98 287.682 105.832L287.403 105.962H287.144C286.5 105.467 286.179 104.966 286.179 104.459V103.921C286.179 103.241 286.816 102.647 288.09 102.14C289.364 100.977 290.001 99.5173 290.001 97.7607V97.6309C289.914 95.3548 289.778 93.623 289.593 92.4355C289.865 90.5677 290.001 89.2936 290.001 88.6133C290.001 86.1022 289.457 84.5065 288.368 83.8262C287.589 83.3932 287.045 82.9355 286.735 82.4531V81.5068C286.735 81.3708 287.051 81.0492 287.682 80.542H288.776C288.863 80.542 288.906 80.5915 288.906 80.6904C290.836 80.2327 292.388 80.0039 293.563 80.0039ZM289.055 81.915V83.0098H288.906L288.498 82.7314H287.83C287.83 82.8923 288.69 83.3499 290.409 84.1045C290.694 84.3148 290.836 84.4508 290.836 84.5127V84.6426C290.836 84.8281 290.65 84.9209 290.279 84.9209V85.6074L290.558 86.0156V86.1455C290.558 86.3311 290.465 86.4238 290.279 86.4238L290.409 86.7021V87.6484L290.558 89.0215H290.688L291.244 88.6133H291.652C292.296 88.7988 292.66 88.8916 292.747 88.8916C292.747 88.7926 292.79 88.7432 292.877 88.7432L292.599 87.5186C292.673 86.1455 292.766 85.459 292.877 85.459C292.766 85.3229 292.673 84.8714 292.599 84.1045L292.877 83.5479L292.469 83.2881H292.19C292.19 83.5602 292.147 83.8757 292.061 84.2344H291.652L291.374 84.1045L291.504 83.8262C290.898 82.2799 290.261 81.5068 289.593 81.5068C289.234 81.6429 289.055 81.779 289.055 81.915ZM293.155 86.832C293.155 88.3288 293.52 89.3307 294.25 89.8379C294.757 90.2956 295.394 90.5244 296.161 90.5244C297.225 90.3389 298.134 89.8812 298.889 89.1514C299.532 88.1989 299.854 87.5618 299.854 87.2402V86.1455C299.854 85.1807 298.988 84.3148 297.256 83.5479C297.046 83.5479 296.86 83.5973 296.699 83.6963C296.204 83.5973 295.796 83.5479 295.475 83.5479C294.708 83.5479 293.978 84.1849 293.285 85.459L293.155 86.832ZM293.007 84.2344C293.106 84.3952 293.155 84.5807 293.155 84.791H293.285C293.285 84.6055 293.557 84.2406 294.102 83.6963H293.842L293.007 84.2344ZM289.185 84.1045C289.185 84.2282 289.321 84.3643 289.593 84.5127V84.3828C289.593 84.1973 289.506 84.1045 289.333 84.1045H289.185ZM290.001 84.9209V85.459H290.149V84.9209H290.001ZM290.409 89.9863V90.8027C290.595 90.7038 290.737 90.6543 290.836 90.6543V90.2461C290.836 90.0729 290.743 89.9863 290.558 89.9863H290.409ZM290.149 92.3057C290.149 92.7757 290.193 93.5488 290.279 94.625H290.688L290.966 93.6602C290.78 93.3633 290.688 93.0911 290.688 92.8438V92.3057H290.149ZM325.849 80.0039C330.413 80.0039 333.19 81.0986 334.18 83.2881C334.18 83.3994 334.637 83.8509 335.553 84.6426C335.454 85.125 335.404 85.3971 335.404 85.459C335.59 86.7454 335.683 87.6113 335.683 88.0566C335.683 88.6133 335.046 90.0729 333.771 92.4355C333.586 92.8438 333.493 93.4808 333.493 94.3467C333.864 96.2887 334.279 97.9277 334.736 99.2637C334.91 99.7214 336.32 101.181 338.967 103.643L339.097 104.329V104.867C339.097 105.671 338.509 106.129 337.334 106.24H337.186C334.328 105.882 332.553 105.702 331.86 105.702C330.772 104.168 330.228 102.437 330.228 100.507L330.487 100.358C330.487 100.222 330.215 98.9049 329.671 96.4062C329.003 95.3053 328.366 94.7549 327.76 94.7549C326.399 95.2744 325.719 96.097 325.719 97.2227L326.127 98.4473C326.028 99.1029 325.979 99.4678 325.979 99.542C325.991 100.408 327.042 101.775 329.133 103.643V105.702C328.836 106.246 328.335 106.519 327.63 106.519H324.067C323.189 106.692 322.688 106.778 322.564 106.778C320.833 106.296 319.967 105.98 319.967 105.832L319.688 105.962H319.429C318.785 105.467 318.464 104.966 318.464 104.459V103.921C318.464 103.241 319.101 102.647 320.375 102.14C321.649 100.977 322.286 99.5173 322.286 97.7607V97.6309C322.2 95.3548 322.063 93.623 321.878 92.4355C322.15 90.5677 322.286 89.2936 322.286 88.6133C322.286 86.1022 321.742 84.5065 320.653 83.8262C319.874 83.3932 319.33 82.9355 319.021 82.4531V81.5068C319.021 81.3708 319.336 81.0492 319.967 80.542H321.062C321.148 80.542 321.191 80.5915 321.191 80.6904C323.121 80.2327 324.674 80.0039 325.849 80.0039ZM321.34 81.915V83.0098H321.191L320.783 82.7314H320.115C320.115 82.8923 320.975 83.3499 322.694 84.1045C322.979 84.3148 323.121 84.4508 323.121 84.5127V84.6426C323.121 84.8281 322.936 84.9209 322.564 84.9209V85.6074L322.843 86.0156V86.1455C322.843 86.3311 322.75 86.4238 322.564 86.4238L322.694 86.7021V87.6484L322.843 89.0215H322.973L323.529 88.6133H323.938C324.581 88.7988 324.946 88.8916 325.032 88.8916C325.032 88.7926 325.076 88.7432 325.162 88.7432L324.884 87.5186C324.958 86.1455 325.051 85.459 325.162 85.459C325.051 85.3229 324.958 84.8714 324.884 84.1045L325.162 83.5479L324.754 83.2881H324.476C324.476 83.5602 324.432 83.8757 324.346 84.2344H323.938L323.659 84.1045L323.789 83.8262C323.183 82.2799 322.546 81.5068 321.878 81.5068C321.519 81.6429 321.34 81.779 321.34 81.915ZM325.44 86.832C325.44 88.3288 325.805 89.3307 326.535 89.8379C327.042 90.2956 327.679 90.5244 328.446 90.5244C329.51 90.3389 330.419 89.8812 331.174 89.1514C331.817 88.1989 332.139 87.5618 332.139 87.2402V86.1455C332.139 85.1807 331.273 84.3148 329.541 83.5479C329.331 83.5479 329.145 83.5973 328.984 83.6963C328.49 83.5973 328.081 83.5479 327.76 83.5479C326.993 83.5479 326.263 84.1849 325.57 85.459L325.44 86.832ZM325.292 84.2344C325.391 84.3952 325.44 84.5807 325.44 84.791H325.57C325.57 84.6055 325.842 84.2406 326.387 83.6963H326.127L325.292 84.2344ZM321.47 84.1045C321.47 84.2282 321.606 84.3643 321.878 84.5127V84.3828C321.878 84.1973 321.791 84.1045 321.618 84.1045H321.47ZM322.286 84.9209V85.459H322.435V84.9209H322.286ZM322.694 89.9863V90.8027C322.88 90.7038 323.022 90.6543 323.121 90.6543V90.2461C323.121 90.0729 323.028 89.9863 322.843 89.9863H322.694ZM322.435 92.3057C322.435 92.7757 322.478 93.5488 322.564 94.625H322.973L323.251 93.6602C323.065 93.3633 322.973 93.0911 322.973 92.8438V92.3057H322.435ZM343.438 80.1338C344.638 80.3193 345.461 80.4121 345.906 80.4121C346.859 80.3255 347.632 80.2822 348.226 80.2822C349.042 81.1481 349.45 81.8285 349.45 82.3232V82.7314C348.634 83.3376 348.226 83.7025 348.226 83.8262C348.04 84.6055 347.947 85.1064 347.947 85.3291C348.801 87.2464 349.531 88.2051 350.137 88.2051H350.545C351.337 88.2051 352.066 87.2031 352.734 85.1992C352.734 83.987 352.277 83.2572 351.361 83.0098L351.231 82.7314V81.6367C351.85 80.7337 352.809 80.2822 354.107 80.2822C354.404 80.2822 354.633 80.3255 354.794 80.4121C355.4 80.3255 356.625 80.2327 358.468 80.1338C359.47 80.1338 360.02 80.9564 360.119 82.6016V82.8799C359.711 83.5107 359.253 83.8262 358.746 83.8262H358.338C358.251 83.8262 358.208 83.7829 358.208 83.6963C356.884 84.389 355.969 85.2982 355.462 86.4238C354.918 88.2174 353.965 90.6296 352.604 93.6602C352.233 94.7734 352.005 96.0537 351.918 97.501C351.918 99.8389 352.598 101.342 353.959 102.01C354.095 102.195 355.01 102.56 356.705 103.104C357.163 103.575 357.392 103.983 357.392 104.329V104.867C357.392 105.968 357.206 106.519 356.835 106.519C356.39 106.519 355.932 106.382 355.462 106.11C355.462 106.308 354.417 106.58 352.326 106.927L351.361 106.648H350.415C349.772 106.834 349.407 106.927 349.32 106.927C348.863 106.741 348.634 106.605 348.634 106.519C348.436 106.519 347.706 106.655 346.444 106.927H345.906C344.533 106.209 343.847 105.659 343.847 105.275C343.674 104.645 343.587 104.1 343.587 103.643C343.587 103.395 344.496 102.894 346.314 102.14C347.354 102.14 348.17 101.459 348.764 100.099L348.634 99.4121C348.634 99.3503 348.677 98.7565 348.764 97.6309C348.764 95.2064 348.176 93.0664 347.001 91.2109C347.001 90.7533 346.543 89.6152 345.628 87.7969C345.17 86.0527 344.397 84.8652 343.309 84.2344C342.999 83.9622 342.226 83.7829 340.989 83.6963L340.433 83.0098V81.5068C340.433 81.1481 341.435 80.6904 343.438 80.1338ZM340.989 81.6367L340.841 81.915V82.3232C340.841 82.7809 341.07 83.0531 341.527 83.1396V83.2881H341.936V83.0098H341.527L341.657 82.3232V81.915C341.509 81.915 341.286 81.8223 340.989 81.6367ZM371.586 79.5771H371.716L374.054 79.9854C374.524 79.8988 374.975 79.8555 375.408 79.8555C376.324 80.1276 377.418 80.307 378.692 80.3936C379.608 81.0863 380.065 82.7253 380.065 85.3105C380.152 85.6693 380.381 87.265 380.752 90.0977L380.195 90.5059H379.101C378.767 90.5059 378.402 89.3678 378.006 87.0918C377.919 87.0918 377.876 86.999 377.876 86.8135L378.006 86.5352C377.833 85.6569 377.239 84.7477 376.225 83.8076C375.47 83.4489 374.882 83.2695 374.462 83.2695C373.683 83.3561 373.046 83.3994 372.551 83.3994C372.452 83.2262 372.402 83.0902 372.402 82.9912H370.77C370.77 83.3005 370.405 83.4798 369.675 83.5293C368.945 84.4076 368.58 85.0941 368.58 85.5889L368.45 86.8135C368.574 86.8135 368.71 86.9495 368.858 87.2217V88.1865L368.58 89.1328C369.347 90.1348 369.848 90.6357 370.083 90.6357H370.213C370.695 90.6357 371.382 90.1348 372.272 89.1328H372.402V88.1865C372.402 87.6917 372.588 87.3701 372.959 87.2217H373.775C374.109 87.2217 374.61 88.2236 375.278 90.2275C375.192 90.71 375.148 90.9883 375.148 91.0625C375.322 91.7799 375.408 92.5036 375.408 93.2334L375.687 93.1035H376.373C376.559 93.1283 376.651 93.221 376.651 93.3818V93.9199C376.651 94.1055 376.559 94.1982 376.373 94.1982H375.687L375.408 94.0684V95.293L374.87 98.2988L374.313 98.707H373.497C373.089 98.707 372.681 97.7051 372.272 95.7012C371.654 94.8848 371.06 94.4766 370.491 94.4766C369.217 95.0085 368.58 96.4186 368.58 98.707C368.58 100.637 369.403 101.911 371.048 102.529L371.994 102.678C373.899 102.678 375.13 102.263 375.687 101.435C376.33 100.89 376.651 99.8018 376.651 98.1689C377.047 97.0062 377.635 96.1403 378.414 95.5713H379.509C379.88 95.5713 380.201 96.2083 380.474 97.4824C380.375 100.142 380.325 101.824 380.325 102.529L380.195 103.086C380.282 103.247 380.325 103.426 380.325 103.624C379.719 105.628 378.631 106.63 377.06 106.63C377.06 106.729 376.874 106.778 376.503 106.778C375.575 106.778 373.707 106.636 370.899 106.352C367.349 106.525 365.574 106.846 365.574 107.316H365.018C364.721 106.772 364.405 106.5 364.071 106.5C363.119 106.228 362.618 106.092 362.568 106.092H361.474C361.201 106.092 360.973 105.677 360.787 104.849C361.331 103.488 362.104 102.808 363.106 102.808C364.356 102.808 365.314 102.035 365.982 100.488C365.982 100.29 365.939 99.7894 365.853 98.9854C365.853 98.5648 365.896 97.5133 365.982 95.8311C365.896 94.5199 365.853 93.79 365.853 93.6416C366.211 90.2028 366.391 87.8835 366.391 86.6836C366.391 85.5827 365.933 84.7601 365.018 84.2158C365.018 84.154 364.745 83.9746 364.201 83.6777C363.484 83.8633 362.939 83.9561 362.568 83.9561L361.195 82.583V81.0801C361.195 80.6224 362.018 80.2575 363.663 79.9854C363.935 80.0719 364.071 80.1647 364.071 80.2637C364.269 80.2637 364.449 80.2142 364.609 80.1152C364.832 80.1152 365.519 80.1647 366.669 80.2637C369.947 80.14 371.586 79.9111 371.586 79.5771ZM370.77 80.5234H370.361C369.372 80.5234 367.776 80.6595 365.574 80.9316V80.8018L365.444 80.5234L364.479 80.6719H364.201L363.385 80.5234C363.249 80.5234 362.704 80.709 361.752 81.0801V82.4346C361.752 82.583 362.117 82.9046 362.847 83.3994C364.331 83.1273 365.284 82.9912 365.704 82.9912C366.533 83.486 366.947 84.9456 366.947 87.3701V88.4648L367.894 88.873L368.172 88.4648L367.894 88.0381V87.6299L368.172 87.2217C367.986 87.2217 367.894 87.0856 367.894 86.8135C367.943 85.8115 368.036 85.3105 368.172 85.3105L368.023 85.0322V83.3994L368.172 82.7129L369.805 82.8613H370.361C370.361 82.4408 370.77 82.1624 371.586 82.0264H371.864L372.959 82.8613H373.497L374.184 82.7129V82.583C373.825 81.8656 373.231 81.179 372.402 80.5234C372.402 80.2513 372.31 80.1152 372.124 80.1152H371.716C371.382 80.3874 371.066 80.5234 370.77 80.5234ZM370.083 80.2637V80.3936H370.899V80.2637H370.083ZM374.592 80.5234C374.802 81.0801 374.988 81.3584 375.148 81.3584H375.557C375.557 81.2594 375.6 81.1172 375.687 80.9316C375.439 80.9316 375.303 80.709 375.278 80.2637C374.821 80.3503 374.592 80.4368 374.592 80.5234ZM371.178 82.583V82.7129H371.864C371.864 82.5273 371.771 82.4346 371.586 82.4346C371.413 82.5335 371.277 82.583 371.178 82.583ZM368.858 82.9912V83.1211H369.675V82.9912H368.858ZM365.018 83.1211V83.2695H365.574V83.1211H365.018ZM368.172 83.2695V84.3643H368.302V83.2695H368.172ZM368.45 83.2695V84.3643C368.586 84.3643 368.902 83.9993 369.396 83.2695H368.45ZM364.888 83.6777C364.974 83.6777 365.382 83.9499 366.112 84.4941C365.877 83.7643 365.655 83.3994 365.444 83.3994H365.166C364.98 83.4242 364.888 83.5169 364.888 83.6777ZM376.132 108.43H376.8C376.985 108.467 377.078 108.56 377.078 108.708V109.933C377.078 110.069 376.942 110.211 376.67 110.359H376.54C376.045 110.359 375.724 110.174 375.575 109.803V108.986C375.575 108.838 375.761 108.652 376.132 108.43ZM378.822 88.4648V88.7246C378.958 89.0957 379.094 89.2812 379.23 89.2812H379.509V88.7246C379.348 88.7246 379.119 88.638 378.822 88.4648ZM392.349 79.9854C394.513 79.9854 396.338 80.8512 397.822 82.583C398.96 84.1169 399.733 86.1641 400.142 88.7246C400.562 88.7246 400.927 90.4131 401.236 93.79L400.42 96.9258L400.55 97.2041V97.4824C400.55 98.1009 400.321 99.1029 399.863 100.488L400.012 101.175C398.973 103.166 397.556 104.669 395.763 105.684C394.959 106.129 394.322 106.352 393.852 106.352C392.577 106.079 391.26 105.9 389.899 105.813C389.009 105.059 388.007 103.964 386.894 102.529C386.003 102.529 385.137 100.024 384.296 95.0146C384.296 94.9157 384.339 94.7796 384.426 94.6064C384.339 93.5303 384.296 92.7572 384.296 92.2871C384.296 88.6009 385.434 85.3167 387.71 82.4346C388.489 82.4346 389.126 81.9336 389.621 80.9316C389.621 80.5729 390.53 80.2575 392.349 79.9854ZM388.396 82.7129V82.9912C388.446 83.5355 388.582 83.8076 388.805 83.8076H388.935C390.122 83.0778 391.31 82.7129 392.497 82.7129L392.219 82.3047V82.1748H392.349C393.685 82.3975 394.6 82.6696 395.095 82.9912C395.243 83.0778 395.423 83.1211 395.633 83.1211C395.905 83.0592 396.084 82.8799 396.171 82.583L396.041 81.8965H394.538C394.328 81.8965 394.099 81.4883 393.852 80.6719L392.219 80.5234C390.747 80.5234 389.838 81.1172 389.491 82.3047C388.922 82.5768 388.557 82.7129 388.396 82.7129ZM387.84 89.8193V91.0625C387.84 91.1491 387.797 91.1924 387.71 91.1924L387.84 91.4707C387.753 91.9408 387.71 92.2129 387.71 92.2871C387.896 92.6211 387.988 92.986 387.988 93.3818V93.6416C387.704 94.0003 387.562 94.2786 387.562 94.4766C387.562 95.8372 387.976 97.0186 388.805 98.0205C389.411 99.5049 390.363 100.6 391.662 101.305C391.996 101.49 392.361 101.583 392.757 101.583H393.035C394.297 101.583 395.528 100.717 396.728 98.9854C397 98.5277 397.365 97.1113 397.822 94.7363C398.008 94.7363 398.101 94.1488 398.101 92.9736C397.841 88.236 397.34 85.7311 396.598 85.459C395.311 83.9993 394.124 83.2695 393.035 83.2695H392.627C390.796 83.2695 389.522 84.3148 388.805 86.4053C388.805 87.0732 388.619 87.4814 388.248 87.6299C387.976 88.5205 387.84 89.2503 387.84 89.8193ZM428.029 80.1152C430.305 80.8698 431.443 82.1006 431.443 83.8076C431.32 83.8076 431.184 83.9437 431.035 84.2158L430.219 84.0859C429.266 84.1725 428.493 84.2158 427.899 84.2158C427.083 84.9704 426.675 85.5641 426.675 85.9971C426.576 86.9495 426.526 87.7227 426.526 88.3164C426.526 89.4544 426.662 90.8213 426.935 92.417C426.761 94.1117 426.675 95.7507 426.675 97.334V100.08C426.675 100.6 426.761 101.509 426.935 102.808C426.774 102.808 426.594 103.216 426.396 104.032C424.788 105.937 423.558 107.125 422.704 107.595H421.479C420.589 107.78 420.088 107.873 419.977 107.873H419.698C417.113 107.873 415.245 106.593 414.095 104.032C413.823 104.032 413.501 103.445 413.13 102.27L413.278 100.618C413.179 99.7152 413.13 99.0348 413.13 98.5771C413.13 97.5752 414.089 96.6165 416.006 95.7012H416.692C418.103 95.7012 418.968 97.2041 419.29 100.21L419.142 100.896C419.785 101.898 420.471 102.399 421.201 102.399C421.201 102.486 421.244 102.529 421.331 102.529H421.479C422.754 101.787 423.391 101.057 423.391 100.34C423.329 96.9753 423.143 95.293 422.834 95.293C422.933 94.056 422.982 93.1468 422.982 92.5654V91.3223C422.982 90.7409 422.933 90.1533 422.834 89.5596L423.112 87.2217C422.927 87.2217 422.834 87.1351 422.834 86.9619C422.834 86.5042 422.927 86.2754 423.112 86.2754C422.469 84.6302 421.238 83.8076 419.42 83.8076C418.331 83.6715 417.787 83.4922 417.787 83.2695V82.0264C418.368 80.9378 419.327 80.3936 420.663 80.3936H426.396L428.029 80.1152ZM423.391 95.0146C423.663 95.6826 423.799 96.2331 423.799 96.666H424.894C425.079 96.6908 425.172 96.7773 425.172 96.9258V97.4824C425.172 97.569 425.122 97.6123 425.023 97.6123C425.122 98.6143 425.351 99.1152 425.71 99.1152V99.6719C425.438 99.9935 425.302 100.309 425.302 100.618C425.574 101.348 425.889 101.713 426.248 101.713V101.583C426.248 101.496 426.205 101.132 426.118 100.488C426.205 99.8574 426.248 99.3564 426.248 98.9854C425.803 98.7503 425.58 98.3854 425.58 97.8906C425.939 96.765 426.118 96.0785 426.118 95.8311C425.957 95.1012 425.778 94.7363 425.58 94.7363C424.924 94.8353 424.56 94.8848 424.485 94.8848C424.3 94.7858 424.164 94.7363 424.077 94.7363L423.391 95.0146ZM426.248 100.21V100.748H426.396V100.21H426.248ZM441.036 79.9854C443.201 79.9854 445.025 80.8512 446.51 82.583C447.648 84.1169 448.421 86.1641 448.829 88.7246C449.25 88.7246 449.615 90.4131 449.924 93.79L449.107 96.9258L449.237 97.2041V97.4824C449.237 98.1009 449.008 99.1029 448.551 100.488L448.699 101.175C447.66 103.166 446.244 104.669 444.45 105.684C443.646 106.129 443.009 106.352 442.539 106.352C441.265 106.079 439.948 105.9 438.587 105.813C437.696 105.059 436.694 103.964 435.581 102.529C434.69 102.529 433.825 100.024 432.983 95.0146C432.983 94.9157 433.027 94.7796 433.113 94.6064C433.027 93.5303 432.983 92.7572 432.983 92.2871C432.983 88.6009 434.121 85.3167 436.397 82.4346C437.177 82.4346 437.814 81.9336 438.309 80.9316C438.309 80.5729 439.218 80.2575 441.036 79.9854ZM437.084 82.7129V82.9912C437.133 83.5355 437.27 83.8076 437.492 83.8076H437.622C438.81 83.0778 439.997 82.7129 441.185 82.7129L440.906 82.3047V82.1748H441.036C442.372 82.3975 443.287 82.6696 443.782 82.9912C443.931 83.0778 444.11 83.1211 444.32 83.1211C444.592 83.0592 444.772 82.8799 444.858 82.583L444.729 81.8965H443.226C443.015 81.8965 442.786 81.4883 442.539 80.6719L440.906 80.5234C439.434 80.5234 438.525 81.1172 438.179 82.3047C437.61 82.5768 437.245 82.7129 437.084 82.7129ZM436.527 89.8193V91.0625C436.527 91.1491 436.484 91.1924 436.397 91.1924L436.527 91.4707C436.441 91.9408 436.397 92.2129 436.397 92.2871C436.583 92.6211 436.676 92.986 436.676 93.3818V93.6416C436.391 94.0003 436.249 94.2786 436.249 94.4766C436.249 95.8372 436.663 97.0186 437.492 98.0205C438.098 99.5049 439.051 100.6 440.35 101.305C440.684 101.49 441.049 101.583 441.444 101.583H441.723C442.984 101.583 444.215 100.717 445.415 98.9854C445.687 98.5277 446.052 97.1113 446.51 94.7363C446.695 94.7363 446.788 94.1488 446.788 92.9736C446.528 88.236 446.027 85.7311 445.285 85.459C443.999 83.9993 442.811 83.2695 441.723 83.2695H441.314C439.484 83.2695 438.21 84.3148 437.492 86.4053C437.492 87.0732 437.307 87.4814 436.936 87.6299C436.663 88.5205 436.527 89.2503 436.527 89.8193ZM457.81 99.208H458.533C459.696 99.208 460.463 100.544 460.834 103.216C460.587 105.232 459.739 106.24 458.292 106.24C458.02 106.401 457.779 106.481 457.568 106.481C456.27 106.098 455.62 105.851 455.62 105.739C454.89 104.663 454.525 103.939 454.525 103.568V101.509C454.525 101.348 454.649 101.268 454.896 101.268V100.414C455.676 99.61 456.647 99.208 457.81 99.208ZM455.62 100.303L455.509 100.544C455.657 100.457 455.775 100.414 455.861 100.414V100.303H455.62ZM455.008 101.88V103.327C455.008 103.537 455.088 103.896 455.249 104.403H455.379V104.292C455.292 104.144 455.249 104.026 455.249 103.939L455.509 103.81H455.62C455.62 104.193 455.824 104.558 456.232 104.904H456.344C456.344 104.743 456.387 104.663 456.474 104.663C456.474 104.292 456.226 103.562 455.731 102.474C455.731 102.078 455.49 101.88 455.008 101.88ZM453.932 105.016C454.488 105.016 454.767 105.3 454.767 105.869V106.24C454.767 106.401 454.686 106.481 454.525 106.481H454.043C453.919 106.481 453.758 106.314 453.561 105.98V105.387C453.561 105.275 453.684 105.152 453.932 105.016ZM454.043 105.517V105.869C454.068 106.03 454.148 106.11 454.284 106.11V105.739C454.284 105.591 454.204 105.517 454.043 105.517ZM470.056 99.208H470.779C471.942 99.208 472.709 100.544 473.08 103.216C472.833 105.232 471.985 106.24 470.538 106.24C470.266 106.401 470.025 106.481 469.814 106.481C468.516 106.098 467.866 105.851 467.866 105.739C467.136 104.663 466.771 103.939 466.771 103.568V101.509C466.771 101.348 466.895 101.268 467.143 101.268V100.414C467.922 99.61 468.893 99.208 470.056 99.208ZM467.866 100.303L467.755 100.544C467.903 100.457 468.021 100.414 468.107 100.414V100.303H467.866ZM467.254 101.88V103.327C467.254 103.537 467.334 103.896 467.495 104.403H467.625V104.292C467.538 104.144 467.495 104.026 467.495 103.939L467.755 103.81H467.866C467.866 104.193 468.07 104.558 468.479 104.904H468.59C468.59 104.743 468.633 104.663 468.72 104.663C468.72 104.292 468.472 103.562 467.978 102.474C467.978 102.078 467.736 101.88 467.254 101.88ZM466.178 105.016C466.734 105.016 467.013 105.3 467.013 105.869V106.24C467.013 106.401 466.932 106.481 466.771 106.481H466.289C466.165 106.481 466.005 106.314 465.807 105.98V105.387C465.807 105.275 465.93 105.152 466.178 105.016ZM466.289 105.517V105.869C466.314 106.03 466.394 106.11 466.53 106.11V105.739C466.53 105.591 466.45 105.517 466.289 105.517ZM482.302 99.208H483.025C484.188 99.208 484.955 100.544 485.326 103.216C485.079 105.232 484.231 106.24 482.784 106.24C482.512 106.401 482.271 106.481 482.061 106.481C480.762 106.098 480.112 105.851 480.112 105.739C479.382 104.663 479.018 103.939 479.018 103.568V101.509C479.018 101.348 479.141 101.268 479.389 101.268V100.414C480.168 99.61 481.139 99.208 482.302 99.208ZM480.112 100.303L480.001 100.544C480.149 100.457 480.267 100.414 480.354 100.414V100.303H480.112ZM479.5 101.88V103.327C479.5 103.537 479.58 103.896 479.741 104.403H479.871V104.292C479.785 104.144 479.741 104.026 479.741 103.939L480.001 103.81H480.112C480.112 104.193 480.316 104.558 480.725 104.904H480.836C480.836 104.743 480.879 104.663 480.966 104.663C480.966 104.292 480.718 103.562 480.224 102.474C480.224 102.078 479.982 101.88 479.5 101.88ZM478.424 105.016C478.98 105.016 479.259 105.3 479.259 105.869V106.24C479.259 106.401 479.178 106.481 479.018 106.481H478.535C478.411 106.481 478.251 106.314 478.053 105.98V105.387C478.053 105.275 478.176 105.152 478.424 105.016ZM478.535 105.517V105.869C478.56 106.03 478.64 106.11 478.776 106.11V105.739C478.776 105.591 478.696 105.517 478.535 105.517Z" fill="white"/>
<defs>
<filter id="filter0_d_4101_68157" x="104.828" y="177.48" width="465.863" height="178.834" filterUnits="userSpaceOnUse" color-interpolation-filters="sRGB">
<feFlood flood-opacity="0" result="BackgroundImageFix"/>
<feColorMatrix in="SourceAlpha" type="matrix" values="0 0 0 0 0 0 0 0 0 0 0 0 0 0 0 0 0 0 127 0" result="hardAlpha"/>
<feOffset/>
<feGaussianBlur stdDeviation="10"/>
<feComposite in2="hardAlpha" operator="out"/>
<feColorMatrix type="matrix" values="0 0 0 0 0 0 0 0 0 0 0 0 0 0 0 0 0 0 0.2 0"/>
<feBlend mode="normal" in2="BackgroundImageFix" result="effect1_dropShadow_4101_68157"/>
<feBlend mode="normal" in="SourceGraphic" in2="effect1_dropShadow_4101_68157" result="shape"/>
</filter>
<linearGradient id="paint0_linear_4101_68157" x1="403.076" y1="266.897" x2="410.319" y2="157.088" gradientUnits="userSpaceOnUse">
<stop stop-color="#BFD6F7"/>
<stop offset="1" stop-color="#F47C0F"/>
</linearGradient>
<clipPath id="clip0_4101_68157">
<rect width="715" height="372" fill="white"/>
</clipPath>
</defs>
</svg>
