<svg width="717" height="372" viewBox="0 0 717 372" fill="none" xmlns="http://www.w3.org/2000/svg">
<g clip-path="url(#clip0_4058_27462)">
<rect width="715" height="372" fill="#C12E02"/>
<path d="M207.303 76.3426C174.123 67.2183 53.8463 111.942 -2.14453 135.444V374.96H715.367V91.8956C700.851 86.7113 665.598 76.3426 640.713 76.3426C609.607 76.3426 558.801 128.186 535.99 135.444C513.178 142.701 493.478 113.67 454.077 112.633C414.676 111.596 418.824 127.149 350.391 144.776C281.957 162.403 248.778 87.748 207.303 76.3426Z" fill="#DC4609"/>
<path d="M26.4606 1.92432L60.4313 -3.2588e-06L55.6762 34.8501L63.1803 79.42L67.4508 194.544L14.6201 233.413L21.1322 103.544L0 90.3915V66.293L21.1322 79.42V34.8501L26.4606 1.92432Z" fill="#620901"/>
<path d="M477.222 -7.8706L511.193 -9.79492L506.438 25.0552L513.942 69.6251L514.979 96.9L534.931 80.6304L572.254 57.5318L569.978 69.6251L534.931 101.112L514.979 128.679L518.089 245.869H463.465L471.894 93.7493L431.437 88.9982L403.846 80.6304L410.674 72.646L435.679 77.4846L454.301 78.495L448.396 62.2271L453.091 57.5318L458.343 68.2457L464.551 77.4846L471.894 75.5603L470.577 30.1977L454.701 -4.88747H467.245L474.105 13.7332L477.222 -7.8706Z" fill="#620901"/>
<path d="M693.103 0H655.569V36.0881V45.0223V53.9565V60.806L642.69 222.974L699.377 236.075L696.868 93.0154L716 49.0936V34.0347L693.103 60.806V16.0477V0Z" fill="#620901"/>
<path d="M208.603 1.92372L174.633 -0.000607491V36.0875V45.0217V53.9559V60.8055L161.754 222.973L218.441 236.074L215.856 56.6919L240.361 39.8167L284.001 8.20726L273.021 6.2364L253.312 18.3431L255.43 -3.05469L248.245 -0.000674725L242.895 23.9741L212.167 39.8167V16.0471L208.603 1.92372Z" fill="#620901"/>
<path d="M88.4906 0H126.518V39.0022L131.002 74.6428L172.629 39.0022L151.102 0H160.746L181.737 32.1552L220.314 0H235.064L135.086 101.787L143.655 239.492L88.4906 222.889V148.766V74.6428L25.626 0H43.6336L88.4906 46.5333V0Z" fill="#7F1304"/>
<path d="M623.034 -0.000469685L588.124 -2.78125L565.854 78.8484L547.413 59.2393L554.24 18.7817L547.413 7.81656L538.717 50.5428L495.235 18.7817L488.05 21.4285L551.071 81.4347L562.538 101.966L554.24 155.344L565.854 267.873L613.418 222.888L603.526 130.188L613.418 74.6423L676.282 -0.000469685H661.98L635.135 29.7469L613.418 46.5329L623.034 -0.000469685Z" fill="#7F1304"/>
<path d="M306.349 -2.78125H350.654L356.026 46.7923L358.751 78.103L391.364 57.0313L384.538 18.7817L391.364 7.81656L400.061 50.5428L443.543 18.7817L450.727 21.4285L387.707 81.4347L366.393 109.674L369.333 155.344L372.923 267.873L298.162 224.85L311.262 155.344V64.9142L262.496 -0.000469685H276.797L292.703 13.058L311.262 33.8005L306.349 -2.78125Z" fill="#7F1304"/>
<path d="M673 52C678.523 52 683 47.5228 683 42C683 36.4772 678.523 32 673 32C667.477 32 663 36.4772 663 42C663 47.5228 667.477 52 673 52Z" stroke="white" stroke-width="2" stroke-linecap="round" stroke-linejoin="round"/>
<path d="M673 46V42" stroke="white" stroke-width="2" stroke-linecap="round" stroke-linejoin="round"/>
<path d="M673 38H673.01" stroke="white" stroke-width="2" stroke-linecap="round" stroke-linejoin="round"/>
</g>
<path d="M153.989 116.352C149.214 133.404 129.547 138.52 120.31 138.947C126.136 142.357 140.262 146.621 150.152 136.389C160.043 126.157 156.831 118.767 153.989 116.352Z" fill="#F47C0F"/>
<path d="M496.183 66.6559C490.609 65.011 495.465 59.8875 497.525 56.424C500.454 51.501 506.207 53.6159 510.81 50.2056C517.313 45.3864 523.331 33.6875 523.331 33.6875C527.205 46.5996 518.956 75.1151 505.941 91.3829C505.941 91.3829 507.207 69.9094 496.183 66.6559Z" fill="#F47C0F"/>
<path d="M403.458 57.252C406.593 60.0289 407.446 62.4525 405.042 64.0836C401.626 66.402 399.655 64.0836 390.97 65.5801C385.221 66.5707 376.06 77.2867 376.06 77.2867C377.477 67.6748 398.424 35.6769 405.042 44.9413C405.042 44.9413 397.257 51.7594 403.458 57.252Z" fill="#F47C0F"/>
<path d="M487.642 170.535C487.571 163 504.062 154.329 508.539 162.218C511.738 171.601 495.106 163.711 487.642 170.535Z" fill="#F47C0F"/>
<path d="M0 275H715V372H0V275Z" fill="#7F1304"/>
<path d="M0 223.624C10.2134 222.657 32.5097 216.662 28.2465 200.415C22.9174 180.106 57.5533 129.334 96.1855 133.686C82.6755 145.569 63.7614 171.249 96.1855 178.904C124.717 185.639 141.047 176.062 147.472 168.444C148.185 167.394 148.883 166.403 149.555 165.482C149.041 166.402 148.349 167.405 147.472 168.444C136.886 184.052 123.009 212.887 139.317 223.624C161.073 237.949 225.062 179.418 193.068 118.1C198.077 125.065 211.316 136.265 224.206 125.348C240.319 111.702 263.685 75.7135 240.447 48C251.144 54.4263 275.193 65.3509 285.815 57.6394C267.004 76.6615 234.251 121.126 253.726 146.805C264.102 161.731 291.782 124.41 285.815 110.389C288.946 116.898 299.261 126.012 315.469 110.389C335.728 90.8602 323.458 86.3563 332.982 75.6396C331.183 84.6278 330.632 102.259 342.823 100.876C355.014 99.493 360.885 92.6482 362.297 89.3986C360.949 96.1658 352.189 111.853 327.929 120.463C297.605 131.225 254.255 162.598 250.472 193.111C246.688 223.624 289.667 270.032 359.481 201.859C393.9 172.758 401.288 140.864 401.288 140.864C413.787 149.005 443.65 156.321 463.102 120.463C476.995 100.876 476.573 93.9263 476.995 84.7829C481.549 90.4968 489.289 104.267 483.825 113.636C476.995 125.348 429.953 159.777 442.805 186.944C453.087 208.677 474.436 193.722 483.825 183.528C483.683 190.306 479.34 206.912 463.102 219.112C442.805 246.707 549.572 241.566 527.463 165.482C531.729 165.387 541.193 168.864 544.917 183.528C543.753 183.528 561.208 220.252 589.135 183.528C617.063 146.805 600.973 149.821 616.131 125.348C631.289 100.876 655.921 116.969 664.447 100.876C666.974 106.254 667.1 118.678 647.395 125.348C622.763 133.686 641.71 177.758 664.447 165.482C670.452 161.476 681.495 158.178 677.624 177.033C677.37 177.31 674.314 168.437 667.184 175.092C660.055 181.747 651.27 192.614 664.447 214.482C671.723 226.247 688.872 219.457 696.667 209.271C702.903 201.122 711.882 203.386 715 205.536V326L698.38 307.591L635.164 312.711L561.304 318.054C561.304 318.054 583.037 312.555 592.138 302.629C597.379 296.913 602.266 285.548 602.266 285.548C602.266 285.548 541.44 290.536 517.458 291.18C495.31 291.774 460.723 291.18 460.723 291.18L96.1855 287.748L83.4792 308.426L91.3642 311.964L82.9307 309.318L83.4792 308.426L37.3986 287.748H0V223.624Z" fill="#F47C0F"/>
<path d="M42.5166 248.903C34.1737 258.53 10.696 258.262 0 256.925V300.075C5.24442 294.316 17.7431 290.17 35.9032 300.075C72.5525 322.095 119.528 322.095 119.528 322.095C68.9436 305.967 93.343 296.639 96.264 295.476C106.228 291.508 179.056 290.17 210.978 291.42H464.076L409.137 279.774C409.137 279.774 384.635 275.779 380.169 263.621C376.308 253.114 387.161 235.822 387.161 235.822C387.161 235.822 354.727 257.094 331.223 263.621C308.213 270.011 293.672 273.643 270.29 268.786C250.176 264.607 226.205 257.141 222.988 245.769C219.771 234.398 217.242 207.076 232.863 188.762C248.484 170.448 247.002 159.885 244.309 156.892C244.758 158.389 243.86 162.055 236.678 164.748C217.601 169.461 229.945 136.918 231.067 136.469C219.935 141.317 217.315 158.896 217.396 167.079C219 255.321 116.319 265.749 119.528 242.486C122.095 223.875 105.088 216.013 96.264 214.409C105.89 222.431 101.077 244.892 75.4068 248.903C54.8705 252.112 62.5716 237.405 68.9892 229.651C63.6412 232.057 50.8595 239.277 42.5166 248.903Z" fill="#F4A138"/>
<path d="M613.029 297.945C603.196 311.07 562.797 318.802 551 319.59C551 319.59 570.586 321.781 583.184 322.345C620.744 324.024 656.37 317.811 679.197 314.951C686.832 313.994 708.821 311.54 705.572 322.345C704.29 326.608 698.517 331 698.517 331L715 325.597V227C715 227 711.938 246.445 702.955 251.312C695.894 255.138 690.579 251.783 682.669 251.312C668.404 250.463 646.534 245.234 646.534 245.234C646.534 245.234 663.542 254.369 663.65 264.818C663.738 273.232 659.785 278.979 652.873 283.052C645.941 287.137 639.823 286.486 632.587 283.052C626.668 280.243 620.542 270.896 620.542 270.896C617.352 275.402 622.861 284.821 613.029 297.945Z" fill="#F4A138"/>
<g filter="url(#filter0_d_4058_27462)">
<path d="M540.828 323.026C522.589 339.402 422.22 336.026 344.844 336.026C267.468 336.026 133.411 336.026 124.828 305.179C142.062 273.21 155.347 287.932 193.562 262.292C240.787 230.606 252.73 210.14 306.828 204.526C360.145 198.992 411.363 182.403 451.059 233.18C455.519 238.885 464.615 245.972 475.328 253.327C479.654 256.296 486.763 266.9 507.328 270.48C540.828 277.48 520.743 281.91 530.328 288.48C557.139 306.86 553.976 311.221 540.828 323.026Z" fill="url(#paint0_linear_4058_27462)"/>
<circle cx="291.828" cy="242.48" r="4" fill="#6C6C6C"/>
<circle cx="396.828" cy="247.48" r="3" fill="#6C6C6C"/>
<path d="M394.828 278.48C389.386 285.752 381.828 281.478 372.328 271.98C370.828 270.48 361.328 270.111 356.828 276.98C351.328 281.48 343.828 278.48 350.829 271.98C359.413 264.702 364.315 263.674 369.519 262.829C372.657 262.32 379.766 261.672 385.828 265.98C389.47 268.568 395.328 269.48 394.828 278.48Z" fill="#F2A3A3"/>
<path d="M231.391 297.599C191.945 326.287 297.114 324.112 340.776 324.112C384.437 324.112 511.891 336.964 511.891 310.099C511.891 283.233 380.052 293.599 336.391 293.599C292.729 293.599 275.391 265.599 231.391 297.599Z" fill="#E6E6E6"/>
<path d="M161.181 262.088C157.338 262.088 157.236 269.598 161.041 272.358L196.556 298.123C196.556 298.123 209.721 300.172 215.772 284.708C222.299 268.03 211.974 262.088 211.974 262.088L161.181 262.088Z" fill="#98887F"/>
</g>
<path d="M184.389 83.1015L219.821 38.8105L340.144 43.6087L507.711 46.9305L531.702 73.5049L525.058 120.01L497.376 151.752L407.688 148.799L388.126 174.266L378.16 146.585L340.144 142.894L217.976 161.717L184.389 83.1015Z" fill="#091A21"/>
<path d="M253.653 79.7256L258.292 80.2822H259.257L259.943 79.7256H260.63C261.632 80.4307 262.133 81.2965 262.133 82.3232C262.133 82.7809 262.083 83.4674 261.984 84.3828L262.393 88.7432C262.158 89.5719 261.978 89.9863 261.854 89.9863H261.446C260.58 89.9863 259.715 89.1204 258.849 87.3887C258.552 85.4714 258.187 84.5127 257.754 84.5127C257.457 84.0921 256.999 83.7272 256.381 83.418L255.564 83.5479L254.748 83.1396C253.041 83.1396 251.81 84.1416 251.056 86.1455V86.7021C251.056 88.8421 253.653 90.3451 258.849 91.2109C260.506 92.2747 261.688 93.957 262.393 96.2578C262.702 96.4434 262.887 97.2227 262.949 98.5957C263.061 98.5957 263.147 98.9111 263.209 99.542C262.603 102.177 261.558 104.088 260.073 105.275C259.381 105.708 257.97 106.259 255.843 106.927H255.026C253.629 106.927 252.348 106.519 251.186 105.702H249.423L248.736 106.24H247.642C246.912 105.745 246.547 105.065 246.547 104.199C246.547 103.408 246.726 101.311 247.085 97.9092V96.2578C247.085 96.1217 247.271 95.9424 247.642 95.7197H248.05C248.817 95.7197 249.726 96.9505 250.777 99.4121C252.002 100.958 253.369 101.731 254.878 101.731H255.026C256.647 101.731 257.921 100.544 258.849 98.1689V97.9092C258.403 95.7197 257.309 94.625 255.564 94.625C250.74 93.4499 248.328 91.3965 248.328 88.4648C248.155 88.4648 248.019 87.4629 247.92 85.459C248.229 83.9004 249.547 82.2181 251.872 80.4121C252.75 80.4121 253.344 80.1833 253.653 79.7256ZM252.559 81.6367C252.719 82.181 253.128 82.4531 253.783 82.4531H254.062C254.062 82.3913 254.105 82.1191 254.191 81.6367H254.6L254.47 82.6016C254.692 82.6016 255.101 82.7376 255.694 83.0098C256.004 82.8242 256.282 82.7314 256.529 82.7314H256.938C257.816 82.7314 258.496 83.418 258.979 84.791C258.979 87.2773 259.844 88.8236 261.576 89.4297L261.854 88.6133C261.756 86.8073 261.619 85.2116 261.446 83.8262C261.533 83.4798 261.576 83.1149 261.576 82.7314V82.3232C261.576 81.4574 261.211 80.777 260.481 80.2822H260.203C260.203 80.9131 259.931 81.2285 259.387 81.2285H258.44C258.082 80.9564 257.803 80.8203 257.605 80.8203L258.032 81.3584V81.7852H257.884C256.424 81.5625 255.694 81.3337 255.694 81.0986V80.4121L254.748 80.2822H253.932C253.016 80.7275 252.559 81.179 252.559 81.6367ZM256.381 82.8799V83.0098H257.067V82.8799H256.381ZM256.938 83.1396V83.2881C257.024 83.2881 257.525 83.6963 258.44 84.5127V84.3828C257.834 83.6777 257.333 83.2633 256.938 83.1396ZM257.884 83.418V83.5479L258.292 83.8262V83.6963L257.884 83.418ZM250.369 84.9209C250.394 85.1064 250.487 85.1992 250.647 85.1992C250.833 84.7415 251.198 84.1911 251.742 83.5479H251.464C250.734 83.8942 250.369 84.3519 250.369 84.9209ZM251.872 83.6963L251.464 84.2344H251.594L252.002 83.6963H251.872ZM258.7 84.6426V85.1992H258.849V84.6426H258.7ZM249.961 90.3945C249.986 90.5677 250.078 90.6543 250.239 90.6543C250.672 90.0234 250.944 89.708 251.056 89.708C251.241 89.7327 251.334 89.8255 251.334 89.9863C251.235 90.4564 251.186 90.7285 251.186 90.8027C251.643 91.582 251.872 92.083 251.872 92.3057C251.699 92.3923 251.563 92.4355 251.464 92.4355V92.5654C253.666 93.6663 255.713 94.2168 257.605 94.2168C258.793 94.7116 259.387 96.2578 259.387 98.8555C259.387 100.476 257.748 101.707 254.47 102.548H254.062C253.517 101.966 252.379 101.465 250.647 101.045C249.856 98.3607 249.033 96.765 248.18 96.2578H247.642L247.493 96.9443V98.3174C247.778 98.6143 247.92 98.8431 247.92 99.0039C247.635 99.4616 247.493 99.9131 247.493 100.358V100.915H247.92C248.068 100.915 248.204 100.593 248.328 99.9502H248.866C249.163 99.9502 249.349 100.637 249.423 102.01L250.091 102.548C250.091 102.424 250.227 102.288 250.499 102.14H250.926C251.099 102.164 251.186 102.257 251.186 102.418V102.696C251.186 102.869 251.099 102.956 250.926 102.956L249.961 102.696L249.831 102.956V103.364C249.831 103.488 250.283 103.81 251.186 104.329C251.792 105.517 252.521 106.11 253.375 106.11C253.375 106.284 254.148 106.42 255.694 106.519C256.56 106.061 257.612 105.696 258.849 105.424C260.308 104.595 261.403 103.228 262.133 101.323C262.257 101.323 262.436 100.729 262.671 99.542C262.374 97.266 262.009 96.1279 261.576 96.1279H261.446V95.998C261.446 95.7878 261.49 95.6022 261.576 95.4414C261.156 94.3281 260.339 93.1901 259.127 92.0273H258.7C258.7 92.2995 258.614 92.4355 258.44 92.4355H258.292C258.131 92.4355 257.902 92.1201 257.605 91.4893C253.239 90.4007 251.056 89.4854 251.056 88.7432L250.647 88.4648C250.425 88.4648 250.196 89.1081 249.961 90.3945ZM251.186 88.6133V88.7432L251.594 89.0215V88.8916L251.186 88.6133ZM257.754 92.9922H258.162C258.298 92.9922 258.434 93.1283 258.57 93.4004V93.9385H258.032C257.847 93.9385 257.754 93.8457 257.754 93.6602V92.9922ZM256.938 93.5303H257.346V93.9385H256.938V93.5303ZM259.535 95.8496H259.943V96.2578H259.535V95.8496ZM259.127 97.6309V98.8555H259.257V97.6309H259.127ZM248.736 97.7607L248.866 98.0391C248.866 98.2246 248.773 98.3174 248.588 98.3174L248.458 98.0391C248.483 97.8535 248.576 97.7607 248.736 97.7607ZM250.926 100.229V100.358C251.012 100.544 251.056 100.68 251.056 100.767H251.464C251.464 100.631 251.285 100.451 250.926 100.229ZM258.44 100.229L258.032 100.767H258.162L258.57 100.229H258.44ZM254.191 102.27V102.418H254.748V102.27H254.191ZM247.233 104.329L247.085 104.607C247.246 105.337 247.611 105.702 248.18 105.702V105.146C247.895 104.601 247.58 104.329 247.233 104.329ZM273.896 80.041H274.843C275.696 80.041 276.612 83.3252 277.589 89.8936C278.677 93.4313 279.543 96.7093 280.187 99.7275C281.213 101.113 282.215 101.936 283.192 102.195C283.737 102.826 284.009 103.599 284.009 104.515V104.923C284.009 105.405 282.184 105.77 278.535 106.018C278.535 106.191 278.306 106.277 277.849 106.277C277.304 106.215 277.032 106.129 277.032 106.018C276.674 106.191 276.358 106.277 276.086 106.277C275.542 106.277 275.041 105.64 274.583 104.366C274.299 104.366 274.156 104.28 274.156 104.106V103.828C274.527 103.544 274.756 102.907 274.843 101.917C275.548 101.917 275.962 101.731 276.086 101.36V100.952C276.086 99.9997 275.628 99.4059 274.713 99.1709C273.105 99.1709 272.06 99.6719 271.577 100.674C271.577 100.859 271.528 100.952 271.429 100.952C271.998 102.498 272.635 103.271 273.34 103.271L273.618 103.698V104.106L273.488 104.923C273.575 105.071 273.618 105.3 273.618 105.609C273.123 106.03 272.486 106.345 271.707 106.556L270.074 106.277L266.104 106.704C265.015 106.024 264.471 105.337 264.471 104.645C264.471 103.977 265.151 103.34 266.512 102.733C267.674 101.632 268.54 99.9007 269.109 97.5381L268.979 97.2598V96.4434C270.068 94.8971 270.612 92.7139 270.612 89.8936V89.3369C270.959 88.6689 271.503 86.8939 272.245 84.0117C272.381 83.9251 272.66 83.8818 273.08 83.8818V83.4551C273.08 83.3561 272.987 82.8551 272.802 81.9521V80.7275C273.037 80.2699 273.402 80.041 273.896 80.041ZM275.121 89.3369V89.6152H273.618C273.433 89.6152 273.16 90.9326 272.802 93.5674C272.703 93.5674 272.653 93.7529 272.653 94.124C273.445 95.0394 273.903 95.4971 274.026 95.4971H274.435C275.065 95.4971 275.659 94.9033 276.216 93.7158C275.758 93.221 275.529 92.2624 275.529 90.8398C275.406 90.8398 275.313 90.3389 275.251 89.3369H275.121ZM268.553 100.674C268.466 101.094 268.423 101.459 268.423 101.769C268.596 101.868 268.732 101.917 268.831 101.917L269.518 101.769V101.639C269.518 100.995 269.196 100.674 268.553 100.674ZM270.204 102.604H270.074C269.171 102.418 268.528 102.232 268.145 102.047C268.145 102.591 267.872 102.863 267.328 102.863C266.574 103.321 266.122 103.55 265.974 103.55C266.134 104.366 266.314 104.774 266.512 104.774H266.92C266.92 104.144 267.192 103.828 267.736 103.828L268.293 103.958V104.515C268.107 104.873 267.879 105.053 267.606 105.053V105.739H267.736C268.54 105.826 268.998 105.869 269.109 105.869C269.382 105.869 269.518 105.69 269.518 105.331H269.647C269.957 105.628 270.371 105.857 270.891 106.018C270.977 106.018 271.021 105.968 271.021 105.869L271.707 106.018C272.548 105.646 273.006 105.461 273.08 105.461L272.932 105.201C272.932 104.818 273.024 104.36 273.21 103.828C271.565 103.222 270.742 102.449 270.742 101.509C270.458 101.509 270.278 101.874 270.204 102.604ZM271.15 101.509V101.639C271.286 102.01 271.429 102.195 271.577 102.195C271.392 101.898 271.299 101.67 271.299 101.509H271.15ZM271.15 102.195V102.325C271.559 102.684 271.787 102.863 271.837 102.863V102.733C271.787 102.733 271.559 102.554 271.15 102.195ZM265.009 104.774C265.368 105.517 265.868 106.018 266.512 106.277C266.512 106.191 266.555 106.147 266.642 106.147C266.642 105.999 266.419 105.77 265.974 105.461L265.825 104.774H265.009ZM293.564 80.0039C298.129 80.0039 300.906 81.0986 301.896 83.2881C301.896 83.3994 302.353 83.8509 303.269 84.6426C303.17 85.125 303.12 85.3971 303.12 85.459C303.306 86.7454 303.398 87.6113 303.398 88.0566C303.398 88.6133 302.761 90.0729 301.487 92.4355C301.302 92.8438 301.209 93.4808 301.209 94.3467C301.58 96.2887 301.994 97.9277 302.452 99.2637C302.625 99.7214 304.035 101.181 306.683 103.643L306.812 104.329V104.867C306.812 105.671 306.225 106.129 305.05 106.24H304.901C302.044 105.882 300.269 105.702 299.576 105.702C298.488 104.168 297.943 102.437 297.943 100.507L298.203 100.358C298.203 100.222 297.931 98.9049 297.387 96.4062C296.719 95.3053 296.082 94.7549 295.476 94.7549C294.115 95.2744 293.435 96.097 293.435 97.2227L293.843 98.4473C293.744 99.1029 293.694 99.4678 293.694 99.542C293.707 100.408 294.758 101.775 296.849 103.643V105.702C296.552 106.246 296.051 106.519 295.346 106.519H291.783C290.905 106.692 290.404 106.778 290.28 106.778C288.549 106.296 287.683 105.98 287.683 105.832L287.404 105.962H287.145C286.501 105.467 286.18 104.966 286.18 104.459V103.921C286.18 103.241 286.817 102.647 288.091 102.14C289.365 100.977 290.002 99.5173 290.002 97.7607V97.6309C289.915 95.3548 289.779 93.623 289.594 92.4355C289.866 90.5677 290.002 89.2936 290.002 88.6133C290.002 86.1022 289.458 84.5065 288.369 83.8262C287.59 83.3932 287.046 82.9355 286.736 82.4531V81.5068C286.736 81.3708 287.052 81.0492 287.683 80.542H288.777C288.864 80.542 288.907 80.5915 288.907 80.6904C290.837 80.2327 292.389 80.0039 293.564 80.0039ZM289.056 81.915V83.0098H288.907L288.499 82.7314H287.831C287.831 82.8923 288.691 83.3499 290.41 84.1045C290.695 84.3148 290.837 84.4508 290.837 84.5127V84.6426C290.837 84.8281 290.651 84.9209 290.28 84.9209V85.6074L290.559 86.0156V86.1455C290.559 86.3311 290.466 86.4238 290.28 86.4238L290.41 86.7021V87.6484L290.559 89.0215H290.688L291.245 88.6133H291.653C292.297 88.7988 292.661 88.8916 292.748 88.8916C292.748 88.7926 292.791 88.7432 292.878 88.7432L292.6 87.5186C292.674 86.1455 292.767 85.459 292.878 85.459C292.767 85.3229 292.674 84.8714 292.6 84.1045L292.878 83.5479L292.47 83.2881H292.191C292.191 83.5602 292.148 83.8757 292.062 84.2344H291.653L291.375 84.1045L291.505 83.8262C290.899 82.2799 290.262 81.5068 289.594 81.5068C289.235 81.6429 289.056 81.779 289.056 81.915ZM293.156 86.832C293.156 88.3288 293.521 89.3307 294.251 89.8379C294.758 90.2956 295.395 90.5244 296.162 90.5244C297.226 90.3389 298.135 89.8812 298.89 89.1514C299.533 88.1989 299.854 87.5618 299.854 87.2402V86.1455C299.854 85.1807 298.989 84.3148 297.257 83.5479C297.047 83.5479 296.861 83.5973 296.7 83.6963C296.205 83.5973 295.797 83.5479 295.476 83.5479C294.709 83.5479 293.979 84.1849 293.286 85.459L293.156 86.832ZM293.008 84.2344C293.107 84.3952 293.156 84.5807 293.156 84.791H293.286C293.286 84.6055 293.558 84.2406 294.103 83.6963H293.843L293.008 84.2344ZM289.186 84.1045C289.186 84.2282 289.322 84.3643 289.594 84.5127V84.3828C289.594 84.1973 289.507 84.1045 289.334 84.1045H289.186ZM290.002 84.9209V85.459H290.15V84.9209H290.002ZM290.41 89.9863V90.8027C290.596 90.7038 290.738 90.6543 290.837 90.6543V90.2461C290.837 90.0729 290.744 89.9863 290.559 89.9863H290.41ZM290.15 92.3057C290.15 92.7757 290.194 93.5488 290.28 94.625H290.688L290.967 93.6602C290.781 93.3633 290.688 93.0911 290.688 92.8438V92.3057H290.15ZM325.85 80.0039C330.414 80.0039 333.191 81.0986 334.181 83.2881C334.181 83.3994 334.638 83.8509 335.554 84.6426C335.455 85.125 335.405 85.3971 335.405 85.459C335.591 86.7454 335.684 87.6113 335.684 88.0566C335.684 88.6133 335.047 90.0729 333.772 92.4355C333.587 92.8438 333.494 93.4808 333.494 94.3467C333.865 96.2887 334.28 97.9277 334.737 99.2637C334.91 99.7214 336.321 101.181 338.968 103.643L339.098 104.329V104.867C339.098 105.671 338.51 106.129 337.335 106.24H337.187C334.329 105.882 332.554 105.702 331.861 105.702C330.773 104.168 330.229 102.437 330.229 100.507L330.488 100.358C330.488 100.222 330.216 98.9049 329.672 96.4062C329.004 95.3053 328.367 94.7549 327.761 94.7549C326.4 95.2744 325.72 96.097 325.72 97.2227L326.128 98.4473C326.029 99.1029 325.979 99.4678 325.979 99.542C325.992 100.408 327.043 101.775 329.134 103.643V105.702C328.837 106.246 328.336 106.519 327.631 106.519H324.068C323.19 106.692 322.689 106.778 322.565 106.778C320.834 106.296 319.968 105.98 319.968 105.832L319.689 105.962H319.43C318.786 105.467 318.465 104.966 318.465 104.459V103.921C318.465 103.241 319.102 102.647 320.376 102.14C321.65 100.977 322.287 99.5173 322.287 97.7607V97.6309C322.201 95.3548 322.064 93.623 321.879 92.4355C322.151 90.5677 322.287 89.2936 322.287 88.6133C322.287 86.1022 321.743 84.5065 320.654 83.8262C319.875 83.3932 319.331 82.9355 319.021 82.4531V81.5068C319.021 81.3708 319.337 81.0492 319.968 80.542H321.062C321.149 80.542 321.192 80.5915 321.192 80.6904C323.122 80.2327 324.674 80.0039 325.85 80.0039ZM321.341 81.915V83.0098H321.192L320.784 82.7314H320.116C320.116 82.8923 320.976 83.3499 322.695 84.1045C322.98 84.3148 323.122 84.4508 323.122 84.5127V84.6426C323.122 84.8281 322.937 84.9209 322.565 84.9209V85.6074L322.844 86.0156V86.1455C322.844 86.3311 322.751 86.4238 322.565 86.4238L322.695 86.7021V87.6484L322.844 89.0215H322.974L323.53 88.6133H323.938C324.582 88.7988 324.947 88.8916 325.033 88.8916C325.033 88.7926 325.076 88.7432 325.163 88.7432L324.885 87.5186C324.959 86.1455 325.052 85.459 325.163 85.459C325.052 85.3229 324.959 84.8714 324.885 84.1045L325.163 83.5479L324.755 83.2881H324.477C324.477 83.5602 324.433 83.8757 324.347 84.2344H323.938L323.66 84.1045L323.79 83.8262C323.184 82.2799 322.547 81.5068 321.879 81.5068C321.52 81.6429 321.341 81.779 321.341 81.915ZM325.441 86.832C325.441 88.3288 325.806 89.3307 326.536 89.8379C327.043 90.2956 327.68 90.5244 328.447 90.5244C329.511 90.3389 330.42 89.8812 331.175 89.1514C331.818 88.1989 332.14 87.5618 332.14 87.2402V86.1455C332.14 85.1807 331.274 84.3148 329.542 83.5479C329.332 83.5479 329.146 83.5973 328.985 83.6963C328.491 83.5973 328.082 83.5479 327.761 83.5479C326.994 83.5479 326.264 84.1849 325.571 85.459L325.441 86.832ZM325.293 84.2344C325.392 84.3952 325.441 84.5807 325.441 84.791H325.571C325.571 84.6055 325.843 84.2406 326.388 83.6963H326.128L325.293 84.2344ZM321.471 84.1045C321.471 84.2282 321.607 84.3643 321.879 84.5127V84.3828C321.879 84.1973 321.792 84.1045 321.619 84.1045H321.471ZM322.287 84.9209V85.459H322.436V84.9209H322.287ZM322.695 89.9863V90.8027C322.881 90.7038 323.023 90.6543 323.122 90.6543V90.2461C323.122 90.0729 323.029 89.9863 322.844 89.9863H322.695ZM322.436 92.3057C322.436 92.7757 322.479 93.5488 322.565 94.625H322.974L323.252 93.6602C323.066 93.3633 322.974 93.0911 322.974 92.8438V92.3057H322.436ZM343.439 80.1338C344.639 80.3193 345.462 80.4121 345.907 80.4121C346.86 80.3255 347.633 80.2822 348.227 80.2822C349.043 81.1481 349.451 81.8285 349.451 82.3232V82.7314C348.635 83.3376 348.227 83.7025 348.227 83.8262C348.041 84.6055 347.948 85.1064 347.948 85.3291C348.802 87.2464 349.532 88.2051 350.138 88.2051H350.546C351.338 88.2051 352.067 87.2031 352.735 85.1992C352.735 83.987 352.278 83.2572 351.362 83.0098L351.232 82.7314V81.6367C351.851 80.7337 352.81 80.2822 354.108 80.2822C354.405 80.2822 354.634 80.3255 354.795 80.4121C355.401 80.3255 356.626 80.2327 358.469 80.1338C359.471 80.1338 360.021 80.9564 360.12 82.6016V82.8799C359.712 83.5107 359.254 83.8262 358.747 83.8262H358.339C358.252 83.8262 358.209 83.7829 358.209 83.6963C356.885 84.389 355.97 85.2982 355.463 86.4238C354.919 88.2174 353.966 90.6296 352.605 93.6602C352.234 94.7734 352.006 96.0537 351.919 97.501C351.919 99.8389 352.599 101.342 353.96 102.01C354.096 102.195 355.011 102.56 356.706 103.104C357.164 103.575 357.393 103.983 357.393 104.329V104.867C357.393 105.968 357.207 106.519 356.836 106.519C356.391 106.519 355.933 106.382 355.463 106.11C355.463 106.308 354.418 106.58 352.327 106.927L351.362 106.648H350.416C349.773 106.834 349.408 106.927 349.321 106.927C348.864 106.741 348.635 106.605 348.635 106.519C348.437 106.519 347.707 106.655 346.445 106.927H345.907C344.534 106.209 343.848 105.659 343.848 105.275C343.674 104.645 343.588 104.1 343.588 103.643C343.588 103.395 344.497 102.894 346.315 102.14C347.354 102.14 348.171 101.459 348.765 100.099L348.635 99.4121C348.635 99.3503 348.678 98.7565 348.765 97.6309C348.765 95.2064 348.177 93.0664 347.002 91.2109C347.002 90.7533 346.544 89.6152 345.629 87.7969C345.171 86.0527 344.398 84.8652 343.31 84.2344C343 83.9622 342.227 83.7829 340.99 83.6963L340.434 83.0098V81.5068C340.434 81.1481 341.436 80.6904 343.439 80.1338ZM340.99 81.6367L340.842 81.915V82.3232C340.842 82.7809 341.071 83.0531 341.528 83.1396V83.2881H341.937V83.0098H341.528L341.658 82.3232V81.915C341.51 81.915 341.287 81.8223 340.99 81.6367ZM371.587 79.5771H371.717L374.055 79.9854C374.525 79.8988 374.976 79.8555 375.409 79.8555C376.325 80.1276 377.419 80.307 378.693 80.3936C379.609 81.0863 380.066 82.7253 380.066 85.3105C380.153 85.6693 380.382 87.265 380.753 90.0977L380.196 90.5059H379.102C378.768 90.5059 378.403 89.3678 378.007 87.0918C377.92 87.0918 377.877 86.999 377.877 86.8135L378.007 86.5352C377.834 85.6569 377.24 84.7477 376.226 83.8076C375.471 83.4489 374.883 83.2695 374.463 83.2695C373.684 83.3561 373.047 83.3994 372.552 83.3994C372.453 83.2262 372.403 83.0902 372.403 82.9912H370.771C370.771 83.3005 370.406 83.4798 369.676 83.5293C368.946 84.4076 368.581 85.0941 368.581 85.5889L368.451 86.8135C368.575 86.8135 368.711 86.9495 368.859 87.2217V88.1865L368.581 89.1328C369.348 90.1348 369.849 90.6357 370.084 90.6357H370.214C370.696 90.6357 371.383 90.1348 372.273 89.1328H372.403V88.1865C372.403 87.6917 372.589 87.3701 372.96 87.2217H373.776C374.11 87.2217 374.611 88.2236 375.279 90.2275C375.193 90.71 375.149 90.9883 375.149 91.0625C375.323 91.7799 375.409 92.5036 375.409 93.2334L375.688 93.1035H376.374C376.56 93.1283 376.652 93.221 376.652 93.3818V93.9199C376.652 94.1055 376.56 94.1982 376.374 94.1982H375.688L375.409 94.0684V95.293L374.871 98.2988L374.314 98.707H373.498C373.09 98.707 372.682 97.7051 372.273 95.7012C371.655 94.8848 371.061 94.4766 370.492 94.4766C369.218 95.0085 368.581 96.4186 368.581 98.707C368.581 100.637 369.404 101.911 371.049 102.529L371.995 102.678C373.9 102.678 375.131 102.263 375.688 101.435C376.331 100.89 376.652 99.8018 376.652 98.1689C377.048 97.0062 377.636 96.1403 378.415 95.5713H379.51C379.881 95.5713 380.202 96.2083 380.475 97.4824C380.376 100.142 380.326 101.824 380.326 102.529L380.196 103.086C380.283 103.247 380.326 103.426 380.326 103.624C379.72 105.628 378.632 106.63 377.061 106.63C377.061 106.729 376.875 106.778 376.504 106.778C375.576 106.778 373.708 106.636 370.9 106.352C367.35 106.525 365.575 106.846 365.575 107.316H365.019C364.722 106.772 364.406 106.5 364.072 106.5C363.12 106.228 362.619 106.092 362.569 106.092H361.475C361.202 106.092 360.974 105.677 360.788 104.849C361.332 103.488 362.105 102.808 363.107 102.808C364.357 102.808 365.315 102.035 365.983 100.488C365.983 100.29 365.94 99.7894 365.854 98.9854C365.854 98.5648 365.897 97.5133 365.983 95.8311C365.897 94.5199 365.854 93.79 365.854 93.6416C366.212 90.2028 366.392 87.8835 366.392 86.6836C366.392 85.5827 365.934 84.7601 365.019 84.2158C365.019 84.154 364.746 83.9746 364.202 83.6777C363.485 83.8633 362.94 83.9561 362.569 83.9561L361.196 82.583V81.0801C361.196 80.6224 362.019 80.2575 363.664 79.9854C363.936 80.0719 364.072 80.1647 364.072 80.2637C364.27 80.2637 364.45 80.2142 364.61 80.1152C364.833 80.1152 365.52 80.1647 366.67 80.2637C369.948 80.14 371.587 79.9111 371.587 79.5771ZM370.771 80.5234H370.362C369.373 80.5234 367.777 80.6595 365.575 80.9316V80.8018L365.445 80.5234L364.48 80.6719H364.202L363.386 80.5234C363.25 80.5234 362.705 80.709 361.753 81.0801V82.4346C361.753 82.583 362.118 82.9046 362.848 83.3994C364.332 83.1273 365.285 82.9912 365.705 82.9912C366.534 83.486 366.948 84.9456 366.948 87.3701V88.4648L367.895 88.873L368.173 88.4648L367.895 88.0381V87.6299L368.173 87.2217C367.987 87.2217 367.895 87.0856 367.895 86.8135C367.944 85.8115 368.037 85.3105 368.173 85.3105L368.024 85.0322V83.3994L368.173 82.7129L369.806 82.8613H370.362C370.362 82.4408 370.771 82.1624 371.587 82.0264H371.865L372.96 82.8613H373.498L374.185 82.7129V82.583C373.826 81.8656 373.232 81.179 372.403 80.5234C372.403 80.2513 372.311 80.1152 372.125 80.1152H371.717C371.383 80.3874 371.067 80.5234 370.771 80.5234ZM370.084 80.2637V80.3936H370.9V80.2637H370.084ZM374.593 80.5234C374.803 81.0801 374.989 81.3584 375.149 81.3584H375.558C375.558 81.2594 375.601 81.1172 375.688 80.9316C375.44 80.9316 375.304 80.709 375.279 80.2637C374.822 80.3503 374.593 80.4368 374.593 80.5234ZM371.179 82.583V82.7129H371.865C371.865 82.5273 371.772 82.4346 371.587 82.4346C371.414 82.5335 371.278 82.583 371.179 82.583ZM368.859 82.9912V83.1211H369.676V82.9912H368.859ZM365.019 83.1211V83.2695H365.575V83.1211H365.019ZM368.173 83.2695V84.3643H368.303V83.2695H368.173ZM368.451 83.2695V84.3643C368.587 84.3643 368.903 83.9993 369.397 83.2695H368.451ZM364.889 83.6777C364.975 83.6777 365.383 83.9499 366.113 84.4941C365.878 83.7643 365.656 83.3994 365.445 83.3994H365.167C364.981 83.4242 364.889 83.5169 364.889 83.6777ZM376.133 108.43H376.801C376.986 108.467 377.079 108.56 377.079 108.708V109.933C377.079 110.069 376.943 110.211 376.671 110.359H376.541C376.046 110.359 375.725 110.174 375.576 109.803V108.986C375.576 108.838 375.762 108.652 376.133 108.43ZM378.823 88.4648V88.7246C378.959 89.0957 379.095 89.2812 379.231 89.2812H379.51V88.7246C379.349 88.7246 379.12 88.638 378.823 88.4648ZM392.35 79.9854C394.514 79.9854 396.339 80.8512 397.823 82.583C398.961 84.1169 399.734 86.1641 400.143 88.7246C400.563 88.7246 400.928 90.4131 401.237 93.79L400.421 96.9258L400.551 97.2041V97.4824C400.551 98.1009 400.322 99.1029 399.864 100.488L400.013 101.175C398.974 103.166 397.557 104.669 395.764 105.684C394.96 106.129 394.323 106.352 393.853 106.352C392.578 106.079 391.261 105.9 389.9 105.813C389.01 105.059 388.008 103.964 386.895 102.529C386.004 102.529 385.138 100.024 384.297 95.0146C384.297 94.9157 384.34 94.7796 384.427 94.6064C384.34 93.5303 384.297 92.7572 384.297 92.2871C384.297 88.6009 385.435 85.3167 387.711 82.4346C388.49 82.4346 389.127 81.9336 389.622 80.9316C389.622 80.5729 390.531 80.2575 392.35 79.9854ZM388.397 82.7129V82.9912C388.447 83.5355 388.583 83.8076 388.806 83.8076H388.936C390.123 83.0778 391.311 82.7129 392.498 82.7129L392.22 82.3047V82.1748H392.35C393.686 82.3975 394.601 82.6696 395.096 82.9912C395.244 83.0778 395.424 83.1211 395.634 83.1211C395.906 83.0592 396.085 82.8799 396.172 82.583L396.042 81.8965H394.539C394.329 81.8965 394.1 81.4883 393.853 80.6719L392.22 80.5234C390.748 80.5234 389.839 81.1172 389.492 82.3047C388.923 82.5768 388.558 82.7129 388.397 82.7129ZM387.841 89.8193V91.0625C387.841 91.1491 387.798 91.1924 387.711 91.1924L387.841 91.4707C387.754 91.9408 387.711 92.2129 387.711 92.2871C387.896 92.6211 387.989 92.986 387.989 93.3818V93.6416C387.705 94.0003 387.562 94.2786 387.562 94.4766C387.562 95.8372 387.977 97.0186 388.806 98.0205C389.412 99.5049 390.364 100.6 391.663 101.305C391.997 101.49 392.362 101.583 392.758 101.583H393.036C394.298 101.583 395.529 100.717 396.729 98.9854C397.001 98.5277 397.366 97.1113 397.823 94.7363C398.009 94.7363 398.102 94.1488 398.102 92.9736C397.842 88.236 397.341 85.7311 396.599 85.459C395.312 83.9993 394.125 83.2695 393.036 83.2695H392.628C390.797 83.2695 389.523 84.3148 388.806 86.4053C388.806 87.0732 388.62 87.4814 388.249 87.6299C387.977 88.5205 387.841 89.2503 387.841 89.8193ZM428.03 80.1152C430.306 80.8698 431.444 82.1006 431.444 83.8076C431.321 83.8076 431.185 83.9437 431.036 84.2158L430.22 84.0859C429.267 84.1725 428.494 84.2158 427.9 84.2158C427.084 84.9704 426.676 85.5641 426.676 85.9971C426.577 86.9495 426.527 87.7227 426.527 88.3164C426.527 89.4544 426.663 90.8213 426.936 92.417C426.762 94.1117 426.676 95.7507 426.676 97.334V100.08C426.676 100.6 426.762 101.509 426.936 102.808C426.775 102.808 426.595 103.216 426.397 104.032C424.789 105.937 423.559 107.125 422.705 107.595H421.48C420.59 107.78 420.089 107.873 419.978 107.873H419.699C417.114 107.873 415.246 106.593 414.096 104.032C413.824 104.032 413.502 103.445 413.131 102.27L413.279 100.618C413.18 99.7152 413.131 99.0348 413.131 98.5771C413.131 97.5752 414.09 96.6165 416.007 95.7012H416.693C418.104 95.7012 418.969 97.2041 419.291 100.21L419.143 100.896C419.786 101.898 420.472 102.399 421.202 102.399C421.202 102.486 421.245 102.529 421.332 102.529H421.48C422.755 101.787 423.392 101.057 423.392 100.34C423.33 96.9753 423.144 95.293 422.835 95.293C422.934 94.056 422.983 93.1468 422.983 92.5654V91.3223C422.983 90.7409 422.934 90.1533 422.835 89.5596L423.113 87.2217C422.928 87.2217 422.835 87.1351 422.835 86.9619C422.835 86.5042 422.928 86.2754 423.113 86.2754C422.47 84.6302 421.239 83.8076 419.421 83.8076C418.332 83.6715 417.788 83.4922 417.788 83.2695V82.0264C418.369 80.9378 419.328 80.3936 420.664 80.3936H426.397L428.03 80.1152ZM423.392 95.0146C423.664 95.6826 423.8 96.2331 423.8 96.666H424.895C425.08 96.6908 425.173 96.7773 425.173 96.9258V97.4824C425.173 97.569 425.123 97.6123 425.024 97.6123C425.123 98.6143 425.352 99.1152 425.711 99.1152V99.6719C425.439 99.9935 425.303 100.309 425.303 100.618C425.575 101.348 425.89 101.713 426.249 101.713V101.583C426.249 101.496 426.206 101.132 426.119 100.488C426.206 99.8574 426.249 99.3564 426.249 98.9854C425.804 98.7503 425.581 98.3854 425.581 97.8906C425.94 96.765 426.119 96.0785 426.119 95.8311C425.958 95.1012 425.779 94.7363 425.581 94.7363C424.925 94.8353 424.561 94.8848 424.486 94.8848C424.301 94.7858 424.165 94.7363 424.078 94.7363L423.392 95.0146ZM426.249 100.21V100.748H426.397V100.21H426.249ZM441.037 79.9854C443.202 79.9854 445.026 80.8512 446.511 82.583C447.649 84.1169 448.422 86.1641 448.83 88.7246C449.251 88.7246 449.616 90.4131 449.925 93.79L449.108 96.9258L449.238 97.2041V97.4824C449.238 98.1009 449.009 99.1029 448.552 100.488L448.7 101.175C447.661 103.166 446.245 104.669 444.451 105.684C443.647 106.129 443.01 106.352 442.54 106.352C441.266 106.079 439.949 105.9 438.588 105.813C437.697 105.059 436.695 103.964 435.582 102.529C434.691 102.529 433.826 100.024 432.984 95.0146C432.984 94.9157 433.028 94.7796 433.114 94.6064C433.028 93.5303 432.984 92.7572 432.984 92.2871C432.984 88.6009 434.122 85.3167 436.398 82.4346C437.178 82.4346 437.815 81.9336 438.31 80.9316C438.31 80.5729 439.219 80.2575 441.037 79.9854ZM437.085 82.7129V82.9912C437.134 83.5355 437.271 83.8076 437.493 83.8076H437.623C438.811 83.0778 439.998 82.7129 441.186 82.7129L440.907 82.3047V82.1748H441.037C442.373 82.3975 443.288 82.6696 443.783 82.9912C443.932 83.0778 444.111 83.1211 444.321 83.1211C444.593 83.0592 444.773 82.8799 444.859 82.583L444.729 81.8965H443.227C443.016 81.8965 442.787 81.4883 442.54 80.6719L440.907 80.5234C439.435 80.5234 438.526 81.1172 438.18 82.3047C437.611 82.5768 437.246 82.7129 437.085 82.7129ZM436.528 89.8193V91.0625C436.528 91.1491 436.485 91.1924 436.398 91.1924L436.528 91.4707C436.442 91.9408 436.398 92.2129 436.398 92.2871C436.584 92.6211 436.677 92.986 436.677 93.3818V93.6416C436.392 94.0003 436.25 94.2786 436.25 94.4766C436.25 95.8372 436.664 97.0186 437.493 98.0205C438.099 99.5049 439.052 100.6 440.351 101.305C440.685 101.49 441.049 101.583 441.445 101.583H441.724C442.985 101.583 444.216 100.717 445.416 98.9854C445.688 98.5277 446.053 97.1113 446.511 94.7363C446.696 94.7363 446.789 94.1488 446.789 92.9736C446.529 88.236 446.028 85.7311 445.286 85.459C444 83.9993 442.812 83.2695 441.724 83.2695H441.315C439.485 83.2695 438.211 84.3148 437.493 86.4053C437.493 87.0732 437.308 87.4814 436.937 87.6299C436.664 88.5205 436.528 89.2503 436.528 89.8193ZM457.811 99.208H458.534C459.697 99.208 460.464 100.544 460.835 103.216C460.588 105.232 459.74 106.24 458.293 106.24C458.021 106.401 457.78 106.481 457.569 106.481C456.271 106.098 455.621 105.851 455.621 105.739C454.891 104.663 454.526 103.939 454.526 103.568V101.509C454.526 101.348 454.65 101.268 454.897 101.268V100.414C455.677 99.61 456.648 99.208 457.811 99.208ZM455.621 100.303L455.51 100.544C455.658 100.457 455.776 100.414 455.862 100.414V100.303H455.621ZM455.009 101.88V103.327C455.009 103.537 455.089 103.896 455.25 104.403H455.38V104.292C455.293 104.144 455.25 104.026 455.25 103.939L455.51 103.81H455.621C455.621 104.193 455.825 104.558 456.233 104.904H456.345C456.345 104.743 456.388 104.663 456.475 104.663C456.475 104.292 456.227 103.562 455.732 102.474C455.732 102.078 455.491 101.88 455.009 101.88ZM453.933 105.016C454.489 105.016 454.768 105.3 454.768 105.869V106.24C454.768 106.401 454.687 106.481 454.526 106.481H454.044C453.92 106.481 453.759 106.314 453.562 105.98V105.387C453.562 105.275 453.685 105.152 453.933 105.016ZM454.044 105.517V105.869C454.069 106.03 454.149 106.11 454.285 106.11V105.739C454.285 105.591 454.205 105.517 454.044 105.517ZM470.057 99.208H470.78C471.943 99.208 472.71 100.544 473.081 103.216C472.834 105.232 471.986 106.24 470.539 106.24C470.267 106.401 470.026 106.481 469.815 106.481C468.517 106.098 467.867 105.851 467.867 105.739C467.137 104.663 466.772 103.939 466.772 103.568V101.509C466.772 101.348 466.896 101.268 467.144 101.268V100.414C467.923 99.61 468.894 99.208 470.057 99.208ZM467.867 100.303L467.756 100.544C467.904 100.457 468.022 100.414 468.108 100.414V100.303H467.867ZM467.255 101.88V103.327C467.255 103.537 467.335 103.896 467.496 104.403H467.626V104.292C467.539 104.144 467.496 104.026 467.496 103.939L467.756 103.81H467.867C467.867 104.193 468.071 104.558 468.479 104.904H468.591C468.591 104.743 468.634 104.663 468.721 104.663C468.721 104.292 468.473 103.562 467.979 102.474C467.979 102.078 467.737 101.88 467.255 101.88ZM466.179 105.016C466.735 105.016 467.014 105.3 467.014 105.869V106.24C467.014 106.401 466.933 106.481 466.772 106.481H466.29C466.166 106.481 466.006 106.314 465.808 105.98V105.387C465.808 105.275 465.931 105.152 466.179 105.016ZM466.29 105.517V105.869C466.315 106.03 466.395 106.11 466.531 106.11V105.739C466.531 105.591 466.451 105.517 466.29 105.517ZM482.303 99.208H483.026C484.189 99.208 484.956 100.544 485.327 103.216C485.08 105.232 484.232 106.24 482.785 106.24C482.513 106.401 482.272 106.481 482.062 106.481C480.763 106.098 480.113 105.851 480.113 105.739C479.383 104.663 479.019 103.939 479.019 103.568V101.509C479.019 101.348 479.142 101.268 479.39 101.268V100.414C480.169 99.61 481.14 99.208 482.303 99.208ZM480.113 100.303L480.002 100.544C480.15 100.457 480.268 100.414 480.354 100.414V100.303H480.113ZM479.501 101.88V103.327C479.501 103.537 479.581 103.896 479.742 104.403H479.872V104.292C479.785 104.144 479.742 104.026 479.742 103.939L480.002 103.81H480.113C480.113 104.193 480.317 104.558 480.726 104.904H480.837C480.837 104.743 480.88 104.663 480.967 104.663C480.967 104.292 480.719 103.562 480.225 102.474C480.225 102.078 479.983 101.88 479.501 101.88ZM478.425 105.016C478.981 105.016 479.26 105.3 479.26 105.869V106.24C479.26 106.401 479.179 106.481 479.019 106.481H478.536C478.412 106.481 478.252 106.314 478.054 105.98V105.387C478.054 105.275 478.177 105.152 478.425 105.016ZM478.536 105.517V105.869C478.561 106.03 478.641 106.11 478.777 106.11V105.739C478.777 105.591 478.697 105.517 478.536 105.517Z" fill="white"/>
<defs>
<filter id="filter0_d_4058_27462" x="104.828" y="177.48" width="465.863" height="178.834" filterUnits="userSpaceOnUse" color-interpolation-filters="sRGB">
<feFlood flood-opacity="0" result="BackgroundImageFix"/>
<feColorMatrix in="SourceAlpha" type="matrix" values="0 0 0 0 0 0 0 0 0 0 0 0 0 0 0 0 0 0 127 0" result="hardAlpha"/>
<feOffset/>
<feGaussianBlur stdDeviation="10"/>
<feComposite in2="hardAlpha" operator="out"/>
<feColorMatrix type="matrix" values="0 0 0 0 0 0 0 0 0 0 0 0 0 0 0 0 0 0 0.2 0"/>
<feBlend mode="normal" in2="BackgroundImageFix" result="effect1_dropShadow_4058_27462"/>
<feBlend mode="normal" in="SourceGraphic" in2="effect1_dropShadow_4058_27462" result="shape"/>
</filter>
<linearGradient id="paint0_linear_4058_27462" x1="403.076" y1="266.897" x2="410.319" y2="157.088" gradientUnits="userSpaceOnUse">
<stop stop-color="#BFD6F7"/>
<stop offset="1" stop-color="#F47C0F"/>
</linearGradient>
<clipPath id="clip0_4058_27462">
<rect width="715" height="372" fill="white"/>
</clipPath>
</defs>
</svg>
