<svg width="98" height="84" viewBox="0 0 98 84" fill="none" xmlns="http://www.w3.org/2000/svg">
<path fill-rule="evenodd" clip-rule="evenodd" d="M89.1973 32.0915C91.2204 31.1609 92.5238 29.0191 92.2825 26.6806C91.9793 23.7413 89.3507 21.6043 86.4114 21.9076C83.4721 22.2108 81.3351 24.8394 81.6384 27.7787C81.8075 29.418 82.6999 30.8077 83.9661 31.6638L83.1584 44.5021C83.2159 44.7748 83.4641 45.291 84.0264 45.6112C82.9244 48.7607 79.4515 49.9305 78.4053 50.0383C80.1871 49.8545 79.2443 51.2972 79.2443 51.2972C83.754 48.7202 84.7646 46.7831 84.9696 45.8792C85.7211 45.9071 86.1613 45.4616 86.2986 45.2011L89.1973 32.0915Z" fill="#98887F"/>
<path d="M21.8891 11.7074C21.0014 11.4426 20.1979 12.3152 20.5349 13.1781L24.1562 22.4502L34.4301 15.4481L21.8891 11.7074Z" fill="#98887F"/>
<path d="M56.2564 5.82566C56.9323 5.19218 58.041 5.61392 58.125 6.53643L59.0278 16.4496L46.708 14.7753L56.2564 5.82566Z" fill="#98887F"/>
<path fill-rule="evenodd" clip-rule="evenodd" d="M46.6131 78.6484C64.7991 78.6484 79.5417 70.0344 79.5417 49.3909C79.5417 48.2056 79.4931 47.0332 79.3981 45.8762L85.7913 35.9377C86.2924 35.1586 85.6776 34.1442 84.7551 34.228L76.9882 34.9335C72.0086 21.4689 60.2837 12.0125 46.6131 12.0125C30.6613 12.0125 17.3588 24.8881 14.3311 41.9833L6.62026 48.6519C5.32806 49.7694 6.19953 51.8888 7.90408 51.7741L13.7316 51.3819C14.6546 70.5898 29.0232 78.6484 46.6131 78.6484Z" fill="#FFB440"/>
<path d="M73.2497 60.2926C73.2497 68.8326 61.3475 75.6444 48.9982 75.6444C36.6489 75.6444 23.6343 72.6149 23.6343 64.0749C23.6343 55.5349 38.9851 43.0496 51.3344 43.0496C63.6836 43.0496 73.2497 51.7525 73.2497 60.2926Z" fill="#FAD296"/>
<path d="M37.1357 28.5355C38.1334 27.794 39.1858 26.8881 40.4106 26.5471C40.8395 26.4276 41.951 26.1917 42.3316 26.5583C43.0668 27.2663 42.7979 29.1161 42.7979 30.0522" stroke="#FFB440" stroke-width="3.51687" stroke-linecap="round"/>
<path d="M34.2289 25.7995C34.193 25.7103 34.2122 25.6087 34.2799 25.5404C34.5959 25.2216 35.5318 24.3106 36.2816 23.9196C37.0203 23.5344 38.2459 23.306 38.6941 23.2318C38.7968 23.2148 38.8973 23.2666 38.9454 23.3589L39.3579 24.15C39.4202 24.2696 39.3748 24.4169 39.2556 24.48C38.8376 24.7014 37.8953 25.1997 37.2019 25.5613C36.5369 25.908 35.6447 26.8012 35.2047 27.2658C35.0794 27.3981 34.8563 27.3579 34.7882 27.1888L34.2289 25.7995Z" fill="#98887F"/>
<path d="M58.522 24.9842C58.5227 25.1885 58.3971 25.3715 58.2039 25.4379C57.6798 25.6179 56.6203 25.9501 55.87 25.9758C55.139 26.0009 54.1215 25.755 53.5888 25.609C53.3761 25.5507 53.2363 25.3528 53.2438 25.1324L53.2789 24.1049C53.2926 23.7034 53.7746 23.4654 54.1363 23.6401C54.5216 23.8262 54.9958 23.9892 55.4549 23.9734C56.1258 23.9504 57.2165 23.713 57.899 23.5494C58.2123 23.4742 58.5182 23.7098 58.5191 24.032L58.522 24.9842Z" fill="#98887F"/>
<path d="M38.7255 23.3185C38.8224 23.2854 38.9294 23.3159 38.9926 23.3964C39.2769 23.7585 40.0541 24.7875 40.3471 25.5724C40.6371 26.3491 40.7137 27.5853 40.7327 28.0446C40.7372 28.1519 40.6692 28.2472 40.5673 28.2811L38.795 28.8699C38.6303 28.9246 38.4602 28.7959 38.4629 28.6223C38.4714 28.0653 38.4496 26.9898 38.1911 26.2973C37.935 25.6114 37.2224 24.7739 36.8283 24.3434C36.7055 24.2093 36.7586 23.9891 36.9307 23.9304L38.7255 23.3185Z" fill="#98887F"/>
<path d="M53.6115 25.453C53.3902 25.4472 53.2006 25.2945 53.1554 25.0778C53.0403 24.5248 52.8506 23.4622 52.916 22.73C52.9816 21.9944 53.3574 21.0029 53.5667 20.4965C53.648 20.2999 53.8506 20.1855 54.0619 20.2099L55.1942 20.3402C55.5535 20.3816 55.753 20.7884 55.5882 21.1103C55.3274 21.6196 55.0201 22.3244 54.9687 22.9005C54.9167 23.4836 55.1064 24.2409 55.2809 24.7882C55.3892 25.128 55.1351 25.4929 54.7785 25.4836L53.6115 25.453Z" fill="#98887F"/>
<path d="M48.738 29.6407C47.2459 30.3422 45.7886 29.7943 45.2465 29.4326C44.7395 29.4768 44.4777 29.5195 44.2022 30.5854C43.9268 31.6514 44.6487 32.6717 45.9366 33.6226C47.2246 34.5735 52.2778 34.1763 53.3436 31.8568C54.4094 29.5373 52.2591 28.5387 51.6667 28.304C51.0742 28.0692 50.6032 28.7639 48.738 29.6407Z" fill="#EF8E8E"/>
<mask id="path-12-outside-1_1500_2902" maskUnits="userSpaceOnUse" x="0" y="-0.476562" width="98" height="85" fill="black">
<rect fill="white" y="-0.476562" width="98" height="85"/>
<path fill-rule="evenodd" clip-rule="evenodd" d="M56.2565 5.82578C56.9323 5.19229 58.0411 5.61403 58.1251 6.53655L58.8673 14.6865C67.0357 18.4064 73.5862 25.7345 76.9882 34.9335L83.7992 34.3149L83.966 31.6639C82.6997 30.8078 81.8073 29.4181 81.6382 27.7787C81.335 24.8394 83.4719 22.2109 86.4112 21.9076C89.3505 21.6044 91.9791 23.7414 92.2823 26.6807C92.5236 29.0192 91.2202 31.161 89.1971 32.0916L86.2985 45.2011C86.1611 45.4617 85.721 45.9072 84.9694 45.8792C84.7685 46.7655 83.7932 48.6448 79.5052 51.1465C78.6888 70.524 64.2748 78.6484 46.6131 78.6484C29.0232 78.6484 14.6546 70.5898 13.7316 51.382L7.90408 51.7742C6.19953 51.8889 5.32806 49.7695 6.62026 48.652L14.3311 41.9834C15.7012 34.2476 19.1752 27.3759 24.0466 22.1702L20.5347 13.1783C20.1977 12.3154 21.0012 11.4427 21.8889 11.7075L33.4029 15.142C37.4467 13.1294 41.915 12.0125 46.6131 12.0125C47.5873 12.0125 48.5515 12.0605 49.5042 12.1546L56.2565 5.82578ZM79.5402 49.7545C81.0104 49.2387 83.1941 47.9894 84.0262 45.6113C83.4639 45.2911 83.2157 44.7748 83.1583 44.5022L83.4701 39.5462L79.3981 45.8762C79.4931 47.0333 79.5417 48.2057 79.5417 49.3909C79.5417 49.5126 79.5412 49.6337 79.5402 49.7545Z"/>
</mask>
<path d="M58.1251 6.53655L63.1045 6.0831V6.08309L58.1251 6.53655ZM56.2565 5.82578L59.6758 9.47384L59.6758 9.47384L56.2565 5.82578ZM58.8673 14.6865L53.8879 15.14L54.1513 18.0329L56.795 19.2369L58.8673 14.6865ZM76.9882 34.9335L72.2986 36.6679L73.6268 40.2595L77.4405 39.913L76.9882 34.9335ZM83.7992 34.3149L84.2515 39.2944L88.5202 38.9066L88.7893 34.6288L83.7992 34.3149ZM83.966 31.6639L88.9561 31.9778L89.1357 29.1234L86.7663 27.5216L83.966 31.6639ZM81.6382 27.7787L86.6118 27.2657V27.2657L81.6382 27.7787ZM92.2823 26.6807L87.3087 27.1938V27.1938L92.2823 26.6807ZM89.1971 32.0916L87.1077 27.5491L84.8513 28.587L84.315 31.0121L89.1971 32.0916ZM86.2985 45.2011L90.7214 47.5331L91.0352 46.9378L91.1805 46.2806L86.2985 45.2011ZM84.9694 45.8792L85.1555 40.8827L81.0103 40.7283L80.0931 44.7737L84.9694 45.8792ZM79.5052 51.1465L76.9855 46.8278L74.6247 48.2052L74.5097 50.9361L79.5052 51.1465ZM13.7316 51.382L18.7259 51.142L18.4812 46.0511L13.3959 46.3933L13.7316 51.382ZM7.90408 51.7742L8.23979 56.7629H8.23979L7.90408 51.7742ZM6.62026 48.652L9.89095 52.4338L9.89095 52.4338L6.62026 48.652ZM14.3311 41.9834L17.6018 45.7653L18.9448 44.6038L19.2545 42.8554L14.3311 41.9834ZM24.0466 22.1702L27.6974 25.5866L29.8502 23.286L28.7039 20.3512L24.0466 22.1702ZM20.5347 13.1783L25.1921 11.3593L25.1921 11.3593L20.5347 13.1783ZM21.8889 11.7075L20.4597 16.4989L20.4597 16.4989L21.8889 11.7075ZM33.4029 15.142L31.9737 19.9334L33.8645 20.4973L35.6308 19.6182L33.4029 15.142ZM49.5042 12.1546L49.0129 17.1304L51.2692 17.3532L52.9235 15.8027L49.5042 12.1546ZM84.0262 45.6113L88.7457 47.2627L90.1222 43.3287L86.5004 41.2664L84.0262 45.6113ZM79.5402 49.7545L74.5404 49.7122L74.4801 56.8285L81.1954 54.4726L79.5402 49.7545ZM83.1583 44.5022L78.1681 44.1882L78.1254 44.8671L78.2656 45.5328L83.1583 44.5022ZM83.4701 39.5462L88.4602 39.8602L89.6675 20.6702L79.265 36.8412L83.4701 39.5462ZM79.3981 45.8762L75.193 43.1712L74.2761 44.5965L74.4148 46.2857L79.3981 45.8762ZM63.1045 6.08309C62.6429 1.01428 56.5508 -1.30302 52.8372 2.17771L59.6758 9.47384C57.3139 11.6876 53.4393 10.2138 53.1457 6.99001L63.1045 6.08309ZM63.8467 14.2331L63.1045 6.0831L53.1457 6.99L53.8879 15.14L63.8467 14.2331ZM81.6777 33.1992C77.862 22.8816 70.4426 14.4639 60.9395 10.1362L56.795 19.2369C63.6287 22.349 69.3103 28.5875 72.2986 36.6679L81.6777 33.1992ZM83.3469 29.3354L76.5359 29.954L77.4405 39.913L84.2515 39.2944L83.3469 29.3354ZM78.9758 31.3499L78.809 34.0009L88.7893 34.6288L88.9561 31.9778L78.9758 31.3499ZM76.6646 28.2918C76.9919 31.4647 78.7262 34.1569 81.1656 35.8061L86.7663 27.5216C86.7202 27.4904 86.6833 27.4508 86.6582 27.4097C86.6358 27.3729 86.6183 27.3284 86.6118 27.2657L76.6646 28.2918ZM85.8981 16.934C80.212 17.5206 76.078 22.6057 76.6646 28.2918L86.6118 27.2657C86.5919 27.0732 86.7318 26.9011 86.9243 26.8813L85.8981 16.934ZM97.2559 26.1676C96.6694 20.4815 91.5843 16.3475 85.8981 16.934L86.9243 26.8813C87.1168 26.8614 87.2889 27.0013 87.3087 27.1938L97.2559 26.1676ZM91.2866 36.6341C95.1945 34.8365 97.7234 30.6992 97.2559 26.1676L87.3087 27.1938C87.3172 27.2765 87.3009 27.3415 87.2657 27.4021C87.2254 27.4714 87.1666 27.522 87.1077 27.5491L91.2866 36.6341ZM91.1805 46.2806L94.0792 33.1711L84.315 31.0121L81.4164 44.1217L91.1805 46.2806ZM84.7833 50.8758C87.7726 50.9871 89.8456 49.1941 90.7214 47.5331L81.8756 42.8692C82.222 42.2121 82.6855 41.7441 83.1836 41.4277C83.7594 41.062 84.4526 40.8565 85.1555 40.8827L84.7833 50.8758ZM82.0249 55.4652C86.8061 52.6757 89.1956 49.8517 89.8456 46.9848L80.0931 44.7737C80.3413 43.6792 80.7802 44.6139 76.9855 46.8278L82.0249 55.4652ZM46.6131 83.6484C56.1285 83.6484 65.3307 81.47 72.384 76.1581C79.6099 70.7163 84.036 62.3877 84.5008 51.357L74.5097 50.9361C74.158 59.2828 70.9689 64.7052 66.3682 68.17C61.595 71.7647 54.7594 73.6484 46.6131 73.6484V83.6484ZM8.73739 51.622C9.26349 62.5709 13.715 70.8299 20.9284 76.2227C27.9704 81.4875 37.1358 83.6484 46.6131 83.6484V73.6484C38.5005 73.6484 31.6866 71.7801 26.9161 68.2136C22.317 64.7752 19.1227 59.401 18.7259 51.142L8.73739 51.622ZM8.23979 56.7629L14.0673 56.3707L13.3959 46.3933L7.56838 46.7854L8.23979 56.7629ZM3.34958 44.8701C-1.57258 49.1269 1.74696 57.1998 8.23979 56.7629L7.56838 46.7854C10.6521 46.5779 12.2287 50.4121 9.89095 52.4338L3.34958 44.8701ZM11.0604 38.2015L3.34958 44.8701L9.89095 52.4338L17.6018 45.7653L11.0604 38.2015ZM20.3957 18.7538C14.8405 24.6902 10.9409 32.4547 9.40771 41.1114L19.2545 42.8554C20.4614 36.0405 23.5098 30.0615 27.6974 25.5866L20.3957 18.7538ZM15.8773 14.9973L19.3892 23.9892L28.7039 20.3512L25.1921 11.3593L15.8773 14.9973ZM23.3181 6.91613C18.4406 5.46126 14.0256 10.2562 15.8773 14.9973L25.1921 11.3593C26.3697 14.3746 23.5618 17.4242 20.4597 16.4989L23.3181 6.91613ZM34.8321 10.3506L23.3181 6.91613L20.4597 16.4989L31.9737 19.9334L34.8321 10.3506ZM46.6131 7.01253C41.1092 7.01253 35.8811 8.32356 31.1751 10.6658L35.6308 19.6182C39.0123 17.9352 42.7208 17.0125 46.6131 17.0125V7.01253ZM49.9955 7.17881C48.88 7.06866 47.7517 7.01253 46.6131 7.01253V17.0125C47.4228 17.0125 48.2231 17.0524 49.0129 17.1304L49.9955 7.17881ZM52.8372 2.17771L46.0849 8.50654L52.9235 15.8027L59.6758 9.47384L52.8372 2.17771ZM79.3068 43.9599C79.2624 44.0868 79.1585 44.2671 78.8789 44.4931C78.5795 44.7352 78.2004 44.9258 77.885 45.0364L81.1954 54.4726C83.281 53.7409 87.1817 51.7324 88.7457 47.2627L79.3068 43.9599ZM78.2656 45.5328C78.5734 46.9941 79.5706 48.8279 81.5521 49.9563L86.5004 41.2664C86.9588 41.5274 87.294 41.8726 87.5246 42.2084C87.7281 42.5047 87.9332 42.9129 88.0509 43.4716L78.2656 45.5328ZM78.4799 39.2323L78.1681 44.1882L88.1484 44.8161L88.4602 39.8602L78.4799 39.2323ZM83.6031 48.5813L87.6751 42.2513L79.265 36.8412L75.193 43.1712L83.6031 48.5813ZM84.5417 49.3909C84.5417 48.069 84.4875 46.76 84.3813 45.4668L74.4148 46.2857C74.4987 47.3066 74.5417 48.3424 74.5417 49.3909H84.5417ZM84.54 49.7968C84.5411 49.6619 84.5417 49.5266 84.5417 49.3909H74.5417C74.5417 49.4985 74.5413 49.6056 74.5404 49.7122L84.54 49.7968Z" fill="white" mask="url(#path-12-outside-1_1500_2902)"/>
</svg>
