<svg width="138" height="132" viewBox="0 0 138 132" fill="none" xmlns="http://www.w3.org/2000/svg">
<path fill-rule="evenodd" clip-rule="evenodd" d="M78.7707 17.0079C82.2037 19.0496 86.1794 23.8225 80.2928 31.6716L93.5233 37.9846C94.7831 30.8295 93.5964 16.6171 78.7707 17.0079ZM53.0496 22.8192C50.3416 24.9915 47.4966 29.5803 53.5122 35.6246L42.8875 42.6576C40.9382 36.6514 40.2416 24.275 53.0496 22.8192Z" fill="#98887F"/>
<path fill-rule="evenodd" clip-rule="evenodd" d="M76.3511 132C104.518 132 127.351 118.685 127.351 86.7763C127.351 54.8673 104.518 29 76.3511 29C51.5726 29 30.9213 49.0186 26.3117 75.5584L13.4967 86.6412C11.4203 88.437 12.8206 91.8426 15.5597 91.6583L25.4894 90.9901C27.4263 119.862 49.4578 132 76.3511 132Z" fill="#70F5D9"/>
<path d="M115.553 94.4372C117.553 107.637 105.553 126.837 74.3531 126.837C54.509 126.837 37.9531 115.85 37.9531 103.638C37.9531 89.9145 56.1623 78.932 73.1531 75.6876C91.1531 72.2504 113.553 81.2372 115.553 94.4372Z" fill="#B2FCEC"/>
<rect x="76.007" y="44.7799" width="5.82101" height="5.61462" rx="1.25201" transform="rotate(-9.38793 76.007 44.7799)" stroke="#98887F" stroke-width="2.00322"/>
<rect x="74.4062" y="41.2285" width="2.00154" height="6.19512" rx="0.500805" transform="rotate(-9.38793 74.4062 41.2285)" fill="#98887F"/>
<rect x="80.1523" y="40.2812" width="2.00154" height="6.19512" rx="0.500805" transform="rotate(-9.38793 80.1523 40.2812)" fill="#98887F"/>
<path d="M67.3541 60.7676C66.7437 60.6106 65.846 59.6731 65.0988 58.736C64.7266 58.2692 65.2753 57.5902 65.8663 57.6747C69.931 58.256 74.1518 55.022 75.6023 56.1017C76.6457 57.0362 72.3457 62.0517 67.3541 60.7676Z" fill="#EF8E8E"/>
<rect x="53.1616" y="48.9933" width="6.06507" height="5.85003" rx="1.30451" transform="rotate(-12.9891 53.1616 48.9933)" stroke="#98887F" stroke-width="2.08721"/>
<path d="M90.0977 53.7128C89.9402 53.0387 90.359 52.3645 91.0331 52.207L103.751 49.2357C104.425 49.0782 105.099 49.497 105.257 50.1711L107.996 61.8984C108.221 62.8589 107.299 63.6903 106.367 63.3684L104.126 62.5949C103.867 62.5053 103.585 62.5034 103.324 62.5894L100.254 63.6026C99.8418 63.7386 99.5294 64.0778 99.4279 64.4995L99.1545 65.6349C99.0425 66.0996 98.676 66.4603 98.2095 66.5646L94.5659 67.3799C93.8949 67.53 93.2281 67.1115 93.0716 66.4418L90.0977 53.7128Z" fill="#299B82"/>
<path d="M100.303 70.8459L100.311 70.838L100.319 70.8297L101.79 69.2792L104.28 66.7887L106.358 64.8369C107.061 64.1767 107.085 63.0684 106.412 62.3779L97.3134 53.0411C96.649 52.3593 95.5579 52.3453 94.8761 53.0096L85.5228 62.1245C84.8411 62.7888 84.827 63.88 85.4913 64.5617L94.6144 73.9235C95.2743 74.6007 96.3566 74.6197 97.0399 73.9662L100.303 70.8459Z" fill="#299B82" stroke="#7FE6CF" stroke-width="0.940102"/>
<path d="M98.2866 65.7879C98.066 66.0029 97.8622 66.0073 97.6682 65.794L97.0667 65.0344C96.9145 64.8498 96.9167 64.6812 97.0875 64.5148L97.8133 63.8075C97.9841 63.641 98.1877 63.6507 98.403 63.8432L99.0771 64.421C99.2921 64.6416 99.2611 64.866 98.9981 65.0945L98.2866 65.7879ZM96.0891 58.5788C96.63 59.1339 96.8246 59.846 96.6661 60.6941C96.5145 61.5494 96.5012 62.034 96.626 62.1621L97.2987 62.8523C97.5136 63.0729 97.525 63.2838 97.3257 63.478L96.7209 64.0674C96.5359 64.2477 96.3532 64.2453 96.1658 64.0672L95.3129 63.192C95.0563 62.9287 95.0074 62.366 95.1872 61.4971C95.3671 60.6282 95.2906 60.0229 94.9578 59.6814C94.1395 58.8417 93.4102 58.734 92.784 59.3442C92.1578 59.9544 92.129 60.5512 92.6977 61.1347C92.8918 61.334 92.8964 61.5237 92.7185 61.6971L92.1706 62.231C91.9998 62.3974 91.8314 62.3812 91.6442 62.1891C90.3334 60.8583 90.3222 59.5513 91.6172 58.2892C93.019 56.9232 94.5074 57.0127 96.0891 58.5788Z" fill="#7FE6CF"/>
<path d="M96.8635 64.6041C95.3299 64.4776 94.57 66.3832 95.7584 67.3751L108.721 78.1937C110.914 80.0243 114.231 79.0986 115.083 76.4178L117.114 70.0306C117.946 67.4137 115.913 64.7187 113.146 64.7709L101.542 64.9898L96.8635 64.6041Z" fill="#55DDBF"/>
</svg>
