<svg width="348" height="420" viewBox="0 0 348 420" fill="none" xmlns="http://www.w3.org/2000/svg">
<g clip-path="url(#clip0_2804_8314)">
<path d="M157.08 255.693C120.83 246.513 121.191 222.84 126.482 208.565C81.5825 242.906 112.094 287.892 132.963 306.093L157.08 255.693Z" fill="#7FE6CF"/>
<path d="M259.86 207.543C278.872 175.342 261.811 158.926 247.95 152.63C303.951 144.938 314.401 198.282 312.626 225.916L259.86 207.543Z" fill="#7FE6CF"/>
<path d="M197.069 224.324C107.59 271.362 106.442 374.373 117.053 420H348.496V217.893C335.304 200.438 250.601 196.183 197.069 224.324Z" fill="#7FE6CF"/>
<rect x="250.533" y="246.58" width="17.6397" height="17.0143" rx="3.79413" transform="rotate(-12.0325 250.533 246.58)" stroke="#2AD4AF" stroke-width="6.0706"/>
<rect x="245.184" y="236.049" width="6.06542" height="18.7735" rx="1.51765" transform="rotate(-12.0325 245.184 236.049)" fill="#2AD4AF"/>
<rect x="262.441" y="232.371" width="6.06542" height="18.7735" rx="1.51765" transform="rotate(-12.0325 262.441 232.371)" fill="#2AD4AF"/>
<rect x="183.865" y="274.08" width="18.5354" height="17.8782" rx="3.98678" transform="rotate(-30 183.865 274.08)" stroke="#2AD4AF" stroke-width="6.37885"/>
<path d="M229.17 297.359C225.959 297.58 218.722 292.752 215.27 289.998C214.655 289.507 214.416 288.681 214.705 287.948C220.332 273.652 243.997 271.614 250.514 273.769C254.827 275.643 246.431 296.171 229.17 297.359Z" fill="#2AD4AF"/>
<rect width="65" height="8" transform="matrix(-1 0 0 1 311 319)" fill="#2AD4AF"/>
<ellipse cx="22.5" cy="14.5" rx="22.5" ry="14.5" transform="matrix(-1 0 0 1 268 309)" fill="#2AD4AF"/>
<path d="M335.246 314.327C341.713 315.376 339.608 317 349.945 317C334.784 323.891 311.472 303.992 311.128 326.042C310.783 348.093 335.94 355.919 351.445 355C319.746 360.169 307.338 341.547 308.027 326.042C308.716 310.537 322.498 312.26 335.246 314.327Z" fill="#2AD4AF"/>
<rect x="-2.07719" y="0.902237" width="32.828" height="32.828" rx="4.00341" transform="matrix(-0.930276 -0.366859 -0.366859 0.930276 266.257 296.52)" fill="#7FE6CF" stroke="#2AD4AF" stroke-width="3.20273"/>
<path d="M249.103 319.302C248.385 319.495 247.95 319.264 247.793 318.585L247.422 316.274C247.32 315.706 247.523 315.353 248.08 315.204L250.444 314.57C251 314.421 251.418 314.682 251.645 315.342L252.383 317.355C252.576 318.074 252.245 318.51 251.421 318.681L249.103 319.302ZM252.984 301.516C253.469 303.324 253.038 305.055 251.702 306.655C250.373 308.278 249.773 309.284 249.885 309.701L250.487 311.95C250.68 312.668 250.455 313.126 249.806 313.3L247.835 313.828C247.232 313.99 246.85 313.769 246.666 313.172L245.902 310.321C245.672 309.463 246.233 308.22 247.638 306.601C249.043 304.982 249.596 303.616 249.298 302.504C248.565 299.768 247.155 298.68 245.115 299.227C243.075 299.773 242.31 300.997 242.819 302.898C242.993 303.547 242.779 303.952 242.199 304.108L240.414 304.586C239.858 304.735 239.522 304.502 239.354 303.876C238.163 299.524 239.683 296.756 243.902 295.626C248.469 294.402 251.5 296.348 252.984 301.516Z" fill="#2AD4AF"/>
</g>
<defs>
<clipPath id="clip0_2804_8314">
<rect width="250" height="285" fill="white" transform="translate(98 135)"/>
</clipPath>
</defs>
</svg>
