<svg width="717" height="370" viewBox="0 0 717 370" fill="none" xmlns="http://www.w3.org/2000/svg">
<g clip-path="url(#clip0_4058_27494)">
<rect width="716" height="370" transform="translate(0.0898438)" fill="url(#paint0_linear_4058_27494)"/>
<path d="M207.544 76.3426C174.34 67.2183 53.9765 111.942 -2.05469 135.444V374.96H715.975V91.8956C701.448 86.7113 666.169 76.3426 641.266 76.3426C610.138 76.3426 559.295 128.186 536.467 135.444C513.64 142.701 493.925 113.67 454.496 112.633C415.067 111.596 419.217 127.149 350.735 144.776C282.252 162.403 249.048 87.748 207.544 76.3426Z" fill="url(#paint1_linear_4058_27494)"/>
<path d="M26.5504 1.92432L60.5211 0L55.766 34.8502L63.2702 79.42V246.51L16.3146 254.22L21.222 103.544L0.0898438 90.3915V66.293L21.222 79.42V34.8502L26.5504 1.92432Z" fill="#384146"/>
<path d="M477.312 -7.8706L511.283 -9.79492L506.528 25.0552L514.032 69.6251L515.069 96.9L535.021 80.6304L572.344 57.5318L570.068 69.6251L535.021 101.112L515.069 128.679L522.757 291.461L458.433 273.275L471.984 93.7493L431.526 88.9982L403.936 80.6304L410.764 72.646L435.769 77.4846L454.391 78.495L448.485 62.2271L453.181 57.5318L458.433 68.2457L464.641 77.4846L471.984 75.5603L470.667 30.1977L454.791 -4.88747H467.335L474.195 13.7332L477.312 -7.8706Z" fill="#384146"/>
<path d="M689.5 0H655.659V36.0881V45.0223V53.9565V60.806L639.958 254.415L696.958 257.109V93.0154L716.09 49.0936V34.0347L693.193 60.806V16.0477L689.5 0Z" fill="#384146"/>
<path d="M208.693 1.92372L174.723 -0.000607491V36.0875V45.0217V53.9559V60.8055L161.726 244.984L218.531 236.074L215.946 56.6919L240.451 39.8167L284.091 8.20726L273.11 6.2364L253.402 18.3431L255.52 -3.05469L248.335 -0.000674725L242.985 23.9741L212.257 39.8167V16.0471L208.693 1.92372Z" fill="#384146"/>
<path d="M88.5805 0H126.608V39.0022L131.092 74.6428L172.718 39.0022L151.192 0H160.836L181.827 32.1552L220.404 0H235.154L135.176 101.787L145.091 248.48H88.5805V148.766V74.6428L25.7158 0H43.7234L88.5805 46.5333V0Z" fill="#3C5863"/>
<path d="M623.124 -0.000469685L588.214 -2.78125L565.944 78.8484L547.503 59.2393L554.33 18.7817L547.503 7.81656L538.807 50.5428L495.324 18.7817L488.14 21.4285L551.161 81.4347L562.628 101.966L554.33 155.344L558.457 292.808L623.124 261.824L603.615 130.188L613.507 74.6423L676.372 -0.000469685H662.07L635.225 29.7469L613.507 46.5329L623.124 -0.000469685Z" fill="#3C5863"/>
<path d="M306.439 -2.78125H350.744L356.115 46.7923L358.841 78.103L391.454 57.0313L384.628 18.7817L391.454 7.81656L400.151 50.5428L443.633 18.7817L450.817 21.4285L387.797 81.4347L366.483 109.674L369.422 155.344L373.013 267.873L302.731 278.038L311.352 155.344V64.9142L262.585 -0.000469685H276.887L292.793 13.058L311.352 33.8005L306.439 -2.78125Z" fill="#3C5863"/>
<path d="M116.309 235.446C71.7045 226.684 19.4013 244.407 -1.1748 254.363V384.79L716.671 379.812V260.337C685.807 246.398 660.916 245.403 635.03 246.398C609.143 247.394 583.257 276.267 551.397 281.245C519.537 286.223 466.769 260.337 408.027 254.363C349.285 248.389 345.303 273.28 309.46 260.337C273.618 247.394 243.749 226.486 227.819 225.49C211.889 224.494 172.064 246.398 116.309 235.446Z" fill="#1F2F36"/>
<path d="M65.4044 271.492C29.6896 263.514 6.65806 274.816 0.000488281 281.465V374.96H716.262C716.654 340.471 717.202 273.487 716.262 281.465C692.765 259.026 678.667 296.424 587.03 303.903C495.393 311.383 372.036 296.424 328.567 296.424C285.098 296.424 207.559 300.164 178.188 296.424C148.817 292.684 110.048 281.465 65.4044 271.492Z" fill="#091A21"/>
<path d="M197.829 299.616C194.29 302.108 195.953 307.671 200.279 307.811L222.66 308.538L221.562 282.909L197.829 299.616Z" fill="#BFD6F7"/>
<path d="M497.124 240.7C498.584 238.862 497.29 236.149 494.943 236.128L469.722 235.899L476.499 266.664L497.124 240.7Z" fill="#BFD6F7"/>
<path d="M243.569 197.781C241.324 197.096 239.274 199.294 240.114 201.486L249.143 225.036L275.285 207.457L243.569 197.781Z" fill="#98887F"/>
<path d="M491.701 301.88C486.497 353.926 419.192 309.132 342.369 309.767C296.519 305.183 187.016 371.66 229.854 257.106C248.683 198.032 316.843 170.33 362.693 174.915C445.628 184.715 496.905 249.834 491.701 301.88Z" fill="url(#paint2_linear_4058_27494)"/>
<path d="M325.361 216.389C323.653 217.789 321.132 217.539 319.732 215.83C318.332 214.122 318.582 211.601 320.291 210.201C322 208.801 324.52 209.051 325.92 210.76C327.321 212.469 327.07 214.989 325.361 216.389Z" fill="#6C6C6C"/>
<circle cx="3" cy="3" r="3" transform="matrix(-0.77439 0.632708 0.632708 0.77439 379.53 209.26)" fill="#6C6C6C"/>
<path d="M307.233 231.833C307.262 230.419 314.884 224.118 344.708 228.649C347.983 229.147 363.383 228.603 367.27 227.7C372.535 226.477 393.704 227.747 393.659 229.908C393.615 232.068 361.771 231.824 347.978 231.539C334.184 231.255 307.188 233.994 307.233 231.833Z" fill="#F2A3A3"/>
<path d="M467.345 312.008C459.953 320.471 416.229 295.445 353.148 294.619C307.568 294.022 252.389 320.941 253.262 312.21C254.136 303.478 298.179 253.957 362.384 261.883C375.97 263.242 403.02 263.982 422.196 273.324C447.066 285.441 472.141 306.517 467.345 312.008Z" fill="#E6E6E6"/>
<path d="M310.253 217.927C308.985 220.884 307.458 221.559 305.156 219.66C303.234 217.541 303.947 216.595 305.753 215.216C305.753 215.216 311.076 211.735 313.269 213.544C315.461 215.352 313.002 211.522 310.253 217.927Z" fill="white"/>
<path d="M405.072 219.777C406.227 221.448 407.256 221.675 408.444 220.212C409.369 218.66 407.362 218.219 406.072 217.591C406.072 217.591 403.056 216.417 401.925 217.811C400.794 219.204 402.57 216.155 405.072 219.777Z" fill="white"/>
<path d="M298.733 221.688C297.27 223.098 296.216 223.116 295.341 221.447C294.742 219.743 296.797 219.708 298.185 219.348C298.185 219.348 301.374 218.794 302.207 220.384C303.039 221.974 301.902 218.634 298.733 221.688Z" fill="white"/>
<path d="M392.413 217.615C394.242 220.261 395.872 220.621 397.753 218.303C399.217 215.846 398.33 215.06 396.288 214.066C396.288 214.066 390.38 211.708 388.589 213.915C386.798 216.122 388.451 211.881 392.413 217.615Z" fill="white"/>
<path d="M646.084 179.171L619.444 216.521L628.507 210.479V216.521L658.992 171.756L642.239 190.431L646.084 179.171Z" fill="#1F2F36"/>
<path d="M299.773 93.5839L329.886 128.195L326.123 117.973L331.998 119.382L295.571 79.3034L309.827 99.9472L299.773 93.5839Z" fill="#1F2F36"/>
<path d="M158.637 109.754L191.749 174.715L185.532 169.489L183.459 170.57L185.532 173.093L179.387 171.839L140.372 114.024L153.656 117.582L158.637 109.754Z" fill="#1F2F36"/>
<path d="M499.182 189.73L542.066 155.766L538.686 162.051L539.452 164.109L541.102 162.004L540.383 168.164L502.404 207.935L504.527 194.607L499.182 189.73Z" fill="#1F2F36"/>
<path d="M636.077 155.056L629.175 173.943L625.833 189.261L634.726 176.839L640.555 157.123L636.868 158.866L636.077 155.056Z" fill="#1F2F36"/>
<path d="M49.3152 128.902L67.7666 136.894L74.8525 141.453L60.2202 140.037L42.049 133.192L47.7323 131.777L49.3152 128.902Z" fill="#1F2F36"/>
<path d="M463.763 134.825L476.928 150.025L481.338 157.203L468.765 149.586L455.355 135.543L461.09 136.731L463.763 134.825Z" fill="#1F2F36"/>
<path d="M201.351 95.5202L192.819 113.728L184.309 126.896L186.852 111.832L196.728 93.8005L198.091 97.6442L201.351 95.5202Z" fill="#1F2F36"/>
<path d="M682.087 204.093L680.06 216.521L686.553 203.428L682.087 204.093Z" fill="#091A21"/>
<path d="M448.215 164.007L452.355 175.9L451.825 161.294L448.215 164.007Z" fill="#091A21"/>
<path d="M31.9023 168.932L87.7844 245.513H124.402L95.104 215.342L117.259 188.523L109.563 183.858L82.2772 200.883L50.4182 163.102L31.9023 168.932Z" fill="#1F2F36"/>
<path d="M581.402 226.965L631.82 226.965L606.37 277.24L606.37 306.674L575.845 315.279L525.713 316.318L544.428 291.789L554.512 270.181L534.825 241.851L544.428 228.758L567.149 249.342L581.402 226.965Z" fill="#091A21"/>
<path d="M266.444 65.7461L261.51 77.8584L266.444 72.7183L270.401 65.7461H266.444Z" fill="#3C5863"/>
<path d="M242.995 160.151L239.108 154.522L237.982 164.466L228.999 177.2L239.617 167.854L242.995 160.151Z" fill="#384146"/>
<path d="M639.064 108.041L640.45 101.342L632.482 107.397L617.069 109.697L631.161 110.92L639.064 108.041Z" fill="#384146"/>
<path d="M172.873 70.832L208.306 26.541L328.629 31.3391L496.195 34.661L520.186 61.2354L513.542 107.741L485.861 139.482L396.172 136.53L376.61 161.997L366.645 134.315L328.629 130.624L206.46 149.448L172.873 70.832Z" fill="white"/>
<path d="M211.145 55.6328C210.695 55.6914 210.285 55.7793 209.914 55.8965C209.699 55.9551 209.436 56.043 209.123 56.1602C208.615 56.3555 208.225 56.4434 207.951 56.4238C207.521 56.3848 206.877 56.1602 206.018 55.75C205.178 55.3398 204.699 54.9004 204.582 54.4316C204.445 53.9629 204.738 53.7383 205.461 53.7578L206.633 53.8457C207.629 53.9238 208.449 53.9531 209.094 53.9336C210.168 53.8945 211.496 53.748 213.078 53.4941C213.469 53.377 213.85 53.2402 214.221 53.084C214.436 53.0059 214.709 52.8789 215.041 52.7031C215.607 52.4102 216.047 52.2539 216.359 52.2344C216.848 52.2148 217.502 52.4199 218.322 52.8496C218.986 53.3184 219.182 53.8359 218.908 54.4023C218.654 54.9297 218.166 55.1641 217.443 55.1055C216.877 55.0469 216.154 55.0469 215.275 55.1055C214.357 55.1641 213.488 55.2617 212.668 55.3984C213.801 56.043 214.426 56.5801 214.543 57.0098C214.68 57.4199 214.406 57.8496 213.723 58.2988C214.191 58.3574 214.65 58.3867 215.1 58.3867C215.373 58.3867 215.715 58.377 216.125 58.3574C216.691 58.2988 217.092 58.2988 217.326 58.3574C217.697 58.4551 218.078 58.709 218.469 59.1191C218.762 59.5488 218.928 59.9688 218.967 60.3789C218.986 60.75 218.908 61.0723 218.732 61.3457C218.557 61.5801 218.332 61.7461 218.059 61.8438C217.805 61.9414 217.561 61.9414 217.326 61.8438L216.184 61.1699C215.52 60.7793 215.012 60.4863 214.66 60.291C214.094 59.9785 213.459 59.6367 212.756 59.2656C211.389 60.3203 209.924 61.1504 208.361 61.7559C206.975 62.3027 205.715 62.6152 204.582 62.6934C203.684 62.7715 203.01 62.791 202.561 62.752C202.17 62.7129 201.994 62.6348 202.033 62.5176C202.053 62.4004 202.238 62.3027 202.59 62.2246C202.941 62.127 203.342 62.0977 203.791 62.1367C204.24 62.1367 204.934 61.8633 205.871 61.3164C206.73 60.8086 207.619 60.1641 208.537 59.3828C209.455 58.6211 210.178 57.918 210.705 57.2734C211.271 56.5898 211.477 56.1406 211.32 55.9258L211.145 55.6328ZM214.719 65.125C215.852 65.0273 216.809 64.9004 217.59 64.7441C218.059 64.666 218.557 64.5488 219.084 64.3926C219.514 64.2754 219.836 64.207 220.051 64.1875C220.402 64.168 220.891 64.2363 221.516 64.3926C222.414 64.5293 223.059 64.8223 223.449 65.2715C223.723 65.623 223.811 65.9941 223.713 66.3848C223.498 66.9902 223.244 67.3418 222.951 67.4395C222.717 67.5176 222.131 67.498 221.193 67.3809C219.904 67.2051 218.723 67.0977 217.648 67.0586C215.754 66.9805 213.645 67.0293 211.32 67.2051C209.211 67.4395 207.365 67.7227 205.783 68.0547C204.904 68.2305 203.957 68.4648 202.941 68.7578C202.141 68.9922 201.594 69.0996 201.301 69.0801C200.93 69.041 200.363 68.7969 199.602 68.3477C198.02 67.4492 197.248 66.7168 197.287 66.1504C197.326 65.6621 197.834 65.4668 198.811 65.5645C200.041 65.6816 201.838 65.7109 204.201 65.6523C206.623 65.6133 209.299 65.4863 212.229 65.2715C212.248 64.7637 212.15 64.2852 211.936 63.8359C211.779 63.5625 211.486 63.1719 211.057 62.6641L210.881 62.459C210.686 62.2637 210.598 62.0488 210.617 61.8145C210.617 61.5801 210.725 61.3945 210.939 61.2578C211.193 61.1016 211.525 61.0332 211.936 61.0527C212.404 61.0723 212.951 61.209 213.576 61.4629C214.318 61.7949 214.768 62.1465 214.924 62.5176C215.021 62.7715 215.002 63.1816 214.865 63.748C214.807 64.0215 214.768 64.2266 214.748 64.3633C214.709 64.6172 214.689 64.8613 214.689 65.0957L214.719 65.125ZM210.617 78.0742C211.457 78.0742 212.404 77.9863 213.459 77.8105C214.631 77.6152 215.48 77.3906 216.008 77.1367C215.949 76.7852 215.891 76.1895 215.832 75.3496C215.773 74.6074 215.715 73.6602 215.656 72.5078C215.168 72.6055 214.709 72.7227 214.279 72.8594C214.025 72.918 213.713 73.0059 213.342 73.123L212.463 73.3574C212.229 73.3965 212.014 73.377 211.818 73.2988C211.662 73.2598 211.359 73.123 210.91 72.8887L210.734 72.8008C210.051 72.4688 209.758 72.166 209.855 71.8926C209.953 71.5801 210.441 71.375 211.32 71.2773C211.887 71.1797 212.453 71.0625 213.02 70.9258C213.605 70.7891 214.182 70.6426 214.748 70.4863L215.744 70.1055C216.213 69.9102 216.564 69.832 216.799 69.8711C217.111 69.9297 217.58 70.2129 218.205 70.7207C218.732 71.1699 219.025 71.541 219.084 71.834C219.123 72.0293 219.064 72.3027 218.908 72.6543C218.83 72.8105 218.771 72.9277 218.732 73.0059C218.674 73.1621 218.635 73.3281 218.615 73.5039C218.518 74.793 218.41 75.6621 218.293 76.1113C218.234 76.4434 218.107 76.7559 217.912 77.0488L217.59 77.6055C218.449 78.3086 218.684 78.8848 218.293 79.334C217.883 79.7832 216.975 79.959 215.568 79.8613C214.064 80.0566 213.01 80.1445 212.404 80.125C212.033 80.1055 211.691 80.0176 211.379 79.8613C211.262 79.8027 211.164 79.7539 211.086 79.7148C210.93 79.6562 210.773 79.6172 210.617 79.5977C210.266 80.5742 209.914 81.0723 209.562 81.0918C209.211 81.1113 208.84 80.6133 208.449 79.5977C208.176 78.7383 207.932 77.8789 207.717 77.0195C207.561 76.375 207.365 75.4473 207.131 74.2363C207.014 74.0605 206.877 73.8652 206.721 73.6504C206.623 73.5332 206.477 73.3574 206.281 73.123C205.891 72.6152 205.637 72.2441 205.52 72.0098C205.344 71.6387 205.334 71.3262 205.49 71.0723C205.686 70.7207 206.174 70.6523 206.955 70.8672C207.678 71.043 208.439 71.3945 209.24 71.9219C209.709 72.2344 210.012 72.5371 210.148 72.8301C210.227 73.0254 210.256 73.3184 210.236 73.709C210.217 73.9043 210.207 74.0508 210.207 74.1484C210.207 74.3242 210.227 74.5 210.266 74.6758L210.617 78.0742ZM227.332 58.123C227.058 58.1621 226.853 58.0352 226.716 57.7422C226.58 57.5078 226.511 57.2051 226.511 56.834C226.511 56.4629 226.58 56.1504 226.716 55.8965C226.853 55.6426 227.058 55.5449 227.332 55.6035C228.679 55.6816 229.968 55.7305 231.199 55.75C232.644 55.75 234.207 55.7012 235.886 55.6035C238.425 55.6035 240.33 56.5508 241.599 58.4453C242.791 60.2617 243.386 62.9082 243.386 66.3848C243.386 69.8418 242.791 72.4785 241.599 74.2949C240.33 76.209 238.425 77.166 235.886 77.166C234.168 77.0684 232.605 77.0195 231.199 77.0195C229.929 77.0391 228.64 77.0879 227.332 77.166C227.058 77.2051 226.853 77.0879 226.716 76.8145C226.58 76.5605 226.511 76.248 226.511 75.877C226.511 75.5059 226.58 75.1934 226.716 74.9395C226.853 74.666 227.058 74.5586 227.332 74.6172C227.976 74.6758 228.425 74.6855 228.679 74.6465C229.05 74.5684 229.236 74.373 229.236 74.0605V58.8262C229.236 58.4746 229.05 58.25 228.679 58.1523C228.367 58.0547 227.918 58.0449 227.332 58.123ZM231.931 58.123V74.6465H235.652C237.117 74.6465 238.269 74.041 239.109 72.8301C240.105 71.4434 240.603 69.2949 240.603 66.3848C240.603 63.4551 240.105 61.2969 239.109 59.9102C238.269 58.7188 237.117 58.123 235.652 58.123H231.931ZM255.433 58.0938C255.433 57.6641 255.189 57.1465 254.701 56.541C254.369 56.1309 253.783 55.5352 252.943 54.7539C252.67 54.5195 252.601 54.3047 252.738 54.1094C252.875 53.8945 253.177 53.7773 253.646 53.7578C254.154 53.7383 254.73 53.8359 255.375 54.0508C256.136 54.3242 256.918 54.7539 257.718 55.3398C258.187 55.6914 258.48 56.0039 258.597 56.2773C258.675 56.4531 258.695 56.7363 258.656 57.127C258.636 57.3027 258.617 57.4395 258.597 57.5371C258.597 57.7129 258.607 57.8887 258.627 58.0645V68.5234C258.627 70.9844 258.48 72.957 258.187 74.4414C257.972 75.6133 257.621 76.6973 257.132 77.6934C256.703 78.5918 256.42 79.002 256.283 78.9238C256.146 78.8652 256.234 78.3477 256.546 77.3711C256.605 77.0391 256.615 76.6777 256.576 76.2871C256.556 76.0332 256.478 75.584 256.341 74.9395C256.107 73.748 255.931 72.6836 255.814 71.7461C255.619 70.1055 255.521 68.2598 255.521 66.209C254.916 66.3066 254.359 66.4434 253.851 66.6191C253.578 66.7168 253.236 66.8535 252.826 67.0293C252.318 67.2832 251.918 67.3906 251.625 67.3516C251.214 67.3125 250.599 67.0293 249.779 66.502C248.841 65.8184 248.343 65.2812 248.285 64.8906C248.246 64.5 248.666 64.3828 249.545 64.5391C250.17 64.6172 250.951 64.6465 251.888 64.627C252.923 64.6074 254.125 64.5293 255.492 64.3926L255.433 58.0938ZM287.309 57.4785C286.567 57.4785 285.893 57.2734 285.288 56.8633C284.761 56.4922 284.272 55.9648 283.823 55.2812C283.53 54.832 283.471 54.5098 283.647 54.3145C283.823 54.0996 284.194 54.0605 284.761 54.1973C285.522 54.3145 286.264 54.3828 286.987 54.4023C287.436 54.4219 288.091 54.4316 288.95 54.4316H290.093C290.835 54.5293 291.186 54.9004 291.147 55.5449C291.128 56.209 290.776 56.6777 290.093 56.9512C289.643 57.0879 289.204 57.2051 288.774 57.3027C288.286 57.4004 287.866 57.459 287.514 57.4785H287.309ZM287.807 60.3203C287.104 60.418 286.45 60.5352 285.845 60.6719C285.493 60.7695 285.073 60.8867 284.585 61.0234C283.882 61.2188 283.393 61.2969 283.12 61.2578C282.749 61.2188 282.221 61.0039 281.538 60.6133C280.718 60.0273 280.356 59.5293 280.454 59.1191C280.552 58.748 280.981 58.582 281.743 58.6211C282.876 58.6797 283.872 58.6895 284.731 58.6504C285.727 58.5918 287.065 58.4453 288.745 58.2109C289.194 58.0938 289.624 57.9766 290.034 57.8594C290.268 57.7812 290.561 57.6836 290.913 57.5664C291.499 57.3711 291.909 57.2832 292.143 57.3027C292.436 57.3418 292.895 57.5664 293.52 57.9766C294.184 58.543 294.331 59.0898 293.96 59.6172C293.589 60.125 292.944 60.3301 292.026 60.2324C291.596 60.1934 291.001 60.1738 290.239 60.1738C289.38 60.1934 288.618 60.2422 287.954 60.3203H287.807ZM288.452 61.1992C286.968 61.1992 285.737 61.5898 284.761 62.3711C283.843 63.0938 283.374 63.9531 283.354 64.9492C283.354 66.4336 283.911 67.6348 285.024 68.5527C286.059 69.4121 287.319 69.8418 288.804 69.8418C290.171 69.8418 291.294 69.373 292.173 68.4355C292.993 67.5762 293.403 66.5801 293.403 65.4473C293.403 64.1582 292.876 63.1133 291.821 62.3125C290.864 61.5703 289.741 61.1992 288.452 61.1992ZM288.569 63.6602C289.038 63.6602 289.546 63.8457 290.093 64.2168C290.639 64.6074 290.913 65.0078 290.913 65.418C290.913 66.043 290.659 66.502 290.151 66.7949C289.741 67.0684 289.175 67.2051 288.452 67.2051C287.788 67.2051 287.182 66.9902 286.636 66.5605C286.128 66.1699 285.874 65.7695 285.874 65.3594C285.874 64.7539 286.147 64.3047 286.694 64.0117C287.163 63.7773 287.788 63.6602 288.569 63.6602ZM298.413 56.3359C298.413 55.9258 298.169 55.3984 297.68 54.7539C297.192 54.0703 296.567 53.416 295.805 52.791C295.63 52.6543 295.62 52.498 295.776 52.3223C295.932 52.127 296.225 52.0195 296.655 52C297.143 51.9609 297.729 52.0684 298.413 52.3223C299.233 52.6348 300.132 53.1426 301.108 53.8457C301.46 54.1387 301.675 54.4512 301.753 54.7832C301.811 54.9785 301.811 55.291 301.753 55.7207L301.723 56.4824L301.694 61.375C301.694 63.0352 301.528 64.4414 301.196 65.5938C301.001 66.2578 300.659 67.0293 300.171 67.9082L299.731 68.7871C299.341 69.666 299.096 70.0078 298.999 69.8125C298.921 69.6562 298.96 69.2266 299.116 68.5234C299.136 68.2109 299.126 67.8789 299.087 67.5273C299.067 67.293 299.009 66.9316 298.911 66.4434C298.774 65.7012 298.677 65.0762 298.618 64.5684C298.52 63.6895 298.471 62.7324 298.471 61.6973L298.413 56.3359ZM292.759 77.9277C293.637 77.9082 294.585 77.8105 295.6 77.6348C296.811 77.4395 297.68 77.1953 298.208 76.9023C298.13 76.5898 298.061 76.0332 298.003 75.2324C297.944 74.5488 297.886 73.6211 297.827 72.4492C297.3 72.5469 296.802 72.6543 296.333 72.7715C296.059 72.8301 295.737 72.9082 295.366 73.0059L294.575 73.2109C294.341 73.2305 294.116 73.2109 293.901 73.1523C293.745 73.1133 293.432 72.9863 292.964 72.7715L292.876 72.7422C292.173 72.4102 291.87 72.0977 291.968 71.8047C292.065 71.5117 292.563 71.3164 293.462 71.2188C293.97 71.1211 294.536 70.9941 295.161 70.8379C295.688 70.7207 296.274 70.584 296.919 70.4277L297.505 70.1641C298.012 69.9297 298.413 69.8223 298.706 69.8418C299.155 69.9004 299.721 70.2324 300.405 70.8379C300.932 71.3457 301.235 71.7949 301.313 72.1855C301.352 72.4004 301.284 72.6934 301.108 73.0645C301.05 73.2207 301.001 73.3281 300.962 73.3867C300.923 73.5234 300.893 73.6504 300.874 73.7676C300.757 74.7051 300.649 75.3984 300.552 75.8477C300.473 76.1211 300.376 76.3945 300.259 76.668C300.18 76.8047 300.122 76.9219 300.083 77.0195C300.024 77.1758 299.975 77.3516 299.936 77.5469C300.737 78.2109 300.923 78.7578 300.493 79.1875C300.063 79.6172 299.136 79.7832 297.71 79.6855C296.225 79.8809 295.18 79.9688 294.575 79.9492C294.204 79.9297 293.852 79.8418 293.52 79.6855C293.384 79.627 293.276 79.5781 293.198 79.5391C293.061 79.4805 292.905 79.4414 292.729 79.4219C292.221 80.2227 291.802 80.6426 291.47 80.6816C291.079 80.7012 290.786 80.2812 290.591 79.4219C290.415 78.9727 290.259 78.4648 290.122 77.8984C290.024 77.5469 289.907 77.0488 289.77 76.4043C289.653 75.8574 289.565 75.4668 289.507 75.2324C289.409 74.8223 289.311 74.4609 289.214 74.1484C289.096 73.9727 288.96 73.7773 288.804 73.5625C288.706 73.4453 288.559 73.2695 288.364 73.0352C287.954 72.5273 287.69 72.1562 287.573 71.9219C287.397 71.5703 287.387 71.2578 287.544 70.9844C287.759 70.6328 288.257 70.5645 289.038 70.7793C289.761 70.9551 290.532 71.3066 291.352 71.834C291.841 72.166 292.153 72.4785 292.29 72.7715C292.368 72.9668 292.397 73.2695 292.378 73.6797C292.358 73.8555 292.348 73.9922 292.348 74.0898C292.348 74.2461 292.358 74.4121 292.378 74.5879L292.759 77.9277ZM311.7 58.709C311.7 58.416 311.573 58.2402 311.319 58.1816C311.162 58.123 310.772 58.1035 310.147 58.123L309.912 58.1523C309.678 58.1719 309.493 58.0547 309.356 57.8008C309.239 57.5469 309.18 57.2441 309.18 56.8926C309.18 56.5215 309.239 56.2188 309.356 55.9844C309.493 55.7109 309.678 55.5938 309.912 55.6328C310.694 55.6914 311.426 55.7207 312.11 55.7207C312.793 55.7207 313.399 55.6914 313.926 55.6328C314.258 55.5742 314.522 55.623 314.717 55.7793C314.815 55.8965 314.942 56.1309 315.098 56.4824L316.914 60.3496L322.334 71.8633V58.6211C322.334 58.3477 322.129 58.1816 321.719 58.123C321.426 58.0645 321.065 58.0742 320.635 58.1523C320.323 58.1523 320.079 58.0156 319.903 57.7422C319.746 57.4883 319.668 57.1855 319.668 56.834C319.668 56.4629 319.746 56.1602 319.903 55.9258C320.079 55.6719 320.323 55.5742 320.635 55.6328C321.182 55.7109 322.002 55.75 323.096 55.75C324.17 55.75 325.264 55.7109 326.377 55.6328C326.631 55.5742 326.836 55.6816 326.993 55.9551C327.149 56.1895 327.227 56.4922 327.227 56.8633C327.227 57.2344 327.149 57.5371 326.993 57.7715C326.836 58.0449 326.631 58.1719 326.377 58.1523L326.055 58.123C325.684 58.123 325.44 58.1426 325.323 58.1816C325.127 58.2402 325.03 58.3867 325.03 58.6211V75.4961C325.03 76.1211 324.883 76.6289 324.59 77.0195C324.356 77.3516 324.034 77.5566 323.623 77.6348C323.252 77.6934 322.881 77.625 322.51 77.4297C322.12 77.2148 321.827 76.9023 321.631 76.4922L319.61 72.3027L314.395 61.1406V74.1191C314.395 74.4121 314.61 74.5879 315.039 74.6465C315.313 74.6855 315.664 74.6758 316.094 74.6172C316.387 74.5586 316.621 74.6758 316.797 74.9688C316.973 75.2031 317.061 75.5156 317.061 75.9062C317.061 76.2773 316.973 76.5801 316.797 76.8145C316.621 77.1074 316.387 77.2344 316.094 77.1953C315.391 77.1172 314.502 77.0781 313.428 77.0781C312.452 77.0586 311.28 77.0781 309.912 77.1367C309.678 77.1758 309.493 77.0586 309.356 76.7852C309.239 76.5312 309.18 76.2188 309.18 75.8477C309.18 75.457 309.239 75.1445 309.356 74.9102C309.493 74.6367 309.678 74.5391 309.912 74.6172H310.498C310.987 74.6367 311.289 74.627 311.407 74.5879C311.602 74.5293 311.7 74.373 311.7 74.1191V58.709ZM339.889 64.3633V57.9473C339.889 57.4199 339.655 56.8828 339.186 56.3359C338.912 56.0039 338.385 55.4863 337.604 54.7832L337.399 54.6074C337.204 54.4121 337.184 54.2266 337.34 54.0508C337.496 53.875 337.78 53.7773 338.19 53.7578C338.678 53.7383 339.225 53.8359 339.83 54.0508C340.573 54.3242 341.344 54.7539 342.145 55.3398C342.594 55.6914 342.868 56.0137 342.965 56.3066C343.024 56.502 343.024 56.8047 342.965 57.2148L342.907 58.0352L342.76 68.7578C342.76 71.0625 342.604 72.8984 342.291 74.2656C342.135 75.0664 341.823 75.9551 341.354 76.9316L341.002 77.8105C340.612 78.6113 340.358 78.9824 340.241 78.9238C340.104 78.8457 340.153 78.3965 340.387 77.5762C340.465 77.2246 340.495 76.7852 340.475 76.2578C340.475 75.9258 340.426 75.3105 340.329 74.4121C340.192 73.2207 340.094 72.2246 340.036 71.4238C339.957 70.0371 339.918 68.5918 339.918 67.0879C338.727 67.2246 337.877 67.2441 337.37 67.1465C337.037 67.0684 336.686 66.8633 336.315 66.5312L335.875 66.1504C335.875 68.5723 335.739 70.3887 335.465 71.5996C335.309 72.3418 334.996 73.1523 334.528 74.0312L334.235 74.6172C333.766 75.4961 333.502 75.8477 333.444 75.6719C333.405 75.5547 333.473 75.1348 333.649 74.4121C333.727 73.9043 333.746 73.3672 333.707 72.8008C333.688 72.4492 333.629 71.834 333.532 70.9551C333.356 69.5293 333.229 68.2695 333.151 67.1758C333.034 65.2422 332.975 63.0547 332.975 60.6133C332.975 60.0859 332.731 59.4902 332.243 58.8262C331.93 58.3965 331.481 57.8984 330.895 57.332C330.719 57.1758 330.7 57.0195 330.836 56.8633C330.973 56.6875 331.217 56.5898 331.569 56.5703C331.998 56.5312 332.477 56.6191 333.004 56.834C333.668 57.0684 334.371 57.459 335.114 58.0059C335.543 58.3184 335.797 58.6016 335.875 58.8555C335.934 59.0312 335.934 59.3242 335.875 59.7344L335.787 60.6133L335.875 64.7734C336.325 64.7734 336.94 64.7441 337.721 64.6855C338.639 64.6074 339.332 64.5098 339.801 64.3926L339.889 64.3633ZM359.475 75.6719C359.475 76.2578 359.24 76.7363 358.771 77.1074C358.342 77.4785 357.834 77.6641 357.248 77.6641C356.623 77.6641 356.096 77.4785 355.666 77.1074C355.217 76.7363 354.992 76.2578 354.992 75.6719C354.992 75.0859 355.217 74.5977 355.666 74.207C356.096 73.8555 356.623 73.6797 357.248 73.6797C357.814 73.6797 358.322 73.8555 358.771 74.207C359.24 74.5977 359.475 75.0859 359.475 75.6719ZM368.865 75.6719C368.865 76.2578 368.63 76.7363 368.162 77.1074C367.732 77.4785 367.224 77.6641 366.638 77.6641C366.013 77.6641 365.486 77.4785 365.056 77.1074C364.607 76.7363 364.382 76.2578 364.382 75.6719C364.382 75.0859 364.607 74.5977 365.056 74.207C365.486 73.8555 366.013 73.6797 366.638 73.6797C367.205 73.6797 367.712 73.8555 368.162 74.207C368.63 74.5977 368.865 75.0859 368.865 75.6719ZM378.255 75.6719C378.255 76.2578 378.021 76.7363 377.552 77.1074C377.122 77.4785 376.614 77.6641 376.029 77.6641C375.404 77.6641 374.876 77.4785 374.446 77.1074C373.997 76.7363 373.773 76.2578 373.773 75.6719C373.773 75.0859 373.997 74.5977 374.446 74.207C374.876 73.8555 375.404 73.6797 376.029 73.6797C376.595 73.6797 377.103 73.8555 377.552 74.207C378.021 74.5977 378.255 75.0859 378.255 75.6719ZM407.114 67.293C406.176 67.4102 405.336 67.5664 404.594 67.7617C404.164 67.8789 403.676 68.0352 403.129 68.2305C402.504 68.4453 402.026 68.5332 401.694 68.4941C401.264 68.4355 400.502 68.1328 399.409 67.5859C398.432 66.9805 397.993 66.4629 398.09 66.0332C398.188 65.6426 398.686 65.4766 399.584 65.5352C401.381 65.5742 403.11 65.5449 404.77 65.4473C406.528 65.3496 408.139 65.1738 409.604 64.9199C409.565 64.2168 409.506 63.4844 409.428 62.7227C409.311 61.7461 409.184 61.0723 409.047 60.7012C408.383 59.4902 408.246 58.6992 408.637 58.3281C409.028 57.957 409.858 58.1719 411.127 58.9727C411.772 59.4414 412.153 59.832 412.27 60.1445C412.348 60.3594 412.299 60.7207 412.123 61.2285L412.036 61.6387C412.055 62.1855 411.977 62.6348 411.801 62.9863C411.704 63.2012 411.528 63.4453 411.274 63.7188C411.098 63.9141 410.981 64.0605 410.922 64.1582C410.805 64.334 410.737 64.5391 410.717 64.7734L411.332 64.627C412.016 64.4707 412.504 64.4316 412.797 64.5098C413.246 64.6465 413.559 65.0859 413.735 65.8281C413.852 66.4727 413.657 66.8828 413.149 67.0586C412.817 67.1562 412.055 67.1953 410.864 67.1758C410.161 67.1562 409.604 67.1465 409.194 67.1465C408.491 67.166 407.836 67.2148 407.231 67.293H407.114ZM406.821 58.1816C406.039 58.2598 405.317 58.3574 404.653 58.4746C404.282 58.5527 403.842 58.6602 403.334 58.7969C402.651 58.9727 402.153 59.0312 401.84 58.9727C401.469 58.8945 400.834 58.6113 399.936 58.123C398.92 57.459 398.413 56.9219 398.413 56.5117C398.413 56.1406 398.823 55.9746 399.643 56.0137C402.866 56.209 405.268 56.2188 406.85 56.043C407.788 55.9258 408.637 55.6914 409.399 55.3398C409.711 55.2031 409.965 55.1055 410.161 55.0469C410.473 54.9492 410.844 54.8906 411.274 54.8711C412.25 54.9102 412.963 55.2129 413.413 55.7793C413.862 56.4043 413.725 57.0098 413.002 57.5957C412.729 57.8105 412.475 57.9375 412.241 57.9766C412.084 58.0156 411.743 58.0254 411.215 58.0059C410.629 57.9863 410.112 57.9863 409.663 58.0059C408.862 58.0059 407.973 58.0547 406.996 58.1523L406.821 58.1816ZM401.196 61.6094C400.746 60.9258 400.62 60.4082 400.815 60.0566C401.069 59.6074 401.801 59.5879 403.012 59.998C403.676 60.252 404.106 60.4863 404.301 60.7012C404.418 60.8574 404.487 61.1113 404.506 61.4629L404.565 62.0488C404.721 62.5566 404.77 62.957 404.711 63.25C404.672 63.4258 404.545 63.6797 404.33 64.0117L404.038 64.5098C403.784 64.998 403.588 65.2324 403.452 65.2129C403.354 65.1934 403.207 64.9785 403.012 64.5684C402.875 64.2754 402.709 63.9824 402.514 63.6895C402.416 63.5332 402.25 63.2891 402.016 62.957C401.84 62.7031 401.704 62.5078 401.606 62.3711C401.469 62.1562 401.362 61.9609 401.284 61.7852L401.196 61.6094ZM409.37 75.1152C406.479 75.2715 404.008 75.5352 401.957 75.9062C400.805 76.1211 399.614 76.4141 398.383 76.7852C397.407 77.0586 396.704 77.1562 396.274 77.0781C395.786 76.9805 394.848 76.5312 393.461 75.7305C392.817 75.3594 392.348 75.0078 392.055 74.6758C391.821 74.3828 391.723 74.1289 391.762 73.9141C391.801 73.7188 391.938 73.5723 392.172 73.4746C392.407 73.3965 392.651 73.3867 392.905 73.4453C394.33 73.6602 396.772 73.709 400.229 73.5918C402.846 73.4941 405.678 73.3281 408.725 73.0938C409.76 72.9961 410.659 72.8496 411.42 72.6543C411.87 72.5371 412.377 72.3711 412.944 72.1562C413.53 71.9414 413.998 71.834 414.35 71.834C414.838 71.8535 415.6 72.0781 416.635 72.5078C417.143 72.7422 417.514 73.0449 417.748 73.416C417.944 73.748 418.012 74.0898 417.954 74.4414C417.914 74.7539 417.788 75.0273 417.573 75.2617C417.358 75.4961 417.143 75.6133 416.928 75.6133C416.557 75.6133 416.205 75.584 415.873 75.5254C415.678 75.5059 415.375 75.457 414.965 75.3789C414.243 75.2227 413.588 75.125 413.002 75.0859C412.026 75.0078 410.815 75.0176 409.37 75.1152ZM423.535 58.5332C423.535 58.3379 423.379 58.2109 423.066 58.1523C422.871 58.1133 422.529 58.0938 422.041 58.0938L421.66 58.123C421.387 58.1426 421.172 58.0156 421.016 57.7422C420.859 57.5078 420.781 57.2051 420.781 56.834C420.781 56.4629 420.859 56.1602 421.016 55.9258C421.172 55.6523 421.387 55.5449 421.66 55.6035C422.422 55.6816 423.428 55.7207 424.678 55.7207C425.908 55.7207 427.275 55.6816 428.779 55.6035C429.131 55.5449 429.414 55.6523 429.629 55.9258C429.824 56.1602 429.922 56.4629 429.922 56.834C429.922 57.2051 429.824 57.5078 429.629 57.7422C429.414 58.0156 429.131 58.1426 428.779 58.123L428.252 58.0938C427.549 58.0938 427.07 58.1133 426.816 58.1523C426.426 58.2109 426.23 58.3379 426.23 58.5332V73.7969C426.23 74.1875 426.445 74.4414 426.875 74.5586C427.168 74.6172 427.852 74.6465 428.926 74.6465H429.922C430.938 74.6465 431.65 74.5977 432.061 74.5C432.588 74.3828 432.969 74.1387 433.203 73.7676C433.418 73.3965 433.555 72.8105 433.613 72.0098C433.633 71.3848 433.623 70.3105 433.584 68.7871C433.545 68.4355 433.682 68.1621 433.994 67.9668C434.268 67.791 434.619 67.7031 435.049 67.7031C435.459 67.7031 435.791 67.791 436.045 67.9668C436.338 68.1621 436.465 68.4355 436.426 68.7871C436.289 70.3887 436.191 71.6973 436.133 72.7129C436.055 74.1973 436.064 75.3008 436.162 76.0234C436.162 76.5703 436.035 76.9219 435.781 77.0781C435.508 77.2148 434.971 77.2441 434.17 77.166C432.451 77.1074 430.4 77.0781 428.018 77.0781C425.654 77.0781 423.535 77.1074 421.66 77.166C421.387 77.2051 421.172 77.0977 421.016 76.8438C420.859 76.5898 420.781 76.2773 420.781 75.9062C420.781 75.5352 420.859 75.2324 421.016 74.998C421.172 74.7051 421.387 74.5879 421.66 74.6465C422.188 74.7246 422.598 74.7246 422.891 74.6465C423.32 74.5293 423.535 74.2461 423.535 73.7969V58.5332ZM447.662 59.7637L445.259 67.4688H450.035L447.662 59.7637ZM442.242 55.6035C442.828 55.6426 443.453 55.6621 444.117 55.6621C444.527 55.6621 445.113 55.6523 445.875 55.6328L447.72 55.6035C448.111 55.6035 448.482 55.7402 448.834 56.0137C449.263 56.3652 449.576 56.8926 449.771 57.5957L454.722 73.5918C454.879 74.0996 455.064 74.4121 455.279 74.5293C455.513 74.6465 455.982 74.6855 456.685 74.6465C456.92 74.6074 457.115 74.7246 457.271 74.998C457.408 75.2324 457.476 75.5352 457.476 75.9062C457.476 76.2773 457.408 76.5801 457.271 76.8145C457.115 77.0879 456.92 77.2148 456.685 77.1953C455.552 77.0781 454.468 77.0195 453.433 77.0195C452.418 77.0195 451.373 77.0781 450.298 77.1953C449.986 77.2148 449.742 77.0879 449.566 76.8145C449.41 76.5801 449.332 76.2773 449.332 75.9062C449.332 75.5352 449.41 75.2324 449.566 74.998C449.742 74.7246 449.986 74.6074 450.298 74.6465C450.962 74.7051 451.431 74.6562 451.705 74.5C452.017 74.3242 452.105 74.0215 451.968 73.5918L450.855 69.9883H444.439L443.326 73.5918C443.189 74.0215 443.277 74.3242 443.589 74.5C443.824 74.6562 444.156 74.7051 444.586 74.6465C444.859 74.6074 445.084 74.7246 445.259 74.998C445.396 75.2324 445.464 75.5352 445.464 75.9062C445.464 76.2773 445.396 76.5801 445.259 76.8145C445.084 77.0879 444.859 77.2148 444.586 77.1953C443.57 77.0977 442.613 77.0488 441.714 77.0488C440.796 77.0488 439.742 77.0977 438.55 77.1953C438.336 77.2148 438.16 77.0879 438.023 76.8145C437.906 76.5801 437.847 76.2773 437.847 75.9062C437.847 75.5352 437.906 75.2324 438.023 74.998C438.16 74.7246 438.336 74.6074 438.55 74.6465C439.117 74.7051 439.546 74.666 439.839 74.5293C440.171 74.373 440.416 74.0605 440.572 73.5918L445.025 59.1777C445.142 58.748 445.201 58.4844 445.201 58.3867C445.201 58.2305 445.113 58.1328 444.937 58.0938L444.673 58.0645C444.576 58.0645 444.263 58.0742 443.736 58.0938C443.209 58.1133 442.711 58.123 442.242 58.123C441.968 58.1426 441.754 58.0254 441.597 57.7715C441.441 57.5176 441.363 57.2148 441.363 56.8633C441.363 56.4922 441.441 56.1895 441.597 55.9551C441.754 55.6816 441.968 55.5645 442.242 55.6035ZM461.593 58.709C461.593 58.416 461.466 58.2402 461.212 58.1816C461.056 58.123 460.665 58.1035 460.04 58.123L459.806 58.1523C459.571 58.1719 459.386 58.0547 459.249 57.8008C459.132 57.5469 459.073 57.2441 459.073 56.8926C459.073 56.5215 459.132 56.2188 459.249 55.9844C459.386 55.7109 459.571 55.5938 459.806 55.6328C460.587 55.6914 461.32 55.7207 462.003 55.7207C462.687 55.7207 463.292 55.6914 463.82 55.6328C464.152 55.5742 464.415 55.623 464.611 55.7793C464.708 55.8965 464.835 56.1309 464.991 56.4824L466.808 60.3496L472.228 71.8633V58.6211C472.228 58.3477 472.023 58.1816 471.612 58.123C471.32 58.0645 470.958 58.0742 470.529 58.1523C470.216 58.1523 469.972 58.0156 469.796 57.7422C469.64 57.4883 469.562 57.1855 469.562 56.834C469.562 56.4629 469.64 56.1602 469.796 55.9258C469.972 55.6719 470.216 55.5742 470.529 55.6328C471.075 55.7109 471.896 55.75 472.989 55.75C474.064 55.75 475.157 55.7109 476.271 55.6328C476.525 55.5742 476.73 55.6816 476.886 55.9551C477.042 56.1895 477.12 56.4922 477.12 56.8633C477.12 57.2344 477.042 57.5371 476.886 57.7715C476.73 58.0449 476.525 58.1719 476.271 58.1523L475.948 58.123C475.577 58.123 475.333 58.1426 475.216 58.1816C475.021 58.2402 474.923 58.3867 474.923 58.6211V75.4961C474.923 76.1211 474.777 76.6289 474.484 77.0195C474.249 77.3516 473.927 77.5566 473.517 77.6348C473.146 77.6934 472.775 77.625 472.404 77.4297C472.013 77.2148 471.72 76.9023 471.525 76.4922L469.503 72.3027L464.288 61.1406V74.1191C464.288 74.4121 464.503 74.5879 464.933 74.6465C465.206 74.6855 465.558 74.6758 465.987 74.6172C466.28 74.5586 466.515 74.6758 466.691 74.9688C466.866 75.2031 466.954 75.5156 466.954 75.9062C466.954 76.2773 466.866 76.5801 466.691 76.8145C466.515 77.1074 466.28 77.2344 465.987 77.1953C465.284 77.1172 464.396 77.0781 463.321 77.0781C462.345 77.0586 461.173 77.0781 459.806 77.1367C459.571 77.1758 459.386 77.0586 459.249 76.7852C459.132 76.5312 459.073 76.2188 459.073 75.8477C459.073 75.457 459.132 75.1445 459.249 74.9102C459.386 74.6367 459.571 74.5391 459.806 74.6172H460.392C460.88 74.6367 461.183 74.627 461.3 74.5879C461.495 74.5293 461.593 74.373 461.593 74.1191V58.709ZM480.534 58.123C480.261 58.1621 480.055 58.0352 479.919 57.7422C479.782 57.5078 479.714 57.2051 479.714 56.834C479.714 56.4629 479.782 56.1504 479.919 55.8965C480.055 55.6426 480.261 55.5449 480.534 55.6035C481.882 55.6816 483.171 55.7305 484.401 55.75C485.846 55.75 487.409 55.7012 489.089 55.6035C491.628 55.6035 493.532 56.5508 494.802 58.4453C495.993 60.2617 496.589 62.9082 496.589 66.3848C496.589 69.8418 495.993 72.4785 494.802 74.2949C493.532 76.209 491.628 77.166 489.089 77.166C487.37 77.0684 485.807 77.0195 484.401 77.0195C483.132 77.0391 481.843 77.0879 480.534 77.166C480.261 77.2051 480.055 77.0879 479.919 76.8145C479.782 76.5605 479.714 76.248 479.714 75.877C479.714 75.5059 479.782 75.1934 479.919 74.9395C480.055 74.666 480.261 74.5586 480.534 74.6172C481.179 74.6758 481.628 74.6855 481.882 74.6465C482.253 74.5684 482.438 74.373 482.438 74.0605V58.8262C482.438 58.4746 482.253 58.25 481.882 58.1523C481.569 58.0547 481.12 58.0449 480.534 58.123ZM485.134 58.123V74.6465H488.854C490.319 74.6465 491.471 74.041 492.311 72.8301C493.307 71.4434 493.805 69.2949 493.805 66.3848C493.805 63.4551 493.307 61.2969 492.311 59.9102C491.471 58.7188 490.319 58.123 488.854 58.123H485.134Z" fill="#363635"/>
<path d="M223.719 92.9824C223.719 92.6895 223.523 92.5039 223.133 92.4258C222.801 92.3477 222.42 92.3574 221.99 92.4551C221.736 92.4746 221.541 92.3379 221.404 92.0449C221.268 91.8105 221.199 91.5078 221.199 91.1367C221.199 90.7852 221.268 90.4824 221.404 90.2285C221.541 89.9746 221.736 89.8672 221.99 89.9062C223.104 90.0039 224.168 90.0625 225.184 90.082C226.316 90.082 227.186 90.0234 227.791 89.9062C228.064 89.8477 228.289 89.9551 228.465 90.2285C228.602 90.4629 228.67 90.7656 228.67 91.1367C228.67 91.4883 228.602 91.791 228.465 92.0449C228.289 92.3379 228.064 92.4746 227.791 92.4551L227.498 92.4258C227.088 92.4258 226.814 92.4453 226.678 92.4844C226.502 92.5625 226.414 92.7285 226.414 92.9824V99.0469H233.914V92.8945C233.914 92.6797 233.816 92.543 233.621 92.4844C233.504 92.4453 233.25 92.4258 232.859 92.4258L232.537 92.4551C232.244 92.4746 232.01 92.3477 231.834 92.0742C231.678 91.8398 231.6 91.5371 231.6 91.166C231.6 90.7949 231.678 90.4824 231.834 90.2285C232.01 89.9551 232.244 89.8477 232.537 89.9062C233.572 89.9844 234.471 90.0234 235.232 90.0234C236.014 90.0234 236.98 89.9844 238.133 89.9062C238.406 89.8477 238.631 89.9551 238.807 90.2285C238.943 90.4824 239.012 90.7949 239.012 91.166C239.012 91.5371 238.943 91.8398 238.807 92.0742C238.631 92.3477 238.406 92.4746 238.133 92.4551L237.811 92.4258C237.381 92.4258 237.098 92.4453 236.961 92.4844C236.727 92.543 236.609 92.6797 236.609 92.8945V108.715C236.609 108.91 236.756 109.027 237.049 109.066C237.283 109.086 237.645 109.057 238.133 108.979C238.406 108.92 238.631 109.027 238.807 109.301C238.943 109.555 239.012 109.877 239.012 110.268C239.012 110.658 238.943 110.971 238.807 111.205C238.631 111.479 238.406 111.576 238.133 111.498C237.273 111.42 236.346 111.381 235.35 111.381C234.354 111.381 233.416 111.42 232.537 111.498C232.244 111.537 232.01 111.42 231.834 111.146C231.678 110.893 231.6 110.57 231.6 110.18C231.6 109.809 231.678 109.506 231.834 109.271C232.01 108.998 232.244 108.9 232.537 108.979C233.025 109.057 233.357 109.086 233.533 109.066C233.768 109.047 233.895 108.93 233.914 108.715V101.566H226.414V108.598C226.414 108.832 226.512 108.969 226.707 109.008C226.844 109.047 227.127 109.037 227.557 108.979H227.791C228.064 108.939 228.289 109.057 228.465 109.33C228.602 109.564 228.67 109.857 228.67 110.209C228.67 110.561 228.602 110.863 228.465 111.117C228.289 111.391 228.064 111.518 227.791 111.498C226.971 111.42 226.082 111.381 225.125 111.381C224.285 111.381 223.24 111.42 221.99 111.498C221.736 111.537 221.541 111.42 221.404 111.146C221.268 110.893 221.199 110.58 221.199 110.209C221.199 109.838 221.268 109.535 221.404 109.301C221.541 109.027 221.736 108.92 221.99 108.979C222.479 109.037 222.859 109.057 223.133 109.037C223.523 108.998 223.719 108.852 223.719 108.598V92.9824ZM246.996 92.4551V101.186H251.273C252.386 101.186 253.246 100.912 253.851 100.365C254.671 99.623 255.082 98.3633 255.082 96.5859C255.082 95.0234 254.671 93.9004 253.851 93.2168C253.226 92.709 252.367 92.4551 251.273 92.4551H246.996ZM244.3 92.9531C244.3 92.6992 244.173 92.543 243.92 92.4844C243.763 92.4453 243.431 92.4258 242.923 92.4258L242.455 92.4551C242.162 92.4941 241.937 92.3672 241.781 92.0742C241.644 91.8398 241.576 91.5273 241.576 91.1367C241.576 90.7656 241.644 90.4629 241.781 90.2285C241.937 89.9551 242.162 89.8574 242.455 89.9355C243.509 90.0137 244.564 90.0527 245.619 90.0527C246.341 90.0527 247.689 90.0234 249.662 89.9648L251.625 89.9355C253.656 89.9355 255.218 90.5215 256.312 91.6934C257.367 92.8457 257.894 94.4766 257.894 96.5859C257.894 98.9492 257.367 100.727 256.312 101.918C255.257 103.109 253.695 103.705 251.625 103.705H246.996V108.422C246.996 108.754 247.269 108.959 247.816 109.037C248.129 109.076 248.744 109.066 249.662 109.008L250.189 108.979C250.58 108.92 250.892 109.027 251.127 109.301C251.322 109.555 251.42 109.867 251.42 110.238C251.42 110.609 251.322 110.912 251.127 111.146C250.892 111.42 250.58 111.537 250.189 111.498C248.783 111.439 247.474 111.41 246.263 111.41C245.072 111.41 243.802 111.439 242.455 111.498C242.162 111.537 241.937 111.42 241.781 111.146C241.644 110.893 241.576 110.57 241.576 110.18C241.576 109.809 241.644 109.506 241.781 109.271C241.937 108.998 242.162 108.9 242.455 108.979L242.923 109.008C243.431 109.066 243.763 109.066 243.92 109.008C244.173 108.949 244.3 108.754 244.3 108.422V92.9531ZM276.249 101.625C275.312 101.742 274.472 101.898 273.73 102.094C273.3 102.211 272.812 102.367 272.265 102.562C271.64 102.777 271.161 102.865 270.829 102.826C270.4 102.768 269.638 102.465 268.544 101.918C267.568 101.312 267.128 100.795 267.226 100.365C267.323 99.9746 267.821 99.8086 268.72 99.8672C270.517 99.9062 272.245 99.877 273.905 99.7793C275.663 99.6816 277.275 99.5059 278.739 99.252C278.7 98.5488 278.642 97.8164 278.564 97.0547C278.446 96.0781 278.32 95.4043 278.183 95.0332C277.519 93.8223 277.382 93.0312 277.773 92.6602C278.163 92.2891 278.993 92.5039 280.263 93.3047C280.907 93.7734 281.288 94.1641 281.405 94.4766C281.484 94.6914 281.435 95.0527 281.259 95.5605L281.171 95.9707C281.191 96.5176 281.112 96.9668 280.937 97.3184C280.839 97.5332 280.663 97.7773 280.409 98.0508C280.234 98.2461 280.116 98.3926 280.058 98.4902C279.941 98.666 279.872 98.8711 279.853 99.1055L280.468 98.959C281.152 98.8027 281.64 98.7637 281.933 98.8418C282.382 98.9785 282.695 99.418 282.87 100.16C282.987 100.805 282.792 101.215 282.284 101.391C281.952 101.488 281.191 101.527 279.999 101.508C279.296 101.488 278.739 101.479 278.329 101.479C277.626 101.498 276.972 101.547 276.366 101.625H276.249ZM275.956 92.5137C275.175 92.5918 274.452 92.6895 273.788 92.8066C273.417 92.8848 272.978 92.9922 272.47 93.1289C271.786 93.3047 271.288 93.3633 270.976 93.3047C270.605 93.2266 269.97 92.9434 269.071 92.4551C268.056 91.791 267.548 91.2539 267.548 90.8438C267.548 90.4727 267.958 90.3066 268.779 90.3457C272.001 90.541 274.404 90.5508 275.986 90.375C276.923 90.2578 277.773 90.0234 278.534 89.6719C278.847 89.5352 279.101 89.4375 279.296 89.3789C279.609 89.2812 279.98 89.2227 280.409 89.2031C281.386 89.2422 282.099 89.5449 282.548 90.1113C282.997 90.7363 282.861 91.3418 282.138 91.9277C281.864 92.1426 281.611 92.2695 281.376 92.3086C281.22 92.3477 280.878 92.3574 280.351 92.3379C279.765 92.3184 279.247 92.3184 278.798 92.3379C277.997 92.3379 277.109 92.3867 276.132 92.4844L275.956 92.5137ZM270.331 95.9414C269.882 95.2578 269.755 94.7402 269.95 94.3887C270.204 93.9395 270.937 93.9199 272.148 94.3301C272.812 94.584 273.241 94.8184 273.437 95.0332C273.554 95.1895 273.622 95.4434 273.642 95.7949L273.7 96.3809C273.857 96.8887 273.905 97.2891 273.847 97.582C273.808 97.7578 273.681 98.0117 273.466 98.3438L273.173 98.8418C272.919 99.3301 272.724 99.5645 272.587 99.5449C272.489 99.5254 272.343 99.3105 272.148 98.9004C272.011 98.6074 271.845 98.3145 271.65 98.0215C271.552 97.8652 271.386 97.6211 271.152 97.2891C270.976 97.0352 270.839 96.8398 270.741 96.7031C270.605 96.4883 270.497 96.293 270.419 96.1172L270.331 95.9414ZM278.505 109.447C275.614 109.604 273.144 109.867 271.093 110.238C269.941 110.453 268.749 110.746 267.519 111.117C266.542 111.391 265.839 111.488 265.409 111.41C264.921 111.312 263.984 110.863 262.597 110.062C261.952 109.691 261.484 109.34 261.191 109.008C260.956 108.715 260.859 108.461 260.898 108.246C260.937 108.051 261.073 107.904 261.308 107.807C261.542 107.729 261.786 107.719 262.04 107.777C263.466 107.992 265.907 108.041 269.364 107.924C271.982 107.826 274.814 107.66 277.861 107.426C278.896 107.328 279.794 107.182 280.556 106.986C281.005 106.869 281.513 106.703 282.079 106.488C282.665 106.273 283.134 106.166 283.486 106.166C283.974 106.186 284.736 106.41 285.771 106.84C286.279 107.074 286.65 107.377 286.884 107.748C287.079 108.08 287.148 108.422 287.089 108.773C287.05 109.086 286.923 109.359 286.708 109.594C286.493 109.828 286.279 109.945 286.064 109.945C285.693 109.945 285.341 109.916 285.009 109.857C284.814 109.838 284.511 109.789 284.101 109.711C283.378 109.555 282.724 109.457 282.138 109.418C281.161 109.34 279.95 109.35 278.505 109.447ZM292.554 93.041C292.573 92.7676 292.485 92.5918 292.29 92.5137C292.173 92.4746 291.85 92.4551 291.323 92.4551L290.796 92.4844C290.542 92.5039 290.337 92.377 290.18 92.1035C290.063 91.8496 290.005 91.5469 290.005 91.1953C290.005 90.8438 290.063 90.5508 290.18 90.3164C290.337 90.043 290.542 89.9258 290.796 89.9648C291.733 90.043 292.524 90.082 293.169 90.082C293.794 90.082 294.419 90.0527 295.044 89.9941C295.571 89.877 295.923 89.8867 296.098 90.0234C296.235 90.1016 296.372 90.3555 296.509 90.7852L296.596 90.9902L300.171 101.42C300.288 101.771 300.405 101.947 300.522 101.947C300.639 101.947 300.757 101.771 300.874 101.42L304.389 91.2832L304.448 91.1074C304.643 90.6582 304.809 90.3652 304.946 90.2285C305.22 89.9941 305.61 89.916 306.118 89.9941C306.762 90.0527 307.387 90.082 307.993 90.082C308.598 90.082 309.35 90.0527 310.249 89.9941C310.522 89.9355 310.737 90.0527 310.893 90.3457C311.05 90.5996 311.128 90.9121 311.128 91.2832C311.128 91.6738 311.05 91.9863 310.893 92.2207C310.737 92.4746 310.522 92.5723 310.249 92.5137C309.585 92.4551 309.145 92.4453 308.93 92.4844C308.657 92.543 308.52 92.709 308.52 92.9824V108.393C308.52 108.764 308.647 108.988 308.901 109.066C309.096 109.105 309.516 109.086 310.161 109.008H310.249C310.522 108.93 310.737 109.018 310.893 109.271C311.05 109.506 311.128 109.809 311.128 110.18C311.128 110.531 311.05 110.834 310.893 111.088C310.737 111.381 310.522 111.518 310.249 111.498C309.175 111.439 308.13 111.41 307.114 111.41C306.079 111.41 305.132 111.439 304.272 111.498C303.979 111.518 303.755 111.391 303.598 111.117C303.462 110.863 303.393 110.561 303.393 110.209C303.393 109.838 303.462 109.535 303.598 109.301C303.755 109.047 303.979 108.949 304.272 109.008C304.8 109.086 305.161 109.105 305.356 109.066C305.669 108.988 305.825 108.764 305.825 108.393V95.2383L303.218 102.592L301.899 106.635C301.645 107.396 301.177 107.777 300.493 107.777C299.829 107.777 299.38 107.396 299.145 106.635L297.71 102.533L295.249 95.2383V108.393C295.249 108.686 295.376 108.881 295.63 108.979C295.884 109.076 296.274 109.086 296.802 109.008C297.075 108.949 297.3 109.057 297.475 109.33C297.632 109.564 297.71 109.867 297.71 110.238C297.71 110.609 297.632 110.912 297.475 111.146C297.3 111.42 297.075 111.537 296.802 111.498C296.137 111.4 295.249 111.352 294.136 111.352C293.179 111.352 292.065 111.391 290.796 111.469C290.542 111.508 290.337 111.4 290.18 111.146C290.063 110.912 290.005 110.609 290.005 110.238C290.005 109.867 290.063 109.564 290.18 109.33C290.337 109.057 290.542 108.939 290.796 108.979C291.382 109.057 291.811 109.057 292.085 108.979C292.397 108.881 292.554 108.686 292.554 108.393V93.041ZM320.421 92.3672C320.421 91.8398 320.128 91.2441 319.542 90.5801C319.112 90.1113 318.487 89.5547 317.667 88.9102C317.491 88.7344 317.52 88.5586 317.755 88.3828C317.97 88.207 318.311 88.1094 318.78 88.0898C319.346 88.0898 319.942 88.207 320.567 88.4414C321.348 88.7344 322.13 89.1934 322.911 89.8184C323.302 90.1309 323.536 90.4238 323.614 90.6973C323.653 90.873 323.643 91.1562 323.585 91.5469L323.497 92.2793V102.387C323.497 104.516 323.302 106.479 322.911 108.275C322.696 109.291 322.374 110.395 321.944 111.586L321.856 111.938C321.446 113.07 321.192 113.48 321.095 113.168C321.016 112.914 321.055 112.426 321.212 111.703C321.251 111.371 321.261 111.02 321.241 110.648C321.221 110.414 321.163 110.014 321.065 109.447C320.909 108.49 320.802 107.65 320.743 106.928C320.626 105.658 320.567 104.242 320.567 102.68L320.421 92.3672ZM343.346 110.004C343.346 110.59 343.112 111.068 342.643 111.439C342.213 111.811 341.705 111.996 341.12 111.996C340.495 111.996 339.967 111.811 339.537 111.439C339.088 111.068 338.864 110.59 338.864 110.004C338.864 109.418 339.088 108.93 339.537 108.539C339.967 108.188 340.495 108.012 341.12 108.012C341.686 108.012 342.194 108.188 342.643 108.539C343.112 108.93 343.346 109.418 343.346 110.004ZM352.736 110.004C352.736 110.59 352.502 111.068 352.033 111.439C351.604 111.811 351.096 111.996 350.51 111.996C349.885 111.996 349.357 111.811 348.928 111.439C348.479 111.068 348.254 110.59 348.254 110.004C348.254 109.418 348.479 108.93 348.928 108.539C349.357 108.188 349.885 108.012 350.51 108.012C351.076 108.012 351.584 108.188 352.033 108.539C352.502 108.93 352.736 109.418 352.736 110.004ZM362.127 110.004C362.127 110.59 361.892 111.068 361.423 111.439C360.994 111.811 360.486 111.996 359.9 111.996C359.275 111.996 358.748 111.811 358.318 111.439C357.869 111.068 357.644 110.59 357.644 110.004C357.644 109.418 357.869 108.93 358.318 108.539C358.748 108.188 359.275 108.012 359.9 108.012C360.466 108.012 360.974 108.188 361.423 108.539C361.892 108.93 362.127 109.418 362.127 110.004ZM374.421 94.0987L380.091 91.7287L374.421 89.0587V87.8887L381.501 91.3987V92.1487L374.421 95.2687V94.0987ZM389.305 121.099C388.005 121.099 386.885 120.869 385.945 120.409C385.025 119.969 384.315 119.329 383.815 118.489C383.335 117.649 383.095 116.649 383.095 115.489C383.095 114.069 383.455 112.819 384.175 111.739C384.915 110.659 385.895 109.759 387.115 109.039C388.295 108.339 389.655 107.819 391.195 107.479C392.735 107.119 394.335 106.939 395.995 106.939C397.595 106.939 399.045 107.079 400.345 107.359C401.665 107.619 402.825 107.989 403.825 108.469C404.965 109.009 405.915 109.659 406.675 110.419C407.435 111.159 407.995 111.959 408.355 112.819C408.735 113.699 408.925 114.589 408.925 115.489C408.925 117.229 408.375 118.599 407.275 119.599C406.195 120.599 404.625 121.099 402.565 121.099C401.165 121.099 399.795 120.899 398.455 120.499C397.135 120.119 395.855 119.539 394.615 118.759C393.575 118.259 392.565 117.579 391.585 116.719C390.605 115.859 389.695 114.889 388.855 113.809C388.035 112.749 387.335 111.669 386.755 110.569C385.835 108.909 385.125 107.239 384.625 105.559C384.145 103.859 383.905 102.039 383.905 100.099C383.905 98.3587 384.195 96.6587 384.775 94.9987C385.375 93.3387 386.275 91.8487 387.475 90.5287C388.695 89.2087 390.225 88.1587 392.065 87.3787C393.925 86.5787 396.115 86.1787 398.635 86.1787C401.095 86.1787 403.205 86.5187 404.965 87.1987C406.745 87.8787 408.215 88.8987 409.375 90.2587C410.135 91.1587 410.765 92.1587 411.265 93.2587C411.765 94.3587 412.135 95.6087 412.375 97.0087C412.635 98.3887 412.765 99.9887 412.765 101.809V111.469H410.185V103.309C410.185 101.389 410.075 99.6787 409.855 98.1787C409.635 96.6787 409.285 95.3687 408.805 94.2487C408.325 93.1087 407.695 92.1387 406.915 91.3387C405.975 90.3587 404.835 89.6287 403.495 89.1487C402.155 88.6687 400.535 88.4287 398.635 88.4287C396.955 88.4287 395.375 88.6887 393.895 89.2087C392.435 89.7087 391.145 90.4587 390.025 91.4587C388.925 92.4587 388.055 93.6887 387.415 95.1487C386.795 96.6087 386.485 98.2987 386.485 100.219C386.485 101.459 386.575 102.599 386.755 103.639C386.935 104.659 387.205 105.639 387.565 106.579C387.925 107.519 388.355 108.479 388.855 109.459C389.315 110.439 389.935 111.439 390.715 112.459C391.495 113.479 392.405 114.439 393.445 115.339C394.485 116.239 395.605 117.009 396.805 117.649C397.665 118.129 398.535 118.459 399.415 118.639C400.315 118.839 401.275 118.939 402.295 118.939C403.775 118.939 404.815 118.599 405.415 117.919C406.035 117.259 406.345 116.399 406.345 115.339C406.345 114.319 406.035 113.389 405.415 112.549C404.795 111.709 403.995 111.039 403.015 110.539C402.055 110.039 400.965 109.679 399.745 109.459C398.545 109.219 397.315 109.099 396.055 109.099C394.295 109.099 392.755 109.279 391.435 109.639C390.135 109.979 389.065 110.429 388.225 110.989C387.345 111.569 386.695 112.229 386.275 112.969C385.855 113.729 385.645 114.509 385.645 115.309C385.645 116.409 385.955 117.289 386.575 117.949C387.215 118.609 388.245 118.939 389.665 118.939C390.545 118.939 391.385 118.869 392.185 118.729C392.985 118.609 393.775 118.329 394.555 117.889C395.795 117.329 396.935 116.569 397.975 115.609C399.015 114.649 399.905 113.589 400.645 112.429C401.405 111.269 401.945 110.119 402.265 108.979C402.545 108.159 402.745 107.339 402.865 106.519C403.005 105.679 403.075 104.829 403.075 103.969C403.075 102.529 402.875 101.319 402.475 100.339C402.095 99.3387 401.595 98.5487 400.975 97.9687C400.355 97.3887 399.705 96.9887 399.025 96.7687L397.525 96.6187C397.385 96.5987 397.215 96.5887 397.015 96.5887C396.835 96.5687 396.655 96.5587 396.475 96.5587C395.755 96.5587 395.105 96.6687 394.525 96.8887C393.965 97.0887 393.515 97.4087 393.175 97.8487C392.835 98.2887 392.665 98.8387 392.665 99.4987C392.665 100.239 392.885 100.859 393.325 101.359C393.785 101.859 394.425 102.109 395.245 102.109C395.985 102.109 396.585 101.879 397.045 101.419C397.505 100.939 397.735 100.269 397.735 99.4087C397.735 98.7687 397.615 98.1787 397.375 97.6387C397.135 97.0987 396.755 96.5587 396.235 96.0187L398.635 96.1687C398.915 96.4487 399.155 96.7787 399.355 97.1587C399.575 97.5187 399.745 97.9187 399.865 98.3587C400.005 98.7787 400.075 99.2287 400.075 99.7087C400.075 100.569 399.885 101.339 399.505 102.019C399.125 102.679 398.575 103.199 397.855 103.579C397.135 103.959 396.245 104.149 395.185 104.149C394.285 104.149 393.465 103.959 392.725 103.579C391.985 103.199 391.395 102.659 390.955 101.959C390.515 101.259 390.295 100.449 390.295 99.5287C390.295 98.3887 390.585 97.4487 391.165 96.7087C391.765 95.9487 392.575 95.3887 393.595 95.0287C394.615 94.6687 395.755 94.4887 397.015 94.4887C398.935 94.4887 400.535 94.8787 401.815 95.6587C403.095 96.4387 404.055 97.5287 404.695 98.9287C405.355 100.329 405.685 101.969 405.685 103.849C405.685 104.729 405.595 105.759 405.415 106.939C405.235 108.119 404.895 109.279 404.395 110.419C403.955 111.639 403.375 112.779 402.655 113.839C401.955 114.899 401.145 115.859 400.225 116.719C399.305 117.579 398.305 118.319 397.225 118.939C395.945 119.619 394.645 120.149 393.325 120.529C392.005 120.909 390.665 121.099 389.305 121.099ZM415.405 118.669L420.205 109.039H421.405L426.175 118.669H424.375L420.835 111.349L417.205 118.669H415.405ZM433.867 121.099C432.567 121.099 431.447 120.869 430.507 120.409C429.587 119.969 428.877 119.329 428.377 118.489C427.897 117.649 427.657 116.649 427.657 115.489C427.657 114.069 428.017 112.819 428.737 111.739C429.477 110.659 430.457 109.759 431.677 109.039C432.857 108.339 434.217 107.819 435.757 107.479C437.297 107.119 438.897 106.939 440.557 106.939C442.157 106.939 443.607 107.079 444.907 107.359C446.227 107.619 447.387 107.989 448.387 108.469C449.527 109.009 450.477 109.659 451.237 110.419C451.997 111.159 452.557 111.959 452.917 112.819C453.297 113.699 453.487 114.589 453.487 115.489C453.487 117.229 452.937 118.599 451.837 119.599C450.757 120.599 449.187 121.099 447.127 121.099C445.727 121.099 444.357 120.899 443.017 120.499C441.697 120.119 440.417 119.539 439.177 118.759C438.137 118.259 437.127 117.579 436.147 116.719C435.167 115.859 434.257 114.889 433.417 113.809C432.597 112.749 431.897 111.669 431.317 110.569C430.397 108.909 429.687 107.239 429.187 105.559C428.707 103.859 428.467 102.039 428.467 100.099C428.467 98.3587 428.757 96.6587 429.337 94.9987C429.937 93.3387 430.837 91.8487 432.037 90.5287C433.257 89.2087 434.787 88.1587 436.627 87.3787C438.487 86.5787 440.677 86.1787 443.197 86.1787C445.657 86.1787 447.767 86.5187 449.527 87.1987C451.307 87.8787 452.777 88.8987 453.937 90.2587C454.697 91.1587 455.327 92.1587 455.827 93.2587C456.327 94.3587 456.697 95.6087 456.937 97.0087C457.197 98.3887 457.327 99.9887 457.327 101.809V111.469H454.747V103.309C454.747 101.389 454.637 99.6787 454.417 98.1787C454.197 96.6787 453.847 95.3687 453.367 94.2487C452.887 93.1087 452.257 92.1387 451.477 91.3387C450.537 90.3587 449.397 89.6287 448.057 89.1487C446.717 88.6687 445.097 88.4287 443.197 88.4287C441.517 88.4287 439.937 88.6887 438.457 89.2087C436.997 89.7087 435.707 90.4587 434.587 91.4587C433.487 92.4587 432.617 93.6887 431.977 95.1487C431.357 96.6087 431.047 98.2987 431.047 100.219C431.047 101.459 431.137 102.599 431.317 103.639C431.497 104.659 431.767 105.639 432.127 106.579C432.487 107.519 432.917 108.479 433.417 109.459C433.877 110.439 434.497 111.439 435.277 112.459C436.057 113.479 436.967 114.439 438.007 115.339C439.047 116.239 440.167 117.009 441.367 117.649C442.227 118.129 443.097 118.459 443.977 118.639C444.877 118.839 445.837 118.939 446.857 118.939C448.337 118.939 449.377 118.599 449.977 117.919C450.597 117.259 450.907 116.399 450.907 115.339C450.907 114.319 450.597 113.389 449.977 112.549C449.357 111.709 448.557 111.039 447.577 110.539C446.617 110.039 445.527 109.679 444.307 109.459C443.107 109.219 441.877 109.099 440.617 109.099C438.857 109.099 437.317 109.279 435.997 109.639C434.697 109.979 433.627 110.429 432.787 110.989C431.907 111.569 431.257 112.229 430.837 112.969C430.417 113.729 430.207 114.509 430.207 115.309C430.207 116.409 430.517 117.289 431.137 117.949C431.777 118.609 432.807 118.939 434.227 118.939C435.107 118.939 435.947 118.869 436.747 118.729C437.547 118.609 438.337 118.329 439.117 117.889C440.357 117.329 441.497 116.569 442.537 115.609C443.577 114.649 444.467 113.589 445.207 112.429C445.967 111.269 446.507 110.119 446.827 108.979C447.107 108.159 447.307 107.339 447.427 106.519C447.567 105.679 447.637 104.829 447.637 103.969C447.637 102.529 447.437 101.319 447.037 100.339C446.657 99.3387 446.157 98.5487 445.537 97.9687C444.917 97.3887 444.267 96.9887 443.587 96.7687L442.087 96.6187C441.947 96.5987 441.777 96.5887 441.577 96.5887C441.397 96.5687 441.217 96.5587 441.037 96.5587C440.317 96.5587 439.667 96.6687 439.087 96.8887C438.527 97.0887 438.077 97.4087 437.737 97.8487C437.397 98.2887 437.227 98.8387 437.227 99.4987C437.227 100.239 437.447 100.859 437.887 101.359C438.347 101.859 438.987 102.109 439.807 102.109C440.547 102.109 441.147 101.879 441.607 101.419C442.067 100.939 442.297 100.269 442.297 99.4087C442.297 98.7687 442.177 98.1787 441.937 97.6387C441.697 97.0987 441.317 96.5587 440.797 96.0187L443.197 96.1687C443.477 96.4487 443.717 96.7787 443.917 97.1587C444.137 97.5187 444.307 97.9187 444.427 98.3587C444.567 98.7787 444.637 99.2287 444.637 99.7087C444.637 100.569 444.447 101.339 444.067 102.019C443.687 102.679 443.137 103.199 442.417 103.579C441.697 103.959 440.807 104.149 439.747 104.149C438.847 104.149 438.027 103.959 437.287 103.579C436.547 103.199 435.957 102.659 435.517 101.959C435.077 101.259 434.857 100.449 434.857 99.5287C434.857 98.3887 435.147 97.4487 435.727 96.7087C436.327 95.9487 437.137 95.3887 438.157 95.0287C439.177 94.6687 440.317 94.4887 441.577 94.4887C443.497 94.4887 445.097 94.8787 446.377 95.6587C447.657 96.4387 448.617 97.5287 449.257 98.9287C449.917 100.329 450.247 101.969 450.247 103.849C450.247 104.729 450.157 105.759 449.977 106.939C449.797 108.119 449.457 109.279 448.957 110.419C448.517 111.639 447.937 112.779 447.217 113.839C446.517 114.899 445.707 115.859 444.787 116.719C443.867 117.579 442.867 118.319 441.787 118.939C440.507 119.619 439.207 120.149 437.887 120.529C436.567 120.909 435.227 121.099 433.867 121.099ZM461.406 89.6587C461.406 90.8887 462.096 91.9087 463.056 91.9087C463.956 91.9087 464.706 90.8887 464.706 89.6587C464.706 88.4287 463.956 87.4087 463.056 87.4087C462.096 87.4087 461.406 88.4287 461.406 89.6587ZM460.176 89.6587C460.176 87.6187 461.436 85.9687 463.056 85.9687C464.646 85.9687 465.906 87.6187 465.906 89.6587C465.906 91.6987 464.646 93.3487 463.056 93.3487C461.436 93.3487 460.176 91.6987 460.176 89.6587Z" fill="#363635"/>
</g>
<defs>
<linearGradient id="paint0_linear_4058_27494" x1="358" y1="158.071" x2="358" y2="1.88435e-05" gradientUnits="userSpaceOnUse">
<stop stop-color="#8C9497"/>
<stop offset="1" stop-color="#5E6365"/>
</linearGradient>
<linearGradient id="paint1_linear_4058_27494" x1="356.96" y1="75.1328" x2="348.051" y2="312.323" gradientUnits="userSpaceOnUse">
<stop stop-color="#4E585E"/>
<stop offset="1" stop-color="#699FBD"/>
</linearGradient>
<linearGradient id="paint2_linear_4058_27494" x1="360.249" y1="264.914" x2="366.969" y2="118.224" gradientUnits="userSpaceOnUse">
<stop stop-color="#BFE0F7"/>
<stop offset="1" stop-color="#84A7BB"/>
</linearGradient>
<clipPath id="clip0_4058_27494">
<rect width="716" height="370" fill="white" transform="translate(0.0898438)"/>
</clipPath>
</defs>
</svg>
