<svg width="335" height="292" viewBox="0 0 335 292" fill="none" xmlns="http://www.w3.org/2000/svg">
<path d="M304.414 100.082C305.821 99.5508 307.391 100.261 307.922 101.667L317.934 128.2C318.465 129.606 317.755 131.176 316.348 131.707L291.882 140.939C289.878 141.696 287.826 139.948 288.254 137.849L289.282 132.806C289.402 132.222 289.326 131.615 289.066 131.078L286.012 124.756C285.602 123.908 284.783 123.332 283.847 123.233L281.325 122.968C280.292 122.859 279.412 122.172 279.055 121.198L276.264 113.586C275.75 112.184 276.461 110.63 277.858 110.103L304.414 100.082Z" fill="#2AD4AF"/>
<path d="M285.002 92.6245C283.378 91.3459 281.025 91.6258 279.747 93.2497L262.187 115.551C260.917 117.164 261.184 119.499 262.785 120.784L269.107 125.859C270.22 126.753 271.745 126.935 273.037 126.33L275.2 125.317C275.778 125.047 276.458 125.122 276.963 125.512L282.63 129.897C282.863 130.077 283.045 130.314 283.158 130.585L285.15 135.34C286.253 137.972 289.777 138.451 291.543 136.209L307.908 115.424C309.187 113.8 308.907 111.447 307.283 110.168L285.002 92.6245Z" fill="#2AD4AF" stroke="#7FE6CF" stroke-width="2.04136"/>
<path d="M279.953 122.155C279.427 121.741 279.36 121.303 279.764 120.825L281.228 119.314C281.582 118.934 281.946 118.891 282.352 119.211L284.081 120.573C284.488 120.893 284.525 121.334 284.172 121.852L283.12 123.468C282.706 123.993 282.214 123.99 281.648 123.489L279.953 122.155ZM294.847 115.375C293.806 116.697 292.328 117.318 290.457 117.218C288.573 117.135 287.526 117.244 287.286 117.549L285.991 119.193C285.578 119.719 285.127 119.803 284.652 119.429L283.211 118.295C282.771 117.948 282.724 117.554 283.054 117.1L284.695 115.015C285.189 114.388 286.387 114.123 288.308 114.263C290.23 114.403 291.511 114.066 292.152 113.252C293.727 111.252 293.751 109.652 292.26 108.477C290.768 107.303 289.475 107.41 288.381 108.8C288.007 109.275 287.6 109.339 287.176 109.005L285.871 107.977C285.464 107.657 285.451 107.29 285.811 106.832C288.304 103.632 291.114 103.236 294.199 105.665C297.538 108.295 297.769 111.524 294.847 115.375Z" fill="#7FE6CF"/>
<path d="M117.897 56.7156C102.979 41.7259 110.034 30.3462 116.75 24.9591C84.9871 28.5692 86.7146 59.2619 91.5487 74.157L117.897 56.7156Z" fill="#98887F"/>
<path d="M171.674 48.4035C184.456 31.3599 175.824 20.9961 168.369 16.5628C200.562 15.7142 203.138 46.575 200.403 62.1114L171.674 48.4035Z" fill="#98887F"/>
<path fill-rule="evenodd" clip-rule="evenodd" d="M158.71 275.446C222.166 275.446 273.607 245.389 273.607 173.358C273.607 169.225 273.438 165.137 273.106 161.102L295.416 126.421C297.165 123.702 295.019 120.163 291.801 120.455L264.699 122.917C247.324 75.9324 206.412 42.9341 158.71 42.9341C103.049 42.9341 56.632 87.8617 46.068 147.513L19.1623 170.782C14.6535 174.681 17.6943 182.076 23.6419 181.676L43.9767 180.307C47.198 247.328 97.3338 275.446 158.71 275.446Z" fill="#70F5D9"/>
<path d="M252.929 211.225C252.929 241.023 211.399 264.792 168.309 264.792C125.219 264.792 79.8066 254.221 79.8066 224.423C79.8066 194.624 133.37 151.059 176.46 151.059C219.55 151.059 252.929 181.426 252.929 211.225Z" fill="#B2FCEC"/>
<rect x="174.008" y="77.8013" width="12.6396" height="12.1915" rx="2.71865" transform="rotate(-9.38793 174.008 77.8013)" stroke="#98887F" stroke-width="4.34985"/>
<rect x="170.529" y="70.0889" width="4.34613" height="13.452" rx="1.08746" transform="rotate(-9.38793 170.529 70.0889)" fill="#98887F"/>
<rect x="183.004" y="68.0312" width="4.34613" height="13.452" rx="1.08746" transform="rotate(-9.38793 183.004 68.0312)" fill="#98887F"/>
<rect x="124.395" y="86.9512" width="13.1696" height="12.7026" rx="2.83264" transform="rotate(-12.9891 124.395 86.9512)" stroke="#98887F" stroke-width="4.53223"/>
<path d="M155.212 112.515C153.887 112.174 151.938 110.139 150.315 108.104C149.507 107.09 150.698 105.616 151.982 105.799C160.808 107.061 169.973 100.039 173.122 102.384C175.388 104.413 166.051 115.303 155.212 112.515Z" fill="#EF8E8E"/>
<mask id="path-13-outside-1_1930_7918" maskUnits="userSpaceOnUse" x="-0.00195312" y="-0.453613" width="335" height="293" fill="black">
<rect fill="white" x="-0.00195312" y="-0.453613" width="335" height="293"/>
<path fill-rule="evenodd" clip-rule="evenodd" d="M174.509 44.1571C182.981 29.6229 175.182 20.6158 168.369 16.5635C194.572 15.8728 201.154 36.1903 201.221 52.1524C228.146 64.3314 250.058 87.736 262.471 117.273C262.556 116.887 262.728 116.513 262.989 116.182L280.548 93.8812C281.478 92.7001 283.19 92.4966 284.371 93.4265L296.575 103.036L304.414 100.078C305.821 99.5469 307.391 100.257 307.922 101.663L317.934 128.196C318.464 129.602 317.754 131.172 316.348 131.703L291.882 140.935C289.878 141.692 287.826 139.944 288.254 137.845L288.341 137.42L273.106 161.102C273.437 165.137 273.607 169.225 273.607 173.358C273.607 245.389 222.166 275.446 158.71 275.446C97.3338 275.446 47.198 247.328 43.9767 180.307L23.6419 181.676C17.6943 182.076 14.6535 174.681 19.1623 170.782L46.068 147.513C51.7513 115.421 67.8116 87.5908 90.1056 68.7252C86.7395 52.8371 88.4822 28.1746 116.75 24.9617C110.612 29.8852 104.19 39.8141 114.519 52.9296C128.122 46.4901 143.05 42.9341 158.71 42.9341C164.07 42.9341 169.344 43.3508 174.509 44.1571ZM266.831 122.723L263.65 120.17C264.008 121.08 264.358 121.996 264.698 122.917L266.831 122.723Z"/>
</mask>
<path d="M168.369 16.5635L167.933 0.0163593C160.564 0.210598 154.211 5.25398 152.351 12.3867C150.491 19.5195 153.572 27.0227 159.908 30.7906L168.369 16.5635ZM174.509 44.1571L171.956 60.5119C178.689 61.5631 185.379 58.3803 188.81 52.4926L174.509 44.1571ZM201.221 52.1524L184.668 52.2218C184.695 58.6987 188.498 64.5648 194.399 67.2342L201.221 52.1524ZM262.471 117.273L247.21 123.686C250.002 130.33 256.772 134.404 263.95 133.76C271.128 133.116 277.064 127.901 278.629 120.867L262.471 117.273ZM262.989 116.182L249.984 105.942L249.984 105.942L262.989 116.182ZM280.548 93.8812L267.543 83.641L267.543 83.641L280.548 93.8812ZM284.371 93.4265L294.611 80.4211V80.4211L284.371 93.4265ZM296.575 103.036L286.335 116.041C290.891 119.629 296.993 120.57 302.419 118.523L296.575 103.036ZM304.414 100.078L310.258 115.565L310.258 115.565L304.414 100.078ZM307.922 101.663L292.435 107.507L292.435 107.507L307.922 101.663ZM317.934 128.196L302.447 134.04L302.447 134.04L317.934 128.196ZM316.348 131.703L310.504 116.216L316.348 131.703ZM291.882 140.935L286.038 125.448V125.448L291.882 140.935ZM288.254 137.845L272.035 134.539L272.035 134.539L288.254 137.845ZM288.341 137.42L304.56 140.726C306.151 132.921 301.957 125.089 294.578 122.087C287.2 119.085 278.729 121.765 274.42 128.464L288.341 137.42ZM273.106 161.102L259.185 152.147C257.216 155.207 256.311 158.83 256.609 162.457L273.106 161.102ZM43.9767 180.307L60.5105 179.513C60.2971 175.073 58.3069 170.905 54.988 167.948C51.6691 164.991 47.3004 163.493 42.8653 163.792L43.9767 180.307ZM23.6419 181.676L22.5306 165.16H22.5306L23.6419 181.676ZM19.1623 170.782L8.33445 158.261L8.33443 158.261L19.1623 170.782ZM46.068 147.513L56.8958 160.033C59.7721 157.546 61.7041 154.144 62.3673 150.399L46.068 147.513ZM90.1056 68.7252L100.798 81.3611C105.449 77.4258 107.562 71.2542 106.299 65.2944L90.1056 68.7252ZM116.75 24.9617L127.107 37.8738C132.857 33.2614 134.864 25.4027 132.031 18.5979C129.197 11.7932 122.205 7.68226 114.88 8.51472L116.75 24.9617ZM114.519 52.9296L101.514 63.1707C106.29 69.2353 114.624 71.1936 121.601 67.8909L114.519 52.9296ZM263.65 120.17L274.011 107.261C268.158 102.563 259.876 102.39 253.833 106.842C247.79 111.293 245.498 119.253 248.249 126.237L263.65 120.17ZM266.831 122.723L268.328 139.208C275.051 138.598 280.729 133.966 282.679 127.503C284.628 121.039 282.457 114.04 277.193 109.815L266.831 122.723ZM264.698 122.917L249.173 128.658C251.768 135.674 258.746 140.079 266.196 139.402L264.698 122.917ZM159.908 30.7906C160.531 31.1614 161.042 31.5716 161.384 31.9323C161.712 32.2776 161.74 32.4212 161.702 32.3208C161.633 32.1402 161.677 32.0598 161.647 32.3141C161.607 32.6409 161.397 33.7824 160.208 35.8216L188.81 52.4926C195.087 41.7235 196.475 30.6089 192.64 20.5384C189.113 11.2784 182.14 5.4943 176.83 2.33649L159.908 30.7906ZM217.774 52.083C217.733 42.3393 215.774 29.4191 208.122 18.572C199.732 6.67673 186.08 -0.462002 167.933 0.0163593L168.805 33.1107C176.861 32.8984 179.601 35.573 181.069 37.6543C183.277 40.7839 184.642 46.0035 184.668 52.2218L217.774 52.083ZM277.731 110.86C263.867 77.869 239.148 51.1406 208.043 37.0706L194.399 67.2342C217.143 77.5222 236.249 97.603 247.21 123.686L277.731 110.86ZM249.984 105.942C248.154 108.266 246.926 110.921 246.312 113.679L278.629 120.867C278.187 122.852 277.302 124.761 275.995 126.422L249.984 105.942ZM267.543 83.641L249.984 105.942L275.994 126.422L293.554 104.121L267.543 83.641ZM294.611 80.4211C286.247 73.8358 274.128 75.2773 267.543 83.641L293.554 104.121C288.828 110.123 280.132 111.157 274.131 106.432L294.611 80.4211ZM306.815 90.0305L294.611 80.4211L274.13 106.432L286.335 116.041L306.815 90.0305ZM298.57 84.5907L290.731 87.5489L302.419 118.523L310.258 115.565L298.57 84.5907ZM323.409 95.8194C319.65 85.8596 308.53 80.8324 298.57 84.5907L310.258 115.565C303.111 118.262 295.131 114.654 292.435 107.507L323.409 95.8194ZM333.421 122.352L323.409 95.8192L292.435 107.507L302.447 134.04L333.421 122.352ZM322.192 147.19C332.152 143.432 337.179 132.311 333.421 122.351L302.447 134.04C299.75 126.893 303.357 118.913 310.504 116.216L322.192 147.19ZM297.726 156.422L322.192 147.19L310.504 116.216L286.038 125.448L297.726 156.422ZM272.035 134.539C269.005 149.401 283.535 161.778 297.726 156.422L286.038 125.448C296.221 121.606 306.647 130.487 304.473 141.152L272.035 134.539ZM272.121 134.113L272.035 134.539L304.473 141.152L304.56 140.726L272.121 134.113ZM287.027 170.058L302.262 146.375L274.42 128.464L259.185 152.147L287.027 170.058ZM290.16 173.358C290.16 168.773 289.972 164.233 289.604 159.748L256.609 162.457C256.903 166.041 257.054 169.677 257.054 173.358H290.16ZM158.71 291.999C192.755 291.999 225.584 283.971 250.251 264.374C275.511 244.307 290.16 213.725 290.16 173.358H257.054C257.054 205.022 245.982 225.484 229.658 238.453C212.74 251.893 188.12 258.893 158.71 258.893V291.999ZM27.4429 181.102C29.2675 219.065 44.6879 247.625 69.6238 266.267C93.9924 284.485 125.763 291.999 158.71 291.999V258.893C130.281 258.893 106.295 252.348 89.4466 239.752C73.1653 227.58 61.9072 208.57 60.5105 179.513L27.4429 181.102ZM24.7533 198.191L45.0881 196.823L42.8653 163.792L22.5306 165.16L24.7533 198.191ZM8.33443 158.261C-8.19162 172.554 2.9536 199.658 24.7533 198.191L22.5306 165.16C32.4349 164.494 37.4985 176.808 29.9902 183.302L8.33443 158.261ZM35.2401 134.993L8.33445 158.261L29.9902 183.302L56.8958 160.033L35.2401 134.993ZM79.4129 56.0894C54.0171 77.5797 36.0901 108.931 29.7687 144.626L62.3673 150.399C67.4125 121.911 81.6061 97.6019 100.798 81.3611L79.4129 56.0894ZM106.299 65.2944C104.974 59.0409 105.094 52.6773 106.854 48.4332C107.626 46.5728 108.647 45.2498 110.01 44.2446C111.395 43.2237 113.938 41.9408 118.619 41.4088L114.88 8.51472C95.0288 10.771 82.2273 21.401 76.2756 35.7474C70.9396 48.6097 71.8709 62.5215 73.9121 72.156L106.299 65.2944ZM106.392 12.0497C101.597 15.8967 95.519 22.5657 93.3218 32.1892C90.9316 42.6581 93.8419 53.4279 101.514 63.1707L127.523 42.6885C126.083 40.8595 125.728 39.7821 125.649 39.4855C125.59 39.2594 125.644 39.3525 125.597 39.5582C125.569 39.6803 125.569 39.5497 125.836 39.1757C126.115 38.7844 126.553 38.3186 127.107 37.8738L106.392 12.0497ZM158.71 26.3812C140.505 26.3812 123.166 30.5226 107.437 37.9682L121.601 67.8909C133.079 62.4577 145.595 59.487 158.71 59.487V26.3812ZM177.063 27.8023C171.058 26.8648 164.929 26.3812 158.71 26.3812V59.487C163.21 59.487 167.631 59.8367 171.956 60.5119L177.063 27.8023ZM253.288 133.078L256.469 135.632L277.193 109.815L274.011 107.261L253.288 133.078ZM280.224 117.176C279.843 116.146 279.452 115.121 279.051 114.102L248.249 126.237C248.565 127.039 248.873 127.846 249.173 128.658L280.224 117.176ZM265.333 106.238L263.201 106.432L266.196 139.402L268.328 139.208L265.333 106.238Z" fill="white" mask="url(#path-13-outside-1_1930_7918)"/>
</svg>
