<svg width="138" height="132" viewBox="0 0 138 132" fill="none" xmlns="http://www.w3.org/2000/svg">
<path d="M41.4063 23.9177C41.2646 22.4761 42.8288 21.4981 44.0107 22.2896L56.921 30.935L43.4396 44.5962L41.4063 23.9177Z" fill="#8B7A70"/>
<path d="M120 86.7763C120 118.685 97.1665 132 69 132C40.8335 132 18 118.685 18 86.7763C18 54.8673 40.8335 29 69 29C97.1665 29 120 54.8673 120 86.7763Z" fill="#BFD6F7"/>
<path fill-rule="evenodd" clip-rule="evenodd" d="M59.8584 48.0417C59.8584 47.3995 59.3378 46.8789 58.6956 46.8789C58.0534 46.8789 57.5328 47.3995 57.5328 48.0417V50.5559C57.5328 50.6805 57.5524 50.8006 57.5887 50.9132H54.0219C53.3928 50.9132 52.8828 51.4232 52.8828 52.0523C52.8828 52.6814 53.3928 53.1914 54.0219 53.1914H56.31L54.2925 58.5949C54.0799 59.1644 54.3644 59.8108 54.928 60.0386C55.4916 60.2664 56.1208 59.9894 56.3334 59.4199L58.6589 53.1914H58.8509L61.1763 59.4199C61.389 59.9894 62.0182 60.2664 62.5818 60.0386C63.1453 59.8108 63.4298 59.1644 63.2172 58.5949L61.1998 53.1914H63.5669C64.196 53.1914 64.706 52.6814 64.706 52.0523C64.706 51.4232 64.196 50.9132 63.5669 50.9132H59.8025C59.8388 50.8006 59.8584 50.6805 59.8584 50.5559V48.0417Z" fill="#8B7A70"/>
<path fill-rule="evenodd" clip-rule="evenodd" d="M88.542 47.2351C88.542 46.5929 88.0214 46.0723 87.3792 46.0723C86.737 46.0723 86.2164 46.5929 86.2164 47.2351V49.7492C86.2164 49.8732 86.2358 49.9926 86.2717 50.1046H82.7055C82.0764 50.1046 81.5664 50.6146 81.5664 51.2437C81.5664 51.8728 82.0764 52.3828 82.7055 52.3828H84.9982L82.98 57.7883C82.7674 58.3578 83.0519 59.0041 83.6155 59.2319C84.1791 59.4598 84.8083 59.1828 85.0209 58.6133L87.3471 52.3828H87.5337L89.8599 58.6133C90.0726 59.1828 90.7018 59.4598 91.2654 59.2319C91.8289 59.0041 92.1134 58.3578 91.9008 57.7883L89.8826 52.3828H92.2505C92.8796 52.3828 93.3896 51.8728 93.3896 51.2437C93.3896 50.6146 92.8796 50.1046 92.2505 50.1046H88.4867C88.5226 49.9926 88.542 49.8732 88.542 49.7492V47.2351Z" fill="#8B7A70"/>
<path d="M79.2421 64.2212C79.3345 66.0987 76.2896 65.8813 73.8737 66.0101C71.4578 66.1389 67.7066 66.5019 67.6141 64.6244C67.5217 62.747 70.6246 59.9135 73.0405 59.7847C75.4564 59.6559 79.1496 62.3438 79.2421 64.2212Z" fill="#FAB9B9"/>
<path d="M74.5873 67.851C73.9114 67.8508 73.3132 67.2249 73.3132 66.6411L73.4244 66.2377C73.4243 65.8346 75.3624 65.8342 77.6444 65.7271C78.5103 65.6864 78.6509 66.571 78.6509 66.571C78.8508 67.8511 78.8508 68.6578 79.2384 69.4644C79.626 70.271 79.626 70.6744 78.8839 70.6629C77.766 70.6456 78.4632 69.3223 78.4632 68.2545C78.4632 67.0445 77.3004 67.0445 76.5252 67.4478C75.75 67.8511 75.3624 67.8511 74.5873 67.851Z" fill="#B3F4FF"/>
<path d="M109.415 103.422C109.415 117 91.2293 127.83 72.3603 127.83C53.4912 127.83 33.6055 123.014 33.6055 109.436C33.6055 95.8581 57.0607 76.0078 75.9298 76.0078C94.7988 76.0078 109.415 89.8446 109.415 103.422Z" fill="#EDF3FD"/>
<path d="M61.7061 76.4068C70.3209 76.3384 73.3104 81.2048 73.304 84.7404C74.2426 81.5715 78.4659 78.2064 85.5771 78.9708C94.5099 79.9309 94.7668 87.9059 94.0792 92.4145C93.2133 98.0911 89.1853 100.68 85.434 102.723C82.5389 104.301 73.5452 107.935 71.2093 109.274C68.9496 107.573 60.8342 103.217 57.7211 99.5623C54.6079 95.9071 51.2791 91.3809 51.4007 86.9695C51.4984 83.4216 53.0914 76.4753 61.7061 76.4068Z" fill="#FF8181"/>
<path d="M101.556 24.6736C104.369 23.7302 106.221 25.4832 106.851 26.9879C106.592 25.5402 107.374 23.6604 109.843 23.2309C112.944 22.6913 114.439 25.376 114.439 27.4502C114.439 29.278 113.683 30.7518 112.611 32.324C111.944 33.3023 109.482 35.7708 108.956 36.5885C107.91 36.1046 105.148 34.7676 103.473 33.5431C101.798 32.3185 101.556 32.3247 100.068 30.2607C98.9204 28.6688 98.7436 25.6171 101.556 24.6736Z" fill="#FFAAAA"/>
<path d="M112.421 12.3146C114.109 12.2534 114.837 13.5094 114.939 14.4329C115.031 13.6005 115.761 12.7003 117.179 12.8642C118.959 13.0701 119.342 14.7773 119.007 15.9099C118.712 16.908 118.062 17.5908 117.223 18.2763C116.7 18.7028 114.958 19.6535 114.538 20.015C114.045 19.5821 112.753 18.4061 112.036 17.4671C111.319 16.5281 111.186 16.4925 110.706 15.1252C110.337 14.0707 110.733 12.3758 112.421 12.3146Z" fill="#FFCECE"/>
<path d="M91.8336 90.0059C90.7697 91.2441 91.8022 93.1425 93.3696 92.83L111.631 89.1891C112.528 89.0101 113.088 88.0685 112.83 87.1726L110.1 77.7116C109.254 74.7771 105.596 73.9901 103.6 76.313L91.8336 90.0059Z" fill="#A2C8FF"/>
<path d="M55.7308 90.8214C56.7835 92.0583 55.7584 93.9436 54.1978 93.6408L36.2064 90.1497C35.3028 89.9744 34.7381 89.0266 35.0011 88.1266L37.7511 78.7153C38.6083 75.7817 42.2734 75.0096 44.2602 77.344L55.7308 90.8214Z" fill="#A2C8FF"/>
</svg>
