<svg width="138" height="132" viewBox="0 0 138 132" fill="none" xmlns="http://www.w3.org/2000/svg">
<path fill-rule="evenodd" clip-rule="evenodd" d="M130.271 56.2786C133.264 54.2439 134.778 50.4632 133.765 46.7818C132.491 42.1531 127.703 39.4343 123.072 40.709C118.441 41.9838 115.719 46.7695 116.994 51.3981C117.704 53.9807 119.509 55.9688 121.77 57.0003L123.916 77.7884C124.08 78.2073 124.611 78.961 125.587 79.3259C124.283 84.7902 113.319 89.2731 111.669 89.7271C114.476 88.9543 115.669 91.2 115.669 91.2C123.825 86.3803 127.314 82.5916 127.231 79.5032C128.415 79.3328 128.99 78.5147 129.138 78.0656L130.271 56.2786Z" fill="#98887F"/>
<path d="M25.7992 30.9205C24.3034 30.7502 23.2668 32.3758 24.0522 33.6602L32.4922 47.462L46.9321 33.3269L25.7992 30.9205Z" fill="#98887F"/>
<path d="M83.7004 19.3538C84.9222 18.4742 86.6209 19.386 86.5633 20.8904L85.9439 37.0564L66.4383 31.78L83.7004 19.3538Z" fill="#98887F"/>
<path fill-rule="evenodd" clip-rule="evenodd" d="M67.6811 131.314C95.8476 131.314 118.681 118 118.681 86.0907C118.681 84.5656 118.629 83.0542 118.527 81.5588L127.776 67.1802C128.59 65.9141 127.591 64.2653 126.092 64.4015L115.307 65.3811C107.957 43.7021 89.4053 28.3145 67.6811 28.3145C42.9244 28.3145 22.2877 48.2979 17.654 74.8028L4.50807 86.1718C2.40794 87.988 3.82428 91.4325 6.59458 91.2461L16.8369 90.5568C18.885 119.247 40.8663 131.314 67.6811 131.314Z" fill="#FBD498"/>
<path d="M109.037 98.6244C109.037 112.504 90.7689 125.135 70.6984 125.135C50.628 125.135 30.0234 118.766 30.0234 104.886C30.0234 91.0064 54.9721 70.7148 75.0425 70.7148C95.113 70.7148 109.037 84.7449 109.037 98.6244Z" fill="#FDEACE"/>
<path d="M46.2436 50.6807C46.1852 50.5356 46.2164 50.3706 46.3265 50.2595C46.8401 49.7413 48.3611 48.2608 49.5798 47.6253C50.7803 46.9994 52.7722 46.628 53.5007 46.5074C53.6675 46.4798 53.8308 46.5641 53.909 46.714L54.5793 47.9998C54.6807 48.1942 54.6069 48.4335 54.4132 48.5361C53.7338 48.896 52.2023 49.7059 51.0754 50.2934C49.9947 50.8569 48.5446 52.3086 47.8295 53.0637C47.6258 53.2787 47.2633 53.2133 47.1527 52.9385L46.2436 50.6807Z" fill="#98887F"/>
<path d="M85.7246 49.3572C85.7256 49.6892 85.5216 49.9867 85.2076 50.0945C84.3558 50.3871 82.6339 50.9269 81.4144 50.9688C80.2263 51.0095 78.5728 50.6099 77.707 50.3726C77.3614 50.2778 77.1341 49.9562 77.1463 49.598L77.2033 47.928C77.2255 47.2755 78.0089 46.8888 78.5968 47.1727C79.2229 47.4751 79.9936 47.74 80.7397 47.7144C81.8302 47.677 83.6028 47.2912 84.712 47.0252C85.2213 46.9031 85.7183 47.2859 85.7199 47.8096L85.7246 49.3572Z" fill="#98887F"/>
<path d="M53.5496 46.6504C53.7071 46.5967 53.881 46.6462 53.9837 46.7771C54.4457 47.3655 55.7088 49.0379 56.1851 50.3136C56.6564 51.5759 56.7809 53.5849 56.8118 54.3315C56.819 54.5058 56.7086 54.6608 56.543 54.7158L53.6626 55.6727C53.3948 55.7617 53.1184 55.5525 53.1227 55.2704C53.1366 54.3651 53.1012 52.6171 52.681 51.4917C52.2648 50.3769 51.1067 49.0157 50.4661 48.3161C50.2666 48.0982 50.3529 47.7402 50.6326 47.6449L53.5496 46.6504Z" fill="#98887F"/>
<path d="M77.7433 50.1165C77.3837 50.1071 77.0755 49.8589 77.0022 49.5067C76.8151 48.608 76.5067 46.8811 76.6129 45.6911C76.7197 44.4954 77.3304 42.8841 77.6706 42.0611C77.8026 41.7415 78.1319 41.5557 78.4754 41.5952L80.3156 41.807C80.8996 41.8742 81.2238 42.5354 80.9559 43.0587C80.5321 43.8863 80.0327 45.0318 79.9491 45.9681C79.8645 46.9158 80.173 48.1466 80.4565 49.0361C80.6325 49.5884 80.2195 50.1814 79.64 50.1662L77.7433 50.1165Z" fill="#98887F"/>
<path d="M69.8244 56.9254C67.3994 58.0654 65.0309 57.1749 64.1498 56.5871C63.3258 56.6589 62.9003 56.7283 62.4527 58.4607C62.0051 60.1931 63.1783 61.8514 65.2715 63.3968C67.3647 64.9422 75.5774 64.2968 77.3096 60.527C79.0417 56.7572 75.547 55.1342 74.5841 54.7528C73.6213 54.3713 72.8557 55.5003 69.8244 56.9254Z" fill="#EF8E8E"/>
</svg>
