<svg width="72" height="62" viewBox="0 0 72 62" fill="none" xmlns="http://www.w3.org/2000/svg">
<path d="M26.5016 4.39525C26.607 3.73421 27.427 3.4841 27.8834 3.97372L32.7885 9.23516L25.0116 13.7342L26.5016 4.39525Z" fill="#8B7A70"/>
<path fill-rule="evenodd" clip-rule="evenodd" d="M33.2831 57.2517C46.4249 57.2517 57.0784 51.0269 57.0784 36.1092C57.0784 35.2531 57.0433 34.4063 56.9747 33.5705L61.5947 26.3885C61.9569 25.8255 61.5126 25.0924 60.8459 25.153L55.2335 25.6628C51.6353 15.9323 43.1623 9.09837 33.2831 9.09837C21.7557 9.09837 12.1428 18.4029 9.95497 30.7567L4.38279 35.5757C3.449 36.3832 4.07876 37.9148 5.31053 37.8319L9.52187 37.5485C10.189 51.4284 20.5722 57.2517 33.2831 57.2517Z" fill="#BFA5ED"/>
<path d="M52.5315 43.9873C52.5315 50.1586 43.9305 55.081 35.0065 55.081C26.0826 55.081 16.6777 52.8918 16.6777 46.7205C16.6777 40.5492 27.7707 31.5269 36.6947 31.5269C45.6187 31.5269 52.5315 37.816 52.5315 43.9873Z" fill="#DDD0F6"/>
<path d="M25.1448 18.4883C25.1231 18.3928 25.1829 18.2977 25.2785 18.276L29.3031 17.362C29.3986 17.3403 29.4937 17.4002 29.5154 17.4957L29.769 18.6123C29.7928 18.7172 29.7186 18.8189 29.6115 18.8284L27.6451 19.0011C27.6295 19.0025 27.6141 19.0059 27.5994 19.0113L25.4434 19.8032L25.1448 18.4883Z" fill="#8B7A70"/>
<path d="M25.8135 21.4302L28.0739 21.273L29.9916 20.5138C30.0928 20.4737 30.2058 20.5333 30.2299 20.6395L30.4583 21.6448C30.48 21.7403 30.4201 21.8354 30.3245 21.8571L26.3 22.7711C26.2044 22.7928 26.1093 22.7329 26.0876 22.6374L25.8135 21.4302Z" fill="#8B7A70"/>
<path d="M26.299 22.7711C26.2034 22.7928 26.1084 22.7329 26.0867 22.6373L25.2287 18.8593L26.8744 18.4856L26.9262 20.1623C26.9272 20.1917 26.9329 20.2207 26.9434 20.2483L27.7717 22.4366L26.299 22.7711Z" fill="#8B7A70"/>
<ellipse cx="35.7649" cy="24.756" rx="1.18022" ry="1.54712" transform="rotate(-8.74215 35.7649 24.756)" fill="#FAB9B9"/>
<path d="M40.8536 18.3265C40.8879 18.5039 40.8152 18.6038 40.6437 18.6369L38.4854 19.054L38.6842 20.0829C39.4034 19.9316 40.1219 19.6824 40.84 19.3351C40.9596 19.2874 41.0315 19.3103 41.0509 19.4109L41.1377 19.8603C41.1595 19.9726 41.1259 20.0527 41.0358 20.0946C40.301 20.482 39.3234 20.7875 38.0934 21.0251C37.9634 21.0503 37.888 21.0096 37.8663 20.8973L37.4367 18.6739C37.407 18.5202 37.4808 18.4262 37.6582 18.3919L39.8816 17.9623L39.7582 17.3236L37.4934 17.7613C37.3397 17.791 37.2527 17.7219 37.2207 17.5563L37.1602 17.2429C37.1282 17.0774 37.1831 16.9809 37.3369 16.9512L40.1988 16.3981C40.3762 16.3638 40.488 16.4343 40.52 16.5998L40.8536 18.3265Z" fill="#8B7A70"/>
<path d="M60.349 22.9348L62.1707 22.9461L61.9482 30.6041C61.9402 30.8803 61.703 31.0909 61.4277 31.0663L60.3949 30.9741C60.1331 30.9507 59.9352 30.7226 59.9492 30.4603L60.349 22.9348Z" fill="#A07BE5"/>
<mask id="path-10-outside-1_3369_17476" maskUnits="userSpaceOnUse" x="-0.0625" y="-0.290285" width="71" height="62" fill="black">
<rect fill="white" x="-0.0625" y="-0.290285" width="71" height="62"/>
<path fill-rule="evenodd" clip-rule="evenodd" d="M27.8861 3.96624C27.4296 3.47662 26.6097 3.72673 26.5042 4.38777L25.519 10.5634C17.6359 13.652 11.6295 21.311 9.9579 30.75L4.38572 35.569C3.45193 36.3766 4.08169 37.9081 5.31346 37.8252L9.5248 37.5418C10.1919 51.4218 20.5751 57.2451 33.286 57.2451C46.4278 57.2451 57.0813 51.0203 57.0813 36.1026C57.0813 35.2467 57.0463 34.4 56.9777 33.5644L60.0395 28.8047L59.952 30.4528C59.938 30.7151 60.1359 30.9432 60.3977 30.9666L61.4305 31.0588C61.7058 31.0834 61.943 30.8729 61.951 30.5966L62.1519 23.6826C63.3473 23.5287 64.5048 23.001 65.4361 22.0969C67.7268 19.8728 67.7808 16.2128 65.5567 13.9221C63.3326 11.6314 59.6727 11.5774 57.382 13.8014C55.0912 16.0255 55.0372 19.6855 57.2613 21.9762C58.1192 22.8597 59.1906 23.4105 60.3147 23.6262L60.2309 25.2025L55.2364 25.6562C51.6382 15.9257 43.1652 9.09174 33.286 9.09174C33.081 9.09174 32.8765 9.09469 32.6727 9.10054L27.8861 3.96624Z"/>
</mask>
<path d="M26.5042 4.38777L30.0723 4.95702L30.0723 4.95702L26.5042 4.38777ZM27.8861 3.96624L25.2433 6.43008L25.2433 6.43008L27.8861 3.96624ZM25.519 10.5634L26.8371 13.9276L28.7614 13.1736L29.087 11.1327L25.519 10.5634ZM9.9579 30.75L12.3214 33.483L13.2919 32.6436L13.5157 31.3801L9.9579 30.75ZM4.38572 35.569L6.74923 38.3019L6.74923 38.3019L4.38572 35.569ZM5.31346 37.8252L5.55605 41.4302L5.31346 37.8252ZM9.5248 37.5418L13.1338 37.3684L12.957 33.6895L9.2822 33.9368L9.5248 37.5418ZM56.9777 33.5644L53.9389 31.6097L53.2764 32.6396L53.3766 33.8601L56.9777 33.5644ZM60.0395 28.8047L63.6476 28.9964L64.3703 15.3938L57.0008 26.8499L60.0395 28.8047ZM59.952 30.4528L63.56 30.6445L63.56 30.6445L59.952 30.4528ZM60.3977 30.9666L60.0762 34.5654L60.0762 34.5654L60.3977 30.9666ZM61.4305 31.0588L61.752 27.46L61.7519 27.46L61.4305 31.0588ZM61.951 30.5966L58.3393 30.4917L58.3393 30.4917L61.951 30.5966ZM62.1519 23.6826L61.6904 20.0991L58.6299 20.4932L58.5403 23.5777L62.1519 23.6826ZM65.4361 22.0969L62.9192 19.5045L62.9192 19.5045L65.4361 22.0969ZM65.5567 13.9221L62.9644 16.439L62.9644 16.439L65.5567 13.9221ZM57.382 13.8014L54.865 11.2091L54.865 11.2091L57.382 13.8014ZM57.2613 21.9762L54.669 24.4931L54.669 24.4931L57.2613 21.9762ZM60.3147 23.6262L63.9228 23.8179L64.0899 20.6715L60.9955 20.0778L60.3147 23.6262ZM60.2309 25.2025L60.5578 28.8009L63.673 28.5179L63.839 25.3942L60.2309 25.2025ZM55.2364 25.6562L51.8475 26.9094L52.8073 29.5049L55.5633 29.2546L55.2364 25.6562ZM32.6727 9.10054L30.0299 11.5644L31.1437 12.7591L32.7764 12.7122L32.6727 9.10054ZM30.0723 4.95702C29.7037 7.26708 26.8384 8.1411 25.2433 6.43008L30.5289 1.50241C28.0208 -1.18787 23.5157 0.186372 22.9362 3.81852L30.0723 4.95702ZM29.087 11.1327L30.0723 4.95702L22.9362 3.81852L21.9509 9.99416L29.087 11.1327ZM13.5157 31.3801C14.9948 23.0282 20.2628 16.5034 26.8371 13.9276L24.2009 7.19924C15.009 10.8006 8.26425 19.5938 6.40009 30.12L13.5157 31.3801ZM6.74923 38.3019L12.3214 33.483L7.59439 28.0171L2.02222 32.8361L6.74923 38.3019ZM5.07086 34.2202C7.29924 34.0703 8.43858 36.8409 6.74923 38.3019L2.02222 32.8361C-1.53471 35.9123 0.86413 41.746 5.55605 41.4302L5.07086 34.2202ZM9.2822 33.9368L5.07086 34.2202L5.55605 41.4302L9.76739 41.1469L9.2822 33.9368ZM33.286 53.6319C27.4237 53.6319 22.4997 52.2818 19.0524 49.7046C15.729 47.2199 13.4206 43.3364 13.1338 37.3684L5.9158 37.7153C6.29608 45.6272 9.51292 51.5953 14.7255 55.4923C19.8143 59.2967 26.4374 60.8582 33.286 60.8582V53.6319ZM53.4682 36.1026C53.4682 42.6117 51.1951 46.7928 47.8643 49.4389C44.404 52.1879 39.351 53.6319 33.286 53.6319V60.8582C40.3628 60.8582 47.2075 59.1899 52.3594 55.0971C57.6408 50.9013 60.6945 44.5112 60.6945 36.1026H53.4682ZM53.3766 33.8601C53.4371 34.5974 53.4682 35.3454 53.4682 36.1026H60.6945C60.6945 35.1479 60.6554 34.2027 60.5787 33.2688L53.3766 33.8601ZM57.0008 26.8499L53.9389 31.6097L60.0164 35.5192L63.0783 30.7594L57.0008 26.8499ZM63.56 30.6445L63.6476 28.9964L56.4315 28.613L56.3439 30.2611L63.56 30.6445ZM60.7192 27.3678C62.3924 27.5172 63.6494 28.9626 63.56 30.6445L56.3439 30.2611C56.2266 32.4677 57.8794 34.3692 60.0762 34.5654L60.7192 27.3678ZM61.7519 27.46L60.7192 27.3678L60.0762 34.5654L61.109 34.6577L61.7519 27.46ZM58.3393 30.4917C58.3918 28.6866 59.9562 27.2996 61.752 27.46L61.109 34.6577C63.4554 34.8673 65.4941 33.0591 65.5626 30.7016L58.3393 30.4917ZM58.5403 23.5777L58.3393 30.4917L65.5626 30.7016L65.7636 23.7876L58.5403 23.5777ZM62.6134 27.2662C64.5564 27.016 66.4427 26.1555 67.953 24.6892L62.9192 19.5045C62.567 19.8465 62.1382 20.0414 61.6904 20.0991L62.6134 27.2662ZM67.953 24.6892C71.6754 21.075 71.7632 15.1276 68.149 11.4052L62.9644 16.439C63.7985 17.298 63.7782 18.6705 62.9192 19.5045L67.953 24.6892ZM68.149 11.4052C64.5349 7.68276 58.5875 7.59499 54.865 11.2091L59.8989 16.3938C60.7579 15.5597 62.1304 15.58 62.9644 16.439L68.149 11.4052ZM54.865 11.2091C51.1426 14.8233 51.0549 20.7707 54.669 24.4931L59.8536 19.4593C59.0196 18.6003 59.0399 17.2278 59.8989 16.3938L54.865 11.2091ZM54.669 24.4931C56.0597 25.9254 57.8055 26.8239 59.6339 27.1746L60.9955 20.0778C60.5756 19.9972 60.1787 19.794 59.8536 19.4593L54.669 24.4931ZM63.839 25.3942L63.9228 23.8179L56.7066 23.4345L56.6228 25.0108L63.839 25.3942ZM55.5633 29.2546L60.5578 28.8009L59.9041 21.6042L54.9096 22.0579L55.5633 29.2546ZM33.286 12.7049C41.3848 12.7049 48.6743 18.328 51.8475 26.9094L58.6253 24.4031C54.6022 13.5235 44.9456 5.47858 33.286 5.47858V12.7049ZM32.7764 12.7122C32.9457 12.7074 33.1156 12.7049 33.286 12.7049V5.47858C33.0464 5.47858 32.8073 5.48202 32.5689 5.48886L32.7764 12.7122ZM25.2433 6.43008L30.0299 11.5644L35.3155 6.63671L30.5289 1.50241L25.2433 6.43008Z" fill="white" mask="url(#path-10-outside-1_3369_17476)"/>
<circle cx="61.4057" cy="17.9085" r="5.78107" transform="rotate(45.8455 61.4057 17.9085)" fill="#A07BE5"/>
<circle cx="61.4369" cy="17.9087" r="4.3358" transform="rotate(45.8455 61.4369 17.9087)" fill="#DDD0F6"/>
</svg>
