<svg width="138" height="132" viewBox="0 0 138 132" fill="none" xmlns="http://www.w3.org/2000/svg">
<path fill-rule="evenodd" clip-rule="evenodd" d="M72.332 18.0075C75.6443 19.956 79.4802 24.5111 73.8005 32.002L86.5658 38.0268C87.7814 31.1983 86.6364 17.6346 72.332 18.0075ZM49.3955 21.6973C46.4114 24.0651 43.2764 29.0666 49.9052 35.6548L38.1975 43.3205C36.0495 36.7739 35.2819 23.2841 49.3955 21.6973Z" fill="#98887F"/>
<path d="M117 86.1747C117 118.084 93.9138 131.398 65.4354 131.398C26.2915 131.398 15 116.199 15 84.2899C15 52.3809 36.9571 28.3984 65.4354 28.3984C93.9138 28.3984 117 54.2658 117 86.1747Z" fill="#70F5D9"/>
<path d="M104.679 101.117C105.355 113.758 87.4898 124.825 68.7021 125.829C49.9144 126.833 30.4616 117.761 29.7859 105.12C29.1102 92.4788 47.3162 78.2253 66.1038 77.221C84.8915 76.2168 104.003 88.4755 104.679 101.117Z" fill="#B2FCEC"/>
<path d="M59.1455 61.612C59.2272 62.1931 61.8618 62.7648 68.1257 61.9026C73.7632 61.1267 75.5135 59.9515 75.4317 59.3704C75.35 58.7894 71.7696 59.756 67.2723 60.375C62.775 60.994 59.0638 61.0309 59.1455 61.612Z" fill="#D39898"/>
<path d="M62.6053 47.7431C63.0099 51.6165 59.7829 55.3162 55.1182 55.7928C50.4536 56.2695 46.5301 53.3004 46.1256 49.427C45.928 47.5352 46.629 46.2309 47.9268 45.2863C49.2907 44.2937 51.3536 43.6806 53.8269 43.4279C56.3001 43.1752 58.4462 43.3581 59.9864 44.0541C61.452 44.7162 62.4078 45.8513 62.6053 47.7431Z" stroke="#2AD4AF" stroke-width="2"/>
<path d="M85.035 45.4521C85.4396 49.3254 82.2126 53.0251 77.5479 53.5018C72.8833 53.9784 68.9598 51.0094 68.5553 47.136C68.3577 45.2442 69.0587 43.9399 70.3565 42.9953C71.7204 42.0027 73.7833 41.3896 76.2565 41.1369C78.7298 40.8842 80.8759 41.0671 82.4161 41.763C83.8817 42.4252 84.8375 43.5603 85.035 45.4521Z" stroke="#2AD4AF" stroke-width="2"/>
<rect width="5.30445" height="1.31201" transform="matrix(0.99482 -0.101654 0.103875 0.99459 62.1836 46.8457)" fill="#2AD4AF"/>
<ellipse cx="77.6479" cy="47.6414" rx="2.5815" ry="2.0652" fill="#98887F"/>
<ellipse cx="53.8979" cy="49.7058" rx="2.5815" ry="2.0652" fill="#98887F"/>
<path d="M49.7249 54.6406C50.3012 53.2138 48.7075 51.9221 47.4073 52.7622L33.226 61.9255C30.8265 63.4759 30.7252 66.9172 33.0316 68.5276L38.5271 72.3644C40.7786 73.9363 43.956 72.7957 44.7282 70.1383L47.9666 58.9933L49.7249 54.6406Z" fill="#55DDBF"/>
<path d="M124.896 56.9621C126.003 55.8937 125.073 54.0649 123.544 54.3028L106.86 56.898C104.037 57.3371 102.544 60.439 103.995 62.8489L107.452 68.5908C108.868 70.9433 112.235 71.1952 114.022 69.0825L121.518 60.2218L124.896 56.9621Z" fill="#70F5D8"/>
<path d="M122.448 27.2567L126.664 35.4687L120.166 36.1857L122.448 27.2567Z" fill="#FBE8CC"/>
<path d="M122.449 27.2563L124.557 31.3623C124.557 31.3623 123.54 30.9321 122.872 31.0059C122.203 31.0796 121.307 31.7208 121.307 31.7208L122.449 27.2563Z" fill="#5F6368"/>
<path d="M129.442 60.1103L127.396 61.4206L125.23 61.6596L122.943 60.8273L120.165 36.1873L122.21 34.877L124.376 34.6381L126.663 35.4704L129.442 60.1103Z" fill="#F9BC5F"/>
<rect width="2.17927" height="26.9523" transform="matrix(-0.993969 0.109663 -0.112054 -0.993702 127.398 61.4199)" fill="#F8D298"/>
</svg>
