<svg width="552" height="386" viewBox="0 0 552 386" fill="none" xmlns="http://www.w3.org/2000/svg">
<rect y="179" width="26.6471" height="115.649" rx="4.26354" fill="#357EE7"/>
<rect y="294.648" width="26.6471" height="102.858" rx="4.26354" transform="rotate(-90 0 294.648)" fill="#357EE7"/>
<rect x="78.3428" y="336.751" width="26.6471" height="124.709" rx="4.26354" transform="rotate(-180 78.3428 336.751)" fill="#357EE7"/>
<rect x="449" y="179" width="26.6471" height="115.649" rx="4.26354" fill="#357EE7"/>
<rect x="449" y="294.648" width="26.6471" height="102.858" rx="4.26354" transform="rotate(-90 449 294.648)" fill="#357EE7"/>
<rect x="527.343" y="336.751" width="26.6471" height="124.709" rx="4.26354" transform="rotate(-180 527.343 336.751)" fill="#357EE7"/>
<path fill-rule="evenodd" clip-rule="evenodd" d="M278.402 385.973C347.988 385.973 404.398 353.013 404.398 274.023C404.398 269.49 404.213 265.007 403.849 260.582L428.314 222.551C430.232 219.57 427.879 215.688 424.349 216.009L394.629 218.708C375.577 167.186 330.712 131 278.402 131C217.364 131 166.463 180.268 154.879 245.682L125.373 271.199C120.429 275.475 123.763 283.585 130.286 283.146L152.585 281.645C156.118 355.139 211.097 385.973 278.402 385.973Z" fill="#92B9F2"/>
<ellipse cx="283.023" cy="244.16" rx="14.9338" ry="14.0658" transform="rotate(-0.363245 283.023 244.16)" fill="#FAB9B9"/>
<rect x="235" y="192" width="6.20796" height="36.7511" rx="0.993273" fill="#8B7A70"/>
<rect x="235" y="228.751" width="6.20796" height="19.7413" rx="0.993273" transform="rotate(-90 235 228.751)" fill="#8B7A70"/>
<rect x="254.741" y="228.751" width="6.20796" height="36.7511" rx="0.993273" transform="rotate(-180 254.741 228.751)" fill="#8B7A70"/>
<rect x="235" y="198.208" width="6.20796" height="19.7413" rx="0.993273" transform="rotate(-90 235 198.208)" fill="#8B7A70"/>
<rect x="303" y="201" width="4.71698" height="22.7511" rx="0.993273" fill="#8B7A70"/>
<rect x="303" y="223.751" width="3.84309" height="15" rx="0.993273" transform="rotate(-90 303 223.751)" fill="#8B7A70"/>
<rect x="318" y="223.751" width="4.71698" height="22.7511" rx="0.993273" transform="rotate(-180 318 223.751)" fill="#8B7A70"/>
<rect x="303" y="204.843" width="3.84309" height="15" rx="0.993273" transform="rotate(-90 303 204.843)" fill="#8B7A70"/>
<path d="M294.378 53.8753C283.978 97.4753 339.545 143.833 364.379 156.5C364.379 156.5 360.5 184.643 364.379 186.875C368.5 188.644 390 167 390 167C454 173 493.204 168.558 511.379 139.875C543.379 89.3755 484.257 31.2551 439.379 15.375C374.379 -7.62494 307.378 -0.624718 294.378 53.8753Z" fill="white" stroke="#808997" stroke-width="6"/>
<path d="M351.046 70.8832C360.872 70.8832 365.808 76.7329 365.808 88.3866C365.808 100.406 360.872 106.393 351.046 106.393C341.358 106.393 336.559 100.406 336.559 88.3866C336.559 76.7329 341.358 70.8832 351.046 70.8832ZM351.046 77.4641C346.019 77.4641 343.551 81.1202 343.551 88.3866C343.551 96.0186 346.019 99.8118 351.046 99.8118C356.256 99.8118 358.861 96.0186 358.861 88.3866C358.861 81.1202 356.256 77.4641 351.046 77.4641ZM384.072 70.8832C393.898 70.8832 398.834 76.7329 398.834 88.3866C398.834 100.406 393.898 106.393 384.072 106.393C374.384 106.393 369.585 100.406 369.585 88.3866C369.585 76.7329 374.384 70.8832 384.072 70.8832ZM384.072 77.4641C379.045 77.4641 376.577 81.1202 376.577 88.3866C376.577 96.0186 379.045 99.8118 384.072 99.8118C389.282 99.8118 391.887 96.0186 391.887 88.3866C391.887 81.1202 389.282 77.4641 384.072 77.4641ZM403.36 73.0769C403.36 71.7972 404.046 71.1117 405.417 71.1117H408.524C409.667 71.1117 410.352 71.523 410.535 72.2543C413.186 71.523 415.562 71.1574 417.573 71.1574C425.799 71.1574 429.958 76.5044 429.958 87.1527C429.958 99.2634 426.119 105.296 418.441 105.296C415.836 105.296 413.231 104.747 410.627 103.605V116.264C410.627 117.589 409.987 118.229 408.707 118.229H405.051C403.909 118.229 403.36 117.589 403.36 116.31V73.0769ZM423.103 87.0156C423.103 81.0745 420.681 78.0582 415.928 78.0582C415.105 78.0582 414.283 78.1496 413.414 78.2867C412.5 78.4239 411.586 78.6524 410.581 78.9723V96.9326C412.637 98.0752 414.877 98.6236 417.345 98.6236C421.183 98.6236 423.103 94.7847 423.103 87.0156ZM439.285 81.4858C439.285 84.0907 442.393 85.9188 448.608 87.0156C454.915 88.1124 458.114 91.1286 458.114 96.0643C458.114 103.285 453.864 106.85 445.455 106.85C436.726 106.85 432.339 103.696 432.339 97.3896C432.247 96.3842 432.75 95.8358 433.892 95.653L437.366 95.3331C438.645 95.2417 439.331 95.7444 439.422 96.8412C439.605 99.2177 441.57 100.406 445.226 100.406C448.837 100.406 450.665 98.9435 450.665 95.9272C450.665 94.0992 447.648 92.5911 441.662 91.4029C435.446 90.1689 432.384 87.0156 432.384 81.8971C432.384 74.3108 436.589 70.4719 445.089 70.4719C453.772 70.4719 458.16 74.1737 458.205 81.4858C458.205 82.6283 457.657 83.2224 456.606 83.3138L453.27 83.588C451.944 83.6794 451.259 83.2681 451.167 82.3084C450.985 78.6524 448.974 76.8243 445.181 76.8243C441.25 76.8243 439.285 78.3781 439.285 81.4858ZM466.145 60.692H469.984C471.538 60.692 472.269 61.7888 472.178 64.0281L471.172 92.7739C470.989 94.0078 470.349 94.6476 469.253 94.739H466.648C465.551 94.7847 464.911 94.1906 464.728 92.9567L463.494 64.0281C463.403 61.7888 464.317 60.692 466.145 60.692ZM465.825 106.256H470.395C471.995 106.347 472.817 105.707 472.817 104.29L472.452 100.223C472.36 98.8978 471.721 98.2123 470.624 98.2123H465.962C464.865 98.2123 464.317 98.7607 464.226 99.8575L463.769 104.29C463.723 105.616 464.408 106.256 465.825 106.256Z" fill="#357EE7"/>
</svg>
