<svg width="714" height="370" viewBox="0 0 714 370" fill="none" xmlns="http://www.w3.org/2000/svg">
<g clip-path="url(#clip0_54_17568)">
<g clip-path="url(#clip1_54_17568)">
<g clip-path="url(#clip2_54_17568)">
<rect width="716" height="370" transform="translate(0.0898438 -1)" fill="url(#paint0_linear_54_17568)"/>
<path d="M207.544 75.3426C174.34 66.2183 53.9765 110.942 -2.05469 134.444V373.96H715.975V90.8956C701.448 85.7113 666.169 75.3426 641.266 75.3426C610.138 75.3426 559.295 127.186 536.467 134.444C513.64 141.701 493.925 112.67 454.496 111.633C415.067 110.596 419.217 126.149 350.735 143.776C282.252 161.403 249.048 86.748 207.544 75.3426Z" fill="url(#paint1_linear_54_17568)"/>
<path d="M26.5504 0.924323L60.5211 -1L55.766 33.8502L63.2702 78.42V245.51L16.3146 253.22L21.222 102.544L0.0898438 89.3915V65.293L21.222 78.42V33.8502L26.5504 0.924323Z" fill="#384146"/>
<path d="M477.312 -8.8706L511.282 -10.7949L506.527 24.0552L514.031 68.6251L515.068 95.9L535.021 79.6304L572.344 56.5318L570.068 68.6251L535.021 100.112L515.068 127.679L522.757 290.461L458.433 272.275L471.983 92.7493L431.526 87.9982L403.936 79.6304L410.763 71.646L435.769 76.4846L454.391 77.495L448.485 61.2271L453.18 56.5318L458.433 67.2457L464.64 76.4846L471.983 74.5603L470.667 29.1977L454.79 -5.88747H467.334L474.195 12.7332L477.312 -8.8706Z" fill="#384146"/>
<path d="M689.5 -1H655.659V35.0881V44.0223V52.9565V59.806L639.958 253.415L696.958 256.109V92.0154L716.09 48.0936V33.0347L693.193 59.806V15.0477L689.5 -1Z" fill="#384146"/>
<path d="M208.694 0.923715L174.723 -1.00061V35.0875V44.0217V52.9559V59.8055L161.726 243.984L218.532 235.074L215.946 55.6919L240.451 38.8167L284.092 7.20726L273.111 5.2364L253.402 17.3431L255.52 -4.05469L248.335 -1.00067L242.985 22.9741L212.257 38.8167V15.0471L208.694 0.923715Z" fill="#384146"/>
<path d="M88.5795 -1H126.607V38.0022L131.091 73.6428L172.717 38.0022L151.191 -1H160.835L181.826 31.1552L220.403 -1H235.153L135.175 100.787L145.09 247.48H88.5795V147.766V73.6428L25.7148 -1H43.7225L88.5795 45.5333V-1Z" fill="#3C5863"/>
<path d="M623.123 -1.00047L588.213 -3.78125L565.943 77.8484L547.502 58.2393L554.329 17.7817L547.502 6.81656L538.806 49.5428L495.323 17.7817L488.139 20.4285L551.16 80.4347L562.627 100.966L554.329 154.344L558.456 291.808L623.123 260.824L603.614 129.188L613.506 73.6423L676.371 -1.00047H662.069L635.224 28.7469L613.506 45.5329L623.123 -1.00047Z" fill="#3C5863"/>
<path d="M306.44 -3.78125H350.744L356.116 45.7923L358.842 77.103L391.455 56.0313L384.628 17.7817L391.455 6.81656L400.151 49.5428L443.634 17.7817L450.818 20.4285L387.797 80.4347L366.484 108.674L369.423 154.344L373.014 266.873L302.732 277.038L311.352 154.344V63.9142L262.586 -1.00047H276.888L292.793 12.058L311.352 32.8005L306.44 -3.78125Z" fill="#3C5863"/>
<path d="M116.308 234.446C71.7035 225.684 19.4003 243.407 -1.17578 253.363V383.79L716.67 378.812V259.337C685.806 245.398 660.915 244.403 635.029 245.398C609.143 246.394 583.256 275.267 551.396 280.245C519.536 285.223 466.768 259.337 408.026 253.363C349.284 247.389 345.302 272.28 309.459 259.337C273.617 246.394 243.748 225.486 227.818 224.49C211.888 223.494 172.063 245.398 116.308 234.446Z" fill="#1F2F36"/>
<path d="M65.4039 270.492C29.6891 262.514 6.65757 273.816 0 280.465V373.96H716.262C716.653 339.471 717.201 272.487 716.262 280.465C692.765 258.026 678.667 295.424 587.03 302.903C495.393 310.383 372.035 295.424 328.566 295.424C285.098 295.424 207.559 299.164 178.188 295.424C148.817 291.684 110.047 280.465 65.4039 270.492Z" fill="#091A21"/>
<path d="M197.83 298.616C194.29 301.108 195.953 306.671 200.28 306.811L222.661 307.538L221.562 281.909L197.83 298.616Z" fill="#BFD6F7"/>
<path d="M497.125 239.7C498.585 237.862 497.29 235.149 494.943 235.128L469.723 234.899L476.5 265.664L497.125 239.7Z" fill="#BFD6F7"/>
<path d="M243.568 196.781C241.323 196.096 239.274 198.294 240.114 200.486L249.143 224.036L275.284 206.457L243.568 196.781Z" fill="#98887F"/>
<path d="M491.7 300.88C486.496 352.926 419.192 308.132 342.368 308.767C296.518 304.183 187.015 370.66 229.854 256.106C248.682 197.032 316.842 169.33 362.692 173.915C445.627 183.715 496.904 248.834 491.7 300.88Z" fill="url(#paint2_linear_54_17568)"/>
<path d="M325.361 215.389C323.652 216.789 321.132 216.539 319.732 214.83C318.332 213.122 318.582 210.601 320.291 209.201C322 207.801 324.52 208.051 325.92 209.76C327.32 211.469 327.07 213.989 325.361 215.389Z" fill="#6C6C6C"/>
<circle cx="3" cy="3" r="3" transform="matrix(-0.77439 0.632708 0.632708 0.77439 379.529 208.26)" fill="#6C6C6C"/>
<path d="M307.231 230.833C307.26 229.419 314.883 223.118 344.706 227.649C347.981 228.147 363.382 227.603 367.268 226.7C372.534 225.477 393.702 226.747 393.658 228.908C393.613 231.068 361.77 230.824 347.976 230.539C334.183 230.255 307.187 232.994 307.231 230.833Z" fill="#F2A3A3"/>
<path d="M467.344 311.008C459.952 319.471 416.229 294.445 353.147 293.619C307.567 293.022 252.389 319.941 253.262 311.21C254.135 302.478 298.178 252.957 362.383 260.883C375.969 262.242 403.02 262.982 422.196 272.324C447.065 284.441 472.141 305.517 467.344 311.008Z" fill="#E6E6E6"/>
<path d="M310.252 216.927C308.984 219.884 307.457 220.559 305.155 218.66C303.233 216.541 303.946 215.595 305.752 214.216C305.752 214.216 311.075 210.735 313.268 212.544C315.46 214.352 313.001 210.522 310.252 216.927Z" fill="white"/>
<path d="M405.071 218.777C406.226 220.448 407.256 220.675 408.444 219.212C409.368 217.66 407.361 217.219 406.071 216.591C406.071 216.591 403.055 215.417 401.924 216.811C400.793 218.204 402.569 215.155 405.071 218.777Z" fill="white"/>
<path d="M298.732 220.688C297.269 222.098 296.215 222.116 295.341 220.447C294.742 218.743 296.796 218.708 298.185 218.348C298.185 218.348 301.373 217.794 302.206 219.384C303.039 220.974 301.902 217.634 298.732 220.688Z" fill="white"/>
<path d="M392.414 216.615C394.242 219.261 395.873 219.621 397.754 217.303C399.218 214.846 398.331 214.06 396.288 213.066C396.288 213.066 390.381 210.708 388.59 212.915C386.799 215.122 388.452 210.881 392.414 216.615Z" fill="white"/>
<path d="M646.085 178.171L619.445 215.521L628.508 209.479V215.521L658.993 170.756L642.24 189.431L646.085 178.171Z" fill="#1F2F36"/>
<path d="M299.773 92.5839L329.886 127.195L326.123 116.973L331.998 118.382L295.571 78.3034L309.827 98.9472L299.773 92.5839Z" fill="#1F2F36"/>
<path d="M158.638 108.754L191.75 173.715L185.533 168.489L183.46 169.57L185.533 172.093L179.388 170.839L140.373 113.024L153.657 116.582L158.638 108.754Z" fill="#1F2F36"/>
<path d="M499.182 188.73L542.066 154.766L538.686 161.051L539.452 163.109L541.102 161.004L540.383 167.164L502.404 206.935L504.527 193.607L499.182 188.73Z" fill="#1F2F36"/>
<path d="M636.078 154.056L629.176 172.943L625.834 188.261L634.727 175.839L640.556 156.123L636.869 157.866L636.078 154.056Z" fill="#1F2F36"/>
<path d="M49.3162 127.902L67.7675 135.894L74.8534 140.453L60.2211 139.037L42.0499 132.192L47.7333 130.777L49.3162 127.902Z" fill="#1F2F36"/>
<path d="M463.763 133.825L476.928 149.025L481.339 156.203L468.765 148.586L455.355 134.543L461.09 135.731L463.763 133.825Z" fill="#1F2F36"/>
<path d="M201.351 94.5202L192.818 112.728L184.308 125.896L186.851 110.832L196.728 92.8005L198.09 96.6442L201.351 94.5202Z" fill="#1F2F36"/>
<path d="M682.086 203.093L680.059 215.521L686.552 202.428L682.086 203.093Z" fill="#091A21"/>
<path d="M448.215 163.007L452.355 174.9L451.825 160.294L448.215 163.007Z" fill="#091A21"/>
<path d="M31.9023 167.932L87.7844 244.513H124.402L95.104 214.342L117.259 187.523L109.563 182.858L82.2772 199.883L50.4182 162.102L31.9023 167.932Z" fill="#1F2F36"/>
<path d="M581.402 225.965L631.82 225.965L606.371 276.24L606.371 305.674L575.845 314.279L525.713 315.318L544.428 290.789L554.513 269.181L534.825 240.851L544.428 227.758L567.149 248.342L581.402 225.965Z" fill="#091A21"/>
<path d="M266.444 64.7461L261.51 76.8584L266.444 71.7183L270.401 64.7461H266.444Z" fill="#3C5863"/>
<path d="M242.995 159.151L239.108 153.522L237.982 163.466L228.999 176.2L239.617 166.854L242.995 159.151Z" fill="#384146"/>
<path d="M639.064 107.041L640.45 100.342L632.481 106.397L617.069 108.697L631.161 109.92L639.064 107.041Z" fill="#384146"/>
<path d="M172.873 69.832L208.306 25.541L328.629 30.3391L496.195 33.661L520.186 60.2354L513.542 106.741L485.861 138.482L396.172 135.53L376.61 160.997L366.645 133.315L328.629 129.624L206.46 148.448L172.873 69.832Z" fill="white"/>
<path d="M211.145 54.6328C210.695 54.6914 210.285 54.7793 209.914 54.8965C209.699 54.9551 209.436 55.043 209.123 55.1602C208.615 55.3555 208.225 55.4434 207.951 55.4238C207.521 55.3848 206.877 55.1602 206.018 54.75C205.178 54.3398 204.699 53.9004 204.582 53.4316C204.445 52.9629 204.738 52.7383 205.461 52.7578L206.633 52.8457C207.629 52.9238 208.449 52.9531 209.094 52.9336C210.168 52.8945 211.496 52.748 213.078 52.4941C213.469 52.377 213.85 52.2402 214.221 52.084C214.436 52.0059 214.709 51.8789 215.041 51.7031C215.607 51.4102 216.047 51.2539 216.359 51.2344C216.848 51.2148 217.502 51.4199 218.322 51.8496C218.986 52.3184 219.182 52.8359 218.908 53.4023C218.654 53.9297 218.166 54.1641 217.443 54.1055C216.877 54.0469 216.154 54.0469 215.275 54.1055C214.357 54.1641 213.488 54.2617 212.668 54.3984C213.801 55.043 214.426 55.5801 214.543 56.0098C214.68 56.4199 214.406 56.8496 213.723 57.2988C214.191 57.3574 214.65 57.3867 215.1 57.3867C215.373 57.3867 215.715 57.377 216.125 57.3574C216.691 57.2988 217.092 57.2988 217.326 57.3574C217.697 57.4551 218.078 57.709 218.469 58.1191C218.762 58.5488 218.928 58.9688 218.967 59.3789C218.986 59.75 218.908 60.0723 218.732 60.3457C218.557 60.5801 218.332 60.7461 218.059 60.8438C217.805 60.9414 217.561 60.9414 217.326 60.8438L216.184 60.1699C215.52 59.7793 215.012 59.4863 214.66 59.291C214.094 58.9785 213.459 58.6367 212.756 58.2656C211.389 59.3203 209.924 60.1504 208.361 60.7559C206.975 61.3027 205.715 61.6152 204.582 61.6934C203.684 61.7715 203.01 61.791 202.561 61.752C202.17 61.7129 201.994 61.6348 202.033 61.5176C202.053 61.4004 202.238 61.3027 202.59 61.2246C202.941 61.127 203.342 61.0977 203.791 61.1367C204.24 61.1367 204.934 60.8633 205.871 60.3164C206.73 59.8086 207.619 59.1641 208.537 58.3828C209.455 57.6211 210.178 56.918 210.705 56.2734C211.271 55.5898 211.477 55.1406 211.32 54.9258L211.145 54.6328ZM214.719 64.125C215.852 64.0273 216.809 63.9004 217.59 63.7441C218.059 63.666 218.557 63.5488 219.084 63.3926C219.514 63.2754 219.836 63.207 220.051 63.1875C220.402 63.168 220.891 63.2363 221.516 63.3926C222.414 63.5293 223.059 63.8223 223.449 64.2715C223.723 64.623 223.811 64.9941 223.713 65.3848C223.498 65.9902 223.244 66.3418 222.951 66.4395C222.717 66.5176 222.131 66.498 221.193 66.3809C219.904 66.2051 218.723 66.0977 217.648 66.0586C215.754 65.9805 213.645 66.0293 211.32 66.2051C209.211 66.4395 207.365 66.7227 205.783 67.0547C204.904 67.2305 203.957 67.4648 202.941 67.7578C202.141 67.9922 201.594 68.0996 201.301 68.0801C200.93 68.041 200.363 67.7969 199.602 67.3477C198.02 66.4492 197.248 65.7168 197.287 65.1504C197.326 64.6621 197.834 64.4668 198.811 64.5645C200.041 64.6816 201.838 64.7109 204.201 64.6523C206.623 64.6133 209.299 64.4863 212.229 64.2715C212.248 63.7637 212.15 63.2852 211.936 62.8359C211.779 62.5625 211.486 62.1719 211.057 61.6641L210.881 61.459C210.686 61.2637 210.598 61.0488 210.617 60.8145C210.617 60.5801 210.725 60.3945 210.939 60.2578C211.193 60.1016 211.525 60.0332 211.936 60.0527C212.404 60.0723 212.951 60.209 213.576 60.4629C214.318 60.7949 214.768 61.1465 214.924 61.5176C215.021 61.7715 215.002 62.1816 214.865 62.748C214.807 63.0215 214.768 63.2266 214.748 63.3633C214.709 63.6172 214.689 63.8613 214.689 64.0957L214.719 64.125ZM210.617 77.0742C211.457 77.0742 212.404 76.9863 213.459 76.8105C214.631 76.6152 215.48 76.3906 216.008 76.1367C215.949 75.7852 215.891 75.1895 215.832 74.3496C215.773 73.6074 215.715 72.6602 215.656 71.5078C215.168 71.6055 214.709 71.7227 214.279 71.8594C214.025 71.918 213.713 72.0059 213.342 72.123L212.463 72.3574C212.229 72.3965 212.014 72.377 211.818 72.2988C211.662 72.2598 211.359 72.123 210.91 71.8887L210.734 71.8008C210.051 71.4688 209.758 71.166 209.855 70.8926C209.953 70.5801 210.441 70.375 211.32 70.2773C211.887 70.1797 212.453 70.0625 213.02 69.9258C213.605 69.7891 214.182 69.6426 214.748 69.4863L215.744 69.1055C216.213 68.9102 216.564 68.832 216.799 68.8711C217.111 68.9297 217.58 69.2129 218.205 69.7207C218.732 70.1699 219.025 70.541 219.084 70.834C219.123 71.0293 219.064 71.3027 218.908 71.6543C218.83 71.8105 218.771 71.9277 218.732 72.0059C218.674 72.1621 218.635 72.3281 218.615 72.5039C218.518 73.793 218.41 74.6621 218.293 75.1113C218.234 75.4434 218.107 75.7559 217.912 76.0488L217.59 76.6055C218.449 77.3086 218.684 77.8848 218.293 78.334C217.883 78.7832 216.975 78.959 215.568 78.8613C214.064 79.0566 213.01 79.1445 212.404 79.125C212.033 79.1055 211.691 79.0176 211.379 78.8613C211.262 78.8027 211.164 78.7539 211.086 78.7148C210.93 78.6562 210.773 78.6172 210.617 78.5977C210.266 79.5742 209.914 80.0723 209.562 80.0918C209.211 80.1113 208.84 79.6133 208.449 78.5977C208.176 77.7383 207.932 76.8789 207.717 76.0195C207.561 75.375 207.365 74.4473 207.131 73.2363C207.014 73.0605 206.877 72.8652 206.721 72.6504C206.623 72.5332 206.477 72.3574 206.281 72.123C205.891 71.6152 205.637 71.2441 205.52 71.0098C205.344 70.6387 205.334 70.3262 205.49 70.0723C205.686 69.7207 206.174 69.6523 206.955 69.8672C207.678 70.043 208.439 70.3945 209.24 70.9219C209.709 71.2344 210.012 71.5371 210.148 71.8301C210.227 72.0254 210.256 72.3184 210.236 72.709C210.217 72.9043 210.207 73.0508 210.207 73.1484C210.207 73.3242 210.227 73.5 210.266 73.6758L210.617 77.0742ZM227.332 57.123C227.058 57.1621 226.853 57.0352 226.716 56.7422C226.58 56.5078 226.511 56.2051 226.511 55.834C226.511 55.4629 226.58 55.1504 226.716 54.8965C226.853 54.6426 227.058 54.5449 227.332 54.6035C228.679 54.6816 229.968 54.7305 231.199 54.75C232.644 54.75 234.207 54.7012 235.886 54.6035C238.425 54.6035 240.33 55.5508 241.599 57.4453C242.791 59.2617 243.386 61.9082 243.386 65.3848C243.386 68.8418 242.791 71.4785 241.599 73.2949C240.33 75.209 238.425 76.166 235.886 76.166C234.168 76.0684 232.605 76.0195 231.199 76.0195C229.929 76.0391 228.64 76.0879 227.332 76.166C227.058 76.2051 226.853 76.0879 226.716 75.8145C226.58 75.5605 226.511 75.248 226.511 74.877C226.511 74.5059 226.58 74.1934 226.716 73.9395C226.853 73.666 227.058 73.5586 227.332 73.6172C227.976 73.6758 228.425 73.6855 228.679 73.6465C229.05 73.5684 229.236 73.373 229.236 73.0605V57.8262C229.236 57.4746 229.05 57.25 228.679 57.1523C228.367 57.0547 227.918 57.0449 227.332 57.123ZM231.931 57.123V73.6465H235.652C237.117 73.6465 238.269 73.041 239.109 71.8301C240.105 70.4434 240.603 68.2949 240.603 65.3848C240.603 62.4551 240.105 60.2969 239.109 58.9102C238.269 57.7188 237.117 57.123 235.652 57.123H231.931ZM255.433 57.0938C255.433 56.6641 255.189 56.1465 254.701 55.541C254.369 55.1309 253.783 54.5352 252.943 53.7539C252.67 53.5195 252.601 53.3047 252.738 53.1094C252.875 52.8945 253.177 52.7773 253.646 52.7578C254.154 52.7383 254.73 52.8359 255.375 53.0508C256.136 53.3242 256.918 53.7539 257.718 54.3398C258.187 54.6914 258.48 55.0039 258.597 55.2773C258.675 55.4531 258.695 55.7363 258.656 56.127C258.636 56.3027 258.617 56.4395 258.597 56.5371C258.597 56.7129 258.607 56.8887 258.627 57.0645V67.5234C258.627 69.9844 258.48 71.957 258.187 73.4414C257.972 74.6133 257.621 75.6973 257.132 76.6934C256.703 77.5918 256.42 78.002 256.283 77.9238C256.146 77.8652 256.234 77.3477 256.546 76.3711C256.605 76.0391 256.615 75.6777 256.576 75.2871C256.556 75.0332 256.478 74.584 256.341 73.9395C256.107 72.748 255.931 71.6836 255.814 70.7461C255.619 69.1055 255.521 67.2598 255.521 65.209C254.916 65.3066 254.359 65.4434 253.851 65.6191C253.578 65.7168 253.236 65.8535 252.826 66.0293C252.318 66.2832 251.918 66.3906 251.625 66.3516C251.214 66.3125 250.599 66.0293 249.779 65.502C248.841 64.8184 248.343 64.2812 248.285 63.8906C248.246 63.5 248.666 63.3828 249.545 63.5391C250.17 63.6172 250.951 63.6465 251.888 63.627C252.923 63.6074 254.125 63.5293 255.492 63.3926L255.433 57.0938ZM287.309 56.4785C286.567 56.4785 285.893 56.2734 285.288 55.8633C284.761 55.4922 284.272 54.9648 283.823 54.2812C283.53 53.832 283.471 53.5098 283.647 53.3145C283.823 53.0996 284.194 53.0605 284.761 53.1973C285.522 53.3145 286.264 53.3828 286.987 53.4023C287.436 53.4219 288.091 53.4316 288.95 53.4316H290.093C290.835 53.5293 291.186 53.9004 291.147 54.5449C291.128 55.209 290.776 55.6777 290.093 55.9512C289.643 56.0879 289.204 56.2051 288.774 56.3027C288.286 56.4004 287.866 56.459 287.514 56.4785H287.309ZM287.807 59.3203C287.104 59.418 286.45 59.5352 285.845 59.6719C285.493 59.7695 285.073 59.8867 284.585 60.0234C283.882 60.2188 283.393 60.2969 283.12 60.2578C282.749 60.2188 282.221 60.0039 281.538 59.6133C280.718 59.0273 280.356 58.5293 280.454 58.1191C280.552 57.748 280.981 57.582 281.743 57.6211C282.876 57.6797 283.872 57.6895 284.731 57.6504C285.727 57.5918 287.065 57.4453 288.745 57.2109C289.194 57.0938 289.624 56.9766 290.034 56.8594C290.268 56.7812 290.561 56.6836 290.913 56.5664C291.499 56.3711 291.909 56.2832 292.143 56.3027C292.436 56.3418 292.895 56.5664 293.52 56.9766C294.184 57.543 294.331 58.0898 293.96 58.6172C293.589 59.125 292.944 59.3301 292.026 59.2324C291.596 59.1934 291.001 59.1738 290.239 59.1738C289.38 59.1934 288.618 59.2422 287.954 59.3203H287.807ZM288.452 60.1992C286.968 60.1992 285.737 60.5898 284.761 61.3711C283.843 62.0938 283.374 62.9531 283.354 63.9492C283.354 65.4336 283.911 66.6348 285.024 67.5527C286.059 68.4121 287.319 68.8418 288.804 68.8418C290.171 68.8418 291.294 68.373 292.173 67.4355C292.993 66.5762 293.403 65.5801 293.403 64.4473C293.403 63.1582 292.876 62.1133 291.821 61.3125C290.864 60.5703 289.741 60.1992 288.452 60.1992ZM288.569 62.6602C289.038 62.6602 289.546 62.8457 290.093 63.2168C290.639 63.6074 290.913 64.0078 290.913 64.418C290.913 65.043 290.659 65.502 290.151 65.7949C289.741 66.0684 289.175 66.2051 288.452 66.2051C287.788 66.2051 287.182 65.9902 286.636 65.5605C286.128 65.1699 285.874 64.7695 285.874 64.3594C285.874 63.7539 286.147 63.3047 286.694 63.0117C287.163 62.7773 287.788 62.6602 288.569 62.6602ZM298.413 55.3359C298.413 54.9258 298.169 54.3984 297.68 53.7539C297.192 53.0703 296.567 52.416 295.805 51.791C295.63 51.6543 295.62 51.498 295.776 51.3223C295.932 51.127 296.225 51.0195 296.655 51C297.143 50.9609 297.729 51.0684 298.413 51.3223C299.233 51.6348 300.132 52.1426 301.108 52.8457C301.46 53.1387 301.675 53.4512 301.753 53.7832C301.811 53.9785 301.811 54.291 301.753 54.7207L301.723 55.4824L301.694 60.375C301.694 62.0352 301.528 63.4414 301.196 64.5938C301.001 65.2578 300.659 66.0293 300.171 66.9082L299.731 67.7871C299.341 68.666 299.096 69.0078 298.999 68.8125C298.921 68.6562 298.96 68.2266 299.116 67.5234C299.136 67.2109 299.126 66.8789 299.087 66.5273C299.067 66.293 299.009 65.9316 298.911 65.4434C298.774 64.7012 298.677 64.0762 298.618 63.5684C298.52 62.6895 298.471 61.7324 298.471 60.6973L298.413 55.3359ZM292.759 76.9277C293.637 76.9082 294.585 76.8105 295.6 76.6348C296.811 76.4395 297.68 76.1953 298.208 75.9023C298.13 75.5898 298.061 75.0332 298.003 74.2324C297.944 73.5488 297.886 72.6211 297.827 71.4492C297.3 71.5469 296.802 71.6543 296.333 71.7715C296.059 71.8301 295.737 71.9082 295.366 72.0059L294.575 72.2109C294.341 72.2305 294.116 72.2109 293.901 72.1523C293.745 72.1133 293.432 71.9863 292.964 71.7715L292.876 71.7422C292.173 71.4102 291.87 71.0977 291.968 70.8047C292.065 70.5117 292.563 70.3164 293.462 70.2188C293.97 70.1211 294.536 69.9941 295.161 69.8379C295.688 69.7207 296.274 69.584 296.919 69.4277L297.505 69.1641C298.012 68.9297 298.413 68.8223 298.706 68.8418C299.155 68.9004 299.721 69.2324 300.405 69.8379C300.932 70.3457 301.235 70.7949 301.313 71.1855C301.352 71.4004 301.284 71.6934 301.108 72.0645C301.05 72.2207 301.001 72.3281 300.962 72.3867C300.923 72.5234 300.893 72.6504 300.874 72.7676C300.757 73.7051 300.649 74.3984 300.552 74.8477C300.473 75.1211 300.376 75.3945 300.259 75.668C300.18 75.8047 300.122 75.9219 300.083 76.0195C300.024 76.1758 299.975 76.3516 299.936 76.5469C300.737 77.2109 300.923 77.7578 300.493 78.1875C300.063 78.6172 299.136 78.7832 297.71 78.6855C296.225 78.8809 295.18 78.9688 294.575 78.9492C294.204 78.9297 293.852 78.8418 293.52 78.6855C293.384 78.627 293.276 78.5781 293.198 78.5391C293.061 78.4805 292.905 78.4414 292.729 78.4219C292.221 79.2227 291.802 79.6426 291.47 79.6816C291.079 79.7012 290.786 79.2812 290.591 78.4219C290.415 77.9727 290.259 77.4648 290.122 76.8984C290.024 76.5469 289.907 76.0488 289.77 75.4043C289.653 74.8574 289.565 74.4668 289.507 74.2324C289.409 73.8223 289.311 73.4609 289.214 73.1484C289.096 72.9727 288.96 72.7773 288.804 72.5625C288.706 72.4453 288.559 72.2695 288.364 72.0352C287.954 71.5273 287.69 71.1562 287.573 70.9219C287.397 70.5703 287.387 70.2578 287.544 69.9844C287.759 69.6328 288.257 69.5645 289.038 69.7793C289.761 69.9551 290.532 70.3066 291.352 70.834C291.841 71.166 292.153 71.4785 292.29 71.7715C292.368 71.9668 292.397 72.2695 292.378 72.6797C292.358 72.8555 292.348 72.9922 292.348 73.0898C292.348 73.2461 292.358 73.4121 292.378 73.5879L292.759 76.9277ZM311.7 57.709C311.7 57.416 311.573 57.2402 311.319 57.1816C311.162 57.123 310.772 57.1035 310.147 57.123L309.912 57.1523C309.678 57.1719 309.493 57.0547 309.356 56.8008C309.239 56.5469 309.18 56.2441 309.18 55.8926C309.18 55.5215 309.239 55.2188 309.356 54.9844C309.493 54.7109 309.678 54.5938 309.912 54.6328C310.694 54.6914 311.426 54.7207 312.11 54.7207C312.793 54.7207 313.399 54.6914 313.926 54.6328C314.258 54.5742 314.522 54.623 314.717 54.7793C314.815 54.8965 314.942 55.1309 315.098 55.4824L316.914 59.3496L322.334 70.8633V57.6211C322.334 57.3477 322.129 57.1816 321.719 57.123C321.426 57.0645 321.065 57.0742 320.635 57.1523C320.323 57.1523 320.079 57.0156 319.903 56.7422C319.746 56.4883 319.668 56.1855 319.668 55.834C319.668 55.4629 319.746 55.1602 319.903 54.9258C320.079 54.6719 320.323 54.5742 320.635 54.6328C321.182 54.7109 322.002 54.75 323.096 54.75C324.17 54.75 325.264 54.7109 326.377 54.6328C326.631 54.5742 326.836 54.6816 326.993 54.9551C327.149 55.1895 327.227 55.4922 327.227 55.8633C327.227 56.2344 327.149 56.5371 326.993 56.7715C326.836 57.0449 326.631 57.1719 326.377 57.1523L326.055 57.123C325.684 57.123 325.44 57.1426 325.323 57.1816C325.127 57.2402 325.03 57.3867 325.03 57.6211V74.4961C325.03 75.1211 324.883 75.6289 324.59 76.0195C324.356 76.3516 324.034 76.5566 323.623 76.6348C323.252 76.6934 322.881 76.625 322.51 76.4297C322.12 76.2148 321.827 75.9023 321.631 75.4922L319.61 71.3027L314.395 60.1406V73.1191C314.395 73.4121 314.61 73.5879 315.039 73.6465C315.313 73.6855 315.664 73.6758 316.094 73.6172C316.387 73.5586 316.621 73.6758 316.797 73.9688C316.973 74.2031 317.061 74.5156 317.061 74.9062C317.061 75.2773 316.973 75.5801 316.797 75.8145C316.621 76.1074 316.387 76.2344 316.094 76.1953C315.391 76.1172 314.502 76.0781 313.428 76.0781C312.452 76.0586 311.28 76.0781 309.912 76.1367C309.678 76.1758 309.493 76.0586 309.356 75.7852C309.239 75.5312 309.18 75.2188 309.18 74.8477C309.18 74.457 309.239 74.1445 309.356 73.9102C309.493 73.6367 309.678 73.5391 309.912 73.6172H310.498C310.987 73.6367 311.289 73.627 311.407 73.5879C311.602 73.5293 311.7 73.373 311.7 73.1191V57.709ZM339.889 63.3633V56.9473C339.889 56.4199 339.655 55.8828 339.186 55.3359C338.912 55.0039 338.385 54.4863 337.604 53.7832L337.399 53.6074C337.204 53.4121 337.184 53.2266 337.34 53.0508C337.496 52.875 337.78 52.7773 338.19 52.7578C338.678 52.7383 339.225 52.8359 339.83 53.0508C340.573 53.3242 341.344 53.7539 342.145 54.3398C342.594 54.6914 342.868 55.0137 342.965 55.3066C343.024 55.502 343.024 55.8047 342.965 56.2148L342.907 57.0352L342.76 67.7578C342.76 70.0625 342.604 71.8984 342.291 73.2656C342.135 74.0664 341.823 74.9551 341.354 75.9316L341.002 76.8105C340.612 77.6113 340.358 77.9824 340.241 77.9238C340.104 77.8457 340.153 77.3965 340.387 76.5762C340.465 76.2246 340.495 75.7852 340.475 75.2578C340.475 74.9258 340.426 74.3105 340.329 73.4121C340.192 72.2207 340.094 71.2246 340.036 70.4238C339.957 69.0371 339.918 67.5918 339.918 66.0879C338.727 66.2246 337.877 66.2441 337.37 66.1465C337.037 66.0684 336.686 65.8633 336.315 65.5312L335.875 65.1504C335.875 67.5723 335.739 69.3887 335.465 70.5996C335.309 71.3418 334.996 72.1523 334.528 73.0312L334.235 73.6172C333.766 74.4961 333.502 74.8477 333.444 74.6719C333.405 74.5547 333.473 74.1348 333.649 73.4121C333.727 72.9043 333.746 72.3672 333.707 71.8008C333.688 71.4492 333.629 70.834 333.532 69.9551C333.356 68.5293 333.229 67.2695 333.151 66.1758C333.034 64.2422 332.975 62.0547 332.975 59.6133C332.975 59.0859 332.731 58.4902 332.243 57.8262C331.93 57.3965 331.481 56.8984 330.895 56.332C330.719 56.1758 330.7 56.0195 330.836 55.8633C330.973 55.6875 331.217 55.5898 331.569 55.5703C331.998 55.5312 332.477 55.6191 333.004 55.834C333.668 56.0684 334.371 56.459 335.114 57.0059C335.543 57.3184 335.797 57.6016 335.875 57.8555C335.934 58.0312 335.934 58.3242 335.875 58.7344L335.787 59.6133L335.875 63.7734C336.325 63.7734 336.94 63.7441 337.721 63.6855C338.639 63.6074 339.332 63.5098 339.801 63.3926L339.889 63.3633ZM359.475 74.6719C359.475 75.2578 359.24 75.7363 358.771 76.1074C358.342 76.4785 357.834 76.6641 357.248 76.6641C356.623 76.6641 356.096 76.4785 355.666 76.1074C355.217 75.7363 354.992 75.2578 354.992 74.6719C354.992 74.0859 355.217 73.5977 355.666 73.207C356.096 72.8555 356.623 72.6797 357.248 72.6797C357.814 72.6797 358.322 72.8555 358.771 73.207C359.24 73.5977 359.475 74.0859 359.475 74.6719ZM368.865 74.6719C368.865 75.2578 368.63 75.7363 368.162 76.1074C367.732 76.4785 367.224 76.6641 366.638 76.6641C366.013 76.6641 365.486 76.4785 365.056 76.1074C364.607 75.7363 364.382 75.2578 364.382 74.6719C364.382 74.0859 364.607 73.5977 365.056 73.207C365.486 72.8555 366.013 72.6797 366.638 72.6797C367.205 72.6797 367.712 72.8555 368.162 73.207C368.63 73.5977 368.865 74.0859 368.865 74.6719ZM378.255 74.6719C378.255 75.2578 378.021 75.7363 377.552 76.1074C377.122 76.4785 376.614 76.6641 376.029 76.6641C375.404 76.6641 374.876 76.4785 374.446 76.1074C373.997 75.7363 373.773 75.2578 373.773 74.6719C373.773 74.0859 373.997 73.5977 374.446 73.207C374.876 72.8555 375.404 72.6797 376.029 72.6797C376.595 72.6797 377.103 72.8555 377.552 73.207C378.021 73.5977 378.255 74.0859 378.255 74.6719ZM407.114 66.293C406.176 66.4102 405.336 66.5664 404.594 66.7617C404.164 66.8789 403.676 67.0352 403.129 67.2305C402.504 67.4453 402.026 67.5332 401.694 67.4941C401.264 67.4355 400.502 67.1328 399.409 66.5859C398.432 65.9805 397.993 65.4629 398.09 65.0332C398.188 64.6426 398.686 64.4766 399.584 64.5352C401.381 64.5742 403.11 64.5449 404.77 64.4473C406.528 64.3496 408.139 64.1738 409.604 63.9199C409.565 63.2168 409.506 62.4844 409.428 61.7227C409.311 60.7461 409.184 60.0723 409.047 59.7012C408.383 58.4902 408.246 57.6992 408.637 57.3281C409.028 56.957 409.858 57.1719 411.127 57.9727C411.772 58.4414 412.153 58.832 412.27 59.1445C412.348 59.3594 412.299 59.7207 412.123 60.2285L412.036 60.6387C412.055 61.1855 411.977 61.6348 411.801 61.9863C411.704 62.2012 411.528 62.4453 411.274 62.7188C411.098 62.9141 410.981 63.0605 410.922 63.1582C410.805 63.334 410.737 63.5391 410.717 63.7734L411.332 63.627C412.016 63.4707 412.504 63.4316 412.797 63.5098C413.246 63.6465 413.559 64.0859 413.735 64.8281C413.852 65.4727 413.657 65.8828 413.149 66.0586C412.817 66.1562 412.055 66.1953 410.864 66.1758C410.161 66.1562 409.604 66.1465 409.194 66.1465C408.491 66.166 407.836 66.2148 407.231 66.293H407.114ZM406.821 57.1816C406.039 57.2598 405.317 57.3574 404.653 57.4746C404.282 57.5527 403.842 57.6602 403.334 57.7969C402.651 57.9727 402.153 58.0312 401.84 57.9727C401.469 57.8945 400.834 57.6113 399.936 57.123C398.92 56.459 398.413 55.9219 398.413 55.5117C398.413 55.1406 398.823 54.9746 399.643 55.0137C402.866 55.209 405.268 55.2188 406.85 55.043C407.788 54.9258 408.637 54.6914 409.399 54.3398C409.711 54.2031 409.965 54.1055 410.161 54.0469C410.473 53.9492 410.844 53.8906 411.274 53.8711C412.25 53.9102 412.963 54.2129 413.413 54.7793C413.862 55.4043 413.725 56.0098 413.002 56.5957C412.729 56.8105 412.475 56.9375 412.241 56.9766C412.084 57.0156 411.743 57.0254 411.215 57.0059C410.629 56.9863 410.112 56.9863 409.663 57.0059C408.862 57.0059 407.973 57.0547 406.996 57.1523L406.821 57.1816ZM401.196 60.6094C400.746 59.9258 400.62 59.4082 400.815 59.0566C401.069 58.6074 401.801 58.5879 403.012 58.998C403.676 59.252 404.106 59.4863 404.301 59.7012C404.418 59.8574 404.487 60.1113 404.506 60.4629L404.565 61.0488C404.721 61.5566 404.77 61.957 404.711 62.25C404.672 62.4258 404.545 62.6797 404.33 63.0117L404.038 63.5098C403.784 63.998 403.588 64.2324 403.452 64.2129C403.354 64.1934 403.207 63.9785 403.012 63.5684C402.875 63.2754 402.709 62.9824 402.514 62.6895C402.416 62.5332 402.25 62.2891 402.016 61.957C401.84 61.7031 401.704 61.5078 401.606 61.3711C401.469 61.1562 401.362 60.9609 401.284 60.7852L401.196 60.6094ZM409.37 74.1152C406.479 74.2715 404.008 74.5352 401.957 74.9062C400.805 75.1211 399.614 75.4141 398.383 75.7852C397.407 76.0586 396.704 76.1562 396.274 76.0781C395.786 75.9805 394.848 75.5312 393.461 74.7305C392.817 74.3594 392.348 74.0078 392.055 73.6758C391.821 73.3828 391.723 73.1289 391.762 72.9141C391.801 72.7188 391.938 72.5723 392.172 72.4746C392.407 72.3965 392.651 72.3867 392.905 72.4453C394.33 72.6602 396.772 72.709 400.229 72.5918C402.846 72.4941 405.678 72.3281 408.725 72.0938C409.76 71.9961 410.659 71.8496 411.42 71.6543C411.87 71.5371 412.377 71.3711 412.944 71.1562C413.53 70.9414 413.998 70.834 414.35 70.834C414.838 70.8535 415.6 71.0781 416.635 71.5078C417.143 71.7422 417.514 72.0449 417.748 72.416C417.944 72.748 418.012 73.0898 417.954 73.4414C417.914 73.7539 417.788 74.0273 417.573 74.2617C417.358 74.4961 417.143 74.6133 416.928 74.6133C416.557 74.6133 416.205 74.584 415.873 74.5254C415.678 74.5059 415.375 74.457 414.965 74.3789C414.243 74.2227 413.588 74.125 413.002 74.0859C412.026 74.0078 410.815 74.0176 409.37 74.1152ZM423.535 57.5332C423.535 57.3379 423.379 57.2109 423.066 57.1523C422.871 57.1133 422.529 57.0938 422.041 57.0938L421.66 57.123C421.387 57.1426 421.172 57.0156 421.016 56.7422C420.859 56.5078 420.781 56.2051 420.781 55.834C420.781 55.4629 420.859 55.1602 421.016 54.9258C421.172 54.6523 421.387 54.5449 421.66 54.6035C422.422 54.6816 423.428 54.7207 424.678 54.7207C425.908 54.7207 427.275 54.6816 428.779 54.6035C429.131 54.5449 429.414 54.6523 429.629 54.9258C429.824 55.1602 429.922 55.4629 429.922 55.834C429.922 56.2051 429.824 56.5078 429.629 56.7422C429.414 57.0156 429.131 57.1426 428.779 57.123L428.252 57.0938C427.549 57.0938 427.07 57.1133 426.816 57.1523C426.426 57.2109 426.23 57.3379 426.23 57.5332V72.7969C426.23 73.1875 426.445 73.4414 426.875 73.5586C427.168 73.6172 427.852 73.6465 428.926 73.6465H429.922C430.938 73.6465 431.65 73.5977 432.061 73.5C432.588 73.3828 432.969 73.1387 433.203 72.7676C433.418 72.3965 433.555 71.8105 433.613 71.0098C433.633 70.3848 433.623 69.3105 433.584 67.7871C433.545 67.4355 433.682 67.1621 433.994 66.9668C434.268 66.791 434.619 66.7031 435.049 66.7031C435.459 66.7031 435.791 66.791 436.045 66.9668C436.338 67.1621 436.465 67.4355 436.426 67.7871C436.289 69.3887 436.191 70.6973 436.133 71.7129C436.055 73.1973 436.064 74.3008 436.162 75.0234C436.162 75.5703 436.035 75.9219 435.781 76.0781C435.508 76.2148 434.971 76.2441 434.17 76.166C432.451 76.1074 430.4 76.0781 428.018 76.0781C425.654 76.0781 423.535 76.1074 421.66 76.166C421.387 76.2051 421.172 76.0977 421.016 75.8438C420.859 75.5898 420.781 75.2773 420.781 74.9062C420.781 74.5352 420.859 74.2324 421.016 73.998C421.172 73.7051 421.387 73.5879 421.66 73.6465C422.188 73.7246 422.598 73.7246 422.891 73.6465C423.32 73.5293 423.535 73.2461 423.535 72.7969V57.5332ZM447.662 58.7637L445.259 66.4688H450.035L447.662 58.7637ZM442.242 54.6035C442.828 54.6426 443.453 54.6621 444.117 54.6621C444.527 54.6621 445.113 54.6523 445.875 54.6328L447.72 54.6035C448.111 54.6035 448.482 54.7402 448.834 55.0137C449.263 55.3652 449.576 55.8926 449.771 56.5957L454.722 72.5918C454.879 73.0996 455.064 73.4121 455.279 73.5293C455.513 73.6465 455.982 73.6855 456.685 73.6465C456.92 73.6074 457.115 73.7246 457.271 73.998C457.408 74.2324 457.476 74.5352 457.476 74.9062C457.476 75.2773 457.408 75.5801 457.271 75.8145C457.115 76.0879 456.92 76.2148 456.685 76.1953C455.552 76.0781 454.468 76.0195 453.433 76.0195C452.418 76.0195 451.373 76.0781 450.298 76.1953C449.986 76.2148 449.742 76.0879 449.566 75.8145C449.41 75.5801 449.332 75.2773 449.332 74.9062C449.332 74.5352 449.41 74.2324 449.566 73.998C449.742 73.7246 449.986 73.6074 450.298 73.6465C450.962 73.7051 451.431 73.6562 451.705 73.5C452.017 73.3242 452.105 73.0215 451.968 72.5918L450.855 68.9883H444.439L443.326 72.5918C443.189 73.0215 443.277 73.3242 443.589 73.5C443.824 73.6562 444.156 73.7051 444.586 73.6465C444.859 73.6074 445.084 73.7246 445.259 73.998C445.396 74.2324 445.464 74.5352 445.464 74.9062C445.464 75.2773 445.396 75.5801 445.259 75.8145C445.084 76.0879 444.859 76.2148 444.586 76.1953C443.57 76.0977 442.613 76.0488 441.714 76.0488C440.796 76.0488 439.742 76.0977 438.55 76.1953C438.336 76.2148 438.16 76.0879 438.023 75.8145C437.906 75.5801 437.847 75.2773 437.847 74.9062C437.847 74.5352 437.906 74.2324 438.023 73.998C438.16 73.7246 438.336 73.6074 438.55 73.6465C439.117 73.7051 439.546 73.666 439.839 73.5293C440.171 73.373 440.416 73.0605 440.572 72.5918L445.025 58.1777C445.142 57.748 445.201 57.4844 445.201 57.3867C445.201 57.2305 445.113 57.1328 444.937 57.0938L444.673 57.0645C444.576 57.0645 444.263 57.0742 443.736 57.0938C443.209 57.1133 442.711 57.123 442.242 57.123C441.968 57.1426 441.754 57.0254 441.597 56.7715C441.441 56.5176 441.363 56.2148 441.363 55.8633C441.363 55.4922 441.441 55.1895 441.597 54.9551C441.754 54.6816 441.968 54.5645 442.242 54.6035ZM461.593 57.709C461.593 57.416 461.466 57.2402 461.212 57.1816C461.056 57.123 460.665 57.1035 460.04 57.123L459.806 57.1523C459.571 57.1719 459.386 57.0547 459.249 56.8008C459.132 56.5469 459.073 56.2441 459.073 55.8926C459.073 55.5215 459.132 55.2188 459.249 54.9844C459.386 54.7109 459.571 54.5938 459.806 54.6328C460.587 54.6914 461.32 54.7207 462.003 54.7207C462.687 54.7207 463.292 54.6914 463.82 54.6328C464.152 54.5742 464.415 54.623 464.611 54.7793C464.708 54.8965 464.835 55.1309 464.991 55.4824L466.808 59.3496L472.228 70.8633V57.6211C472.228 57.3477 472.023 57.1816 471.612 57.123C471.32 57.0645 470.958 57.0742 470.529 57.1523C470.216 57.1523 469.972 57.0156 469.796 56.7422C469.64 56.4883 469.562 56.1855 469.562 55.834C469.562 55.4629 469.64 55.1602 469.796 54.9258C469.972 54.6719 470.216 54.5742 470.529 54.6328C471.075 54.7109 471.896 54.75 472.989 54.75C474.064 54.75 475.157 54.7109 476.271 54.6328C476.525 54.5742 476.73 54.6816 476.886 54.9551C477.042 55.1895 477.12 55.4922 477.12 55.8633C477.12 56.2344 477.042 56.5371 476.886 56.7715C476.73 57.0449 476.525 57.1719 476.271 57.1523L475.948 57.123C475.577 57.123 475.333 57.1426 475.216 57.1816C475.021 57.2402 474.923 57.3867 474.923 57.6211V74.4961C474.923 75.1211 474.777 75.6289 474.484 76.0195C474.249 76.3516 473.927 76.5566 473.517 76.6348C473.146 76.6934 472.775 76.625 472.404 76.4297C472.013 76.2148 471.72 75.9023 471.525 75.4922L469.503 71.3027L464.288 60.1406V73.1191C464.288 73.4121 464.503 73.5879 464.933 73.6465C465.206 73.6855 465.558 73.6758 465.987 73.6172C466.28 73.5586 466.515 73.6758 466.691 73.9688C466.866 74.2031 466.954 74.5156 466.954 74.9062C466.954 75.2773 466.866 75.5801 466.691 75.8145C466.515 76.1074 466.28 76.2344 465.987 76.1953C465.284 76.1172 464.396 76.0781 463.321 76.0781C462.345 76.0586 461.173 76.0781 459.806 76.1367C459.571 76.1758 459.386 76.0586 459.249 75.7852C459.132 75.5312 459.073 75.2188 459.073 74.8477C459.073 74.457 459.132 74.1445 459.249 73.9102C459.386 73.6367 459.571 73.5391 459.806 73.6172H460.392C460.88 73.6367 461.183 73.627 461.3 73.5879C461.495 73.5293 461.593 73.373 461.593 73.1191V57.709ZM480.534 57.123C480.261 57.1621 480.055 57.0352 479.919 56.7422C479.782 56.5078 479.714 56.2051 479.714 55.834C479.714 55.4629 479.782 55.1504 479.919 54.8965C480.055 54.6426 480.261 54.5449 480.534 54.6035C481.882 54.6816 483.171 54.7305 484.401 54.75C485.846 54.75 487.409 54.7012 489.089 54.6035C491.628 54.6035 493.532 55.5508 494.802 57.4453C495.993 59.2617 496.589 61.9082 496.589 65.3848C496.589 68.8418 495.993 71.4785 494.802 73.2949C493.532 75.209 491.628 76.166 489.089 76.166C487.37 76.0684 485.807 76.0195 484.401 76.0195C483.132 76.0391 481.843 76.0879 480.534 76.166C480.261 76.2051 480.055 76.0879 479.919 75.8145C479.782 75.5605 479.714 75.248 479.714 74.877C479.714 74.5059 479.782 74.1934 479.919 73.9395C480.055 73.666 480.261 73.5586 480.534 73.6172C481.179 73.6758 481.628 73.6855 481.882 73.6465C482.253 73.5684 482.438 73.373 482.438 73.0605V57.8262C482.438 57.4746 482.253 57.25 481.882 57.1523C481.569 57.0547 481.12 57.0449 480.534 57.123ZM485.134 57.123V73.6465H488.854C490.319 73.6465 491.471 73.041 492.311 71.8301C493.307 70.4434 493.805 68.2949 493.805 65.3848C493.805 62.4551 493.307 60.2969 492.311 58.9102C491.471 57.7188 490.319 57.123 488.854 57.123H485.134Z" fill="#363635"/>
<path d="M223.719 91.9824C223.719 91.6895 223.523 91.5039 223.133 91.4258C222.801 91.3477 222.42 91.3574 221.99 91.4551C221.736 91.4746 221.541 91.3379 221.404 91.0449C221.268 90.8105 221.199 90.5078 221.199 90.1367C221.199 89.7852 221.268 89.4824 221.404 89.2285C221.541 88.9746 221.736 88.8672 221.99 88.9062C223.104 89.0039 224.168 89.0625 225.184 89.082C226.316 89.082 227.186 89.0234 227.791 88.9062C228.064 88.8477 228.289 88.9551 228.465 89.2285C228.602 89.4629 228.67 89.7656 228.67 90.1367C228.67 90.4883 228.602 90.791 228.465 91.0449C228.289 91.3379 228.064 91.4746 227.791 91.4551L227.498 91.4258C227.088 91.4258 226.814 91.4453 226.678 91.4844C226.502 91.5625 226.414 91.7285 226.414 91.9824V98.0469H233.914V91.8945C233.914 91.6797 233.816 91.543 233.621 91.4844C233.504 91.4453 233.25 91.4258 232.859 91.4258L232.537 91.4551C232.244 91.4746 232.01 91.3477 231.834 91.0742C231.678 90.8398 231.6 90.5371 231.6 90.166C231.6 89.7949 231.678 89.4824 231.834 89.2285C232.01 88.9551 232.244 88.8477 232.537 88.9062C233.572 88.9844 234.471 89.0234 235.232 89.0234C236.014 89.0234 236.98 88.9844 238.133 88.9062C238.406 88.8477 238.631 88.9551 238.807 89.2285C238.943 89.4824 239.012 89.7949 239.012 90.166C239.012 90.5371 238.943 90.8398 238.807 91.0742C238.631 91.3477 238.406 91.4746 238.133 91.4551L237.811 91.4258C237.381 91.4258 237.098 91.4453 236.961 91.4844C236.727 91.543 236.609 91.6797 236.609 91.8945V107.715C236.609 107.91 236.756 108.027 237.049 108.066C237.283 108.086 237.645 108.057 238.133 107.979C238.406 107.92 238.631 108.027 238.807 108.301C238.943 108.555 239.012 108.877 239.012 109.268C239.012 109.658 238.943 109.971 238.807 110.205C238.631 110.479 238.406 110.576 238.133 110.498C237.273 110.42 236.346 110.381 235.35 110.381C234.354 110.381 233.416 110.42 232.537 110.498C232.244 110.537 232.01 110.42 231.834 110.146C231.678 109.893 231.6 109.57 231.6 109.18C231.6 108.809 231.678 108.506 231.834 108.271C232.01 107.998 232.244 107.9 232.537 107.979C233.025 108.057 233.357 108.086 233.533 108.066C233.768 108.047 233.895 107.93 233.914 107.715V100.566H226.414V107.598C226.414 107.832 226.512 107.969 226.707 108.008C226.844 108.047 227.127 108.037 227.557 107.979H227.791C228.064 107.939 228.289 108.057 228.465 108.33C228.602 108.564 228.67 108.857 228.67 109.209C228.67 109.561 228.602 109.863 228.465 110.117C228.289 110.391 228.064 110.518 227.791 110.498C226.971 110.42 226.082 110.381 225.125 110.381C224.285 110.381 223.24 110.42 221.99 110.498C221.736 110.537 221.541 110.42 221.404 110.146C221.268 109.893 221.199 109.58 221.199 109.209C221.199 108.838 221.268 108.535 221.404 108.301C221.541 108.027 221.736 107.92 221.99 107.979C222.479 108.037 222.859 108.057 223.133 108.037C223.523 107.998 223.719 107.852 223.719 107.598V91.9824ZM246.996 91.4551V100.186H251.273C252.386 100.186 253.246 99.9121 253.851 99.3652C254.671 98.623 255.082 97.3633 255.082 95.5859C255.082 94.0234 254.671 92.9004 253.851 92.2168C253.226 91.709 252.367 91.4551 251.273 91.4551H246.996ZM244.3 91.9531C244.3 91.6992 244.173 91.543 243.92 91.4844C243.763 91.4453 243.431 91.4258 242.923 91.4258L242.455 91.4551C242.162 91.4941 241.937 91.3672 241.781 91.0742C241.644 90.8398 241.576 90.5273 241.576 90.1367C241.576 89.7656 241.644 89.4629 241.781 89.2285C241.937 88.9551 242.162 88.8574 242.455 88.9355C243.509 89.0137 244.564 89.0527 245.619 89.0527C246.341 89.0527 247.689 89.0234 249.662 88.9648L251.625 88.9355C253.656 88.9355 255.218 89.5215 256.312 90.6934C257.367 91.8457 257.894 93.4766 257.894 95.5859C257.894 97.9492 257.367 99.7266 256.312 100.918C255.257 102.109 253.695 102.705 251.625 102.705H246.996V107.422C246.996 107.754 247.269 107.959 247.816 108.037C248.129 108.076 248.744 108.066 249.662 108.008L250.189 107.979C250.58 107.92 250.892 108.027 251.127 108.301C251.322 108.555 251.42 108.867 251.42 109.238C251.42 109.609 251.322 109.912 251.127 110.146C250.892 110.42 250.58 110.537 250.189 110.498C248.783 110.439 247.474 110.41 246.263 110.41C245.072 110.41 243.802 110.439 242.455 110.498C242.162 110.537 241.937 110.42 241.781 110.146C241.644 109.893 241.576 109.57 241.576 109.18C241.576 108.809 241.644 108.506 241.781 108.271C241.937 107.998 242.162 107.9 242.455 107.979L242.923 108.008C243.431 108.066 243.763 108.066 243.92 108.008C244.173 107.949 244.3 107.754 244.3 107.422V91.9531ZM276.249 100.625C275.312 100.742 274.472 100.898 273.73 101.094C273.3 101.211 272.812 101.367 272.265 101.562C271.64 101.777 271.161 101.865 270.829 101.826C270.4 101.768 269.638 101.465 268.544 100.918C267.568 100.312 267.128 99.7949 267.226 99.3652C267.323 98.9746 267.821 98.8086 268.72 98.8672C270.517 98.9062 272.245 98.877 273.905 98.7793C275.663 98.6816 277.275 98.5059 278.739 98.252C278.7 97.5488 278.642 96.8164 278.564 96.0547C278.446 95.0781 278.32 94.4043 278.183 94.0332C277.519 92.8223 277.382 92.0312 277.773 91.6602C278.163 91.2891 278.993 91.5039 280.263 92.3047C280.907 92.7734 281.288 93.1641 281.405 93.4766C281.484 93.6914 281.435 94.0527 281.259 94.5605L281.171 94.9707C281.191 95.5176 281.112 95.9668 280.937 96.3184C280.839 96.5332 280.663 96.7773 280.409 97.0508C280.234 97.2461 280.116 97.3926 280.058 97.4902C279.941 97.666 279.872 97.8711 279.853 98.1055L280.468 97.959C281.152 97.8027 281.64 97.7637 281.933 97.8418C282.382 97.9785 282.695 98.418 282.87 99.1602C282.987 99.8047 282.792 100.215 282.284 100.391C281.952 100.488 281.191 100.527 279.999 100.508C279.296 100.488 278.739 100.479 278.329 100.479C277.626 100.498 276.972 100.547 276.366 100.625H276.249ZM275.956 91.5137C275.175 91.5918 274.452 91.6895 273.788 91.8066C273.417 91.8848 272.978 91.9922 272.47 92.1289C271.786 92.3047 271.288 92.3633 270.976 92.3047C270.605 92.2266 269.97 91.9434 269.071 91.4551C268.056 90.791 267.548 90.2539 267.548 89.8438C267.548 89.4727 267.958 89.3066 268.779 89.3457C272.001 89.541 274.404 89.5508 275.986 89.375C276.923 89.2578 277.773 89.0234 278.534 88.6719C278.847 88.5352 279.101 88.4375 279.296 88.3789C279.609 88.2812 279.98 88.2227 280.409 88.2031C281.386 88.2422 282.099 88.5449 282.548 89.1113C282.997 89.7363 282.861 90.3418 282.138 90.9277C281.864 91.1426 281.611 91.2695 281.376 91.3086C281.22 91.3477 280.878 91.3574 280.351 91.3379C279.765 91.3184 279.247 91.3184 278.798 91.3379C277.997 91.3379 277.109 91.3867 276.132 91.4844L275.956 91.5137ZM270.331 94.9414C269.882 94.2578 269.755 93.7402 269.95 93.3887C270.204 92.9395 270.937 92.9199 272.148 93.3301C272.812 93.584 273.241 93.8184 273.437 94.0332C273.554 94.1895 273.622 94.4434 273.642 94.7949L273.7 95.3809C273.857 95.8887 273.905 96.2891 273.847 96.582C273.808 96.7578 273.681 97.0117 273.466 97.3438L273.173 97.8418C272.919 98.3301 272.724 98.5645 272.587 98.5449C272.489 98.5254 272.343 98.3105 272.148 97.9004C272.011 97.6074 271.845 97.3145 271.65 97.0215C271.552 96.8652 271.386 96.6211 271.152 96.2891C270.976 96.0352 270.839 95.8398 270.741 95.7031C270.605 95.4883 270.497 95.293 270.419 95.1172L270.331 94.9414ZM278.505 108.447C275.614 108.604 273.144 108.867 271.093 109.238C269.941 109.453 268.749 109.746 267.519 110.117C266.542 110.391 265.839 110.488 265.409 110.41C264.921 110.312 263.984 109.863 262.597 109.062C261.952 108.691 261.484 108.34 261.191 108.008C260.956 107.715 260.859 107.461 260.898 107.246C260.937 107.051 261.073 106.904 261.308 106.807C261.542 106.729 261.786 106.719 262.04 106.777C263.466 106.992 265.907 107.041 269.364 106.924C271.982 106.826 274.814 106.66 277.861 106.426C278.896 106.328 279.794 106.182 280.556 105.986C281.005 105.869 281.513 105.703 282.079 105.488C282.665 105.273 283.134 105.166 283.486 105.166C283.974 105.186 284.736 105.41 285.771 105.84C286.279 106.074 286.65 106.377 286.884 106.748C287.079 107.08 287.148 107.422 287.089 107.773C287.05 108.086 286.923 108.359 286.708 108.594C286.493 108.828 286.279 108.945 286.064 108.945C285.693 108.945 285.341 108.916 285.009 108.857C284.814 108.838 284.511 108.789 284.101 108.711C283.378 108.555 282.724 108.457 282.138 108.418C281.161 108.34 279.95 108.35 278.505 108.447ZM292.554 92.041C292.573 91.7676 292.485 91.5918 292.29 91.5137C292.173 91.4746 291.85 91.4551 291.323 91.4551L290.796 91.4844C290.542 91.5039 290.337 91.377 290.18 91.1035C290.063 90.8496 290.005 90.5469 290.005 90.1953C290.005 89.8438 290.063 89.5508 290.18 89.3164C290.337 89.043 290.542 88.9258 290.796 88.9648C291.733 89.043 292.524 89.082 293.169 89.082C293.794 89.082 294.419 89.0527 295.044 88.9941C295.571 88.877 295.923 88.8867 296.098 89.0234C296.235 89.1016 296.372 89.3555 296.509 89.7852L296.596 89.9902L300.171 100.42C300.288 100.771 300.405 100.947 300.522 100.947C300.639 100.947 300.757 100.771 300.874 100.42L304.389 90.2832L304.448 90.1074C304.643 89.6582 304.809 89.3652 304.946 89.2285C305.22 88.9941 305.61 88.916 306.118 88.9941C306.762 89.0527 307.387 89.082 307.993 89.082C308.598 89.082 309.35 89.0527 310.249 88.9941C310.522 88.9355 310.737 89.0527 310.893 89.3457C311.05 89.5996 311.128 89.9121 311.128 90.2832C311.128 90.6738 311.05 90.9863 310.893 91.2207C310.737 91.4746 310.522 91.5723 310.249 91.5137C309.585 91.4551 309.145 91.4453 308.93 91.4844C308.657 91.543 308.52 91.709 308.52 91.9824V107.393C308.52 107.764 308.647 107.988 308.901 108.066C309.096 108.105 309.516 108.086 310.161 108.008H310.249C310.522 107.93 310.737 108.018 310.893 108.271C311.05 108.506 311.128 108.809 311.128 109.18C311.128 109.531 311.05 109.834 310.893 110.088C310.737 110.381 310.522 110.518 310.249 110.498C309.175 110.439 308.13 110.41 307.114 110.41C306.079 110.41 305.132 110.439 304.272 110.498C303.979 110.518 303.755 110.391 303.598 110.117C303.462 109.863 303.393 109.561 303.393 109.209C303.393 108.838 303.462 108.535 303.598 108.301C303.755 108.047 303.979 107.949 304.272 108.008C304.8 108.086 305.161 108.105 305.356 108.066C305.669 107.988 305.825 107.764 305.825 107.393V94.2383L303.218 101.592L301.899 105.635C301.645 106.396 301.177 106.777 300.493 106.777C299.829 106.777 299.38 106.396 299.145 105.635L297.71 101.533L295.249 94.2383V107.393C295.249 107.686 295.376 107.881 295.63 107.979C295.884 108.076 296.274 108.086 296.802 108.008C297.075 107.949 297.3 108.057 297.475 108.33C297.632 108.564 297.71 108.867 297.71 109.238C297.71 109.609 297.632 109.912 297.475 110.146C297.3 110.42 297.075 110.537 296.802 110.498C296.137 110.4 295.249 110.352 294.136 110.352C293.179 110.352 292.065 110.391 290.796 110.469C290.542 110.508 290.337 110.4 290.18 110.146C290.063 109.912 290.005 109.609 290.005 109.238C290.005 108.867 290.063 108.564 290.18 108.33C290.337 108.057 290.542 107.939 290.796 107.979C291.382 108.057 291.811 108.057 292.085 107.979C292.397 107.881 292.554 107.686 292.554 107.393V92.041ZM320.421 91.3672C320.421 90.8398 320.128 90.2441 319.542 89.5801C319.112 89.1113 318.487 88.5547 317.667 87.9102C317.491 87.7344 317.52 87.5586 317.755 87.3828C317.97 87.207 318.311 87.1094 318.78 87.0898C319.346 87.0898 319.942 87.207 320.567 87.4414C321.348 87.7344 322.13 88.1934 322.911 88.8184C323.302 89.1309 323.536 89.4238 323.614 89.6973C323.653 89.873 323.643 90.1562 323.585 90.5469L323.497 91.2793V101.387C323.497 103.516 323.302 105.479 322.911 107.275C322.696 108.291 322.374 109.395 321.944 110.586L321.856 110.938C321.446 112.07 321.192 112.48 321.095 112.168C321.016 111.914 321.055 111.426 321.212 110.703C321.251 110.371 321.261 110.02 321.241 109.648C321.221 109.414 321.163 109.014 321.065 108.447C320.909 107.49 320.802 106.65 320.743 105.928C320.626 104.658 320.567 103.242 320.567 101.68L320.421 91.3672ZM343.346 109.004C343.346 109.59 343.112 110.068 342.643 110.439C342.213 110.811 341.705 110.996 341.12 110.996C340.495 110.996 339.967 110.811 339.537 110.439C339.088 110.068 338.864 109.59 338.864 109.004C338.864 108.418 339.088 107.93 339.537 107.539C339.967 107.188 340.495 107.012 341.12 107.012C341.686 107.012 342.194 107.188 342.643 107.539C343.112 107.93 343.346 108.418 343.346 109.004ZM352.736 109.004C352.736 109.59 352.502 110.068 352.033 110.439C351.604 110.811 351.096 110.996 350.51 110.996C349.885 110.996 349.357 110.811 348.928 110.439C348.479 110.068 348.254 109.59 348.254 109.004C348.254 108.418 348.479 107.93 348.928 107.539C349.357 107.188 349.885 107.012 350.51 107.012C351.076 107.012 351.584 107.188 352.033 107.539C352.502 107.93 352.736 108.418 352.736 109.004ZM362.127 109.004C362.127 109.59 361.892 110.068 361.423 110.439C360.994 110.811 360.486 110.996 359.9 110.996C359.275 110.996 358.748 110.811 358.318 110.439C357.869 110.068 357.644 109.59 357.644 109.004C357.644 108.418 357.869 107.93 358.318 107.539C358.748 107.188 359.275 107.012 359.9 107.012C360.466 107.012 360.974 107.188 361.423 107.539C361.892 107.93 362.127 108.418 362.127 109.004ZM374.421 93.0987L380.091 90.7287L374.421 88.0587V86.8887L381.501 90.3987V91.1487L374.421 94.2687V93.0987ZM389.305 120.099C388.005 120.099 386.885 119.869 385.945 119.409C385.025 118.969 384.315 118.329 383.815 117.489C383.335 116.649 383.095 115.649 383.095 114.489C383.095 113.069 383.455 111.819 384.175 110.739C384.915 109.659 385.895 108.759 387.115 108.039C388.295 107.339 389.655 106.819 391.195 106.479C392.735 106.119 394.335 105.939 395.995 105.939C397.595 105.939 399.045 106.079 400.345 106.359C401.665 106.619 402.825 106.989 403.825 107.469C404.965 108.009 405.915 108.659 406.675 109.419C407.435 110.159 407.995 110.959 408.355 111.819C408.735 112.699 408.925 113.589 408.925 114.489C408.925 116.229 408.375 117.599 407.275 118.599C406.195 119.599 404.625 120.099 402.565 120.099C401.165 120.099 399.795 119.899 398.455 119.499C397.135 119.119 395.855 118.539 394.615 117.759C393.575 117.259 392.565 116.579 391.585 115.719C390.605 114.859 389.695 113.889 388.855 112.809C388.035 111.749 387.335 110.669 386.755 109.569C385.835 107.909 385.125 106.239 384.625 104.559C384.145 102.859 383.905 101.039 383.905 99.0987C383.905 97.3587 384.195 95.6587 384.775 93.9987C385.375 92.3387 386.275 90.8487 387.475 89.5287C388.695 88.2087 390.225 87.1587 392.065 86.3787C393.925 85.5787 396.115 85.1787 398.635 85.1787C401.095 85.1787 403.205 85.5187 404.965 86.1987C406.745 86.8787 408.215 87.8987 409.375 89.2587C410.135 90.1587 410.765 91.1587 411.265 92.2587C411.765 93.3587 412.135 94.6087 412.375 96.0087C412.635 97.3887 412.765 98.9887 412.765 100.809V110.469H410.185V102.309C410.185 100.389 410.075 98.6787 409.855 97.1787C409.635 95.6787 409.285 94.3687 408.805 93.2487C408.325 92.1087 407.695 91.1387 406.915 90.3387C405.975 89.3587 404.835 88.6287 403.495 88.1487C402.155 87.6687 400.535 87.4287 398.635 87.4287C396.955 87.4287 395.375 87.6887 393.895 88.2087C392.435 88.7087 391.145 89.4587 390.025 90.4587C388.925 91.4587 388.055 92.6887 387.415 94.1487C386.795 95.6087 386.485 97.2987 386.485 99.2187C386.485 100.459 386.575 101.599 386.755 102.639C386.935 103.659 387.205 104.639 387.565 105.579C387.925 106.519 388.355 107.479 388.855 108.459C389.315 109.439 389.935 110.439 390.715 111.459C391.495 112.479 392.405 113.439 393.445 114.339C394.485 115.239 395.605 116.009 396.805 116.649C397.665 117.129 398.535 117.459 399.415 117.639C400.315 117.839 401.275 117.939 402.295 117.939C403.775 117.939 404.815 117.599 405.415 116.919C406.035 116.259 406.345 115.399 406.345 114.339C406.345 113.319 406.035 112.389 405.415 111.549C404.795 110.709 403.995 110.039 403.015 109.539C402.055 109.039 400.965 108.679 399.745 108.459C398.545 108.219 397.315 108.099 396.055 108.099C394.295 108.099 392.755 108.279 391.435 108.639C390.135 108.979 389.065 109.429 388.225 109.989C387.345 110.569 386.695 111.229 386.275 111.969C385.855 112.729 385.645 113.509 385.645 114.309C385.645 115.409 385.955 116.289 386.575 116.949C387.215 117.609 388.245 117.939 389.665 117.939C390.545 117.939 391.385 117.869 392.185 117.729C392.985 117.609 393.775 117.329 394.555 116.889C395.795 116.329 396.935 115.569 397.975 114.609C399.015 113.649 399.905 112.589 400.645 111.429C401.405 110.269 401.945 109.119 402.265 107.979C402.545 107.159 402.745 106.339 402.865 105.519C403.005 104.679 403.075 103.829 403.075 102.969C403.075 101.529 402.875 100.319 402.475 99.3387C402.095 98.3387 401.595 97.5487 400.975 96.9687C400.355 96.3887 399.705 95.9887 399.025 95.7687L397.525 95.6187C397.385 95.5987 397.215 95.5887 397.015 95.5887C396.835 95.5687 396.655 95.5587 396.475 95.5587C395.755 95.5587 395.105 95.6687 394.525 95.8887C393.965 96.0887 393.515 96.4087 393.175 96.8487C392.835 97.2887 392.665 97.8387 392.665 98.4987C392.665 99.2387 392.885 99.8587 393.325 100.359C393.785 100.859 394.425 101.109 395.245 101.109C395.985 101.109 396.585 100.879 397.045 100.419C397.505 99.9387 397.735 99.2687 397.735 98.4087C397.735 97.7687 397.615 97.1787 397.375 96.6387C397.135 96.0987 396.755 95.5587 396.235 95.0187L398.635 95.1687C398.915 95.4487 399.155 95.7787 399.355 96.1587C399.575 96.5187 399.745 96.9187 399.865 97.3587C400.005 97.7787 400.075 98.2287 400.075 98.7087C400.075 99.5687 399.885 100.339 399.505 101.019C399.125 101.679 398.575 102.199 397.855 102.579C397.135 102.959 396.245 103.149 395.185 103.149C394.285 103.149 393.465 102.959 392.725 102.579C391.985 102.199 391.395 101.659 390.955 100.959C390.515 100.259 390.295 99.4487 390.295 98.5287C390.295 97.3887 390.585 96.4487 391.165 95.7087C391.765 94.9487 392.575 94.3887 393.595 94.0287C394.615 93.6687 395.755 93.4887 397.015 93.4887C398.935 93.4887 400.535 93.8787 401.815 94.6587C403.095 95.4387 404.055 96.5287 404.695 97.9287C405.355 99.3287 405.685 100.969 405.685 102.849C405.685 103.729 405.595 104.759 405.415 105.939C405.235 107.119 404.895 108.279 404.395 109.419C403.955 110.639 403.375 111.779 402.655 112.839C401.955 113.899 401.145 114.859 400.225 115.719C399.305 116.579 398.305 117.319 397.225 117.939C395.945 118.619 394.645 119.149 393.325 119.529C392.005 119.909 390.665 120.099 389.305 120.099ZM415.405 117.669L420.205 108.039H421.405L426.175 117.669H424.375L420.835 110.349L417.205 117.669H415.405ZM433.867 120.099C432.567 120.099 431.447 119.869 430.507 119.409C429.587 118.969 428.877 118.329 428.377 117.489C427.897 116.649 427.657 115.649 427.657 114.489C427.657 113.069 428.017 111.819 428.737 110.739C429.477 109.659 430.457 108.759 431.677 108.039C432.857 107.339 434.217 106.819 435.757 106.479C437.297 106.119 438.897 105.939 440.557 105.939C442.157 105.939 443.607 106.079 444.907 106.359C446.227 106.619 447.387 106.989 448.387 107.469C449.527 108.009 450.477 108.659 451.237 109.419C451.997 110.159 452.557 110.959 452.917 111.819C453.297 112.699 453.487 113.589 453.487 114.489C453.487 116.229 452.937 117.599 451.837 118.599C450.757 119.599 449.187 120.099 447.127 120.099C445.727 120.099 444.357 119.899 443.017 119.499C441.697 119.119 440.417 118.539 439.177 117.759C438.137 117.259 437.127 116.579 436.147 115.719C435.167 114.859 434.257 113.889 433.417 112.809C432.597 111.749 431.897 110.669 431.317 109.569C430.397 107.909 429.687 106.239 429.187 104.559C428.707 102.859 428.467 101.039 428.467 99.0987C428.467 97.3587 428.757 95.6587 429.337 93.9987C429.937 92.3387 430.837 90.8487 432.037 89.5287C433.257 88.2087 434.787 87.1587 436.627 86.3787C438.487 85.5787 440.677 85.1787 443.197 85.1787C445.657 85.1787 447.767 85.5187 449.527 86.1987C451.307 86.8787 452.777 87.8987 453.937 89.2587C454.697 90.1587 455.327 91.1587 455.827 92.2587C456.327 93.3587 456.697 94.6087 456.937 96.0087C457.197 97.3887 457.327 98.9887 457.327 100.809V110.469H454.747V102.309C454.747 100.389 454.637 98.6787 454.417 97.1787C454.197 95.6787 453.847 94.3687 453.367 93.2487C452.887 92.1087 452.257 91.1387 451.477 90.3387C450.537 89.3587 449.397 88.6287 448.057 88.1487C446.717 87.6687 445.097 87.4287 443.197 87.4287C441.517 87.4287 439.937 87.6887 438.457 88.2087C436.997 88.7087 435.707 89.4587 434.587 90.4587C433.487 91.4587 432.617 92.6887 431.977 94.1487C431.357 95.6087 431.047 97.2987 431.047 99.2187C431.047 100.459 431.137 101.599 431.317 102.639C431.497 103.659 431.767 104.639 432.127 105.579C432.487 106.519 432.917 107.479 433.417 108.459C433.877 109.439 434.497 110.439 435.277 111.459C436.057 112.479 436.967 113.439 438.007 114.339C439.047 115.239 440.167 116.009 441.367 116.649C442.227 117.129 443.097 117.459 443.977 117.639C444.877 117.839 445.837 117.939 446.857 117.939C448.337 117.939 449.377 117.599 449.977 116.919C450.597 116.259 450.907 115.399 450.907 114.339C450.907 113.319 450.597 112.389 449.977 111.549C449.357 110.709 448.557 110.039 447.577 109.539C446.617 109.039 445.527 108.679 444.307 108.459C443.107 108.219 441.877 108.099 440.617 108.099C438.857 108.099 437.317 108.279 435.997 108.639C434.697 108.979 433.627 109.429 432.787 109.989C431.907 110.569 431.257 111.229 430.837 111.969C430.417 112.729 430.207 113.509 430.207 114.309C430.207 115.409 430.517 116.289 431.137 116.949C431.777 117.609 432.807 117.939 434.227 117.939C435.107 117.939 435.947 117.869 436.747 117.729C437.547 117.609 438.337 117.329 439.117 116.889C440.357 116.329 441.497 115.569 442.537 114.609C443.577 113.649 444.467 112.589 445.207 111.429C445.967 110.269 446.507 109.119 446.827 107.979C447.107 107.159 447.307 106.339 447.427 105.519C447.567 104.679 447.637 103.829 447.637 102.969C447.637 101.529 447.437 100.319 447.037 99.3387C446.657 98.3387 446.157 97.5487 445.537 96.9687C444.917 96.3887 444.267 95.9887 443.587 95.7687L442.087 95.6187C441.947 95.5987 441.777 95.5887 441.577 95.5887C441.397 95.5687 441.217 95.5587 441.037 95.5587C440.317 95.5587 439.667 95.6687 439.087 95.8887C438.527 96.0887 438.077 96.4087 437.737 96.8487C437.397 97.2887 437.227 97.8387 437.227 98.4987C437.227 99.2387 437.447 99.8587 437.887 100.359C438.347 100.859 438.987 101.109 439.807 101.109C440.547 101.109 441.147 100.879 441.607 100.419C442.067 99.9387 442.297 99.2687 442.297 98.4087C442.297 97.7687 442.177 97.1787 441.937 96.6387C441.697 96.0987 441.317 95.5587 440.797 95.0187L443.197 95.1687C443.477 95.4487 443.717 95.7787 443.917 96.1587C444.137 96.5187 444.307 96.9187 444.427 97.3587C444.567 97.7787 444.637 98.2287 444.637 98.7087C444.637 99.5687 444.447 100.339 444.067 101.019C443.687 101.679 443.137 102.199 442.417 102.579C441.697 102.959 440.807 103.149 439.747 103.149C438.847 103.149 438.027 102.959 437.287 102.579C436.547 102.199 435.957 101.659 435.517 100.959C435.077 100.259 434.857 99.4487 434.857 98.5287C434.857 97.3887 435.147 96.4487 435.727 95.7087C436.327 94.9487 437.137 94.3887 438.157 94.0287C439.177 93.6687 440.317 93.4887 441.577 93.4887C443.497 93.4887 445.097 93.8787 446.377 94.6587C447.657 95.4387 448.617 96.5287 449.257 97.9287C449.917 99.3287 450.247 100.969 450.247 102.849C450.247 103.729 450.157 104.759 449.977 105.939C449.797 107.119 449.457 108.279 448.957 109.419C448.517 110.639 447.937 111.779 447.217 112.839C446.517 113.899 445.707 114.859 444.787 115.719C443.867 116.579 442.867 117.319 441.787 117.939C440.507 118.619 439.207 119.149 437.887 119.529C436.567 119.909 435.227 120.099 433.867 120.099ZM461.406 88.6587C461.406 89.8887 462.096 90.9087 463.056 90.9087C463.956 90.9087 464.706 89.8887 464.706 88.6587C464.706 87.4287 463.956 86.4087 463.056 86.4087C462.096 86.4087 461.406 87.4287 461.406 88.6587ZM460.176 88.6587C460.176 86.6187 461.436 84.9687 463.056 84.9687C464.646 84.9687 465.906 86.6187 465.906 88.6587C465.906 90.6987 464.646 92.3487 463.056 92.3487C461.436 92.3487 460.176 90.6987 460.176 88.6587Z" fill="#363635"/>
</g>
</g>
</g>
<defs>
<linearGradient id="paint0_linear_54_17568" x1="358" y1="158.071" x2="358" y2="1.88435e-05" gradientUnits="userSpaceOnUse">
<stop stop-color="#8C9497"/>
<stop offset="1" stop-color="#5E6365"/>
</linearGradient>
<linearGradient id="paint1_linear_54_17568" x1="356.96" y1="74.1328" x2="348.051" y2="311.323" gradientUnits="userSpaceOnUse">
<stop stop-color="#4E585E"/>
<stop offset="1" stop-color="#699FBD"/>
</linearGradient>
<linearGradient id="paint2_linear_54_17568" x1="360.249" y1="263.914" x2="366.969" y2="117.224" gradientUnits="userSpaceOnUse">
<stop stop-color="#BFE0F7"/>
<stop offset="1" stop-color="#84A7BB"/>
</linearGradient>
<clipPath id="clip0_54_17568">
<rect width="714" height="370" fill="white"/>
</clipPath>
<clipPath id="clip1_54_17568">
<rect width="714" height="370" fill="white" transform="translate(0 -1)"/>
</clipPath>
<clipPath id="clip2_54_17568">
<rect width="716" height="370" fill="white" transform="translate(0.0898438 -1)"/>
</clipPath>
</defs>
</svg>
