<svg width="250" height="285" viewBox="0 0 250 285" fill="none" xmlns="http://www.w3.org/2000/svg">
<g clip-path="url(#clip0_2566_6830)">
<path d="M59.0801 120.693C22.8295 111.513 23.1906 87.8397 28.4821 73.5652C-16.4175 107.906 14.0943 152.892 34.9626 171.093L59.0801 120.693Z" fill="#7FE6CF"/>
<path d="M161.86 72.5429C180.872 40.3416 163.811 23.926 149.95 17.6297C205.951 9.93809 216.401 63.2821 214.626 90.9155L161.86 72.5429Z" fill="#7FE6CF"/>
<path d="M99.0693 89.3239C9.59046 136.362 8.44208 239.373 19.0531 285H250.496V82.8926C237.304 65.4378 152.601 61.1827 99.0693 89.3239Z" fill="#7FE6CF"/>
<rect x="152.533" y="111.58" width="17.6397" height="17.0143" rx="3.79413" transform="rotate(-12.0325 152.533 111.58)" stroke="#2AD4AF" stroke-width="6.0706"/>
<rect x="147.184" y="101.049" width="6.06542" height="18.7735" rx="1.51765" transform="rotate(-12.0325 147.184 101.049)" fill="#2AD4AF"/>
<rect x="164.441" y="97.3711" width="6.06542" height="18.7735" rx="1.51765" transform="rotate(-12.0325 164.441 97.3711)" fill="#2AD4AF"/>
<rect x="85.8647" y="139.08" width="18.5354" height="17.8782" rx="3.98678" transform="rotate(-30 85.8647 139.08)" stroke="#2AD4AF" stroke-width="6.37885"/>
<path d="M131.17 162.359C127.959 162.58 120.722 157.752 117.27 154.998C116.655 154.507 116.416 153.681 116.705 152.948C122.332 138.652 145.997 136.614 152.514 138.769C156.827 140.643 148.431 161.171 131.17 162.359Z" fill="#2AD4AF"/>
<rect width="65" height="8" transform="matrix(-1 0 0 1 213 184)" fill="#2AD4AF"/>
<ellipse cx="22.5" cy="14.5" rx="22.5" ry="14.5" transform="matrix(-1 0 0 1 170 174)" fill="#2AD4AF"/>
<path d="M237.246 179.327C243.713 180.376 241.608 182 251.945 182C236.784 188.891 213.472 168.992 213.128 191.042C212.783 213.093 237.94 220.919 253.445 220C221.746 225.169 209.338 206.547 210.027 191.042C210.716 175.537 224.498 177.26 237.246 179.327Z" fill="#2AD4AF"/>
<rect x="-2.07719" y="0.902237" width="32.828" height="32.828" rx="4.00341" transform="matrix(-0.930276 -0.366859 -0.366859 0.930276 168.257 161.52)" fill="#7FE6CF" stroke="#2AD4AF" stroke-width="3.20273"/>
<path d="M151.103 184.302C150.385 184.495 149.95 184.264 149.793 183.585L149.422 181.274C149.32 180.706 149.523 180.353 150.08 180.204L152.444 179.57C153 179.421 153.418 179.682 153.645 180.342L154.383 182.355C154.576 183.074 154.245 183.51 153.421 183.681L151.103 184.302ZM154.984 166.516C155.469 168.324 155.038 170.055 153.702 171.655C152.373 173.278 151.773 174.284 151.885 174.701L152.487 176.95C152.68 177.668 152.455 178.126 151.806 178.3L149.835 178.828C149.232 178.99 148.85 178.769 148.666 178.172L147.902 175.321C147.672 174.463 148.233 173.22 149.638 171.601C151.043 169.982 151.596 168.616 151.298 167.504C150.565 164.768 149.155 163.68 147.115 164.227C145.075 164.773 144.31 165.997 144.819 167.898C144.993 168.547 144.779 168.952 144.199 169.108L142.414 169.586C141.858 169.735 141.522 169.502 141.354 168.876C140.163 164.524 141.683 161.756 145.902 160.626C150.469 159.402 153.5 161.348 154.984 166.516Z" fill="#2AD4AF"/>
</g>
<defs>
<clipPath id="clip0_2566_6830">
<rect width="250" height="285" fill="white"/>
</clipPath>
</defs>
</svg>
