<svg width="126" height="132" viewBox="0 0 126 132" fill="none" xmlns="http://www.w3.org/2000/svg">
<path d="M38.3877 21.8954C38.3379 20.35 40.0627 19.4137 41.2375 20.3484L53.7137 30.2752L39.0833 43.4663L38.3877 21.8954Z" fill="#8B7A70"/>
<path d="M1.97252 89.2837C-0.185997 90.9763 0.842281 94.432 3.5113 94.4549L17.5224 94.5756L16.6263 77.7929L1.97252 89.2837Z" fill="#BFD6F7"/>
<path d="M125.297 55.3394C125.943 53.8458 124.537 52.2827 123.081 52.8738L108.89 58.6311L116.255 76.2602L125.297 55.3394Z" fill="#BFD6F7"/>
<path d="M117.391 86.4364C117.391 118.345 94.5572 131.66 66.3906 131.66C38.2241 131.66 15.3906 118.345 15.3906 86.4364C15.3906 54.5275 38.2241 28.6602 66.3906 28.6602C94.5572 28.6602 117.391 54.5275 117.391 86.4364Z" fill="#BFD6F7"/>
<path fill-rule="evenodd" clip-rule="evenodd" d="M52.2594 47.793C51.6221 47.793 51.1055 48.3096 51.1055 48.9469C51.1055 49.5842 51.6221 50.1008 52.2594 50.1008H54.2175V55.4844H52.2594C51.6221 55.4844 51.1055 56.001 51.1055 56.6383C51.1055 57.2756 51.6221 57.7922 52.2594 57.7922H63.9515C64.5888 57.7922 65.1054 57.2756 65.1054 56.6383C65.1054 56.001 64.5888 55.4844 63.9515 55.4844H61.9922V50.1008H63.9515C64.5888 50.1008 65.1054 49.5842 65.1054 48.9469C65.1054 48.3096 64.5888 47.793 63.9515 47.793H52.2594ZM59.6589 50.1008H56.5508V55.4844H59.6589V50.1008Z" fill="#8B7A70"/>
<path fill-rule="evenodd" clip-rule="evenodd" d="M81.1539 47.793C80.5166 47.793 80 48.3096 80 48.9469C80 49.5842 80.5166 50.1008 81.1539 50.1008H83.112V55.4844H81.1539C80.5166 55.4844 80 56.001 80 56.6383C80 57.2756 80.5166 57.7922 81.1539 57.7922H92.8461C93.4833 57.7922 94 57.2756 94 56.6383C94 56.001 93.4833 55.4844 92.8461 55.4844H90.8906V50.1008H92.8461C93.4833 50.1008 94 49.5842 94 48.9469C94 48.3096 93.4833 47.793 92.8461 47.793H81.1539ZM88.5573 50.1008H85.4453V55.4844H88.5573V50.1008Z" fill="#8B7A70"/>
<path fill-rule="evenodd" clip-rule="evenodd" d="M98.1539 17C97.5166 17 97 17.5166 97 18.1539C97 18.7912 97.5166 19.3079 98.1539 19.3079H100.112V24.6914H98.1539C97.5166 24.6914 97 25.208 97 25.8453C97 26.4826 97.5166 26.9993 98.1539 26.9993H109.846C110.483 26.9993 111 26.4826 111 25.8453C111 25.208 110.483 24.6914 109.846 24.6914H107.891V19.3079H109.846C110.483 19.3079 111 18.7912 111 18.1539C111 17.5166 110.483 17 109.846 17H98.1539ZM105.557 19.3079H102.445V24.6914H105.557V19.3079Z" fill="#9BC0F5"/>
<ellipse cx="4.46579" cy="3.55783" rx="4.46579" ry="3.55783" transform="matrix(0.998508 -0.054597 0.0479631 0.998849 70 61.2812)" fill="#FAB9B9"/>
<path d="M108.279 101.452C108.279 115.646 89.7404 126.968 70.5058 126.968C51.2711 126.968 31 121.933 31 107.739C31 93.5444 54.9098 72.793 74.1445 72.793C93.3791 72.793 108.279 87.2579 108.279 101.452Z" fill="#EDF3FD"/>
</svg>
