<svg width="137" height="132" viewBox="0 0 137 132" fill="none" xmlns="http://www.w3.org/2000/svg">
<path d="M45.6175 19.1039C45.8154 17.7222 47.4824 17.1496 48.3364 18.17L57.9554 29.6625L42.6968 39.4949L45.6175 19.1039Z" fill="#8B7A70"/>
<path fill-rule="evenodd" clip-rule="evenodd" d="M62.742 132C90.9086 132 113.742 118.685 113.742 86.7763C113.742 81.8048 113.188 76.9799 112.145 72.3767L123.465 59.2241C124.393 58.1454 123.745 56.4838 122.417 56.5372L106.549 57.1751C97.6448 40.2997 81.3582 29 62.742 29C37.6672 29 16.8188 49.5004 12.5442 76.5136L0.854573 87.7741C-0.886 89.4508 0.207293 92.3867 2.50801 92.2143L11.9175 91.509C14.0824 120.007 36.0104 132 62.742 132Z" fill="#CFB8FC"/>
<path d="M102.942 102.085C102.942 115.5 84.9025 126.2 66.1852 126.2C47.468 126.2 27.7422 121.441 27.7422 108.026C27.7422 94.6119 51.0088 75 69.726 75C88.4433 75 102.942 88.6706 102.942 102.085Z" fill="#EBE1FF"/>
<path d="M41.0947 46.8725C41.0424 46.6549 41.1669 46.4435 41.3727 46.4003L50.042 44.5802C50.2478 44.537 50.4571 44.6784 50.5094 44.8959L51.1206 47.4381C51.178 47.6769 51.0229 47.9026 50.7914 47.9173L46.5404 48.187C46.5067 48.1891 46.4736 48.1959 46.4421 48.2072L41.8145 49.866L41.0947 46.8725Z" fill="#8B7A70"/>
<path d="M42.707 53.5703L47.5959 53.3542L51.7089 51.7544C51.9259 51.67 52.1741 51.8118 52.2322 52.0535L52.7826 54.3424C52.8349 54.5599 52.7104 54.7713 52.5046 54.8146L43.8353 56.6346C43.6295 56.6778 43.4202 56.5365 43.3679 56.3189L42.707 53.5703Z" fill="#8B7A70"/>
<path d="M43.8337 56.6366C43.6278 56.6798 43.4185 56.5385 43.3662 56.3209L41.2981 47.7192L44.8431 46.975L45.0482 50.7722C45.0518 50.8388 45.066 50.9049 45.0901 50.9678L47.006 55.9706L43.8337 56.6366Z" fill="#8B7A70"/>
<ellipse cx="2.61538" cy="3.42844" rx="2.61538" ry="3.42844" transform="matrix(0.962569 -0.127693 0.173294 1.01347 61.3398 58.5703)" fill="#EF8E8E"/>
<path d="M74.8072 45.954C74.8913 46.3575 74.7393 46.5791 74.3696 46.6435L69.7164 47.4542L70.2041 49.7946C71.7538 49.4967 73.2969 48.977 74.8334 48.2354C75.0899 48.135 75.247 48.1913 75.2946 48.4199L75.5077 49.4422C75.5609 49.6977 75.4926 49.8769 75.2998 49.9662C73.7291 50.7974 71.6279 51.4283 68.9762 51.8903C68.6957 51.9391 68.5303 51.8425 68.477 51.5869L67.4231 46.5295C67.3502 46.1798 67.505 45.9716 67.8874 45.905L72.6809 45.0699L72.3781 43.6172L67.4955 44.4678C67.164 44.5256 66.9718 44.3639 66.8933 43.9873L66.7447 43.2744C66.6662 42.8978 66.78 42.6828 67.1114 42.6251L73.2817 41.5502C73.6642 41.4836 73.9102 41.6498 73.9887 42.0264L74.8072 45.954Z" fill="#8B7A70"/>
<path d="M118.154 50.0769L121.418 50.5611L118.607 67.6514C118.516 68.2044 117.982 68.5528 117.438 68.414L115.806 67.9971C115.296 67.8669 114.967 67.3548 115.063 66.8384L118.154 50.0769Z" fill="#8754E6"/>
<ellipse cx="11.6617" cy="11.6617" rx="11.6617" ry="11.6617" transform="matrix(0.500716 0.865612 -0.739601 0.673046 124.322 21.0664)" fill="#8754E6"/>
<ellipse cx="8.74624" cy="8.74625" rx="8.74624" ry="8.74625" transform="matrix(0.500716 0.865612 -0.739601 0.673046 123.682 25.5605)" fill="#DDD0F6"/>
</svg>
