<svg width="348" height="420" viewBox="0 0 348 420" fill="none" xmlns="http://www.w3.org/2000/svg">
<path fill-rule="evenodd" clip-rule="evenodd" d="M251.057 213.072C254.287 198.635 260.791 178.309 270.465 170.176C280.899 161.405 290.77 189.582 295.87 210.606C321.558 211.47 341.989 216.455 348 223.948V420H109.692C101.281 385.927 100.046 318.862 141.961 268.978C134.894 256.396 124.125 232.744 126.638 218.578C129.316 203.489 161.398 224.694 178.102 237.935C182.511 235.209 187.167 232.621 192.082 230.187C209.625 221.498 230.42 215.993 251.057 213.072Z" fill="#F7D49F"/>
<path fill-rule="evenodd" clip-rule="evenodd" d="M250.986 256.526C251.126 256.832 251.341 257.082 251.601 257.264C251.913 257.798 252.471 258.157 253.117 258.184C255.29 258.276 259.411 258.324 262.195 257.585C265.052 256.826 268.826 254.619 270.679 253.467C271.362 253.042 271.683 252.229 271.501 251.446L270.652 247.794C270.364 246.558 268.983 245.923 267.847 246.487C265.372 247.716 261.394 249.586 258.84 250.265C258.337 250.399 257.816 250.477 257.29 250.511C256.691 249.198 256.2 247.818 256.029 246.574C255.719 244.318 256.278 241.342 256.831 239.158C257.181 237.778 256.057 236.392 254.642 236.549L250.181 237.045C249.349 237.138 248.672 237.755 248.533 238.581C248.175 240.709 247.605 244.845 248.001 247.726C248.394 250.594 250.057 254.505 250.986 256.526ZM178.982 275.954C178.766 275.643 178.75 275.237 178.95 274.915C179.882 273.413 182.673 269.093 185.206 266.933C187.703 264.805 192.205 262.849 193.86 262.17C194.22 262.022 194.627 262.115 194.895 262.391C194.985 262.426 195.071 262.475 195.15 262.538C196.559 263.678 200.448 266.943 202.263 269.698C204.059 272.424 205.441 277.1 205.918 278.846C206.03 279.254 205.853 279.68 205.492 279.9L199.208 283.719C198.624 284.074 197.857 283.729 197.715 283.061C197.258 280.916 196.228 276.807 194.626 274.377C193.914 273.296 192.822 272.179 191.663 271.158C191.15 271.598 190.65 272.025 190.183 272.424C187.936 274.339 185.297 278.553 184.017 280.723C183.653 281.341 182.761 281.383 182.351 280.794L178.982 275.954ZM258.547 384.035L255.756 399.11C255.907 400.544 256.952 403.4 259.844 405.261C258.992 409.121 256.712 414.41 252.154 414.41H261.001C261.823 412.743 263.294 409.425 264.008 406.802C267.658 407.295 270.029 405.341 270.832 404.136L274.416 392.834C281.874 395.202 290.932 395.989 301.323 394.294C285.818 395.214 253.774 388.092 254.119 366.042C254.326 352.771 269.009 355.473 283.974 358.227C293.875 360.05 303.9 361.895 309.936 359.151C302.312 359.151 292.207 357.097 284.834 355.598L284.834 355.598L284.834 355.598L284.833 355.598L284.833 355.598C282.211 355.065 279.934 354.602 278.237 354.327C275.969 353.959 273.668 353.602 271.413 353.351C267.921 351.859 265.567 349.268 264.758 348.02L263.467 353.083C256.619 353.602 251.434 356.684 251.018 366.042C250.731 372.501 253.912 379.379 260.014 384.832L258.547 384.035ZM223.541 280.17C225.94 281.081 232.015 281.902 237.125 277.897C239.697 275.881 241.427 274.177 242.738 272.886C244.683 270.97 245.707 269.963 247.188 270.189C249.669 270.569 258.8 272.509 256.751 282.349C254.701 292.189 235.656 298.16 229.877 295.644C224.097 293.128 220.429 289.847 220.548 285.513C220.667 281.18 221.634 280.786 223.541 280.17ZM266.443 336.61L265.283 343.693C265.859 344.895 268.671 347.739 275.321 349.496C281.971 351.252 286.038 350.228 287.24 349.496L291.483 341.267C302.019 337.789 309.623 327.864 309.623 316.163C309.623 301.566 297.789 289.733 283.192 289.733C268.595 289.733 256.762 301.566 256.762 316.163C256.762 324.403 260.533 331.763 266.443 336.61Z" fill="#F9BC5F"/>
<path d="M282.822 319.902C269.502 316.482 258.972 308.277 255.372 304.602C254.247 305.351 252.672 307.706 255.372 311.126C258.747 315.401 268.196 322.826 282.822 326.651C294.522 329.711 307.046 327.926 311.846 326.651L314.096 319.902C309.221 321.326 296.141 323.321 282.822 319.902Z" fill="#F7D49F"/>
</svg>
