<svg width="115" height="132" viewBox="0 0 115 132" fill="none" xmlns="http://www.w3.org/2000/svg">
<path fill-rule="evenodd" clip-rule="evenodd" d="M66.2707 17.0079C69.7037 19.0496 73.6794 23.8225 67.7928 31.6716L81.0233 37.9846C82.2831 30.8295 81.0964 16.6171 66.2707 17.0079ZM40.5496 22.8192C37.8416 24.9915 34.9966 29.5803 41.0122 35.6246L30.3875 42.6576C28.4382 36.6514 27.7416 24.275 40.5496 22.8192Z" fill="#98887F"/>
<path fill-rule="evenodd" clip-rule="evenodd" d="M63.8511 132C92.0176 132 114.851 118.685 114.851 86.7763C114.851 54.8673 92.0176 29 63.8511 29C39.0726 29 18.4213 49.0186 13.8117 75.5584L0.996708 86.6412C-1.07975 88.437 0.320616 91.8426 3.05969 91.6583L12.9894 90.9901C14.9263 119.862 36.9578 132 63.8511 132Z" fill="#70F5D9"/>
<path d="M103.053 94.4372C105.053 107.637 93.0531 126.837 61.8531 126.837C42.009 126.837 25.4531 115.85 25.4531 103.638C25.4531 89.9145 43.6623 78.932 60.6531 75.6876C78.6531 72.2504 101.053 81.2372 103.053 94.4372Z" fill="#B2FCEC"/>
<rect x="63.507" y="44.7799" width="5.82101" height="5.61462" rx="1.25201" transform="rotate(-9.38793 63.507 44.7799)" stroke="#98887F" stroke-width="2.00322"/>
<rect x="61.9062" y="41.2285" width="2.00154" height="6.19512" rx="0.500805" transform="rotate(-9.38793 61.9062 41.2285)" fill="#98887F"/>
<rect x="67.6523" y="40.2812" width="2.00154" height="6.19512" rx="0.500805" transform="rotate(-9.38793 67.6523 40.2812)" fill="#98887F"/>
<path d="M54.8541 60.7676C54.2437 60.6106 53.346 59.6731 52.5988 58.736C52.2266 58.2692 52.7753 57.5902 53.3663 57.6747C57.431 58.256 61.6518 55.022 63.1023 56.1017C64.1457 57.0362 59.8457 62.0517 54.8541 60.7676Z" fill="#EF8E8E"/>
<rect x="40.6616" y="48.9933" width="6.06507" height="5.85003" rx="1.30451" transform="rotate(-12.9891 40.6616 48.9933)" stroke="#98887F" stroke-width="2.08721"/>
<path d="M77.5977 53.7128C77.4402 53.0387 77.859 52.3645 78.5331 52.207L91.2507 49.2357C91.9248 49.0782 92.599 49.497 92.7565 50.1711L95.4964 61.8984C95.7208 62.8589 94.7992 63.6903 93.8668 63.3684L91.6262 62.5949C91.3667 62.5053 91.085 62.5034 90.8243 62.5894L87.7537 63.6026C87.3418 63.7386 87.0294 64.0778 86.9279 64.4995L86.6545 65.6349C86.5425 66.0996 86.176 66.4603 85.7095 66.5646L82.0659 67.3799C81.3949 67.53 80.7281 67.1115 80.5716 66.4418L77.5977 53.7128Z" fill="#299B82"/>
<path d="M87.8027 70.8459L87.8109 70.838L87.8188 70.8297L89.2899 69.2792L91.7803 66.7887L93.8579 64.8369C94.5606 64.1767 94.5851 63.0684 93.9121 62.3779L84.8134 53.0411C84.149 52.3593 83.0579 52.3453 82.3761 53.0096L73.0228 62.1245C72.3411 62.7888 72.327 63.88 72.9913 64.5617L82.1144 73.9235C82.7743 74.6007 83.8566 74.6197 84.5399 73.9662L87.8027 70.8459Z" fill="#299B82" stroke="#7FE6CF" stroke-width="0.940102"/>
<path d="M85.7866 65.7879C85.566 66.0029 85.3622 66.0073 85.1682 65.794L84.5667 65.0344C84.4145 64.8498 84.4167 64.6812 84.5875 64.5148L85.3133 63.8075C85.4841 63.641 85.6877 63.6507 85.903 63.8432L86.5771 64.421C86.7921 64.6416 86.7611 64.866 86.4981 65.0945L85.7866 65.7879ZM83.5891 58.5788C84.13 59.1339 84.3246 59.846 84.1661 60.6941C84.0145 61.5494 84.0012 62.034 84.126 62.1621L84.7987 62.8523C85.0136 63.0729 85.025 63.2838 84.8257 63.478L84.2209 64.0674C84.0359 64.2477 83.8532 64.2453 83.6658 64.0672L82.8129 63.192C82.5563 62.9287 82.5074 62.366 82.6872 61.4971C82.8671 60.6282 82.7906 60.0229 82.4578 59.6814C81.6395 58.8417 80.9102 58.734 80.284 59.3442C79.6578 59.9544 79.629 60.5512 80.1977 61.1347C80.3918 61.334 80.3964 61.5237 80.2185 61.6971L79.6706 62.231C79.4998 62.3974 79.3314 62.3812 79.1442 62.1891C77.8334 60.8583 77.8222 59.5513 79.1172 58.2892C80.519 56.9232 82.0074 57.0127 83.5891 58.5788Z" fill="#7FE6CF"/>
<path d="M84.3635 64.6041C82.8299 64.4776 82.07 66.3832 83.2584 67.3751L96.2211 78.1937C98.4145 80.0243 101.731 79.0986 102.583 76.4178L104.614 70.0306C105.446 67.4137 103.413 64.7187 100.646 64.7709L89.042 64.9898L84.3635 64.6041Z" fill="#55DDBF"/>
</svg>
