<svg width="72" height="63" viewBox="0 0 72 63" fill="none" xmlns="http://www.w3.org/2000/svg">
<mask id="path-1-outside-1_3369_17508" maskUnits="userSpaceOnUse" x="-0.00390625" y="0.582291" width="70" height="61" fill="black">
<rect fill="white" x="-0.00390625" y="0.582291" width="70" height="61"/>
<path fill-rule="evenodd" clip-rule="evenodd" d="M40.312 4.80077C40.8004 4.34299 41.6017 4.64776 41.6624 5.3144L42.1986 11.2025C48.102 13.8906 52.8362 19.1867 55.2946 25.8351L60.2149 25.3881L60.3353 23.4729C59.4202 22.8543 58.7752 21.85 58.653 20.6652C58.4339 18.5412 59.9781 16.6417 62.1022 16.4226C64.2262 16.2035 66.1257 17.7477 66.3448 19.8718C66.5191 21.5616 65.5774 23.1092 64.1156 23.7818L62.0209 33.2551C61.9216 33.4433 61.6036 33.7653 61.0605 33.7451C60.9155 34.3852 60.2113 35.7432 57.1131 37.5511C56.5227 51.5532 46.1068 57.4239 33.3442 57.4239C20.6333 57.4239 10.2501 51.6006 9.58299 37.7207L5.37205 38.0041C4.14028 38.087 3.51053 36.5554 4.44432 35.7479L10.016 30.9293C11.0059 25.3392 13.5162 20.3734 17.0362 16.6115L14.4983 10.1135C14.2548 9.48997 14.8355 8.85935 15.4769 9.05069L23.7972 11.5325C26.7196 10.0778 29.9488 9.27059 33.3442 9.27059C34.0482 9.27059 34.7451 9.30529 35.4336 9.37328L40.312 4.80077ZM57.1384 36.5454C58.2009 36.1724 59.778 35.2695 60.379 33.5515C59.9726 33.3201 59.7932 32.947 59.7517 32.75L59.9768 29.1714L57.0358 33.7433C57.1044 34.5789 57.1395 35.4255 57.1395 36.2815C57.1395 36.3698 57.1392 36.4577 57.1384 36.5454Z"/>
</mask>
<path d="M41.6624 5.3144L38.0641 5.64207L38.0641 5.64208L41.6624 5.3144ZM40.312 4.80077L42.7829 7.43699L42.7829 7.43699L40.312 4.80077ZM42.1986 11.2025L38.6003 11.5302L38.7907 13.6208L40.7012 14.4908L42.1986 11.2025ZM55.2946 25.8351L51.9057 27.0882L52.8655 29.6837L55.6215 29.4334L55.2946 25.8351ZM60.2149 25.3881L60.5417 28.9865L63.6264 28.7063L63.8209 25.615L60.2149 25.3881ZM60.3353 23.4729L63.9414 23.6998L64.0712 21.6369L62.3588 20.4794L60.3353 23.4729ZM58.653 20.6652L62.2471 20.2945L62.2471 20.2945L58.653 20.6652ZM62.1022 16.4226L62.4729 20.0167L62.4729 20.0167L62.1022 16.4226ZM66.3448 19.8718L62.7507 20.2425L62.7507 20.2425L66.3448 19.8718ZM64.1156 23.7818L62.6055 20.4993L60.9751 21.2494L60.5876 23.0017L64.1156 23.7818ZM62.0209 33.2551L65.217 34.9402L65.4439 34.51L65.5489 34.0351L62.0209 33.2551ZM61.0605 33.7451L61.1949 30.1344L58.1988 30.0229L57.5366 32.9471L61.0605 33.7451ZM57.1131 37.5511L55.2921 34.4303L53.5864 35.4257L53.5032 37.3988L57.1131 37.5511ZM9.58299 37.7207L13.192 37.5472L13.0152 33.8684L9.34039 34.1157L9.58299 37.7207ZM5.37205 38.0041L5.61464 41.6091L5.61464 41.6091L5.37205 38.0041ZM4.44432 35.7479L2.08081 33.015L2.08081 33.015L4.44432 35.7479ZM10.016 30.9293L12.3795 33.6622L13.3501 32.8228L13.5738 31.5593L10.016 30.9293ZM17.0362 16.6115L19.6745 19.0802L21.2301 17.4178L20.4018 15.2971L17.0362 16.6115ZM14.4983 10.1135L17.8639 8.79904L17.8639 8.79904L14.4983 10.1135ZM15.4769 9.05069L16.5097 5.58827L16.5097 5.58827L15.4769 9.05069ZM23.7972 11.5325L22.7644 14.9949L24.1308 15.4025L25.4073 14.7671L23.7972 11.5325ZM35.4336 9.37328L35.0785 12.969L36.709 13.13L37.9045 12.0095L35.4336 9.37328ZM60.379 33.5515L63.7895 34.7445L64.7839 31.9017L62.1667 30.4116L60.379 33.5515ZM57.1384 36.5454L53.5254 36.5148L53.4817 41.6587L58.3353 39.9546L57.1384 36.5454ZM59.7517 32.75L56.1457 32.5231L56.1148 33.0137L56.2161 33.4947L59.7517 32.75ZM59.9768 29.1714L63.5829 29.3983L64.4553 15.531L56.9381 27.2167L59.9768 29.1714ZM57.0358 33.7433L53.9971 31.7885L53.3346 32.8184L53.4348 34.0389L57.0358 33.7433ZM45.2606 4.98672C44.9271 1.32383 40.5247 -0.350738 37.8411 2.16455L42.7829 7.43699C41.0762 9.03673 38.2762 7.97169 38.0641 5.64207L45.2606 4.98672ZM45.7968 10.8748L45.2606 4.98672L38.0641 5.64208L38.6003 11.5302L45.7968 10.8748ZM58.6835 24.5819C55.9261 17.1252 50.564 11.0415 43.6959 7.91417L40.7012 14.4908C45.6401 16.7397 49.7462 21.2483 51.9057 27.0882L58.6835 24.5819ZM59.888 21.7898L54.9677 22.2367L55.6215 29.4334L60.5417 28.9865L59.888 21.7898ZM56.7293 23.246L56.6088 25.1613L63.8209 25.615L63.9414 23.6998L56.7293 23.246ZM55.0589 21.036C55.2955 23.329 56.5489 25.2746 58.3119 26.4663L62.3588 20.4794C62.3254 20.4569 62.2988 20.4283 62.2807 20.3986C62.2644 20.372 62.2518 20.3398 62.2471 20.2945L55.0589 21.036ZM61.7314 12.8285C57.6224 13.2524 54.635 16.927 55.0589 21.036L62.2471 20.2945C62.2327 20.1554 62.3339 20.031 62.4729 20.0167L61.7314 12.8285ZM69.9389 19.501C69.515 15.392 65.8404 12.4046 61.7314 12.8285L62.4729 20.0167C62.612 20.0023 62.7364 20.1034 62.7507 20.2425L69.9389 19.501ZM65.6257 27.0642C68.4494 25.7652 70.2767 22.7755 69.9389 19.501L62.7507 20.2425C62.7569 20.3023 62.7451 20.3493 62.7196 20.3931C62.6905 20.4431 62.648 20.4797 62.6055 20.4993L65.6257 27.0642ZM65.5489 34.0351L67.6435 24.5618L60.5876 23.0017L58.493 32.475L65.5489 34.0351ZM60.9261 37.3557C63.0862 37.4361 64.5842 36.1405 65.217 34.9402L58.8248 31.5699C59.0751 31.0951 59.4101 30.7569 59.77 30.5283C60.1861 30.264 60.687 30.1155 61.1949 30.1344L60.9261 37.3557ZM58.9341 40.6718C62.3888 38.6559 64.1152 36.615 64.5844 34.5431L57.5366 32.9471C57.7158 32.1555 58.0337 32.8305 55.2921 34.4303L58.9341 40.6718ZM33.3442 61.0371C40.2202 61.0371 46.8699 59.4629 51.9668 55.6246C57.1884 51.6923 60.387 45.6741 60.7231 37.7033L53.5032 37.3988C53.2488 43.4301 50.9443 47.3484 47.6197 49.852C44.1704 52.4495 39.2309 53.8107 33.3442 53.8107V61.0371ZM5.97399 37.8942C6.35427 45.8061 9.57112 51.7742 14.7837 55.6711C19.8725 59.4755 26.4956 61.0371 33.3442 61.0371V53.8107C27.4819 53.8107 22.5579 52.4606 19.1106 49.8834C15.7871 47.3988 13.4788 43.5153 13.192 37.5472L5.97399 37.8942ZM5.61464 41.6091L9.82558 41.3257L9.34039 34.1157L5.12946 34.3991L5.61464 41.6091ZM2.08081 33.015C-1.4761 36.0911 0.922714 41.9248 5.61464 41.6091L5.12946 34.3991C7.35784 34.2491 8.49716 37.0198 6.80782 38.4808L2.08081 33.015ZM7.65251 28.1964L2.08081 33.015L6.80782 38.4808L12.3795 33.6622L7.65251 28.1964ZM14.3979 14.1429C10.3838 18.4328 7.56596 24.0437 6.4582 30.2993L13.5738 31.5593C14.4459 26.6347 16.6486 22.314 19.6745 19.0802L14.3979 14.1429ZM11.1328 11.428L13.6706 17.926L20.4018 15.2971L17.8639 8.79904L11.1328 11.428ZM16.5097 5.58827C12.9851 4.53693 9.79469 8.00193 11.1328 11.428L17.8639 8.79904C18.7149 10.978 16.6858 13.1818 14.4442 12.5131L16.5097 5.58827ZM24.83 8.07008L16.5097 5.58827L14.4442 12.5131L22.7644 14.9949L24.83 8.07008ZM33.3442 5.65742C29.3665 5.65742 25.5881 6.60501 22.1871 8.29789L25.4073 14.7671C27.851 13.5507 30.5312 12.8838 33.3442 12.8838V5.65742ZM35.7887 5.7776C34.9825 5.69799 34.1671 5.65742 33.3442 5.65742V12.8838C33.9294 12.8838 34.5078 12.9126 35.0785 12.969L35.7887 5.7776ZM37.8411 2.16455L32.9627 6.73706L37.9045 12.0095L42.7829 7.43699L37.8411 2.16455ZM56.9685 32.3585C56.9364 32.4501 56.8613 32.5803 56.6595 32.7436C56.4434 32.9184 56.1695 33.0562 55.9415 33.1363L58.3353 39.9546C59.8426 39.4254 62.6599 37.9737 63.7895 34.7445L56.9685 32.3585ZM56.2161 33.4947C56.4386 34.5508 57.1592 35.876 58.5912 36.6914L62.1667 30.4116C62.498 30.6002 62.7403 30.8497 62.9069 31.0924C63.054 31.3065 63.2022 31.6015 63.2873 32.0052L56.2161 33.4947ZM56.3708 28.9446L56.1457 32.5231L63.3577 32.9768L63.5829 29.3983L56.3708 28.9446ZM60.0746 35.698L63.0156 31.1262L56.9381 27.2167L53.9971 31.7885L60.0746 35.698ZM60.7527 36.2815C60.7527 35.3268 60.7136 34.3815 60.6369 33.4476L53.4348 34.0389C53.4953 34.7762 53.5264 35.5243 53.5264 36.2815H60.7527ZM60.7514 36.5761C60.7523 36.4782 60.7527 36.38 60.7527 36.2815H53.5264C53.5264 36.3596 53.526 36.4373 53.5254 36.5148L60.7514 36.5761Z" fill="white" mask="url(#path-1-outside-1_3369_17508)"/>
<path fill-rule="evenodd" clip-rule="evenodd" d="M64.1149 23.7839C65.5774 23.1117 66.5197 21.5642 66.3455 19.8748C66.1264 17.7514 64.2266 16.2078 62.1021 16.427C59.9776 16.6461 58.4329 18.5451 58.6519 20.6684C58.7741 21.8525 59.4189 22.8563 60.334 23.4747L59.7496 32.7491C59.7911 32.9461 59.9706 33.3192 60.3773 33.5505C59.5807 35.8258 57.0704 36.671 56.3142 36.7489C57.602 36.6161 56.9206 37.6583 56.9206 37.6583C60.1807 35.7963 60.911 34.3967 61.059 33.7438C61.602 33.7638 61.92 33.442 62.0193 33.2539L64.1149 23.7839Z" fill="#98887F"/>
<path d="M15.4774 9.05109C14.8359 8.85975 14.2553 9.49037 14.4988 10.1139L17.1157 16.8142L24.5399 11.7543L15.4774 9.05109Z" fill="#98887F"/>
<path d="M40.312 4.79975C40.8004 4.34198 41.6016 4.64674 41.6623 5.31338L42.3147 12.477L33.412 11.2671L40.312 4.79975Z" fill="#98887F"/>
<path fill-rule="evenodd" clip-rule="evenodd" d="M33.3442 57.4246C46.486 57.4246 57.1395 51.1999 57.1395 36.2822C57.1395 35.4262 57.1044 34.5796 57.0358 33.744L61.6563 26.5614C62.0184 25.9984 61.5741 25.2653 60.9074 25.3259L55.2946 25.8357C51.6964 16.1053 43.2234 9.27128 33.3442 9.27128C21.8167 9.27128 12.2037 18.576 10.016 30.93L4.44432 35.7486C3.51053 36.5561 4.14028 38.0877 5.37205 38.0048L9.58299 37.7214C10.2501 51.6013 20.6333 57.4246 33.3442 57.4246Z" fill="#FFB440"/>
<path d="M52.592 44.1595C52.592 50.3308 43.9911 55.2533 35.0671 55.2533C26.1431 55.2533 16.7383 53.0641 16.7383 46.8927C16.7383 40.7214 27.8313 31.6991 36.7553 31.6991C45.6793 31.6991 52.592 37.9882 52.592 44.1595Z" fill="#FAD296"/>
<path d="M26.4951 21.2115C27.2161 20.6756 27.9765 20.021 28.8616 19.7745C29.1716 19.6882 29.9748 19.5178 30.2499 19.7827C30.7811 20.2943 30.5868 21.631 30.5868 22.3075" stroke="#FFB440" stroke-width="2.54141" stroke-linecap="round"/>
<path d="M24.3946 19.2342C24.3686 19.1697 24.3825 19.0963 24.4314 19.047C24.6598 18.8166 25.3361 18.1582 25.8779 17.8757C26.4117 17.5974 27.2974 17.4323 27.6213 17.3786C27.6955 17.3664 27.7681 17.4038 27.8028 17.4705L28.1009 18.0422C28.146 18.1286 28.1132 18.2351 28.027 18.2807C27.7249 18.4407 27.044 18.8008 26.5429 19.062C26.0624 19.3126 25.4177 19.9581 25.0997 20.2938C25.0091 20.3894 24.8479 20.3603 24.7987 20.2381L24.3946 19.2342Z" fill="#98887F"/>
<path d="M41.9496 18.646C41.9501 18.7937 41.8594 18.9259 41.7197 18.9739C41.341 19.1039 40.5754 19.344 40.0332 19.3626C39.5049 19.3807 38.7697 19.203 38.3847 19.0975C38.231 19.0554 38.13 18.9124 38.1354 18.7531L38.1607 18.0106C38.1706 17.7204 38.519 17.5485 38.7804 17.6747C39.0588 17.8092 39.4014 17.9269 39.7332 17.9156C40.218 17.8989 41.0062 17.7274 41.4994 17.6091C41.7258 17.5548 41.9468 17.725 41.9475 17.9579L41.9496 18.646Z" fill="#98887F"/>
<path d="M27.6439 17.442C27.7139 17.4181 27.7913 17.4401 27.8369 17.4983C28.0423 17.7599 28.604 18.5035 28.8157 19.0707C29.0253 19.632 29.0807 20.5253 29.0944 20.8572C29.0976 20.9347 29.0485 21.0036 28.9749 21.0281L27.6941 21.4536C27.5751 21.4931 27.4522 21.4001 27.4541 21.2747C27.4603 20.8722 27.4445 20.095 27.2577 19.5946C27.0727 19.0989 26.5577 18.4937 26.2729 18.1826C26.1842 18.0857 26.2226 17.9266 26.3469 17.8842L27.6439 17.442Z" fill="#98887F"/>
<path d="M38.4009 18.9834C38.2411 18.9792 38.104 18.8689 38.0714 18.7123C37.9882 18.3127 37.8511 17.5448 37.8984 17.0157C37.9458 16.4841 38.2174 15.7676 38.3686 15.4017C38.4273 15.2596 38.5738 15.177 38.7265 15.1946L39.5447 15.2887C39.8044 15.3186 39.9485 15.6126 39.8294 15.8453C39.6409 16.2133 39.4189 16.7226 39.3817 17.1389C39.3441 17.5603 39.4813 18.1075 39.6073 18.503C39.6856 18.7486 39.5019 19.0123 39.2443 19.0055L38.4009 18.9834Z" fill="#98887F"/>
<path d="M34.879 22.0104C33.8007 22.5173 32.7476 22.1213 32.3559 21.86C31.9895 21.8919 31.8003 21.9228 31.6013 22.693C31.4023 23.4633 31.9239 24.2007 32.8546 24.8878C33.7853 25.5749 37.437 25.288 38.2071 23.6118C38.9773 21.9356 37.4234 21.214 36.9953 21.0444C36.5672 20.8748 36.2268 21.3768 34.879 22.0104Z" fill="#EF8E8E"/>
</svg>
