<svg width="552" height="404" viewBox="0 0 552 404" fill="none" xmlns="http://www.w3.org/2000/svg">
<path d="M238.596 128.558C239.229 124.59 244.152 123.088 246.893 126.028L276.343 157.617L229.651 184.63L238.596 128.558Z" fill="#8B7A70"/>
<rect x="0.0703125" y="195.838" width="26.6471" height="115.649" rx="4.26354" fill="#357EE7"/>
<rect x="0.0703125" y="311.486" width="26.6471" height="102.858" rx="4.26354" transform="rotate(-90 0.0703125 311.486)" fill="#357EE7"/>
<rect x="78.4141" y="353.589" width="26.6471" height="124.709" rx="4.26354" transform="rotate(-180 78.4141 353.589)" fill="#357EE7"/>
<rect x="449.07" y="195.838" width="26.6471" height="115.649" rx="4.26354" fill="#357EE7"/>
<rect x="449.07" y="311.486" width="26.6471" height="102.858" rx="4.26354" transform="rotate(-90 449.07 311.486)" fill="#357EE7"/>
<rect x="527.414" y="353.589" width="26.6471" height="124.709" rx="4.26354" transform="rotate(-180 527.414 353.589)" fill="#357EE7"/>
<path fill-rule="evenodd" clip-rule="evenodd" d="M278.472 402.811C348.058 402.811 404.469 369.851 404.469 290.861C404.469 286.328 404.283 281.845 403.92 277.42L428.384 239.389C430.302 236.408 427.949 232.526 424.419 232.847L394.699 235.546C375.647 184.024 330.782 147.838 278.472 147.838C217.434 147.838 166.533 197.106 154.949 262.52L125.444 288.037C120.499 292.313 123.834 300.422 130.356 299.984L152.656 298.483C156.189 371.977 211.168 402.811 278.472 402.811Z" fill="#92B9F2"/>
<ellipse cx="281.853" cy="265.562" rx="8.2414" ry="17.6725" transform="rotate(-0.363245 281.853 265.562)" fill="#FAB9B9"/>
<rect x="235.07" y="208.838" width="6.20796" height="36.7511" rx="0.993273" fill="#3D79CF"/>
<rect x="235.07" y="245.589" width="6.20796" height="19.7413" rx="0.993273" transform="rotate(-90 235.07 245.589)" fill="#3D79CF"/>
<rect x="254.812" y="245.589" width="6.20796" height="36.7511" rx="0.993273" transform="rotate(-180 254.812 245.589)" fill="#3D79CF"/>
<rect x="235.07" y="215.046" width="6.20796" height="19.7413" rx="0.993273" transform="rotate(-90 235.07 215.046)" fill="#3D79CF"/>
<rect x="303.07" y="217.838" width="4.71698" height="22.7511" rx="0.993273" fill="#3D79CF"/>
<rect x="303.07" y="240.589" width="3.84309" height="15" rx="0.993273" transform="rotate(-90 303.07 240.589)" fill="#3D79CF"/>
<rect x="318.07" y="240.589" width="4.71698" height="22.7511" rx="0.993273" transform="rotate(-180 318.07 240.589)" fill="#3D79CF"/>
<rect x="303.07" y="221.681" width="3.84309" height="15" rx="0.993273" transform="rotate(-90 303.07 221.681)" fill="#3D79CF"/>
<path d="M306.352 51.7132C295.952 95.3132 351.519 141.671 376.352 154.338C376.352 154.338 372.474 182.481 376.352 184.713C380.474 186.482 401.974 164.838 401.974 164.838C465.974 170.838 505.177 166.396 523.352 137.713C555.352 87.2134 496.23 29.0929 451.352 13.2129C386.352 -9.78705 319.352 -2.78683 306.352 51.7132Z" fill="#DEE7F4"/>
<path d="M365.117 70.7211C374.942 70.7211 379.878 76.5708 379.878 88.2245C379.878 100.244 374.942 106.231 365.117 106.231C355.428 106.231 350.63 100.244 350.63 88.2245C350.63 76.5708 355.428 70.7211 365.117 70.7211ZM365.117 77.302C360.09 77.302 357.622 80.9581 357.622 88.2245C357.622 95.8565 360.09 99.6497 365.117 99.6497C370.327 99.6497 372.932 95.8565 372.932 88.2245C372.932 80.9581 370.327 77.302 365.117 77.302ZM398.143 70.7211C407.968 70.7211 412.904 76.5708 412.904 88.2245C412.904 100.244 407.968 106.231 398.143 106.231C388.454 106.231 383.655 100.244 383.655 88.2245C383.655 76.5708 388.454 70.7211 398.143 70.7211ZM398.143 77.302C393.116 77.302 390.648 80.9581 390.648 88.2245C390.648 95.8565 393.116 99.6497 398.143 99.6497C403.352 99.6497 405.957 95.8565 405.957 88.2245C405.957 80.9581 403.352 77.302 398.143 77.302ZM417.43 72.9148C417.43 71.6351 418.116 70.9496 419.487 70.9496H422.595C423.737 70.9496 424.423 71.3609 424.605 72.0921C427.256 71.3609 429.633 70.9953 431.643 70.9953C439.869 70.9953 444.028 76.3423 444.028 86.9906C444.028 99.1013 440.189 105.134 432.512 105.134C429.907 105.134 427.302 104.585 424.697 103.443V116.102C424.697 117.427 424.057 118.067 422.777 118.067H419.121C417.979 118.067 417.43 117.427 417.43 116.148V72.9148ZM437.173 86.8535C437.173 80.9124 434.751 77.8961 429.998 77.8961C429.176 77.8961 428.353 77.9875 427.485 78.1246C426.571 78.2617 425.657 78.4902 424.651 78.8101V96.7705C426.708 97.913 428.947 98.4615 431.415 98.4615C435.254 98.4615 437.173 94.6226 437.173 86.8535ZM453.355 81.3237C453.355 83.9286 456.463 85.7567 462.678 86.8535C468.985 87.9503 472.184 90.9665 472.184 95.9022C472.184 103.123 467.934 106.688 459.525 106.688C450.796 106.688 446.409 103.534 446.409 97.2275C446.318 96.2221 446.82 95.6737 447.963 95.4909L451.436 95.171C452.716 95.0796 453.401 95.5823 453.493 96.6791C453.675 99.0556 455.64 100.244 459.297 100.244C462.907 100.244 464.735 98.7814 464.735 95.7651C464.735 93.9371 461.719 92.429 455.732 91.2407C449.517 90.0068 446.455 86.8535 446.455 81.735C446.455 74.1487 450.659 70.3098 459.159 70.3098C467.843 70.3098 472.23 74.0116 472.276 81.3237C472.276 82.4662 471.727 83.0603 470.676 83.1517L467.34 83.4259C466.015 83.5173 465.329 83.106 465.238 82.1463C465.055 78.4902 463.044 76.6622 459.251 76.6622C455.321 76.6622 453.355 78.216 453.355 81.3237ZM480.215 60.5299H484.054C485.608 60.5299 486.339 61.6267 486.248 63.866L485.242 92.6118C485.06 93.8457 484.42 94.4855 483.323 94.5769H480.718C479.621 94.6226 478.981 94.0285 478.799 92.7946L477.565 63.866C477.473 61.6267 478.387 60.5299 480.215 60.5299ZM479.895 106.093H484.466C486.065 106.185 486.888 105.545 486.888 104.128L486.522 100.061C486.431 98.7357 485.791 98.0501 484.694 98.0501H480.033C478.936 98.0501 478.387 98.5986 478.296 99.6954L477.839 104.128C477.793 105.454 478.479 106.093 479.895 106.093Z" fill="#357EE7"/>
</svg>
