<svg width="390" height="832" viewBox="0 0 390 832" fill="none" xmlns="http://www.w3.org/2000/svg">
<rect width="390" height="832" fill="#2F2F2F"/>
<g clip-path="url(#clip0_4940_33166)">
<rect width="358" height="570" transform="translate(16 44)" fill="#FBFBFC"/>
<rect x="156.549" y="19.543" width="84.4513" height="29.3744" rx="14.6872" fill="#A07BE5"/>
<path d="M121.3 81.2383C121.697 81.2383 121.902 81.4292 121.902 81.8111V82.6629C121.902 83.1036 121.697 83.3092 121.286 83.3092H111.504C111.034 83.3092 110.799 83.1036 110.799 82.6923V79.608C110.799 79.1674 110.975 78.9618 111.357 78.9618H112.576C112.929 78.9765 113.12 79.1527 113.12 79.4758V81.2383H121.3ZM111.298 77.9043C110.975 77.9043 110.814 77.6987 110.799 77.2581V76.3915C110.799 76.0537 110.961 75.8775 111.298 75.8775H121.359C121.712 75.8775 121.902 76.0978 121.902 76.5237V77.2581C121.902 77.6987 121.697 77.9043 121.315 77.9043H117.614V79.2555C117.614 79.5933 117.482 79.7549 117.217 79.7549H115.514C115.249 79.7549 115.102 79.608 115.102 79.2996V77.9043H111.298ZM121.902 74.3941C121.902 74.7906 121.712 74.9816 121.33 74.9816H111.313C110.961 74.9816 110.799 74.7906 110.799 74.4088V69.2536C110.799 68.857 111.005 68.6514 111.431 68.6514H121.286C121.697 68.6514 121.902 68.8423 121.902 69.2095V74.3941ZM119.597 70.546H113.12V73.0575H119.597V70.546ZM129.172 77.7868C130.303 77.7868 131.228 77.8456 131.933 77.963C132.638 78.0805 133.196 78.2715 133.593 78.5065C133.989 78.7415 134.254 79.0499 134.401 79.4024C134.533 79.7549 134.606 80.1808 134.606 80.6508C134.606 81.1208 134.518 81.532 134.371 81.8845C134.224 82.237 133.945 82.5161 133.549 82.7511C133.137 82.9861 132.594 83.1623 131.889 83.2798C131.184 83.3973 130.273 83.4561 129.172 83.4561C128.056 83.4561 127.145 83.3973 126.411 83.2798C125.676 83.1623 125.089 82.9861 124.648 82.7511C124.208 82.5161 123.885 82.2223 123.708 81.8698C123.532 81.5173 123.444 81.1061 123.444 80.6361C123.444 80.1661 123.517 79.7549 123.694 79.4024C123.855 79.0499 124.149 78.7415 124.59 78.5065C125.015 78.2715 125.603 78.0805 126.337 77.963C127.072 77.8456 128.026 77.7868 129.172 77.7868ZM126.895 70.9132C126.807 71.0894 126.719 71.2657 126.646 71.4419C129.216 71.3979 130.479 73.0869 130.45 76.509C130.45 76.9349 130.215 77.1553 129.774 77.1553H128.717C128.335 77.1553 128.159 76.9643 128.159 76.5825C128.129 74.3206 127.424 73.3072 126.044 73.5422C125.867 74.4528 125.779 75.4809 125.779 76.5971C125.779 76.979 125.559 77.1553 125.133 77.1553H124.134C123.723 77.1553 123.517 76.9496 123.517 76.5384C123.517 74.5997 123.84 72.7197 124.472 70.9132H123.694C123.385 70.9132 123.238 70.7663 123.238 70.4579V69.4004C123.238 69.1067 123.385 68.9451 123.694 68.9451H130.273C130.611 68.9451 130.788 69.1067 130.788 69.4151V70.3845C130.788 70.737 130.611 70.9132 130.259 70.9132H126.895ZM134.415 71.7651C134.753 71.7651 134.929 71.9413 134.929 72.2644V73.6156C134.929 73.9094 134.753 74.0563 134.43 74.0563H133.637V76.744C133.637 77.0965 133.461 77.2728 133.137 77.2728H131.86C131.478 77.2728 131.302 77.1112 131.302 76.7734V69.1507C131.302 68.8276 131.478 68.6514 131.86 68.6514H133.108C133.461 68.6514 133.637 68.8276 133.637 69.1801V71.7651H134.415ZM129.187 81.6642C129.803 81.6642 130.318 81.6495 130.729 81.6055C131.125 81.5614 131.448 81.5027 131.683 81.4145C131.918 81.3264 132.08 81.2236 132.168 81.0914C132.256 80.9739 132.315 80.8124 132.315 80.6361C132.315 80.4599 132.271 80.313 132.183 80.1808C132.095 80.0633 131.933 79.9458 131.698 79.8577C131.463 79.7696 131.14 79.7108 130.729 79.6668C130.318 79.6227 129.803 79.5933 129.172 79.5933C128.496 79.5933 127.924 79.6227 127.483 79.6668C127.042 79.7108 126.69 79.7696 126.425 79.8577C126.161 79.9458 125.985 80.0633 125.882 80.1808C125.765 80.313 125.72 80.4599 125.72 80.6361C125.72 80.8124 125.765 80.9739 125.867 81.0914C125.955 81.2236 126.132 81.3264 126.396 81.4145C126.66 81.5027 127.013 81.5614 127.454 81.6055C127.894 81.6495 128.482 81.6642 129.187 81.6642ZM139.288 68.6367C139.876 68.6367 140.36 68.7395 140.772 68.9304C141.168 69.1361 141.491 69.4445 141.756 69.8851C142.005 70.3257 142.196 70.8838 142.314 71.5888C142.431 72.2938 142.519 73.1603 142.549 74.1738H143.195V69.1801C143.195 68.8276 143.386 68.6514 143.797 68.6514H144.811C145.193 68.6514 145.398 68.8276 145.398 69.1801V82.7804C145.398 83.1329 145.207 83.2945 144.855 83.2945H143.812C143.401 83.2945 143.195 83.1182 143.195 82.7511V76.4943H142.578C142.549 77.6399 142.475 78.624 142.373 79.4758C142.27 80.3277 142.108 81.0327 141.873 81.5908C141.638 82.1489 141.3 82.5748 140.889 82.8539C140.478 83.1476 139.935 83.2798 139.288 83.2798C138.569 83.2798 137.996 83.1476 137.555 82.8686C137.115 82.6042 136.762 82.1636 136.527 81.5614C136.277 80.9592 136.116 80.1661 136.028 79.1968C135.94 78.2274 135.91 77.0524 135.91 75.6718C135.91 74.3794 135.954 73.2925 136.057 72.3966C136.145 71.5154 136.321 70.781 136.571 70.2229C136.821 69.6648 137.173 69.2682 137.614 69.0186C138.055 68.7689 138.613 68.6367 139.288 68.6367ZM145.971 69.1801C145.971 68.8276 146.162 68.6514 146.573 68.6514H147.587C147.968 68.6514 148.174 68.8276 148.174 69.1801V82.7804C148.174 83.1329 147.983 83.2945 147.631 83.2945H146.588C146.177 83.2945 145.971 83.1182 145.971 82.7511V69.1801ZM140.316 75.3634C140.316 74.5409 140.287 73.8213 140.258 73.2338C140.228 72.6463 140.17 72.1763 140.096 71.7944C140.008 71.4273 139.905 71.1629 139.758 70.9866C139.611 70.8104 139.435 70.7223 139.23 70.7223C138.995 70.7223 138.818 70.8104 138.671 70.9573C138.525 71.1188 138.422 71.3832 138.348 71.7651C138.26 72.1469 138.216 72.661 138.187 73.2925C138.157 73.9388 138.143 74.7319 138.143 75.6718C138.143 76.7293 138.143 77.5959 138.172 78.3009C138.201 79.0058 138.246 79.5786 138.334 80.0046C138.407 80.4452 138.51 80.7536 138.657 80.9299C138.804 81.1208 138.995 81.2089 139.23 81.2089C139.465 81.2089 139.641 81.1208 139.788 80.9445C139.935 80.7683 140.037 80.4746 140.125 80.0486C140.199 79.6227 140.243 79.0499 140.272 78.3449C140.302 77.6399 140.316 76.744 140.316 75.6718V75.3634ZM152.893 69.562C152.849 69.841 152.805 70.1201 152.761 70.3845C155.317 70.032 156.609 72.6316 156.609 78.2127V82.6042C156.609 82.9714 156.403 83.1476 156.007 83.1476H154.905C154.494 83.1476 154.289 82.9714 154.289 82.6042V78.0952C154.289 74.2178 153.672 72.5288 152.438 73.0135C152.085 76.2153 151.924 79.4024 151.953 82.5748C151.953 82.9567 151.748 83.1476 151.336 83.1476H150.22C149.809 83.1476 149.603 82.9567 149.603 82.5454C149.559 77.4343 149.882 73.1163 150.573 69.562C150.675 69.1507 150.91 68.9451 151.278 68.9451H152.364C152.805 68.9451 152.981 69.1507 152.893 69.562ZM158.372 71.016V69.1801C158.372 68.8276 158.562 68.6514 158.974 68.6514H160.178C160.545 68.6514 160.736 68.8276 160.736 69.1507V82.8098C160.736 83.1329 160.531 83.2945 160.134 83.2945H158.93C158.548 83.2945 158.372 83.1182 158.372 82.7658V73.3366H157.035C156.653 73.3366 156.462 73.1603 156.462 72.8078V71.5594C156.462 71.2069 156.638 71.016 157.02 71.016H158.372ZM166.34 79.1968C166.003 79.1968 165.841 79.0499 165.841 78.7268V77.919C165.841 77.5812 165.988 77.4049 166.311 77.4049H176.915C177.268 77.4049 177.459 77.5665 177.459 77.8896V80.6067C177.459 80.9592 177.282 81.1355 176.945 81.1355H167.927V81.6348H176.974C177.297 81.6348 177.459 81.7964 177.459 82.1195V82.7658C177.459 83.1182 177.268 83.2945 176.915 83.2945H166.37C166.017 83.2945 165.841 83.1476 165.841 82.8392V80.2249C165.841 79.9164 166.003 79.7549 166.355 79.7549H175.314V79.1968H166.34ZM176.974 70.9279C177.238 70.9279 177.371 71.0748 177.371 71.3538V71.8826C177.371 72.1469 177.238 72.2791 176.974 72.2791H167.897V72.896H177.018C177.312 72.896 177.459 73.0428 177.459 73.3366V74.0563C177.459 74.3941 177.297 74.5703 176.989 74.5703H166.355C166.003 74.5703 165.841 74.3941 165.841 74.0416V69.1507C165.841 68.7982 166.032 68.622 166.414 68.622H176.974C177.297 68.622 177.459 68.7689 177.459 69.0626V69.8117C177.459 70.1201 177.297 70.267 176.974 70.267H167.897V70.9279H176.974ZM176.989 75.1725C177.297 75.1725 177.459 75.334 177.459 75.6278V76.4062C177.459 76.7293 177.282 76.8762 176.945 76.8762H166.311C165.988 76.8762 165.841 76.7146 165.841 76.3915V75.6718C165.841 75.3487 166.003 75.1725 166.34 75.1725H176.989ZM189.239 81.2677C189.621 81.2677 189.812 81.4439 189.812 81.7817V82.7511C189.812 83.1329 189.636 83.3092 189.283 83.3092H179.604C179.208 83.3092 179.017 83.1476 179.017 82.8098V79.2996C179.017 78.9618 179.193 78.7855 179.575 78.7855H180.809C181.161 78.7855 181.352 78.9618 181.352 79.2996V81.2677H189.239ZM189.709 77.3902C189.68 77.8162 189.459 78.0365 189.019 78.0512H188.138C187.668 78.0512 187.433 77.8749 187.433 77.5224V76.9496C185.053 77.6252 182.468 77.963 179.678 77.963C179.178 77.963 178.929 77.7721 178.929 77.3756V72.3966C178.929 72.0735 179.105 71.8972 179.487 71.8972H183.819V70.8838H179.634C179.178 70.8838 178.958 70.7076 178.958 70.3551V69.5767C178.958 69.1507 179.134 68.9304 179.516 68.9304H185.318C185.788 68.9304 186.023 69.1361 186.023 69.5179V73.1897C186.023 73.7185 185.744 73.9681 185.185 73.9681H181.102V75.8775C183.511 75.76 185.611 75.3928 187.433 74.7466V69.1507C187.433 68.8129 187.668 68.6367 188.138 68.6367H189.004C189.474 68.6367 189.709 68.8129 189.709 69.1654V77.3902ZM191.817 78.1099C191.347 78.1099 191.127 77.9043 191.127 77.4637V69.5032C191.127 69.1214 191.333 68.9304 191.758 68.9304H192.86C193.271 68.9304 193.492 69.1214 193.492 69.4739V70.7957H199.572V69.4739C199.572 69.1214 199.778 68.9304 200.218 68.9304H201.335C201.746 68.9304 201.951 69.1067 201.951 69.4592V77.4637C201.951 77.9043 201.702 78.1099 201.217 78.1099H191.817ZM199.572 75.995V72.896H193.492V75.995H199.572ZM197.663 82.7804C197.663 83.1329 197.501 83.3092 197.178 83.3092H195.724C195.386 83.3092 195.225 83.1329 195.225 82.7804V81.3411H191.803C191.347 81.3411 191.127 81.1649 191.127 80.783V79.7255C191.127 79.3436 191.347 79.138 191.788 79.138H201.305C201.731 79.138 201.951 79.373 201.951 79.8136V80.6655C201.951 81.1208 201.731 81.3411 201.305 81.3411H197.663V82.7804ZM213.812 81.2383C214.164 81.2383 214.341 81.4292 214.341 81.7817V82.707C214.341 83.1182 214.164 83.3092 213.812 83.3092H203.957C203.546 83.3092 203.355 83.1182 203.355 82.7364V79.4905C203.355 79.138 203.516 78.9618 203.869 78.9618H205.161C205.514 78.9618 205.69 79.138 205.69 79.4758V81.2383H213.812ZM203.869 78.1687C203.531 78.1687 203.355 77.9924 203.355 77.6399V76.6118C203.355 76.274 203.516 76.0978 203.839 76.0978H213.827C214.164 76.0978 214.341 76.274 214.341 76.6118V77.5959C214.341 77.9777 214.135 78.1687 213.738 78.1687H210.125V79.4611C210.125 79.7843 209.964 79.9458 209.67 79.9458H208.069C207.775 79.9458 207.629 79.7989 207.629 79.4905V78.1687H203.869ZM203.913 75.3928C203.531 75.3928 203.355 75.2019 203.355 74.8053V69.1654C203.355 68.8129 203.546 68.6367 203.927 68.6367H205.102C205.499 68.6367 205.705 68.8276 205.705 69.1801V70.0907H211.991V69.1801C211.991 68.8276 212.182 68.6367 212.578 68.6367H213.768C214.15 68.6367 214.341 68.8129 214.341 69.1654V74.7466C214.341 75.1872 214.106 75.3928 213.636 75.3928H203.913ZM211.991 73.3072V72.1763H205.69V73.3072H211.991ZM216.386 76.744C216.004 76.744 215.828 76.5678 215.828 76.1859V75.334C215.828 74.9228 216.019 74.7172 216.415 74.7172H226.241C226.593 74.7172 226.77 74.9081 226.77 75.2753V76.2153C226.77 76.5678 226.593 76.744 226.241 76.744H216.386ZM221.277 68.5045C222.349 68.5045 223.245 68.5633 223.95 68.6807C224.655 68.7982 225.228 68.9745 225.639 69.2095C226.05 69.4445 226.344 69.7529 226.52 70.1054C226.682 70.4726 226.77 70.8985 226.77 71.3832C226.77 71.8826 226.682 72.3085 226.52 72.661C226.344 73.0282 226.065 73.3219 225.654 73.5569C225.242 73.7919 224.669 73.9681 223.964 74.0856C223.26 74.2031 222.364 74.2619 221.277 74.2619C220.19 74.2619 219.309 74.2031 218.604 74.0856C217.899 73.9681 217.355 73.7919 216.944 73.5569C216.533 73.3219 216.239 73.0282 216.077 72.661C215.901 72.3085 215.828 71.8826 215.828 71.3832C215.828 70.8985 215.901 70.4726 216.063 70.1054C216.21 69.7529 216.489 69.4445 216.9 69.2095C217.311 68.9745 217.869 68.7982 218.574 68.6807C219.279 68.5633 220.175 68.5045 221.277 68.5045ZM221.277 72.4554C221.923 72.4554 222.452 72.4407 222.863 72.3966C223.274 72.3672 223.612 72.2938 223.847 72.2057C224.082 72.1176 224.258 72.0147 224.346 71.8826C224.434 71.7504 224.493 71.5888 224.493 71.3832C224.493 71.2069 224.434 71.0454 224.332 70.9132C224.229 70.781 224.053 70.6635 223.818 70.5754C223.568 70.4873 223.245 70.4285 222.834 70.3845C222.422 70.3551 221.894 70.3257 221.277 70.3257C220.66 70.3257 220.146 70.3551 219.735 70.3845C219.323 70.4285 219 70.4873 218.765 70.5754C218.53 70.6635 218.354 70.781 218.251 70.9132C218.148 71.0454 218.104 71.2069 218.104 71.3832C218.104 71.5888 218.148 71.7504 218.236 71.8826C218.325 72.0147 218.501 72.1176 218.736 72.2057C218.971 72.2938 219.294 72.3672 219.705 72.3966C220.116 72.4407 220.63 72.4554 221.277 72.4554ZM217.928 80.9445V81.4439H226.3C226.608 81.4439 226.77 81.5908 226.77 81.8698V82.8098C226.77 83.1329 226.593 83.2945 226.256 83.2945H216.503C216.048 83.2945 215.828 83.0889 215.828 82.6776V80.2249C215.828 79.8136 216.019 79.5933 216.415 79.5933H224.596V79.1086H216.445C216.033 79.1086 215.828 78.9471 215.828 78.6093V77.8456C215.828 77.4784 215.989 77.2874 216.342 77.2874H226.124C226.549 77.2874 226.77 77.4637 226.77 77.7868V80.5333C226.77 80.8124 226.593 80.9445 226.256 80.9445H217.928ZM241.63 80.8124C242.041 80.8124 242.247 81.0327 242.247 81.4439V82.3986C242.247 82.7951 242.041 82.9861 241.63 82.9861H232.48C232.039 82.9861 231.819 82.7804 231.819 82.3398V81.4439C231.819 81.0327 232.025 80.8124 232.451 80.8124H234.845V74.8787C234.845 74.4528 235.065 74.2325 235.535 74.2325H236.519C236.96 74.2325 237.195 74.4528 237.195 74.8787V80.8124H241.63ZM241.703 68.9451C242.056 68.9451 242.247 69.1507 242.247 69.562C242.247 73.1457 241.968 76.3475 241.424 79.1968C241.351 79.5786 241.101 79.7549 240.675 79.7549H239.691C239.427 79.7549 239.251 79.6961 239.192 79.5493C239.119 79.4171 239.104 79.2408 239.163 79.0058C239.544 76.6412 239.779 74.115 239.838 71.4126C239.868 71.1776 239.765 71.0454 239.53 71.0454H232.304C231.981 71.0454 231.819 70.8838 231.819 70.546V69.4592C231.819 69.1214 231.981 68.9451 232.304 68.9451H241.703ZM253.47 80.8124C253.852 80.8124 254.057 81.018 254.057 81.3998V82.4573C254.057 82.8392 253.852 83.0154 253.44 83.0154H244.29C243.879 83.0154 243.688 82.8392 243.688 82.472V81.3558C243.688 81.0033 243.864 80.8124 244.246 80.8124H253.47ZM254.057 74.1297C254.057 74.4822 253.866 74.6584 253.499 74.6584H246.038V77.684C248.271 77.684 250.753 77.4196 253.499 76.9203C253.866 76.8615 254.057 76.9643 254.057 77.2581V78.3449C254.057 78.6827 253.91 78.8737 253.646 78.9324C250.826 79.5052 247.668 79.7989 244.187 79.8136C243.85 79.8136 243.688 79.6814 243.688 79.4024V73.131C243.688 72.7785 243.864 72.6022 244.246 72.6022H251.707V71.0454H244.129C243.835 71.0454 243.688 70.8838 243.688 70.546V69.3857C243.688 69.092 243.835 68.9451 244.158 68.9451H253.529C253.881 68.9451 254.057 69.1214 254.057 69.4445V74.1297ZM258.555 69.562C258.526 69.8117 258.482 70.0613 258.453 70.2963C260.626 70.1495 261.713 72.7932 261.713 78.2127V82.6042C261.713 82.9714 261.508 83.1476 261.111 83.1476H260.068C259.657 83.1476 259.451 82.9714 259.451 82.6042V78.0952C259.451 74.5116 259.025 72.8078 258.174 72.9841C257.88 76.1859 257.733 79.373 257.762 82.5748C257.762 82.9567 257.557 83.1476 257.145 83.1476H256.029C255.618 83.1476 255.412 82.9567 255.412 82.5454C255.368 77.4343 255.647 73.1163 256.235 69.562C256.308 69.1507 256.529 68.9451 256.896 68.9451H257.983C258.423 68.9451 258.614 69.1507 258.555 69.562ZM262.653 70.1348V69.1801C262.653 68.8276 262.844 68.6514 263.255 68.6514H264.283C264.607 68.6514 264.797 68.8276 264.827 69.1654V82.8098C264.827 83.1476 264.621 83.3092 264.21 83.3092H263.27C262.859 83.3092 262.653 83.1329 262.653 82.7658V72.4554H261.948C261.537 72.4554 261.346 72.2791 261.346 71.9266V70.6782C261.346 70.3257 261.537 70.1348 261.933 70.1348H262.653ZM265.488 69.1801C265.488 68.8276 265.679 68.6514 266.075 68.6514H267.089C267.426 68.6514 267.617 68.8276 267.647 69.1654V82.8098C267.647 83.1476 267.441 83.3092 267.045 83.3092H266.09C265.679 83.3092 265.488 83.1329 265.488 82.7658V69.1801ZM271.558 80.7683V78.8737C271.088 78.7855 270.706 78.5799 270.398 78.2715C270.075 77.9777 269.825 77.5959 269.634 77.1406C269.429 76.7 269.296 76.1859 269.208 75.5984C269.12 75.0256 269.076 74.4088 269.076 73.7625C269.076 72.8813 269.149 72.1176 269.326 71.4566C269.487 70.8104 269.766 70.267 270.163 69.8264C270.559 69.3857 271.088 69.0626 271.764 68.8423C272.439 68.622 273.277 68.5045 274.275 68.5045C275.23 68.5045 276.038 68.622 276.699 68.8423C277.36 69.0626 277.903 69.3857 278.314 69.8264C278.726 70.267 279.019 70.8104 279.196 71.4566C279.372 72.1176 279.475 72.8813 279.475 73.7625C279.475 74.4234 279.416 75.0403 279.328 75.5984C279.24 76.1565 279.093 76.6559 278.887 77.0965C278.681 77.5371 278.432 77.919 278.109 78.2127C277.786 78.5212 277.404 78.7415 276.963 78.8883V80.7683H278.872C279.269 80.7683 279.475 80.9739 279.475 81.3705V82.428C279.475 82.7951 279.284 82.9714 278.902 82.9714H269.737C269.296 82.9714 269.076 82.7804 269.076 82.3839V81.4292C269.076 80.9886 269.296 80.7683 269.766 80.7683H271.558ZM274.275 77.2874C275.333 77.2874 276.097 76.9937 276.537 76.4062C276.978 75.8187 277.213 74.9375 277.213 73.7625C277.213 72.6757 276.992 71.8679 276.552 71.3244C276.111 70.7957 275.347 70.5166 274.29 70.5166C273.233 70.5166 272.469 70.7957 272.028 71.3391C271.573 71.8826 271.353 72.6903 271.353 73.7625C271.353 74.35 271.397 74.8641 271.499 75.3047C271.588 75.7453 271.749 76.1125 271.984 76.4062C272.204 76.7 272.498 76.9203 272.88 77.0671C273.247 77.214 273.717 77.2874 274.275 77.2874ZM274.275 79.2849C274.158 79.2849 274.055 79.2849 273.967 79.2849C273.864 79.2849 273.761 79.2702 273.673 79.2555V80.7683H274.833V79.2555C274.745 79.2702 274.642 79.2849 274.554 79.2849C274.466 79.2849 274.363 79.2849 274.275 79.2849Z" fill="#1C1C1C"/>
<path d="M83.5603 119.495C84.0744 119.495 84.3314 119.77 84.3314 120.284V121.478C84.3314 121.973 84.0744 122.212 83.5603 122.212H72.4532C71.9024 122.212 71.627 121.955 71.627 121.404V120.284C71.627 119.77 71.884 119.495 72.4165 119.495H83.5603ZM83.6521 104.661C84.0928 104.661 84.3314 104.918 84.3314 105.432C84.3314 109.912 83.9826 113.914 83.3033 117.475C83.2115 117.953 82.8994 118.173 82.367 118.173H81.137C80.8065 118.173 80.5862 118.1 80.5128 117.916C80.421 117.751 80.4026 117.531 80.476 117.237C80.9534 114.281 81.2471 111.123 81.3206 107.745C81.3573 107.451 81.2288 107.286 80.935 107.286H72.2329C71.829 107.286 71.627 107.084 71.627 106.662V105.303C71.627 104.881 71.829 104.661 72.2329 104.661H83.6521ZM94.762 105.432C94.707 105.781 94.6519 106.13 94.5968 106.46C97.7913 106.019 99.4069 109.269 99.4069 116.245V121.735C99.4069 122.194 99.1498 122.414 98.6542 122.414H97.2772C96.7632 122.414 96.5062 122.194 96.5062 121.735V116.099C96.5062 111.252 95.7351 109.14 94.1929 109.746C93.7523 113.749 93.5504 117.732 93.5871 121.698C93.5871 122.175 93.33 122.414 92.816 122.414H91.4207C90.9067 122.414 90.6496 122.175 90.6496 121.661C90.5946 115.272 90.9985 109.875 91.8613 105.432C91.9898 104.918 92.2836 104.661 92.7426 104.661H94.1011C94.6519 104.661 94.8722 104.918 94.762 105.432ZM104.309 109.324C104.841 109.324 105.117 109.563 105.117 110.003V111.417C105.117 111.931 104.859 112.188 104.364 112.188H103.538V121.937C103.538 122.396 103.281 122.616 102.767 122.616H101.335C100.821 122.616 100.582 122.396 100.582 121.955V104.918C100.582 104.514 100.821 104.294 101.298 104.294H102.785C103.281 104.294 103.538 104.514 103.538 104.955V109.324H104.309ZM120.573 107.892C121.014 107.892 121.252 108.131 121.252 108.571V109.93C121.252 110.426 120.995 110.664 120.481 110.664H119.527V114.501C119.527 115.089 119.233 115.383 118.664 115.383H117.544C116.956 115.383 116.663 115.107 116.663 114.52V113.895C113.835 114.813 110.678 115.272 107.189 115.272C106.657 115.272 106.4 115.034 106.4 114.538V108.737C106.4 108.333 106.62 108.112 107.079 108.112H112.385V107.103H107.116C106.639 107.103 106.4 106.882 106.4 106.423V105.34C106.4 104.9 106.62 104.661 107.098 104.661H114.258C114.845 104.661 115.139 104.918 115.139 105.414V109.691C115.139 110.279 114.845 110.572 114.258 110.572H109.08V112.739C112.018 112.592 114.551 112.096 116.663 111.215V104.955C116.663 104.514 116.92 104.275 117.452 104.275H118.737C119.251 104.275 119.527 104.514 119.527 104.973V107.892H120.573ZM119.986 121.845C119.986 122.359 119.71 122.616 119.159 122.616H107.226C106.712 122.616 106.473 122.377 106.473 121.863V116.961C106.473 116.429 106.749 116.154 107.336 116.154H119.141C119.692 116.154 119.986 116.429 119.986 116.943V121.845ZM117.122 120.413V118.467H109.319V120.413H117.122ZM135.987 121.955C135.987 122.396 135.767 122.616 135.326 122.616H133.747C133.288 122.616 133.068 122.377 133.068 121.9V104.936C133.068 104.514 133.288 104.294 133.747 104.294H135.271C135.749 104.294 135.987 104.532 135.987 104.973V121.955ZM127.157 104.294C128.111 104.294 128.882 104.477 129.507 104.844C130.112 105.212 130.59 105.781 130.957 106.515C131.306 107.25 131.544 108.186 131.691 109.287C131.82 110.389 131.893 111.692 131.893 113.161C131.893 114.74 131.82 116.135 131.673 117.31C131.526 118.485 131.269 119.477 130.92 120.266C130.553 121.055 130.076 121.643 129.47 122.028C128.846 122.432 128.075 122.616 127.157 122.616C126.202 122.616 125.412 122.432 124.788 122.028C124.164 121.625 123.668 121.037 123.301 120.248C122.934 119.458 122.695 118.467 122.548 117.292C122.402 116.117 122.328 114.74 122.328 113.161C122.328 111.692 122.402 110.407 122.567 109.306C122.732 108.204 123.007 107.268 123.375 106.534C123.742 105.799 124.238 105.23 124.862 104.863C125.486 104.496 126.239 104.294 127.157 104.294ZM129.139 113.161C129.139 112.133 129.103 111.215 129.066 110.426C129.011 109.655 128.919 108.994 128.772 108.48C128.625 107.966 128.423 107.562 128.166 107.305C127.909 107.048 127.579 106.919 127.175 106.919C126.753 106.919 126.422 107.048 126.165 107.305C125.908 107.562 125.706 107.966 125.559 108.48C125.412 108.994 125.321 109.655 125.284 110.426C125.229 111.215 125.211 112.133 125.211 113.161C125.211 115.456 125.339 117.182 125.614 118.32C125.871 119.458 126.404 120.027 127.175 120.027C127.56 120.027 127.891 119.899 128.148 119.605C128.405 119.311 128.607 118.889 128.754 118.302C128.901 117.732 128.992 117.016 129.048 116.154C129.103 115.309 129.139 114.299 129.139 113.161ZM156.642 107.8C157.156 107.8 157.413 108.057 157.413 108.571V109.93C157.413 110.444 157.156 110.701 156.642 110.701H155.834V112.188H156.66C157.156 112.188 157.413 112.445 157.413 112.959V114.318C157.413 114.832 157.156 115.089 156.66 115.089H155.834V121.845C155.834 122.359 155.558 122.598 155.026 122.598H153.704C153.172 122.598 152.896 122.377 152.878 121.937V105.065C152.878 104.551 153.135 104.294 153.649 104.294H155.099C155.577 104.294 155.834 104.532 155.834 104.973V107.8H156.642ZM147.058 104.294C148.013 104.294 148.784 104.477 149.408 104.844C150.014 105.212 150.491 105.781 150.858 106.515C151.207 107.25 151.446 108.186 151.593 109.287C151.721 110.389 151.795 111.692 151.795 113.161C151.795 114.74 151.721 116.135 151.574 117.31C151.428 118.485 151.171 119.477 150.822 120.266C150.455 121.055 149.977 121.643 149.371 122.028C148.747 122.432 147.976 122.616 147.058 122.616C146.103 122.616 145.314 122.432 144.69 122.028C144.066 121.625 143.57 121.037 143.203 120.248C142.836 119.458 142.597 118.467 142.45 117.292C142.303 116.117 142.23 114.74 142.23 113.161C142.23 111.692 142.303 110.407 142.468 109.306C142.634 108.204 142.909 107.268 143.276 106.534C143.643 105.799 144.139 105.23 144.763 104.863C145.387 104.496 146.14 104.294 147.058 104.294ZM149.041 113.161C149.041 112.133 149.004 111.215 148.967 110.426C148.912 109.655 148.821 108.994 148.674 108.48C148.527 107.966 148.325 107.562 148.068 107.305C147.811 107.048 147.48 106.919 147.077 106.919C146.654 106.919 146.324 107.048 146.067 107.305C145.81 107.562 145.608 107.966 145.461 108.48C145.314 108.994 145.222 109.655 145.186 110.426C145.13 111.215 145.112 112.133 145.112 113.161C145.112 115.456 145.241 117.182 145.516 118.32C145.773 119.458 146.305 120.027 147.077 120.027C147.462 120.027 147.793 119.899 148.05 119.605C148.307 119.311 148.509 118.889 148.655 118.302C148.802 117.732 148.894 117.016 148.949 116.154C149.004 115.309 149.041 114.299 149.041 113.161ZM166.722 121.955C166.722 122.396 166.465 122.616 165.988 122.616H164.354C163.877 122.616 163.656 122.396 163.656 121.955V119.275H159.489C158.938 119.275 158.681 119.036 158.681 118.54V117.255C158.681 116.778 158.938 116.521 159.489 116.521H170.963C171.496 116.521 171.771 116.778 171.771 117.292V118.467C171.771 119.018 171.496 119.275 170.945 119.275H166.722V121.955ZM171.22 104.661C171.606 104.661 171.771 104.918 171.734 105.432C171.734 109.912 171.257 113.143 170.321 115.162C170.137 115.584 169.77 115.786 169.237 115.786H167.842C167.512 115.786 167.291 115.713 167.218 115.529C167.126 115.364 167.163 115.144 167.328 114.85C168.173 113.492 168.65 111.123 168.723 107.745C168.76 107.451 168.632 107.286 168.338 107.286H159.342C158.938 107.286 158.736 107.084 158.736 106.662V105.303C158.736 104.881 158.938 104.661 159.342 104.661H171.22ZM182.568 113.565C182.568 113.932 182.403 114.171 182.073 114.281C180.273 114.905 177.722 115.217 174.38 115.217C173.829 115.217 173.572 114.96 173.572 114.41V104.991C173.572 104.532 173.793 104.294 174.252 104.294H175.592C176.069 104.294 176.326 104.514 176.326 104.955V106.295H179.814V104.973C179.814 104.532 180.035 104.294 180.494 104.294H181.889C182.33 104.294 182.568 104.532 182.568 104.973V113.565ZM176.326 112.684C177.52 112.684 178.676 112.574 179.814 112.353V108.828H176.326V112.684ZM187.617 108.039C188.058 108.039 188.296 108.278 188.296 108.737V110.205C188.296 110.664 188.058 110.885 187.599 110.885H186.571V114.52C186.571 114.997 186.314 115.217 185.836 115.217H184.367C183.872 115.217 183.633 114.979 183.633 114.501V104.955C183.633 104.514 183.872 104.294 184.349 104.294H185.873C186.332 104.294 186.571 104.514 186.571 104.918V108.039H187.617ZM180.604 115.75C181.981 115.75 183.119 115.823 184.019 115.97C184.918 116.117 185.634 116.337 186.148 116.631C186.662 116.925 187.03 117.292 187.25 117.732C187.452 118.173 187.562 118.687 187.562 119.275C187.562 119.825 187.452 120.303 187.231 120.743C187.011 121.184 186.626 121.551 186.093 121.845C185.561 122.157 184.845 122.396 183.964 122.561C183.064 122.726 181.944 122.8 180.604 122.8C179.245 122.8 178.107 122.726 177.226 122.579C176.345 122.432 175.647 122.194 175.133 121.9C174.619 121.606 174.252 121.239 174.05 120.798C173.829 120.358 173.738 119.862 173.738 119.275C173.738 118.724 173.848 118.21 174.068 117.769C174.288 117.329 174.674 116.961 175.206 116.668C175.739 116.374 176.455 116.135 177.336 115.988C178.217 115.842 179.3 115.75 180.604 115.75ZM180.604 120.56C181.375 120.56 182.018 120.541 182.55 120.505C183.064 120.468 183.486 120.395 183.817 120.284C184.129 120.193 184.349 120.064 184.496 119.899C184.643 119.734 184.716 119.532 184.716 119.275C184.716 119.054 184.643 118.852 184.514 118.687C184.367 118.54 184.147 118.412 183.817 118.302C183.486 118.21 183.064 118.136 182.55 118.1C182.018 118.063 181.375 118.026 180.604 118.026C179.851 118.026 179.227 118.063 178.713 118.1C178.199 118.136 177.777 118.21 177.464 118.302C177.152 118.412 176.932 118.54 176.785 118.687C176.638 118.852 176.583 119.054 176.583 119.275C176.583 119.77 176.914 120.101 177.593 120.284C178.272 120.468 179.282 120.56 180.604 120.56ZM198.022 113.565C198.022 113.859 197.838 114.061 197.508 114.189C195.231 114.813 192.808 115.144 190.201 115.181C189.687 115.181 189.43 114.997 189.43 114.611V105.322C189.43 104.881 189.705 104.661 190.256 104.661H197.104C197.71 104.661 198.022 104.881 198.022 105.322V113.565ZM192.22 112.757C193.248 112.757 194.203 112.61 195.121 112.317V107.213H192.22V112.757ZM203.144 107.819C203.603 107.819 203.842 108.057 203.842 108.516V110.003C203.842 110.462 203.603 110.683 203.126 110.683H202.153V114.208C202.153 114.685 201.896 114.905 201.4 114.905H199.931C199.417 114.905 199.178 114.667 199.178 114.189V104.973C199.178 104.532 199.417 104.294 199.913 104.294H201.437C201.914 104.294 202.153 104.514 202.153 104.918V107.819H203.144ZM196.535 115.713C201.124 115.713 203.419 116.906 203.419 119.256C203.419 121.57 201.124 122.726 196.535 122.726C191.945 122.726 189.65 121.57 189.65 119.238C189.65 116.888 191.945 115.713 196.535 115.713ZM196.553 120.486C199.234 120.486 200.574 120.082 200.574 119.238C200.574 118.393 199.215 117.971 196.535 117.971C193.818 117.971 192.477 118.393 192.477 119.238C192.477 120.082 193.836 120.486 196.553 120.486ZM218.336 121.955C218.336 122.396 218.116 122.616 217.675 122.616H216.096C215.637 122.616 215.417 122.377 215.417 121.9V104.936C215.417 104.514 215.637 104.294 216.096 104.294H217.62C218.097 104.294 218.336 104.532 218.336 104.973V121.955ZM209.505 104.294C210.46 104.294 211.231 104.477 211.855 104.844C212.461 105.212 212.938 105.781 213.306 106.515C213.654 107.25 213.893 108.186 214.04 109.287C214.168 110.389 214.242 111.692 214.242 113.161C214.242 114.74 214.168 116.135 214.022 117.31C213.875 118.485 213.618 119.477 213.269 120.266C212.902 121.055 212.424 121.643 211.818 122.028C211.194 122.432 210.423 122.616 209.505 122.616C208.551 122.616 207.761 122.432 207.137 122.028C206.513 121.625 206.017 121.037 205.65 120.248C205.283 119.458 205.044 118.467 204.897 117.292C204.75 116.117 204.677 114.74 204.677 113.161C204.677 111.692 204.75 110.407 204.915 109.306C205.081 108.204 205.356 107.268 205.723 106.534C206.09 105.799 206.586 105.23 207.21 104.863C207.835 104.496 208.587 104.294 209.505 104.294ZM211.488 113.161C211.488 112.133 211.451 111.215 211.415 110.426C211.359 109.655 211.268 108.994 211.121 108.48C210.974 107.966 210.772 107.562 210.515 107.305C210.258 107.048 209.927 106.919 209.524 106.919C209.101 106.919 208.771 107.048 208.514 107.305C208.257 107.562 208.055 107.966 207.908 108.48C207.761 108.994 207.669 109.655 207.633 110.426C207.578 111.215 207.559 112.133 207.559 113.161C207.559 115.456 207.688 117.182 207.963 118.32C208.22 119.458 208.752 120.027 209.524 120.027C209.909 120.027 210.24 119.899 210.497 119.605C210.754 119.311 210.956 118.889 211.102 118.302C211.249 117.732 211.341 117.016 211.396 116.154C211.451 115.309 211.488 114.299 211.488 113.161ZM233.178 112.317C233.582 112.335 233.784 112.5 233.784 112.812V113.859C233.784 114.299 233.564 114.52 233.141 114.52H220.786C220.345 114.52 220.125 114.281 220.125 113.804V112.904C220.125 112.519 220.308 112.317 220.694 112.317H233.178ZM220.749 106.35C220.327 106.35 220.125 106.185 220.125 105.836V104.863C220.125 104.496 220.327 104.294 220.749 104.294H233.086C233.545 104.294 233.784 104.496 233.784 104.863V108.149C233.784 108.59 233.564 108.81 233.123 108.81H222.915V109.563H233.123C233.564 109.563 233.784 109.765 233.784 110.132V110.976C233.784 111.417 233.564 111.637 233.16 111.637H220.731C220.327 111.637 220.125 111.435 220.125 111.031V107.672C220.125 107.268 220.327 107.048 220.731 107.048H230.975V106.35H220.749ZM220.786 117.292C220.345 117.292 220.125 117.09 220.125 116.668V115.86C220.125 115.438 220.345 115.217 220.786 115.217H233.068C233.545 115.217 233.784 115.438 233.784 115.86V119.164C233.784 119.587 233.564 119.789 233.123 119.789H222.915V120.523H233.123C233.564 120.523 233.784 120.725 233.784 121.111V122.028C233.784 122.414 233.545 122.598 233.086 122.598H220.804C220.345 122.598 220.125 122.396 220.125 121.955V118.632C220.125 118.228 220.345 118.026 220.823 118.026H230.975V117.292H220.786ZM240.961 116.117C240.373 116.117 240.098 115.86 240.098 115.309V105.359C240.098 104.881 240.355 104.643 240.887 104.643H242.264C242.778 104.643 243.054 104.881 243.054 105.322V106.974H250.654V105.322C250.654 104.881 250.911 104.643 251.462 104.643H252.857C253.371 104.643 253.628 104.863 253.628 105.303V115.309C253.628 115.86 253.316 116.117 252.71 116.117H240.961ZM250.654 113.473V109.599H243.054V113.473H250.654ZM248.267 121.955C248.267 122.396 248.066 122.616 247.662 122.616H245.844C245.422 122.616 245.22 122.396 245.22 121.955V120.156H240.942C240.373 120.156 240.098 119.936 240.098 119.458V118.136C240.098 117.659 240.373 117.402 240.924 117.402H252.82C253.353 117.402 253.628 117.696 253.628 118.247V119.311C253.628 119.88 253.353 120.156 252.82 120.156H248.267V121.955ZM259.513 105.432C259.458 105.781 259.403 106.13 259.348 106.46C262.542 106.019 264.158 109.269 264.158 116.245V121.735C264.158 122.194 263.901 122.414 263.405 122.414H262.028C261.514 122.414 261.257 122.194 261.257 121.735V116.099C261.257 111.252 260.486 109.14 258.944 109.746C258.503 113.749 258.301 117.732 258.338 121.698C258.338 122.175 258.081 122.414 257.567 122.414H256.172C255.658 122.414 255.401 122.175 255.401 121.661C255.346 115.272 255.749 109.875 256.612 105.432C256.741 104.918 257.035 104.661 257.494 104.661H258.852C259.403 104.661 259.623 104.918 259.513 105.432ZM266.306 109.71V108.553H265.076C264.562 108.553 264.323 108.333 264.323 107.892V106.699C264.323 106.258 264.562 106.019 265.057 106.019H266.306V104.936C266.306 104.496 266.545 104.275 267.059 104.275H268.564C269.005 104.275 269.225 104.496 269.262 104.918V121.955C269.262 122.396 269.005 122.598 268.491 122.598H267.077C266.563 122.598 266.306 122.377 266.306 121.918V112.243H265.076C264.562 112.243 264.323 112.023 264.323 111.582V110.389C264.323 109.948 264.562 109.71 265.057 109.71H266.306ZM283.968 119.917C284.464 119.917 284.721 120.156 284.721 120.615V122.028C284.721 122.396 284.519 122.579 284.134 122.579H271.741C271.301 122.579 271.08 122.322 271.08 121.771V120.725C271.08 120.193 271.319 119.917 271.833 119.917H283.968ZM271.925 118.375C271.374 118.375 271.08 118.118 271.08 117.604V104.936C271.08 104.496 271.319 104.275 271.796 104.275H283.84C284.244 104.275 284.464 104.477 284.464 104.918V106.24C284.464 106.644 284.244 106.827 283.822 106.827H280.278V115.768H283.858C284.354 115.768 284.611 115.988 284.611 116.411V117.659C284.611 118.136 284.391 118.357 283.95 118.357L271.925 118.375ZM274.165 115.768H277.323V106.827H274.165V115.768ZM296.954 114.134H295.706C295.155 114.134 294.88 113.877 294.88 113.363V112.188C294.88 111.729 295.137 111.49 295.669 111.49H296.954V110.334H295.706C295.155 110.334 294.88 110.077 294.88 109.563V108.369C294.88 107.929 295.137 107.69 295.669 107.69H296.954V105.01C296.954 104.532 297.23 104.275 297.799 104.275H299.047C299.598 104.275 299.892 104.514 299.892 104.991V121.771C299.892 122.341 299.635 122.616 299.121 122.616H297.799C297.23 122.616 296.954 122.341 296.954 121.79V120.854C293.503 121.771 290.327 122.23 287.389 122.23C286.765 122.23 286.453 121.955 286.453 121.368V109.93C286.453 109.453 286.692 109.214 287.169 109.214H291.428V107.323H287.242C286.71 107.323 286.453 107.084 286.453 106.57V105.377C286.453 104.9 286.673 104.661 287.151 104.661H293.429C294.017 104.661 294.311 104.9 294.311 105.377V110.83C294.311 111.49 293.943 111.803 293.246 111.803H289.225V119.44C291.612 119.44 294.2 118.963 296.954 118.008V114.134ZM305.779 105.432C305.724 105.781 305.669 106.13 305.614 106.46C308.808 106.019 310.424 109.269 310.424 116.245V121.735C310.424 122.194 310.167 122.414 309.671 122.414H308.294C307.78 122.414 307.523 122.194 307.523 121.735V116.099C307.523 111.252 306.752 109.14 305.21 109.746C304.769 113.749 304.567 117.732 304.604 121.698C304.604 122.175 304.347 122.414 303.833 122.414H302.438C301.924 122.414 301.667 122.175 301.667 121.661C301.612 115.272 302.016 109.875 302.878 105.432C303.007 104.918 303.301 104.661 303.76 104.661H305.118C305.669 104.661 305.889 104.918 305.779 105.432ZM312.627 107.25V104.955C312.627 104.514 312.866 104.294 313.38 104.294H314.885C315.344 104.294 315.583 104.514 315.583 104.918V121.992C315.583 122.396 315.326 122.598 314.83 122.598H313.325C312.847 122.598 312.627 122.377 312.627 121.937V110.15H310.956C310.479 110.15 310.24 109.93 310.24 109.489V107.929C310.24 107.488 310.461 107.25 310.938 107.25H312.627Z" fill="#1C1C1C"/>
<rect x="69.2412" y="126.025" width="59.6667" height="2.75385" fill="#357EE7"/>
<rect x="143.595" y="126.025" width="90.8769" height="2.75385" fill="#357EE7"/>
<rect x="243.651" y="126.025" width="73.4359" height="2.75385" fill="#357EE7"/>
<rect x="87.6001" y="135.205" width="24.5883" height="24.5883" rx="12.2941" fill="#357EE7"/>
<path d="M101.982 140.092V154H99.0817V142.839H99.0049L95.8161 144.837V142.282L99.2546 140.092H101.982Z" fill="white"/>
<rect x="179.199" y="135.205" width="24.5883" height="24.5883" rx="12.2941" fill="#357EE7"/>
<path d="M186.088 154L186.068 151.906L191.063 147.315C192.369 146.066 193.061 145.298 193.061 144.203C193.061 142.974 192.119 142.205 190.852 142.205C189.545 142.205 188.7 143.031 188.7 144.357H185.953C185.934 141.629 187.951 139.9 190.89 139.9C193.868 139.9 195.846 141.591 195.846 144.011C195.846 145.586 195.078 146.892 192.215 149.486L190.102 151.541V151.618H196.038V154H186.088Z" fill="white"/>
<rect x="270.797" y="135.205" width="24.5883" height="24.5883" rx="12.2941" fill="#357EE7"/>
<path d="M282.834 154.192C279.78 154.192 277.59 152.502 277.533 150.081H280.452C280.51 151.119 281.509 151.81 282.854 151.81C284.237 151.81 285.236 151.023 285.216 149.908C285.236 148.775 284.218 147.968 282.585 147.968H281.298V145.836H282.585C283.949 145.836 284.909 145.087 284.909 143.992C284.909 142.935 284.102 142.205 282.873 142.205C281.643 142.205 280.625 142.897 280.587 143.953H277.821C277.859 141.552 280.03 139.9 282.873 139.9C285.773 139.9 287.714 141.61 287.694 143.819C287.714 145.375 286.619 146.489 285.063 146.758V146.873C287.099 147.123 288.232 148.372 288.213 150.1C288.232 152.482 285.966 154.192 282.834 154.192Z" fill="white"/>
<path d="M116.64 185.24C116.621 185.644 116.603 186.011 116.603 186.378C122.588 185.295 125.305 189.04 124.736 197.614C124.699 198.055 124.461 198.275 123.983 198.275H122.239C121.78 198.275 121.578 198.055 121.652 197.577C122.239 191.188 120.495 188.435 116.419 189.334C116.052 192.933 115.3 195.723 114.161 197.706C113.941 198.091 113.574 198.275 113.023 198.275H111.518C111.169 198.275 110.967 198.183 110.93 198C110.875 197.816 110.912 197.596 111.022 197.375C112.693 194.585 113.555 190.509 113.592 185.185C113.592 184.744 113.794 184.506 114.235 184.506H115.96C116.401 184.506 116.621 184.763 116.64 185.24ZM124.002 199.377C124.571 199.377 124.865 199.634 124.865 200.111V201.433C124.865 201.892 124.644 202.13 124.204 202.13H111.664C111.114 202.13 110.838 201.855 110.838 201.268V200.166C110.838 199.652 111.095 199.377 111.628 199.377H124.002ZM127.34 197.981C126.863 197.981 126.624 197.743 126.624 197.229V196.017C126.624 195.558 126.863 195.319 127.34 195.319H129.066V187.168H127.34C126.863 187.168 126.624 186.929 126.624 186.434V185.24C126.624 184.763 126.845 184.524 127.322 184.524H139.604C140.118 184.524 140.375 184.726 140.375 185.112V186.562C140.375 186.966 140.137 187.168 139.696 187.168H137.952V195.319H139.623C140.118 195.319 140.375 195.595 140.375 196.127V197.32C140.357 197.761 140.1 197.981 139.623 197.981H135.033V199.468H139.659C140.137 199.468 140.375 199.725 140.375 200.203V201.433C140.375 201.873 140.118 202.094 139.623 202.094H127.34C126.863 202.094 126.624 201.855 126.624 201.378V200.221C126.624 199.725 126.863 199.468 127.359 199.468H131.985V197.981H127.34ZM131.967 195.319H135.051V187.168H131.967V195.319ZM155.103 184.598C155.617 184.598 155.874 184.855 155.892 185.332V186.452C155.892 186.966 155.617 187.205 155.103 187.205H148.824C148.806 187.462 148.787 187.7 148.787 187.921C153.432 188.141 155.782 191.354 155.837 197.577C155.837 198.018 155.617 198.238 155.213 198.238H153.432C152.973 198.238 152.753 198.018 152.753 197.577C152.643 193.116 151.211 190.766 148.42 190.509C147.906 193.281 146.988 195.668 145.703 197.669C145.409 198.055 145.024 198.238 144.51 198.238H142.637C142.417 198.238 142.27 198.165 142.196 198.018C142.123 197.871 142.178 197.706 142.325 197.522C144.528 194.658 145.666 191.225 145.758 187.205H142.986C142.545 187.205 142.325 186.984 142.325 186.507V185.332C142.325 184.855 142.545 184.598 142.986 184.598H147.594V183.937C147.594 183.57 147.777 183.368 148.181 183.368H149.944C150.311 183.368 150.495 183.57 150.495 183.937V184.598H155.103ZM155.176 199.725C155.709 199.725 155.984 199.982 155.984 200.46V201.8C155.984 202.241 155.764 202.479 155.323 202.479H143.078C142.527 202.479 142.251 202.204 142.251 201.635V200.533C142.251 200.001 142.527 199.725 143.114 199.725H155.176ZM170.439 199.927C170.898 199.927 171.137 200.148 171.137 200.57V201.818C171.137 202.259 170.898 202.479 170.439 202.479H158.542C158.028 202.479 157.771 202.241 157.771 201.745V197.834C157.771 197.412 157.973 197.192 158.414 197.192H159.956C160.415 197.192 160.654 197.412 160.654 197.834V199.927H170.439ZM170.365 188.123H171.357C171.797 188.123 172.036 188.361 172.036 188.82V190.289C172.036 190.748 171.779 190.968 171.302 190.968H170.365V195.925C170.365 196.458 170.072 196.715 169.503 196.715H168.273C167.722 196.715 167.465 196.458 167.465 195.925V195.026C163.903 195.686 160.855 196.017 158.322 196.017C157.9 196.017 157.698 195.833 157.698 195.429V185.222C157.698 184.763 157.955 184.524 158.469 184.524H159.791C160.286 184.524 160.543 184.763 160.543 185.203V193.447C162.985 193.318 165.298 192.951 167.465 192.327V184.818C167.465 184.377 167.703 184.157 168.217 184.157H169.613C170.108 184.157 170.365 184.396 170.365 184.836V188.123ZM177.523 184.139C178.257 184.139 178.863 184.267 179.377 184.506C179.873 184.763 180.277 185.148 180.607 185.699C180.919 186.25 181.158 186.948 181.305 187.829C181.452 188.71 181.562 189.793 181.599 191.06H182.406V184.818C182.406 184.377 182.645 184.157 183.159 184.157H184.426C184.903 184.157 185.16 184.377 185.16 184.818V201.818C185.16 202.259 184.922 202.461 184.481 202.461H183.177C182.663 202.461 182.406 202.241 182.406 201.782V193.961H181.635C181.599 195.393 181.507 196.623 181.378 197.688C181.25 198.752 181.048 199.634 180.754 200.331C180.46 201.029 180.038 201.561 179.524 201.91C179.01 202.277 178.331 202.443 177.523 202.443C176.623 202.443 175.907 202.277 175.356 201.928C174.806 201.598 174.365 201.047 174.071 200.295C173.759 199.542 173.557 198.55 173.447 197.339C173.337 196.127 173.3 194.658 173.3 192.933C173.3 191.317 173.355 189.958 173.484 188.839C173.594 187.737 173.814 186.819 174.126 186.121C174.439 185.424 174.879 184.928 175.43 184.616C175.981 184.304 176.678 184.139 177.523 184.139ZM185.876 184.818C185.876 184.377 186.115 184.157 186.629 184.157H187.896C188.373 184.157 188.63 184.377 188.63 184.818V201.818C188.63 202.259 188.391 202.461 187.951 202.461H186.647C186.133 202.461 185.876 202.241 185.876 201.782V184.818ZM178.808 192.547C178.808 191.519 178.771 190.619 178.735 189.885C178.698 189.151 178.624 188.563 178.533 188.086C178.422 187.627 178.294 187.296 178.11 187.076C177.927 186.856 177.706 186.746 177.449 186.746C177.156 186.746 176.935 186.856 176.752 187.039C176.568 187.241 176.44 187.572 176.348 188.049C176.238 188.526 176.183 189.169 176.146 189.958C176.109 190.766 176.091 191.758 176.091 192.933C176.091 194.254 176.091 195.338 176.128 196.219C176.164 197.1 176.219 197.816 176.33 198.348C176.421 198.899 176.55 199.285 176.733 199.505C176.917 199.744 177.156 199.854 177.449 199.854C177.743 199.854 177.963 199.744 178.147 199.523C178.331 199.303 178.459 198.936 178.569 198.404C178.661 197.871 178.716 197.155 178.753 196.274C178.79 195.393 178.808 194.273 178.808 192.933V192.547ZM208.272 201.653C208.272 202.204 208.015 202.479 207.538 202.479H206.124C205.61 202.479 205.353 202.222 205.353 201.69V184.8C205.353 184.377 205.573 184.157 206.032 184.157H207.556C208.033 184.157 208.272 184.377 208.272 184.818V201.653ZM200.929 187.59C200.929 187.315 200.782 187.168 200.488 187.168H195.586C195.145 187.168 194.944 186.929 194.944 186.434V185.314C194.944 184.8 195.164 184.524 195.641 184.524H203.205C203.737 184.524 204.013 184.855 204.013 185.497C204.05 192.969 202.14 198.348 198.285 201.653C197.973 201.965 197.477 202.112 196.816 202.112H195.77C195.366 202.112 195.127 202.002 195.054 201.763C194.98 201.525 195.127 201.231 195.494 200.9C199.184 197.632 201.002 193.19 200.929 187.59ZM214.162 185.295C214.107 185.644 214.051 185.993 213.996 186.323C217.191 185.883 218.806 189.132 218.806 196.109V201.598C218.806 202.057 218.549 202.277 218.054 202.277H216.677C216.163 202.277 215.906 202.057 215.906 201.598V195.962C215.906 191.115 215.135 189.004 213.592 189.61C213.152 193.612 212.95 197.596 212.987 201.561C212.987 202.039 212.73 202.277 212.216 202.277H210.82C210.306 202.277 210.049 202.039 210.049 201.525C209.994 195.136 210.398 189.738 211.261 185.295C211.389 184.781 211.683 184.524 212.142 184.524H213.501C214.051 184.524 214.272 184.781 214.162 185.295ZM223.708 189.187C224.241 189.187 224.516 189.426 224.516 189.867V191.28C224.516 191.794 224.259 192.051 223.763 192.051H222.937V201.8C222.937 202.259 222.68 202.479 222.166 202.479H220.734C220.22 202.479 219.981 202.259 219.981 201.818V184.781C219.981 184.377 220.22 184.157 220.697 184.157H222.184C222.68 184.157 222.937 184.377 222.937 184.818V189.187H223.708ZM238.383 189.187C238.897 189.187 239.154 189.426 239.154 189.885V191.28C239.154 191.794 238.897 192.051 238.42 192.051H237.502V201.653C237.502 202.204 237.245 202.479 236.767 202.479H235.354C234.84 202.479 234.583 202.222 234.583 201.69V184.8C234.583 184.377 234.803 184.157 235.262 184.157H236.786C237.263 184.157 237.502 184.377 237.502 184.818V189.187H238.383ZM230.158 187.59C230.158 187.315 230.011 187.168 229.717 187.168H225.275C224.834 187.168 224.632 186.929 224.632 186.434V185.314C224.632 184.8 224.852 184.524 225.33 184.524H232.435C232.967 184.524 233.242 184.855 233.242 185.497C233.279 192.969 231.553 198.348 228.065 201.653C227.753 201.965 227.257 202.112 226.596 202.112H225.55C225.146 202.112 224.907 202.002 224.834 201.763C224.76 201.525 224.907 201.231 225.275 200.9C228.598 197.632 230.231 193.19 230.158 187.59ZM258.333 187.847C258.737 187.847 258.938 188.086 258.938 188.526V190.014C258.938 190.491 258.737 190.711 258.333 190.711H257.36V194.034C257.36 194.511 257.103 194.732 256.607 194.732H255.12C254.624 194.732 254.385 194.511 254.385 194.034V193.814C250.824 194.383 247.868 194.658 245.555 194.658C245.133 194.658 244.931 194.475 244.931 194.071V185.222C244.931 184.763 245.188 184.524 245.702 184.524H246.968C247.464 184.524 247.721 184.763 247.721 185.203V191.96C249.906 191.849 252.127 191.556 254.385 191.06V184.781C254.385 184.377 254.624 184.157 255.101 184.157H256.625C257.103 184.157 257.36 184.396 257.36 184.836V187.847H258.333ZM256.038 201.727C256.203 199.817 255.505 198.752 253.963 198.55C253.688 199.505 253.504 200.588 253.412 201.8C253.376 202.259 253.137 202.479 252.696 202.479H251.338C250.861 202.479 250.64 202.259 250.659 201.8C250.677 200.992 250.75 200.221 250.879 199.523C250.291 198.807 249.502 198.477 248.492 198.55C248.198 199.505 248.015 200.588 247.905 201.8C247.905 202.259 247.666 202.479 247.225 202.479H245.83C245.353 202.479 245.133 202.259 245.151 201.8C245.261 199.523 245.757 197.651 246.638 196.145C246.932 195.742 247.281 195.521 247.721 195.521H248.933C249.612 195.521 249.777 195.797 249.447 196.311C250.273 196.366 250.971 196.659 251.558 197.192C251.705 196.825 251.889 196.476 252.109 196.145C252.403 195.742 252.751 195.521 253.192 195.521H254.404C255.083 195.521 255.248 195.797 254.918 196.311C257.69 196.641 258.957 198.477 258.737 201.8C258.681 202.259 258.443 202.479 258.021 202.479H256.717C256.203 202.479 255.964 202.241 256.038 201.727ZM273.946 189.187C274.405 189.187 274.644 189.408 274.644 189.812V191.299C274.644 191.813 274.405 192.051 273.928 192.051H272.973V201.727C272.973 202.241 272.716 202.479 272.202 202.479H270.77C270.275 202.479 270.036 202.259 270.036 201.782V201.249C266.419 201.8 263.463 202.094 261.15 202.094C260.563 202.094 260.269 201.8 260.269 201.212V185.277C260.269 184.781 260.526 184.524 261.04 184.524H267.87C268.347 184.524 268.604 184.763 268.604 185.222V186.415C268.604 186.892 268.347 187.131 267.833 187.131H263.078V199.45C265.501 199.45 267.814 199.156 270.036 198.606V184.818C270.036 184.377 270.256 184.157 270.715 184.157H272.221C272.716 184.157 272.973 184.377 272.973 184.818V189.187H273.946ZM279.179 200.772C279.142 201.396 279.014 201.818 278.775 202.02C278.537 202.241 278.133 202.369 277.545 202.406C276.921 202.369 276.517 202.241 276.297 202.02C276.076 201.8 275.966 201.396 275.948 200.772C275.966 200.184 276.076 199.762 276.297 199.523C276.499 199.285 276.921 199.156 277.545 199.12C278.169 199.156 278.592 199.266 278.812 199.487C279.032 199.707 279.142 200.148 279.179 200.772Z" fill="#1C1C1C"/>
<rect x="109.631" y="207.104" width="74.3538" height="3.67179" fill="#357EE7"/>
<rect x="134.514" y="219.955" width="24.5883" height="24.5883" rx="12.2941" fill="#357EE7"/>
<path d="M141.172 236.291V234.005L147.05 224.842H150.681V233.967H152.448V236.291H150.681V238.75H147.934V236.291H141.172ZM144.092 233.967H147.972V228.012H147.838L144.092 233.852V233.967Z" fill="white"/>
<rect x="67.4053" y="310.533" width="120.251" height="66.0923" rx="7.34359" fill="white"/>
<path d="M107.262 351.589C107.776 351.589 108.033 351.864 108.033 352.378V353.571C108.033 354.067 107.776 354.306 107.262 354.306H96.1543C95.6036 354.306 95.3282 354.049 95.3282 353.498V352.378C95.3282 351.864 95.5852 351.589 96.1176 351.589H107.262ZM107.353 336.755C107.794 336.755 108.033 337.012 108.033 337.526C108.033 342.005 107.684 346.008 107.004 349.569C106.913 350.047 106.601 350.267 106.068 350.267H104.838C104.508 350.267 104.287 350.193 104.214 350.01C104.122 349.845 104.104 349.624 104.177 349.331C104.655 346.375 104.948 343.217 105.022 339.839C105.058 339.545 104.93 339.38 104.636 339.38H95.934C95.5301 339.38 95.3282 339.178 95.3282 338.756V337.397C95.3282 336.975 95.5301 336.755 95.934 336.755H107.353ZM118.463 337.526C118.408 337.875 118.353 338.223 118.298 338.554C121.492 338.113 123.108 341.363 123.108 348.339V353.828C123.108 354.287 122.851 354.508 122.355 354.508H120.978C120.464 354.508 120.207 354.287 120.207 353.828V348.192C120.207 343.346 119.436 341.234 117.894 341.84C117.453 345.842 117.252 349.826 117.288 353.792C117.288 354.269 117.031 354.508 116.517 354.508H115.122C114.608 354.508 114.351 354.269 114.351 353.755C114.296 347.366 114.7 341.969 115.563 337.526C115.691 337.012 115.985 336.755 116.444 336.755H117.802C118.353 336.755 118.573 337.012 118.463 337.526ZM128.01 341.418C128.542 341.418 128.818 341.656 128.818 342.097V343.511C128.818 344.025 128.561 344.282 128.065 344.282H127.239V354.03C127.239 354.489 126.982 354.71 126.468 354.71H125.036C124.522 354.71 124.283 354.489 124.283 354.049V337.012C124.283 336.608 124.522 336.387 124.999 336.387H126.486C126.982 336.387 127.239 336.608 127.239 337.048V341.418H128.01ZM144.274 339.986C144.715 339.986 144.954 340.224 144.954 340.665V342.024C144.954 342.519 144.696 342.758 144.182 342.758H143.228V346.595C143.228 347.183 142.934 347.476 142.365 347.476H141.245C140.658 347.476 140.364 347.201 140.364 346.613V345.989C137.536 346.907 134.379 347.366 130.891 347.366C130.358 347.366 130.101 347.127 130.101 346.632V340.83C130.101 340.426 130.321 340.206 130.78 340.206H136.086V339.196H130.817C130.34 339.196 130.101 338.976 130.101 338.517V337.434C130.101 336.993 130.321 336.755 130.799 336.755H137.959C138.546 336.755 138.84 337.012 138.84 337.507V341.785C138.84 342.372 138.546 342.666 137.959 342.666H132.781V344.833C135.719 344.686 138.252 344.19 140.364 343.309V337.048C140.364 336.608 140.621 336.369 141.153 336.369H142.438C142.952 336.369 143.228 336.608 143.228 337.067V339.986H144.274ZM143.687 353.939C143.687 354.453 143.411 354.71 142.861 354.71H130.927C130.413 354.71 130.175 354.471 130.175 353.957V349.055C130.175 348.523 130.45 348.247 131.037 348.247H142.842C143.393 348.247 143.687 348.523 143.687 349.037V353.939ZM140.823 352.507V350.561H133.02V352.507H140.823ZM159.688 354.049C159.688 354.489 159.468 354.71 159.028 354.71H157.449C156.99 354.71 156.769 354.471 156.769 353.994V337.03C156.769 336.608 156.99 336.387 157.449 336.387H158.972C159.45 336.387 159.688 336.626 159.688 337.067V354.049ZM150.858 336.387C151.812 336.387 152.584 336.571 153.208 336.938C153.814 337.305 154.291 337.875 154.658 338.609C155.007 339.343 155.246 340.28 155.392 341.381C155.521 342.483 155.594 343.786 155.594 345.255C155.594 346.834 155.521 348.229 155.374 349.404C155.227 350.579 154.97 351.57 154.621 352.36C154.254 353.149 153.777 353.737 153.171 354.122C152.547 354.526 151.776 354.71 150.858 354.71C149.903 354.71 149.114 354.526 148.489 354.122C147.865 353.718 147.37 353.131 147.002 352.341C146.635 351.552 146.397 350.561 146.25 349.386C146.103 348.211 146.029 346.834 146.029 345.255C146.029 343.786 146.103 342.501 146.268 341.399C146.433 340.298 146.709 339.362 147.076 338.627C147.443 337.893 147.939 337.324 148.563 336.957C149.187 336.589 149.94 336.387 150.858 336.387ZM152.841 345.255C152.841 344.227 152.804 343.309 152.767 342.519C152.712 341.748 152.62 341.087 152.473 340.573C152.326 340.059 152.125 339.655 151.868 339.398C151.61 339.141 151.28 339.013 150.876 339.013C150.454 339.013 150.123 339.141 149.866 339.398C149.609 339.655 149.407 340.059 149.261 340.573C149.114 341.087 149.022 341.748 148.985 342.519C148.93 343.309 148.912 344.227 148.912 345.255C148.912 347.55 149.04 349.275 149.316 350.414C149.573 351.552 150.105 352.121 150.876 352.121C151.262 352.121 151.592 351.993 151.849 351.699C152.106 351.405 152.308 350.983 152.455 350.395C152.602 349.826 152.694 349.11 152.749 348.247C152.804 347.403 152.841 346.393 152.841 345.255Z" fill="#1C1C1C"/>
<rect x="202.344" y="310.533" width="120.251" height="66.0923" rx="7.34359" fill="#A07BE5"/>
<path d="M231.027 339.894C231.542 339.894 231.799 340.151 231.799 340.665V342.024C231.799 342.538 231.542 342.795 231.027 342.795H230.22V344.282H231.046C231.542 344.282 231.799 344.539 231.799 345.053V346.411C231.799 346.926 231.542 347.183 231.046 347.183H230.22V353.939C230.22 354.453 229.944 354.691 229.412 354.691H228.09C227.558 354.691 227.282 354.471 227.264 354.03V337.159C227.264 336.644 227.521 336.387 228.035 336.387H229.485C229.963 336.387 230.22 336.626 230.22 337.067V339.894H231.027ZM221.444 336.387C222.399 336.387 223.17 336.571 223.794 336.938C224.4 337.305 224.877 337.875 225.244 338.609C225.593 339.343 225.832 340.28 225.979 341.381C226.107 342.483 226.181 343.786 226.181 345.255C226.181 346.834 226.107 348.229 225.96 349.404C225.814 350.579 225.557 351.57 225.208 352.36C224.841 353.149 224.363 353.737 223.757 354.122C223.133 354.526 222.362 354.71 221.444 354.71C220.489 354.71 219.7 354.526 219.076 354.122C218.452 353.718 217.956 353.131 217.589 352.341C217.222 351.552 216.983 350.561 216.836 349.386C216.689 348.211 216.616 346.834 216.616 345.255C216.616 343.786 216.689 342.501 216.854 341.399C217.02 340.298 217.295 339.362 217.662 338.627C218.029 337.893 218.525 337.324 219.149 336.957C219.773 336.589 220.526 336.387 221.444 336.387ZM223.427 345.255C223.427 344.227 223.39 343.309 223.353 342.519C223.298 341.748 223.207 341.087 223.06 340.573C222.913 340.059 222.711 339.655 222.454 339.398C222.197 339.141 221.866 339.013 221.462 339.013C221.04 339.013 220.71 339.141 220.453 339.398C220.196 339.655 219.994 340.059 219.847 340.573C219.7 341.087 219.608 341.748 219.571 342.519C219.516 343.309 219.498 344.227 219.498 345.255C219.498 347.55 219.627 349.275 219.902 350.414C220.159 351.552 220.691 352.121 221.462 352.121C221.848 352.121 222.178 351.993 222.435 351.699C222.693 351.405 222.894 350.983 223.041 350.395C223.188 349.826 223.28 349.11 223.335 348.247C223.39 347.403 223.427 346.393 223.427 345.255ZM241.108 354.049C241.108 354.489 240.851 354.71 240.374 354.71H238.74C238.263 354.71 238.042 354.489 238.042 354.049V351.368H233.875C233.324 351.368 233.067 351.13 233.067 350.634V349.349C233.067 348.872 233.324 348.615 233.875 348.615H245.349C245.881 348.615 246.157 348.872 246.157 349.386V350.561C246.157 351.111 245.881 351.368 245.331 351.368H241.108V354.049ZM245.606 336.755C245.992 336.755 246.157 337.012 246.12 337.526C246.12 342.005 245.643 345.236 244.707 347.256C244.523 347.678 244.156 347.88 243.623 347.88H242.228C241.898 347.88 241.677 347.807 241.604 347.623C241.512 347.458 241.549 347.238 241.714 346.944C242.559 345.585 243.036 343.217 243.109 339.839C243.146 339.545 243.017 339.38 242.724 339.38H233.728C233.324 339.38 233.122 339.178 233.122 338.756V337.397C233.122 336.975 233.324 336.755 233.728 336.755H245.606ZM256.954 345.659C256.954 346.026 256.789 346.265 256.459 346.375C254.659 346.999 252.107 347.311 248.766 347.311C248.215 347.311 247.958 347.054 247.958 346.503V337.085C247.958 336.626 248.179 336.387 248.638 336.387H249.978C250.455 336.387 250.712 336.608 250.712 337.048V338.389H254.2V337.067C254.2 336.626 254.421 336.387 254.88 336.387H256.275C256.716 336.387 256.954 336.626 256.954 337.067V345.659ZM250.712 344.778C251.906 344.778 253.062 344.667 254.2 344.447V340.922H250.712V344.778ZM262.003 340.133C262.444 340.133 262.682 340.371 262.682 340.83V342.299C262.682 342.758 262.444 342.978 261.985 342.978H260.956V346.613C260.956 347.091 260.699 347.311 260.222 347.311H258.753C258.258 347.311 258.019 347.072 258.019 346.595V337.048C258.019 336.608 258.258 336.387 258.735 336.387H260.259C260.718 336.387 260.956 336.608 260.956 337.012V340.133H262.003ZM254.99 347.843C256.367 347.843 257.505 347.917 258.405 348.064C259.304 348.211 260.02 348.431 260.534 348.725C261.048 349.018 261.415 349.386 261.636 349.826C261.838 350.267 261.948 350.781 261.948 351.368C261.948 351.919 261.838 352.396 261.617 352.837C261.397 353.278 261.012 353.645 260.479 353.939C259.947 354.251 259.231 354.489 258.35 354.655C257.45 354.82 256.33 354.893 254.99 354.893C253.631 354.893 252.493 354.82 251.612 354.673C250.731 354.526 250.033 354.287 249.519 353.994C249.005 353.7 248.638 353.333 248.436 352.892C248.215 352.452 248.124 351.956 248.124 351.368C248.124 350.818 248.234 350.304 248.454 349.863C248.674 349.422 249.06 349.055 249.592 348.761C250.125 348.468 250.841 348.229 251.722 348.082C252.603 347.935 253.686 347.843 254.99 347.843ZM254.99 352.654C255.761 352.654 256.403 352.635 256.936 352.598C257.45 352.562 257.872 352.488 258.203 352.378C258.515 352.286 258.735 352.158 258.882 351.993C259.029 351.827 259.102 351.625 259.102 351.368C259.102 351.148 259.029 350.946 258.9 350.781C258.753 350.634 258.533 350.506 258.203 350.395C257.872 350.304 257.45 350.23 256.936 350.193C256.403 350.157 255.761 350.12 254.99 350.12C254.237 350.12 253.613 350.157 253.099 350.193C252.585 350.23 252.163 350.304 251.85 350.395C251.538 350.506 251.318 350.634 251.171 350.781C251.024 350.946 250.969 351.148 250.969 351.368C250.969 351.864 251.3 352.195 251.979 352.378C252.658 352.562 253.668 352.654 254.99 352.654ZM272.408 345.659C272.408 345.952 272.224 346.154 271.894 346.283C269.617 346.907 267.194 347.238 264.587 347.274C264.073 347.274 263.816 347.091 263.816 346.705V337.416C263.816 336.975 264.091 336.755 264.642 336.755H271.49C272.096 336.755 272.408 336.975 272.408 337.416V345.659ZM266.606 344.851C267.634 344.851 268.589 344.704 269.507 344.41V339.307H266.606V344.851ZM277.53 339.912C277.989 339.912 278.228 340.151 278.228 340.61V342.097C278.228 342.556 277.989 342.776 277.512 342.776H276.539V346.301C276.539 346.779 276.281 346.999 275.786 346.999H274.317C273.803 346.999 273.564 346.76 273.564 346.283V337.067C273.564 336.626 273.803 336.387 274.299 336.387H275.823C276.3 336.387 276.539 336.608 276.539 337.012V339.912H277.53ZM270.921 347.807C275.51 347.807 277.805 349 277.805 351.35C277.805 353.663 275.51 354.82 270.921 354.82C266.331 354.82 264.036 353.663 264.036 351.332C264.036 348.982 266.331 347.807 270.921 347.807ZM270.939 352.58C273.619 352.58 274.96 352.176 274.96 351.332C274.96 350.487 273.601 350.065 270.921 350.065C268.204 350.065 266.863 350.487 266.863 351.332C266.863 352.176 268.222 352.58 270.939 352.58ZM292.722 354.049C292.722 354.489 292.502 354.71 292.061 354.71H290.482C290.023 354.71 289.803 354.471 289.803 353.994V337.03C289.803 336.608 290.023 336.387 290.482 336.387H292.006C292.483 336.387 292.722 336.626 292.722 337.067V354.049ZM283.891 336.387C284.846 336.387 285.617 336.571 286.241 336.938C286.847 337.305 287.324 337.875 287.691 338.609C288.04 339.343 288.279 340.28 288.426 341.381C288.554 342.483 288.628 343.786 288.628 345.255C288.628 346.834 288.554 348.229 288.407 349.404C288.261 350.579 288.004 351.57 287.655 352.36C287.288 353.149 286.81 353.737 286.204 354.122C285.58 354.526 284.809 354.71 283.891 354.71C282.936 354.71 282.147 354.526 281.523 354.122C280.899 353.718 280.403 353.131 280.036 352.341C279.669 351.552 279.43 350.561 279.283 349.386C279.136 348.211 279.063 346.834 279.063 345.255C279.063 343.786 279.136 342.501 279.301 341.399C279.467 340.298 279.742 339.362 280.109 338.627C280.476 337.893 280.972 337.324 281.596 336.957C282.22 336.589 282.973 336.387 283.891 336.387ZM285.874 345.255C285.874 344.227 285.837 343.309 285.8 342.519C285.745 341.748 285.654 341.087 285.507 340.573C285.36 340.059 285.158 339.655 284.901 339.398C284.644 339.141 284.313 339.013 283.91 339.013C283.487 339.013 283.157 339.141 282.9 339.398C282.643 339.655 282.441 340.059 282.294 340.573C282.147 341.087 282.055 341.748 282.019 342.519C281.963 343.309 281.945 344.227 281.945 345.255C281.945 347.55 282.074 349.275 282.349 350.414C282.606 351.552 283.138 352.121 283.91 352.121C284.295 352.121 284.626 351.993 284.883 351.699C285.14 351.405 285.342 350.983 285.488 350.395C285.635 349.826 285.727 349.11 285.782 348.247C285.837 347.403 285.874 346.393 285.874 345.255ZM307.564 344.41C307.968 344.429 308.17 344.594 308.17 344.906V345.952C308.17 346.393 307.95 346.613 307.527 346.613H295.172C294.731 346.613 294.511 346.375 294.511 345.897V344.998C294.511 344.612 294.694 344.41 295.08 344.41H307.564ZM295.135 338.444C294.713 338.444 294.511 338.278 294.511 337.93V336.957C294.511 336.589 294.713 336.387 295.135 336.387H307.472C307.931 336.387 308.17 336.589 308.17 336.957V340.243C308.17 340.683 307.95 340.904 307.509 340.904H297.301V341.656H307.509C307.95 341.656 308.17 341.858 308.17 342.226V343.07C308.17 343.511 307.95 343.731 307.546 343.731H295.117C294.713 343.731 294.511 343.529 294.511 343.125V339.766C294.511 339.362 294.713 339.141 295.117 339.141H305.361V338.444H295.135ZM295.172 349.386C294.731 349.386 294.511 349.184 294.511 348.761V347.954C294.511 347.531 294.731 347.311 295.172 347.311H307.454C307.931 347.311 308.17 347.531 308.17 347.954V351.258C308.17 351.68 307.95 351.882 307.509 351.882H297.301V352.617H307.509C307.95 352.617 308.17 352.819 308.17 353.204V354.122C308.17 354.508 307.931 354.691 307.472 354.691H295.19C294.731 354.691 294.511 354.489 294.511 354.049V350.726C294.511 350.322 294.731 350.12 295.208 350.12H305.361V349.386H295.172Z" fill="white"/>
<rect x="67.4053" y="392.625" width="120.251" height="66.0923" rx="7.34359" fill="white"/>
<path d="M90.6144 430.302C90.0269 430.302 89.7515 430.045 89.7515 429.495V419.544C89.7515 419.067 90.0085 418.828 90.5409 418.828H91.9179C92.4319 418.828 92.7073 419.067 92.7073 419.507V421.16H100.308V419.507C100.308 419.067 100.565 418.828 101.116 418.828H102.511C103.025 418.828 103.282 419.048 103.282 419.489V429.495C103.282 430.045 102.97 430.302 102.364 430.302H90.6144ZM100.308 427.659V423.785H92.7073V427.659H100.308ZM97.9213 436.141C97.9213 436.581 97.7193 436.802 97.3154 436.802H95.4979C95.0756 436.802 94.8737 436.581 94.8737 436.141V434.341H90.596C90.0269 434.341 89.7515 434.121 89.7515 433.644V432.322C89.7515 431.845 90.0269 431.588 90.5777 431.588H102.474C103.007 431.588 103.282 431.881 103.282 432.432V433.497C103.282 434.066 103.007 434.341 102.474 434.341H97.9213V436.141ZM109.167 419.618C109.112 419.966 109.057 420.315 109.002 420.646C112.196 420.205 113.812 423.455 113.812 430.431V435.92C113.812 436.379 113.555 436.6 113.059 436.6H111.682C111.168 436.6 110.911 436.379 110.911 435.92V430.284C110.911 425.437 110.14 423.326 108.598 423.932C108.157 427.934 107.955 431.918 107.992 435.884C107.992 436.361 107.735 436.6 107.221 436.6H105.826C105.311 436.6 105.054 436.361 105.054 435.847C104.999 429.458 105.403 424.06 106.266 419.618C106.395 419.103 106.688 418.846 107.147 418.846H108.506C109.057 418.846 109.277 419.103 109.167 419.618ZM115.96 423.895V422.739H114.73C114.216 422.739 113.977 422.518 113.977 422.078V420.884C113.977 420.444 114.216 420.205 114.711 420.205H115.96V419.122C115.96 418.681 116.198 418.461 116.712 418.461H118.218C118.658 418.461 118.879 418.681 118.915 419.103V436.141C118.915 436.581 118.658 436.783 118.144 436.783H116.731C116.217 436.783 115.96 436.563 115.96 436.104V426.429H114.73C114.216 426.429 113.977 426.208 113.977 425.768V424.574C113.977 424.134 114.216 423.895 114.711 423.895H115.96ZM133.622 434.103C134.118 434.103 134.375 434.341 134.375 434.8V436.214C134.375 436.581 134.173 436.765 133.788 436.765H121.395C120.955 436.765 120.734 436.508 120.734 435.957V434.911C120.734 434.378 120.973 434.103 121.487 434.103H133.622ZM121.579 432.561C121.028 432.561 120.734 432.304 120.734 431.79V419.122C120.734 418.681 120.973 418.461 121.45 418.461H133.494C133.898 418.461 134.118 418.663 134.118 419.103V420.425C134.118 420.829 133.898 421.013 133.475 421.013H129.932V429.954H133.512C134.008 429.954 134.265 430.174 134.265 430.596V431.845C134.265 432.322 134.045 432.542 133.604 432.542L121.579 432.561ZM123.819 429.954H126.976V421.013H123.819V429.954ZM146.608 428.32H145.36C144.809 428.32 144.534 428.063 144.534 427.549V426.374C144.534 425.915 144.791 425.676 145.323 425.676H146.608V424.519H145.36C144.809 424.519 144.534 424.262 144.534 423.748V422.555C144.534 422.114 144.791 421.876 145.323 421.876H146.608V419.195C146.608 418.718 146.883 418.461 147.453 418.461H148.701C149.252 418.461 149.546 418.7 149.546 419.177V435.957C149.546 436.526 149.289 436.802 148.774 436.802H147.453C146.883 436.802 146.608 436.526 146.608 435.975V435.039C143.157 435.957 139.981 436.416 137.043 436.416C136.419 436.416 136.107 436.141 136.107 435.553V424.115C136.107 423.638 136.345 423.399 136.823 423.399H141.082V421.508H136.896C136.364 421.508 136.107 421.27 136.107 420.756V419.562C136.107 419.085 136.327 418.846 136.804 418.846H143.083C143.671 418.846 143.964 419.085 143.964 419.562V425.015C143.964 425.676 143.597 425.988 142.9 425.988H138.879V433.625C141.266 433.625 143.854 433.148 146.608 432.193V428.32ZM155.433 419.618C155.378 419.966 155.323 420.315 155.268 420.646C158.462 420.205 160.078 423.455 160.078 430.431V435.92C160.078 436.379 159.821 436.6 159.325 436.6H157.948C157.434 436.6 157.177 436.379 157.177 435.92V430.284C157.177 425.437 156.406 423.326 154.864 423.932C154.423 427.934 154.221 431.918 154.258 435.884C154.258 436.361 154.001 436.6 153.487 436.6H152.092C151.578 436.6 151.32 436.361 151.32 435.847C151.265 429.458 151.669 424.06 152.532 419.618C152.661 419.103 152.954 418.846 153.413 418.846H154.772C155.323 418.846 155.543 419.103 155.433 419.618ZM162.281 421.435V419.14C162.281 418.7 162.519 418.479 163.034 418.479H164.539C164.998 418.479 165.237 418.7 165.237 419.103V436.177C165.237 436.581 164.98 436.783 164.484 436.783H162.978C162.501 436.783 162.281 436.563 162.281 436.122V424.336H160.61C160.133 424.336 159.894 424.115 159.894 423.675V422.114C159.894 421.674 160.114 421.435 160.592 421.435H162.281Z" fill="#1C1C1C"/>
<rect x="202.344" y="392.625" width="120.251" height="66.0923" rx="7.34359" fill="white"/>
<path d="M229.344 419.562C229.326 419.966 229.308 420.334 229.308 420.701C235.293 419.618 238.01 423.363 237.441 431.936C237.404 432.377 237.165 432.597 236.688 432.597H234.944C234.485 432.597 234.283 432.377 234.356 431.9C234.944 425.511 233.2 422.757 229.124 423.656C228.757 427.255 228.004 430.045 226.866 432.028C226.646 432.414 226.278 432.597 225.728 432.597H224.222C223.873 432.597 223.671 432.506 223.635 432.322C223.58 432.138 223.616 431.918 223.727 431.698C225.397 428.907 226.26 424.831 226.297 419.507C226.297 419.067 226.499 418.828 226.939 418.828H228.665C229.106 418.828 229.326 419.085 229.344 419.562ZM236.706 433.699C237.275 433.699 237.569 433.956 237.569 434.433V435.755C237.569 436.214 237.349 436.453 236.908 436.453H224.369C223.818 436.453 223.543 436.177 223.543 435.59V434.488C223.543 433.974 223.8 433.699 224.332 433.699H236.706ZM240.045 432.304C239.568 432.304 239.329 432.065 239.329 431.551V430.339C239.329 429.88 239.568 429.642 240.045 429.642H241.771V421.49H240.045C239.568 421.49 239.329 421.251 239.329 420.756V419.562C239.329 419.085 239.549 418.846 240.027 418.846H252.309C252.823 418.846 253.08 419.048 253.08 419.434V420.884C253.08 421.288 252.841 421.49 252.401 421.49H250.657V429.642H252.327C252.823 429.642 253.08 429.917 253.08 430.449V431.643C253.062 432.083 252.805 432.304 252.327 432.304H247.738V433.791H252.364C252.841 433.791 253.08 434.048 253.08 434.525V435.755C253.08 436.196 252.823 436.416 252.327 436.416H240.045C239.568 436.416 239.329 436.177 239.329 435.7V434.543C239.329 434.048 239.568 433.791 240.063 433.791H244.69V432.304H240.045ZM244.672 429.642H247.756V421.49H244.672V429.642ZM267.807 418.92C268.321 418.92 268.578 419.177 268.597 419.654V420.774C268.597 421.288 268.321 421.527 267.807 421.527H261.529C261.51 421.784 261.492 422.023 261.492 422.243C266.137 422.463 268.487 425.676 268.542 431.9C268.542 432.34 268.321 432.561 267.917 432.561H266.137C265.678 432.561 265.457 432.34 265.457 431.9C265.347 427.438 263.915 425.088 261.125 424.831C260.611 427.604 259.693 429.99 258.408 431.991C258.114 432.377 257.728 432.561 257.214 432.561H255.342C255.121 432.561 254.974 432.487 254.901 432.34C254.828 432.193 254.883 432.028 255.029 431.845C257.233 428.981 258.371 425.547 258.463 421.527H255.69C255.25 421.527 255.029 421.307 255.029 420.829V419.654C255.029 419.177 255.25 418.92 255.69 418.92H260.299V418.259C260.299 417.892 260.482 417.69 260.886 417.69H262.648C263.016 417.69 263.199 417.892 263.199 418.259V418.92H267.807ZM267.881 434.048C268.413 434.048 268.689 434.305 268.689 434.782V436.122C268.689 436.563 268.468 436.802 268.028 436.802H255.782C255.231 436.802 254.956 436.526 254.956 435.957V434.855C254.956 434.323 255.231 434.048 255.819 434.048H267.881ZM283.144 434.25C283.603 434.25 283.841 434.47 283.841 434.892V436.141C283.841 436.581 283.603 436.802 283.144 436.802H271.247C270.733 436.802 270.476 436.563 270.476 436.067V432.157C270.476 431.734 270.678 431.514 271.118 431.514H272.661C273.12 431.514 273.358 431.734 273.358 432.157V434.25H283.144ZM283.07 422.445H284.061C284.502 422.445 284.741 422.683 284.741 423.142V424.611C284.741 425.07 284.484 425.29 284.006 425.29H283.07V430.247C283.07 430.78 282.776 431.037 282.207 431.037H280.977C280.426 431.037 280.169 430.78 280.169 430.247V429.348C276.608 430.009 273.56 430.339 271.027 430.339C270.604 430.339 270.402 430.156 270.402 429.752V419.544C270.402 419.085 270.659 418.846 271.173 418.846H272.495C272.991 418.846 273.248 419.085 273.248 419.526V427.769C275.69 427.64 278.003 427.273 280.169 426.649V419.14C280.169 418.7 280.408 418.479 280.922 418.479H282.317C282.813 418.479 283.07 418.718 283.07 419.159V422.445ZM290.228 418.461C290.962 418.461 291.568 418.589 292.082 418.828C292.577 419.085 292.981 419.471 293.312 420.021C293.624 420.572 293.863 421.27 294.009 422.151C294.156 423.032 294.266 424.115 294.303 425.382H295.111V419.14C295.111 418.7 295.35 418.479 295.864 418.479H297.13C297.608 418.479 297.865 418.7 297.865 419.14V436.141C297.865 436.581 297.626 436.783 297.186 436.783H295.882C295.368 436.783 295.111 436.563 295.111 436.104V428.283H294.34C294.303 429.715 294.211 430.945 294.083 432.01C293.954 433.075 293.752 433.956 293.459 434.654C293.165 435.351 292.743 435.884 292.229 436.232C291.715 436.6 291.035 436.765 290.228 436.765C289.328 436.765 288.612 436.6 288.061 436.251C287.51 435.92 287.07 435.37 286.776 434.617C286.464 433.864 286.262 432.873 286.152 431.661C286.042 430.449 286.005 428.981 286.005 427.255C286.005 425.639 286.06 424.281 286.189 423.161C286.299 422.059 286.519 421.141 286.831 420.444C287.143 419.746 287.584 419.25 288.135 418.938C288.685 418.626 289.383 418.461 290.228 418.461ZM298.581 419.14C298.581 418.7 298.82 418.479 299.334 418.479H300.6C301.078 418.479 301.335 418.7 301.335 419.14V436.141C301.335 436.581 301.096 436.783 300.655 436.783H299.352C298.838 436.783 298.581 436.563 298.581 436.104V419.14ZM291.513 426.869C291.513 425.841 291.476 424.942 291.439 424.207C291.402 423.473 291.329 422.885 291.237 422.408C291.127 421.949 290.999 421.619 290.815 421.398C290.631 421.178 290.411 421.068 290.154 421.068C289.86 421.068 289.64 421.178 289.456 421.362C289.273 421.564 289.144 421.894 289.053 422.371C288.942 422.849 288.887 423.491 288.851 424.281C288.814 425.088 288.796 426.08 288.796 427.255C288.796 428.577 288.796 429.66 288.832 430.541C288.869 431.422 288.924 432.138 289.034 432.671C289.126 433.222 289.254 433.607 289.438 433.827C289.622 434.066 289.86 434.176 290.154 434.176C290.448 434.176 290.668 434.066 290.852 433.846C291.035 433.625 291.164 433.258 291.274 432.726C291.366 432.193 291.421 431.477 291.458 430.596C291.494 429.715 291.513 428.595 291.513 427.255V426.869Z" fill="#1C1C1C"/>
<rect x="30.6875" y="518.908" width="328.626" height="44.0615" rx="7.34359" fill="#A07BE5"/>
<path d="M193.78 539.01C194.147 539.01 194.338 539.186 194.338 539.509V540.699C194.338 541.11 194.147 541.301 193.765 541.301H193.001V549.041C193.001 549.452 192.796 549.643 192.384 549.643H191.239C190.842 549.643 190.651 549.467 190.651 549.085V548.659C187.758 549.1 185.393 549.335 183.543 549.335C183.073 549.335 182.838 549.1 182.838 548.63V535.881C182.838 535.485 183.043 535.279 183.455 535.279H188.918C189.3 535.279 189.506 535.47 189.506 535.837V536.792C189.506 537.174 189.3 537.365 188.889 537.365H185.085V547.22C187.024 547.22 188.874 546.985 190.651 546.544V535.514C190.651 535.162 190.827 534.985 191.195 534.985H192.399C192.796 534.985 193.001 535.162 193.001 535.514V539.01H193.78ZM200.8 534.838C204.443 534.838 206.264 535.984 206.264 538.261C206.235 540.405 204.413 541.477 200.786 541.477C197.173 541.462 195.366 540.39 195.381 538.261C195.396 535.984 197.202 534.838 200.8 534.838ZM200.786 539.48C202.93 539.48 204.002 539.083 204.002 538.261C204.002 537.321 202.93 536.851 200.8 536.851C198.685 536.851 197.643 537.321 197.643 538.261C197.643 539.083 198.685 539.48 200.786 539.48ZM205.677 541.976C206.058 541.976 206.264 542.197 206.264 542.623V543.548C206.264 543.915 206.073 544.106 205.721 544.121H195.983C195.572 544.121 195.366 543.915 195.366 543.475V542.623C195.366 542.197 195.572 541.976 196.012 541.976H205.677ZM205.677 544.855C206.058 544.855 206.264 545.031 206.264 545.369V548.968C206.264 549.408 206.058 549.628 205.647 549.628H196.056C195.601 549.628 195.381 549.452 195.381 549.085V545.413C195.381 545.046 195.586 544.855 196.027 544.855H205.677ZM197.628 547.675H203.988V546.794H197.628V547.675Z" fill="#271051"/>
<path opacity="0.9" fill-rule="evenodd" clip-rule="evenodd" d="M16 -160.373H374V614.375H16V-160.373ZM52.718 311.453C52.718 303.341 59.2936 296.765 67.4051 296.765H325.349C333.46 296.765 340.036 303.341 340.036 311.453V376.627C340.036 384.739 333.46 391.314 325.349 391.314H67.4051C59.2936 391.314 52.718 384.738 52.718 376.627V311.453ZM38.0311 518.908C33.9753 518.908 30.6875 522.196 30.6875 526.252V555.626C30.6875 559.682 33.9753 562.97 38.0311 562.97H351.97C356.025 562.97 359.313 559.682 359.313 555.626V526.252C359.313 522.196 356.025 518.908 351.97 518.908H38.0311Z" fill="black" fill-opacity="0.9"/>
<rect x="228.045" y="175.484" width="27.5385" height="27.5385" rx="13.7692" fill="#6429D1"/>
<path d="M241.808 194.397C239.584 194.397 238.007 193.193 237.964 191.443H239.843C239.9 192.275 240.732 192.82 241.808 192.82C242.955 192.82 243.773 192.189 243.773 191.271C243.773 190.338 242.969 189.664 241.621 189.664H240.689V188.23H241.621C242.726 188.23 243.5 187.613 243.486 186.71C243.5 185.835 242.84 185.247 241.822 185.247C240.847 185.247 240 185.792 239.972 186.666H238.179C238.222 184.917 239.8 183.726 241.836 183.726C243.945 183.726 245.307 185.017 245.293 186.609C245.307 187.771 244.533 188.617 243.4 188.847V188.933C244.863 189.133 245.695 190.066 245.68 191.371C245.695 193.121 244.059 194.397 241.808 194.397Z" fill="white"/>
<path d="M130.248 217.412V218.59H119.385V212.807H130.143V213.984H121.073V215.092H129.739V216.234H121.073V217.412H130.248ZM131.883 219.645V220.928H117.557V219.645H131.883ZM130.09 221.982V225.516H120.914V226.799H130.53V228.029H119.28V224.355H128.438V223.178H119.262V221.982H130.09ZM145.779 212.455V224.039H144.127V212.455H145.779ZM146.219 226.5V227.854H135.373V223.125H137.043V226.5H146.219ZM140.769 213.545V218.238H135.197V220.506C138.097 220.497 140.066 220.4 142.404 219.979L142.58 221.35C140.101 221.789 138.01 221.877 134.881 221.877H133.562V216.973H139.117V214.881H133.527V213.545H140.769ZM166.364 221.701V223.02H159.93V228.188H158.295V223.02H151.95V221.701H166.364ZM155.395 213.07V215.127H162.883V213.07H164.553V219.908H153.743V213.07H155.395ZM155.395 218.572H162.883V216.463H155.395V218.572ZM181.56 220.682V222.018H175.303V224.918H173.65V222.018H167.146V220.682H181.56ZM179.961 226.5V227.854H168.939V223.547H170.592V226.5H179.961ZM170.697 212.93V214.846H177.992V212.93H179.662V219.293H169.045V212.93H170.697ZM170.697 217.957H177.992V216.094H170.697V217.957ZM189.532 212.701C193.083 212.701 195.157 213.65 195.157 215.408C195.157 217.166 193.083 218.133 189.532 218.133C185.982 218.133 183.907 217.166 183.907 215.408C183.907 213.65 185.982 212.701 189.532 212.701ZM189.532 213.932C187.019 213.932 185.63 214.477 185.648 215.408C185.63 216.375 187.019 216.885 189.532 216.885C192.046 216.885 193.435 216.375 193.435 215.408C193.435 214.477 192.046 213.932 189.532 213.932ZM196.722 219.1V220.436H182.361V219.1H196.722ZM194.911 221.648V225.34H185.736V226.746H195.351V228.029H184.101V224.127H193.259V222.896H184.083V221.648H194.911ZM207.111 215.689C207.111 217.482 208.535 219.17 210.943 219.838L210.187 221.121C208.351 220.611 207.006 219.504 206.303 218.08C205.608 219.636 204.228 220.849 202.365 221.42L201.557 220.102C203.965 219.416 205.459 217.658 205.459 215.689V215.514H202.031V214.178H205.459V212.367H207.129V214.178H210.539V215.514H207.111V215.689ZM213.967 212.438V216.217H216.252V217.605H213.967V221.525H212.297V212.438H213.967ZM214.213 222.316V223.652H209.906C210.205 225.12 212.226 226.465 214.863 226.852L214.248 228.135C211.857 227.766 209.889 226.667 208.975 225.164C208.069 226.658 206.118 227.739 203.736 228.117L203.121 226.834C205.767 226.465 207.762 225.164 208.078 223.652H203.754V222.316H214.213ZM221.218 213.334C223.626 213.334 225.402 214.846 225.419 217.078C225.402 219.275 223.626 220.805 221.218 220.805C218.81 220.805 217.017 219.275 217.034 217.078C217.017 214.846 218.81 213.334 221.218 213.334ZM221.218 214.74C219.741 214.74 218.652 215.689 218.669 217.078C218.652 218.484 219.741 219.398 221.218 219.416C222.695 219.398 223.784 218.484 223.784 217.078C223.784 215.689 222.695 214.74 221.218 214.74ZM229.163 212.438V216.094H231.449V217.465H229.163V221.35H227.493V212.438H229.163ZM222.079 222.826C222.079 224.188 222.747 225.621 224.189 226.482C225.621 225.551 226.316 224.021 226.316 222.826V222.035H227.95V222.826C227.95 224.479 229.023 226.061 231.079 226.746L230.236 227.994C228.706 227.432 227.652 226.377 227.124 225.076C226.615 226.351 225.665 227.537 224.206 228.135C222.703 227.555 221.754 226.438 221.271 225.146C220.7 226.386 219.662 227.44 218.195 227.994L217.368 226.746C219.372 226.025 220.48 224.355 220.48 222.826V222.035H222.079V222.826ZM236.256 213.615C238.392 213.615 239.957 215.426 240.212 218.344H243.464V212.438H245.116V228.223H243.464V219.697H240.229C240.045 222.765 238.445 224.672 236.256 224.672C233.901 224.672 232.249 222.527 232.266 219.135C232.249 215.76 233.901 213.615 236.256 213.615ZM236.256 215.109C234.833 215.109 233.848 216.656 233.848 219.135C233.848 221.631 234.833 223.178 236.256 223.178C237.68 223.178 238.665 221.631 238.665 219.135C238.665 216.656 237.68 215.109 236.256 215.109ZM249.766 222.914C249.783 220.611 250.469 219.908 251.629 219.188C252.367 218.73 252.93 218.098 252.93 217.166C252.93 216.059 252.086 215.373 251.031 215.373C250.082 215.373 249.168 215.953 249.08 217.254H247.182C247.252 215.021 248.939 213.791 251.031 213.791C253.316 213.791 254.846 215.162 254.846 217.166C254.846 218.572 254.178 219.521 253.053 220.207C251.998 220.84 251.594 221.49 251.559 222.914V223.02H249.766V222.914ZM250.732 226.816C250.047 226.816 249.467 226.254 249.484 225.568C249.467 224.883 250.047 224.32 250.732 224.32C251.4 224.32 251.98 224.883 251.98 225.568C251.98 226.254 251.4 226.816 250.732 226.816ZM111.448 240.615C112.881 240.615 114.067 241.441 114.771 242.865H118.655V239.438H120.308V255.223H118.655V249.176H114.876C114.199 250.758 112.96 251.672 111.448 251.672C109.093 251.672 107.44 249.527 107.458 246.135C107.44 242.76 109.093 240.615 111.448 240.615ZM111.448 242.109C110.024 242.109 109.04 243.656 109.04 246.135C109.04 248.631 110.024 250.178 111.448 250.178C112.872 250.178 113.856 248.631 113.856 246.135C113.856 243.656 112.872 242.109 111.448 242.109ZM115.245 244.236C115.359 244.816 115.439 245.449 115.439 246.135C115.439 246.732 115.386 247.286 115.28 247.805H118.655V244.236H115.245ZM135.469 239.438V255.188H133.782V239.438H135.469ZM130.776 241.125C130.776 245.73 128.807 249.738 123.411 252.322L122.532 250.969C126.724 248.974 128.763 246.135 129.088 242.461H123.288V241.125H130.776ZM237.979 240.07V241.055C237.962 242.039 237.962 243.27 237.68 244.799L236.028 244.658C236.274 243.305 236.309 242.303 236.309 241.406H227.098V240.07H237.979ZM239.755 245.607V246.926H225.428V245.607H231.176V243.006H232.811V245.607H239.755ZM238.014 248.227V252.129H228.786V253.693H238.419V255.029H227.116V250.969H236.362V249.58H227.098V248.227H238.014ZM252.877 239.438V245.59H255.408V246.996H252.877V255.223H251.225V239.438H252.877ZM248.43 240.861V246.645H242.91V250.055C245.617 250.046 247.621 249.949 249.924 249.527L250.082 250.881C247.621 251.338 245.494 251.443 242.541 251.461H241.258V245.291H246.777V242.215H241.223V240.861H248.43ZM154.138 271.623V272.977H143.187V267.211H144.857V271.623H154.138ZM155.773 275.156V276.527H149.321V282.188H147.669V276.527H141.359V275.156H155.773ZM170.969 278.883V280.254H156.555V278.883H170.969ZM169.211 267.598V272.52H159.965V274.822H169.581V276.158H158.313V271.166H167.559V268.951H158.278V267.598H169.211ZM179.785 267.773V269.109H183.213V266.455H184.883V277.934H183.213V273.855H179.785V275.227H172.472V267.773H179.785ZM174.125 269.127V273.908H178.15V269.127H174.125ZM185.234 280.5V281.854H174.599V276.879H176.287V280.5H185.234ZM179.785 272.484H183.213V270.48H179.785V272.484ZM200.159 271.482V272.836H197.083V274.822C198.48 274.761 199.869 274.664 201.161 274.523L201.284 275.754C197.926 276.211 194.235 276.299 191.282 276.299L191.053 274.963C192.398 274.954 193.901 274.937 195.43 274.893V272.836H192.46V267.439H200.018V268.793H194.129V271.482H200.159ZM204.044 266.438V278.25H202.374V266.438H204.044ZM204.536 280.5V281.854H193.655V277.406H195.325V280.5H204.536ZM218.449 266.438V272.537H220.98V273.908H218.449V282.223H216.779V266.438H218.449ZM214.213 267.949V269.303H208.517V276.914C211.163 276.905 213.149 276.791 215.391 276.387L215.601 277.793C213.141 278.232 211.049 278.32 208.113 278.303H206.848V267.949H214.213ZM239.192 266.42V282.17H237.575V274.049H235.852V281.432H234.288V266.754H235.852V272.678H237.575V266.42H239.192ZM229.331 268.336C229.331 271.799 228.874 275.35 226.676 278.355L225.358 277.564C227.177 275.209 227.775 272.581 227.907 269.689H225.762V268.336H229.331ZM233.057 268.336C233.057 271.816 232.776 276.07 230.421 279.393L229.067 278.637C231.089 275.965 231.51 272.713 231.598 269.689H229.84V268.336H233.057ZM253.65 266.438V282.223H251.98V266.438H253.65ZM243.156 267.756V271.799H247.393V267.756H249.045V278.443H241.486V267.756H243.156ZM243.156 277.072H247.393V273.117H243.156V277.072Z" fill="white"/>
<path d="M156.142 251.619V253.447H141.499V251.619H147.669V248.666H143.046V240.334H145.296V242.812H152.275V240.334H154.507V248.666H149.901V251.619H156.142ZM145.296 246.873H152.275V244.605H145.296V246.873ZM170.143 239.314V255.311H167.875V239.314H170.143ZM165.344 240.984C165.344 245.836 163.639 249.861 157.926 252.568L156.749 250.775C160.879 248.824 162.699 246.293 163.059 242.742H157.61V240.984H165.344ZM190.271 246.574V248.385H184.083V249.562C186.869 249.773 188.513 250.775 188.53 252.428C188.513 254.273 186.421 255.311 182.958 255.311C179.443 255.311 177.351 254.273 177.351 252.428C177.351 250.767 179.012 249.765 181.851 249.562V248.385H175.681V246.574H190.271ZM182.958 251.215C180.743 251.232 179.618 251.619 179.636 252.428C179.618 253.201 180.743 253.623 182.958 253.623C185.12 253.623 186.263 253.201 186.28 252.428C186.263 251.619 185.12 251.232 182.958 251.215ZM188.952 240V241.758H184.611C184.988 242.883 186.614 243.964 189.655 244.219L188.864 245.977C185.85 245.687 183.811 244.544 182.958 242.988C182.114 244.544 180.111 245.687 177.07 245.977L176.331 244.219C179.293 243.964 180.928 242.874 181.341 241.758H177.017V240H188.952ZM204.747 239.314V255.311H202.602V239.314H204.747ZM201.407 239.543V254.572H199.297V247.014H198.014C197.803 250.16 196.467 252.059 194.499 252.059C192.389 252.059 191.018 249.844 191.018 246.24C191.018 242.654 192.389 240.457 194.499 240.457C196.423 240.457 197.742 242.25 197.997 245.238H199.297V239.543H201.407ZM194.499 242.566C193.602 242.566 193.075 243.797 193.092 246.24C193.075 248.701 193.602 249.914 194.499 249.896C195.413 249.914 195.958 248.701 195.958 246.24C195.958 243.797 195.413 242.566 194.499 242.566ZM212.121 242.936C212.121 245.941 213.334 248.859 216.006 250.02L214.635 251.812C212.859 250.942 211.673 249.352 211.014 247.383C210.31 249.475 209.08 251.188 207.252 252.094L205.846 250.266C208.588 249.035 209.836 245.941 209.853 242.936V240.545H212.121V242.936ZM219.574 239.314V255.346H217.359V246.152H214.213V244.342H217.359V239.314H219.574Z" fill="#A07BE5"/>
<rect x="101" y="468.23" width="27.5385" height="27.5385" rx="13.7692" fill="#6429D1"/>
<path d="M110.703 485.064V483.572L115.192 476.616H117.516V483.529H118.879V485.064H117.516V487H115.737V485.064H110.703ZM112.611 483.529H115.766V478.738H115.651L112.611 483.457V483.529Z" fill="white"/>
<path d="M147.388 460.744V466.844H149.919V468.215H147.388V476.529H145.718V460.744H147.388ZM143.152 462.256V463.609H137.457V471.221C140.102 471.212 142.088 471.098 144.33 470.693L144.541 472.1C142.08 472.539 139.988 472.627 137.052 472.609H135.787V462.256H143.152ZM166.918 461.377V462.361C166.901 463.346 166.901 464.576 166.619 466.105L164.967 465.965C165.213 464.611 165.248 463.609 165.248 462.713H156.037V461.377H166.918ZM168.694 466.914V468.232H154.367V466.914H160.115V464.312H161.75V466.914H168.694ZM166.953 469.533V473.436H157.725V475H167.358V476.336H156.055V472.275H165.301V470.887H156.037V469.533H166.953ZM181.921 460.762V464.523H184.224V465.912H181.921V469.955H180.252V460.762H181.921ZM174.837 471.133C174.837 472.495 175.505 473.928 176.947 474.789C178.379 473.857 179.074 472.328 179.074 471.133V470.5H180.709V471.133C180.709 472.785 181.781 474.367 183.837 475.053L182.994 476.301C181.464 475.738 180.41 474.684 179.882 473.383C179.373 474.657 178.423 475.844 176.964 476.441C175.462 475.861 174.512 474.745 174.029 473.453C173.458 474.692 172.42 475.747 170.953 476.301L170.127 475.053C172.13 474.332 173.238 472.662 173.238 471.133V470.5H174.837V471.133ZM177.351 461.518V465.947H171.867V467.828C174.864 467.837 176.71 467.723 178.828 467.318L179.003 468.707C176.701 469.111 174.767 469.199 171.462 469.199H170.197V464.646H175.716V462.889H170.179V461.518H177.351ZM191.915 461.693C195.22 461.693 197.733 463.434 197.733 466.088C197.733 468.742 195.22 470.5 191.915 470.482C188.61 470.5 186.114 468.742 186.114 466.088C186.114 463.434 188.61 461.693 191.915 461.693ZM191.915 463.047C189.507 463.029 187.696 464.26 187.714 466.088C187.696 467.934 189.507 469.111 191.915 469.111C194.323 469.111 196.116 467.934 196.116 466.088C196.116 464.26 194.323 463.029 191.915 463.047ZM199.157 473.066V474.455H184.743V473.066H199.157ZM207.973 462.08V463.416H211.401V460.762H213.071V472.24H211.401V468.162H207.973V469.533H200.66V462.08H207.973ZM202.313 463.434V468.215H206.338V463.434H202.313ZM213.422 474.807V476.16H202.787V471.186H204.475V474.807H213.422ZM207.973 466.791H211.401V464.787H207.973V466.791ZM313.357 473.207V474.613H298.943V473.207H305.288V470.447H300.7V465.438H309.946V463.223H300.665V461.852H311.599V466.773H302.353V469.076H311.968V470.447H306.941V473.207H313.357ZM148.25 497.518V503.301H137.931V497.518H148.25ZM139.583 498.854V501.947H146.615V498.854H139.583ZM137.703 488.658V494.494C139.979 494.494 142.044 494.327 144.294 493.879L144.488 495.285C142.027 495.795 139.812 495.918 137.281 495.918H136.05V488.658H137.703ZM148.25 487.744V496.797H146.58V491.963H142.255V490.609H146.58V487.744H148.25ZM154.587 488.922C156.723 488.922 158.287 490.732 158.542 493.65H161.794V487.744H163.446V503.529H161.794V495.004H158.559C158.375 498.071 156.775 499.979 154.587 499.979C152.231 499.979 150.579 497.834 150.597 494.441C150.579 491.066 152.231 488.922 154.587 488.922ZM154.587 490.416C153.163 490.416 152.179 491.963 152.179 494.441C152.179 496.938 153.163 498.484 154.587 498.484C156.011 498.484 156.995 496.938 156.995 494.441C156.995 491.963 156.011 490.416 154.587 490.416ZM177.781 487.744V494.02H180.225V495.408H177.781V503.477H176.112V487.744H177.781ZM173.668 489.396C173.651 493.949 171.647 498.01 166.461 500.576L165.53 499.275C169.476 497.307 171.62 494.459 171.963 490.785H166.321V489.396H173.668ZM188.742 489.08V490.416H192.17V487.762H193.839V499.24H192.17V495.162H188.742V496.533H181.429V489.08H188.742ZM183.082 490.434V495.215H187.107V490.434H183.082ZM194.191 501.807V503.16H183.556V498.186H185.244V501.807H194.191ZM188.742 493.791H192.17V491.787H188.742V493.791ZM209.116 492.789V494.143H206.039V496.129C207.437 496.067 208.825 495.971 210.117 495.83L210.241 497.061C206.883 497.518 203.192 497.605 200.239 497.605L200.01 496.27C201.355 496.261 202.858 496.243 204.387 496.199V494.143H201.416V488.746H208.975V490.1H203.086V492.789H209.116ZM213 487.744V499.557H211.33V487.744H213ZM213.492 501.807V503.16H202.612V498.713H204.282V501.807H213.492ZM227.406 487.744V493.844H229.937V495.215H227.406V503.529H225.736V487.744H227.406ZM223.17 489.256V490.609H217.474V498.221C220.12 498.212 222.106 498.098 224.347 497.693L224.558 499.1C222.097 499.539 220.006 499.627 217.07 499.609H215.804V489.256H223.17ZM248.149 487.727V503.477H246.532V495.355H244.809V502.738H243.245V488.061H244.809V493.984H246.532V487.727H248.149ZM238.287 489.643C238.287 493.105 237.83 496.656 235.633 499.662L234.315 498.871C236.134 496.516 236.732 493.888 236.864 490.996H234.719V489.643H238.287ZM242.014 489.643C242.014 493.123 241.733 497.377 239.377 500.699L238.024 499.943C240.045 497.271 240.467 494.02 240.555 490.996H238.797V489.643H242.014ZM262.607 487.744V503.529H260.937V487.744H262.607ZM252.113 489.062V493.105H256.349V489.062H258.002V499.75H250.443V489.062H252.113ZM252.113 498.379H256.349V494.424H252.113V498.379Z" fill="white"/>
<path d="M231.687 460.621V466.562H234.042V468.391H231.687V476.652H229.437V460.621H231.687ZM227.204 462.098V463.908H221.931V470.922C224.251 470.896 226.167 470.79 228.294 470.412L228.54 472.293C226.062 472.715 223.882 472.785 221.052 472.768H219.698V462.098H227.204ZM241.557 460.92C245.108 460.92 247.358 462.098 247.375 464.049C247.358 465.982 245.108 467.16 241.557 467.143C238.024 467.16 235.721 465.982 235.721 464.049C235.721 462.098 238.024 460.92 241.557 460.92ZM241.557 462.66C239.325 462.66 238.041 463.135 238.059 464.049C238.041 464.945 239.325 465.402 241.557 465.402C243.772 465.402 245.055 464.945 245.055 464.049C245.055 463.135 243.772 462.66 241.557 462.66ZM247.112 470.992V476.441H235.95V470.992H247.112ZM238.164 472.768V474.648H244.914V472.768H238.164ZM248.852 468.074V469.867H234.262V468.074H248.852ZM267.239 460.621V476.617H265.077V460.621H267.239ZM264.005 460.938V475.861H261.878V468.443H260.331V466.439H261.878V460.938H264.005ZM260.7 462.432V464.242H259.681V470.887C260.129 470.852 260.56 470.808 260.964 470.746L261.122 472.363C258.591 472.908 255.321 472.961 253.317 472.961L253.071 471.115H254.407V464.242H253.37V462.432H260.7ZM256.394 471.08L257.642 471.027V464.242H256.394V471.08ZM281.838 460.621V476.652H279.571V460.621H281.838ZM273.155 461.746C275.563 461.746 277.356 463.961 277.356 467.441C277.356 470.957 275.563 473.154 273.155 473.154C270.694 473.154 268.901 470.957 268.918 467.441C268.901 463.961 270.694 461.746 273.155 461.746ZM273.155 463.768C271.907 463.768 271.081 465.068 271.081 467.441C271.081 469.832 271.907 471.115 273.155 471.115C274.368 471.115 275.194 469.832 275.194 467.441C275.194 465.068 274.368 463.768 273.155 463.768ZM289.846 464.98C289.846 467.564 291.164 470.324 293.853 471.449L292.64 473.207C290.751 472.407 289.45 470.816 288.738 468.865C288.009 470.983 286.681 472.741 284.801 473.611L283.517 471.836C286.172 470.658 287.543 467.688 287.543 464.98V463.996H284.15V462.168H293.185V463.996H289.846V464.98ZM297.035 460.621V476.617H294.767V460.621H297.035Z" fill="#A07BE5"/>
<path d="M290.466 275.192L291.384 275.192L291.384 275.192L290.466 275.192ZM265.034 263.067C264.675 263.425 264.674 264.006 265.031 264.366L270.863 270.217C271.221 270.576 271.802 270.577 272.161 270.219C272.521 269.862 272.522 269.28 272.164 268.921L266.98 263.72L272.181 258.536C272.54 258.178 272.541 257.597 272.184 257.238C271.826 256.879 271.244 256.878 270.885 257.236L265.034 263.067ZM291.384 298.6L291.384 275.192L289.548 275.192L289.548 298.6L291.384 298.6ZM291.384 275.192C291.384 271.941 289.6 269.545 287.117 267.822C284.654 266.114 281.426 265.004 278.282 264.274C275.124 263.54 271.976 263.172 269.626 262.988C268.449 262.895 267.467 262.848 266.778 262.824C266.434 262.812 266.162 262.806 265.976 262.803C265.882 262.801 265.81 262.801 265.761 262.8C265.737 262.8 265.718 262.8 265.705 262.8C265.698 262.8 265.693 262.8 265.689 262.8C265.688 262.8 265.686 262.8 265.685 262.8C265.685 262.8 265.684 262.8 265.684 262.8C265.684 262.8 265.683 262.8 265.682 263.718C265.68 264.636 265.68 264.636 265.68 264.636C265.68 264.636 265.68 264.636 265.68 264.636C265.681 264.636 265.682 264.636 265.683 264.636C265.685 264.636 265.689 264.636 265.695 264.636C265.705 264.636 265.722 264.636 265.744 264.636C265.789 264.636 265.856 264.637 265.944 264.639C266.121 264.642 266.382 264.648 266.715 264.659C267.381 264.682 268.336 264.728 269.482 264.818C271.779 264.998 274.828 265.356 277.866 266.062C280.918 266.771 283.886 267.815 286.07 269.33C288.234 270.831 289.548 272.727 289.548 275.192L291.384 275.192Z" fill="white"/>
<path d="M64.8208 495.042L63.9029 495.042L63.9029 495.042L64.8208 495.042ZM87.5633 485.282C87.8835 485.675 87.8243 486.254 87.4313 486.574L81.0256 491.791C80.6325 492.111 80.0543 492.052 79.7341 491.659C79.414 491.266 79.4731 490.688 79.8662 490.368L85.5601 485.73L80.9225 480.036C80.6024 479.643 80.6615 479.065 81.0546 478.745C81.4477 478.424 82.0259 478.484 82.346 478.877L87.5633 485.282ZM63.9029 518.449L63.9029 495.042L65.7388 495.042L65.7388 518.449L63.9029 518.449ZM63.9029 495.042C63.9029 491.825 65.4788 489.559 67.749 488.024C69.9771 486.517 72.8852 485.699 75.6936 485.258C78.5177 484.814 81.3283 484.738 83.4237 484.771C84.4738 484.787 85.3496 484.831 85.9646 484.872C86.2723 484.892 86.5149 484.911 86.6819 484.925C86.7653 484.932 86.8299 484.938 86.8742 484.942C86.8963 484.944 86.9134 484.946 86.9252 484.947C86.9312 484.947 86.9358 484.948 86.9391 484.948C86.9407 484.948 86.942 484.949 86.943 484.949C86.9435 484.949 86.944 484.949 86.9442 484.949C86.9446 484.949 86.9449 484.949 86.8516 485.862C86.7582 486.775 86.7583 486.775 86.7584 486.775C86.7583 486.775 86.7583 486.775 86.7581 486.775C86.7577 486.775 86.757 486.775 86.756 486.775C86.754 486.775 86.7506 486.774 86.7459 486.774C86.7366 486.773 86.7221 486.772 86.7026 486.77C86.6635 486.766 86.6043 486.761 86.5264 486.754C86.3707 486.741 86.14 486.723 85.8452 486.704C85.2554 486.665 84.4101 486.623 83.3948 486.607C81.3595 486.574 78.6624 486.65 75.9788 487.072C73.2795 487.496 70.68 488.258 68.7773 489.545C66.9168 490.803 65.7388 492.542 65.7388 495.042L63.9029 495.042Z" fill="white"/>
</g>
<circle cx="6" cy="6" r="6" transform="matrix(-1 0 0 1 191 759)" fill="#61488E"/>
<circle cx="6" cy="6" r="6" transform="matrix(-1 0 0 1 211 759)" fill="#A07BE5"/>
<defs>
<clipPath id="clip0_4940_33166">
<rect width="358" height="570" fill="white" transform="translate(16 44)"/>
</clipPath>
</defs>
</svg>
