<svg width="153" height="14" viewBox="0 0 153 14" fill="none" xmlns="http://www.w3.org/2000/svg">
<mask id="path-1-inside-1_4940_32615" fill="white">
<path d="M0 0H52V14H0V0Z"/>
</mask>
<path d="M50 0V14H54V0H50Z" fill="#B6B5B4" mask="url(#path-1-inside-1_4940_32615)"/>
<path d="M3.39788 2.708H4.65788V3.956C4.65788 6.464 3.60188 9.02 1.56188 9.98L0.661875 8.72C2.49788 7.856 3.39788 5.78 3.39788 3.956V2.708ZM3.73388 2.708H4.99388V3.956C4.99388 5.636 5.85788 7.604 7.68188 8.444L6.80588 9.704C4.76588 8.756 3.73388 6.32 3.73388 3.956V2.708ZM1.09388 2.024H7.18988V3.332H1.09388V2.024ZM8.00588 0.956H9.61388V12.068H8.00588V0.956ZM9.25388 5.192H11.2219V6.512H9.25388V5.192ZM14.4969 7.436H16.0569V10.052H14.4969V7.436ZM18.0129 7.424H19.5729V10.052H18.0129V7.424ZM11.9529 9.548H22.0089V10.844H11.9529V9.548ZM13.0809 1.676H20.8809V5.36H14.6889V7.244H13.1049V4.112H19.2969V2.936H13.0809V1.676ZM13.1049 6.572H21.1329V7.856H13.1049V6.572ZM31.008 0.956H32.52V12.068H31.008V0.956ZM27.348 4.748H29.184V6.044H27.348V4.748ZM28.764 1.136H30.252V11.564H28.764V1.136ZM24.948 2.768H26.148V3.908C26.148 6.404 25.464 8.888 23.7 9.992L22.752 8.816C24.384 7.796 24.948 5.804 24.948 3.908V2.768ZM25.308 2.768H26.496V3.908C26.496 5.756 27.048 7.628 28.656 8.564L27.72 9.728C25.956 8.684 25.308 6.356 25.308 3.908V2.768ZM23.172 2.072H28.128V3.356H23.172V2.072ZM38.9871 7.868C41.3871 7.868 42.9231 8.66 42.9231 9.98C42.9231 11.276 41.3871 12.068 38.9871 12.068C36.5871 12.068 35.0511 11.276 35.0511 9.98C35.0511 8.66 36.5871 7.868 38.9871 7.868ZM38.9871 9.068C37.4871 9.068 36.6351 9.38 36.6351 9.98C36.6351 10.568 37.4871 10.868 38.9871 10.868C40.4871 10.868 41.3391 10.568 41.3391 9.98C41.3391 9.38 40.4871 9.068 38.9871 9.068ZM35.1711 1.448H42.2031V2.708H35.1711V1.448ZM34.0431 5.912H44.0511V7.184H34.0431V5.912ZM37.7511 3.98H39.3351V6.236H37.7511V3.98ZM41.2791 1.448H42.8631V2.36C42.8631 3.236 42.8631 4.184 42.5631 5.336L40.9791 5.168C41.2791 4.028 41.2791 3.224 41.2791 2.36V1.448Z" fill="#6A6967"/>
<path d="M58.9139 7.16H68.9699V8.444H58.9139V7.16ZM63.1019 8H64.6979V12.068H63.1019V8ZM63.9179 1.328C64.7099 1.328 65.4059 1.432 66.0059 1.64C66.6139 1.84 67.0859 2.128 67.4219 2.504C67.7579 2.88 67.9259 3.32 67.9259 3.824C67.9259 4.336 67.7579 4.78 67.4219 5.156C67.0859 5.524 66.6139 5.812 66.0059 6.02C65.4059 6.22 64.7099 6.32 63.9179 6.32C63.1259 6.32 62.4259 6.22 61.8179 6.02C61.2179 5.812 60.7459 5.524 60.4019 5.156C60.0659 4.78 59.8979 4.336 59.8979 3.824C59.8979 3.32 60.0659 2.88 60.4019 2.504C60.7459 2.128 61.2179 1.84 61.8179 1.64C62.4259 1.432 63.1259 1.328 63.9179 1.328ZM63.9059 2.588C63.4259 2.588 63.0059 2.636 62.6459 2.732C62.2939 2.828 62.0219 2.968 61.8299 3.152C61.6379 3.328 61.5419 3.552 61.5419 3.824C61.5419 4.088 61.6379 4.312 61.8299 4.496C62.0219 4.68 62.2939 4.82 62.6459 4.916C63.0059 5.004 63.4259 5.048 63.9059 5.048C64.4019 5.048 64.8259 5.004 65.1779 4.916C65.5299 4.82 65.8019 4.68 65.9939 4.496C66.1939 4.312 66.2939 4.088 66.2939 3.824C66.2939 3.552 66.1939 3.328 65.9939 3.152C65.8019 2.968 65.5299 2.828 65.1779 2.732C64.8259 2.636 64.4019 2.588 63.9059 2.588ZM77.5969 0.931999H79.2049V12.08H77.5969V0.931999ZM70.5529 8.192H71.5369C72.1929 8.192 72.8129 8.184 73.3969 8.168C73.9809 8.144 74.5529 8.108 75.1129 8.06C75.6729 8.004 76.2449 7.924 76.8289 7.82L76.9969 9.104C76.1009 9.264 75.2169 9.372 74.3449 9.428C73.4809 9.476 72.5449 9.5 71.5369 9.5H70.5529V8.192ZM70.5289 1.88H75.7729V6.188H72.1729V8.684H70.5529V4.928H74.1529V3.164H70.5289V1.88ZM88.132 0.956H89.728V6.5H88.132V0.956ZM89.092 3.08H91.192V4.376H89.092V3.08ZM81.304 1.472H86.608V6.092H81.304V1.472ZM85.036 2.708H82.876V4.832H85.036V2.708ZM82.396 6.932H89.728V9.98H83.992V11.312H82.408V8.828H88.156V8.168H82.396V6.932ZM82.408 10.7H90.052V11.948H82.408V10.7ZM99.9751 0.956H101.499V7.436H99.9751V0.956ZM98.7511 3.548H100.515V4.832H98.7511V3.548ZM97.6351 1.136H99.1231V7.316H97.6351V1.136ZM93.9631 7.892H101.499V11.948H93.9631V7.892ZM99.9391 9.14H95.5351V10.688H99.9391V9.14ZM94.0231 1.58H95.2711V2.804C95.2711 3.436 95.1831 4.052 95.0071 4.652C94.8311 5.244 94.5551 5.776 94.1791 6.248C93.8031 6.72 93.3111 7.084 92.7031 7.34L91.8751 6.116C92.3871 5.884 92.7991 5.592 93.1111 5.24C93.4311 4.88 93.6631 4.488 93.8071 4.064C93.9511 3.64 94.0231 3.22 94.0231 2.804V1.58ZM94.3231 1.58H95.5711V2.828C95.5711 3.228 95.6391 3.62 95.7751 4.004C95.9111 4.38 96.1311 4.724 96.4351 5.036C96.7471 5.348 97.1431 5.604 97.6231 5.804L96.7831 7.004C96.2071 6.772 95.7351 6.444 95.3671 6.02C95.0071 5.596 94.7431 5.108 94.5751 4.556C94.4071 4.004 94.3231 3.428 94.3231 2.828V1.58Z" fill="#838281"/>
<path d="M108.442 2.02H114.302V3.08H108.442V2.02ZM107.412 5.21H115.802V6.28H107.412V5.21ZM110.932 5.96H112.252V7.9H110.932V5.96ZM113.502 2.02H114.812V2.76C114.812 3.16 114.799 3.6 114.772 4.08C114.752 4.55333 114.669 5.09333 114.522 5.7L113.222 5.58C113.362 4.98 113.442 4.46 113.462 4.02C113.489 3.57333 113.502 3.15333 113.502 2.76V2.02ZM108.252 7.58H114.832V10.89H113.502V8.63H108.252V7.58ZM122.971 1.62H124.301V6.79H122.971V1.62ZM117.091 5.57H117.891C118.498 5.57 119.041 5.56667 119.521 5.56C120.001 5.54667 120.458 5.52 120.891 5.48C121.325 5.44 121.761 5.38333 122.201 5.31L122.351 6.37C121.898 6.44333 121.445 6.5 120.991 6.54C120.545 6.58 120.071 6.60667 119.571 6.62C119.071 6.62667 118.511 6.63 117.891 6.63H117.091V5.57ZM117.071 2.04H121.341V4.8H118.391V6.26H117.091V3.81H120.021V3.1H117.071V2.04ZM118.141 7.18H119.451V7.96H122.981V7.18H124.301V10.79H118.141V7.18ZM119.451 8.98V9.72H122.981V8.98H119.451ZM126.84 2.02H132.7V3.08H126.84V2.02ZM125.81 5.21H134.2V6.28H125.81V5.21ZM129.33 5.96H130.65V7.9H129.33V5.96ZM131.9 2.02H133.21V2.76C133.21 3.16 133.197 3.6 133.17 4.08C133.15 4.55333 133.067 5.09333 132.92 5.7L131.62 5.58C131.76 4.98 131.84 4.46 131.86 4.02C131.887 3.57333 131.9 3.15333 131.9 2.76V2.02ZM126.65 7.58H133.23V10.89H131.9V8.63H126.65V7.58ZM137.54 2.26C138 2.26 138.41 2.39667 138.77 2.67C139.136 2.93667 139.42 3.32 139.62 3.82C139.826 4.31333 139.93 4.89667 139.93 5.57C139.93 6.25 139.826 6.84 139.62 7.34C139.42 7.83333 139.136 8.21667 138.77 8.49C138.41 8.75667 138 8.89 137.54 8.89C137.08 8.89 136.67 8.75667 136.31 8.49C135.95 8.21667 135.666 7.83333 135.46 7.34C135.253 6.84 135.15 6.25 135.15 5.57C135.15 4.89667 135.253 4.31333 135.46 3.82C135.666 3.32 135.95 2.93667 136.31 2.67C136.67 2.39667 137.08 2.26 137.54 2.26ZM137.54 3.47C137.32 3.47 137.123 3.55 136.95 3.71C136.783 3.87 136.653 4.10667 136.56 4.42C136.466 4.72667 136.42 5.11 136.42 5.57C136.42 6.02333 136.466 6.41 136.56 6.73C136.653 7.04333 136.783 7.28 136.95 7.44C137.123 7.6 137.32 7.68 137.54 7.68C137.773 7.68 137.973 7.6 138.14 7.44C138.306 7.28 138.436 7.04333 138.53 6.73C138.623 6.41 138.67 6.02333 138.67 5.57C138.67 5.11 138.623 4.72667 138.53 4.42C138.436 4.10667 138.306 3.87 138.14 3.71C137.973 3.55 137.773 3.47 137.54 3.47ZM141.45 1.61H142.78V10.9H141.45V1.61ZM139.54 4.96H142.01V6.02H139.54V4.96ZM146.619 6.38H147.949V8.4H146.619V6.38ZM150.669 1.62H151.999V8.64H150.669V1.62ZM145.329 9.66H152.209V10.73H145.329V9.66ZM145.329 7.97H146.659V9.95H145.329V7.97ZM144.339 6.78L144.169 5.72C144.735 5.71333 145.352 5.70667 146.019 5.7C146.685 5.68667 147.365 5.66 148.059 5.62C148.752 5.58 149.419 5.52 150.059 5.44L150.149 6.39C149.489 6.50333 148.815 6.59 148.129 6.65C147.449 6.70333 146.785 6.73667 146.139 6.75C145.492 6.76333 144.892 6.77333 144.339 6.78ZM148.929 7H150.969V7.91H148.929V7ZM147.149 1.94C147.602 1.94 148.002 2.01 148.349 2.15C148.695 2.29 148.965 2.48333 149.159 2.73C149.359 2.97667 149.459 3.26667 149.459 3.6C149.459 3.92667 149.359 4.21667 149.159 4.47C148.965 4.71667 148.695 4.90667 148.349 5.04C148.002 5.17333 147.602 5.24 147.149 5.24C146.695 5.24 146.292 5.17333 145.939 5.04C145.592 4.90667 145.322 4.71667 145.129 4.47C144.935 4.21667 144.839 3.92667 144.839 3.6C144.839 3.26667 144.935 2.97667 145.129 2.73C145.322 2.48333 145.592 2.29 145.939 2.15C146.292 2.01 146.695 1.94 147.149 1.94ZM147.149 2.91C146.842 2.91 146.589 2.96667 146.389 3.08C146.195 3.19333 146.099 3.36667 146.099 3.6C146.099 3.82 146.195 3.99 146.389 4.11C146.589 4.22333 146.842 4.28 147.149 4.28C147.462 4.28 147.712 4.22333 147.899 4.11C148.092 3.99 148.189 3.82 148.189 3.6C148.189 3.44667 148.145 3.32 148.059 3.22C147.972 3.12 147.852 3.04333 147.699 2.99C147.545 2.93667 147.362 2.91 147.149 2.91Z" fill="#B6B5B4"/>
</svg>
