<svg width="281" height="287" viewBox="0 0 281 287" fill="none" xmlns="http://www.w3.org/2000/svg">
<path fill-rule="evenodd" clip-rule="evenodd" d="M184.341 137.942C183.207 136.918 181.39 137.623 181.243 139.145L178.721 165.356C119.867 194.686 119.12 258.647 126.12 287L258.832 286.236L267.54 284.434C272.062 283.498 275.69 280.128 276.955 275.687L279 268.509V161.228C272.219 152.776 236.843 149.298 204.819 156.419L184.341 137.942Z" fill="#C1ABEB"/>
<path d="M220.491 235.186C217.744 238.367 211.978 246.362 206.896 250.623C217.189 247.762 227.918 220.306 237.176 231.004C246.434 241.702 233.617 258.41 225.616 264.349C243.329 253.825 245.43 237.064 238.701 229.726C231.971 222.388 225.906 228.915 220.491 235.186Z" fill="#A07BE5"/>
<path d="M207.518 219.249L211.949 215.338L224.367 229.406C225.047 230.176 224.973 231.352 224.203 232.032L223.383 232.756L222.933 233.133C222.73 233.303 222.566 233.514 222.452 233.753L221.547 235.635L207.518 219.249Z" fill="#A07BE5"/>
<ellipse cx="196.149" cy="202.276" rx="22.9278" ry="21.7049" transform="rotate(1.88817 196.149 202.276)" fill="#A07BE5"/>
<ellipse cx="196.142" cy="202.584" rx="16.8137" ry="15.8966" transform="rotate(1.88817 196.142 202.584)" fill="#C1ABEB"/>
<path d="M183.226 200.315C183.002 199.962 183.106 199.495 183.458 199.271L198.301 189.831C198.653 189.607 199.12 189.711 199.345 190.063L201.963 194.181C202.209 194.568 202.058 195.083 201.641 195.274L193.997 198.788C193.936 198.815 193.879 198.851 193.828 198.894L186.31 205.164L183.226 200.315Z" fill="#A07BE5"/>
<path d="M190.129 211.168L198.976 207.296L205.584 201.499C205.933 201.193 206.472 201.27 206.721 201.662L209.079 205.369C209.303 205.722 209.199 206.189 208.847 206.413L194.004 215.853C193.652 216.077 193.185 215.973 192.96 215.621L190.129 211.168Z" fill="#A07BE5"/>
<path d="M194.005 215.851C193.653 216.075 193.185 215.971 192.961 215.618L184.1 201.685L190.169 197.825L192.782 204.481C192.828 204.597 192.892 204.706 192.974 204.801L199.437 212.396L194.005 215.851Z" fill="#A07BE5"/>
<ellipse cx="234.292" cy="211.698" rx="4.53791" ry="5.94864" transform="rotate(-28.4036 234.292 211.698)" fill="#A07BE5"/>
<path d="M239.947 175.832C240.301 176.43 240.167 176.886 239.589 177.228L232.314 181.53L234.365 184.999C236.773 183.521 239.052 181.689 241.203 179.502C241.574 179.175 241.864 179.165 242.064 179.504L242.96 181.018C243.184 181.397 243.166 181.731 242.894 181.999C240.735 184.352 237.59 186.723 233.444 189.175C233.006 189.434 232.681 189.384 232.457 189.005L228.025 181.511C227.718 180.993 227.864 180.557 228.462 180.203L235.956 175.771L234.683 173.619L227.049 178.133C226.531 178.439 226.127 178.302 225.797 177.744L225.172 176.687C224.842 176.129 224.916 175.709 225.435 175.402L235.082 169.697C235.68 169.344 236.175 169.454 236.505 170.012L239.947 175.832Z" fill="#A07BE5"/>
<circle cx="49" cy="238.23" r="24" fill="#8150DD"/>
<path d="M59.498 238.038L44.1242 248.264V227.812L59.498 238.038Z" fill="white"/>
</svg>
