<svg width="281" height="287" viewBox="0 0 281 287" fill="none" xmlns="http://www.w3.org/2000/svg">
<circle cx="49" cy="238.23" r="24" fill="#F7A62C"/>
<path d="M59.498 238.038L44.1242 248.264V227.812L59.498 238.038Z" fill="white"/>
<path fill-rule="evenodd" clip-rule="evenodd" d="M219.166 159.279C221.16 150.368 225.174 137.824 231.145 132.804C237.585 127.391 243.678 144.781 246.825 157.757C262.68 158.291 275.29 161.368 279 165.992V275.068C279 281.658 273.658 287 267.068 287H131.912C126.72 265.969 125.958 224.574 151.83 193.785C147.468 186.019 140.821 171.421 142.373 162.678C144.025 153.364 163.827 166.452 174.137 174.625C176.858 172.943 179.731 171.345 182.764 169.843C193.593 164.48 206.428 161.082 219.166 159.279Z" fill="#F7D49F"/>
<path fill-rule="evenodd" clip-rule="evenodd" d="M219.121 186.102C219.208 186.292 219.341 186.447 219.503 186.56C219.695 186.888 220.04 187.109 220.437 187.125C221.779 187.182 224.322 187.212 226.04 186.755C227.804 186.287 230.133 184.925 231.277 184.214C231.699 183.952 231.897 183.45 231.784 182.966L231.26 180.712C231.083 179.949 230.23 179.557 229.529 179.906C228.001 180.664 225.546 181.819 223.97 182.238C223.659 182.32 223.337 182.368 223.012 182.389C222.642 181.579 222.339 180.728 222.234 179.96C222.043 178.567 222.388 176.731 222.729 175.383C222.944 174.531 222.251 173.675 221.377 173.772L218.624 174.079C218.111 174.136 217.693 174.517 217.607 175.027C217.386 176.34 217.034 178.893 217.278 180.671C217.521 182.441 218.548 184.855 219.121 186.102ZM174.679 198.093C174.545 197.901 174.536 197.65 174.659 197.451C175.234 196.524 176.957 193.858 178.52 192.524C180.061 191.211 182.84 190.004 183.862 189.585C184.084 189.494 184.336 189.551 184.501 189.722C184.557 189.743 184.61 189.774 184.659 189.813C185.528 190.516 187.928 192.531 189.049 194.232C190.158 195.914 191.01 198.801 191.305 199.878C191.374 200.13 191.265 200.393 191.042 200.528L187.163 202.886C186.802 203.105 186.33 202.892 186.242 202.48C185.959 201.156 185.324 198.62 184.335 197.12C183.895 196.453 183.221 195.763 182.506 195.132C182.189 195.404 181.88 195.668 181.592 195.914C180.205 197.096 178.577 199.696 177.787 201.036C177.562 201.417 177.011 201.443 176.758 201.08L174.679 198.093ZM222.066 274.108L223.683 265.377C219.654 261.959 217.544 257.556 217.727 253.429C218.014 246.989 221.959 245.364 226.907 245.379L227.622 242.574C228.099 243.309 229.442 244.798 231.436 245.733C232.464 245.869 233.501 246.032 234.528 246.198C235.575 246.368 236.98 246.654 238.599 246.983L238.599 246.983C243.15 247.908 249.387 249.176 254.093 249.176C250.367 250.869 244.18 249.731 238.068 248.606C228.832 246.906 219.769 245.238 219.641 253.429C219.429 267.039 239.207 271.434 248.777 270.867C242.988 271.811 237.869 271.508 233.542 270.364L231.371 277.21C230.876 277.954 229.412 279.16 227.159 278.856C226.718 280.475 225.81 282.523 225.303 283.552H219.842C222.656 283.551 224.063 280.287 224.589 277.905C222.804 276.756 222.159 274.993 222.066 274.108ZM202.181 200.696C203.662 201.258 207.411 201.765 210.565 199.293C212.152 198.049 213.22 196.997 214.03 196.2C215.23 195.018 215.862 194.396 216.776 194.536C218.307 194.77 223.943 195.968 222.678 202.041C221.413 208.115 209.659 211.8 206.091 210.247C202.524 208.694 200.26 206.669 200.333 203.994C200.407 201.319 201.004 201.076 202.181 200.696ZM228.661 235.532L227.945 239.903C228.3 240.645 230.036 242.4 234.14 243.484C238.245 244.569 240.755 243.936 241.497 243.484L244.116 238.406C250.619 236.26 255.312 230.134 255.312 222.912C255.312 213.902 248.008 206.598 238.999 206.598C229.989 206.598 222.685 213.902 222.685 222.912C222.685 227.998 225.013 232.54 228.661 235.532Z" fill="#F9BC5F"/>
<path d="M238.771 225.219C230.55 223.108 224.05 218.044 221.828 215.775C221.134 216.238 220.162 217.691 221.828 219.802C223.911 222.441 229.744 227.023 238.771 229.384C245.993 231.273 253.723 230.171 256.685 229.384L258.074 225.219C255.065 226.098 246.992 227.329 238.771 225.219Z" fill="#F7D49F"/>
</svg>
