<svg width="286" height="288" viewBox="0 0 286 288" fill="none" xmlns="http://www.w3.org/2000/svg">
<path d="M152.516 180.067C128.918 174.091 129.153 158.681 132.597 149.388C103.369 171.743 123.231 201.027 136.816 212.875L152.516 180.067Z" fill="#AAEEDF"/>
<path d="M219.421 148.723C231.797 127.761 220.691 117.075 211.668 112.976C248.122 107.969 254.925 142.694 253.769 160.683L219.421 148.723Z" fill="#AAEEDF"/>
<path d="M178.546 159.647C120.299 190.267 119.551 257.323 126.459 287.025H264.1C271.291 287.025 277.12 281.196 277.12 274.005V155.46C268.532 144.098 213.394 141.328 178.546 159.647Z" fill="#AAEEDF"/>
<rect x="213.35" y="174.135" width="11.4828" height="11.0757" rx="2.46984" transform="rotate(-12.0325 213.35 174.135)" stroke="#2AD4AF" stroke-width="3.95174"/>
<rect x="209.867" y="167.279" width="3.94836" height="12.2209" rx="0.987935" transform="rotate(-12.0325 209.867 167.279)" fill="#2AD4AF"/>
<rect x="221.102" y="164.885" width="3.94836" height="12.2209" rx="0.987935" transform="rotate(-12.0325 221.102 164.885)" fill="#2AD4AF"/>
<rect x="169.951" y="192.036" width="12.0659" height="11.6381" rx="2.59525" transform="rotate(-30 169.951 192.036)" stroke="#2AD4AF" stroke-width="4.1524"/>
<path d="M199.443 207.19C198.069 207.284 195.562 205.958 193.367 204.529C192.273 203.817 192.944 202.031 194.228 201.799C203.058 200.206 209.586 190.593 213.338 191.834C216.145 193.053 210.68 206.416 199.443 207.19Z" fill="#2AD4AF"/>
<path d="M245.678 210.109C246.077 208.727 247.52 207.93 248.902 208.329L274.966 215.857C276.348 216.256 277.144 217.7 276.745 219.081L269.804 243.116C269.235 245.084 266.721 245.655 265.358 244.125L262.083 240.448C261.703 240.023 261.195 239.733 260.635 239.624L254.042 238.343C253.157 238.171 252.247 238.469 251.634 239.13L249.986 240.91C249.311 241.638 248.281 241.92 247.33 241.635L239.899 239.413C238.53 239.004 237.747 237.569 238.143 236.196L245.678 210.109Z" fill="#2AD4AF"/>
<path d="M228.846 220.711C226.936 221.222 225.803 223.186 226.315 225.095L233.343 251.324C233.851 253.221 235.793 254.355 237.695 253.864L245.205 251.927C246.527 251.586 247.54 250.523 247.817 249.186L248.28 246.948C248.404 246.351 248.851 245.873 249.439 245.71L256.045 243.879C256.316 243.804 256.602 243.801 256.875 243.869L261.659 245.066C264.307 245.729 266.693 243.303 265.987 240.666L259.436 216.221C258.925 214.311 256.961 213.177 255.051 213.689L228.846 220.711Z" fill="#2AD4AF" stroke="#7FE6CF" stroke-width="1.95289"/>
<path d="M247.832 245.409C247.104 245.604 246.664 245.37 246.505 244.683L246.13 242.342C246.026 241.766 246.232 241.409 246.795 241.258L249.19 240.616C249.754 240.465 250.177 240.729 250.406 241.398L251.154 243.437C251.349 244.165 251.015 244.607 250.18 244.78L247.832 245.409ZM251.763 227.394C252.254 229.226 251.817 230.979 250.465 232.599C249.119 234.243 248.511 235.262 248.624 235.685L249.234 237.962C249.429 238.69 249.201 239.154 248.544 239.33L246.548 239.865C245.937 240.028 245.55 239.805 245.363 239.201L244.59 236.313C244.357 235.444 244.925 234.184 246.348 232.545C247.771 230.905 248.332 229.522 248.03 228.395C247.287 225.624 245.859 224.522 243.793 225.075C241.727 225.629 240.952 226.869 241.468 228.794C241.644 229.451 241.427 229.862 240.84 230.019L239.032 230.504C238.468 230.655 238.128 230.419 237.958 229.785C236.752 225.377 238.291 222.574 242.564 221.429C247.19 220.189 250.26 222.16 251.763 227.394Z" fill="#7FE6CF"/>
<circle cx="48.4824" cy="238.474" r="24" fill="#2AD4AF"/>
<path d="M58.9805 238.281L43.6066 248.507V228.056L58.9805 238.281Z" fill="white"/>
</svg>
