<svg width="284" height="288" viewBox="0 0 284 288" fill="none" xmlns="http://www.w3.org/2000/svg">
<path d="M151.265 180.553C127.67 174.578 127.905 159.17 131.349 149.879C102.126 172.23 121.985 201.51 135.567 213.356L151.265 180.553Z" fill="#AAEEDF"/>
<path d="M218.161 149.215C230.535 128.256 219.431 117.572 210.41 113.474C246.858 108.467 253.66 143.187 252.504 161.173L218.161 149.215Z" fill="#AAEEDF"/>
<path d="M179.045 160.228C120.807 190.843 120.558 257.303 127.465 287H258.422C269.498 287 278.465 277.999 278.422 266.924L278 156.042C269.413 144.682 213.888 141.912 179.045 160.228Z" fill="#AAEEDF"/>
<rect x="212.091" y="174.623" width="11.4811" height="11.074" rx="2.46946" transform="rotate(-12.0325 212.091 174.623)" stroke="#2AD4AF" stroke-width="3.95114"/>
<rect x="208.609" y="167.769" width="3.94776" height="12.219" rx="0.987784" transform="rotate(-12.0325 208.609 167.769)" fill="#2AD4AF"/>
<rect x="219.841" y="165.375" width="3.94776" height="12.219" rx="0.987784" transform="rotate(-12.0325 219.841 165.375)" fill="#2AD4AF"/>
<rect x="168.698" y="192.521" width="12.064" height="11.6363" rx="2.59485" transform="rotate(-30 168.698 192.521)" stroke="#2AD4AF" stroke-width="4.15177"/>
<path d="M198.186 207.674C196.096 207.818 191.386 204.676 189.139 202.883C188.739 202.563 188.583 202.026 188.771 201.549C192.434 192.244 207.836 190.917 212.078 192.32C214.885 193.54 209.421 206.901 198.186 207.674Z" fill="#2AD4AF"/>
<rect width="42.3061" height="5.20691" transform="matrix(-1 0 0 1 251.441 221.758)" fill="#2AD4AF"/>
<ellipse cx="14.6444" cy="9.43753" rx="14.6444" ry="9.43753" transform="matrix(-1 0 0 1 223.456 215.249)" fill="#2AD4AF"/>
<path d="M267.227 218.715C271.436 219.398 270.066 220.455 276.793 220.455C266.926 224.94 251.753 211.988 251.529 226.34C251.305 240.692 267.679 245.786 277.77 245.188C257.138 248.552 249.062 236.432 249.511 226.34C249.959 216.249 258.929 217.37 267.227 218.715Z" fill="#2AD4AF"/>
<rect x="-1.35197" y="0.587233" width="21.3666" height="21.3666" rx="2.60568" transform="matrix(-0.930276 -0.366859 -0.366859 0.930276 222.325 207.127)" fill="#7FE6CF" stroke="#2AD4AF" stroke-width="2.08454"/>
<path d="M211.089 221.692C210.622 221.817 210.339 221.666 210.236 221.225L209.995 219.721C209.928 219.351 210.061 219.121 210.423 219.024L211.962 218.612C212.324 218.515 212.596 218.684 212.743 219.114L213.224 220.424C213.349 220.892 213.134 221.176 212.598 221.287L211.089 221.692ZM213.615 210.115C213.93 211.292 213.65 212.418 212.781 213.46C211.916 214.516 211.525 215.171 211.598 215.442L211.99 216.906C212.116 217.374 211.969 217.672 211.546 217.785L210.264 218.129C209.872 218.234 209.623 218.09 209.503 217.702L209.005 215.846C208.856 215.288 209.221 214.478 210.136 213.425C211.05 212.371 211.41 211.482 211.216 210.758C210.739 208.978 209.821 208.269 208.494 208.625C207.166 208.981 206.668 209.777 206.999 211.015C207.113 211.437 206.973 211.701 206.596 211.802L205.434 212.113C205.072 212.21 204.853 212.059 204.744 211.651C203.969 208.819 204.958 207.017 207.704 206.281C210.676 205.485 212.649 206.751 213.615 210.115Z" fill="#2AD4AF"/>
</svg>
