<svg width="46" height="51" viewBox="0 0 46 51" fill="none" xmlns="http://www.w3.org/2000/svg">
<path d="M29.5 0C29.5 0 30.6543 12.3205 34.1669 15.8331C37.6795 19.3457 46 20.5 46 20.5C46 20.5 37.6795 21.6543 34.1669 25.1669C30.6543 28.6795 29.5 41 29.5 41C29.5 41 28.3457 28.6795 24.8331 25.1669C21.3205 21.6543 13 20.5 13 20.5C13 20.5 21.3205 19.3457 24.8331 15.8331C28.3457 12.3205 29.5 0 29.5 0Z" fill="white"/>
<path d="M8 31C8 31 8.6996 36.0427 10.8284 38.1716C12.9573 40.3004 16 41 16 41C16 41 12.9573 41.6996 10.8284 43.8284C8.6996 45.9573 8 51 8 51C8 51 7.3004 45.9573 5.17157 43.8284C3.04274 41.6996 0 41 0 41C0 41 3.04274 40.3004 5.17157 38.1716C7.3004 36.0427 8 31 8 31Z" fill="white"/>
</svg>
