<svg width="24" height="24" viewBox="0 0 24 24" fill="none" xmlns="http://www.w3.org/2000/svg">
<path d="M12 0.915039C14.1696 0.915039 16.1763 1.3373 18.0201 2.18182C19.8638 3.02635 21.3215 4.17473 22.3928 5.62696C23.4643 7.07913 24 8.66318 24 10.3791C24 12.0949 23.4643 13.6812 22.3928 15.1379C21.3215 16.5946 19.8661 17.7452 18.0268 18.5897C16.1875 19.4342 14.1786 19.8565 12 19.8565C11.3125 19.8565 10.6027 19.8073 9.87053 19.709C6.69194 21.9164 5.00002 23.0335 4.79466 23.0603C4.69643 23.096 4.60266 23.0915 4.51339 23.0469C4.47766 23.0201 4.45089 22.9843 4.43302 22.9396C4.41516 22.8949 4.40625 22.8547 4.40625 22.819V22.7654C4.45984 22.4168 4.86606 20.9646 5.62501 18.4087C3.90179 17.5508 2.53348 16.4136 1.52009 14.9971C0.506697 13.5807 0 12.0413 0 10.3791C0 8.66318 0.535715 7.07913 1.60714 5.62696C2.67857 4.17473 4.13616 3.02635 5.97991 2.18182C7.82365 1.3373 9.83035 0.915039 12 0.915039Z" fill="black"/>
</svg>
