<svg width="250" height="107" viewBox="0 0 250 107" fill="none" xmlns="http://www.w3.org/2000/svg">
<circle cx="117.982" cy="41.2632" r="9.55991" transform="rotate(45.8455 117.982 41.2632)" fill="#A07BE5"/>
<circle cx="118.034" cy="41.2625" r="7.16993" transform="rotate(45.8455 118.034 41.2625)" fill="#DDD0F6"/>
<path d="M60.261 18.8377C60.4354 17.7446 61.7913 17.331 62.5461 18.1407L70.6575 26.8413L57.7971 34.2812L60.261 18.8377Z" fill="#8B7A70"/>
<path fill-rule="evenodd" clip-rule="evenodd" d="M71.4757 106.243C93.2078 106.243 110.825 95.9496 110.825 71.2808C110.825 69.8645 110.767 68.4637 110.653 67.0811L118.293 55.2055C118.892 54.2746 118.157 53.0623 117.054 53.1624L107.774 54.0054C101.824 37.9148 87.8123 26.614 71.4757 26.614C52.4131 26.614 36.5165 42.0009 32.8988 62.4302L23.6846 70.3989C22.1404 71.7344 23.1818 74.267 25.2187 74.1299L32.1828 73.6613C33.2862 96.6136 50.4563 106.243 71.4757 106.243Z" fill="#BFA5ED"/>
<path d="M103.307 84.3076C103.307 94.5128 89.0844 102.653 74.3272 102.653C59.57 102.653 44.0176 99.0327 44.0176 88.8275C44.0176 78.6222 62.3616 63.7024 77.1189 63.7024C91.8761 63.7024 103.307 74.1024 103.307 84.3076Z" fill="#DDD0F6"/>
<path d="M58.0162 42.1392C57.9803 41.9811 58.0793 41.8239 58.2373 41.788L64.8926 40.2766C65.0506 40.2407 65.2078 40.3397 65.2437 40.4977L65.663 42.3442C65.7024 42.5176 65.5797 42.6859 65.4025 42.7014L62.1508 42.9871C62.125 42.9894 62.0996 42.9951 62.0753 43.004L58.5099 44.3134L58.0162 42.1392Z" fill="#8B7A70"/>
<path d="M59.1211 47.0039L62.859 46.7441L66.0303 45.4885C66.1976 45.4223 66.3846 45.5209 66.4244 45.6964L66.802 47.3588C66.8379 47.5168 66.7389 47.674 66.5808 47.7099L59.9256 49.2214C59.7676 49.2573 59.6104 49.1583 59.5745 49.0002L59.1211 47.0039Z" fill="#8B7A70"/>
<path d="M59.9268 49.2219C59.7687 49.2578 59.6115 49.1588 59.5756 49.0007L58.1568 42.7532L60.8783 42.1352L60.964 44.9079C60.9655 44.9565 60.9751 45.0046 60.9923 45.0501L62.3621 48.6688L59.9268 49.2219Z" fill="#8B7A70"/>
<ellipse cx="75.5796" cy="52.504" rx="1.95167" ry="2.5584" transform="rotate(-8.74215 75.5796 52.504)" fill="#FAB9B9"/>
<path d="M83.6965 40.3267C83.7532 40.6201 83.633 40.7853 83.3494 40.8401L79.7803 41.5298L80.1091 43.2312C81.2983 42.9811 82.4866 42.5689 83.6739 41.9946C83.8717 41.9158 83.9906 41.9537 84.0228 42.1199L84.1664 42.8631C84.2023 43.0489 84.1467 43.1813 83.9978 43.2507C82.7827 43.8912 81.166 44.3963 79.1321 44.7894C78.917 44.8309 78.7924 44.7637 78.7565 44.5779L78.0461 40.9013C77.9969 40.647 78.119 40.4916 78.4124 40.4349L82.0891 39.7244L81.885 38.6683L78.1399 39.392C77.8856 39.4412 77.7418 39.3269 77.6889 39.0531L77.5888 38.5349C77.5359 38.2611 77.6268 38.1015 77.881 38.0524L82.6137 37.1379C82.9071 37.0812 83.0919 37.1976 83.1448 37.4714L83.6965 40.3267Z" fill="#8B7A70"/>
<path d="M116.233 49.4944L119.246 49.513L118.878 62.1769C118.864 62.6336 118.472 62.9819 118.017 62.9412L116.309 62.7886C115.876 62.7499 115.549 62.3728 115.572 61.939L116.233 49.4944Z" fill="#A07BE5"/>
<path fill-rule="evenodd" clip-rule="evenodd" d="M233.948 49.6424C236.41 48.5117 237.996 45.9075 237.703 43.0642C237.334 39.4915 234.138 36.8942 230.563 37.263C226.988 37.6317 224.389 40.8269 224.758 44.3996C224.963 46.3914 226.048 48.08 227.587 49.1205L226.603 64.7267C226.673 65.0583 226.975 65.6862 227.66 66.0754C226.319 69.9036 222.096 71.3256 220.823 71.4567C222.99 71.2332 221.844 72.9869 221.844 72.9869C227.329 69.8539 228.558 67.499 228.807 66.4005C229.72 66.434 230.255 65.8926 230.422 65.5761L233.948 49.6424Z" fill="#98887F"/>
<path d="M152.111 24.8513C151.032 24.5293 150.055 25.5904 150.465 26.6396L154.868 37.9135L167.36 29.3997L152.111 24.8513Z" fill="#98887F"/>
<path d="M193.899 17.6991C194.721 16.9289 196.069 17.4417 196.171 18.5634L197.268 30.6168L182.289 28.581L193.899 17.6991Z" fill="#98887F"/>
<path fill-rule="evenodd" clip-rule="evenodd" d="M182.172 106.244C204.284 106.244 222.209 95.77 222.209 70.6695C222.209 69.2296 222.15 67.8052 222.035 66.3995L229.81 54.3129C230.419 53.3657 229.672 52.1322 228.55 52.2341L219.105 53.092C213.051 36.7198 198.794 25.2212 182.172 25.2212C162.775 25.2212 146.6 40.8778 142.919 61.665L133.545 69.7721C131.974 71.1309 133.034 73.7079 135.106 73.5684L142.191 73.0916C143.314 96.4456 160.784 106.244 182.172 106.244Z" fill="#FFB440"/>
<path d="M170.648 45.3128C171.862 44.4112 173.141 43.3097 174.63 42.895C175.152 42.7497 176.503 42.4629 176.966 42.9086C177.86 43.7694 177.533 46.0187 177.533 47.1568" stroke="#FFB440" stroke-width="4.27616" stroke-linecap="round"/>
<path d="M167.115 41.9859C167.071 41.8774 167.094 41.7539 167.177 41.6708C167.561 41.2831 168.699 40.1755 169.611 39.7001C170.509 39.2318 171.999 38.954 172.544 38.8637C172.669 38.843 172.791 38.9061 172.85 39.0183L173.351 39.9802C173.427 40.1256 173.372 40.3047 173.227 40.3815C172.718 40.6507 171.573 41.2566 170.73 41.6962C169.921 42.1177 168.836 43.2038 168.301 43.7687C168.149 43.9296 167.878 43.8806 167.795 43.6751L167.115 41.9859Z" fill="#98887F"/>
<path d="M196.652 40.9962C196.653 41.2446 196.5 41.4671 196.265 41.5478C195.628 41.7667 194.34 42.1706 193.427 42.2019C192.539 42.2324 191.302 41.9334 190.654 41.7558C190.395 41.685 190.225 41.4444 190.234 41.1764L190.277 39.927C190.294 39.4388 190.88 39.1495 191.32 39.3619C191.788 39.5881 192.365 39.7863 192.923 39.7671C193.739 39.7392 195.065 39.4506 195.895 39.2516C196.276 39.1602 196.647 39.4466 196.649 39.8384L196.652 40.9962Z" fill="#98887F"/>
<path d="M172.58 38.9705C172.698 38.9303 172.828 38.9673 172.905 39.0653C173.251 39.5054 174.196 40.7566 174.552 41.7111C174.904 42.6555 174.998 44.1585 175.021 44.717C175.026 44.8474 174.944 44.9633 174.82 45.0045L172.665 45.7204C172.464 45.787 172.258 45.6305 172.261 45.4194C172.271 44.7422 172.245 43.4344 171.93 42.5924C171.619 41.7585 170.753 40.7401 170.273 40.2166C170.124 40.0536 170.189 39.7858 170.398 39.7145L172.58 38.9705Z" fill="#98887F"/>
<path d="M190.682 41.5643C190.413 41.5572 190.182 41.3715 190.127 41.108C189.987 40.4356 189.756 39.1437 189.836 38.2534C189.916 37.3589 190.373 36.1534 190.627 35.5377C190.726 35.2986 190.972 35.1596 191.229 35.1892L192.606 35.3476C193.043 35.3979 193.286 35.8926 193.085 36.284C192.768 36.9032 192.394 37.7602 192.332 38.4607C192.269 39.1697 192.499 40.0905 192.711 40.7559C192.843 41.1691 192.534 41.6128 192.101 41.6014L190.682 41.5643Z" fill="#98887F"/>
<path d="M184.755 46.657C182.941 47.5099 181.169 46.8437 180.51 46.4039C179.894 46.4576 179.575 46.5096 179.24 47.8056C178.905 49.1017 179.783 50.3424 181.349 51.4985C182.915 52.6547 189.059 52.1718 190.355 49.3515C191.651 46.5312 189.037 45.317 188.316 45.0316C187.596 44.7462 187.023 45.5909 184.755 46.657Z" fill="#EF8E8E"/>
<path d="M214.56 83.9257C214.56 94.3095 200.088 102.592 185.072 102.592C170.057 102.592 154.232 98.9085 154.232 88.5247C154.232 78.1408 172.897 62.96 187.913 62.96C202.928 62.96 214.56 73.5419 214.56 83.9257Z" fill="#FAD296"/>
<path d="M225.397 16.6543L227.963 24.3532L226.273 24.9167L222.026 21.7123L221.973 21.73L223.359 25.8878L221.339 26.5612L218.773 18.8624L220.495 18.2882L224.692 21.4855L224.756 21.4643L223.377 17.3277L225.397 16.6543ZM234.906 17.7622C235.76 20.325 234.587 22.2638 232.503 22.9585C230.397 23.6602 228.302 22.7988 227.452 20.2467C226.597 17.684 227.76 15.7487 229.866 15.0469C231.95 14.3523 234.052 15.1995 234.906 17.7622ZM232.822 18.4569C232.35 17.0426 231.507 16.4613 230.454 16.8122C229.391 17.1666 229.064 18.1378 229.536 19.5521C230.007 20.9664 230.851 21.5477 231.914 21.1933C232.967 20.8424 233.293 19.8712 232.822 18.4569ZM238.428 20.8655L233.597 13.9216L235.851 13.1702L238.541 17.6258L238.605 17.6046L238.265 12.3657L240.051 11.7703L242.94 16.1833L243.004 16.1621L242.476 10.9622L244.73 10.2108L245.031 18.6646L243.085 19.3132L240.289 15.3538L240.225 15.3751L240.363 20.2205L238.428 20.8655Z" fill="#B699EC"/>
<path d="M87.756 12.5752L90.2352 4.64766L93.6077 5.70234C95.3815 6.25707 96.1929 7.73691 95.6724 9.40126C95.1416 11.0985 93.616 11.7873 91.8093 11.2223L90.5829 10.8388L89.8364 13.2258L87.756 12.5752ZM91.0897 9.21825L91.9 9.47165C92.6884 9.7182 93.2743 9.42061 93.4934 8.71983C93.7091 8.03 93.3938 7.46257 92.6054 7.21602L91.7951 6.96262L91.0897 9.21825ZM94.66 14.7343L97.1391 6.80674L99.2196 7.45735L97.2677 13.6987L100.498 14.7088L99.9706 16.3951L94.66 14.7343ZM102.637 17.229L100.381 16.5236L105.499 9.42124L108.335 10.3081L108.484 19.0575L106.239 18.3555L106.255 16.6534L103.594 15.8213L102.637 17.229ZM104.569 14.3953L106.266 14.926L106.277 12.0084L106.211 11.9879L104.569 14.3953ZM110.367 10.9434L112.699 11.6728L113.262 15.407L113.328 15.4275L115.929 12.6829L118.261 13.4123L113.664 17.8887L112.87 20.429L110.8 19.7818L111.595 17.2415L110.367 10.9434Z" fill="#FFB440"/>
<path d="M10.0164 40.7551C9.59639 40.0951 8.86255 39.8781 7.97639 40.1735C6.57791 40.6396 6.11171 41.9642 6.70704 43.7504C7.30698 45.5504 8.42388 46.3627 9.86389 45.8828C11.117 45.4651 11.5578 44.6644 11.267 43.7228L9.41164 44.3412L8.78401 42.4581L13.1871 40.9906L13.644 42.3614C14.5532 45.0891 13.2192 47.3183 10.6023 48.1905C7.69455 49.1597 5.05921 47.8534 4.00239 44.6826C2.90403 41.3872 4.45489 38.7934 7.15493 37.8935C9.5088 37.1089 11.798 37.9305 12.6887 39.8644L10.0164 40.7551ZM24.0406 37.9885C25.1528 41.3255 23.625 43.8501 20.9111 44.7546C18.1696 45.6684 15.4419 44.5467 14.3343 41.2236C13.2221 37.8867 14.7361 35.3667 17.4776 34.4529C20.1915 33.5484 22.9284 34.6516 24.0406 37.9885ZM21.3267 38.8931C20.7129 37.0515 19.6145 36.2946 18.2437 36.7514C16.8591 37.2129 16.4344 38.4775 17.0482 40.3191C17.662 42.1606 18.7604 42.9176 20.1451 42.4561C21.5159 41.9992 21.9405 40.7346 21.3267 38.8931Z" fill="#B699EC"/>
</svg>
