<svg width="230" height="94" viewBox="0 0 230 94" fill="none" xmlns="http://www.w3.org/2000/svg">
<path fill-rule="evenodd" clip-rule="evenodd" d="M102.112 36.995C104.574 35.8643 106.16 33.2601 105.867 30.4167C105.498 26.844 102.302 24.2467 98.7271 24.6155C95.1524 24.9843 92.5533 28.1795 92.9219 31.7522C93.1273 33.7439 94.2117 35.4325 95.7506 36.473L94.7674 52.0793C94.8372 52.4108 95.1393 53.0388 95.8238 53.4279C94.4833 57.2561 90.2598 58.6781 88.9873 58.8093C91.1543 58.5857 90.0077 60.3394 90.0077 60.3394C95.493 57.2064 96.7218 54.8516 96.9709 53.753C97.8843 53.7865 98.4193 53.2452 98.5863 52.9286L102.112 36.995Z" fill="#98887F"/>
<path d="M20.2765 12.2038C19.1971 11.8819 18.2201 12.943 18.6299 13.9921L23.033 25.2661L35.525 16.7522L20.2765 12.2038Z" fill="#98887F"/>
<path d="M62.0638 5.05166C62.8856 4.28141 64.2337 4.7942 64.3359 5.91589L65.4335 17.9693L50.4539 15.9335L62.0638 5.05166Z" fill="#98887F"/>
<path fill-rule="evenodd" clip-rule="evenodd" d="M50.3356 93.5962C72.4479 93.5962 90.3734 83.1225 90.3734 58.0221C90.3734 56.5821 90.3144 55.1578 90.1991 53.752L97.9741 41.6655C98.5835 40.7182 97.8359 39.4847 96.7142 39.5866L87.269 40.4445C81.2147 24.0723 66.9581 12.5737 50.3356 12.5737C30.9392 12.5737 14.7642 28.2303 11.0835 49.0175L1.70926 57.1247C0.138068 58.4835 1.19768 61.0604 3.27025 60.9209L10.3551 60.4442C11.4778 83.7981 28.9484 93.5962 50.3356 93.5962Z" fill="#FFB440"/>
<path d="M38.8135 32.6653C40.0265 31.7637 41.3061 30.6622 42.7953 30.2475C43.3169 30.1023 44.6683 29.8154 45.1312 30.2612C46.0251 31.122 45.6981 33.3712 45.6981 34.5094" stroke="#FFB440" stroke-width="4.27616" stroke-linecap="round"/>
<path d="M35.2799 29.3384C35.2362 29.2299 35.2595 29.1064 35.3418 29.0233C35.7261 28.6357 36.864 27.528 37.7757 27.0526C38.6739 26.5843 40.1641 26.3065 40.7091 26.2163C40.8339 26.1956 40.9561 26.2587 41.0146 26.3708L41.5161 27.3327C41.592 27.4782 41.5367 27.6573 41.3918 27.734C40.8835 28.0032 39.7378 28.6091 38.8947 29.0487C38.0862 29.4703 37.0013 30.5563 36.4663 31.1213C36.3139 31.2821 36.0427 31.2332 35.9599 31.0276L35.2799 29.3384Z" fill="#98887F"/>
<path d="M64.8172 28.3487C64.8179 28.5971 64.6653 28.8197 64.4303 28.9004C63.7931 29.1193 62.5048 29.5231 61.5925 29.5544C60.7037 29.5849 59.4666 29.2859 58.8189 29.1084C58.5603 29.0375 58.3903 28.7969 58.3994 28.5289L58.442 27.2795C58.4586 26.7913 59.0447 26.5021 59.4846 26.7145C59.953 26.9406 60.5296 27.1388 61.0878 27.1197C61.9036 27.0917 63.2297 26.8031 64.0596 26.6041C64.4406 26.5127 64.8124 26.7991 64.8136 27.1909L64.8172 28.3487Z" fill="#98887F"/>
<path d="M40.7452 26.323C40.8631 26.2828 40.9932 26.3199 41.0701 26.4178C41.4156 26.858 42.3606 28.1092 42.717 29.0636C43.0695 30.008 43.1627 31.511 43.1858 32.0695C43.1912 32.1999 43.1086 32.3159 42.9847 32.357L40.8298 33.073C40.6295 33.1395 40.4226 32.983 40.4259 32.7719C40.4363 32.0947 40.4098 30.787 40.0954 29.945C39.7841 29.111 38.9176 28.0926 38.4384 27.5692C38.2891 27.4061 38.3537 27.1384 38.563 27.067L40.7452 26.323Z" fill="#98887F"/>
<path d="M58.8466 28.9168C58.5776 28.9097 58.347 28.7241 58.2922 28.4606C58.1522 27.7882 57.9215 26.4962 58.001 25.6059C58.0808 24.7115 58.5377 23.5059 58.7922 22.8902C58.891 22.6512 59.1374 22.5121 59.3944 22.5417L60.7711 22.7002C61.208 22.7504 61.4505 23.2451 61.2501 23.6366C60.933 24.2558 60.5594 25.1128 60.4969 25.8132C60.4336 26.5222 60.6644 27.443 60.8765 28.1085C61.0082 28.5217 60.6992 28.9653 60.2656 28.954L58.8466 28.9168Z" fill="#98887F"/>
<path d="M52.9204 34.0095C51.1062 34.8625 49.3343 34.1962 48.6751 33.7565C48.0586 33.8102 47.7402 33.8621 47.4054 35.1582C47.0705 36.4542 47.9482 37.6949 49.5142 38.8511C51.0802 40.0072 57.2245 39.5244 58.5204 36.7041C59.8163 33.8838 57.2017 32.6695 56.4814 32.3841C55.761 32.0988 55.1883 32.9434 52.9204 34.0095Z" fill="#EF8E8E"/>
<path d="M82.7247 71.2783C82.7247 81.6621 68.2529 89.9445 53.2374 89.9445C38.222 89.9445 22.3975 86.261 22.3975 75.8772C22.3975 65.4934 41.0625 50.3125 56.0779 50.3125C71.0934 50.3125 82.7247 60.8944 82.7247 71.2783Z" fill="#FAD296"/>
<path fill-rule="evenodd" clip-rule="evenodd" d="M135.63 9.55762C127.898 9.55762 121.63 15.8256 121.63 23.5576V45.9308L108.192 53.689L121.63 61.4471V70.4424C121.63 78.1744 127.898 84.4424 135.63 84.4424H216C223.732 84.4424 230 78.1744 230 70.4424V23.5576C230 15.8256 223.732 9.55762 216 9.55762H135.63Z" fill="#FBE0B6"/>
<path d="M137.872 40.7314V28.2617H143.177C145.967 28.2617 147.793 30.0185 147.793 32.6364C147.793 35.3061 145.916 36.9767 143.074 36.9767H141.145V40.7314H137.872ZM141.145 34.4277H142.419C143.659 34.4277 144.365 33.7387 144.365 32.6364C144.365 31.5514 143.659 30.8797 142.419 30.8797H141.145V34.4277ZM148.732 40.7314V28.2617H152.004V38.079H157.085V40.7314H148.732ZM161.28 40.7314H157.732L161.882 28.2617H166.343L170.477 40.7314H166.946L166.205 38.2857H162.02L161.28 40.7314ZM162.778 35.8056H165.448L164.156 31.6203H164.053L162.778 35.8056ZM169.539 28.2617H173.207L175.687 33.3598H175.791L178.288 28.2617H181.957L177.375 36.7356V40.7314H174.12V36.7356L169.539 28.2617ZM148.602 49.2617V61.7314H145.864L141.231 54.9971H141.145V61.7314H137.872V49.2617H140.662L145.227 55.9616H145.33V49.2617H148.602ZM161.925 55.4966C161.925 59.6474 159.273 61.9037 155.897 61.9037C152.487 61.9037 149.851 59.6302 149.851 55.4966C149.851 51.3457 152.487 49.0895 155.897 49.0895C159.273 49.0895 161.925 51.3457 161.925 55.4966ZM158.549 55.4966C158.549 53.2059 157.602 51.9486 155.897 51.9486C154.175 51.9486 153.227 53.2059 153.227 55.4966C153.227 57.7873 154.175 59.0446 155.897 59.0446C157.602 59.0446 158.549 57.7873 158.549 55.4966ZM165.551 61.7314L161.882 49.2617H165.534L167.291 57.0639H167.394L169.443 49.2617H172.337L174.404 57.0984H174.507L176.264 49.2617H179.915L176.247 61.7314H173.095L170.942 54.601H170.839L168.686 61.7314H165.551Z" fill="#FFB440"/>
<path d="M199.566 29.2935L198.839 50.6168H192.131L191.361 29.2935H199.566ZM195.464 60.7015C193.156 60.7015 191.276 58.864 191.319 56.5565C191.276 54.2917 193.156 52.4542 195.464 52.4542C197.643 52.4542 199.609 54.2917 199.609 56.5565C199.609 58.864 197.643 60.7015 195.464 60.7015ZM213.561 29.2935L212.835 50.6168H206.126L205.357 29.2935H213.561ZM209.459 60.7015C207.152 60.7015 205.271 58.864 205.314 56.5565C205.271 54.2917 207.152 52.4542 209.459 52.4542C211.639 52.4542 213.604 54.2917 213.604 56.5565C213.604 58.864 211.639 60.7015 209.459 60.7015Z" fill="#FFB440"/>
</svg>
