<svg width="144" height="144" viewBox="0 0 144 144" fill="none" xmlns="http://www.w3.org/2000/svg">
<circle cx="72" cy="72" r="72" fill="#BFD6F7"/>
<mask id="mask0_4308_30686" style="mask-type:alpha" maskUnits="userSpaceOnUse" x="24" y="23" width="96" height="97">
<rect x="24" y="23.999" width="96" height="96" fill="#357EE7"/>
</mask>
<g mask="url(#mask0_4308_30686)">
<path d="M72 80C68.6667 80 65.8333 78.8333 63.5 76.5C61.1667 74.1667 60 71.3333 60 68V44C60 40.6667 61.1667 37.8333 63.5 35.5C65.8333 33.1667 68.6667 32 72 32C75.3333 32 78.1667 33.1667 80.5 35.5C82.8333 37.8333 84 40.6667 84 44V68C84 71.3333 82.8333 74.1667 80.5 76.5C78.1667 78.8333 75.3333 80 72 80ZM68 108V95.7C61.0667 94.7667 55.3333 91.6667 50.8 86.4C46.2667 81.1333 44 75 44 68H52C52 73.5333 53.95 78.25 57.85 82.15C61.75 86.05 66.4667 88 72 88C77.5333 88 82.25 86.05 86.15 82.15C90.05 78.25 92 73.5333 92 68H100C100 75 97.7333 81.1333 93.2 86.4C88.6667 91.6667 82.9333 94.7667 76 95.7V108H68ZM72 72C73.1333 72 74.0833 71.6167 74.85 70.85C75.6167 70.0833 76 69.1333 76 68V44C76 42.8667 75.6167 41.9167 74.85 41.15C74.0833 40.3833 73.1333 40 72 40C70.8667 40 69.9167 40.3833 69.15 41.15C68.3833 41.9167 68 42.8667 68 44V68C68 69.1333 68.3833 70.0833 69.15 70.85C69.9167 71.6167 70.8667 72 72 72Z" fill="#357EE7"/>
</g>
</svg>
