<svg width="225" height="109" viewBox="0 0 225 109" fill="none" xmlns="http://www.w3.org/2000/svg">
<path d="M216.381 33.3064C216.83 31.8347 215.259 30.565 213.914 31.3135L200.905 38.5562L210.965 51.0419L216.381 33.3064Z" fill="#BFD6F7"/>
<path d="M125.499 65.6207C126.123 66.2332 127.179 65.877 127.304 65.0115L129.452 50.209L115.906 51.623C114.223 51.7987 113.505 53.8549 114.713 55.0399L125.499 65.6207Z" fill="#BFD6F7"/>
<path d="M157.33 3.80029C157.608 2.95529 158.737 2.80084 159.232 3.54L167.035 15.1867L151.644 21.0569L157.33 3.80029Z" fill="#98887F"/>
<path d="M212.478 62.9758C212.478 90.3267 192.945 101.739 168.85 101.739C144.755 101.739 125.223 90.3267 125.223 62.9758C125.223 35.6249 144.755 13.4526 168.85 13.4526C192.945 13.4526 212.478 35.6249 212.478 62.9758Z" fill="#BFD6F7"/>
<path d="M153.299 34.18C153.574 35.3696 152.51 34.8683 151.399 35.1254C150.289 35.3825 149.553 36.3005 149.278 35.1109C149.003 33.9214 149.679 32.7486 150.79 32.4916C151.9 32.2345 153.023 32.9905 153.299 34.18Z" fill="#6C6C6C"/>
<ellipse cx="170.728" cy="29.8153" rx="2.06347" ry="2.21086" fill="#6C6C6C"/>
<path d="M166.697 37.4251C166.685 40.437 162.616 42.3958 160.988 42.3894C159.36 42.383 156.156 41.4938 156.39 39.1355C156.484 38.1972 159.377 37.9608 161.005 37.9672C162.633 37.9736 166.709 34.4133 166.697 37.4251Z" fill="#F2A3A3"/>
<path d="M204.076 77.4218C204.076 88.7366 188.307 97.7617 171.945 97.7617C155.583 97.7617 138.34 93.7479 138.34 82.4331C138.34 71.1183 150.314 58.5649 167.63 55.9676C184.945 53.3705 204.076 66.107 204.076 77.4218Z" fill="#E6E6E6"/>
<ellipse cx="136.975" cy="99.6724" rx="9.68901" ry="3.67514" transform="rotate(-141.863 136.975 99.6724)" fill="#BFD6F7"/>
<ellipse cx="205.785" cy="97.8303" rx="9.68901" ry="3.67514" transform="rotate(-19.9802 205.785 97.8303)" fill="#BFD6F7"/>
<path d="M56.9754 31.959C56.1504 29.0895 54.2186 26.6594 51.6 25.1967C48.9813 23.734 45.8873 23.3571 42.9903 24.1477C42.8079 24.1906 42.6274 24.2412 42.4492 24.2993C34.1737 27.0394 33.5165 38.1942 40.9389 42.2696L57.4368 51.3372C58.1041 51.7036 58.8906 51.7917 59.6233 51.5821C60.3561 51.3724 60.9749 50.8823 61.3438 50.2194C61.7127 49.5565 61.8014 48.7753 61.5903 48.0474C61.3793 47.3196 60.8858 46.7049 60.2185 46.3385L43.7206 37.2709C40.4609 35.4805 40.9887 30.8214 44.2517 29.7267L44.2683 29.7201L44.5007 29.6608C47.4849 28.8364 50.5886 30.551 51.4484 33.5351C51.5526 33.8958 51.7273 34.2326 51.9625 34.5262C52.1977 34.8198 52.4888 35.0646 52.8193 35.2464C53.1497 35.4283 53.513 35.5437 53.8883 35.5862C54.2637 35.6286 54.6438 35.5972 55.0069 35.4937C55.37 35.3902 55.7091 35.2167 56.0047 34.983C56.3003 34.7494 56.5467 34.4602 56.7298 34.132C56.9129 33.8037 57.0291 33.4429 57.0718 33.0701C57.1145 32.6972 57.0795 32.3197 56.9754 31.959ZM96.6101 33.5351C96.8132 32.8212 97.1569 32.1544 97.6213 31.5735C98.0857 30.9925 98.6616 30.5089 99.3156 30.1507C99.9696 29.7924 100.689 29.5667 101.431 29.4866C102.174 29.4064 102.925 29.4735 103.641 29.6838L103.79 29.7201L103.813 29.7267C107.07 30.8214 107.598 35.4805 104.338 37.2709L87.84 46.3385C87.5096 46.5203 87.2185 46.7651 86.9833 47.0587C86.7481 47.3523 86.5734 47.6891 86.4692 48.0498C86.365 48.4105 86.3333 48.788 86.376 49.1608C86.4187 49.5337 86.535 49.8945 86.718 50.2227C86.9011 50.5509 87.1475 50.8401 87.4431 51.0737C87.7387 51.3074 88.0778 51.4809 88.4409 51.5844C88.804 51.6879 89.184 51.7193 89.5594 51.6769C89.9347 51.6345 90.298 51.5191 90.6284 51.3372L107.126 42.2696C114.545 38.1942 113.888 27.0394 105.613 24.2993C105.433 24.2411 105.252 24.1905 105.068 24.1477C102.171 23.3572 99.0764 23.7346 96.4577 25.1979C93.8389 26.6613 91.9075 29.0922 91.0832 31.9623C90.9792 32.323 90.9478 32.7005 90.9907 33.0732C91.0336 33.446 91.15 33.8067 91.3333 34.1348C91.7034 34.7973 92.3233 35.2868 93.0566 35.4953C93.79 35.7039 94.5767 35.6145 95.2438 35.2469C95.9108 34.8793 96.4035 34.2635 96.6135 33.5351M79.5745 64.8957V50.9811H68.4874V64.8957C68.4874 67.3357 67.3919 69.6768 65.4998 71.2265L59.1264 76.5022H88.9355L82.562 71.2265C81.6292 70.4517 80.8783 69.4835 80.3622 68.3898C79.8461 67.2962 79.5772 66.1035 79.5745 64.8957Z" fill="#D3883E"/>
<path d="M74.0275 61.7032C67.8912 61.7032 62.0063 59.2819 57.6673 54.9719C53.3283 50.6619 50.8906 44.8163 50.8906 38.721V16.1016C50.8906 14.8156 51.9529 13.7605 53.2475 13.7605H94.8408C96.1354 13.7605 97.1976 14.8156 97.1976 16.1016V38.721C97.1976 51.4156 86.8408 61.7032 74.0275 61.7032Z" fill="#FECF82"/>
<path d="M97.7116 76.5129H49.2636C46.7075 76.5129 44.5399 78.1946 44.0486 80.5356L38.691 103.913C38.4486 105.002 39.3217 106.024 40.5134 106.024H106.498C107.69 106.024 108.563 105.002 108.321 103.913L102.963 80.5356C102.439 78.1946 100.268 76.5129 97.7116 76.5129Z" fill="#B46F51"/>
<path d="M83.0761 86.1719H63.9358C63.6625 86.177 63.3929 86.2358 63.1425 86.3447C62.8921 86.4537 62.6659 86.6107 62.4768 86.8068C62.2877 87.0029 62.1395 87.2342 62.0407 87.4874C61.9419 87.7406 61.8944 88.0107 61.901 88.2822V94.2503C61.901 95.4043 62.7906 96.3605 63.9358 96.3605H83.0761C84.1881 96.3605 85.1109 95.4373 85.1109 94.2503V88.2822C85.1109 87.1281 84.2213 86.1719 83.0761 86.1719Z" fill="#FFB02E"/>
<path d="M19.5488 67.0264L17.4337 61.9493L22.8511 56.9841L30.3836 57.096L32.3065 61.7115L25.1585 62.5227L19.5488 67.0264Z" fill="#78DA54"/>
<path d="M134.027 10.6533L130.658 6.30596L123.665 8.56278L120.04 15.167L123.103 19.1191L127.34 13.3054L134.027 10.6533Z" fill="#73ABFF"/>
<path d="M16.4863 17.6738L14.1188 22.6382L6.80543 21.9202L1.85954 16.2378L4.01181 11.7247L9.38816 16.5045L16.4863 17.6738Z" fill="#FF9A9A"/>
</svg>
