<svg width="45" height="45" viewBox="0 0 45 45" fill="none" xmlns="http://www.w3.org/2000/svg">
<mask id="mask0_2609_12351" style="mask-type:alpha" maskUnits="userSpaceOnUse" x="0" y="0" width="45" height="45">
<rect width="45" height="45" fill="#D9D9D9"/>
</mask>
<g mask="url(#mask0_2609_12351)">
<path d="M18.1406 25.6875L19.7812 20.3438L15.4688 16.875H20.8125L22.5 11.625L24.1875 16.875H29.5312L25.1719 20.3438L26.8125 25.6875L22.5 22.3594L18.1406 25.6875ZM11.25 43.125V28.6406C10.0625 27.3281 9.14063 25.8281 8.48438 24.1406C7.82813 22.4531 7.5 20.6563 7.5 18.75C7.5 14.5625 8.95312 11.0156 11.8594 8.10938C14.7656 5.20312 18.3125 3.75 22.5 3.75C26.6875 3.75 30.2344 5.20312 33.1406 8.10938C36.0469 11.0156 37.5 14.5625 37.5 18.75C37.5 20.6563 37.1719 22.4531 36.5156 24.1406C35.8594 25.8281 34.9375 27.3281 33.75 28.6406V43.125L22.5 39.375L11.25 43.125ZM22.5 30C25.625 30 28.2812 28.9063 30.4688 26.7188C32.6563 24.5312 33.75 21.875 33.75 18.75C33.75 15.625 32.6563 12.9688 30.4688 10.7812C28.2812 8.59375 25.625 7.5 22.5 7.5C19.375 7.5 16.7188 8.59375 14.5312 10.7812C12.3437 12.9688 11.25 15.625 11.25 18.75C11.25 21.875 12.3437 24.5312 14.5312 26.7188C16.7188 28.9063 19.375 30 22.5 30ZM15 37.5469L22.5 35.625L30 37.5469V31.7344C28.9062 32.3594 27.7266 32.8516 26.4609 33.2109C25.1953 33.5703 23.875 33.75 22.5 33.75C21.125 33.75 19.8047 33.5703 18.5391 33.2109C17.2734 32.8516 16.0938 32.3594 15 31.7344V37.5469Z" fill="#357EE7"/>
</g>
</svg>
