<svg width="262" height="84" viewBox="0 0 262 84" fill="none" xmlns="http://www.w3.org/2000/svg">
<path d="M39 43.9998H67V77.9998C67 80.2089 65.2091 81.9998 63 81.9998H43C40.7909 81.9998 39 80.2089 39 77.9998V43.9998Z" fill="#E78F09"/>
<path d="M34.4932 2.68216L27.5391 16.5904H43.2362L36.282 2.68216C35.9135 1.94512 34.8617 1.94512 34.4932 2.68216Z" fill="#38373A"/>
<path d="M0 19.9998C0 17.7906 1.79086 15.9998 4 15.9998H63C65.2091 15.9998 67 17.7906 67 19.9998V44.9998H4C1.79086 44.9998 0 43.2089 0 40.9998V19.9998Z" fill="#008CFF"/>
<mask id="mask0_1930_5262" style="mask-type:alpha" maskUnits="userSpaceOnUse" x="39" y="43" width="28" height="39">
<path d="M67 43.9998L67 77.9998C67 80.2089 65.2091 81.9998 63 81.9998L43 81.9998C40.7909 81.9998 39 80.2089 39 77.9998L39 43.9998L67 43.9998Z" fill="#E78F09"/>
</mask>
<g mask="url(#mask0_1930_5262)">
<ellipse cx="41.3656" cy="63.6426" rx="7.72879" ry="7.05591" fill="#B67007"/>
<ellipse cx="62.7976" cy="73.2424" rx="9.47903" ry="8.65377" fill="#B67007"/>
<ellipse cx="56.8457" cy="51.9029" rx="5.95105" ry="5.43294" fill="#B67007"/>
</g>
<path d="M13.9722 50.479L17.625 44.9997L8.65522 44.9997L12.3081 50.479C12.7039 51.0727 13.5763 51.0727 13.9722 50.479Z" fill="#1C1B1F"/>
<path d="M27.4253 50.479L31.0781 44.9997L22.1083 44.9997L25.7612 50.479C26.157 51.0727 27.0295 51.0727 27.4253 50.479Z" fill="#1C1B1F"/>
<ellipse cx="16.0273" cy="29.2629" rx="2.88473" ry="2.88473" fill="white"/>
<ellipse cx="26.8769" cy="29.2629" rx="2.88473" ry="2.88473" fill="white"/>
<path d="M86.1306 47.996C84.4806 47.996 83.6886 47.204 83.6886 45.488V41.264C83.6886 39.614 84.4806 38.756 86.0646 38.756H129.889C131.737 38.756 132.661 39.68 132.661 41.462V45.29C132.661 47.138 131.737 47.996 130.021 47.996H86.1306ZM130.483 15.788C131.869 15.788 132.595 16.712 132.595 18.56C132.595 25.424 131.539 30.704 129.493 34.4C128.767 35.918 127.579 36.644 125.929 36.644H120.715C119.725 36.644 119.131 36.446 118.867 35.984C118.603 35.522 118.735 34.862 119.131 33.938C120.385 31.232 121.177 28.856 121.441 26.876C121.573 25.82 121.111 25.226 120.055 25.226H85.9326C84.4806 25.226 83.7546 24.5 83.7546 22.982V18.098C83.7546 16.58 84.4806 15.788 85.9326 15.788H130.483ZM86.3946 59.942C84.5466 59.942 83.6886 59.084 83.6886 57.302V53.672C83.6886 52.022 84.5466 51.164 86.3946 51.164H129.691C131.605 51.164 132.595 52.022 132.595 53.672V67.268C132.595 69.05 131.605 69.908 129.757 69.908H93.7866V72.812H129.889C131.671 72.812 132.595 73.67 132.595 75.32V78.884C132.595 80.732 131.671 81.59 129.889 81.59H86.4606C84.6126 81.59 83.6886 80.798 83.6886 79.082V65.288C83.6886 63.572 84.5466 62.714 86.3946 62.714H122.563V59.942H86.3946Z" fill="#F7A62C"/>
<path d="M200.863 79.016C200.863 80.732 199.939 81.59 198.157 81.59H193.867C192.019 81.59 191.161 80.732 191.161 79.016V44.168H188.653V79.016C188.653 80.732 187.729 81.59 185.881 81.59H181.657C179.809 81.59 178.885 80.732 178.885 79.016V18.296C178.885 16.646 179.743 15.788 181.459 15.788H186.145C187.795 15.788 188.653 16.646 188.653 18.23V33.872H191.161V18.296C191.161 16.646 191.953 15.788 193.669 15.788H198.289C200.005 15.788 200.863 16.58 200.863 18.164V79.016ZM150.901 28.13C150.967 27.14 150.505 26.612 149.515 26.612H143.113C141.397 26.612 140.539 25.82 140.539 24.104V19.748C140.539 18.032 141.331 17.108 142.981 17.108H173.077C174.925 17.108 175.915 18.296 175.915 20.606C175.915 46.808 172.747 65.948 166.543 77.96C165.751 79.478 164.497 80.204 162.781 80.204H158.227C156.907 80.204 155.983 79.94 155.587 79.346C155.191 78.818 155.257 77.96 155.785 76.772C162.055 63.572 165.223 47.402 165.223 28.13C165.289 27.14 164.827 26.612 163.837 26.612H161.395C161.131 46.412 157.567 63.572 150.703 77.96C149.911 79.478 148.525 80.204 146.479 80.204H142.453C141.463 80.204 140.803 79.94 140.407 79.28C140.011 78.686 140.209 77.564 141.067 75.848C147.667 61.46 150.901 45.554 150.901 28.13ZM257.637 79.412C257.505 80.996 256.515 81.788 254.601 81.788H250.245C248.133 81.788 247.077 80.996 247.077 79.412V18.56C247.077 16.712 248.133 15.788 250.245 15.788H254.733C256.647 15.788 257.637 16.58 257.637 18.164V79.412ZM242.655 75.848C242.655 76.904 239.949 77.96 234.603 78.95C229.257 79.94 221.535 80.402 211.503 80.336C209.391 80.336 208.467 79.544 208.599 77.828V19.484C208.599 17.9 209.589 17.108 211.701 17.108H215.859C217.707 17.174 218.565 17.966 218.565 19.418V27.338H232.623V19.418C232.623 17.834 233.613 17.042 235.725 17.042H239.553C241.599 17.108 242.655 17.9 242.655 19.418V75.848ZM218.499 71.228C223.185 71.228 227.871 70.832 232.557 70.04V36.446H218.565L218.499 71.228Z" fill="#3392FF"/>
</svg>
