<svg width="262" height="84" viewBox="0 0 262 84" fill="none" xmlns="http://www.w3.org/2000/svg">
<path d="M0 19.834C0 17.6248 1.79086 15.834 4 15.834H63.2733C65.4825 15.834 67.2733 17.6248 67.2733 19.834V44.7H4C1.79086 44.7 0 42.9091 0 40.7V19.834Z" fill="#008CFF"/>
<path d="M38.6875 44.9727H67.2736V79.1058C67.2736 81.3149 65.4827 83.1058 63.2736 83.1058H42.6875C40.4784 83.1058 38.6875 81.3149 38.6875 79.1058V44.9727Z" fill="#E78F09"/>
<mask id="mask0_1930_5263" style="mask-type:alpha" maskUnits="userSpaceOnUse" x="38" y="44" width="30" height="40">
<path d="M67.2734 44.7031L67.2734 79.1068C67.2734 81.316 65.4826 83.1068 63.2734 83.1068L42.6874 83.1068C40.4782 83.1068 38.6874 81.316 38.6874 79.1068L38.6874 44.7031L67.2734 44.7031Z" fill="#E78F09"/>
</mask>
<g mask="url(#mask0_1930_5263)">
<ellipse cx="41.3655" cy="66.6438" rx="7.72879" ry="7.05591" fill="#B67007"/>
<ellipse cx="62.7974" cy="76.2436" rx="9.47903" ry="8.65377" fill="#B67007"/>
<ellipse cx="56.8456" cy="54.9036" rx="5.95105" ry="5.43294" fill="#B67007"/>
</g>
<path d="M34.4551 2.75856L28.2935 15.0818C27.9469 15.775 28.4509 16.5907 29.226 16.5907H41.5493C42.3243 16.5907 42.8284 15.775 42.4818 15.0818L36.3201 2.75856C35.9359 1.99014 34.8393 1.99014 34.4551 2.75856Z" fill="#38373A"/>
<path d="M14.1128 49.9433L17.625 44.675L8.65522 44.675L12.1674 49.9433C12.6302 50.6374 13.6501 50.6374 14.1128 49.9433Z" fill="#1C1B1F"/>
<path d="M27.4607 50.1011L31.0781 44.675L22.1083 44.675L25.7258 50.1011C26.1384 50.7201 27.048 50.7201 27.4607 50.1011Z" fill="#1C1B1F"/>
<ellipse cx="16.0273" cy="29.2636" rx="2.88473" ry="2.88473" fill="white"/>
<ellipse cx="26.8769" cy="29.2636" rx="2.88473" ry="2.88473" fill="white"/>
<path d="M85.8386 48.9062C84.1829 48.9062 83.3882 48.1115 83.3882 46.3896V42.151C83.3882 40.4953 84.1829 39.6344 85.7724 39.6344H129.748C131.602 39.6344 132.529 40.5615 132.529 42.3497V46.1909C132.529 48.0453 131.602 48.9062 129.88 48.9062H85.8386ZM130.344 16.5871C131.734 16.5871 132.463 17.5143 132.463 19.3686C132.463 26.2563 131.403 31.5546 129.35 35.2633C128.622 36.7866 127.43 37.5151 125.774 37.5151H120.542C119.549 37.5151 118.953 37.3164 118.688 36.8528C118.423 36.3892 118.555 35.7269 118.953 34.7997C120.211 32.0844 121.006 29.7002 121.27 27.7133C121.403 26.6537 120.939 26.0577 119.88 26.0577H85.6399C84.1829 26.0577 83.4544 25.3291 83.4544 23.8059V18.9051C83.4544 17.3818 84.1829 16.5871 85.6399 16.5871H130.344ZM86.1035 60.8935C84.2492 60.8935 83.3882 60.0325 83.3882 58.2444V54.6018C83.3882 52.9461 84.2492 52.0852 86.1035 52.0852H129.549C131.47 52.0852 132.463 52.9461 132.463 54.6018V68.2448C132.463 70.0329 131.47 70.8939 129.615 70.8939H93.521V73.8079H129.748C131.536 73.8079 132.463 74.6689 132.463 76.3246V79.9009C132.463 81.7552 131.536 82.6162 129.748 82.6162H86.1698C84.3154 82.6162 83.3882 81.8215 83.3882 80.0995V66.2579C83.3882 64.536 84.2492 63.675 86.1035 63.675H122.396V60.8935H86.1035Z" fill="#F7A62C"/>
<path d="M200.967 80.0333C200.967 81.7552 200.04 82.6162 198.252 82.6162H193.947C192.093 82.6162 191.232 81.7552 191.232 80.0333V45.065H188.715V80.0333C188.715 81.7552 187.788 82.6162 185.934 82.6162H181.695C179.841 82.6162 178.914 81.7552 178.914 80.0333V19.1037C178.914 17.448 179.774 16.5871 181.496 16.5871H186.199C187.854 16.5871 188.715 17.448 188.715 19.0375V34.7335H191.232V19.1037C191.232 17.448 192.027 16.5871 193.749 16.5871H198.384C200.106 16.5871 200.967 17.3818 200.967 18.9713V80.0333ZM150.833 28.9717C150.899 27.9783 150.436 27.4484 149.442 27.4484H143.018C141.296 27.4484 140.435 26.6537 140.435 24.9318V20.5607C140.435 18.8388 141.23 17.9116 142.886 17.9116H173.085C174.94 17.9116 175.933 19.1037 175.933 21.4217C175.933 47.7141 172.754 66.9202 166.529 78.9737C165.734 80.4969 164.476 81.2254 162.754 81.2254H158.184C156.86 81.2254 155.932 80.9605 155.535 80.3645C155.138 79.8346 155.204 78.9737 155.734 77.7816C162.025 64.536 165.204 48.3102 165.204 28.9717C165.271 27.9783 164.807 27.4484 163.814 27.4484H161.363C161.098 47.3168 157.522 64.536 150.634 78.9737C149.84 80.4969 148.449 81.2254 146.396 81.2254H142.356C141.362 81.2254 140.7 80.9605 140.303 80.2982C139.905 79.7022 140.104 78.5763 140.965 76.8544C147.588 62.4167 150.833 46.4558 150.833 28.9717ZM257.937 80.4307C257.804 82.0201 256.811 82.8149 254.89 82.8149H250.519C248.4 82.8149 247.34 82.0201 247.34 80.4307V19.3686C247.34 17.5143 248.4 16.5871 250.519 16.5871H255.023C256.943 16.5871 257.937 17.3818 257.937 18.9713V80.4307ZM242.903 76.8544C242.903 77.914 240.188 78.9737 234.823 79.9671C229.459 80.9605 221.71 81.4241 211.643 81.3579C209.524 81.3579 208.597 80.5631 208.729 78.8412V20.2958C208.729 18.7064 209.723 17.9116 211.842 17.9116H216.015C217.869 17.9779 218.73 18.7726 218.73 20.2296V28.1769H232.836V20.2296C232.836 18.6401 233.83 17.8454 235.949 17.8454H239.79C241.843 17.9116 242.903 18.7064 242.903 20.2296V76.8544ZM218.664 72.2184C223.366 72.2184 228.068 71.8211 232.77 71.0263V37.3164H218.73L218.664 72.2184Z" fill="#3392FF"/>
</svg>
