<svg width="185" height="60" viewBox="0 0 185 60" fill="none" xmlns="http://www.w3.org/2000/svg">
<path d="M23.2779 1.33215L18.8768 10.1345C18.6292 10.6296 18.9892 11.2122 19.5428 11.2122H28.3452C28.8988 11.2122 29.2588 10.6296 29.0112 10.1345L24.6101 1.33215C24.3356 0.783273 23.5524 0.783273 23.2779 1.33215Z" fill="#38373A"/>
<path d="M8.74714 35.035L11.2559 31.2719L4.84888 31.2719L7.3576 35.035C7.68811 35.5308 8.41662 35.5308 8.74714 35.035Z" fill="#1C1B1F"/>
<path d="M18.2814 35.1477L20.8652 31.2719L14.4583 31.2719L17.0421 35.1477C17.3369 35.5899 17.9866 35.5899 18.2814 35.1477Z" fill="#1C1B1F"/>
<path fill-rule="evenodd" clip-rule="evenodd" d="M27.6341 10.6719H2.23408C1.00023 10.6719 0 11.6721 0 12.906V29.0563C0 30.2902 1.00023 31.2904 2.23408 31.2904H25.4C26.6339 31.2904 27.6341 32.2907 27.6341 33.5245L27.6341 56.4902C27.6341 57.724 28.6344 58.7242 29.8682 58.7242H45.8186C47.0525 58.7242 48.0527 57.724 48.0527 56.4902L48.0527 10.6722C48.0527 10.672 48.0526 10.6719 48.0524 10.6719H27.6341Z" fill="#008CFF"/>
<ellipse cx="10.1152" cy="20.2641" rx="2.06052" ry="2.06052" fill="white"/>
<ellipse cx="17.8652" cy="20.2641" rx="2.06052" ry="2.06052" fill="white"/>
<path d="M61.9534 33.3616C60.7707 33.3616 60.2031 32.7939 60.2031 31.564V28.5364C60.2031 27.3538 60.7707 26.7388 61.9061 26.7388H93.317C94.6415 26.7388 95.3038 27.4011 95.3038 28.6784V31.4221C95.3038 32.7466 94.6415 33.3616 93.4116 33.3616H61.9534ZM93.7427 10.2765C94.7361 10.2765 95.2565 10.9388 95.2565 12.2633C95.2565 17.1831 94.4996 20.9675 93.0331 23.6167C92.5128 24.7047 91.6613 25.225 90.4786 25.225H86.7415C86.0319 25.225 85.6061 25.0831 85.4169 24.752C85.2277 24.4209 85.3223 23.9478 85.6061 23.2855C86.505 21.346 87.0726 19.643 87.2618 18.2238C87.3565 17.4669 87.0253 17.0412 86.2684 17.0412H61.8114C60.7707 17.0412 60.2504 16.5208 60.2504 15.4328V11.9322C60.2504 10.8441 60.7707 10.2765 61.8114 10.2765H93.7427ZM62.1426 41.9239C60.818 41.9239 60.2031 41.3089 60.2031 40.0317V37.4299C60.2031 36.2472 60.818 35.6323 62.1426 35.6323H93.175C94.5469 35.6323 95.2565 36.2472 95.2565 37.4299V47.1748C95.2565 48.4521 94.5469 49.0671 93.2223 49.0671H67.4408V51.1485H93.317C94.5942 51.1485 95.2565 51.7635 95.2565 52.9461V55.5006C95.2565 56.8252 94.5942 57.4401 93.317 57.4401H62.1899C60.8653 57.4401 60.2031 56.8725 60.2031 55.6425V45.7557C60.2031 44.5257 60.818 43.9107 62.1426 43.9107H88.066V41.9239H62.1426Z" fill="#F7A62C"/>
<path d="M144.188 55.5952C144.188 56.8252 143.526 57.4401 142.249 57.4401H139.174C137.849 57.4401 137.234 56.8252 137.234 55.5952V30.6179H135.437V55.5952C135.437 56.8252 134.774 57.4401 133.45 57.4401H130.422C129.098 57.4401 128.435 56.8252 128.435 55.5952V12.0741C128.435 10.8915 129.05 10.2765 130.28 10.2765H133.639C134.822 10.2765 135.437 10.8915 135.437 12.0268V23.2382H137.234V12.0741C137.234 10.8915 137.802 10.2765 139.032 10.2765H142.343C143.573 10.2765 144.188 10.8441 144.188 11.9795V55.5952ZM108.378 19.1226C108.425 18.413 108.094 18.0346 107.384 18.0346H102.796C101.566 18.0346 100.951 17.4669 100.951 16.237V13.1148C100.951 11.8849 101.519 11.2226 102.701 11.2226H124.273C125.597 11.2226 126.307 12.0741 126.307 13.7298C126.307 32.5101 124.036 46.2287 119.589 54.8383C119.022 55.9264 118.123 56.4467 116.893 56.4467H113.629C112.683 56.4467 112.02 56.2575 111.737 55.8318C111.453 55.4533 111.5 54.8383 111.878 53.9868C116.373 44.5257 118.643 32.9359 118.643 19.1226C118.69 18.413 118.359 18.0346 117.65 18.0346H115.899C115.71 32.2263 113.156 44.5257 108.236 54.8383C107.668 55.9264 106.675 56.4467 105.208 56.4467H102.323C101.613 56.4467 101.14 56.2575 100.856 55.7844C100.572 55.3587 100.714 54.5545 101.329 53.3246C106.06 43.0119 108.378 31.6113 108.378 19.1226ZM184.881 55.8791C184.786 57.0144 184.076 57.5821 182.705 57.5821H179.582C178.069 57.5821 177.312 57.0144 177.312 55.8791V12.2633C177.312 10.9388 178.069 10.2765 179.582 10.2765H182.799C184.171 10.2765 184.881 10.8441 184.881 11.9795V55.8791ZM174.142 53.3246C174.142 54.0814 172.203 54.8383 168.371 55.5479C164.539 56.2575 159.004 56.5886 151.814 56.5413C150.3 56.5413 149.638 55.9737 149.733 54.7437V12.9256C149.733 11.7903 150.442 11.2226 151.956 11.2226H154.936C156.261 11.2699 156.876 11.8376 156.876 12.8783V18.555H166.952V12.8783C166.952 11.743 167.661 11.1753 169.175 11.1753H171.919C173.385 11.2226 174.142 11.7903 174.142 12.8783V53.3246ZM156.828 50.0132C160.187 50.0132 163.546 49.7293 166.904 49.1617V25.0831H156.876L156.828 50.0132Z" fill="#3392FF"/>
</svg>
