<svg width="714" height="328" viewBox="0 0 714 328" fill="none" xmlns="http://www.w3.org/2000/svg">
<path d="M437.138 73.1516C437.29 73.7617 437.01 74.1558 436.349 74.3213L434.214 74.8559C433.605 75.0087 433.23 74.8054 433.078 74.1954L432.781 73.0006C428.828 75.0167 424.572 76.569 419.998 77.7146C419.413 77.861 419.07 77.6768 418.944 77.1684L413.343 54.6716C413.192 54.0616 413.414 53.6547 414.075 53.4892L416.235 52.9483C416.845 52.7955 417.257 53.0432 417.416 53.6787L422.269 73.1759C425.623 72.3358 428.819 70.9682 431.806 69.0859L427.206 50.6055C427.066 50.0463 427.295 49.6648 427.931 49.5057L430.116 48.9584C430.726 48.8056 431.132 49.0279 431.284 49.638L437.138 73.1516ZM438.756 64.2397C437.993 64.4306 437.549 64.1639 437.359 63.4013L436.954 61.7744C436.777 61.0626 437.019 60.624 437.705 60.4521L454.502 56.2451C455.169 56.1051 455.6 56.321 455.752 56.9311L456.189 58.6851C456.379 59.4477 456.112 59.8927 455.451 60.0581L438.756 64.2397ZM456.748 65.2693C457.409 65.1038 457.84 65.3197 457.986 65.9044L458.442 67.7346C458.613 68.421 458.364 68.8342 457.755 68.9869L440.831 73.2258C440.196 73.3849 439.815 73.1562 439.656 72.5207L438.201 66.6741C438.036 66.0132 438.285 65.6 438.971 65.4281L440.927 64.938C441.588 64.7726 442.026 65.0139 442.184 65.6494L442.95 68.7252L456.748 65.2693ZM442.889 45.4893C444.845 44.9992 446.478 44.7253 447.761 44.674C449.044 44.6227 450.098 44.7367 450.904 45.0479C451.717 45.3844 452.326 45.8799 452.764 46.5535C453.208 47.2524 453.55 48.0849 453.79 49.0509C454.025 49.9914 454.1 50.8367 454.017 51.5867C453.94 52.3621 453.603 53.0677 453.03 53.6971C452.433 54.3328 451.556 54.9306 450.393 55.4649C449.23 55.9991 447.655 56.5018 445.723 56.9855C443.894 57.4437 442.369 57.7176 441.118 57.7879C439.841 57.8647 438.813 57.7443 437.987 57.4649C437.162 57.1856 436.508 56.7282 436.026 56.0928C435.55 55.4828 435.22 54.7012 434.986 53.7607C434.746 52.7947 434.658 51.8986 434.779 51.085C434.875 50.2779 435.206 49.5468 435.791 48.8602C436.376 48.1736 437.228 47.5822 438.384 47.0225C439.515 46.4692 441.008 45.9602 442.889 45.4893ZM444.863 53.5284C445.93 53.2611 446.813 53.0129 447.499 52.733C448.192 52.4785 448.719 52.2114 449.107 51.9253C449.495 51.6391 449.743 51.334 449.857 51.0352C449.972 50.7364 449.991 50.3805 449.903 50.0246C449.801 49.6179 449.611 49.2875 449.357 49.027C449.078 48.7729 448.71 48.5951 448.227 48.4999C447.745 48.4047 447.148 48.3922 446.411 48.4688C445.674 48.5453 444.772 48.7172 443.755 48.9718C442.714 49.2328 441.862 49.5 441.202 49.7735C440.515 50.0534 439.994 50.3459 439.638 50.6511C439.257 50.9627 439.015 51.2933 438.913 51.6429C438.786 51.9988 438.798 52.3738 438.9 52.7805C438.988 53.1364 439.147 53.4478 439.362 53.6638C439.578 53.8798 439.915 54.0386 440.366 54.1147C440.816 54.1908 441.382 54.1842 442.112 54.0823C442.849 54.0057 443.745 53.8084 444.863 53.5284ZM466.474 66.7761C465.686 66.9734 465.216 66.7129 465.058 65.9694L464.698 63.44C464.597 62.8172 464.826 62.4358 465.436 62.283L468.028 61.6338C468.638 61.4811 469.089 61.7733 469.323 62.4977L470.09 64.7092C470.286 65.4972 469.917 65.9677 469.015 66.1396L466.474 66.7761ZM471.052 47.428C471.545 49.4108 471.042 51.2922 469.554 53.0151C468.073 54.7634 467.398 55.8505 467.512 56.308L468.126 58.7738C468.322 59.5618 468.068 60.0576 467.356 60.2358L465.196 60.7768C464.536 60.9423 464.123 60.6946 463.933 60.04L463.155 56.9134C462.92 55.9728 463.557 54.6252 465.121 52.8832C466.685 51.1412 467.315 49.6602 467.011 48.44C466.265 45.4404 464.748 44.2271 462.512 44.7871C460.275 45.3472 459.417 46.6695 459.936 48.7539C460.113 49.4657 459.871 49.9043 459.236 50.0634L457.279 50.5535C456.669 50.7063 456.307 50.4458 456.137 49.7595C454.922 44.9869 456.633 41.9928 461.258 40.8344C466.264 39.5806 469.532 41.7594 471.052 47.428Z" fill="#92B9F2"/>
<path d="M589.871 95.7084C589.465 96.6258 588.834 96.8938 588.039 96.5398L585.687 95.4913C584.832 95.1101 584.594 94.4914 584.987 93.6046L597.45 65.4729C597.761 64.7696 598.291 64.566 599.054 64.9064L601.59 66.0366C602.384 66.3906 602.618 66.9345 602.293 67.6684L589.871 95.7084ZM588.029 66.8392C588.232 66.3806 588.096 66.027 587.607 65.8092L579.451 62.1737C578.718 61.8469 578.558 61.2996 578.924 60.474L579.75 58.6087C580.13 57.7525 580.699 57.4573 581.494 57.8113L594.079 63.4211C594.965 63.816 595.179 64.5706 594.705 65.6408C589.253 78.1133 582.107 85.6566 573.253 88.3013C572.504 88.5896 571.57 88.4666 570.471 87.9764L568.73 87.2003C568.058 86.9007 567.742 86.5403 567.796 86.0883C567.85 85.6363 568.311 85.256 569.165 84.9779C577.717 82.2719 584.019 76.22 588.029 66.8392ZM616.997 90.7731L613.301 89.1255C612.793 89.7777 612.247 90.2667 611.575 90.6265C610.904 90.9863 610.225 91.1965 609.452 91.2911C608.678 91.3857 607.867 91.3172 607.022 91.1603C606.177 91.0033 605.326 90.6968 604.47 90.3156C603.034 89.6756 601.924 88.9611 601.154 88.1415C600.369 87.3525 599.863 86.4311 599.652 85.4216C599.41 84.3984 599.433 83.2735 599.703 82.0026C599.96 80.7623 600.434 79.3624 601.111 77.8335C601.843 76.1823 602.615 74.769 603.415 73.6242C604.215 72.4794 605.073 71.6168 606.063 71.0329C607.009 70.466 608.074 70.2085 609.241 70.2161C610.408 70.2237 611.756 70.568 613.283 71.2488C614.077 71.6028 614.831 72.0485 615.51 72.4976C616.175 72.9773 616.708 73.5079 617.153 74.0724C617.598 74.6368 617.897 75.2828 618.078 75.9491C618.245 76.6459 618.248 77.38 618.12 78.165L621.847 79.8262L623.147 76.8907C623.459 76.1874 624.019 75.9974 624.813 76.3515L627.379 77.4952C628.143 77.8356 628.377 78.3796 628.066 79.0829L620.534 96.0842C620.208 96.8181 619.618 96.9944 618.793 96.6268L616.35 95.5375C615.525 95.1698 615.29 94.6259 615.643 93.8309L616.997 90.7731ZM596.419 94.1231C595.624 93.7691 595.407 93.2694 595.718 92.5661L596.653 90.4562C596.992 89.6917 597.534 89.4576 598.268 89.7844L618.032 98.594C618.795 98.9344 619.03 99.4784 618.718 100.182L615.481 107.49C615.155 108.224 614.64 108.397 613.907 108.07L611.31 106.912C610.577 106.586 610.36 106.086 610.685 105.352L612.486 101.285L596.419 94.1231ZM611.803 82.5991C612.67 80.6421 613.106 79.0791 613.126 77.8794C613.131 76.7102 612.598 75.85 611.468 75.3462C610.246 74.8016 609.191 74.9538 608.33 75.7416C607.455 76.5601 606.56 77.9189 605.693 79.8759C604.935 81.5883 604.593 82.9373 604.686 83.9671C604.734 85.0139 605.383 85.7791 606.605 86.3237C607.735 86.8275 608.675 86.7704 609.482 86.1048C610.258 85.4257 611.027 84.2673 611.803 82.5991ZM616.385 84.6415C616.304 84.825 616.205 84.9643 616.138 85.1172L618.948 86.3698L619.896 84.2294L617.086 82.9767C616.991 83.1907 616.94 83.3878 616.859 83.5713L616.385 84.6415ZM624.376 112.7C623.429 112.278 623.16 111.645 623.584 110.772L625.203 107.942C625.59 107.236 626.119 107.032 626.852 107.359L629.968 108.748C630.701 109.075 630.925 109.724 630.594 110.638L629.632 113.468C629.212 114.416 628.473 114.599 627.431 114.061L624.376 112.7ZM644.137 96.8287C643.08 99.2137 641.1 100.711 638.254 101.273C635.394 101.866 633.864 102.429 633.621 102.98L632.307 105.946C631.887 106.893 631.242 107.192 630.387 106.811L627.79 105.654C626.996 105.299 626.775 104.725 627.097 103.916L628.763 100.155C629.264 99.0238 630.96 98.1686 633.898 97.6473C636.836 97.126 638.63 96.1314 639.28 94.6637C640.879 91.0555 640.303 88.6387 637.615 87.4405C634.927 86.2422 633.027 86.8968 631.917 89.4042C631.537 90.2604 630.95 90.5115 630.187 90.1711L627.835 89.1226C627.101 88.7959 626.942 88.2486 627.307 87.423C629.824 81.6607 633.89 79.9948 639.45 82.473C645.468 85.1553 647.049 89.9247 644.137 96.8287Z" fill="#92B9F2"/>
<ellipse cx="507.875" cy="263.805" rx="78" ry="9.02752" fill="#1965D2"/>
<path d="M420.238 186.706C417.524 189.061 419.35 193.515 422.931 193.274L441.508 192.02L438.484 170.878L420.238 186.706Z" fill="#BFD6F7"/>
<path d="M586.782 159.852C587.834 158.211 586.545 156.078 584.608 156.254L563.746 158.155L571.884 183.082L586.782 159.852Z" fill="#BFD6F7"/>
<path d="M493.134 95.1051C491.896 93.5982 489.466 94.1805 489.042 96.0854L484.48 116.579L510.629 116.416L493.134 95.1051Z" fill="#98887F"/>
<path d="M573.629 188.243C573.629 231.794 542.623 249.966 504.374 249.966C466.125 249.966 435.119 231.794 435.119 188.243C435.119 144.693 466.125 109.389 504.374 109.389C542.623 109.389 573.629 144.693 573.629 188.243Z" fill="#BFD6F7"/>
<ellipse cx="489.867" cy="146.706" rx="3.27559" ry="3.5203" fill="#6C6C6C"/>
<ellipse cx="525.431" cy="142.948" rx="3.27559" ry="3.5203" fill="#6C6C6C"/>
<path d="M517.484 154.965C517.939 159.739 513.327 160.551 510.754 160.798C508.182 161.045 502.335 161.237 501.879 156.463C501.424 151.689 507.513 154.036 510.085 153.789C512.658 153.542 517.028 150.191 517.484 154.965Z" fill="#F2A3A3"/>
<path d="M560.292 211.246C560.292 229.262 535.259 243.632 509.286 243.632C483.313 243.632 455.941 237.241 455.941 219.225C455.941 201.209 488.227 174.869 514.2 174.869C540.173 174.869 560.292 193.229 560.292 211.246Z" fill="#E6E6E6"/>
<rect width="23.4558" height="7.41511" transform="matrix(0.987016 0.160622 -0.15967 0.987171 579.627 154.354)" fill="#F9BC5F"/>
<rect width="16.1087" height="7.39366" transform="matrix(0.15967 -0.987171 0.987016 0.160622 591.725 180.156)" fill="#F9BC5F"/>
<rect width="23.469" height="7.41096" transform="matrix(-0.888529 0.45882 -0.456611 -0.889667 426.463 191.324)" fill="#2AD4AF"/>
<rect width="16.0997" height="7.39783" transform="matrix(0.456611 0.889667 -0.888529 0.45882 401.449 177.781)" fill="#2AD4AF"/>
<ellipse cx="15.3819" cy="5.85136" rx="15.3819" ry="5.85136" transform="matrix(0.986011 0.166681 -0.165694 0.986177 455.154 246.801)" fill="#BFD6F7"/>
<ellipse cx="15.3861" cy="5.84977" rx="15.3861" ry="5.84977" transform="matrix(0.939475 -0.342618 0.340775 0.940145 546.56 243.514)" fill="#BFD6F7"/>
<ellipse cx="64.5208" cy="8.60272" rx="64.5208" ry="8.60272" transform="matrix(0.999867 -0.0162727 0.0124986 0.999922 559.063 287.725)" fill="#1965D2"/>
<ellipse cx="39.5962" cy="4.98751" rx="39.5962" ry="4.98751" transform="matrix(0.94659 0.32244 -0.253099 0.96744 615.912 263.805)" fill="#1965D2"/>
<path d="M625.233 293.302C628.143 288.939 626.35 284.072 625.089 282.184L569.165 282.491C569.165 282.491 566.499 286.713 566.62 289.695C566.727 292.318 569.072 295.952 569.072 295.952L625.233 293.302Z" fill="#855205"/>
<path d="M648.704 273.941C648.704 273.941 636.332 269.216 618.803 262.055C692.473 279.106 683.187 289.018 675.364 289.84C662.684 289.997 648.891 290.269 625.459 290.724L620.907 284.83C633.8 283 652.475 285.453 663.511 282.152C667.797 280.87 648.704 273.941 648.704 273.941Z" fill="#CFCFCE"/>
</svg>
