<svg width="714" height="328" viewBox="0 0 714 328" fill="none" xmlns="http://www.w3.org/2000/svg">
<rect x="594.898" y="113.688" width="94.5634" height="136.483" rx="2.4372" transform="rotate(5.19256 594.898 113.688)" fill="white" stroke="#4647AD" stroke-width="2.92464"/>
<path d="M515.808 94.8735C516.05 92.4565 518.419 90.8462 520.755 91.5107L595.472 112.761L582.899 251.113L504.495 251.113C502.188 251.113 500.386 249.122 500.615 246.826L515.808 94.8735Z" fill="#363889"/>
<rect x="602.048" y="121.192" width="78.9653" height="122.835" rx="3.41208" transform="rotate(5.19256 602.048 121.192)" stroke="#DFA54D" stroke-width="0.974881"/>
<path d="M632.506 149.343C632.469 149.751 632.219 149.934 631.784 149.894L623.099 149.105C622.732 149.071 622.567 148.919 622.594 148.62L622.986 144.312C623.016 143.985 623.234 143.841 623.642 143.878L624.512 143.957C624.893 143.992 625.082 144.173 625.052 144.499L624.995 145.125L630.704 145.643L630.761 145.018C630.79 144.692 630.982 144.545 631.363 144.58L632.328 144.667C632.722 144.703 632.912 144.871 632.887 145.143L632.506 149.343ZM630.562 147.207L624.853 146.688L624.777 147.531L630.485 148.049L630.562 147.207ZM633.798 139.196C634.07 139.22 634.206 139.383 634.179 139.683L634.066 140.919C634.039 141.218 633.891 141.342 633.619 141.317L632.79 141.242L632.574 143.621C632.545 143.933 632.368 144.068 632.042 144.038L630.819 143.927C630.506 143.899 630.372 143.722 630.401 143.396L631.018 136.613C631.045 136.314 631.223 136.166 631.549 136.196L632.718 136.302C633.058 136.333 633.22 136.512 633.192 136.811L632.982 139.122L633.798 139.196ZM626.144 143.639C623.997 143.444 622.997 142.531 623.147 140.886C623.197 140.329 623.408 139.814 623.78 139.341L623.509 139.316C623.264 139.294 623.158 139.106 623.19 138.752L623.274 137.828C623.306 137.475 623.459 137.297 623.758 137.324L629.671 137.861C630.011 137.892 630.172 138.071 630.144 138.384L630.049 139.431C630.019 139.757 629.829 139.89 629.503 139.861L629.34 139.846C629.542 140.33 629.616 140.871 629.562 141.469C629.414 143.101 628.265 143.832 626.144 143.639ZM624.88 137.042C624.567 137.014 624.433 136.837 624.462 136.511L624.525 135.818C624.555 135.491 624.733 135.343 625.086 135.375L628.797 135.712C629.096 135.74 629.246 135.904 629.218 136.203L629.152 136.937C629.122 137.263 628.944 137.412 628.618 137.382L624.88 137.042ZM626.567 139.594C625.724 139.517 625.272 139.969 625.184 140.935C625.124 141.601 625.502 141.964 626.344 142.04C627.106 142.11 627.516 141.818 627.576 141.152C627.664 140.187 627.328 139.663 626.567 139.594ZM641.465 137.987C641.388 138.378 641.313 138.755 641.226 139.103L642.844 139.25L642.982 137.728C643.012 137.402 643.19 137.253 643.543 137.286L644.671 137.388C645.025 137.42 645.201 137.587 645.174 137.886L644.491 145.403C644.459 145.756 644.254 145.902 643.887 145.868L642.813 145.771C642.432 145.736 642.272 145.543 642.304 145.19L642.426 143.844L639.3 143.56C638.895 144.099 638.445 144.524 637.951 144.836C637.58 145.145 637.171 145.272 636.722 145.231L635.717 145.14C635.431 145.114 635.261 145.03 635.219 144.889C635.163 144.747 635.261 144.577 635.495 144.407C637.36 143.041 638.442 141.386 638.73 139.425C638.751 139.194 638.654 139.061 638.436 139.042L635.65 138.788C635.323 138.759 635.187 138.596 635.217 138.269L635.306 137.291C635.334 136.978 635.499 136.829 635.825 136.858L641.058 137.334C641.384 137.363 641.529 137.582 641.465 137.987ZM635.031 147.859C634.705 147.83 634.555 147.665 634.585 147.339L634.669 146.415C634.698 146.089 634.876 145.94 635.203 145.97L643.82 146.753C644.173 146.785 644.335 146.964 644.307 147.277L644.014 150.498C643.985 150.825 643.793 150.972 643.453 150.941L642.366 150.842C642.012 150.81 641.851 150.631 641.88 150.305L642.044 148.497L635.031 147.859ZM640.638 141.051C640.55 141.262 640.463 141.473 640.391 141.659L642.606 141.86L642.663 141.235L640.638 141.051ZM656.105 138.4C656.459 138.432 656.62 138.625 656.587 138.978L656.519 139.726C656.485 140.106 656.265 140.264 655.871 140.229L654.063 140.064C655.533 140.773 656.201 141.876 656.067 143.344C656.038 143.67 655.861 143.805 655.535 143.775L654.325 143.665C653.972 143.633 653.823 143.455 653.867 143.13C654.037 141.706 652.941 140.798 650.591 140.42C650.089 141.416 649.48 142.238 648.752 142.857C648.488 143.052 648.22 143.138 647.934 143.112L646.466 142.978C646.344 142.967 646.266 142.919 646.22 142.819C646.173 142.732 646.225 142.614 646.374 142.49C647.435 141.668 648.195 140.696 648.68 139.575L646.9 139.413C646.56 139.382 646.412 139.204 646.443 138.865L646.516 138.063C646.548 137.709 646.727 137.547 647.067 137.578L656.105 138.4ZM655.56 144.408C655.913 144.44 656.086 144.647 656.051 145.028L655.972 145.898C655.943 146.224 655.766 146.359 655.453 146.33L646.374 145.505C646.007 145.472 645.845 145.293 645.874 144.966L645.956 144.069C645.988 143.716 646.167 143.554 646.521 143.586L655.56 144.408ZM650.808 146.47C654.179 146.776 655.798 147.814 655.639 149.568C655.483 151.28 653.708 151.969 650.337 151.662C646.979 151.357 645.384 150.363 645.54 148.65C645.699 146.897 647.451 146.165 650.808 146.47ZM650.487 150.004C652.458 150.183 653.478 149.974 653.532 149.376C653.59 148.737 652.627 148.321 650.657 148.142C648.699 147.964 647.705 148.203 647.646 148.841C647.592 149.439 648.53 149.826 650.487 150.004Z" fill="#1C1C1C"/>
<path d="M669.215 119.951L688.632 121.716L686.868 141.133L678.041 130.542L669.215 119.951Z" fill="#4647AD"/>
<path d="M602.405 251.906L582.988 250.142L584.752 230.724L593.579 241.315L602.405 251.906Z" fill="#4647AD"/>
<path d="M614.846 115.012L595.428 113.247L593.664 132.665L604.255 123.838L614.846 115.012Z" fill="#4647AD"/>
<path d="M657.833 255.963L677.251 257.727L679.016 238.31L668.425 247.136L657.833 255.963Z" fill="#4647AD"/>
<rect x="641.151" y="224.1" width="11.6986" height="11.6986" rx="0.974881" transform="rotate(5.19256 641.151 224.1)" fill="#FCDEDE" stroke="#F48181" stroke-width="1.94976"/>
<path d="M618.041 227.979C617.847 227.961 617.762 227.859 617.781 227.658L617.826 227.16C617.843 226.966 617.946 226.874 618.132 226.891L623.29 227.359C623.507 227.379 623.606 227.498 623.587 227.707L623.546 228.158C623.526 228.375 623.408 228.467 623.206 228.448L618.041 227.979ZM623.605 224.663C623.768 224.678 623.844 224.794 623.824 225.012C623.751 225.819 623.57 226.429 623.29 226.842C623.188 227.013 623.04 227.086 622.846 227.068L622.232 227.013C622.116 227.002 622.048 226.972 622.022 226.915C621.996 226.858 622.019 226.782 622.075 226.677C622.252 226.372 622.37 226.101 622.422 225.871C622.449 225.748 622.401 225.673 622.277 225.662L618.261 225.297C618.09 225.281 618.013 225.188 618.029 225.01L618.081 224.435C618.098 224.256 618.191 224.171 618.362 224.186L623.605 224.663ZM617.944 229.387C617.727 229.368 617.635 229.258 617.654 229.048L617.693 228.621C617.711 228.426 617.821 228.335 618.038 228.354L623.134 228.817C623.359 228.838 623.466 228.949 623.448 229.144L623.303 230.744C623.284 230.953 623.158 231.044 622.941 231.024L618.708 230.639L618.677 230.981L622.925 231.367C623.135 231.386 623.235 231.497 623.217 231.691L623.179 232.111C623.159 232.328 623.041 232.419 622.831 232.4L617.721 231.936C617.503 231.916 617.403 231.813 617.421 231.611L617.569 229.988C617.587 229.786 617.697 229.694 617.915 229.714L622.171 230.1L622.201 229.774L617.944 229.387ZM631.056 232.842C631.038 233.044 630.92 233.135 630.71 233.116L630.205 233.07C629.988 233.051 629.896 232.94 629.914 232.738L630.287 228.637L629.992 228.611L629.619 232.712C629.601 232.914 629.483 233.005 629.265 232.985L628.768 232.94C628.551 232.92 628.451 232.809 628.47 232.607L629.119 225.461C629.137 225.267 629.247 225.175 629.449 225.194L630 225.244C630.194 225.262 630.286 225.372 630.269 225.558L630.102 227.399L630.397 227.426L630.564 225.593C630.581 225.399 630.684 225.306 630.886 225.324L631.429 225.374C631.631 225.392 631.724 225.495 631.707 225.681L631.056 232.842ZM625.721 226.319C625.739 226.204 625.69 226.137 625.574 226.126L624.82 226.058C624.618 226.039 624.526 225.937 624.544 225.735L624.591 225.222C624.609 225.02 624.712 224.92 624.906 224.938L628.448 225.26C628.666 225.279 628.77 225.43 628.745 225.702C628.465 228.785 627.887 231.004 627.029 232.351C626.919 232.521 626.764 232.593 626.562 232.575L626.026 232.526C625.871 232.512 625.765 232.471 625.724 232.397C625.683 232.33 625.7 232.23 625.775 232.096C626.654 230.61 627.2 228.741 627.406 226.473C627.424 226.357 627.376 226.29 627.259 226.279L626.972 226.253C626.729 228.58 626.126 230.562 625.164 232.181C625.055 232.352 624.884 232.422 624.643 232.4L624.17 232.357C624.053 232.347 623.978 232.309 623.939 232.227C623.898 232.153 623.934 232.023 624.053 231.83C624.984 230.207 625.534 228.37 625.721 226.319ZM637.578 233.482C637.545 233.667 637.42 233.749 637.195 233.729L636.682 233.682C636.434 233.66 636.318 233.555 636.335 233.369L636.986 226.208C637.006 225.99 637.14 225.893 637.388 225.915L637.916 225.963C638.142 225.984 638.25 226.088 638.233 226.274L637.578 233.482ZM635.853 232.902C635.841 233.026 635.512 233.122 634.872 233.181C634.232 233.24 633.319 233.212 632.139 233.097C631.89 233.075 631.79 232.972 631.824 232.771L632.448 225.905C632.465 225.719 632.59 225.636 632.838 225.658L633.328 225.703C633.544 225.73 633.637 225.833 633.621 226.004L633.537 226.936L635.191 227.086L635.276 226.154C635.293 225.968 635.418 225.885 635.666 225.908L636.117 225.949C636.357 225.978 636.472 226.083 636.456 226.261L635.853 232.902ZM633.059 232.1C633.611 232.15 634.167 232.154 634.727 232.111L635.086 228.157L633.439 228.008L633.059 232.1ZM644.472 226.841C644.659 226.858 644.744 226.96 644.728 227.131L644.68 227.659C644.661 227.868 644.551 227.96 644.357 227.943L641.662 227.698C641.644 227.806 641.627 227.906 641.618 227.999C643.575 228.271 644.451 229.666 644.245 232.193C644.228 232.379 644.126 232.464 643.955 232.448L643.202 232.38C643.007 232.362 642.923 232.26 642.94 232.074C643.062 230.292 642.542 229.297 641.371 229.081C641.053 230.172 640.578 231.092 639.954 231.842C639.815 231.994 639.644 232.056 639.427 232.037L638.635 231.965C638.541 231.956 638.482 231.919 638.457 231.854C638.431 231.79 638.461 231.722 638.53 231.65C639.568 230.569 640.177 229.215 640.364 227.58L639.168 227.471C638.982 227.454 638.897 227.352 638.916 227.15L638.964 226.615C638.98 226.436 639.082 226.351 639.269 226.368L641.195 226.543L641.219 226.271C641.257 226.118 641.358 226.041 641.529 226.057L642.321 226.129C642.476 226.143 642.531 226.234 642.493 226.387L642.469 226.659L644.472 226.841ZM640.822 231.333C640.833 231.123 640.944 231.023 641.154 231.042L641.799 231.101C641.985 231.118 642.069 231.227 642.051 231.429L641.926 232.796L643.876 232.973C644.093 232.993 644.192 233.112 644.174 233.314L644.122 233.881C644.106 234.067 644.003 234.16 643.817 234.143L638.636 233.672C638.426 233.653 638.335 233.535 638.355 233.318L638.401 232.813C638.421 232.595 638.54 232.489 638.765 232.509L640.699 232.685L640.822 231.333Z" fill="#1C1C1C"/>
<path d="M619.703 201.596L622.376 194.17M641.504 209.451L638.646 195.719M638.646 195.719C637.533 191.12 633.781 173.159 632.273 172.536C630.765 171.913 622.376 194.17 622.376 194.17M638.646 195.719L622.376 194.17" stroke="#EF5252" stroke-width="4.8744" stroke-linecap="round"/>
<path d="M639.608 173.459L655.762 174.228" stroke="#EF5252" stroke-width="4.8744" stroke-linecap="round"/>
<path d="M648.766 165.76L647.692 182.934" stroke="#EF5252" stroke-width="4.8744" stroke-linecap="round"/>
<path d="M661.583 187.782C660.288 202.032 647.903 212.48 634.002 211.217C620.1 209.953 609.802 197.444 611.097 183.194C612.392 168.945 624.776 158.497 638.678 159.76C652.58 161.023 662.878 173.533 661.583 187.782Z" stroke="#EF5252" stroke-width="4.8744"/>
<path d="M410.604 270.292C415.989 219.699 441.812 208.704 454.051 209.531C488.93 226.891 530.541 218.211 553.794 216.971C558.69 224.411 570.316 244.251 573.376 259.132C576.435 274.012 564.197 280.832 555.63 282.072C547.063 283.312 538.496 279.592 538.496 278.972C534.58 300.797 540.128 320.72 543.391 327.953H412.44C410.604 319.066 407.667 295.092 410.604 270.292Z" fill="#C08E73"/>
<path d="M464.602 297.653C455.301 295.669 446.856 282.36 443.797 275.953C442.573 272.233 448.284 271.614 449.304 274.713C449.916 276.573 452.119 281.409 456.035 285.873L456.056 285.897C460.941 291.466 464.79 295.853 482.96 293.314C500.706 290.834 523.347 281.533 534.361 275.953C535.226 276.829 536.823 278.358 537.29 278.502C537.334 278.479 537.377 278.456 537.421 278.433C537.421 278.508 537.374 278.527 537.29 278.502C503.085 296.423 476.214 300.13 464.602 297.653Z" fill="#98704A"/>
<path d="M486.449 251.546C487.582 235.03 476.242 219.051 471.774 216.931L458.311 209.491L448.521 210.728C476.689 212.89 479.729 240.488 482.79 251.847C483.371 254.004 486.321 253.422 486.449 251.546Z" fill="#98704A"/>
<path d="M457.987 103.365L446.973 121.345L442.077 119.485C438.61 120.105 430.94 123.825 428.003 133.745C425.066 143.665 414.949 154.412 410.257 158.546C406.382 161.852 397.407 166.978 392.512 161.026C387.616 155.073 395.775 145.319 400.467 141.185C406.382 129.198 421.639 102.745 435.346 92.8248C449.053 82.9046 456.152 95.7182 457.987 103.365Z" fill="#4F3D2C"/>
<path d="M549.394 85.2237C533.729 78.7755 528.18 87.9104 527.365 93.2838C526.345 99.0704 526.141 108.66 533.484 100.723C540.827 92.7873 548.374 100.723 551.23 105.684C552.249 112.917 555.024 128.252 557.961 131.724C561.632 136.064 562.856 137.924 571.423 139.784C578.277 141.272 579.174 135.031 578.766 131.724C578.358 130.484 576.319 127.384 571.423 124.904C566.528 122.424 565.304 117.257 565.304 114.984C561.877 95.1433 553.269 86.8769 549.394 85.2237Z" fill="#4F3D2C"/>
<path d="M433.953 149.826C439.338 117.585 463.121 95.0582 474.34 87.8247C483.315 83.6913 505.548 78.4005 522.682 90.3048C539.816 102.209 544.099 140.392 544.099 157.995C547.508 157.967 551.378 158.293 555.726 159.126C573.839 162.598 578.775 177.107 578.979 183.927C579.183 190.333 577.51 204.759 569.188 211.207C558.786 219.267 527.577 224.848 495.145 226.088C469.2 227.08 452.515 216.581 447.415 211.207C440.684 204.18 428.568 182.067 433.953 149.826Z" fill="#C08E73"/>
<path d="M517.117 130.468C515.236 130.335 512.366 130.335 509.81 130.779C508.527 131.002 507.268 131.346 506.241 131.876C505.221 132.403 504.306 133.18 503.954 134.325C503.754 134.974 503.826 135.615 504.171 136.172C504.491 136.687 504.994 137.048 505.512 137.309C506.544 137.829 507.993 138.128 509.515 138.304C512.575 138.659 516.363 138.559 518.933 138.361C520.998 138.426 524.053 138.365 526.566 137.962C527.82 137.761 529.028 137.461 529.916 136.998C530.362 136.765 530.797 136.456 531.1 136.031C531.425 135.576 531.57 135.024 531.455 134.428C531.233 133.276 530.165 132.584 529.188 132.155C528.135 131.692 526.783 131.359 525.373 131.116C522.556 130.63 519.285 130.47 517.117 130.468Z" fill="white" stroke="#98704A" stroke-width="1.94976"/>
<path d="M473.051 130.452C471.18 130.346 468.323 130.346 465.784 130.699C464.512 130.876 463.269 131.148 462.257 131.566C461.282 131.969 460.308 132.595 459.916 133.613C459.673 134.246 459.772 134.883 460.17 135.397C460.514 135.84 461.03 136.128 461.527 136.328C462.538 136.735 463.964 136.972 465.478 137.113C468.525 137.395 472.306 137.315 474.87 137.157C476.928 137.209 479.976 137.16 482.477 136.839C483.722 136.68 484.911 136.443 485.781 136.08C486.211 135.9 486.654 135.654 486.975 135.294C487.333 134.893 487.534 134.348 487.387 133.735C487.248 133.16 486.851 132.754 486.463 132.478C486.067 132.195 485.578 131.973 485.06 131.791C484.022 131.426 482.685 131.162 481.282 130.969C478.475 130.582 475.212 130.453 473.051 130.452Z" fill="white" stroke="#98704A" stroke-width="1.94976"/>
<path d="M536.506 173.21C536.45 167.555 543.351 167.122 546.809 167.612C559.618 168.96 556.227 176.832 552.21 177.69C548.63 179.303 536.563 178.865 536.506 173.21Z" fill="#050505"/>
<path d="M455.253 105.947C454.522 95.8329 453.358 86.3733 452.723 78.8341L393.448 60.0657L491.968 32.7852L589.876 58.2057L534.847 78.3841C536.262 91.237 534.191 105.543 534.191 105.947C527.46 102.227 522.564 96.0263 491.968 96.0263C461.372 96.0263 455.253 104.707 455.253 105.947Z" fill="#1C1C1C"/>
<path d="M454.641 99.7453C452.805 78.0449 450.201 67.7035 453.057 62.9501C480.471 48.5658 514.657 55.7166 528.323 61.0901C536.028 69.3647 535.415 91.0651 535.415 91.0651C528.684 87.3451 525.013 80.5249 494.417 80.5249C463.821 80.5249 454.641 99.7453 454.641 99.7453Z" fill="#303030"/>
<path d="M393.448 56.9642V60.0642L491.968 32.7837L589.876 58.2042V55.1041L491.968 29.6836L393.448 56.9642Z" fill="#424242"/>
<path d="M422.209 47.0445C422.699 45.5565 433.224 44.7711 438.119 44.5645L424.657 48.2845L424.045 96.0255H421.597C421.597 80.3185 421.72 48.5325 422.209 47.0445Z" fill="#FFB440"/>
<path d="M420.373 96.6118C420.373 95.2599 421.469 94.1641 422.821 94.1641V94.1641C424.173 94.1641 425.268 95.2599 425.268 96.6118V102.844H420.373V96.6118Z" fill="#FFB440"/>
<path d="M416.701 109.046L420.373 102.846H425.268L428.94 109.046C428.94 109.046 424.958 110.286 422.82 110.286C420.683 110.286 416.701 109.046 416.701 109.046Z" fill="#FFB440"/>
<path d="M467.45 181.419C467.021 181.108 466.422 181.198 466.102 181.621C465.782 182.043 465.858 182.644 466.274 182.973C469.559 185.574 475.192 189.753 481.427 193.536C487.635 197.303 494.547 200.744 500.366 201.769C506.089 202.778 509.698 202.197 511.858 200.826C514.079 199.417 514.607 197.274 514.347 195.691C514.265 195.193 513.817 194.84 513.313 194.877C493.557 196.342 474.487 186.512 467.45 181.419Z" fill="#FF9191" stroke="#98704A" stroke-width="1.94976" stroke-linejoin="round"/>
<path d="M474.457 177.365C466.91 172.612 453.896 168.437 462.218 189.765" stroke="#98704A" stroke-width="1.94976" stroke-linecap="round"/>
<ellipse cx="1.22385" cy="1.24003" rx="1.22385" ry="1.24003" transform="matrix(-1 0 0 1 518.28 132.605)" fill="#4F3D2C"/>
<ellipse cx="1.22385" cy="1.24003" rx="1.22385" ry="1.24003" transform="matrix(-1 0 0 1 474.221 132.605)" fill="#4F3D2C"/>
<path d="M509.101 122.207H521.951" stroke="#4F3D2C" stroke-width="1.94976" stroke-linecap="round"/>
<path d="M479.117 116.626C479.525 107.739 477.159 94.8014 464.431 114.146" stroke="#4F3D2C" stroke-width="1.94976" stroke-linecap="round"/>
<path d="M515.637 262.447C508.783 254.015 496.463 252.734 491.16 253.147C489.936 253.242 489.079 250.419 492.995 249.427C497.891 248.187 512.577 251.287 520.532 261.207C526.896 269.143 535.422 276.501 538.89 279.187C537.054 278.567 524.203 272.987 515.637 262.447Z" fill="#98704A"/>
<path d="M504.87 233.469C496.115 234.558 490.443 240.222 488.701 242.918C486.547 246.25 489.712 247.423 491.442 245.648C493.172 243.874 495.396 239.634 503.069 236.968C512.661 233.635 528.971 241.974 537.949 242.918C541.835 243.326 540.396 240.067 540.396 240.067C539.847 239.611 538.561 239.447 533.642 238.371C528.638 237.277 515.813 232.107 504.87 233.469Z" fill="#98704A"/>
<path d="M519.659 167.536C519.439 168.127 519.739 168.783 520.329 169C520.919 169.218 521.575 168.915 521.794 168.324L519.659 167.536ZM542.863 159.161L543.997 159.052L543.786 156.781L542.652 156.891L542.863 159.161ZM521.794 168.324C522.38 166.745 524.351 164.751 527.975 162.974C531.546 161.223 536.545 159.772 542.863 159.161L542.652 156.891C536.118 157.522 530.842 159.031 526.979 160.926C523.17 162.794 520.551 165.131 519.659 167.536L521.794 168.324Z" fill="#98704A"/>
<path d="M448.518 213.449C460.838 223.256 496.902 236.245 552.343 220.761" stroke="#98704A" stroke-width="3.89952" stroke-linecap="round"/>
</svg>
