<svg width="714" height="328" viewBox="0 0 714 328" fill="none" xmlns="http://www.w3.org/2000/svg">
<g clip-path="url(#clip0_2779_8263)">
<path d="M584.125 147.013C587.836 136.845 591.786 128.951 595.975 123.33C600.274 117.657 604.881 113.552 609.795 111.016C614.739 108.399 620.867 106.295 628.181 104.705C642.808 101.523 652.11 94.3482 656.085 83.1804C657.843 78.2439 658.21 73.4967 657.189 68.9387C656.277 64.3285 654.158 60.2917 650.831 56.8282C647.586 53.3935 643.536 50.8119 638.68 49.0834C634.148 47.4702 629.554 46.9289 624.897 47.4596C620.269 47.9093 615.969 49.6155 611.997 52.5781C608.105 55.5695 604.935 59.8661 602.485 65.4678L576.265 56.1342C580.132 46.2955 585.694 38.6104 592.952 33.0788C600.319 27.4951 608.631 24.2535 617.886 23.3541C627.142 22.4546 636.666 23.7477 646.458 27.2334C656.817 30.9208 665.256 36.1587 671.775 42.9472C678.404 49.6836 682.65 57.3499 684.514 65.946C686.459 74.571 685.803 83.4558 682.548 92.6004C679.206 101.988 674.207 109.372 667.55 114.753C660.922 120.052 652.684 123.73 642.834 125.786C636.75 126.994 631.676 128.698 627.61 130.898C623.626 133.127 620.113 136.208 617.072 140.14C614.111 144.101 611.384 149.33 608.888 155.828L608.37 157.285L583.607 148.469L584.125 147.013ZM578.292 205.663C575.217 204.568 572.577 202.762 570.373 200.245C568.25 197.757 566.895 194.904 566.308 191.686C565.721 188.468 566.015 185.336 567.191 182.289C568.205 179.185 569.956 176.572 572.444 174.449C574.932 172.325 577.785 170.97 581.003 170.383C584.302 169.825 587.489 170.094 590.564 171.188C593.558 172.254 596.117 174.031 598.24 176.519C600.364 179.008 601.719 181.861 602.306 185.079C602.973 188.325 602.76 191.486 601.665 194.561C600.571 197.637 598.739 200.221 596.17 202.316C593.681 204.439 590.828 205.794 587.61 206.381C584.392 206.968 581.286 206.729 578.292 205.663Z" fill="#1965D2"/>
<rect x="447" y="83" width="219" height="56" rx="28" fill="#649CED"/>
<path d="M664.061 137.97C659.254 136.214 655.514 131.531 654.98 127.785L638.955 138.672C648.837 138.321 669.654 140.013 664.061 137.97Z" fill="#649CED"/>
<path d="M479.544 102.564C479.88 102.372 480.168 102.5 480.424 102.948C480.504 103.108 480.424 103.284 480.2 103.492C479.96 103.716 479.8 103.924 479.72 104.148C479.624 104.372 479.704 104.484 479.944 104.484C480.52 104.484 480.84 104.884 480.904 105.716C480.968 106.772 480.456 107.284 479.384 107.284C478.232 107.284 477.688 106.58 477.768 105.172C477.848 104.036 478.44 103.172 479.544 102.564ZM489.4 117.732C489.4 118.148 489.192 118.356 488.808 118.356H487.32C486.936 118.356 486.76 118.148 486.76 117.7V115.444H482.904C482.472 115.444 482.264 115.236 482.264 114.788V113.668C482.264 113.22 482.488 112.98 482.968 112.98H493.336C493.784 112.98 494.024 113.204 494.024 113.652V114.788C494.024 115.236 493.784 115.444 493.304 115.444H489.4V117.732ZM494.024 107.204C494.024 110.596 492.056 112.292 488.136 112.292C484.216 112.292 482.264 110.596 482.264 107.204C482.264 103.908 484.264 102.244 488.264 102.244C492.104 102.244 494.024 103.908 494.024 107.204ZM488.12 110.004C490.328 110.004 491.432 109.124 491.432 107.348C491.432 105.492 490.376 104.548 488.264 104.548C485.992 104.548 484.856 105.492 484.856 107.348C484.856 109.124 485.944 110.004 488.12 110.004ZM499.266 104.916C499.154 105.156 499.058 105.412 498.978 105.668C501.954 105.524 503.426 107.556 503.394 111.78C503.394 112.244 503.138 112.484 502.658 112.484H501.506C501.09 112.484 500.898 112.276 500.898 111.86C500.866 108.964 500.05 107.668 498.466 107.988C498.306 109.108 498.21 110.404 498.21 111.86C498.21 112.276 497.97 112.468 497.506 112.468H496.418C495.97 112.468 495.746 112.244 495.746 111.796C495.746 109.172 496.098 106.884 496.786 104.916H495.938C495.602 104.916 495.442 104.756 495.442 104.42V103.268C495.442 102.948 495.602 102.772 495.938 102.772H497.49V102.34C497.49 102.02 497.666 101.844 498.034 101.844H499.49C499.81 101.844 499.97 102.02 499.97 102.34V102.772H503.106C503.474 102.772 503.666 102.948 503.666 103.284V104.34C503.666 104.724 503.474 104.916 503.09 104.916H499.266ZM506.786 116.132C507.202 116.132 507.41 116.324 507.41 116.692V117.748C507.41 118.164 507.218 118.356 506.834 118.356H496.338C495.906 118.356 495.698 118.18 495.698 117.812V113.988C495.698 113.62 495.89 113.428 496.306 113.428H497.65C498.034 113.428 498.242 113.62 498.242 113.988V116.132H506.786ZM504.658 105.476V102.948C504.658 102.58 504.866 102.388 505.298 102.388H506.61C507.026 102.388 507.234 102.58 507.234 102.948V111.988C507.234 112.372 507.01 112.564 506.594 112.564H505.314C504.866 112.564 504.658 112.372 504.658 111.956V107.972H503.826C503.474 107.972 503.298 107.78 503.298 107.38V106.1C503.298 105.684 503.458 105.476 503.794 105.476H504.658ZM512.364 103.38C512.316 103.684 512.268 103.988 512.22 104.276C515.004 103.892 516.412 106.724 516.412 112.804V117.588C516.412 117.988 516.188 118.18 515.756 118.18H514.556C514.108 118.18 513.884 117.988 513.884 117.588V112.676C513.884 108.452 513.212 106.612 511.868 107.14C511.484 110.628 511.308 114.1 511.34 117.556C511.34 117.972 511.116 118.18 510.668 118.18H509.452C509.004 118.18 508.78 117.972 508.78 117.524C508.732 111.956 509.084 107.252 509.836 103.38C509.948 102.932 510.204 102.708 510.604 102.708H511.788C512.268 102.708 512.46 102.932 512.364 103.38ZM520.14 117.652C520.14 118.116 519.9 118.34 519.436 118.34H518.252C517.804 118.34 517.596 118.132 517.596 117.684V103.044C517.612 102.612 517.836 102.388 518.284 102.388H519.5C519.916 102.388 520.14 102.612 520.14 103.028V117.652ZM530.68 102.372C531.544 102.372 532.296 102.516 532.936 102.772C533.576 103.044 534.12 103.492 534.552 104.1C534.968 104.708 535.288 105.524 535.512 106.516C535.72 107.508 535.832 108.74 535.832 110.18C535.832 111.78 535.72 113.092 535.496 114.148C535.272 115.204 534.952 116.036 534.52 116.66C534.088 117.284 533.544 117.716 532.904 117.972C532.264 118.228 531.512 118.356 530.664 118.356C529.816 118.356 529.08 118.228 528.44 117.956C527.8 117.7 527.256 117.252 526.824 116.612C526.392 115.988 526.072 115.156 525.848 114.1C525.624 113.06 525.528 111.748 525.528 110.18C525.528 108.644 525.624 107.38 525.848 106.372C526.072 105.38 526.392 104.58 526.824 103.988C527.256 103.396 527.8 102.98 528.44 102.74C529.08 102.5 529.816 102.372 530.68 102.372ZM530.6 116.052C531.048 116.052 531.448 115.956 531.8 115.764C532.152 115.572 532.44 115.252 532.68 114.804C532.904 114.356 533.08 113.748 533.208 113.012C533.336 112.276 533.4 111.348 533.4 110.244C533.4 109.124 533.336 108.212 533.224 107.492C533.096 106.788 532.92 106.228 532.696 105.812C532.472 105.412 532.184 105.14 531.832 104.996C531.48 104.852 531.064 104.788 530.616 104.788C530.168 104.788 529.768 104.884 529.432 105.044C529.08 105.22 528.792 105.508 528.568 105.924C528.344 106.34 528.168 106.9 528.056 107.604C527.928 108.308 527.88 109.188 527.88 110.244C527.88 111.348 527.928 112.276 528.04 113.012C528.152 113.764 528.328 114.372 528.552 114.82C528.776 115.268 529.064 115.588 529.416 115.78C529.752 115.972 530.152 116.068 530.6 116.052ZM542.188 102.372C543.052 102.372 543.804 102.516 544.444 102.772C545.084 103.044 545.628 103.492 546.06 104.1C546.476 104.708 546.796 105.524 547.02 106.516C547.228 107.508 547.34 108.74 547.34 110.18C547.34 111.78 547.228 113.092 547.004 114.148C546.78 115.204 546.46 116.036 546.028 116.66C545.596 117.284 545.052 117.716 544.412 117.972C543.772 118.228 543.02 118.356 542.172 118.356C541.324 118.356 540.588 118.228 539.948 117.956C539.308 117.7 538.764 117.252 538.332 116.612C537.9 115.988 537.58 115.156 537.356 114.1C537.132 113.06 537.036 111.748 537.036 110.18C537.036 108.644 537.132 107.38 537.356 106.372C537.58 105.38 537.9 104.58 538.332 103.988C538.764 103.396 539.308 102.98 539.948 102.74C540.588 102.5 541.324 102.372 542.188 102.372ZM542.108 116.052C542.556 116.052 542.956 115.956 543.308 115.764C543.66 115.572 543.948 115.252 544.188 114.804C544.412 114.356 544.588 113.748 544.716 113.012C544.844 112.276 544.908 111.348 544.908 110.244C544.908 109.124 544.844 108.212 544.732 107.492C544.604 106.788 544.428 106.228 544.204 105.812C543.98 105.412 543.692 105.14 543.34 104.996C542.988 104.852 542.572 104.788 542.124 104.788C541.676 104.788 541.276 104.884 540.94 105.044C540.588 105.22 540.3 105.508 540.076 105.924C539.852 106.34 539.676 106.9 539.564 107.604C539.436 108.308 539.388 109.188 539.388 110.244C539.388 111.348 539.436 112.276 539.548 113.012C539.66 113.764 539.836 114.372 540.06 114.82C540.284 115.268 540.572 115.588 540.924 115.78C541.26 115.972 541.66 116.068 542.108 116.052ZM554.7 102.212C555.82 102.212 556.748 102.34 557.516 102.596C558.268 102.852 558.876 103.252 559.34 103.764C559.804 104.276 560.14 104.932 560.332 105.7C560.524 106.468 560.636 107.38 560.636 108.404C560.636 109.492 560.54 110.436 560.348 111.236C560.156 112.052 559.82 112.724 559.372 113.268C558.908 113.812 558.3 114.212 557.532 114.484C556.764 114.756 555.82 114.884 554.684 114.884C553.516 114.884 552.556 114.756 551.804 114.484C551.036 114.212 550.444 113.812 549.996 113.268C549.548 112.74 549.244 112.068 549.068 111.268C548.892 110.468 548.812 109.524 548.812 108.452C548.812 107.428 548.908 106.516 549.132 105.732C549.356 104.964 549.692 104.308 550.172 103.78C550.636 103.268 551.244 102.868 551.996 102.612C552.732 102.356 553.644 102.212 554.7 102.212ZM554.684 112.708C555.356 112.708 555.932 112.628 556.38 112.452C556.828 112.276 557.18 112.004 557.452 111.652C557.708 111.3 557.9 110.868 558.012 110.324C558.108 109.796 558.172 109.172 558.172 108.468C558.172 105.748 557.004 104.388 554.7 104.388C553.516 104.388 552.652 104.724 552.092 105.396C551.532 106.068 551.26 107.092 551.26 108.452C551.26 109.156 551.308 109.78 551.42 110.308C551.516 110.852 551.708 111.3 551.964 111.652C552.22 112.004 552.572 112.276 553.02 112.452C553.468 112.628 554.012 112.708 554.684 112.708ZM560.012 115.588C560.428 115.588 560.652 115.828 560.652 116.292V117.38C560.652 117.78 560.444 117.988 560.06 117.988H549.564C549.068 117.988 548.828 117.748 548.828 117.252V116.292C548.828 115.828 549.084 115.588 549.596 115.588H560.012ZM562.26 107.7C562.26 107.236 562.5 106.996 562.996 106.996H571.364V104.996H562.932C562.484 104.996 562.26 104.756 562.26 104.276V103.412C562.26 102.948 562.484 102.708 562.932 102.708H573.076C573.572 102.708 573.828 102.932 573.828 103.364V108.548C573.828 109.012 573.572 109.236 573.092 109.236H564.804V111.732C567.764 111.764 570.548 111.46 573.156 110.82C573.588 110.74 573.812 110.9 573.812 111.3V112.388C573.78 112.836 573.54 113.108 573.092 113.204C572.1 113.508 570.82 113.732 569.284 113.892V115.636H573.156C573.588 115.636 573.812 115.844 573.812 116.26V117.364C573.812 117.812 573.588 118.036 573.156 118.036H562.98C562.5 118.036 562.26 117.812 562.26 117.332V116.404C562.26 115.892 562.5 115.636 562.996 115.636H566.756V114.1C565.524 114.164 564.276 114.18 563.028 114.18C562.516 114.18 562.26 113.956 562.26 113.492V107.7ZM585.689 112.34C586.921 112.34 587.929 112.404 588.697 112.532C589.465 112.66 590.073 112.868 590.505 113.124C590.937 113.38 591.225 113.716 591.385 114.1C591.529 114.484 591.609 114.948 591.609 115.46C591.609 115.972 591.513 116.42 591.353 116.804C591.193 117.188 590.889 117.492 590.457 117.748C590.009 118.004 589.417 118.196 588.649 118.324C587.881 118.452 586.889 118.516 585.689 118.516C584.473 118.516 583.481 118.452 582.681 118.324C581.881 118.196 581.241 118.004 580.761 117.748C580.281 117.492 579.929 117.172 579.737 116.788C579.545 116.404 579.449 115.956 579.449 115.444C579.449 114.932 579.529 114.484 579.721 114.1C579.897 113.716 580.217 113.38 580.697 113.124C581.161 112.868 581.801 112.66 582.601 112.532C583.401 112.404 584.441 112.34 585.689 112.34ZM583.209 104.852C583.113 105.044 583.017 105.236 582.937 105.428C585.737 105.38 587.113 107.22 587.081 110.948C587.081 111.412 586.825 111.652 586.345 111.652H585.193C584.777 111.652 584.585 111.444 584.585 111.028C584.553 108.564 583.785 107.46 582.281 107.716C582.089 108.708 581.993 109.828 581.993 111.044C581.993 111.46 581.753 111.652 581.289 111.652H580.201C579.753 111.652 579.529 111.428 579.529 110.98C579.529 108.868 579.881 106.82 580.569 104.852H579.721C579.385 104.852 579.225 104.692 579.225 104.356V103.204C579.225 102.884 579.385 102.708 579.721 102.708H586.889C587.257 102.708 587.449 102.884 587.449 103.22V104.276C587.449 104.66 587.257 104.852 586.873 104.852H583.209ZM591.401 105.78C591.769 105.78 591.961 105.972 591.961 106.324V107.796C591.961 108.116 591.769 108.276 591.417 108.276H590.553V111.204C590.553 111.588 590.361 111.78 590.009 111.78H588.617C588.201 111.78 588.009 111.604 588.009 111.236V102.932C588.009 102.58 588.201 102.388 588.617 102.388H589.977C590.361 102.388 590.553 102.58 590.553 102.964V105.78H591.401ZM585.705 116.564C586.377 116.564 586.937 116.548 587.385 116.5C587.817 116.452 588.169 116.388 588.425 116.292C588.681 116.196 588.857 116.084 588.953 115.94C589.049 115.812 589.113 115.636 589.113 115.444C589.113 115.252 589.065 115.092 588.969 114.948C588.873 114.82 588.697 114.692 588.441 114.596C588.185 114.5 587.833 114.436 587.385 114.388C586.937 114.34 586.377 114.308 585.689 114.308C584.953 114.308 584.329 114.34 583.849 114.388C583.369 114.436 582.985 114.5 582.697 114.596C582.409 114.692 582.217 114.82 582.105 114.948C581.977 115.092 581.929 115.252 581.929 115.444C581.929 115.636 581.977 115.812 582.089 115.94C582.185 116.084 582.377 116.196 582.665 116.292C582.953 116.388 583.337 116.452 583.817 116.5C584.297 116.548 584.937 116.564 585.705 116.564ZM597.806 103.012C597.806 103.172 597.79 103.332 597.79 103.476C602.846 102.676 605.118 106.02 604.638 113.476C604.606 113.86 604.398 114.052 603.982 114.052H602.462C602.062 114.052 601.886 113.86 601.95 113.444C602.526 107.78 601.086 105.316 597.63 106.036C597.342 109.028 596.67 111.54 595.646 113.556C595.454 113.892 595.134 114.052 594.654 114.052H593.342C593.038 114.052 592.862 113.972 592.83 113.812C592.782 113.652 592.814 113.46 592.91 113.268C594.366 110.516 595.118 107.076 595.15 102.964C595.15 102.58 595.326 102.372 595.71 102.372H597.214C597.598 102.372 597.79 102.596 597.806 103.012ZM597.406 112.964C597.406 112.532 597.598 112.308 597.998 112.308H599.374C599.758 112.308 599.966 112.532 599.966 112.964V115.62H603.998C604.398 115.62 604.606 115.828 604.606 116.244V117.412C604.606 117.812 604.414 118.02 604.03 118.02H593.422C593.006 118.02 592.814 117.812 592.814 117.364V116.244C592.814 115.828 593.006 115.62 593.422 115.62H597.406V112.964ZM619.279 109.844H617.743V111.54C617.743 111.796 617.183 112.052 616.095 112.292C614.991 112.548 613.263 112.66 610.911 112.66C610.431 112.66 610.191 112.436 610.191 111.956V103.012C610.191 102.596 610.399 102.388 610.831 102.388H611.983C612.399 102.388 612.623 102.58 612.623 102.948V104.388H615.391V102.964C615.391 102.58 615.631 102.388 616.143 102.388H617.007C617.487 102.404 617.743 102.596 617.743 102.964V104.74H619.279V102.932C619.279 102.58 619.487 102.388 619.903 102.388H621.167C621.583 102.388 621.807 102.58 621.807 102.932V112.18C621.807 112.564 621.583 112.756 621.151 112.756H619.919C619.487 112.756 619.279 112.564 619.279 112.148V109.844ZM621.391 116.132C621.775 116.132 621.983 116.324 621.983 116.692V117.748C621.983 118.164 621.791 118.356 621.423 118.356H610.991C610.575 118.356 610.383 118.18 610.383 117.812V114.228C610.383 113.86 610.575 113.668 610.959 113.668H612.303C612.687 113.668 612.895 113.86 612.895 114.228V116.132H621.391ZM612.543 110.58C613.631 110.58 614.575 110.484 615.391 110.292V106.612H612.543V110.58ZM617.743 107.716H619.279V106.868H617.743V107.716ZM630.458 103.428C630.426 103.7 630.394 103.956 630.362 104.212H632.362V102.964C632.362 102.58 632.554 102.388 632.97 102.388H634.298C634.714 102.388 634.938 102.564 634.938 102.916V110.804C634.938 111.22 634.714 111.412 634.282 111.412H633.018C632.57 111.412 632.362 111.204 632.362 110.788V109.62H628.394C627.994 110.132 627.562 110.532 627.082 110.852C626.57 111.252 626.058 111.444 625.53 111.444H624.346C624.01 111.46 623.818 111.364 623.754 111.14C623.69 110.932 623.77 110.756 624.01 110.612C626.154 109.044 627.29 107.268 627.418 105.3C627.418 105.028 627.29 104.884 627.034 104.884H623.914C623.53 104.884 623.354 104.708 623.354 104.324V103.268C623.354 102.9 623.53 102.708 623.914 102.708H629.914C630.298 102.708 630.49 102.948 630.458 103.428ZM629.466 111.908C633.37 111.908 635.338 113.044 635.338 115.284C635.338 117.444 633.37 118.516 629.466 118.516C625.466 118.516 623.482 117.444 623.482 115.268C623.482 113.028 625.466 111.908 629.466 111.908ZM629.498 116.564C631.738 116.564 632.858 116.132 632.858 115.268C632.858 114.34 631.722 113.876 629.466 113.876C627.13 113.876 625.962 114.34 625.962 115.268C625.962 116.132 627.13 116.564 629.498 116.564ZM629.946 106.452C629.85 106.788 629.722 107.108 629.546 107.396H632.362V106.452H629.946ZM637.671 107.092C637.319 107.284 637.031 107.156 636.791 106.708C636.695 106.564 636.775 106.388 637.015 106.164C637.239 105.956 637.399 105.732 637.495 105.508C637.575 105.284 637.495 105.172 637.271 105.172C636.695 105.188 636.375 104.772 636.311 103.94C636.247 102.9 636.743 102.372 637.831 102.372C638.983 102.372 639.511 103.076 639.447 104.484C639.351 105.636 638.759 106.5 637.671 107.092Z" fill="white"/>
<path d="M461.274 235.615L435.464 248.394L366.642 115.287L397.145 100.185L461.274 235.615ZM476.38 298.254C473.078 299.889 469.541 300.613 465.768 300.425C462.083 300.193 458.705 299.052 455.634 297.002C452.563 294.952 450.253 292.254 448.705 288.908C446.983 285.649 446.238 282.177 446.469 278.491C446.7 274.806 447.841 271.428 449.892 268.357C452.029 265.242 454.749 262.868 458.051 261.233C461.267 259.641 464.717 258.961 468.402 259.192C472.088 259.423 475.466 260.564 478.537 262.615C481.695 264.622 484.092 267.277 485.727 270.579C487.362 273.882 488.02 277.397 487.702 281.125C487.47 284.811 486.329 288.189 484.279 291.26C482.229 294.331 479.596 296.663 476.38 298.254Z" fill="#649CED"/>
<rect width="261" height="70" rx="35" transform="matrix(-1 0 0 1 618 183)" fill="#EDF3FD"/>
<path d="M365.833 252.162C370.098 250.731 373.416 246.916 373.89 243.863L388.109 252.735C379.341 252.448 360.87 253.827 365.833 252.162Z" fill="#EDF3FD"/>
<path d="M412.548 215.232C412.548 215.648 412.34 215.856 411.956 215.856H410.468C410.084 215.856 409.908 215.648 409.908 215.2V212.944H406.052C405.62 212.944 405.412 212.736 405.412 212.288V211.168C405.412 210.72 405.636 210.48 406.116 210.48H416.484C416.932 210.48 417.172 210.704 417.172 211.152V212.288C417.172 212.736 416.932 212.944 416.452 212.944H412.548V215.232ZM417.172 204.704C417.172 208.096 415.204 209.792 411.284 209.792C407.364 209.792 405.412 208.096 405.412 204.704C405.412 201.408 407.412 199.744 411.412 199.744C415.252 199.744 417.172 201.408 417.172 204.704ZM411.268 207.504C413.476 207.504 414.58 206.624 414.58 204.848C414.58 202.992 413.524 202.048 411.412 202.048C409.14 202.048 408.004 202.992 408.004 204.848C408.004 206.624 409.092 207.504 411.268 207.504ZM422.414 202.416C422.302 202.656 422.206 202.912 422.126 203.168C425.102 203.024 426.574 205.056 426.542 209.28C426.542 209.744 426.286 209.984 425.806 209.984H424.654C424.238 209.984 424.046 209.776 424.046 209.36C424.014 206.464 423.198 205.168 421.614 205.488C421.454 206.608 421.358 207.904 421.358 209.36C421.358 209.776 421.118 209.968 420.654 209.968H419.566C419.118 209.968 418.894 209.744 418.894 209.296C418.894 206.672 419.246 204.384 419.934 202.416H419.086C418.75 202.416 418.59 202.256 418.59 201.92V200.768C418.59 200.448 418.75 200.272 419.086 200.272H420.638V199.84C420.638 199.52 420.814 199.344 421.182 199.344H422.638C422.958 199.344 423.118 199.52 423.118 199.84V200.272H426.254C426.622 200.272 426.814 200.448 426.814 200.784V201.84C426.814 202.224 426.622 202.416 426.238 202.416H422.414ZM429.934 213.632C430.35 213.632 430.558 213.824 430.558 214.192V215.248C430.558 215.664 430.366 215.856 429.982 215.856H419.486C419.054 215.856 418.846 215.68 418.846 215.312V211.488C418.846 211.12 419.038 210.928 419.454 210.928H420.798C421.182 210.928 421.39 211.12 421.39 211.488V213.632H429.934ZM427.806 202.976V200.448C427.806 200.08 428.014 199.888 428.446 199.888H429.758C430.174 199.888 430.382 200.08 430.382 200.448V209.488C430.382 209.872 430.158 210.064 429.742 210.064H428.462C428.014 210.064 427.806 209.872 427.806 209.456V205.472H426.974C426.622 205.472 426.446 205.28 426.446 204.88V203.6C426.446 203.184 426.606 202.976 426.942 202.976H427.806ZM435.512 200.88C435.464 201.184 435.416 201.488 435.368 201.776C438.152 201.392 439.56 204.224 439.56 210.304V215.088C439.56 215.488 439.336 215.68 438.904 215.68H437.704C437.256 215.68 437.032 215.488 437.032 215.088V210.176C437.032 205.952 436.36 204.112 435.016 204.64C434.632 208.128 434.456 211.6 434.488 215.056C434.488 215.472 434.264 215.68 433.816 215.68H432.6C432.152 215.68 431.928 215.472 431.928 215.024C431.88 209.456 432.232 204.752 432.984 200.88C433.096 200.432 433.352 200.208 433.752 200.208H434.936C435.416 200.208 435.608 200.432 435.512 200.88ZM443.288 215.152C443.288 215.616 443.048 215.84 442.584 215.84H441.4C440.952 215.84 440.744 215.632 440.744 215.184V200.544C440.76 200.112 440.984 199.888 441.432 199.888H442.648C443.064 199.888 443.288 200.112 443.288 200.528V215.152ZM456.731 204.272C457.179 204.272 457.403 204.48 457.403 204.88V206.096C457.403 206.544 457.179 206.768 456.763 206.768H455.963V215.136C455.963 215.616 455.739 215.856 455.323 215.856H454.091C453.643 215.856 453.419 215.632 453.419 215.168V200.448C453.419 200.08 453.611 199.888 454.011 199.888H455.339C455.755 199.888 455.963 200.08 455.963 200.464V204.272H456.731ZM449.563 202.88C449.563 202.64 449.435 202.512 449.179 202.512H445.307C444.923 202.512 444.747 202.304 444.747 201.872V200.896C444.747 200.448 444.939 200.208 445.355 200.208H451.547C452.011 200.208 452.251 200.496 452.251 201.056C452.283 207.568 450.779 212.256 447.739 215.136C447.467 215.408 447.035 215.536 446.459 215.536H445.547C445.195 215.536 444.987 215.44 444.923 215.232C444.859 215.024 444.987 214.768 445.307 214.48C448.203 211.632 449.627 207.76 449.563 202.88ZM466.565 199.888C467.301 199.888 467.941 200.032 468.453 200.288C468.965 200.56 469.365 200.96 469.685 201.488C470.005 202.016 470.229 202.672 470.389 203.456C470.533 204.256 470.629 205.168 470.661 206.224H471.813V200.464C471.813 200.08 472.021 199.888 472.469 199.888H473.733C474.149 199.888 474.373 200.08 474.373 200.464V215.296C474.373 215.68 474.165 215.856 473.781 215.856H472.485C472.037 215.856 471.813 215.664 471.813 215.264V208.752H470.677C470.645 209.936 470.549 210.976 470.405 211.872C470.245 212.768 470.021 213.504 469.701 214.096C469.381 214.688 468.965 215.136 468.453 215.424C467.941 215.712 467.301 215.856 466.565 215.856C465.733 215.856 465.045 215.696 464.501 215.344C463.957 214.992 463.525 214.48 463.205 213.792C462.885 213.104 462.677 212.24 462.549 211.216C462.421 210.192 462.357 208.992 462.357 207.616C462.357 206.336 462.421 205.216 462.565 204.256C462.709 203.296 462.949 202.48 463.269 201.84C463.589 201.2 464.021 200.704 464.565 200.384C465.109 200.064 465.765 199.888 466.565 199.888ZM468.293 207.616C468.293 206.72 468.261 205.92 468.229 205.232C468.181 204.56 468.101 203.984 467.973 203.536C467.845 203.088 467.669 202.736 467.445 202.512C467.221 202.288 466.933 202.176 466.581 202.176C466.213 202.176 465.925 202.288 465.701 202.512C465.477 202.736 465.301 203.088 465.173 203.536C465.045 203.984 464.965 204.56 464.933 205.232C464.885 205.92 464.869 206.72 464.869 207.616C464.869 209.616 464.981 211.12 465.221 212.112C465.445 213.104 465.909 213.6 466.581 213.6C466.917 213.6 467.205 213.488 467.429 213.232C467.653 212.976 467.829 212.608 467.957 212.096C468.085 211.6 468.165 210.976 468.213 210.224C468.261 209.488 468.293 208.608 468.293 207.616ZM487.61 215.312C487.61 215.664 487.402 215.84 487.002 215.84H485.562C485.21 215.84 485.034 215.68 485.034 215.344V214.24C482.378 215.088 479.562 215.504 476.586 215.504C476.17 215.504 475.978 215.328 475.978 214.944V200.832C475.978 200.416 476.186 200.208 476.618 200.208H483.274C483.658 200.208 483.85 200.4 483.85 200.768V201.904C483.85 202.336 483.642 202.544 483.226 202.544H478.538V213.12C481.034 212.976 483.21 212.576 485.05 211.92V200.448C485.05 200.064 485.226 199.872 485.594 199.872H487.066C487.418 199.872 487.61 200.064 487.61 200.416V215.312ZM492.74 199.872C493.38 199.872 493.908 199.984 494.356 200.192C494.788 200.416 495.14 200.752 495.428 201.232C495.7 201.712 495.908 202.32 496.036 203.088C496.164 203.856 496.26 204.8 496.292 205.904H496.996V200.464C496.996 200.08 497.204 199.888 497.652 199.888H498.756C499.172 199.888 499.396 200.08 499.396 200.464V215.28C499.396 215.664 499.188 215.84 498.804 215.84H497.668C497.22 215.84 496.996 215.648 496.996 215.248V208.432H496.324C496.292 209.68 496.212 210.752 496.1 211.68C495.988 212.608 495.812 213.376 495.556 213.984C495.3 214.592 494.932 215.056 494.484 215.36C494.036 215.68 493.444 215.824 492.74 215.824C491.956 215.824 491.332 215.68 490.852 215.376C490.372 215.088 489.988 214.608 489.732 213.952C489.46 213.296 489.284 212.432 489.188 211.376C489.092 210.32 489.06 209.04 489.06 207.536C489.06 206.128 489.108 204.944 489.22 203.968C489.316 203.008 489.508 202.208 489.78 201.6C490.052 200.992 490.436 200.56 490.916 200.288C491.396 200.016 492.004 199.872 492.74 199.872ZM500.02 200.464C500.02 200.08 500.228 199.888 500.676 199.888H501.78C502.196 199.888 502.42 200.08 502.42 200.464V215.28C502.42 215.664 502.212 215.84 501.828 215.84H500.692C500.244 215.84 500.02 215.648 500.02 215.248V200.464ZM493.86 207.2C493.86 206.304 493.828 205.52 493.796 204.88C493.764 204.24 493.7 203.728 493.62 203.312C493.524 202.912 493.412 202.624 493.252 202.432C493.092 202.24 492.9 202.144 492.676 202.144C492.42 202.144 492.228 202.24 492.068 202.4C491.908 202.576 491.796 202.864 491.716 203.28C491.62 203.696 491.572 204.256 491.54 204.944C491.508 205.648 491.492 206.512 491.492 207.536C491.492 208.688 491.492 209.632 491.524 210.4C491.556 211.168 491.604 211.792 491.7 212.256C491.78 212.736 491.892 213.072 492.052 213.264C492.212 213.472 492.42 213.568 492.676 213.568C492.932 213.568 493.124 213.472 493.284 213.28C493.444 213.088 493.556 212.768 493.652 212.304C493.732 211.84 493.78 211.216 493.812 210.448C493.844 209.68 493.86 208.704 493.86 207.536V207.2ZM508.041 209.36C505.241 209.36 503.849 207.872 503.849 204.88C503.849 201.552 505.241 199.888 508.041 199.888C510.889 199.888 512.329 201.552 512.329 204.88C512.329 207.872 510.889 209.36 508.041 209.36ZM513.641 215.2C513.785 213.632 513.241 212.768 511.993 212.592C511.753 213.392 511.593 214.272 511.513 215.264C511.481 215.664 511.273 215.856 510.889 215.856H509.705C509.289 215.856 509.097 215.664 509.113 215.264C509.129 214.592 509.193 213.984 509.305 213.408C508.873 212.8 508.233 212.528 507.385 212.592C507.129 213.392 506.969 214.272 506.873 215.264C506.873 215.664 506.665 215.856 506.281 215.856H505.065C504.649 215.856 504.457 215.664 504.473 215.264C504.569 213.392 505.001 211.808 505.769 210.496C506.025 210.144 506.329 209.952 506.713 209.952H507.769C508.361 209.952 508.505 210.192 508.217 210.64C508.905 210.688 509.465 210.944 509.897 211.392C510.025 211.072 510.185 210.784 510.377 210.496C510.633 210.144 510.937 209.952 511.321 209.952H512.377C512.969 209.952 513.113 210.192 512.825 210.64C515.129 210.928 516.185 212.48 515.993 215.264C515.945 215.664 515.737 215.856 515.369 215.856H514.233C513.785 215.856 513.577 215.648 513.641 215.2ZM515.609 208.688C515.609 209.104 515.401 209.296 514.985 209.296H513.849C513.337 209.296 513.081 209.104 513.081 208.72V200.448C513.081 200.08 513.305 199.888 513.769 199.888H514.953C515.385 199.888 515.609 200.08 515.609 200.464V208.688ZM508.041 202.128C506.905 202.112 506.345 203.008 506.345 204.832C506.345 206.336 506.905 207.072 508.041 207.072C509.177 207.072 509.769 206.336 509.801 204.832C509.801 203.008 509.209 202.112 508.041 202.128ZM528.197 207.264C528.661 207.264 528.901 207.488 528.901 207.936V208.944C528.901 209.392 528.677 209.616 528.229 209.616H517.797C517.365 209.616 517.157 209.424 517.157 209.008V207.92C517.157 207.488 517.365 207.264 517.781 207.264H528.197ZM528.229 213.488C528.677 213.488 528.901 213.712 528.901 214.144V215.184C528.901 215.632 528.677 215.84 528.229 215.84H517.829C517.381 215.84 517.157 215.632 517.157 215.216V211.328C517.157 210.864 517.397 210.624 517.909 210.624H518.997C519.509 210.624 519.765 210.864 519.765 211.328V213.488H528.229ZM528.197 205.584C525.445 206.048 521.957 206.288 517.733 206.304C517.349 206.304 517.157 206.128 517.157 205.744V200.56C517.157 200.096 517.381 199.856 517.861 199.856H519.045C519.525 199.856 519.765 200.08 519.765 200.496V203.904C522.661 203.872 525.445 203.6 528.101 203.088C528.629 203.008 528.901 203.2 528.901 203.648V204.736C528.885 205.216 528.645 205.504 528.197 205.584ZM537.992 200.88C537.944 201.184 537.896 201.488 537.848 201.776C540.632 201.392 542.04 204.224 542.04 210.304V215.088C542.04 215.488 541.816 215.68 541.384 215.68H540.184C539.736 215.68 539.512 215.488 539.512 215.088V210.176C539.512 205.952 538.84 204.112 537.496 204.64C537.112 208.128 536.936 211.6 536.968 215.056C536.968 215.472 536.744 215.68 536.296 215.68H535.08C534.632 215.68 534.408 215.472 534.408 215.024C534.36 209.456 534.712 204.752 535.464 200.88C535.576 200.432 535.832 200.208 536.232 200.208H537.416C537.896 200.208 538.088 200.432 537.992 200.88ZM545.768 215.152C545.768 215.616 545.528 215.84 545.064 215.84H543.88C543.432 215.84 543.224 215.632 543.224 215.184V200.544C543.24 200.112 543.464 199.888 543.912 199.888H545.128C545.544 199.888 545.768 200.112 545.768 200.528V215.152ZM553.114 202.48C553.082 202.848 553.066 203.2 553.034 203.536C557.162 203.072 559.242 205.76 559.242 211.584C559.242 211.968 559.05 212.16 558.698 212.16H557.146C556.746 212.16 556.554 211.968 556.554 211.584C556.554 207.216 555.258 205.36 552.666 206.032C552.202 208.24 551.45 210.128 550.394 211.664C550.138 212 549.802 212.16 549.354 212.16H547.77C547.546 212.16 547.418 212.08 547.386 211.92C547.354 211.76 547.45 211.552 547.642 211.312C549.514 208.848 550.442 205.904 550.442 202.48H547.882C547.498 202.48 547.306 202.288 547.306 201.872V200.848C547.306 200.432 547.498 200.208 547.882 200.208H558.554C559.002 200.208 559.226 200.432 559.242 200.848V201.824C559.242 202.272 559.002 202.48 558.554 202.48H553.114ZM550.634 213.456V211.872C550.602 211.44 550.81 211.216 551.226 211.216H552.362C552.746 211.216 552.938 211.44 552.938 211.872V213.456H553.722V211.872C553.706 211.44 553.914 211.216 554.346 211.216H555.482C555.866 211.216 556.058 211.44 556.058 211.872V213.456H558.602C559.018 213.456 559.242 213.68 559.242 214.096V215.264C559.242 215.648 559.018 215.856 558.602 215.856H548.01C547.53 215.856 547.306 215.616 547.306 215.12V214.16C547.306 213.696 547.546 213.456 548.042 213.456H550.634ZM564.143 215.84C563.647 215.84 563.407 215.616 563.423 215.152L563.583 213.6C563.615 213.216 563.807 213.024 564.191 213.024H565.823C566.207 213.024 566.431 213.264 566.463 213.728L566.591 215.152C566.591 215.648 566.303 215.872 565.743 215.84H564.143ZM569.711 205.056C569.711 206.304 569.135 207.344 567.999 208.144C566.863 208.96 566.303 209.504 566.303 209.792V211.344C566.303 211.84 566.079 212.096 565.631 212.096H564.271C563.855 212.096 563.647 211.888 563.631 211.472V209.504C563.631 208.912 564.207 208.208 565.391 207.408C566.575 206.608 567.167 205.824 567.167 205.056C567.167 203.168 566.447 202.224 565.039 202.224C563.631 202.224 562.927 202.88 562.927 204.192C562.927 204.64 562.719 204.864 562.319 204.864H561.087C560.703 204.864 560.527 204.656 560.527 204.224C560.511 201.216 561.967 199.696 564.879 199.696C568.031 199.696 569.647 201.472 569.711 205.056ZM411.444 233.872C415.444 233.872 417.444 234.912 417.444 236.96C417.444 238.976 415.444 239.984 411.444 239.984C407.428 239.984 405.428 238.976 405.428 236.944C405.428 234.896 407.428 233.872 411.444 233.872ZM411.46 238.032C413.796 238.032 414.964 237.68 414.964 236.944C414.964 236.208 413.78 235.84 411.444 235.84C409.092 235.84 407.924 236.208 407.924 236.944C407.924 237.68 409.092 238.032 411.46 238.032ZM408.708 227.888C409.028 227.888 409.188 228.064 409.188 228.4V230.672H413.972V224.464C413.972 224.08 414.196 223.888 414.66 223.888H415.716C416.212 223.888 416.468 224.08 416.468 224.432V226.768H417.444C417.748 226.768 417.908 226.928 417.908 227.248V228.64C417.908 228.992 417.716 229.152 417.364 229.152H416.452V232.976C416.452 233.408 416.212 233.616 415.764 233.616H414.628C414.18 233.616 413.972 233.392 413.972 232.928H405.956C405.588 232.928 405.412 232.736 405.412 232.352V231.296C405.412 230.88 405.62 230.672 406.036 230.672H406.788V228.432C406.788 228.08 406.98 227.888 407.38 227.888H408.708ZM406.036 226.48C405.62 226.48 405.412 226.304 405.412 225.92V224.896C405.412 224.448 405.62 224.208 406.052 224.208H412.244C412.708 224.208 412.948 224.416 412.948 224.8V229.088C412.948 229.504 412.724 229.696 412.276 229.696H411.124C410.692 229.696 410.468 229.52 410.436 229.136V226.48H406.036ZM428.483 231.696H426.547C426.451 232.08 426.307 232.4 426.083 232.688C425.859 232.976 425.603 233.2 425.283 233.392C424.963 233.584 424.595 233.712 424.195 233.808C423.795 233.904 423.363 233.936 422.915 233.936C422.163 233.936 421.539 233.84 421.043 233.632C420.547 233.44 420.147 233.136 419.859 232.736C419.555 232.336 419.347 231.84 419.219 231.232C419.091 230.64 419.027 229.936 419.027 229.136C419.027 228.272 419.091 227.504 419.219 226.848C419.347 226.192 419.555 225.648 419.875 225.2C420.179 224.768 420.595 224.448 421.107 224.224C421.619 224 422.275 223.888 423.075 223.888C423.491 223.888 423.907 223.936 424.291 224C424.675 224.08 425.011 224.208 425.315 224.368C425.619 224.528 425.875 224.752 426.083 225.008C426.291 225.28 426.435 225.6 426.531 225.968H428.483V224.432C428.483 224.064 428.691 223.872 429.107 223.872H430.451C430.851 223.872 431.059 224.064 431.059 224.432V233.328C431.059 233.712 430.835 233.904 430.403 233.904H429.123C428.691 233.904 428.483 233.712 428.483 233.296V231.696ZM420.131 237.168C419.715 237.168 419.523 236.992 419.523 236.624V235.52C419.523 235.12 419.715 234.912 420.099 234.912H430.451C430.851 234.912 431.059 235.104 431.059 235.472V239.296C431.059 239.68 430.867 239.856 430.483 239.856H429.123C428.739 239.856 428.547 239.68 428.547 239.296V237.168H420.131ZM424.627 229.136C424.627 228.112 424.515 227.344 424.291 226.816C424.067 226.304 423.667 226.032 423.075 226.032C422.435 226.032 422.003 226.304 421.779 226.816C421.555 227.344 421.427 228.112 421.427 229.136C421.427 230.032 421.539 230.688 421.779 231.12C422.003 231.568 422.435 231.776 423.075 231.776C423.667 231.776 424.067 231.568 424.291 231.12C424.499 230.672 424.611 230.016 424.627 229.136ZM427.027 229.136C427.027 229.232 427.011 229.312 427.011 229.392H428.483V228.272H427.011C427.011 228.384 427.027 228.48 427.027 228.576V229.136ZM436.2 224.88C436.152 225.184 436.104 225.488 436.056 225.776C438.84 225.392 440.248 228.224 440.248 234.304V239.088C440.248 239.488 440.024 239.68 439.592 239.68H438.392C437.944 239.68 437.72 239.488 437.72 239.088V234.176C437.72 229.952 437.048 228.112 435.704 228.64C435.32 232.128 435.144 235.6 435.176 239.056C435.176 239.472 434.952 239.68 434.504 239.68H433.288C432.84 239.68 432.616 239.472 432.616 239.024C432.568 233.456 432.92 228.752 433.672 224.88C433.784 224.432 434.04 224.208 434.44 224.208H435.624C436.104 224.208 436.296 224.432 436.2 224.88ZM443.976 239.152C443.976 239.616 443.736 239.84 443.272 239.84H442.088C441.64 239.84 441.432 239.632 441.432 239.184V224.544C441.448 224.112 441.672 223.888 442.12 223.888H443.336C443.752 223.888 443.976 224.112 443.976 224.528V239.152ZM457.098 237.568C457.498 237.568 457.706 237.776 457.706 238.176V239.248C457.706 239.664 457.482 239.856 457.066 239.856H446.378C445.994 239.856 445.802 239.68 445.802 239.296V235.52C445.802 235.344 445.85 235.2 445.962 235.088C446.074 234.976 446.234 234.912 446.426 234.912H447.738C448.122 234.912 448.314 235.12 448.314 235.504V237.568H457.098ZM457.482 233.376C457.482 233.792 457.258 233.984 456.826 233.984H455.61C455.162 233.984 454.954 233.792 454.954 233.408V224.464C454.954 224.08 455.162 223.888 455.594 223.888H456.842C457.258 223.888 457.482 224.08 457.482 224.448V233.376ZM449.674 233.84C448.842 233.84 448.154 233.744 447.61 233.536C447.066 233.328 446.618 233.008 446.282 232.592C445.946 232.176 445.706 231.664 445.562 231.04C445.418 230.416 445.354 229.68 445.354 228.848C445.354 228.016 445.418 227.296 445.562 226.672C445.69 226.064 445.93 225.536 446.266 225.12C446.602 224.704 447.05 224.4 447.626 224.192C448.202 223.984 448.922 223.872 449.802 223.872C450.57 223.872 451.21 223.984 451.754 224.192C452.282 224.4 452.714 224.704 453.05 225.12C453.386 225.536 453.626 226.064 453.786 226.672C453.93 227.296 454.01 228.016 454.01 228.848C454.01 229.68 453.93 230.416 453.802 231.04C453.674 231.664 453.434 232.176 453.114 232.592C452.778 233.008 452.33 233.328 451.77 233.536C451.21 233.744 450.506 233.84 449.674 233.84ZM449.658 226.128C448.954 226.128 448.458 226.352 448.17 226.8C447.882 227.248 447.738 227.952 447.738 228.88C447.738 229.792 447.882 230.464 448.17 230.912C448.458 231.36 448.97 231.568 449.674 231.568C450.986 231.568 451.642 230.672 451.642 228.88C451.642 227.952 451.482 227.248 451.194 226.8C450.89 226.352 450.378 226.128 449.658 226.128ZM470.926 228.272C471.374 228.272 471.598 228.48 471.598 228.88V230.096C471.598 230.544 471.374 230.768 470.958 230.768H470.158V239.136C470.158 239.616 469.934 239.856 469.518 239.856H468.286C467.838 239.856 467.614 239.632 467.614 239.168V224.448C467.614 224.08 467.806 223.888 468.206 223.888H469.534C469.95 223.888 470.158 224.08 470.158 224.464V228.272H470.926ZM463.758 226.88C463.758 226.64 463.63 226.512 463.374 226.512H459.502C459.118 226.512 458.942 226.304 458.942 225.872V224.896C458.942 224.448 459.134 224.208 459.55 224.208H465.742C466.206 224.208 466.446 224.496 466.446 225.056C466.478 231.568 464.974 236.256 461.934 239.136C461.662 239.408 461.23 239.536 460.654 239.536H459.742C459.39 239.536 459.182 239.44 459.118 239.232C459.054 239.024 459.182 238.768 459.502 238.48C462.398 235.632 463.822 231.76 463.758 226.88ZM475.375 237.088V235.024C474.863 234.928 474.447 234.704 474.111 234.368C473.759 234.048 473.487 233.632 473.279 233.136C473.055 232.656 472.911 232.096 472.815 231.456C472.719 230.832 472.671 230.16 472.671 229.456C472.671 228.496 472.751 227.664 472.943 226.944C473.119 226.24 473.423 225.648 473.855 225.168C474.287 224.688 474.863 224.336 475.599 224.096C476.335 223.856 477.247 223.728 478.335 223.728C479.375 223.728 480.255 223.856 480.975 224.096C481.695 224.336 482.287 224.688 482.735 225.168C483.183 225.648 483.503 226.24 483.695 226.944C483.887 227.664 483.999 228.496 483.999 229.456C483.999 230.176 483.935 230.848 483.839 231.456C483.743 232.064 483.583 232.608 483.359 233.088C483.135 233.568 482.863 233.984 482.511 234.304C482.159 234.64 481.743 234.88 481.263 235.04V237.088H483.343C483.775 237.088 483.999 237.312 483.999 237.744V238.896C483.999 239.296 483.791 239.488 483.375 239.488H473.391C472.911 239.488 472.671 239.28 472.671 238.848V237.808C472.671 237.328 472.911 237.088 473.423 237.088H475.375ZM478.335 233.296C479.487 233.296 480.319 232.976 480.799 232.336C481.279 231.696 481.535 230.736 481.535 229.456C481.535 228.272 481.295 227.392 480.815 226.8C480.335 226.224 479.503 225.92 478.351 225.92C477.199 225.92 476.367 226.224 475.887 226.816C475.391 227.408 475.151 228.288 475.151 229.456C475.151 230.096 475.199 230.656 475.311 231.136C475.407 231.616 475.583 232.016 475.839 232.336C476.079 232.656 476.399 232.896 476.815 233.056C477.215 233.216 477.727 233.296 478.335 233.296ZM478.335 235.472C478.207 235.472 478.095 235.472 477.999 235.472C477.887 235.472 477.775 235.456 477.679 235.44V237.088H478.943V235.44C478.847 235.456 478.735 235.472 478.639 235.472C478.543 235.472 478.431 235.472 478.335 235.472ZM488.899 239.84C488.403 239.84 488.163 239.616 488.179 239.152L488.339 237.6C488.371 237.216 488.563 237.024 488.947 237.024H490.579C490.963 237.024 491.187 237.264 491.219 237.728L491.347 239.152C491.347 239.648 491.059 239.872 490.499 239.84H488.899ZM494.467 229.056C494.467 230.304 493.891 231.344 492.755 232.144C491.619 232.96 491.059 233.504 491.059 233.792V235.344C491.059 235.84 490.835 236.096 490.387 236.096H489.027C488.611 236.096 488.403 235.888 488.387 235.472V233.504C488.387 232.912 488.963 232.208 490.147 231.408C491.331 230.608 491.923 229.824 491.923 229.056C491.923 227.168 491.203 226.224 489.795 226.224C488.387 226.224 487.683 226.88 487.683 228.192C487.683 228.64 487.475 228.864 487.075 228.864H485.843C485.459 228.864 485.283 228.656 485.283 228.224C485.267 225.216 486.723 223.696 489.635 223.696C492.787 223.696 494.403 225.472 494.467 229.056Z" fill="#649CED"/>
</g>
<defs>
<clipPath id="clip0_2779_8263">
<rect width="714" height="328" fill="white"/>
</clipPath>
</defs>
</svg>
