<svg width="183" height="62" viewBox="0 0 183 62" fill="none" xmlns="http://www.w3.org/2000/svg">
<rect width="183" height="62" fill="#AEAEAE"/>
<g id="&#235;&#141;&#176;&#236;&#138;&#164;&#237;&#129;&#172;&#237;&#131;&#145; &#235;&#148;&#148;&#236;&#158;&#144;&#236;&#157;&#184; &#236;&#139;&#156;&#236;&#149;&#136;">
<path d="M-889 -20933C-889 -20934.1 -888.105 -20935 -887 -20935H15129C15130.1 -20935 15131 -20934.1 15131 -20933V19814C15131 19815.1 15130.1 19816 15129 19816H-887C-888.104 19816 -889 19815.1 -889 19814V-20933Z" fill="#444444"/>
<path d="M-887 -20934H15129V-20936H-887V-20934ZM15130 -20933V19814H15132V-20933H15130ZM15129 19815H-887V19817H15129V19815ZM-888 19814V-20933H-890V19814H-888ZM-887 19815C-887.552 19815 -888 19814.6 -888 19814H-890C-890 19815.7 -888.656 19817 -887 19817V19815ZM15130 19814C15130 19814.6 15129.6 19815 15129 19815V19817C15130.7 19817 15132 19815.7 15132 19814H15130ZM15129 -20934C15129.6 -20934 15130 -20933.6 15130 -20933H15132C15132 -20934.7 15130.7 -20936 15129 -20936V-20934ZM-887 -20936C-888.656 -20936 -890 -20934.7 -890 -20933H-888C-888 -20933.6 -887.553 -20934 -887 -20934V-20936Z" fill="white" fill-opacity="0.1"/>
<g id="&#236;&#152;&#164;&#235;&#139;&#181;&#235;&#170;&#168;&#236;&#149;&#132;_&#235;&#130;&#152;&#236;&#149;&#188;&#235;&#176;&#156;&#236;&#157;&#140;&#236;&#153;&#149;_&#236;&#167;&#128;&#236;&#154;&#176;&#234;&#184;&#176;&#235;&#178;&#132;&#237;&#138;&#188; &#237;&#153;&#156;&#236;&#132;&#177;" clip-path="url(#clip0_2797_8121)">
<rect width="1920" height="1080" transform="translate(-420 -198)" fill="#FCFBF9"/>
<g id="&#236;&#152;&#164;&#235;&#139;&#181;&#235;&#170;&#168;&#236;&#149;&#132;_&#235;&#130;&#152;&#236;&#149;&#188;&#235;&#176;&#156;&#236;&#157;&#140;&#236;&#153;&#149;_&#236;&#167;&#128;&#236;&#154;&#176;&#234;&#184;&#176;&#235;&#178;&#132;&#237;&#138;&#188; &#237;&#153;&#156;&#236;&#132;&#177;_2">
<rect width="1280" height="958" transform="translate(-100 -118)" fill="#FCFBF9"/>
<g id="Frame 1707483703">
<g id="Frame 1707483683">
<path id="Rectangle 34624749" d="M168.855 7.48836C167.711 3.07888 163.731 0 159.176 0H20C8.9543 0 0 8.9543 0 20V62H183L168.855 7.48836Z" fill="#F9BC5F"/>
</g>
</g>
</g>
</g>
</g>
<defs>
<clipPath id="clip0_2797_8121">
<rect width="1920" height="1080" fill="white" transform="translate(-420 -198)"/>
</clipPath>
</defs>
</svg>
