<svg width="390" height="844" viewBox="0 0 390 844" fill="none" xmlns="http://www.w3.org/2000/svg">
<g clip-path="url(#clip0_3539_11540)">
<rect width="390" height="844" fill="#FBFBFC"/>
<path fill-rule="evenodd" clip-rule="evenodd" d="M31.7175 62.2742C31.3259 61.8826 30.691 61.8826 30.2994 62.2742L24.2829 68.2907C23.8913 68.6823 23.8913 69.3172 24.2829 69.7088L30.2994 75.7253C30.691 76.1169 31.3259 76.1169 31.7175 75.7253C32.1091 75.3337 32.1091 74.6988 31.7175 74.3072L26.4101 68.9998L31.7175 63.6923C32.1091 63.3007 32.1091 62.6658 31.7175 62.2742Z" fill="#504F4E"/>
<mask id="path-2-inside-1_3539_11540" fill="white">
<path d="M148 56H242V82H148V56Z"/>
</mask>
<path d="M242 74H148V90H242V74Z" fill="#FBD498" mask="url(#path-2-inside-1_3539_11540)"/>
<path d="M165.07 66.7617V68.793H162.551V77.7578H160.051V60.0234H162.551V66.7617H165.07ZM151.574 61.7227V71.3516C153.85 71.3223 156.291 71.1074 158.859 70.5898L159.113 72.6602C156.145 73.2656 153.254 73.4219 150.637 73.4219H149.094V61.7227H151.574ZM170.198 61.2734C172.913 61.2734 174.866 63.7344 174.885 67.6016C174.866 71.5078 172.913 73.9492 170.198 73.9492C167.483 73.9492 165.491 71.5078 165.51 67.6016C165.491 63.7344 167.483 61.2734 170.198 61.2734ZM170.198 63.5195C168.83 63.5195 167.913 64.9648 167.913 67.6016C167.913 70.2578 168.83 71.6836 170.198 71.6836C171.584 71.6836 172.483 70.2578 172.502 67.6016C172.483 64.9648 171.584 63.5195 170.198 63.5195ZM181.955 64.1445V66.2344H179.436V69.3984H181.955V71.4297H179.436V77.7969H176.936V60.0234H179.436V64.1445H181.955ZM186.048 74.5547L184.368 80.1211H182.298L183.274 74.5547H186.048ZM194.213 60.8242V62.9336H197.845V60.8242H200.345V68.5781H191.732V60.8242H194.213ZM194.213 66.625H197.845V64.8086H194.213V66.625ZM205.306 60.0234V63.4805H207.709V65.4922H205.306V69.0664H202.806V60.0234H205.306ZM205.306 69.7305V74.5547H195.99V75.707H205.814V77.6797H193.548V72.7773H202.826V71.6641H193.509V69.7305H205.306ZM216.195 60.3555C220.141 60.3555 222.641 61.6641 222.66 63.832C222.641 65.9805 220.141 67.2891 216.195 67.2695C212.27 67.2891 209.711 65.9805 209.711 63.832C209.711 61.6641 212.27 60.3555 216.195 60.3555ZM216.195 62.2891C213.715 62.2891 212.289 62.8164 212.309 63.832C212.289 64.8281 213.715 65.3359 216.195 65.3359C218.656 65.3359 220.082 64.8281 220.082 63.832C220.082 62.8164 218.656 62.2891 216.195 62.2891ZM222.367 71.5469V77.6016H209.965V71.5469H222.367ZM212.426 73.5195V75.6094H219.926V73.5195H212.426ZM224.301 68.3047V70.2969H208.09V68.3047H224.301ZM239.194 60.043V64.5547H241.459V66.625H239.194V71.1953H236.694V60.043H239.194ZM233.198 71.4102C236.948 71.4102 239.252 72.582 239.252 74.6328C239.252 76.5859 236.948 77.7969 233.198 77.7969C229.448 77.7969 227.123 76.5859 227.123 74.6328C227.123 72.582 229.448 71.4102 233.198 71.4102ZM233.198 73.2852C230.854 73.3047 229.565 73.7344 229.584 74.6328C229.565 75.4727 230.854 75.9023 233.198 75.9023C235.502 75.9023 236.772 75.4727 236.791 74.6328C236.772 73.7344 235.502 73.3047 233.198 73.2852ZM224.936 68.5391C226.176 68.5391 227.612 68.5293 229.116 68.4805V67.25C227.143 66.8984 225.834 65.6387 225.854 63.9492C225.834 61.9375 227.69 60.5508 230.327 60.5508C232.944 60.5508 234.799 61.9375 234.799 63.9492C234.799 65.6094 233.53 66.8594 231.616 67.2305V68.3828C233.012 68.3145 234.409 68.207 235.698 68.0312L235.912 69.75C232.26 70.3945 228.198 70.4531 225.19 70.4531L224.936 68.5391ZM230.327 62.4062C229.018 62.4062 228.159 62.9531 228.178 63.9492C228.159 64.9648 229.018 65.5508 230.327 65.5508C231.596 65.5508 232.455 64.9648 232.455 63.9492C232.455 62.9531 231.596 62.4062 230.327 62.4062Z" fill="#855205"/>
<rect x="16" y="110" width="358" height="14" fill="#FDEACE"/>
<path d="M16 110H69C72.866 110 76 113.134 76 117C76 120.866 72.866 124 69 124H16V110Z" fill="#F9BC5F"/>
<rect x="159.068" y="206.119" width="92" height="32" rx="16" fill="#F9BC5F"/>
<path d="M188.965 226.619H187.174V218.457H187.12L184.809 219.934V218.307L187.256 216.721H188.965V226.619ZM201.031 224.609H199.514V220.057H197.025V222.6H191.242V216.297H192.76V218.293H195.521V216.297H197.025V218.826H199.514V215.49H201.031V224.609ZM201.305 227.59H192.883V223.707H194.428V226.359H201.305V227.59ZM195.521 221.396V219.469H192.76V221.396H195.521ZM213.78 222.873H209.009V225.143H207.505V222.873H202.487V221.656H213.78V222.873ZM212.331 220.508H203.923V216.037H212.331V220.508ZM205.4 219.318H210.827V217.227H205.4V219.318ZM212.536 227.59H203.855V224.008H205.372V226.359H212.536V227.59ZM224.957 227.836H223.508V215.477H224.957V227.836ZM222.442 227.234H221.006V221.014H219.229V219.783H221.006V215.709H222.442V227.234ZM218.135 218.854C218.135 219.578 218.224 220.273 218.402 220.938C218.584 221.604 218.862 222.208 219.236 222.75C219.614 223.292 220.086 223.725 220.651 224.049L219.748 225.17C219.192 224.837 218.721 224.393 218.333 223.837C217.946 223.276 217.641 222.632 217.417 221.902C217.194 222.691 216.882 223.393 216.481 224.008C216.08 224.618 215.597 225.102 215.032 225.457L214.102 224.322C214.676 223.976 215.155 223.513 215.538 222.935C215.925 222.356 216.21 221.718 216.392 221.021C216.579 220.319 216.672 219.596 216.672 218.854V218.033H214.526V216.803H220.131V218.033H218.135V218.854Z" fill="#363635"/>
<rect x="16" y="260" width="357" height="100" rx="16" fill="#FDEACE"/>
<path d="M72.5318 298.768H71.8598V307.216C71.8598 307.632 71.6358 307.84 71.1878 307.84H70.1638C69.7158 307.84 69.4918 307.632 69.4918 307.216V306.496C67.5078 306.992 65.2838 307.232 62.8038 307.232C62.4518 307.232 62.2758 307.072 62.2758 306.752V292.768C62.2758 292.384 62.4998 292.176 62.9638 292.176H64.0998C64.5158 292.176 64.7398 292.384 64.7398 292.784V304.768C66.2438 304.768 67.8278 304.576 69.4918 304.16V292.448C69.4918 292.08 69.6838 291.888 70.0998 291.888H71.2038C71.6358 291.888 71.8598 292.08 71.8598 292.464V296.272H72.5318V292.448C72.5318 292.08 72.7238 291.888 73.1398 291.888H74.2598C74.6758 291.888 74.8838 292.08 74.8838 292.464V307.216C74.8838 307.632 74.6598 307.84 74.2438 307.84H73.2038C72.7558 307.84 72.5318 307.632 72.5318 307.184V298.768ZM88.3278 296.272C88.7758 296.272 88.9998 296.48 88.9998 296.88V298.096C88.9998 298.544 88.7758 298.768 88.3598 298.768H87.5598V307.136C87.5598 307.616 87.3358 307.856 86.9198 307.856H85.6878C85.2398 307.856 85.0158 307.632 85.0158 307.168V292.448C85.0158 292.08 85.2078 291.888 85.6078 291.888H86.9358C87.3518 291.888 87.5598 292.08 87.5598 292.464V296.272H88.3278ZM81.1598 294.88C81.1598 294.64 81.0318 294.512 80.7758 294.512H76.9038C76.5198 294.512 76.3438 294.304 76.3438 293.872V292.896C76.3438 292.448 76.5358 292.208 76.9518 292.208H83.1438C83.6078 292.208 83.8478 292.496 83.8478 293.056C83.8798 299.568 82.3758 304.256 79.3358 307.136C79.0638 307.408 78.6318 307.536 78.0558 307.536H77.1438C76.7918 307.536 76.5838 307.44 76.5198 307.232C76.4558 307.024 76.5838 306.768 76.9038 306.48C79.7998 303.632 81.2238 299.76 81.1598 294.88ZM104.45 305.136C104.898 305.136 105.122 305.376 105.122 305.824V306.864C105.122 307.296 104.898 307.504 104.45 307.504H94.7702C94.2902 307.504 94.0502 307.28 94.0502 306.8V305.824C94.0502 305.376 94.2742 305.136 94.7382 305.136H104.45ZM104.53 292.208C104.914 292.208 105.122 292.432 105.122 292.88C105.122 296.784 104.818 300.272 104.226 303.376C104.146 303.792 103.874 303.984 103.41 303.984H102.338C102.05 303.984 101.858 303.92 101.794 303.76C101.714 303.616 101.698 303.424 101.762 303.168C102.178 300.592 102.434 297.84 102.498 294.896C102.53 294.64 102.418 294.496 102.162 294.496H94.5782C94.2262 294.496 94.0502 294.32 94.0502 293.952V292.768C94.0502 292.4 94.2262 292.208 94.5782 292.208H104.53ZM117.915 305.632C118.331 305.632 118.539 305.824 118.539 306.192V307.248C118.539 307.664 118.347 307.856 117.963 307.856H107.419C106.987 307.856 106.779 307.68 106.779 307.312V303.488C106.779 303.12 106.971 302.928 107.387 302.928H108.731C109.115 302.928 109.323 303.12 109.323 303.488V305.632H117.915ZM118.427 301.408C118.395 301.872 118.155 302.112 117.675 302.128H116.715C116.203 302.128 115.947 301.936 115.947 301.552V300.928C113.355 301.664 110.539 302.032 107.499 302.032C106.955 302.032 106.683 301.824 106.683 301.392V295.968C106.683 295.616 106.875 295.424 107.291 295.424H112.011V294.32H107.451C106.955 294.32 106.715 294.128 106.715 293.744V292.896C106.715 292.432 106.907 292.192 107.323 292.192H113.643C114.155 292.192 114.411 292.416 114.411 292.832V296.832C114.411 297.408 114.107 297.68 113.499 297.68H109.051V299.76C111.675 299.632 113.963 299.232 115.947 298.528V292.432C115.947 292.064 116.203 291.872 116.715 291.872H117.659C118.171 291.872 118.427 292.064 118.427 292.448V301.408ZM135.549 307.136C135.549 307.616 135.325 307.856 134.909 307.856H133.677C133.229 307.856 133.005 307.632 133.005 307.168V292.448C133.005 292.08 133.197 291.888 133.597 291.888H134.925C135.341 291.888 135.549 292.08 135.549 292.464V307.136ZM129.149 294.88C129.149 294.64 129.021 294.512 128.765 294.512H124.493C124.109 294.512 123.933 294.304 123.933 293.872V292.896C123.933 292.448 124.125 292.208 124.541 292.208H131.133C131.597 292.208 131.837 292.496 131.837 293.056C131.869 299.568 130.205 304.256 126.845 307.136C126.573 307.408 126.141 307.536 125.565 307.536H124.653C124.301 307.536 124.093 307.44 124.029 307.232C123.965 307.024 124.093 306.768 124.413 306.48C127.629 303.632 129.213 299.76 129.149 294.88ZM148.346 305.632C148.762 305.632 148.97 305.824 148.97 306.192V307.248C148.97 307.664 148.778 307.856 148.394 307.856H137.85C137.418 307.856 137.21 307.68 137.21 307.312V303.488C137.21 303.12 137.402 302.928 137.818 302.928H139.162C139.546 302.928 139.754 303.12 139.754 303.488V305.632H148.346ZM148.858 301.408C148.826 301.872 148.586 302.112 148.106 302.128H147.146C146.634 302.128 146.378 301.936 146.378 301.552V300.928C143.786 301.664 140.97 302.032 137.93 302.032C137.386 302.032 137.114 301.824 137.114 301.392V295.968C137.114 295.616 137.306 295.424 137.722 295.424H142.442V294.32H137.882C137.386 294.32 137.146 294.128 137.146 293.744V292.896C137.146 292.432 137.338 292.192 137.754 292.192H144.074C144.586 292.192 144.842 292.416 144.842 292.832V296.832C144.842 297.408 144.538 297.68 143.93 297.68H139.482V299.76C142.106 299.632 144.394 299.232 146.378 298.528V292.432C146.378 292.064 146.634 291.872 147.146 291.872H148.09C148.602 291.872 148.858 292.064 148.858 292.448V301.408ZM164.796 305.136C165.244 305.136 165.468 305.376 165.468 305.824V306.864C165.468 307.296 165.244 307.504 164.796 307.504H155.116C154.636 307.504 154.396 307.28 154.396 306.8V305.824C154.396 305.376 154.62 305.136 155.084 305.136H164.796ZM164.876 292.208C165.26 292.208 165.468 292.432 165.468 292.88C165.468 296.784 165.164 300.272 164.572 303.376C164.492 303.792 164.22 303.984 163.756 303.984H162.684C162.396 303.984 162.204 303.92 162.14 303.76C162.06 303.616 162.044 303.424 162.108 303.168C162.524 300.592 162.78 297.84 162.844 294.896C162.876 294.64 162.764 294.496 162.508 294.496H154.924C154.572 294.496 154.396 294.32 154.396 293.952V292.768C154.396 292.4 154.572 292.208 154.924 292.208H164.876ZM178.773 300.832C178.757 301.296 178.517 301.536 178.053 301.552H177.077C176.565 301.552 176.309 301.36 176.309 300.976V300.256C173.653 301.056 170.837 301.456 167.845 301.456C167.285 301.456 167.013 301.248 167.013 300.816V295.76C167.013 295.408 167.205 295.216 167.605 295.216H172.309V294.336H167.781C167.269 294.336 167.029 294.144 167.029 293.76V292.912C167.029 292.448 167.221 292.208 167.637 292.208H173.941C174.453 292.208 174.709 292.432 174.709 292.848V296.512C174.709 297.088 174.405 297.36 173.813 297.36H169.365V299.248C171.973 299.12 174.293 298.688 176.309 297.92V292.432C176.309 292.064 176.565 291.872 177.077 291.872H178.021C178.517 291.872 178.773 292.064 178.773 292.448V300.832ZM178.805 307.184C178.805 307.632 178.549 307.856 178.069 307.856H167.829C167.381 307.856 167.157 307.68 167.157 307.312V302.736C167.157 302.352 167.397 302.144 167.893 302.144H178.069C178.549 302.144 178.805 302.352 178.805 302.736V307.184ZM176.309 305.904V304.16H169.637V305.936L176.309 305.904ZM181.038 302.224C180.558 302.224 180.334 302 180.334 301.52V300.496C180.334 300.048 180.542 299.824 180.974 299.824H191.55C191.966 299.84 192.19 300.032 192.19 300.416V301.52C192.19 302 191.966 302.224 191.55 302.224H181.038ZM191.55 305.504C191.966 305.504 192.19 305.696 192.19 306.064V307.216C192.19 307.648 191.982 307.856 191.598 307.856H180.942C180.542 307.856 180.35 307.664 180.35 307.264V303.584C180.35 303.168 180.558 302.96 180.99 302.96H182.222C182.638 302.96 182.862 303.168 182.862 303.568V305.504H191.55ZM186.254 291.728C187.486 291.728 188.494 291.808 189.262 291.968C190.03 292.128 190.638 292.352 191.07 292.656C191.502 292.976 191.79 293.36 191.95 293.824C192.11 294.304 192.19 294.848 192.19 295.456C192.19 296.048 192.11 296.56 191.95 296.992C191.79 297.44 191.486 297.808 191.054 298.096C190.606 298.384 189.998 298.608 189.23 298.752C188.462 298.896 187.454 298.96 186.238 298.96C185.086 298.96 184.142 298.896 183.39 298.752C182.622 298.608 182.03 298.384 181.582 298.096C181.134 297.808 180.814 297.44 180.622 296.992C180.43 296.56 180.35 296.048 180.35 295.456C180.35 294.848 180.43 294.304 180.622 293.84C180.798 293.376 181.102 292.992 181.55 292.672C181.998 292.352 182.59 292.128 183.358 291.968C184.11 291.808 185.07 291.728 186.254 291.728ZM186.238 296.784C186.91 296.784 187.47 296.768 187.918 296.704C188.366 296.656 188.718 296.576 188.99 296.464C189.262 296.352 189.454 296.208 189.566 296.048C189.678 295.888 189.742 295.68 189.742 295.456C189.742 295.2 189.678 294.976 189.566 294.784C189.438 294.592 189.246 294.432 188.974 294.304C188.702 294.176 188.35 294.08 187.902 294.016C187.454 293.952 186.894 293.92 186.254 293.92C185.598 293.92 185.054 293.952 184.622 294.016C184.174 294.08 183.822 294.176 183.566 294.304C183.294 294.432 183.102 294.592 182.99 294.784C182.862 294.976 182.814 295.2 182.814 295.456C182.814 295.68 182.862 295.888 182.958 296.048C183.054 296.208 183.23 296.352 183.486 296.464C183.742 296.576 184.078 296.656 184.526 296.704C184.974 296.768 185.534 296.784 186.238 296.784ZM200.397 305.392V306H209.021C209.373 306 209.565 306.144 209.565 306.464V307.328C209.565 307.68 209.373 307.856 209.021 307.856H198.589C198.093 307.856 197.853 307.632 197.853 307.184V304.592C197.853 304.144 198.061 303.904 198.493 303.904H207.021V303.296H198.525C198.077 303.296 197.853 303.12 197.853 302.752V302.08C197.853 301.68 198.029 301.472 198.413 301.472H208.861C209.325 301.472 209.565 301.664 209.565 302.032V304.928C209.565 305.248 209.373 305.392 209.021 305.392H200.397ZM201.437 294.336C201.325 294.576 201.229 294.816 201.149 295.072C204.157 294.848 205.645 296.544 205.613 300.16C205.613 300.624 205.357 300.864 204.877 300.864H203.725C203.309 300.864 203.117 300.656 203.117 300.24C203.085 297.904 202.237 296.96 200.589 297.408C200.461 298.272 200.381 299.216 200.381 300.24C200.381 300.656 200.141 300.848 199.677 300.848H198.589C198.141 300.848 197.917 300.624 197.917 300.176C197.917 298.256 198.269 296.304 198.957 294.336H198.221C197.885 294.336 197.725 294.176 197.725 293.84V292.688C197.725 292.368 197.885 292.192 198.221 292.192H205.277C205.645 292.192 205.837 292.368 205.837 292.704V293.76C205.837 294.144 205.645 294.336 205.261 294.336H201.437ZM210.029 294.944C210.365 294.944 210.541 295.152 210.541 295.552V296.848C210.541 297.248 210.349 297.44 209.997 297.44H209.181V300.256C209.181 300.672 208.957 300.864 208.525 300.864H207.245C206.813 300.864 206.605 300.672 206.605 300.288V292.4C206.605 292.064 206.813 291.888 207.229 291.888H208.557C208.973 291.888 209.181 292.08 209.181 292.432V294.944H210.029ZM226.063 305.136C226.511 305.136 226.735 305.376 226.735 305.824V306.864C226.735 307.296 226.511 307.504 226.063 307.504H216.383C215.903 307.504 215.663 307.28 215.663 306.8V305.824C215.663 305.376 215.887 305.136 216.351 305.136H226.063ZM226.143 292.208C226.527 292.208 226.735 292.432 226.735 292.88C226.735 296.784 226.431 300.272 225.839 303.376C225.759 303.792 225.487 303.984 225.023 303.984H223.951C223.663 303.984 223.471 303.92 223.407 303.76C223.327 303.616 223.311 303.424 223.375 303.168C223.791 300.592 224.047 297.84 224.111 294.896C224.143 294.64 224.031 294.496 223.775 294.496H216.191C215.839 294.496 215.663 294.32 215.663 293.952V292.768C215.663 292.4 215.839 292.208 216.191 292.208H226.143ZM239.528 305.632C239.944 305.632 240.152 305.824 240.152 306.192V307.248C240.152 307.664 239.96 307.856 239.576 307.856H229.032C228.6 307.856 228.392 307.68 228.392 307.312V303.488C228.392 303.12 228.584 302.928 229 302.928H230.344C230.728 302.928 230.936 303.12 230.936 303.488V305.632H239.528ZM240.04 301.408C240.008 301.872 239.768 302.112 239.288 302.128H238.328C237.816 302.128 237.56 301.936 237.56 301.552V300.928C234.968 301.664 232.152 302.032 229.112 302.032C228.568 302.032 228.296 301.824 228.296 301.392V295.968C228.296 295.616 228.488 295.424 228.904 295.424H233.624V294.32H229.064C228.568 294.32 228.328 294.128 228.328 293.744V292.896C228.328 292.432 228.52 292.192 228.936 292.192H235.256C235.768 292.192 236.024 292.416 236.024 292.832V296.832C236.024 297.408 235.72 297.68 235.112 297.68H230.664V299.76C233.288 299.632 235.576 299.232 237.56 298.528V292.432C237.56 292.064 237.816 291.872 238.328 291.872H239.272C239.784 291.872 240.04 292.064 240.04 292.448V301.408ZM257.162 307.136C257.162 307.616 256.938 307.856 256.522 307.856H255.29C254.842 307.856 254.618 307.632 254.618 307.168V292.448C254.618 292.08 254.81 291.888 255.21 291.888H256.538C256.954 291.888 257.162 292.08 257.162 292.464V307.136ZM250.762 294.88C250.762 294.64 250.634 294.512 250.378 294.512H246.106C245.722 294.512 245.546 294.304 245.546 293.872V292.896C245.546 292.448 245.738 292.208 246.154 292.208H252.746C253.21 292.208 253.45 292.496 253.45 293.056C253.482 299.568 251.818 304.256 248.458 307.136C248.186 307.408 247.754 307.536 247.178 307.536H246.266C245.914 307.536 245.706 307.44 245.642 307.232C245.578 307.024 245.706 306.768 246.026 306.48C249.242 303.632 250.826 299.76 250.762 294.88ZM269.959 305.632C270.375 305.632 270.583 305.824 270.583 306.192V307.248C270.583 307.664 270.391 307.856 270.007 307.856H259.463C259.031 307.856 258.823 307.68 258.823 307.312V303.488C258.823 303.12 259.015 302.928 259.431 302.928H260.775C261.159 302.928 261.367 303.12 261.367 303.488V305.632H269.959ZM270.471 301.408C270.439 301.872 270.199 302.112 269.719 302.128H268.759C268.247 302.128 267.991 301.936 267.991 301.552V300.928C265.399 301.664 262.583 302.032 259.543 302.032C258.999 302.032 258.727 301.824 258.727 301.392V295.968C258.727 295.616 258.919 295.424 259.335 295.424H264.055V294.32H259.495C258.999 294.32 258.759 294.128 258.759 293.744V292.896C258.759 292.432 258.951 292.192 259.367 292.192H265.687C266.199 292.192 266.455 292.416 266.455 292.832V296.832C266.455 297.408 266.151 297.68 265.543 297.68H261.095V299.76C263.719 299.632 266.007 299.232 267.991 298.528V292.432C267.991 292.064 268.247 291.872 268.759 291.872H269.703C270.215 291.872 270.471 292.064 270.471 292.448V301.408ZM286.409 305.136C286.857 305.136 287.081 305.376 287.081 305.824V306.864C287.081 307.296 286.857 307.504 286.409 307.504H276.729C276.249 307.504 276.009 307.28 276.009 306.8V305.824C276.009 305.376 276.233 305.136 276.697 305.136H286.409ZM286.489 292.208C286.873 292.208 287.081 292.432 287.081 292.88C287.081 296.784 286.777 300.272 286.185 303.376C286.105 303.792 285.833 303.984 285.369 303.984H284.297C284.009 303.984 283.817 303.92 283.753 303.76C283.673 303.616 283.657 303.424 283.721 303.168C284.137 300.592 284.393 297.84 284.457 294.896C284.489 294.64 284.377 294.496 284.121 294.496H276.537C276.185 294.496 276.009 294.32 276.009 293.952V292.768C276.009 292.4 276.185 292.208 276.537 292.208H286.489ZM300.386 300.832C300.37 301.296 300.13 301.536 299.666 301.552H298.69C298.178 301.552 297.922 301.36 297.922 300.976V300.256C295.266 301.056 292.45 301.456 289.458 301.456C288.898 301.456 288.626 301.248 288.626 300.816V295.76C288.626 295.408 288.818 295.216 289.218 295.216H293.922V294.336H289.394C288.882 294.336 288.642 294.144 288.642 293.76V292.912C288.642 292.448 288.834 292.208 289.25 292.208H295.554C296.066 292.208 296.322 292.432 296.322 292.848V296.512C296.322 297.088 296.018 297.36 295.426 297.36H290.978V299.248C293.586 299.12 295.906 298.688 297.922 297.92V292.432C297.922 292.064 298.178 291.872 298.69 291.872H299.634C300.13 291.872 300.386 292.064 300.386 292.448V300.832ZM300.418 307.184C300.418 307.632 300.162 307.856 299.682 307.856H289.442C288.994 307.856 288.77 307.68 288.77 307.312V302.736C288.77 302.352 289.01 302.144 289.506 302.144H299.682C300.162 302.144 300.418 302.352 300.418 302.736V307.184ZM297.922 305.904V304.16H291.25V305.936L297.922 305.904ZM313.755 307.28C313.755 307.664 313.563 307.856 313.179 307.856H311.803C311.403 307.856 311.211 307.648 311.211 307.232V292.448C311.211 292.08 311.403 291.888 311.803 291.888H313.131C313.547 291.888 313.755 292.096 313.755 292.48V307.28ZM306.059 291.888C306.891 291.888 307.563 292.048 308.107 292.368C308.635 292.688 309.051 293.184 309.371 293.824C309.675 294.464 309.883 295.28 310.011 296.24C310.123 297.2 310.187 298.336 310.187 299.616C310.187 300.992 310.123 302.208 309.995 303.232C309.867 304.256 309.643 305.12 309.339 305.808C309.019 306.496 308.603 307.008 308.075 307.344C307.531 307.696 306.859 307.856 306.059 307.856C305.227 307.856 304.539 307.696 303.995 307.344C303.451 306.992 303.019 306.48 302.699 305.792C302.379 305.104 302.171 304.24 302.043 303.216C301.915 302.192 301.851 300.992 301.851 299.616C301.851 298.336 301.915 297.216 302.059 296.256C302.203 295.296 302.443 294.48 302.763 293.84C303.083 293.2 303.515 292.704 304.059 292.384C304.603 292.064 305.259 291.888 306.059 291.888ZM307.787 299.616C307.787 298.72 307.755 297.92 307.723 297.232C307.675 296.56 307.595 295.984 307.467 295.536C307.339 295.088 307.163 294.736 306.939 294.512C306.715 294.288 306.427 294.176 306.075 294.176C305.707 294.176 305.419 294.288 305.195 294.512C304.971 294.736 304.795 295.088 304.667 295.536C304.539 295.984 304.459 296.56 304.427 297.232C304.379 297.92 304.363 298.72 304.363 299.616C304.363 301.616 304.475 303.12 304.715 304.112C304.939 305.104 305.403 305.6 306.075 305.6C306.411 305.6 306.699 305.488 306.923 305.232C307.147 304.976 307.323 304.608 307.451 304.096C307.579 303.6 307.659 302.976 307.707 302.224C307.755 301.488 307.787 300.608 307.787 299.616ZM325.986 305.136C326.434 305.136 326.658 305.376 326.658 305.824V306.864C326.658 307.296 326.434 307.504 325.986 307.504H316.018C315.538 307.504 315.298 307.28 315.298 306.8V305.824C315.298 305.376 315.522 305.136 315.986 305.136H318.594V298.672C318.594 298.208 318.834 297.968 319.346 297.968H320.418C320.898 297.968 321.154 298.208 321.154 298.672V305.136H325.986ZM326.066 292.208C326.45 292.208 326.658 292.432 326.658 292.88C326.658 296.784 326.354 300.272 325.762 303.376C325.682 303.792 325.41 303.984 324.946 303.984H323.874C323.586 303.984 323.394 303.92 323.33 303.76C323.25 303.616 323.234 303.424 323.298 303.168C323.714 300.592 323.97 297.84 324.034 294.896C324.066 294.64 323.954 294.496 323.698 294.496H315.826C315.474 294.496 315.298 294.32 315.298 293.952V292.768C315.298 292.4 315.474 292.208 315.826 292.208H326.066ZM69.2857 331.232C69.2857 331.648 69.0617 331.856 68.6297 331.856H67.6057C67.1577 331.856 66.9497 331.648 66.9497 331.232V330.688C65.0937 331.184 63.0617 331.424 60.8857 331.424C60.5177 331.424 60.3417 331.264 60.3417 330.944V316.8C60.3417 316.416 60.5657 316.208 61.0297 316.208H62.1657C62.5977 316.208 62.8217 316.416 62.8217 316.816V328.96C64.2937 328.96 65.6697 328.768 66.9497 328.352V322.768H65.5417C65.0617 322.768 64.8377 322.544 64.8377 322.096V320.864C64.8377 320.48 65.0617 320.272 65.5257 320.272H66.9497V316.416C66.9497 316.064 67.1417 315.872 67.5417 315.872H68.6617C69.0777 315.872 69.2857 316.064 69.2857 316.448V331.232ZM69.9577 316.416C69.9577 316.064 70.1657 315.872 70.5817 315.872H71.6697C72.1017 315.872 72.3257 316.064 72.3257 316.448V331.232C72.3257 331.648 72.1017 331.856 71.6537 331.856H70.6297C70.1817 331.856 69.9577 331.648 69.9577 331.232V316.416ZM85.7691 320.272C86.2171 320.272 86.4411 320.48 86.4411 320.88V322.096C86.4411 322.544 86.2171 322.768 85.8011 322.768H85.0011V331.136C85.0011 331.616 84.7771 331.856 84.3611 331.856H83.1291C82.6811 331.856 82.4571 331.632 82.4571 331.168V316.448C82.4571 316.08 82.6491 315.888 83.0491 315.888H84.3771C84.7931 315.888 85.0011 316.08 85.0011 316.464V320.272H85.7691ZM78.6011 318.88C78.6011 318.64 78.4731 318.512 78.2171 318.512H74.3451C73.9611 318.512 73.7851 318.304 73.7851 317.872V316.896C73.7851 316.448 73.9771 316.208 74.3931 316.208H80.5851C81.0491 316.208 81.2891 316.496 81.2891 317.056C81.3211 323.568 79.8171 328.256 76.7771 331.136C76.5051 331.408 76.0731 331.536 75.4971 331.536H74.5851C74.2331 331.536 74.0251 331.44 73.9611 331.232C73.8971 331.024 74.0251 330.768 74.3451 330.48C77.2411 327.632 78.6651 323.76 78.6011 318.88ZM101.891 329.136C102.339 329.136 102.563 329.376 102.563 329.824V330.864C102.563 331.296 102.339 331.504 101.891 331.504H92.2114C91.7314 331.504 91.4914 331.28 91.4914 330.8V329.824C91.4914 329.376 91.7154 329.136 92.1794 329.136H101.891ZM101.971 316.208C102.355 316.208 102.563 316.432 102.563 316.88C102.563 320.784 102.259 324.272 101.667 327.376C101.587 327.792 101.315 327.984 100.851 327.984H99.7794C99.4914 327.984 99.2994 327.92 99.2354 327.76C99.1554 327.616 99.1394 327.424 99.2034 327.168C99.6194 324.592 99.8754 321.84 99.9394 318.896C99.9714 318.64 99.8594 318.496 99.6034 318.496H92.0194C91.6674 318.496 91.4914 318.32 91.4914 317.952V316.768C91.4914 316.4 91.6674 316.208 92.0194 316.208H101.971ZM115.357 329.632C115.773 329.632 115.981 329.824 115.981 330.192V331.248C115.981 331.664 115.789 331.856 115.405 331.856H104.861C104.429 331.856 104.221 331.68 104.221 331.312V327.488C104.221 327.12 104.413 326.928 104.829 326.928H106.173C106.557 326.928 106.765 327.12 106.765 327.488V329.632H115.357ZM115.869 325.408C115.837 325.872 115.597 326.112 115.117 326.128H114.157C113.645 326.128 113.389 325.936 113.389 325.552V324.928C110.797 325.664 107.981 326.032 104.941 326.032C104.397 326.032 104.125 325.824 104.125 325.392V319.968C104.125 319.616 104.317 319.424 104.733 319.424H109.453V318.32H104.893C104.397 318.32 104.157 318.128 104.157 317.744V316.896C104.157 316.432 104.349 316.192 104.765 316.192H111.085C111.597 316.192 111.853 316.416 111.853 316.832V320.832C111.853 321.408 111.549 321.68 110.941 321.68H106.493V323.76C109.117 323.632 111.405 323.232 113.389 322.528V316.432C113.389 316.064 113.645 315.872 114.157 315.872H115.101C115.613 315.872 115.869 316.064 115.869 316.448V325.408ZM132.99 331.136C132.99 331.616 132.766 331.856 132.35 331.856H131.118C130.67 331.856 130.446 331.632 130.446 331.168V316.448C130.446 316.08 130.638 315.888 131.038 315.888H132.366C132.782 315.888 132.99 316.08 132.99 316.464V331.136ZM126.59 318.88C126.59 318.64 126.462 318.512 126.206 318.512H121.934C121.55 318.512 121.374 318.304 121.374 317.872V316.896C121.374 316.448 121.566 316.208 121.982 316.208H128.574C129.038 316.208 129.278 316.496 129.278 317.056C129.31 323.568 127.646 328.256 124.286 331.136C124.014 331.408 123.582 331.536 123.006 331.536H122.094C121.742 331.536 121.534 331.44 121.47 331.232C121.406 331.024 121.534 330.768 121.854 330.48C125.07 327.632 126.654 323.76 126.59 318.88ZM145.787 329.632C146.203 329.632 146.411 329.824 146.411 330.192V331.248C146.411 331.664 146.219 331.856 145.835 331.856H135.291C134.859 331.856 134.651 331.68 134.651 331.312V327.488C134.651 327.12 134.843 326.928 135.259 326.928H136.603C136.987 326.928 137.195 327.12 137.195 327.488V329.632H145.787ZM146.299 325.408C146.267 325.872 146.027 326.112 145.547 326.128H144.587C144.075 326.128 143.819 325.936 143.819 325.552V324.928C141.227 325.664 138.411 326.032 135.371 326.032C134.827 326.032 134.555 325.824 134.555 325.392V319.968C134.555 319.616 134.747 319.424 135.163 319.424H139.883V318.32H135.323C134.827 318.32 134.587 318.128 134.587 317.744V316.896C134.587 316.432 134.779 316.192 135.195 316.192H141.515C142.027 316.192 142.283 316.416 142.283 316.832V320.832C142.283 321.408 141.979 321.68 141.371 321.68H136.923V323.76C139.547 323.632 141.835 323.232 143.819 322.528V316.432C143.819 316.064 144.075 315.872 144.587 315.872H145.531C146.043 315.872 146.299 316.064 146.299 316.448V325.408ZM162.237 329.136C162.685 329.136 162.909 329.376 162.909 329.824V330.864C162.909 331.296 162.685 331.504 162.237 331.504H152.557C152.077 331.504 151.837 331.28 151.837 330.8V329.824C151.837 329.376 152.061 329.136 152.525 329.136H162.237ZM162.317 316.208C162.701 316.208 162.909 316.432 162.909 316.88C162.909 320.784 162.605 324.272 162.013 327.376C161.933 327.792 161.661 327.984 161.197 327.984H160.125C159.837 327.984 159.645 327.92 159.581 327.76C159.501 327.616 159.485 327.424 159.549 327.168C159.965 324.592 160.221 321.84 160.285 318.896C160.317 318.64 160.205 318.496 159.949 318.496H152.365C152.013 318.496 151.837 318.32 151.837 317.952V316.768C151.837 316.4 152.013 316.208 152.365 316.208H162.317ZM176.214 324.832C176.198 325.296 175.958 325.536 175.494 325.552H174.518C174.006 325.552 173.75 325.36 173.75 324.976V324.256C171.094 325.056 168.278 325.456 165.286 325.456C164.726 325.456 164.454 325.248 164.454 324.816V319.76C164.454 319.408 164.646 319.216 165.046 319.216H169.75V318.336H165.222C164.71 318.336 164.47 318.144 164.47 317.76V316.912C164.47 316.448 164.662 316.208 165.078 316.208H171.382C171.894 316.208 172.15 316.432 172.15 316.848V320.512C172.15 321.088 171.846 321.36 171.254 321.36H166.806V323.248C169.414 323.12 171.734 322.688 173.75 321.92V316.432C173.75 316.064 174.006 315.872 174.518 315.872H175.462C175.958 315.872 176.214 316.064 176.214 316.448V324.832ZM176.246 331.184C176.246 331.632 175.99 331.856 175.51 331.856H165.27C164.822 331.856 164.598 331.68 164.598 331.312V326.736C164.598 326.352 164.838 326.144 165.334 326.144H175.51C175.99 326.144 176.246 326.352 176.246 326.736V331.184ZM173.75 329.904V328.16H167.078V329.936L173.75 329.904ZM178.479 326.224C177.999 326.224 177.775 326 177.775 325.52V324.496C177.775 324.048 177.983 323.824 178.415 323.824H188.991C189.407 323.84 189.631 324.032 189.631 324.416V325.52C189.631 326 189.407 326.224 188.991 326.224H178.479ZM188.991 329.504C189.407 329.504 189.631 329.696 189.631 330.064V331.216C189.631 331.648 189.423 331.856 189.039 331.856H178.383C177.983 331.856 177.791 331.664 177.791 331.264V327.584C177.791 327.168 177.999 326.96 178.431 326.96H179.663C180.079 326.96 180.303 327.168 180.303 327.568V329.504H188.991ZM183.695 315.728C184.927 315.728 185.935 315.808 186.703 315.968C187.471 316.128 188.079 316.352 188.511 316.656C188.943 316.976 189.231 317.36 189.391 317.824C189.551 318.304 189.631 318.848 189.631 319.456C189.631 320.048 189.551 320.56 189.391 320.992C189.231 321.44 188.927 321.808 188.495 322.096C188.047 322.384 187.439 322.608 186.671 322.752C185.903 322.896 184.895 322.96 183.679 322.96C182.527 322.96 181.583 322.896 180.831 322.752C180.063 322.608 179.471 322.384 179.023 322.096C178.575 321.808 178.255 321.44 178.063 320.992C177.871 320.56 177.791 320.048 177.791 319.456C177.791 318.848 177.871 318.304 178.063 317.84C178.239 317.376 178.543 316.992 178.991 316.672C179.439 316.352 180.031 316.128 180.799 315.968C181.551 315.808 182.511 315.728 183.695 315.728ZM183.679 320.784C184.351 320.784 184.911 320.768 185.359 320.704C185.807 320.656 186.159 320.576 186.431 320.464C186.703 320.352 186.895 320.208 187.007 320.048C187.119 319.888 187.183 319.68 187.183 319.456C187.183 319.2 187.119 318.976 187.007 318.784C186.879 318.592 186.687 318.432 186.415 318.304C186.143 318.176 185.791 318.08 185.343 318.016C184.895 317.952 184.335 317.92 183.695 317.92C183.039 317.92 182.495 317.952 182.063 318.016C181.615 318.08 181.263 318.176 181.007 318.304C180.735 318.432 180.543 318.592 180.431 318.784C180.303 318.976 180.255 319.2 180.255 319.456C180.255 319.68 180.303 319.888 180.399 320.048C180.495 320.208 180.671 320.352 180.927 320.464C181.183 320.576 181.519 320.656 181.967 320.704C182.415 320.768 182.975 320.784 183.679 320.784ZM202.366 322.016V322.944H206.398C206.798 322.944 207.006 323.152 207.006 323.536V324.624C207.006 325.008 206.814 325.184 206.43 325.184H195.71C195.326 325.184 195.134 324.992 195.134 324.592V323.536C195.134 323.152 195.326 322.944 195.71 322.944H199.758V322.016H195.726C195.326 322.016 195.134 321.84 195.134 321.456V316.4C195.134 316.048 195.31 315.856 195.694 315.856H206.366C206.782 315.856 207.006 316.048 207.006 316.4V321.36C207.006 321.808 206.782 322.016 206.35 322.016H202.366ZM197.614 319.888H204.606V317.936H197.614V319.888ZM204.59 331.856C204.19 331.856 203.998 331.68 204.03 331.328C204.158 329.408 202.958 328.512 200.43 328.656C199.95 329.888 199.31 330.832 198.494 331.504C198.206 331.744 197.902 331.856 197.582 331.856H195.614C195.422 331.856 195.326 331.792 195.294 331.648C195.262 331.52 195.358 331.36 195.55 331.2C197.15 329.888 198.046 328.288 198.238 326.416C198.27 326.096 198.478 325.92 198.862 325.92H200.366C200.718 325.92 200.862 326.064 200.83 326.32L200.798 326.608C204.926 326.416 206.958 328 206.894 331.36C206.862 331.696 206.67 331.856 206.318 331.856H204.59ZM222.942 329.136C223.39 329.136 223.614 329.376 223.614 329.824V330.864C223.614 331.296 223.39 331.504 222.942 331.504H213.262C212.782 331.504 212.542 331.28 212.542 330.8V329.824C212.542 329.376 212.766 329.136 213.23 329.136H222.942ZM223.022 316.208C223.406 316.208 223.614 316.432 223.614 316.88C223.614 320.784 223.31 324.272 222.718 327.376C222.638 327.792 222.366 327.984 221.902 327.984H220.83C220.542 327.984 220.35 327.92 220.286 327.76C220.206 327.616 220.19 327.424 220.254 327.168C220.67 324.592 220.926 321.84 220.99 318.896C221.022 318.64 220.91 318.496 220.654 318.496H213.07C212.718 318.496 212.542 318.32 212.542 317.952V316.768C212.542 316.4 212.718 316.208 213.07 316.208H223.022ZM236.407 329.632C236.823 329.632 237.031 329.824 237.031 330.192V331.248C237.031 331.664 236.839 331.856 236.455 331.856H225.911C225.479 331.856 225.271 331.68 225.271 331.312V327.488C225.271 327.12 225.463 326.928 225.879 326.928H227.223C227.607 326.928 227.815 327.12 227.815 327.488V329.632H236.407ZM236.919 325.408C236.887 325.872 236.647 326.112 236.167 326.128H235.207C234.695 326.128 234.439 325.936 234.439 325.552V324.928C231.847 325.664 229.031 326.032 225.991 326.032C225.447 326.032 225.175 325.824 225.175 325.392V319.968C225.175 319.616 225.367 319.424 225.783 319.424H230.503V318.32H225.943C225.447 318.32 225.207 318.128 225.207 317.744V316.896C225.207 316.432 225.399 316.192 225.815 316.192H232.135C232.647 316.192 232.903 316.416 232.903 316.832V320.832C232.903 321.408 232.599 321.68 231.991 321.68H227.543V323.76C230.167 323.632 232.455 323.232 234.439 322.528V316.432C234.439 316.064 234.695 315.872 235.207 315.872H236.151C236.663 315.872 236.919 316.064 236.919 316.448V325.408ZM254.041 331.136C254.041 331.616 253.817 331.856 253.401 331.856H252.169C251.721 331.856 251.497 331.632 251.497 331.168V316.448C251.497 316.08 251.689 315.888 252.089 315.888H253.417C253.833 315.888 254.041 316.08 254.041 316.464V331.136ZM247.641 318.88C247.641 318.64 247.513 318.512 247.257 318.512H242.985C242.601 318.512 242.425 318.304 242.425 317.872V316.896C242.425 316.448 242.617 316.208 243.033 316.208H249.625C250.089 316.208 250.329 316.496 250.329 317.056C250.361 323.568 248.697 328.256 245.337 331.136C245.065 331.408 244.633 331.536 244.057 331.536H243.145C242.793 331.536 242.585 331.44 242.521 331.232C242.457 331.024 242.585 330.768 242.905 330.48C246.121 327.632 247.705 323.76 247.641 318.88ZM266.838 329.632C267.254 329.632 267.462 329.824 267.462 330.192V331.248C267.462 331.664 267.27 331.856 266.886 331.856H256.342C255.91 331.856 255.702 331.68 255.702 331.312V327.488C255.702 327.12 255.894 326.928 256.31 326.928H257.654C258.038 326.928 258.246 327.12 258.246 327.488V329.632H266.838ZM267.35 325.408C267.318 325.872 267.078 326.112 266.598 326.128H265.638C265.126 326.128 264.87 325.936 264.87 325.552V324.928C262.278 325.664 259.462 326.032 256.422 326.032C255.878 326.032 255.606 325.824 255.606 325.392V319.968C255.606 319.616 255.798 319.424 256.214 319.424H260.934V318.32H256.374C255.878 318.32 255.638 318.128 255.638 317.744V316.896C255.638 316.432 255.83 316.192 256.246 316.192H262.566C263.078 316.192 263.334 316.416 263.334 316.832V320.832C263.334 321.408 263.03 321.68 262.422 321.68H257.974V323.76C260.598 323.632 262.886 323.232 264.87 322.528V316.432C264.87 316.064 265.126 315.872 265.638 315.872H266.582C267.094 315.872 267.35 316.064 267.35 316.448V325.408ZM283.288 329.136C283.736 329.136 283.96 329.376 283.96 329.824V330.864C283.96 331.296 283.736 331.504 283.288 331.504H273.608C273.128 331.504 272.888 331.28 272.888 330.8V329.824C272.888 329.376 273.112 329.136 273.576 329.136H283.288ZM283.368 316.208C283.752 316.208 283.96 316.432 283.96 316.88C283.96 320.784 283.656 324.272 283.064 327.376C282.984 327.792 282.712 327.984 282.248 327.984H281.176C280.888 327.984 280.696 327.92 280.632 327.76C280.552 327.616 280.536 327.424 280.6 327.168C281.016 324.592 281.272 321.84 281.336 318.896C281.368 318.64 281.256 318.496 281 318.496H273.416C273.064 318.496 272.888 318.32 272.888 317.952V316.768C272.888 316.4 273.064 316.208 273.416 316.208H283.368ZM297.265 324.832C297.249 325.296 297.009 325.536 296.545 325.552H295.569C295.057 325.552 294.801 325.36 294.801 324.976V324.256C292.145 325.056 289.329 325.456 286.337 325.456C285.777 325.456 285.505 325.248 285.505 324.816V319.76C285.505 319.408 285.697 319.216 286.097 319.216H290.801V318.336H286.273C285.761 318.336 285.521 318.144 285.521 317.76V316.912C285.521 316.448 285.713 316.208 286.129 316.208H292.433C292.945 316.208 293.201 316.432 293.201 316.848V320.512C293.201 321.088 292.897 321.36 292.305 321.36H287.857V323.248C290.465 323.12 292.785 322.688 294.801 321.92V316.432C294.801 316.064 295.057 315.872 295.569 315.872H296.513C297.009 315.872 297.265 316.064 297.265 316.448V324.832ZM297.297 331.184C297.297 331.632 297.041 331.856 296.561 331.856H286.321C285.873 331.856 285.649 331.68 285.649 331.312V326.736C285.649 326.352 285.889 326.144 286.385 326.144H296.561C297.041 326.144 297.297 326.352 297.297 326.736V331.184ZM294.801 329.904V328.16H288.129V329.936L294.801 329.904ZM310.634 331.28C310.634 331.664 310.442 331.856 310.058 331.856H308.682C308.282 331.856 308.09 331.648 308.09 331.232V316.448C308.09 316.08 308.282 315.888 308.682 315.888H310.01C310.426 315.888 310.634 316.096 310.634 316.48V331.28ZM302.938 315.888C303.77 315.888 304.442 316.048 304.986 316.368C305.514 316.688 305.93 317.184 306.25 317.824C306.554 318.464 306.762 319.28 306.89 320.24C307.002 321.2 307.066 322.336 307.066 323.616C307.066 324.992 307.002 326.208 306.874 327.232C306.746 328.256 306.522 329.12 306.218 329.808C305.898 330.496 305.482 331.008 304.954 331.344C304.41 331.696 303.738 331.856 302.938 331.856C302.106 331.856 301.418 331.696 300.874 331.344C300.33 330.992 299.898 330.48 299.578 329.792C299.258 329.104 299.05 328.24 298.922 327.216C298.794 326.192 298.73 324.992 298.73 323.616C298.73 322.336 298.794 321.216 298.938 320.256C299.082 319.296 299.322 318.48 299.642 317.84C299.962 317.2 300.394 316.704 300.938 316.384C301.482 316.064 302.138 315.888 302.938 315.888ZM304.666 323.616C304.666 322.72 304.634 321.92 304.602 321.232C304.554 320.56 304.474 319.984 304.346 319.536C304.218 319.088 304.042 318.736 303.818 318.512C303.594 318.288 303.306 318.176 302.954 318.176C302.586 318.176 302.298 318.288 302.074 318.512C301.85 318.736 301.674 319.088 301.546 319.536C301.418 319.984 301.338 320.56 301.306 321.232C301.258 321.92 301.242 322.72 301.242 323.616C301.242 325.616 301.354 327.12 301.594 328.112C301.818 329.104 302.282 329.6 302.954 329.6C303.29 329.6 303.578 329.488 303.802 329.232C304.026 328.976 304.202 328.608 304.33 328.096C304.458 327.6 304.538 326.976 304.586 326.224C304.634 325.488 304.666 324.608 304.666 323.616ZM324.113 320.272C324.513 320.272 324.721 320.464 324.721 320.816V322.112C324.721 322.56 324.513 322.768 324.097 322.768H323.265V331.2C323.265 331.648 323.041 331.856 322.593 331.856H321.345C320.913 331.856 320.705 331.664 320.705 331.248V330.784C317.553 331.264 314.977 331.52 312.961 331.52C312.449 331.52 312.193 331.264 312.193 330.752V316.864C312.193 316.432 312.417 316.208 312.865 316.208H318.817C319.233 316.208 319.457 316.416 319.457 316.816V317.856C319.457 318.272 319.233 318.48 318.785 318.48H314.641V329.216C316.753 329.216 318.769 328.96 320.705 328.48V316.464C320.705 316.08 320.897 315.888 321.297 315.888H322.609C323.041 315.888 323.265 316.08 323.265 316.464V320.272H324.113ZM328.673 330.368C328.641 330.912 328.529 331.28 328.321 331.456C328.113 331.648 327.761 331.76 327.249 331.792C326.705 331.76 326.353 331.648 326.161 331.456C325.969 331.264 325.873 330.912 325.857 330.368C325.873 329.856 325.969 329.488 326.161 329.28C326.337 329.072 326.705 328.96 327.249 328.928C327.793 328.96 328.161 329.056 328.353 329.248C328.545 329.44 328.641 329.824 328.673 330.368Z" fill="#855205"/>
<rect x="16" y="393" width="357" height="100" rx="16" fill="white"/>
<path d="M181.619 420.84C182.851 420.84 183.859 420.904 184.627 421.032C185.395 421.16 186.003 421.368 186.435 421.624C186.867 421.88 187.155 422.216 187.315 422.6C187.459 422.984 187.539 423.448 187.539 423.96C187.539 424.472 187.443 424.92 187.283 425.304C187.123 425.688 186.819 425.992 186.387 426.248C185.939 426.504 185.347 426.696 184.579 426.824C183.811 426.952 182.819 427.016 181.619 427.016C180.403 427.016 179.411 426.952 178.611 426.824C177.811 426.696 177.171 426.504 176.691 426.248C176.211 425.992 175.859 425.672 175.667 425.288C175.475 424.904 175.379 424.456 175.379 423.944C175.379 423.432 175.459 422.984 175.651 422.6C175.827 422.216 176.147 421.88 176.627 421.624C177.091 421.368 177.731 421.16 178.531 421.032C179.331 420.904 180.371 420.84 181.619 420.84ZM179.139 413.368C179.043 413.56 178.947 413.736 178.867 413.928C181.667 413.896 183.043 415.736 183.011 419.448C183.011 419.912 182.755 420.152 182.275 420.152H181.123C180.707 420.152 180.515 419.944 180.515 419.528C180.483 417.064 179.715 415.96 178.211 416.216C178.019 417.208 177.923 418.328 177.923 419.544C177.923 419.96 177.683 420.152 177.219 420.152H176.131C175.683 420.152 175.459 419.928 175.459 419.48C175.459 417.368 175.811 415.32 176.499 413.368H175.651C175.315 413.368 175.155 413.208 175.155 412.872V411.704C175.155 411.384 175.315 411.208 175.651 411.208H182.819C183.187 411.208 183.379 411.384 183.379 411.72V412.792C183.379 413.176 183.187 413.368 182.803 413.368H179.139ZM184.627 414.28V411.464C184.627 411.08 184.819 410.888 185.203 410.888H186.563C186.963 410.888 187.171 411.08 187.171 411.432V419.736C187.171 420.104 186.963 420.28 186.563 420.28H185.171C184.803 420.28 184.627 420.088 184.627 419.704V416.776H183.763C183.395 416.776 183.219 416.616 183.219 416.296V414.824C183.219 414.472 183.395 414.28 183.779 414.28H184.627ZM181.635 425.032C182.307 425.032 182.867 425.016 183.315 424.968C183.747 424.936 184.099 424.872 184.355 424.776C184.611 424.68 184.787 424.568 184.883 424.44C184.979 424.312 185.043 424.136 185.043 423.944C185.043 423.752 184.995 423.592 184.899 423.448C184.803 423.32 184.627 423.208 184.371 423.112C184.115 423.016 183.763 422.952 183.315 422.904C182.867 422.872 182.307 422.84 181.619 422.84C180.883 422.84 180.259 422.872 179.779 422.904C179.299 422.952 178.915 423.016 178.627 423.112C178.339 423.208 178.147 423.32 178.035 423.448C177.907 423.592 177.859 423.752 177.859 423.944C177.859 424.136 177.907 424.312 178.019 424.44C178.115 424.568 178.307 424.68 178.595 424.776C178.883 424.872 179.267 424.936 179.747 424.968C180.227 425.016 180.867 425.032 181.635 425.032ZM199.624 410.872C200.056 410.872 200.28 411.064 200.28 411.432V414.376H201.064C201.448 414.376 201.64 414.536 201.64 414.856V416.232C201.64 416.584 201.464 416.744 201.112 416.744H200.28V421.416C200.28 421.816 200.056 422.008 199.608 422.008H198.408C197.96 422.008 197.752 421.816 197.752 421.432H189.432C188.984 421.432 188.76 421.208 188.76 420.76V419.896C188.76 419.416 188.984 419.176 189.464 419.176H191.464V418.344C189.784 418.232 188.952 417.288 188.952 415.496C188.984 414.6 189.192 413.944 189.576 413.544H189.224C188.84 413.544 188.648 413.352 188.648 412.936V411.944C188.648 411.56 188.824 411.368 189.208 411.368H191.368V410.936C191.368 410.616 191.56 410.44 191.944 410.44H193.432C193.816 410.44 194.024 410.616 194.024 410.936V411.368H196.296C196.696 411.368 196.904 411.56 196.904 411.912V413.016C196.904 413.368 196.712 413.544 196.36 413.544H195.848C196.264 413.944 196.488 414.6 196.488 415.496C196.488 417.288 195.64 418.232 193.976 418.344V419.208H197.752V411.48C197.752 411.08 197.976 410.872 198.44 410.872H199.624ZM189.448 424.904C188.984 424.904 188.76 424.68 188.76 424.232V423.352C188.76 422.872 189 422.616 189.48 422.616H200.008C200.488 422.616 200.744 422.84 200.744 423.256V426.232C200.744 426.648 200.504 426.856 200.04 426.856H198.984C198.488 426.872 198.248 426.664 198.248 426.248V424.904H189.448ZM192.744 413.544C191.8 413.544 191.336 414.088 191.336 415.176C191.336 416.168 191.784 416.664 192.68 416.664C193.608 416.664 194.088 416.168 194.088 415.176C194.088 414.088 193.64 413.544 192.744 413.544ZM213.308 421.512C212.316 421.816 211.116 422.04 209.724 422.2V424.136H213.372C213.804 424.136 214.028 424.344 214.028 424.76V425.864C214.028 426.312 213.804 426.536 213.372 426.536H203.644C203.164 426.536 202.924 426.312 202.924 425.832V424.904C202.924 424.392 203.164 424.136 203.66 424.136H207.196V422.408C206.108 422.472 204.94 422.488 203.692 422.488C203.18 422.488 202.924 422.264 202.924 421.8V411.784C202.924 411.4 203.148 411.208 203.628 411.208H213.42C213.82 411.208 214.028 411.416 214.028 411.8V412.872C214.028 413.32 213.804 413.528 213.372 413.528H205.468V420.04C208.284 420.008 210.908 419.72 213.372 419.144C213.804 419.064 214.028 419.224 214.028 419.624V420.696C213.996 421.144 213.756 421.416 213.308 421.512Z" fill="#6A6967"/>
<path d="M177.349 447.776C178.949 447.808 179.429 448.768 178.821 450.688L168.709 478.656C168.389 479.36 167.781 479.68 166.949 479.68H164.517C163.365 479.68 163.013 479.264 163.397 478.432L172.709 452.64H164.677V455.328C164.677 456.32 164.197 456.8 163.237 456.8H161.061C160.165 456.8 159.717 456.352 159.717 455.424V449.088C159.717 448.224 160.069 447.776 160.837 447.776H177.349ZM190.419 447.744C192.147 447.744 193.651 448.032 194.931 448.544C196.211 449.088 197.299 449.984 198.163 451.2C198.995 452.416 199.635 454.048 200.083 456.032C200.499 458.016 200.723 460.48 200.723 463.36C200.723 466.56 200.499 469.184 200.051 471.296C199.603 473.408 198.963 475.072 198.099 476.32C197.235 477.568 196.147 478.432 194.867 478.944C193.587 479.456 192.083 479.712 190.387 479.712C188.691 479.712 187.219 479.456 185.939 478.912C184.659 478.4 183.571 477.504 182.707 476.224C181.843 474.976 181.203 473.312 180.755 471.2C180.307 469.12 180.115 466.496 180.115 463.36C180.115 460.288 180.307 457.76 180.755 455.744C181.203 453.76 181.843 452.16 182.707 450.976C183.571 449.792 184.659 448.96 185.939 448.48C187.219 448 188.691 447.744 190.419 447.744ZM190.259 475.104C191.155 475.104 191.955 474.912 192.659 474.528C193.363 474.144 193.939 473.504 194.419 472.608C194.867 471.712 195.219 470.496 195.475 469.024C195.731 467.552 195.859 465.696 195.859 463.488C195.859 461.248 195.731 459.424 195.507 457.984C195.251 456.576 194.899 455.456 194.451 454.624C194.003 453.824 193.427 453.28 192.723 452.992C192.019 452.704 191.187 452.576 190.291 452.576C189.395 452.576 188.595 452.768 187.923 453.088C187.219 453.44 186.643 454.016 186.195 454.848C185.747 455.68 185.395 456.8 185.171 458.208C184.915 459.616 184.819 461.376 184.819 463.488C184.819 465.696 184.915 467.552 185.139 469.024C185.363 470.528 185.715 471.744 186.163 472.64C186.611 473.536 187.187 474.176 187.891 474.56C188.563 474.944 189.363 475.136 190.259 475.104ZM221.332 454.944C221.78 454.24 222.42 453.888 223.316 453.888H225.204C226.452 453.888 226.772 454.368 226.164 455.264L211.764 478.368C211.284 479.264 210.548 479.68 209.556 479.68H207.604C206.388 479.68 206.1 479.136 206.772 478.048L221.332 454.944ZM209.076 453.952C212.724 453.952 214.516 456 214.484 460.064C214.452 464.128 212.628 466.144 209.044 466.144C205.396 466.112 203.572 464.096 203.572 460.064C203.572 456.032 205.428 453.984 209.076 453.952ZM209.044 462.528C210.324 462.528 210.964 461.728 210.996 460.064C210.996 458.4 210.356 457.568 209.076 457.568C207.764 457.568 207.124 458.4 207.124 460.064C207.124 461.728 207.764 462.56 209.044 462.528ZM223.316 467.552C226.964 467.552 228.788 469.6 228.724 473.664C228.692 477.696 226.868 479.712 223.284 479.712C219.668 479.712 217.844 477.696 217.812 473.664C217.844 469.632 219.668 467.584 223.316 467.552ZM223.284 476.16C224.564 476.16 225.204 475.328 225.236 473.664C225.236 472 224.596 471.168 223.316 471.168C222.004 471.168 221.364 472 221.364 473.664C221.364 475.328 222.004 476.16 223.284 476.16Z" fill="#357EE7"/>
<circle cx="197" cy="619" r="43" fill="#357EE7"/>
<mask id="mask0_3539_11540" style="mask-type:alpha" maskUnits="userSpaceOnUse" x="168" y="590" width="58" height="58">
<rect x="168.334" y="590.332" width="57.3333" height="57.3333" fill="white"/>
</mask>
<g mask="url(#mask0_3539_11540)">
<path d="M197.001 623.778C195.01 623.778 193.318 623.081 191.925 621.688C190.531 620.294 189.834 618.602 189.834 616.611V602.278C189.834 600.287 190.531 598.595 191.925 597.202C193.318 595.808 195.01 595.111 197.001 595.111C198.992 595.111 200.684 595.808 202.077 597.202C203.471 598.595 204.168 600.287 204.168 602.278V616.611C204.168 618.602 203.471 620.294 202.077 621.688C200.684 623.081 198.992 623.778 197.001 623.778ZM194.612 640.5V633.154C190.471 632.597 187.047 630.746 184.34 627.6C181.633 624.455 180.279 620.792 180.279 616.611H185.057C185.057 619.916 186.221 622.733 188.55 625.062C190.88 627.391 193.696 628.556 197.001 628.556C200.306 628.556 203.123 627.391 205.452 625.062C207.781 622.733 208.945 619.916 208.945 616.611H213.723C213.723 620.792 212.37 624.455 209.662 627.6C206.955 630.746 203.531 632.597 199.39 633.154V640.5H194.612ZM197.001 619C197.678 619 198.245 618.771 198.703 618.313C199.161 617.856 199.39 617.288 199.39 616.611V602.278C199.39 601.601 199.161 601.034 198.703 600.576C198.245 600.118 197.678 599.889 197.001 599.889C196.324 599.889 195.757 600.118 195.299 600.576C194.841 601.034 194.612 601.601 194.612 602.278V616.611C194.612 617.288 194.841 617.856 195.299 618.313C195.757 618.771 196.324 619 197.001 619Z" fill="white"/>
</g>
<path d="M127.88 682.129V690.086H122.151V682.129H127.88ZM123.423 683.154V689.033H126.595V683.154H123.423ZM131.23 680.912V685.711H133.198V686.805H131.23V693.162H129.931V680.912H131.23ZM143.651 680.912V693.189H142.352V680.912H143.651ZM137.102 681.828C138.92 681.828 140.26 683.496 140.26 686.121C140.26 688.76 138.92 690.428 137.102 690.428C135.256 690.428 133.93 688.76 133.93 686.121C133.93 683.496 135.256 681.828 137.102 681.828ZM137.102 682.99C135.967 682.99 135.188 684.193 135.188 686.121C135.188 688.062 135.967 689.266 137.102 689.266C138.223 689.266 139.002 688.062 139.002 686.121C139.002 684.193 138.223 682.99 137.102 682.99ZM155.183 682.102V683.592C155.183 685.383 155.183 687.064 154.65 689.607L153.365 689.484C153.625 688.363 153.761 687.379 153.83 686.463L146.474 686.859L146.31 685.793L153.898 685.506C153.919 684.85 153.919 684.221 153.925 683.592V683.168H146.652V682.102H155.183ZM156.496 690.455V691.521H145.326V690.455H156.496ZM170.496 680.912V693.189H169.211V686.449H166.504V690.154H160.762V681.855H162.074V684.986H165.233V681.855H166.504V685.383H169.211V680.912H170.496ZM162.074 689.088H165.233V686.012H162.074V689.088ZM183.273 687.639V688.678H172.076V687.639H183.273ZM182.111 691.85V692.902H173.511V689.484H174.796V691.85H182.111ZM181.988 685.615V686.613H173.539V681.35H181.906V682.361H174.851V683.482H181.591V684.467H174.851V685.615H181.988ZM189.501 681.117C192.262 681.117 193.876 681.855 193.876 683.223C193.876 684.59 192.262 685.342 189.501 685.342C186.739 685.342 185.126 684.59 185.126 683.223C185.126 681.855 186.739 681.117 189.501 681.117ZM189.501 682.074C187.546 682.074 186.466 682.498 186.479 683.223C186.466 683.975 187.546 684.371 189.501 684.371C191.456 684.371 192.536 683.975 192.536 683.223C192.536 682.498 191.456 682.074 189.501 682.074ZM195.092 686.094V687.133H183.923V686.094H195.092ZM193.684 688.076V690.947H186.548V692.041H194.026V693.039H185.276V690.004H192.399V689.047H185.262V688.076H193.684ZM208.765 683.701V684.754H200.357V681.09H201.628V683.701H208.765ZM210.077 685.697V686.764H205.074V687.939H208.669V690.865H201.56V692.027H209.093V693.039H200.261V689.949H207.384V688.938H200.234V687.939H203.816V686.764H198.866V685.697H210.077ZM220.899 680.912V693.189H219.614V686.6H217.372V685.52H219.614V680.912H220.899ZM216.647 682.02V686.395H212.45V689.184C214.405 689.177 215.909 689.108 217.618 688.801L217.727 689.867C215.895 690.195 214.282 690.264 212.122 690.277H211.151V685.342H215.389V683.072H211.124V682.02H216.647ZM230.155 684.029C230.142 686.271 231.495 688.514 233.396 689.361L232.616 690.387C231.208 689.717 230.094 688.343 229.526 686.668C228.952 688.459 227.824 689.942 226.355 690.66L225.562 689.566C227.489 688.705 228.843 686.367 228.843 684.029V681.938H230.155V684.029ZM235.802 680.912V693.189H234.503V680.912H235.802ZM241.756 683.113C241.756 684.672 242.836 686.162 244.709 686.791L244.053 687.803C242.665 687.324 241.647 686.367 241.114 685.164C240.58 686.49 239.521 687.529 238.079 688.035L237.381 687.023C239.295 686.367 240.444 684.795 240.457 683.1V682.771H237.764V681.719H244.395V682.771H241.756V683.113ZM247.102 680.912V684.057H248.879V685.15H247.102V688.295H245.803V680.912H247.102ZM247.102 688.896V693.162H245.803V689.949H239.008V688.896H247.102ZM258.84 680.912V685.875H260.808V686.955H258.84V693.162H257.554V680.912H258.84ZM256.488 682.826V683.893H249.228V682.826H252.25V681.076H253.549V682.826H256.488ZM252.906 684.795C254.656 684.795 255.941 685.971 255.955 687.639C255.941 689.32 254.656 690.482 252.906 690.496C251.142 690.482 249.857 689.32 249.857 687.639C249.857 685.971 251.142 684.795 252.906 684.795ZM252.906 685.861C251.867 685.861 251.088 686.586 251.101 687.639C251.088 688.705 251.867 689.416 252.906 689.402C253.945 689.416 254.711 688.705 254.711 687.639C254.711 686.586 253.945 685.861 252.906 685.861ZM271.302 680.912V693.162H269.989V680.912H271.302ZM267.651 682.225C267.651 685.807 266.12 688.924 261.923 690.934L261.239 689.881C264.5 688.329 266.086 686.121 266.339 683.264H261.827V682.225H267.651Z" fill="#363635"/>
<path d="M32.232 131.872C32.616 131.872 32.824 132.064 32.824 132.448V145.424H33.608C34.088 145.424 34.328 145.664 34.328 146.128V147.184C34.328 147.632 34.088 147.856 33.64 147.856H29.272C28.856 147.856 28.664 147.648 28.664 147.232V146.08C28.664 145.648 28.84 145.424 29.224 145.424H30.344V135.648H29.144C28.504 135.648 28.328 135.424 28.584 134.96L30.104 132.272C30.264 132.016 30.504 131.872 30.856 131.872H32.232ZM40.8263 132.432C40.9543 132.08 41.2422 131.888 41.6903 131.888H42.6023C43.1462 131.888 43.3383 132.128 43.1943 132.576L38.3142 147.072C38.1223 147.584 37.8182 147.84 37.3702 147.84H36.4102C35.7862 147.84 35.5942 147.536 35.8342 146.896L40.8263 132.432ZM48.2639 131.872C48.6479 131.872 48.8559 132.064 48.8559 132.448V145.424H49.6399C50.1199 145.424 50.3599 145.664 50.3599 146.128V147.184C50.3599 147.632 50.1199 147.856 49.6719 147.856H45.3039C44.8879 147.856 44.6959 147.648 44.6959 147.232V146.08C44.6959 145.648 44.8719 145.424 45.2559 145.424H46.3759V135.648H45.1759C44.5359 135.648 44.3599 135.424 44.6159 134.96L46.1359 132.272C46.2959 132.016 46.5359 131.872 46.8879 131.872H48.2639ZM56.4716 131.872C57.3356 131.872 58.0876 132.016 58.7276 132.272C59.3676 132.544 59.9116 132.992 60.3436 133.6C60.7596 134.208 61.0796 135.024 61.3036 136.016C61.5116 137.008 61.6236 138.24 61.6236 139.68C61.6236 141.28 61.5116 142.592 61.2876 143.648C61.0636 144.704 60.7436 145.536 60.3116 146.16C59.8796 146.784 59.3356 147.216 58.6956 147.472C58.0556 147.728 57.3036 147.856 56.4556 147.856C55.6076 147.856 54.8716 147.728 54.2316 147.456C53.5916 147.2 53.0476 146.752 52.6156 146.112C52.1836 145.488 51.8636 144.656 51.6396 143.6C51.4156 142.56 51.3196 141.248 51.3196 139.68C51.3196 138.144 51.4156 136.88 51.6396 135.872C51.8636 134.88 52.1836 134.08 52.6156 133.488C53.0476 132.896 53.5916 132.48 54.2316 132.24C54.8716 132 55.6076 131.872 56.4716 131.872ZM56.3916 145.552C56.8396 145.552 57.2396 145.456 57.5916 145.264C57.9436 145.072 58.2316 144.752 58.4716 144.304C58.6956 143.856 58.8716 143.248 58.9996 142.512C59.1276 141.776 59.1916 140.848 59.1916 139.744C59.1916 138.624 59.1276 137.712 59.0156 136.992C58.8876 136.288 58.7116 135.728 58.4876 135.312C58.2636 134.912 57.9756 134.64 57.6236 134.496C57.2716 134.352 56.8556 134.288 56.4076 134.288C55.9596 134.288 55.5596 134.384 55.2236 134.544C54.8716 134.72 54.5836 135.008 54.3596 135.424C54.1356 135.84 53.9596 136.4 53.8476 137.104C53.7196 137.808 53.6716 138.688 53.6716 139.744C53.6716 140.848 53.7196 141.776 53.8316 142.512C53.9436 143.264 54.1196 143.872 54.3436 144.32C54.5676 144.768 54.8556 145.088 55.2076 145.28C55.5436 145.472 55.9436 145.568 56.3916 145.552Z" fill="#1C1C1C"/>
<rect x="19" y="748" width="358" height="48" rx="8" fill="#F9BC5F"/>
<path d="M196.832 770.272C197.232 770.272 197.44 770.464 197.44 770.816V772.112C197.44 772.56 197.232 772.768 196.816 772.768H195.984V781.2C195.984 781.648 195.76 781.856 195.312 781.856H194.064C193.632 781.856 193.424 781.664 193.424 781.248V780.784C190.272 781.264 187.696 781.52 185.68 781.52C185.168 781.52 184.912 781.264 184.912 780.752V766.864C184.912 766.432 185.136 766.208 185.584 766.208H191.536C191.952 766.208 192.176 766.416 192.176 766.816V767.856C192.176 768.272 191.952 768.48 191.504 768.48H187.36V779.216C189.472 779.216 191.488 778.96 193.424 778.48V766.464C193.424 766.08 193.616 765.888 194.016 765.888H195.328C195.76 765.888 195.984 766.08 195.984 766.464V770.272H196.832ZM204.48 765.728C208.448 765.728 210.432 766.976 210.432 769.456C210.4 771.792 208.416 772.96 204.464 772.96C200.528 772.944 198.56 771.776 198.576 769.456C198.592 766.976 200.56 765.728 204.48 765.728ZM204.464 770.784C206.8 770.784 207.968 770.352 207.968 769.456C207.968 768.432 206.8 767.92 204.48 767.92C202.176 767.92 201.04 768.432 201.04 769.456C201.04 770.352 202.176 770.784 204.464 770.784ZM209.792 773.504C210.208 773.504 210.432 773.744 210.432 774.208V775.216C210.432 775.616 210.224 775.824 209.84 775.84H199.232C198.784 775.84 198.56 775.616 198.56 775.136V774.208C198.56 773.744 198.784 773.504 199.264 773.504H209.792ZM209.792 776.64C210.208 776.64 210.432 776.832 210.432 777.2V781.12C210.432 781.6 210.208 781.84 209.76 781.84H199.312C198.816 781.84 198.576 781.648 198.576 781.248V777.248C198.576 776.848 198.8 776.64 199.28 776.64H209.792ZM201.024 779.712H207.952V778.752H201.024V779.712Z" fill="#543403"/>
<path opacity="0.9" fill-rule="evenodd" clip-rule="evenodd" d="M0 0H390V843.999H0V0ZM16 115C16 109.477 20.4772 105 26 105H363C368.523 105 373 109.477 373 115V143C373 148.523 368.523 153 363 153H26C20.4772 153 16 148.523 16 143V115ZM144.944 559C136.691 559 130 565.691 130 573.944V665.056C130 673.309 136.691 680 144.944 680H250.056C258.309 680 265 673.309 265 665.056V573.944C265 565.691 258.309 559 250.056 559H144.944Z" fill="black" fill-opacity="0.9"/>
<rect x="95" y="182" width="30" height="30" rx="15" fill="#F7A62C"/>
<path d="M111.859 203H109.812V193.672H109.75L107.109 195.359V193.5L109.906 191.688H111.859V203Z" fill="#543403"/>
<path d="M107.686 237.066V238.971H95.3076V237.066H100.317V234.635H96.5234V227.823H106.411V234.635H102.646V237.066H107.686ZM98.8525 229.698V232.818H104.082V229.698H98.8525ZM120.364 233.507V235.367H107.971V233.507H120.364ZM119.046 230.782V232.657H109.436V227.354H118.914V229.2H111.765V230.782H119.046ZM119.09 238.385V240.245H109.392V236.158H111.707V238.385H119.09ZM135.965 233.448V235.309H131.146V237.359H128.817V235.309H123.602V233.448H135.965ZM134.413 227.457V232.628H125.096V227.457H134.413ZM127.381 229.273V230.826H132.098V229.273H127.381ZM134.618 238.385V240.26H124.95V236.275H127.293V238.385H134.618ZM148.058 226.9V240.45H145.846V226.9H148.058ZM145.26 227.076V239.879H143.077V236.217L141.92 237.696C140.8 237.052 140.082 236.012 139.65 234.737C139.188 236.129 138.448 237.301 137.306 238.004L135.914 236.275C137.98 234.986 138.492 232.584 138.492 230.387V230.021H136.515V228.16H142.521V230.021H140.748V230.387C140.734 232.511 141.188 234.671 143.077 235.865V233.287H141.612V231.397H143.077V227.076H145.26ZM148.38 249.9V263.45H146.183V249.9H148.38ZM145.494 250.179V262.908H143.297V258.602H141.759V256.712H143.297V255.247H142.037C141.415 257.437 140.096 259.231 137.584 260.711L136.237 259.07C138.837 257.532 139.906 255.833 140.162 253.313H137.13V251.453H142.477C142.477 252.112 142.447 252.75 142.389 253.357H143.297V250.179H145.494ZM161.557 256.36V258.221H149.223V256.36H154.203V254.749H156.547V256.36H161.557ZM156.576 250.486C156.576 251.907 157.499 253.401 160.971 253.797L160.092 255.613C157.733 255.284 156.181 254.412 155.346 253.182C154.489 254.397 152.958 255.284 150.614 255.613L149.794 253.797C153.178 253.401 154.174 251.819 154.174 250.486V250.149H156.576V250.486ZM160.092 258.938V263.45H157.748V260.74H150.6V258.938H160.092ZM170.346 253.299C170.346 255.423 171.137 257.767 173.584 258.763L172.338 260.594C170.786 259.957 169.782 258.77 169.204 257.312C168.61 258.931 167.592 260.25 166.01 260.945L164.692 259.1C167.124 258.045 167.944 255.569 167.944 253.299V253.064H165.278V251.16H172.939V253.064H170.346V253.299ZM176.294 249.9V263.45H173.921V249.9H176.294ZM190.056 254.866V256.771H188.328V263.421H185.969V249.9H188.328V254.866H190.056ZM180.212 251.175V258.25C181.802 258.213 183.537 258.045 185.31 257.693L185.544 259.642C183.318 260.096 181.062 260.198 179.099 260.184H177.869V251.175H180.212ZM200.991 249.9V254.896H202.72V256.814H200.991V263.421H198.633V249.9H200.991ZM197.3 251.248C197.285 255.438 195.85 258.953 191.221 261.224L189.888 259.437C192.905 257.913 194.502 256.016 194.912 253.152H190.738V251.248H197.3ZM214.373 249.9V263.45H212.029V249.9H214.373ZM205.804 251.175V258.206C207.488 258.169 209.327 258.001 211.136 257.664L211.429 259.583C209.07 260.081 206.771 260.213 204.734 260.213H203.475V251.175H205.804Z" fill="#F9BC5F"/>
<path d="M161.146 233.067V234.298H149.047V233.067H161.146ZM159.682 235.089V238.106H152.094V239.029H160.077V240.157H150.468V237.052H158.07V236.231H150.453V235.089H159.682ZM159.652 227.354V230.343H152.196V231.207H159.887V232.32H150.585V229.288H158.026V228.482H150.541V227.354H159.652ZM175.986 227.721V229.039H174.14V232.247H175.883V233.536H166.157V232.247H167.915V229.039H166.098V227.721H175.986ZM177.07 234.796V236.129H171.811V240.289H170.2V236.129H164.97V234.796H177.07ZM169.541 232.247H172.529V229.039H169.541V232.247ZM188.371 230.812V232.101H179.202V227.545H180.813V230.812H188.371ZM189.734 233.639V234.928H177.634V233.639H189.734ZM188.459 238.678V239.996H179.084V236.1H180.71V238.678H188.459ZM205.657 233.404V234.708H193.572V233.404H198.816V232.145H195.052V227.662H204.192V228.937H196.678V230.855H204.266V232.145H200.413V233.404H205.657ZM199.593 235.47C202.449 235.47 204.163 236.334 204.178 237.887C204.163 239.425 202.449 240.304 199.593 240.304C196.707 240.304 194.979 239.425 194.979 237.887C194.979 236.334 196.707 235.47 199.593 235.47ZM199.593 236.715C197.659 236.715 196.619 237.125 196.634 237.887C196.619 238.648 197.659 239.044 199.593 239.044C201.482 239.044 202.537 238.648 202.552 237.887C202.537 237.125 201.482 236.715 199.593 236.715ZM216.68 227.062V230.943H218.526V232.291H216.68V236.744H215.054V227.062H216.68ZM217.208 238.722V240.04H208.199V235.733H209.825V238.722H217.208ZM209.957 227.94C211.964 227.94 213.516 229.332 213.531 231.28C213.516 233.199 211.964 234.605 209.957 234.605C207.95 234.605 206.368 233.199 206.383 231.28C206.368 229.332 207.95 227.94 209.957 227.94ZM209.957 229.361C208.844 229.361 207.965 230.108 207.979 231.28C207.965 232.423 208.844 233.17 209.957 233.17C211.07 233.17 211.934 232.423 211.934 231.28C211.934 230.108 211.07 229.361 209.957 229.361ZM100.449 253.24C100.435 255.672 101.709 258.104 103.862 259.026L102.896 260.33C101.372 259.627 100.251 258.221 99.6436 256.492C99.0356 258.36 97.9004 259.883 96.2891 260.638L95.293 259.275C97.5049 258.323 98.7939 255.789 98.7939 253.24V251.131H100.449V253.24ZM106.455 250.062V263.318H104.814V250.062H106.455ZM118.548 250.062V253.87H120.393V255.232H118.548V259.612H116.892V250.062H118.548ZM114.944 251.072C114.944 254.588 112.659 257.093 108.733 258.235L108.059 256.946C111.084 256.075 112.886 254.427 113.172 252.405H108.616V251.072H114.944ZM119.046 261.722V263.04H110.037V258.631H111.692V261.722H119.046ZM131.783 250.062V263.318H130.142V250.062H131.783ZM124.649 251.028C126.641 251.028 128.091 252.845 128.106 255.701C128.091 258.587 126.641 260.389 124.649 260.389C122.642 260.389 121.192 258.587 121.192 255.701C121.192 252.845 122.642 251.028 124.649 251.028ZM124.649 252.493C123.521 252.493 122.759 253.68 122.759 255.701C122.759 257.737 123.521 258.924 124.649 258.924C125.762 258.924 126.524 257.737 126.524 255.701C126.524 253.68 125.762 252.493 124.649 252.493ZM107.51 280.444V281.763H102.251V286.289H100.64V281.763H95.4395V280.444H107.51ZM106.396 273.809V275.098H102.427C102.522 276.548 104.265 277.939 106.88 278.276L106.294 279.551C104.038 279.236 102.28 278.203 101.475 276.768C100.669 278.203 98.9111 279.236 96.6846 279.551L96.0693 278.276C98.6694 277.939 100.413 276.548 100.537 275.098H96.5527V273.809H106.396ZM112.395 273.984C114.49 273.97 116.028 275.303 116.043 277.178C116.028 279.067 114.49 280.386 112.395 280.386C110.315 280.386 108.762 279.067 108.762 277.178C108.762 275.303 110.315 273.97 112.395 273.984ZM112.395 275.391C111.238 275.391 110.374 276.079 110.374 277.178C110.374 278.291 111.238 278.965 112.395 278.965C113.567 278.965 114.446 278.291 114.446 277.178C114.446 276.079 113.567 275.391 112.395 275.391ZM119.134 273.062V286.318H117.508V273.062H119.134ZM108.162 282.217C110.55 282.217 113.86 282.188 116.717 281.777L116.848 282.964C113.875 283.535 110.696 283.55 108.367 283.55L108.162 282.217ZM127.227 275.171V276.475H120.738V275.171H123.199V273.442H124.81V275.171H127.227ZM124.004 277.178C125.689 277.178 126.89 278.452 126.89 280.254C126.89 282.085 125.689 283.374 124.004 283.374C122.335 283.374 121.104 282.085 121.119 280.254C121.104 278.452 122.335 277.178 124.004 277.178ZM124.004 278.525C123.14 278.525 122.54 279.214 122.554 280.254C122.54 281.323 123.14 281.997 124.004 281.982C124.854 281.997 125.455 281.323 125.455 280.254C125.455 279.214 124.854 278.525 124.004 278.525ZM132.149 273.062V286.304H130.596V279.829H129.307V285.703H127.784V273.34H129.307V278.511H130.596V273.062H132.149ZM138.324 276.24C138.324 278.701 139.496 281.118 141.605 282.041L140.623 283.345C139.122 282.612 138.067 281.206 137.503 279.478C136.925 281.301 135.848 282.817 134.325 283.594L133.299 282.275C135.453 281.265 136.654 278.716 136.668 276.24V274.131H138.324V276.24ZM144.535 273.062V286.318H142.923V278.657H140.14V277.339H142.923V273.062H144.535ZM160.312 273.398V274.614H158.495V276.577H160.238V277.822H150.512V276.577H152.255V274.614H150.438V273.398H160.312ZM161.425 278.643V279.932H156.181V280.928H159.916V284.077H152.387V284.971H160.282V286.187H150.79V282.949H158.319V282.114H150.775V280.928H154.555V279.932H149.354V278.643H161.425ZM153.881 276.577H156.854V274.614H153.881V276.577ZM172.77 279.082V280.371H168.845V283.403H174.118V284.736H162.018V283.403H167.233V280.371H163.483V274.043H172.668V275.347H165.109V279.082H172.77ZM186.767 280.225V281.543H174.668V280.225H179.912V279.126H176.206V275.61H183.647V274.629H176.162V273.354H185.273V276.797H177.817V277.852H185.537V279.126H181.523V280.225H186.767ZM185.346 282.378V286.216H183.706V283.667H176.015V282.378H185.346ZM197.066 275.171V276.475H190.576V275.171H193.037V273.442H194.649V275.171H197.066ZM193.843 277.178C195.528 277.178 196.729 278.452 196.729 280.254C196.729 282.085 195.528 283.374 193.843 283.374C192.173 283.374 190.943 282.085 190.957 280.254C190.943 278.452 192.173 277.178 193.843 277.178ZM193.843 278.525C192.979 278.525 192.378 279.214 192.393 280.254C192.378 281.323 192.979 281.997 193.843 281.982C194.693 281.997 195.293 281.323 195.293 280.254C195.293 279.214 194.693 278.525 193.843 278.525ZM201.988 273.062V286.304H200.435V279.829H199.146V285.703H197.622V273.34H199.146V278.511H200.435V273.062H201.988ZM218.189 273.047V286.289H216.622V279.521H215.377V285.688H213.853V273.311H215.377V278.203H216.622V273.047H218.189ZM209.81 274.644C209.81 277.705 209.444 280.62 207.672 283.14L206.397 282.393C207.825 280.444 208.316 278.401 208.433 275.947H206.807V274.644H209.81ZM212.945 274.644C212.945 277.778 212.696 281.191 210.806 283.96L209.517 283.257C211.099 281.038 211.458 278.562 211.524 275.947H210.221V274.644H212.945ZM230.209 273.062V286.318H228.568V273.062H230.209ZM221.522 274.146V277.456H224.73V274.146H226.341V283.198H219.896V274.146H221.522ZM221.522 281.865H224.73V278.73H221.522V281.865ZM234.581 274.395L234.42 281.88H232.765L232.589 274.395H234.581ZM233.6 285.117C232.97 285.117 232.457 284.604 232.457 283.975C232.457 283.359 232.97 282.847 233.6 282.847C234.201 282.847 234.728 283.359 234.728 283.975C234.728 284.604 234.201 285.117 233.6 285.117Z" fill="white"/>
<rect x="205" y="450" width="30" height="30" rx="15" fill="#F7A62C"/>
<path d="M216.117 471V469.531L220.117 465.672C221.258 464.531 221.852 463.859 221.852 462.906C221.852 461.859 221.023 461.188 219.914 461.188C218.742 461.188 217.992 461.922 218.008 463.062H216.07C216.055 460.922 217.664 459.531 219.93 459.531C222.242 459.531 223.805 460.906 223.805 462.812C223.805 464.094 223.18 465.125 220.961 467.219L218.945 469.219V469.297H223.977V471H216.117Z" fill="#543403"/>
<path d="M212.178 496.351V505.022H205.908V496.351H212.178ZM207.505 497.625V503.719H210.552V497.625H207.505ZM215.811 495.062V500.145H217.847V501.521H215.811V508.304H214.185V495.062H215.811ZM229.119 495.062V508.318H227.478V495.062H229.119ZM221.985 496.028C223.977 496.028 225.428 497.845 225.442 500.701C225.428 503.587 223.977 505.389 221.985 505.389C219.978 505.389 218.528 503.587 218.528 500.701C218.528 497.845 219.978 496.028 221.985 496.028ZM221.985 497.493C220.857 497.493 220.096 498.68 220.096 500.701C220.096 502.737 220.857 503.924 221.985 503.924C223.098 503.924 223.86 502.737 223.86 500.701C223.86 498.68 223.098 497.493 221.985 497.493ZM241.504 496.292V497.874C241.504 499.793 241.504 501.624 240.919 504.422L239.293 504.275C239.564 503.118 239.717 502.1 239.805 501.155L231.998 501.565L231.778 500.247L239.879 499.939C239.908 499.229 239.908 498.548 239.908 497.874V497.61H232.173V496.292H241.504ZM242.837 505.286V506.619H230.767V505.286H242.837ZM255.516 501.067V502.298H243.416V501.067H255.516ZM254.051 503.089V506.106H246.463V507.029H254.447V508.157H244.837V505.052H252.44V504.231H244.823V503.089H254.051ZM254.022 495.354V498.343H246.566V499.207H254.256V500.32H244.954V497.288H252.396V496.482H244.911V495.354H254.022ZM270.136 499.31V500.628H260.878V495.691H262.504V499.31H270.136ZM271.454 502.298V503.631H266.166V508.304H264.525V503.631H259.354V502.298H271.454ZM284.118 505.403V506.736H272.018V505.403H284.118ZM282.682 495.999V500.262H275.08V501.99H282.99V503.279H273.454V498.958H281.071V497.317H273.425V495.999H282.682ZM291.479 496.175V497.229H294.145V495.076H295.771V504.715H294.145V501.375H291.479V502.518H285.254V496.175H291.479ZM286.879 497.464V501.243H289.868V497.464H286.879ZM296.064 506.722V508.04H287.041V503.821H288.696V506.722H296.064ZM291.479 500.071H294.145V498.562H291.479V500.071ZM328.702 505.916L327.442 510.091H325.889L326.622 505.916H328.702ZM215.884 518.076V522.236H217.729V523.584H215.884V527.964H214.258V518.076H215.884ZM213.306 519.541V520.845H205.454V519.541H208.574V518.062H210.2V519.541H213.306ZM209.38 521.387C211.284 521.387 212.603 522.397 212.617 523.921C212.603 525.43 211.284 526.426 209.38 526.426C207.461 526.426 206.128 525.43 206.128 523.921C206.128 522.397 207.461 521.387 209.38 521.387ZM209.38 522.646C208.369 522.646 207.71 523.115 207.71 523.921C207.71 524.712 208.369 525.181 209.38 525.166C210.391 525.181 211.064 524.712 211.064 523.921C211.064 523.115 210.391 522.646 209.38 522.646ZM216.411 529.722V531.04H207.402V527.188H209.028V529.722H216.411ZM229.192 518.076V527.847H227.566V522.969H224.9V525.693H218.704V518.94H220.33V521.079H223.289V518.94H224.9V521.65H227.566V518.076H229.192ZM229.485 529.722V531.04H220.462V526.88H222.117V529.722H229.485ZM220.33 524.404H223.289V522.339H220.33V524.404ZM240.721 519.263V520.596H236.312V526.763C238.377 526.748 239.835 526.66 241.483 526.353L241.659 527.671C239.798 528.037 238.202 528.11 235.726 528.11H234.671V519.263H240.721ZM245.145 518.062V531.318H243.519V524.053H240.018V522.72H243.519V518.062H245.145ZM260.731 522.31V523.628H251.474V518.691H253.1V522.31H260.731ZM262.05 525.298V526.631H256.762V531.304H255.121V526.631H249.95V525.298H262.05ZM274.714 528.403V529.736H262.614V528.403H274.714ZM273.278 518.999V523.262H265.676V524.99H273.586V526.279H264.05V521.958H271.667V520.317H264.02V518.999H273.278ZM282.075 519.175V520.229H284.741V518.076H286.367V527.715H284.741V524.375H282.075V525.518H275.849V519.175H282.075ZM277.475 520.464V524.243H280.463V520.464H277.475ZM286.66 529.722V531.04H277.636V526.821H279.292V529.722H286.66ZM282.075 523.071H284.741V521.562H282.075V523.071ZM320.089 519.028C322.081 519.028 323.516 520.845 323.531 523.701C323.516 526.587 322.081 528.389 320.089 528.389C318.082 528.389 316.632 526.587 316.646 523.701C316.632 520.845 318.082 519.028 320.089 519.028ZM320.089 520.493C318.975 520.493 318.214 521.68 318.214 523.701C318.214 525.737 318.975 526.924 320.089 526.924C321.217 526.924 321.964 525.737 321.964 523.701C321.964 521.68 321.217 520.493 320.089 520.493ZM328.863 521.226V522.588H326.9V525.137H328.863V526.47H326.9V531.304H325.274V518.062H326.9V521.226H328.863ZM344.113 518.047V531.289H342.545V524.521H341.3V530.688H339.777V518.311H341.3V523.203H342.545V518.047H344.113ZM335.734 519.644C335.734 522.705 335.368 525.62 333.595 528.14L332.321 527.393C333.749 525.444 334.24 523.401 334.357 520.947H332.731V519.644H335.734ZM338.869 519.644C338.869 522.778 338.62 526.191 336.73 528.96L335.441 528.257C337.023 526.038 337.382 523.562 337.448 520.947H336.144V519.644H338.869ZM356.132 518.062V531.318H354.491V518.062H356.132ZM347.446 519.146V522.456H350.654V519.146H352.265V528.198H345.82V519.146H347.446ZM347.446 526.865H350.654V523.73H347.446V526.865Z" fill="white"/>
<path d="M311.504 497.962V499.808H307.827V501.009H312.866V502.854H300.474V501.009H305.454V499.808H301.924V495.047H304.268V497.962H311.504ZM311.343 503.675V508.45H308.999V505.55H301.821V503.675H311.343ZM319.319 495.135C322.366 495.135 324.314 496.16 324.329 497.845C324.314 499.5 322.366 500.525 319.319 500.511C316.287 500.525 314.28 499.5 314.295 497.845C314.28 496.16 316.287 495.135 319.319 495.135ZM319.319 496.937C317.605 496.937 316.727 497.2 316.741 497.845C316.727 498.445 317.605 498.709 319.319 498.709C320.989 498.709 321.897 498.445 321.897 497.845C321.897 497.2 320.989 496.937 319.319 496.937ZM324.036 503.602V508.333H314.529V503.602H324.036ZM316.829 505.447V506.458H321.736V505.447H316.829ZM325.501 501.053V502.913H313.138V501.053H325.501ZM302.598 517.9V525.942H300.254V522.954H298.555V521.064H300.254V517.9H302.598ZM297.881 526.162C300.825 526.162 302.627 527.144 302.627 528.828C302.627 530.498 300.825 531.494 297.881 531.494C294.966 531.494 293.164 530.498 293.164 528.828C293.164 527.144 294.966 526.162 297.881 526.162ZM297.881 527.935C296.27 527.935 295.493 528.184 295.508 528.828C295.493 529.458 296.27 529.722 297.881 529.722C299.507 529.722 300.298 529.458 300.298 528.828C300.298 528.184 299.507 527.935 297.881 527.935ZM298.921 518.618V520.493H296.475C296.614 521.848 297.405 523.21 299.404 523.862L298.277 525.693C296.826 525.247 295.867 524.368 295.274 523.276C294.688 524.521 293.67 525.525 292.11 526.03L290.894 524.17C293.054 523.481 293.867 521.943 294.014 520.493H291.553V518.618H298.921ZM309.227 521.299C309.227 523.423 310.018 525.767 312.464 526.763L311.219 528.594C309.666 527.957 308.663 526.77 308.084 525.312C307.491 526.931 306.473 528.25 304.891 528.945L303.572 527.1C306.004 526.045 306.824 523.569 306.824 521.299V521.064H304.158V519.16H311.819V521.064H309.227V521.299ZM315.174 517.9V531.45H312.801V517.9H315.174Z" fill="#F9BC5F"/>
<path d="M54 173.5L53 173.5L54 173.5ZM84.774 195.633C85.1237 195.206 85.0607 194.576 84.6332 194.226L77.6676 188.527C77.2402 188.177 76.6102 188.24 76.2604 188.668C75.9107 189.095 75.9737 189.725 76.4011 190.075L82.5928 195.141L77.5269 201.332C77.1772 201.76 77.2402 202.39 77.6676 202.74C78.0951 203.089 78.7251 203.026 79.0748 202.599L84.774 195.633ZM53 148L53 173.5L55 173.5L55 148L53 148ZM53 173.5C53 179.847 54.9505 184.496 57.9401 187.86C60.9126 191.204 64.8459 193.203 68.7054 194.393C72.5669 195.584 76.4107 195.982 79.2764 196.085C80.7124 196.137 81.9105 196.115 82.7526 196.08C83.1738 196.063 83.5064 196.042 83.7357 196.025C83.8503 196.017 83.9392 196.009 84.0004 196.004C84.0311 196.001 84.0548 195.999 84.0714 195.998C84.0797 195.997 84.0862 195.996 84.0909 195.996C84.0932 195.996 84.0951 195.995 84.0966 195.995C84.0973 195.995 84.098 195.995 84.0984 195.995C84.099 195.995 84.0995 195.995 84 195C83.9005 194.005 83.9008 194.005 83.9009 194.005C83.9008 194.005 83.9009 194.005 83.9007 194.005C83.9003 194.005 83.8995 194.005 83.8982 194.005C83.8956 194.005 83.8913 194.006 83.8851 194.006C83.8729 194.008 83.8536 194.009 83.8274 194.012C83.7752 194.016 83.6956 194.023 83.5905 194.03C83.3803 194.046 83.0684 194.065 82.6693 194.082C81.8707 194.115 80.7251 194.136 79.3486 194.087C76.5893 193.987 72.9332 193.604 69.2947 192.482C65.6541 191.359 62.0875 189.515 59.4349 186.531C56.7996 183.566 55 179.403 55 173.5L53 173.5Z" fill="white"/>
<path d="M158 538.043L157 538.043L158 538.043ZM190.739 524.37C191.111 524.778 191.082 525.411 190.673 525.782L184.018 531.841C183.61 532.213 182.977 532.184 182.606 531.775C182.234 531.367 182.263 530.734 182.672 530.363L188.587 524.977L183.202 519.061C182.83 518.653 182.859 518.02 183.268 517.649C183.676 517.277 184.309 517.306 184.68 517.715L190.739 524.37ZM157 560.543L157 538.043L159 538.043L159 560.543L157 560.543ZM157 538.043C157 533.972 159.276 531.068 162.465 529.05C165.626 527.049 169.774 525.849 173.823 525.121C177.889 524.391 181.943 524.122 184.971 524.036C186.488 523.992 187.752 523.994 188.64 524.007C189.083 524.013 189.433 524.023 189.672 524.03C189.792 524.034 189.885 524.037 189.948 524.04C189.979 524.041 190.003 524.042 190.02 524.043C190.028 524.043 190.035 524.044 190.039 524.044C190.041 524.044 190.043 524.044 190.044 524.044C190.045 524.044 190.046 524.044 190.046 524.044C190.046 524.044 190.047 524.044 190 525.043C189.953 526.042 189.953 526.042 189.953 526.042C189.953 526.042 189.953 526.042 189.953 526.042C189.952 526.042 189.951 526.042 189.949 526.042C189.946 526.042 189.941 526.041 189.934 526.041C189.919 526.04 189.898 526.039 189.869 526.038C189.811 526.036 189.723 526.033 189.609 526.029C189.38 526.022 189.042 526.013 188.61 526.007C187.748 525.994 186.512 525.992 185.029 526.035C182.057 526.12 178.111 526.383 174.177 527.09C170.226 527.8 166.374 528.943 163.535 530.74C160.725 532.518 159 534.864 159 538.043L157 538.043Z" fill="white"/>
<g filter="url(#filter0_d_3539_11540)">
<path fill-rule="evenodd" clip-rule="evenodd" d="M126.84 832.5C126.84 831.119 127.959 830 129.34 830H263.7C265.081 830 266.2 831.119 266.2 832.5C266.2 833.881 265.081 835 263.7 835H129.34C127.959 835 126.84 833.881 126.84 832.5Z" fill="white"/>
</g>
<rect opacity="0.35" x="351.832" y="17.8359" width="21" height="10.3333" rx="2.16667" stroke="white"/>
<path opacity="0.4" d="M374.332 21.0039V25.0039C375.137 24.6651 375.66 23.877 375.66 23.0039C375.66 22.1308 375.137 21.3427 374.332 21.0039Z" fill="white"/>
<rect x="353.332" y="19.3359" width="18" height="7.33333" rx="1.33333" fill="white"/>
<path fill-rule="evenodd" clip-rule="evenodd" d="M338.667 19.6165C340.892 19.6166 343.031 20.4707 344.644 22.0023C344.765 22.1206 344.959 22.1191 345.079 21.999L346.239 20.8286C346.3 20.7677 346.334 20.6852 346.333 20.5994C346.333 20.5135 346.298 20.4314 346.237 20.3712C342.005 16.319 335.329 16.319 331.097 20.3712C331.035 20.4314 331.001 20.5134 331 20.5993C330.999 20.6851 331.033 20.7677 331.094 20.8286L332.255 21.999C332.374 22.1192 332.568 22.1207 332.69 22.0023C334.302 20.4706 336.442 19.6165 338.667 19.6165ZM338.667 23.4238C339.889 23.4237 341.068 23.8777 341.974 24.6975C342.097 24.8138 342.29 24.8113 342.409 24.6918L343.568 23.5214C343.63 23.4601 343.663 23.3768 343.663 23.2902C343.662 23.2037 343.626 23.1211 343.564 23.061C340.805 20.4966 336.532 20.4966 333.773 23.061C333.71 23.1211 333.675 23.2037 333.674 23.2903C333.673 23.3769 333.707 23.4601 333.768 23.5214L334.927 24.6918C335.047 24.8113 335.24 24.8138 335.362 24.6975C336.268 23.8782 337.445 23.4243 338.667 23.4238ZM340.988 25.9862C340.99 26.0729 340.956 26.1566 340.894 26.2174L338.889 28.2394C338.83 28.2988 338.75 28.3323 338.666 28.3323C338.583 28.3323 338.502 28.2988 338.444 28.2394L336.438 26.2174C336.376 26.1566 336.342 26.0729 336.344 25.9861C336.346 25.8993 336.383 25.8171 336.448 25.759C337.728 24.6767 339.604 24.6767 340.885 25.759C340.949 25.8172 340.987 25.8994 340.988 25.9862Z" fill="white"/>
<path fill-rule="evenodd" clip-rule="evenodd" d="M325 17.668H324C323.448 17.668 323 18.1157 323 18.668V27.3346C323 27.8869 323.448 28.3346 324 28.3346H325C325.552 28.3346 326 27.8869 326 27.3346V18.668C326 18.1157 325.552 17.668 325 17.668ZM319.334 20.001H320.334C320.886 20.001 321.334 20.4487 321.334 21.001V27.3343C321.334 27.8866 320.886 28.3343 320.334 28.3343H319.334C318.782 28.3343 318.334 27.8866 318.334 27.3343V21.001C318.334 20.4487 318.782 20.001 319.334 20.001ZM315.666 22.335H314.666C314.114 22.335 313.666 22.7827 313.666 23.335V27.335C313.666 27.8872 314.114 28.335 314.666 28.335H315.666C316.218 28.335 316.666 27.8872 316.666 27.335V23.335C316.666 22.7827 316.218 22.335 315.666 22.335ZM311 24.335H310C309.448 24.335 309 24.7827 309 25.335V27.335C309 27.8872 309.448 28.335 310 28.335H311C311.552 28.335 312 27.8872 312 27.335V25.335C312 24.7827 311.552 24.335 311 24.335Z" fill="white"/>
<path d="M37.2148 17.168C34.9224 17.168 33.2891 18.7354 33.2891 20.8813V20.896C33.2891 22.9028 34.71 24.3823 36.7388 24.3823C38.189 24.3823 39.1118 23.6426 39.5 22.8076H39.6465C39.6465 22.8882 39.6392 22.9688 39.6392 23.0493C39.5586 25.0708 38.8481 26.7114 37.1709 26.7114C36.2407 26.7114 35.5889 26.228 35.3105 25.4883L35.2886 25.415H33.4282L33.4429 25.4956C33.7798 27.1143 35.23 28.2642 37.1709 28.2642C39.8296 28.2642 41.4336 26.1548 41.4336 22.5952V22.5806C41.4336 18.772 39.4707 17.168 37.2148 17.168ZM37.2075 22.9321C36.0063 22.9321 35.1348 22.0532 35.1348 20.8301V20.8154C35.1348 19.6362 36.0649 18.7061 37.2295 18.7061C38.4014 18.7061 39.3169 19.6509 39.3169 20.8594V20.874C39.3169 22.0679 38.4014 22.9321 37.2075 22.9321Z" fill="white"/>
<path d="M44.4588 21.1523C45.1326 21.1523 45.6233 20.6396 45.6233 19.9951C45.6233 19.3433 45.1326 18.8379 44.4588 18.8379C43.7923 18.8379 43.2942 19.3433 43.2942 19.9951C43.2942 20.6396 43.7923 21.1523 44.4588 21.1523ZM44.4588 26.5869C45.1326 26.5869 45.6233 26.0815 45.6233 25.4297C45.6233 24.7778 45.1326 24.2725 44.4588 24.2725C43.7923 24.2725 43.2942 24.7778 43.2942 25.4297C43.2942 26.0815 43.7923 26.5869 44.4588 26.5869Z" fill="white"/>
<path d="M52.6109 28.0005H54.42V25.9717H55.8409V24.4116H54.42V17.4316H51.7467C50.3111 19.6143 48.8097 22.0459 47.44 24.4263V25.9717H52.6109V28.0005ZM49.1979 24.4556V24.3457C50.2232 22.5513 51.4464 20.5957 52.5304 18.9404H52.6402V24.4556H49.1979Z" fill="white"/>
<path d="M59.9208 28.0005H61.8104V17.4316H59.9281L57.1669 19.3726V21.1523L59.7963 19.292H59.9208V28.0005Z" fill="white"/>
</g>
<defs>
<filter id="filter0_d_3539_11540" x="-3" y="806" width="398" height="42" filterUnits="userSpaceOnUse" color-interpolation-filters="sRGB">
<feFlood flood-opacity="0" result="BackgroundImageFix"/>
<feColorMatrix in="SourceAlpha" type="matrix" values="0 0 0 0 0 0 0 0 0 0 0 0 0 0 0 0 0 0 127 0" result="hardAlpha"/>
<feOffset/>
<feGaussianBlur stdDeviation="2"/>
<feComposite in2="hardAlpha" operator="out"/>
<feColorMatrix type="matrix" values="0 0 0 0 0.854902 0 0 0 0 0.87451 0 0 0 0 0.909804 0 0 0 1 0"/>
<feBlend mode="normal" in2="BackgroundImageFix" result="effect1_dropShadow_3539_11540"/>
<feBlend mode="normal" in="SourceGraphic" in2="effect1_dropShadow_3539_11540" result="shape"/>
</filter>
<clipPath id="clip0_3539_11540">
<rect width="390" height="844" fill="white"/>
</clipPath>
</defs>
</svg>
