<svg width="390" height="832" viewBox="0 0 390 832" fill="none" xmlns="http://www.w3.org/2000/svg">
<path d="M43.1582 264.811V263.523" stroke="#2F2F2F" stroke-width="3" stroke-linecap="round"/>
<rect width="390" height="832" fill="#2F2F2F"/>
<g clip-path="url(#clip0_4991_34700)">
<rect width="358" height="570" transform="translate(16 44)" fill="#FBFBFC"/>
<rect x="31.1885" y="69.4727" width="328.626" height="12.8513" fill="#FDEACE"/>
<path d="M31.1885 69.4727H79.8398C83.3885 69.4727 86.2654 72.3495 86.2654 75.8983V75.8983C86.2654 79.4471 83.3885 82.3239 79.8398 82.3239H31.1885V69.4727Z" fill="#F9BC5F"/>
<rect x="166.303" y="157.705" width="84.4513" height="29.3744" rx="14.6872" fill="#F9BC5F"/>
<path d="M192.351 167.806V176.893H190.707V169.4H190.657L188.536 170.756V169.262L190.782 167.806H192.351ZM203.426 166.677V175.048H202.033V170.869H199.749V173.203H194.441V167.417H195.834V169.25H198.369V167.417H199.749V169.739H202.033V166.677H203.426ZM203.677 176.654V177.784H195.947V174.219H197.365V176.654H203.677ZM195.834 172.098H198.369V170.329H195.834V172.098ZM217.922 172.337V173.454H213.542V175.537H212.162V173.454H207.556V172.337H217.922ZM216.592 167.179V171.283H208.874V167.179H216.592ZM210.229 168.271V170.191H215.211V168.271H210.229ZM216.78 176.654V177.784H208.811V174.496H210.204V176.654H216.78ZM228.182 166.664V178.01H226.852V166.664H228.182ZM225.873 166.878V177.457H224.555V171.747H222.924V170.618H224.555V166.878H225.873ZM221.92 169.764C221.92 171.684 222.61 173.604 224.229 174.533L223.401 175.562C222.353 174.935 221.656 173.855 221.267 172.563C220.866 173.962 220.144 175.154 219.071 175.826L218.217 174.784C219.862 173.793 220.577 171.734 220.577 169.764V169.011H218.607V167.882H223.752V169.011H221.92V169.764Z" fill="#504F4E"/>
<rect x="31.1885" y="207.164" width="327.708" height="91.7949" rx="14.6872" fill="#FDEACE"/>
<path d="M83.0819 242.422H82.4651V250.177C82.4651 250.559 82.2594 250.75 81.8482 250.75H80.9082C80.497 250.75 80.2914 250.559 80.2914 250.177V249.516C78.4702 249.971 76.4286 250.191 74.1521 250.191C73.829 250.191 73.6674 250.045 73.6674 249.751V236.914C73.6674 236.562 73.8731 236.371 74.299 236.371H75.3418C75.7237 236.371 75.9293 236.562 75.9293 236.929V247.93C77.3099 247.93 78.7639 247.753 80.2914 247.372V236.621C80.2914 236.283 80.4676 236.106 80.8495 236.106H81.8629C82.2594 236.106 82.4651 236.283 82.4651 236.635V240.131H83.0819V236.621C83.0819 236.283 83.2582 236.106 83.64 236.106H84.6681C85.05 236.106 85.2409 236.283 85.2409 236.635V250.177C85.2409 250.559 85.0353 250.75 84.6535 250.75H83.6988C83.2876 250.75 83.0819 250.559 83.0819 250.147V242.422ZM97.5818 240.131C97.9931 240.131 98.1987 240.322 98.1987 240.689V241.805C98.1987 242.216 97.9931 242.422 97.6112 242.422H96.8769V250.103C96.8769 250.544 96.6712 250.764 96.2894 250.764H95.1585C94.7472 250.764 94.5416 250.559 94.5416 250.133V236.621C94.5416 236.283 94.7178 236.106 95.085 236.106H96.3041C96.6859 236.106 96.8769 236.283 96.8769 236.635V240.131H97.5818ZM91.002 238.853C91.002 238.633 90.8845 238.515 90.6495 238.515H87.0952C86.7427 238.515 86.5811 238.324 86.5811 237.928V237.032C86.5811 236.621 86.7574 236.4 87.1393 236.4H92.8232C93.2491 236.4 93.4694 236.665 93.4694 237.179C93.4988 243.156 92.1182 247.46 89.3277 250.103C89.078 250.353 88.6814 250.471 88.1527 250.471H87.3155C86.9924 250.471 86.8015 250.382 86.7427 250.191C86.684 250.001 86.8015 249.766 87.0952 249.501C89.7536 246.887 91.0607 243.333 91.002 238.853ZM112.381 248.267C112.793 248.267 112.998 248.488 112.998 248.899V249.854C112.998 250.25 112.793 250.441 112.381 250.441H103.496C103.055 250.441 102.835 250.236 102.835 249.795V248.899C102.835 248.488 103.04 248.267 103.466 248.267H112.381ZM112.455 236.4C112.807 236.4 112.998 236.606 112.998 237.017C112.998 240.601 112.719 243.803 112.176 246.652C112.102 247.034 111.853 247.21 111.427 247.21H110.443C110.178 247.21 110.002 247.151 109.943 247.004C109.87 246.872 109.855 246.696 109.914 246.461C110.296 244.096 110.531 241.57 110.59 238.868C110.619 238.633 110.516 238.5 110.281 238.5H103.319C102.996 238.5 102.835 238.339 102.835 238.001V236.914C102.835 236.576 102.996 236.4 103.319 236.4H112.455ZM124.742 248.723C125.124 248.723 125.314 248.899 125.314 249.237V250.206C125.314 250.588 125.138 250.764 124.786 250.764H115.107C114.71 250.764 114.519 250.603 114.519 250.265V246.755C114.519 246.417 114.696 246.241 115.077 246.241H116.311C116.664 246.241 116.855 246.417 116.855 246.755V248.723H124.742ZM125.212 244.845C125.182 245.271 124.962 245.492 124.521 245.506H123.64C123.17 245.506 122.935 245.33 122.935 244.978V244.405C120.556 245.08 117.971 245.418 115.18 245.418C114.681 245.418 114.431 245.227 114.431 244.831V239.852C114.431 239.529 114.608 239.352 114.989 239.352H119.322V238.339H115.136C114.681 238.339 114.461 238.163 114.461 237.81V237.032C114.461 236.606 114.637 236.386 115.019 236.386H120.82C121.29 236.386 121.525 236.591 121.525 236.973V240.645C121.525 241.174 121.246 241.423 120.688 241.423H116.605V243.333C119.014 243.215 121.114 242.848 122.935 242.202V236.606C122.935 236.268 123.17 236.092 123.64 236.092H124.507C124.977 236.092 125.212 236.268 125.212 236.621V244.845ZM140.929 250.103C140.929 250.544 140.723 250.764 140.341 250.764H139.21C138.799 250.764 138.593 250.559 138.593 250.133V236.621C138.593 236.283 138.77 236.106 139.137 236.106H140.356C140.738 236.106 140.929 236.283 140.929 236.635V250.103ZM135.054 238.853C135.054 238.633 134.936 238.515 134.701 238.515H130.78C130.427 238.515 130.266 238.324 130.266 237.928V237.032C130.266 236.621 130.442 236.4 130.824 236.4H136.875C137.301 236.4 137.521 236.665 137.521 237.179C137.551 243.156 136.023 247.46 132.939 250.103C132.689 250.353 132.293 250.471 131.764 250.471H130.927C130.604 250.471 130.413 250.382 130.354 250.191C130.295 250.001 130.413 249.766 130.706 249.501C133.658 246.887 135.113 243.333 135.054 238.853ZM152.675 248.723C153.057 248.723 153.248 248.899 153.248 249.237V250.206C153.248 250.588 153.072 250.764 152.719 250.764H143.041C142.644 250.764 142.453 250.603 142.453 250.265V246.755C142.453 246.417 142.629 246.241 143.011 246.241H144.245C144.597 246.241 144.788 246.417 144.788 246.755V248.723H152.675ZM153.145 244.845C153.116 245.271 152.896 245.492 152.455 245.506H151.574C151.104 245.506 150.869 245.33 150.869 244.978V244.405C148.49 245.08 145.905 245.418 143.114 245.418C142.615 245.418 142.365 245.227 142.365 244.831V239.852C142.365 239.529 142.541 239.352 142.923 239.352H147.256V238.339H143.07C142.615 238.339 142.394 238.163 142.394 237.81V237.032C142.394 236.606 142.571 236.386 142.952 236.386H148.754C149.224 236.386 149.459 236.591 149.459 236.973V240.645C149.459 241.174 149.18 241.423 148.622 241.423H144.539V243.333C146.947 243.215 149.048 242.848 150.869 242.202V236.606C150.869 236.268 151.104 236.092 151.574 236.092H152.44C152.91 236.092 153.145 236.268 153.145 236.621V244.845ZM167.776 248.267C168.187 248.267 168.392 248.488 168.392 248.899V249.854C168.392 250.25 168.187 250.441 167.776 250.441H158.89C158.449 250.441 158.229 250.236 158.229 249.795V248.899C158.229 248.488 158.435 248.267 158.86 248.267H167.776ZM167.849 236.4C168.201 236.4 168.392 236.606 168.392 237.017C168.392 240.601 168.113 243.803 167.57 246.652C167.496 247.034 167.247 247.21 166.821 247.21H165.837C165.572 247.21 165.396 247.151 165.337 247.004C165.264 246.872 165.249 246.696 165.308 246.461C165.69 244.096 165.925 241.57 165.984 238.868C166.013 238.633 165.91 238.5 165.675 238.5H158.714C158.39 238.5 158.229 238.339 158.229 238.001V236.914C158.229 236.576 158.39 236.4 158.714 236.4H167.849ZM180.606 244.317C180.591 244.743 180.371 244.963 179.945 244.978H179.049C178.579 244.978 178.344 244.801 178.344 244.449V243.788C175.906 244.522 173.321 244.889 170.574 244.889C170.06 244.889 169.811 244.698 169.811 244.302V239.661C169.811 239.338 169.987 239.161 170.354 239.161H174.672V238.354H170.516C170.046 238.354 169.825 238.177 169.825 237.825V237.046C169.825 236.621 170.002 236.4 170.384 236.4H176.17C176.64 236.4 176.875 236.606 176.875 236.988V240.351C176.875 240.88 176.596 241.129 176.053 241.129H171.97V242.863C174.364 242.745 176.493 242.349 178.344 241.644V236.606C178.344 236.268 178.579 236.092 179.049 236.092H179.916C180.371 236.092 180.606 236.268 180.606 236.621V244.317ZM180.635 250.147C180.635 250.559 180.4 250.764 179.96 250.764H170.56C170.149 250.764 169.943 250.603 169.943 250.265V246.064C169.943 245.712 170.163 245.521 170.619 245.521H179.96C180.4 245.521 180.635 245.712 180.635 246.064V250.147ZM178.344 248.972V247.372H172.219V249.002L178.344 248.972ZM182.685 245.594C182.244 245.594 182.039 245.389 182.039 244.948V244.008C182.039 243.597 182.23 243.391 182.626 243.391H192.334C192.716 243.406 192.922 243.582 192.922 243.935V244.948C192.922 245.389 192.716 245.594 192.334 245.594H182.685ZM192.334 248.605C192.716 248.605 192.922 248.781 192.922 249.119V250.177C192.922 250.573 192.731 250.764 192.379 250.764H182.597C182.23 250.764 182.053 250.588 182.053 250.221V246.843C182.053 246.461 182.244 246.27 182.641 246.27H183.772C184.154 246.27 184.359 246.461 184.359 246.828V248.605H192.334ZM187.473 235.96C188.604 235.96 189.529 236.033 190.234 236.18C190.939 236.327 191.497 236.532 191.894 236.811C192.29 237.105 192.555 237.458 192.702 237.884C192.849 238.324 192.922 238.824 192.922 239.382C192.922 239.925 192.849 240.395 192.702 240.792C192.555 241.203 192.276 241.541 191.879 241.805C191.468 242.069 190.91 242.275 190.205 242.407C189.5 242.539 188.575 242.598 187.458 242.598C186.401 242.598 185.534 242.539 184.844 242.407C184.139 242.275 183.596 242.069 183.184 241.805C182.773 241.541 182.479 241.203 182.303 240.792C182.127 240.395 182.053 239.925 182.053 239.382C182.053 238.824 182.127 238.324 182.303 237.898C182.465 237.472 182.744 237.12 183.155 236.826C183.566 236.532 184.11 236.327 184.815 236.18C185.505 236.033 186.386 235.96 187.473 235.96ZM187.458 240.601C188.075 240.601 188.589 240.586 189 240.527C189.412 240.483 189.735 240.41 189.985 240.307C190.234 240.204 190.41 240.072 190.513 239.925C190.616 239.778 190.675 239.587 190.675 239.382C190.675 239.147 190.616 238.941 190.513 238.765C190.396 238.589 190.22 238.442 189.97 238.324C189.72 238.207 189.397 238.119 188.986 238.06C188.575 238.001 188.061 237.972 187.473 237.972C186.871 237.972 186.371 238.001 185.975 238.06C185.564 238.119 185.241 238.207 185.006 238.324C184.756 238.442 184.58 238.589 184.477 238.765C184.359 238.941 184.315 239.147 184.315 239.382C184.315 239.587 184.359 239.778 184.447 239.925C184.536 240.072 184.697 240.204 184.932 240.307C185.167 240.41 185.476 240.483 185.887 240.527C186.298 240.586 186.812 240.601 187.458 240.601ZM200.456 248.502V249.061H208.372C208.695 249.061 208.872 249.193 208.872 249.486V250.28C208.872 250.603 208.695 250.764 208.372 250.764H198.796C198.341 250.764 198.121 250.559 198.121 250.147V247.768C198.121 247.357 198.311 247.137 198.708 247.137H206.536V246.578H198.737C198.326 246.578 198.121 246.417 198.121 246.079V245.462C198.121 245.095 198.282 244.904 198.635 244.904H208.225C208.651 244.904 208.872 245.08 208.872 245.418V248.077C208.872 248.37 208.695 248.502 208.372 248.502H200.456ZM201.41 238.354C201.308 238.574 201.22 238.794 201.146 239.029C203.907 238.824 205.273 240.38 205.244 243.7C205.244 244.126 205.009 244.346 204.568 244.346H203.511C203.129 244.346 202.953 244.155 202.953 243.773C202.923 241.629 202.145 240.762 200.632 241.174C200.515 241.967 200.441 242.833 200.441 243.773C200.441 244.155 200.221 244.331 199.795 244.331H198.796C198.385 244.331 198.179 244.126 198.179 243.714C198.179 241.952 198.502 240.16 199.134 238.354H198.458C198.15 238.354 198.003 238.207 198.003 237.898V236.841C198.003 236.547 198.15 236.386 198.458 236.386H204.935C205.273 236.386 205.449 236.547 205.449 236.855V237.825C205.449 238.177 205.273 238.354 204.921 238.354H201.41ZM209.297 238.912C209.606 238.912 209.767 239.103 209.767 239.47V240.659C209.767 241.027 209.591 241.203 209.268 241.203H208.519V243.788C208.519 244.17 208.313 244.346 207.917 244.346H206.742C206.345 244.346 206.154 244.17 206.154 243.817V236.576C206.154 236.268 206.345 236.106 206.727 236.106H207.946C208.328 236.106 208.519 236.283 208.519 236.606V238.912H209.297ZM224.016 248.267C224.427 248.267 224.633 248.488 224.633 248.899V249.854C224.633 250.25 224.427 250.441 224.016 250.441H215.13C214.69 250.441 214.469 250.236 214.469 249.795V248.899C214.469 248.488 214.675 248.267 215.101 248.267H224.016ZM224.089 236.4C224.442 236.4 224.633 236.606 224.633 237.017C224.633 240.601 224.354 243.803 223.81 246.652C223.737 247.034 223.487 247.21 223.061 247.21H222.077C221.813 247.21 221.637 247.151 221.578 247.004C221.504 246.872 221.49 246.696 221.549 246.461C221.93 244.096 222.165 241.57 222.224 238.868C222.254 238.633 222.151 238.5 221.916 238.5H214.954C214.631 238.5 214.469 238.339 214.469 238.001V236.914C214.469 236.576 214.631 236.4 214.954 236.4H224.089ZM236.376 248.723C236.758 248.723 236.949 248.899 236.949 249.237V250.206C236.949 250.588 236.773 250.764 236.42 250.764H226.741C226.345 250.764 226.154 250.603 226.154 250.265V246.755C226.154 246.417 226.33 246.241 226.712 246.241H227.946C228.298 246.241 228.489 246.417 228.489 246.755V248.723H236.376ZM236.846 244.845C236.817 245.271 236.597 245.492 236.156 245.506H235.275C234.805 245.506 234.57 245.33 234.57 244.978V244.405C232.19 245.08 229.605 245.418 226.815 245.418C226.316 245.418 226.066 245.227 226.066 244.831V239.852C226.066 239.529 226.242 239.352 226.624 239.352H230.957V238.339H226.771C226.316 238.339 226.095 238.163 226.095 237.81V237.032C226.095 236.606 226.271 236.386 226.653 236.386H232.455C232.925 236.386 233.16 236.591 233.16 236.973V240.645C233.16 241.174 232.881 241.423 232.323 241.423H228.24V243.333C230.648 243.215 232.749 242.848 234.57 242.202V236.606C234.57 236.268 234.805 236.092 235.275 236.092H236.141C236.611 236.092 236.846 236.268 236.846 236.621V244.845ZM252.563 250.103C252.563 250.544 252.358 250.764 251.976 250.764H250.845C250.434 250.764 250.228 250.559 250.228 250.133V236.621C250.228 236.283 250.404 236.106 250.771 236.106H251.99C252.372 236.106 252.563 236.283 252.563 236.635V250.103ZM246.688 238.853C246.688 238.633 246.571 238.515 246.336 238.515H242.414C242.062 238.515 241.9 238.324 241.9 237.928V237.032C241.9 236.621 242.077 236.4 242.458 236.4H248.51C248.936 236.4 249.156 236.665 249.156 237.179C249.185 243.156 247.658 247.46 244.573 250.103C244.324 250.353 243.927 250.471 243.398 250.471H242.561C242.238 250.471 242.047 250.382 241.988 250.191C241.93 250.001 242.047 249.766 242.341 249.501C245.293 246.887 246.747 243.333 246.688 238.853ZM264.31 248.723C264.692 248.723 264.883 248.899 264.883 249.237V250.206C264.883 250.588 264.707 250.764 264.354 250.764H254.675C254.279 250.764 254.088 250.603 254.088 250.265V246.755C254.088 246.417 254.264 246.241 254.646 246.241H255.88C256.232 246.241 256.423 246.417 256.423 246.755V248.723H264.31ZM264.78 244.845C264.751 245.271 264.53 245.492 264.09 245.506H263.208C262.738 245.506 262.504 245.33 262.504 244.978V244.405C260.124 245.08 257.539 245.418 254.749 245.418C254.249 245.418 254 245.227 254 244.831V239.852C254 239.529 254.176 239.352 254.558 239.352H258.89V238.339H254.705C254.249 238.339 254.029 238.163 254.029 237.81V237.032C254.029 236.606 254.205 236.386 254.587 236.386H260.389C260.859 236.386 261.094 236.591 261.094 236.973V240.645C261.094 241.174 260.814 241.423 260.256 241.423H256.173V243.333C258.582 243.215 260.682 242.848 262.504 242.202V236.606C262.504 236.268 262.738 236.092 263.208 236.092H264.075C264.545 236.092 264.78 236.268 264.78 236.621V244.845ZM279.41 248.267C279.821 248.267 280.027 248.488 280.027 248.899V249.854C280.027 250.25 279.821 250.441 279.41 250.441H270.524C270.084 250.441 269.864 250.236 269.864 249.795V248.899C269.864 248.488 270.069 248.267 270.495 248.267H279.41ZM279.484 236.4C279.836 236.4 280.027 236.606 280.027 237.017C280.027 240.601 279.748 243.803 279.205 246.652C279.131 247.034 278.881 247.21 278.456 247.21H277.471C277.207 247.21 277.031 247.151 276.972 247.004C276.899 246.872 276.884 246.696 276.943 246.461C277.325 244.096 277.56 241.57 277.618 238.868C277.648 238.633 277.545 238.5 277.31 238.5H270.348C270.025 238.5 269.864 238.339 269.864 238.001V236.914C269.864 236.576 270.025 236.4 270.348 236.4H279.484ZM292.24 244.317C292.226 244.743 292.005 244.963 291.58 244.978H290.684C290.214 244.978 289.979 244.801 289.979 244.449V243.788C287.541 244.522 284.956 244.889 282.209 244.889C281.695 244.889 281.445 244.698 281.445 244.302V239.661C281.445 239.338 281.622 239.161 281.989 239.161H286.307V238.354H282.15C281.68 238.354 281.46 238.177 281.46 237.825V237.046C281.46 236.621 281.636 236.4 282.018 236.4H287.805C288.275 236.4 288.51 236.606 288.51 236.988V240.351C288.51 240.88 288.231 241.129 287.687 241.129H283.604V242.863C285.998 242.745 288.128 242.349 289.979 241.644V236.606C289.979 236.268 290.214 236.092 290.684 236.092H291.55C292.005 236.092 292.24 236.268 292.24 236.621V244.317ZM292.27 250.147C292.27 250.559 292.035 250.764 291.594 250.764H282.194C281.783 250.764 281.578 250.603 281.578 250.265V246.064C281.578 245.712 281.798 245.521 282.253 245.521H291.594C292.035 245.521 292.27 245.712 292.27 246.064V250.147ZM289.979 248.972V247.372H283.854V249.002L289.979 248.972ZM304.513 250.236C304.513 250.588 304.336 250.764 303.984 250.764H302.721C302.354 250.764 302.177 250.573 302.177 250.191V236.621C302.177 236.283 302.354 236.106 302.721 236.106H303.94C304.322 236.106 304.513 236.297 304.513 236.65V250.236ZM297.448 236.106C298.212 236.106 298.829 236.253 299.328 236.547C299.813 236.841 300.194 237.296 300.488 237.884C300.767 238.471 300.958 239.22 301.076 240.101C301.179 240.983 301.237 242.025 301.237 243.2C301.237 244.463 301.179 245.58 301.061 246.52C300.944 247.46 300.738 248.253 300.459 248.884C300.165 249.516 299.783 249.986 299.299 250.294C298.799 250.617 298.182 250.764 297.448 250.764C296.684 250.764 296.053 250.617 295.553 250.294C295.054 249.971 294.657 249.501 294.364 248.87C294.07 248.238 293.879 247.445 293.762 246.505C293.644 245.565 293.585 244.463 293.585 243.2C293.585 242.025 293.644 240.997 293.776 240.116C293.908 239.235 294.129 238.486 294.422 237.898C294.716 237.311 295.113 236.855 295.612 236.562C296.111 236.268 296.714 236.106 297.448 236.106ZM299.034 243.2C299.034 242.378 299.005 241.644 298.975 241.012C298.931 240.395 298.858 239.866 298.74 239.455C298.623 239.044 298.461 238.721 298.256 238.515C298.05 238.31 297.786 238.207 297.463 238.207C297.125 238.207 296.861 238.31 296.655 238.515C296.449 238.721 296.288 239.044 296.17 239.455C296.053 239.866 295.979 240.395 295.95 241.012C295.906 241.644 295.891 242.378 295.891 243.2C295.891 245.036 295.994 246.417 296.214 247.327C296.42 248.238 296.846 248.693 297.463 248.693C297.771 248.693 298.035 248.591 298.241 248.356C298.447 248.121 298.608 247.783 298.726 247.313C298.843 246.857 298.917 246.285 298.961 245.594C299.005 244.919 299.034 244.111 299.034 243.2ZM315.74 248.267C316.151 248.267 316.357 248.488 316.357 248.899V249.854C316.357 250.25 316.151 250.441 315.74 250.441H306.59C306.149 250.441 305.929 250.236 305.929 249.795V248.899C305.929 248.488 306.135 248.267 306.561 248.267H308.955V242.334C308.955 241.908 309.175 241.688 309.645 241.688H310.629C311.07 241.688 311.305 241.908 311.305 242.334V248.267H315.74ZM315.813 236.4C316.166 236.4 316.357 236.606 316.357 237.017C316.357 240.601 316.078 243.803 315.534 246.652C315.461 247.034 315.211 247.21 314.785 247.21H313.801C313.537 247.21 313.361 247.151 313.302 247.004C313.229 246.872 313.214 246.696 313.273 246.461C313.654 244.096 313.889 241.57 313.948 238.868C313.978 238.633 313.875 238.5 313.64 238.5H306.414C306.091 238.5 305.929 238.339 305.929 238.001V236.914C305.929 236.576 306.091 236.4 306.414 236.4H315.813ZM80.1022 272.191C80.1022 272.573 79.8965 272.764 79.5 272.764H78.56C78.1488 272.764 77.9578 272.573 77.9578 272.191V271.692C76.2541 272.147 74.3888 272.368 72.3914 272.368C72.0536 272.368 71.892 272.221 71.892 271.927V258.944C71.892 258.591 72.0976 258.4 72.5236 258.4H73.5664C73.9629 258.4 74.1685 258.591 74.1685 258.958V270.106C75.5198 270.106 76.7829 269.93 77.9578 269.548V264.422H76.6654C76.2247 264.422 76.0191 264.216 76.0191 263.805V262.674C76.0191 262.322 76.2247 262.131 76.6507 262.131H77.9578V258.591C77.9578 258.268 78.1341 258.092 78.5013 258.092H79.5294C79.9112 258.092 80.1022 258.268 80.1022 258.621V272.191ZM80.719 258.591C80.719 258.268 80.91 258.092 81.2918 258.092H82.2905C82.6871 258.092 82.8927 258.268 82.8927 258.621V272.191C82.8927 272.573 82.6871 272.764 82.2759 272.764H81.3359C80.9246 272.764 80.719 272.573 80.719 272.191V258.591ZM95.2331 262.131C95.6443 262.131 95.8499 262.322 95.8499 262.689V263.805C95.8499 264.216 95.6443 264.422 95.2624 264.422H94.5281V272.103C94.5281 272.544 94.3224 272.764 93.9406 272.764H92.8097C92.3984 272.764 92.1928 272.559 92.1928 272.133V258.621C92.1928 258.283 92.3691 258.106 92.7362 258.106H93.9553C94.3371 258.106 94.5281 258.283 94.5281 258.635V262.131H95.2331ZM88.6532 260.853C88.6532 260.633 88.5357 260.515 88.3007 260.515H84.7464C84.3939 260.515 84.2324 260.324 84.2324 259.928V259.032C84.2324 258.621 84.4086 258.4 84.7905 258.4H90.4744C90.9003 258.4 91.1206 258.665 91.1206 259.179C91.15 265.156 89.7694 269.46 86.9789 272.103C86.7292 272.353 86.3326 272.471 85.8039 272.471H84.9667C84.6436 272.471 84.4527 272.382 84.3939 272.191C84.3352 272.001 84.4527 271.766 84.7464 271.501C87.4048 268.887 88.7119 265.333 88.6532 260.853ZM110.033 270.267C110.444 270.267 110.649 270.488 110.649 270.899V271.854C110.649 272.25 110.444 272.441 110.033 272.441H101.147C100.706 272.441 100.486 272.236 100.486 271.795V270.899C100.486 270.488 100.692 270.267 101.117 270.267H110.033ZM110.106 258.4C110.458 258.4 110.649 258.606 110.649 259.017C110.649 262.601 110.37 265.803 109.827 268.652C109.754 269.034 109.504 269.21 109.078 269.21H108.094C107.829 269.21 107.653 269.151 107.594 269.004C107.521 268.872 107.506 268.696 107.565 268.461C107.947 266.096 108.182 263.57 108.241 260.868C108.27 260.633 108.167 260.5 107.932 260.5H100.971C100.647 260.5 100.486 260.339 100.486 260.001V258.914C100.486 258.576 100.647 258.4 100.971 258.4H110.106ZM122.393 270.723C122.775 270.723 122.966 270.899 122.966 271.237V272.206C122.966 272.588 122.789 272.764 122.437 272.764H112.758C112.362 272.764 112.171 272.603 112.171 272.265V268.755C112.171 268.417 112.347 268.241 112.729 268.241H113.962C114.315 268.241 114.506 268.417 114.506 268.755V270.723H122.393ZM122.863 266.845C122.833 267.271 122.613 267.492 122.173 267.506H121.291C120.821 267.506 120.586 267.33 120.586 266.978V266.405C118.207 267.08 115.622 267.418 112.832 267.418C112.332 267.418 112.082 267.227 112.082 266.831V261.852C112.082 261.529 112.259 261.352 112.641 261.352H116.973V260.339H112.787C112.332 260.339 112.112 260.163 112.112 259.81V259.032C112.112 258.606 112.288 258.386 112.67 258.386H118.471C118.941 258.386 119.176 258.591 119.176 258.973V262.645C119.176 263.174 118.897 263.423 118.339 263.423H114.256V265.333C116.665 265.215 118.765 264.848 120.586 264.202V258.606C120.586 258.268 120.821 258.092 121.291 258.092H122.158C122.628 258.092 122.863 258.268 122.863 258.621V266.845ZM138.58 272.103C138.58 272.544 138.374 272.764 137.992 272.764H136.861C136.45 272.764 136.245 272.559 136.245 272.133V258.621C136.245 258.283 136.421 258.106 136.788 258.106H138.007C138.389 258.106 138.58 258.283 138.58 258.635V272.103ZM132.705 260.853C132.705 260.633 132.587 260.515 132.352 260.515H128.431C128.079 260.515 127.917 260.324 127.917 259.928V259.032C127.917 258.621 128.093 258.4 128.475 258.4H134.526C134.952 258.4 135.172 258.665 135.172 259.179C135.202 265.156 133.674 269.46 130.59 272.103C130.34 272.353 129.944 272.471 129.415 272.471H128.578C128.255 272.471 128.064 272.382 128.005 272.191C127.946 272.001 128.064 271.766 128.358 271.501C131.31 268.887 132.764 265.333 132.705 260.853ZM150.327 270.723C150.708 270.723 150.899 270.899 150.899 271.237V272.206C150.899 272.588 150.723 272.764 150.371 272.764H140.692C140.295 272.764 140.104 272.603 140.104 272.265V268.755C140.104 268.417 140.281 268.241 140.662 268.241H141.896C142.249 268.241 142.44 268.417 142.44 268.755V270.723H150.327ZM150.797 266.845C150.767 267.271 150.547 267.492 150.106 267.506H149.225C148.755 267.506 148.52 267.33 148.52 266.978V266.405C146.141 267.08 143.556 267.418 140.765 267.418C140.266 267.418 140.016 267.227 140.016 266.831V261.852C140.016 261.529 140.192 261.352 140.574 261.352H144.907V260.339H140.721C140.266 260.339 140.046 260.163 140.046 259.81V259.032C140.046 258.606 140.222 258.386 140.604 258.386H146.405C146.875 258.386 147.11 258.591 147.11 258.973V262.645C147.11 263.174 146.831 263.423 146.273 263.423H142.19V265.333C144.599 265.215 146.699 264.848 148.52 264.202V258.606C148.52 258.268 148.755 258.092 149.225 258.092H150.092C150.562 258.092 150.797 258.268 150.797 258.621V266.845ZM165.427 270.267C165.838 270.267 166.044 270.488 166.044 270.899V271.854C166.044 272.25 165.838 272.441 165.427 272.441H156.541C156.1 272.441 155.88 272.236 155.88 271.795V270.899C155.88 270.488 156.086 270.267 156.512 270.267H165.427ZM165.5 258.4C165.853 258.4 166.044 258.606 166.044 259.017C166.044 262.601 165.765 265.803 165.221 268.652C165.148 269.034 164.898 269.21 164.472 269.21H163.488C163.224 269.21 163.047 269.151 162.989 269.004C162.915 268.872 162.901 268.696 162.959 268.461C163.341 266.096 163.576 263.57 163.635 260.868C163.664 260.633 163.561 260.5 163.326 260.5H156.365C156.042 260.5 155.88 260.339 155.88 260.001V258.914C155.88 258.576 156.042 258.4 156.365 258.4H165.5ZM178.257 266.317C178.242 266.743 178.022 266.963 177.596 266.978H176.7C176.23 266.978 175.995 266.801 175.995 266.449V265.788C173.557 266.522 170.972 266.889 168.226 266.889C167.712 266.889 167.462 266.698 167.462 266.302V261.661C167.462 261.338 167.638 261.161 168.005 261.161H172.323V260.354H168.167C167.697 260.354 167.477 260.177 167.477 259.825V259.046C167.477 258.621 167.653 258.4 168.035 258.4H173.822C174.292 258.4 174.526 258.606 174.526 258.988V262.351C174.526 262.88 174.247 263.129 173.704 263.129H169.621V264.863C172.015 264.745 174.145 264.349 175.995 263.644V258.606C175.995 258.268 176.23 258.092 176.7 258.092H177.567C178.022 258.092 178.257 258.268 178.257 258.621V266.317ZM178.286 272.147C178.286 272.559 178.051 272.764 177.611 272.764H168.211C167.8 272.764 167.594 272.603 167.594 272.265V268.064C167.594 267.712 167.814 267.521 168.27 267.521H177.611C178.051 267.521 178.286 267.712 178.286 268.064V272.147ZM175.995 270.972V269.372H169.871V271.002L175.995 270.972ZM180.336 267.594C179.896 267.594 179.69 267.389 179.69 266.948V266.008C179.69 265.597 179.881 265.391 180.277 265.391H189.986C190.368 265.406 190.573 265.582 190.573 265.935V266.948C190.573 267.389 190.368 267.594 189.986 267.594H180.336ZM189.986 270.605C190.368 270.605 190.573 270.781 190.573 271.119V272.177C190.573 272.573 190.382 272.764 190.03 272.764H180.248C179.881 272.764 179.705 272.588 179.705 272.221V268.843C179.705 268.461 179.896 268.27 180.292 268.27H181.423C181.805 268.27 182.011 268.461 182.011 268.828V270.605H189.986ZM185.124 257.96C186.255 257.96 187.18 258.033 187.885 258.18C188.59 258.327 189.149 258.532 189.545 258.811C189.942 259.105 190.206 259.458 190.353 259.884C190.5 260.324 190.573 260.824 190.573 261.382C190.573 261.925 190.5 262.395 190.353 262.792C190.206 263.203 189.927 263.541 189.53 263.805C189.119 264.069 188.561 264.275 187.856 264.407C187.151 264.539 186.226 264.598 185.11 264.598C184.052 264.598 183.186 264.539 182.495 264.407C181.79 264.275 181.247 264.069 180.836 263.805C180.424 263.541 180.131 263.203 179.954 262.792C179.778 262.395 179.705 261.925 179.705 261.382C179.705 260.824 179.778 260.324 179.954 259.898C180.116 259.472 180.395 259.12 180.806 258.826C181.217 258.532 181.761 258.327 182.466 258.18C183.156 258.033 184.037 257.96 185.124 257.96ZM185.11 262.601C185.726 262.601 186.24 262.586 186.652 262.527C187.063 262.483 187.386 262.41 187.636 262.307C187.885 262.204 188.062 262.072 188.164 261.925C188.267 261.778 188.326 261.587 188.326 261.382C188.326 261.147 188.267 260.941 188.164 260.765C188.047 260.589 187.871 260.442 187.621 260.324C187.371 260.207 187.048 260.119 186.637 260.06C186.226 260.001 185.712 259.972 185.124 259.972C184.522 259.972 184.023 260.001 183.626 260.06C183.215 260.119 182.892 260.207 182.657 260.324C182.407 260.442 182.231 260.589 182.128 260.765C182.011 260.941 181.966 261.147 181.966 261.382C181.966 261.587 182.011 261.778 182.099 261.925C182.187 262.072 182.348 262.204 182.583 262.307C182.818 262.41 183.127 262.483 183.538 262.527C183.949 262.586 184.463 262.601 185.11 262.601ZM202.263 263.732V264.584H205.965C206.332 264.584 206.523 264.774 206.523 265.127V266.126C206.523 266.478 206.347 266.64 205.994 266.64H196.154C195.801 266.64 195.625 266.463 195.625 266.096V265.127C195.625 264.774 195.801 264.584 196.154 264.584H199.869V263.732H196.168C195.801 263.732 195.625 263.57 195.625 263.218V258.576C195.625 258.253 195.786 258.077 196.139 258.077H205.935C206.317 258.077 206.523 258.253 206.523 258.576V263.129C206.523 263.541 206.317 263.732 205.921 263.732H202.263ZM197.901 261.778H204.32V259.986H197.901V261.778ZM204.305 272.764C203.938 272.764 203.762 272.603 203.791 272.28C203.908 270.517 202.807 269.695 200.486 269.827C200.046 270.958 199.458 271.824 198.709 272.441C198.445 272.661 198.166 272.764 197.872 272.764H196.065C195.889 272.764 195.801 272.706 195.772 272.573C195.742 272.456 195.83 272.309 196.007 272.162C197.475 270.958 198.298 269.489 198.474 267.771C198.504 267.477 198.694 267.315 199.047 267.315H200.428C200.751 267.315 200.883 267.448 200.854 267.682L200.824 267.947C204.613 267.771 206.479 269.225 206.42 272.309C206.391 272.617 206.214 272.764 205.891 272.764H204.305ZM221.151 270.267C221.562 270.267 221.768 270.488 221.768 270.899V271.854C221.768 272.25 221.562 272.441 221.151 272.441H212.265C211.824 272.441 211.604 272.236 211.604 271.795V270.899C211.604 270.488 211.81 270.267 212.236 270.267H221.151ZM221.224 258.4C221.577 258.4 221.768 258.606 221.768 259.017C221.768 262.601 221.489 265.803 220.945 268.652C220.872 269.034 220.622 269.21 220.196 269.21H219.212C218.948 269.21 218.772 269.151 218.713 269.004C218.639 268.872 218.625 268.696 218.683 268.461C219.065 266.096 219.3 263.57 219.359 260.868C219.388 260.633 219.286 260.5 219.051 260.5H212.089C211.766 260.5 211.604 260.339 211.604 260.001V258.914C211.604 258.576 211.766 258.4 212.089 258.4H221.224ZM233.511 270.723C233.893 270.723 234.084 270.899 234.084 271.237V272.206C234.084 272.588 233.908 272.764 233.555 272.764H223.876C223.48 272.764 223.289 272.603 223.289 272.265V268.755C223.289 268.417 223.465 268.241 223.847 268.241H225.081C225.433 268.241 225.624 268.417 225.624 268.755V270.723H233.511ZM233.981 266.845C233.952 267.271 233.731 267.492 233.291 267.506H232.41C231.94 267.506 231.705 267.33 231.705 266.978V266.405C229.325 267.08 226.74 267.418 223.95 267.418C223.45 267.418 223.201 267.227 223.201 266.831V261.852C223.201 261.529 223.377 261.352 223.759 261.352H228.092V260.339H223.906C223.45 260.339 223.23 260.163 223.23 259.81V259.032C223.23 258.606 223.406 258.386 223.788 258.386H229.59C230.06 258.386 230.295 258.591 230.295 258.973V262.645C230.295 263.174 230.016 263.423 229.457 263.423H225.374V265.333C227.783 265.215 229.883 264.848 231.705 264.202V258.606C231.705 258.268 231.94 258.092 232.41 258.092H233.276C233.746 258.092 233.981 258.268 233.981 258.621V266.845ZM249.698 272.103C249.698 272.544 249.493 272.764 249.111 272.764H247.98C247.568 272.764 247.363 272.559 247.363 272.133V258.621C247.363 258.283 247.539 258.106 247.906 258.106H249.125C249.507 258.106 249.698 258.283 249.698 258.635V272.103ZM243.823 260.853C243.823 260.633 243.706 260.515 243.471 260.515H239.549C239.197 260.515 239.035 260.324 239.035 259.928V259.032C239.035 258.621 239.211 258.4 239.593 258.4H245.644C246.07 258.4 246.291 258.665 246.291 259.179C246.32 265.156 244.793 269.46 241.708 272.103C241.459 272.353 241.062 272.471 240.533 272.471H239.696C239.373 272.471 239.182 272.382 239.123 272.191C239.065 272.001 239.182 271.766 239.476 271.501C242.428 268.887 243.882 265.333 243.823 260.853ZM261.445 270.723C261.827 270.723 262.018 270.899 262.018 271.237V272.206C262.018 272.588 261.841 272.764 261.489 272.764H251.81C251.414 272.764 251.223 272.603 251.223 272.265V268.755C251.223 268.417 251.399 268.241 251.781 268.241H253.014C253.367 268.241 253.558 268.417 253.558 268.755V270.723H261.445ZM261.915 266.845C261.886 267.271 261.665 267.492 261.225 267.506H260.343C259.873 267.506 259.638 267.33 259.638 266.978V266.405C257.259 267.08 254.674 267.418 251.884 267.418C251.384 267.418 251.134 267.227 251.134 266.831V261.852C251.134 261.529 251.311 261.352 251.693 261.352H256.025V260.339H251.839C251.384 260.339 251.164 260.163 251.164 259.81V259.032C251.164 258.606 251.34 258.386 251.722 258.386H257.523C257.993 258.386 258.228 258.591 258.228 258.973V262.645C258.228 263.174 257.949 263.423 257.391 263.423H253.308V265.333C255.717 265.215 257.817 264.848 259.638 264.202V258.606C259.638 258.268 259.873 258.092 260.343 258.092H261.21C261.68 258.092 261.915 258.268 261.915 258.621V266.845ZM276.545 270.267C276.956 270.267 277.162 270.488 277.162 270.899V271.854C277.162 272.25 276.956 272.441 276.545 272.441H267.659C267.219 272.441 266.998 272.236 266.998 271.795V270.899C266.998 270.488 267.204 270.267 267.63 270.267H276.545ZM276.618 258.4C276.971 258.4 277.162 258.606 277.162 259.017C277.162 262.601 276.883 265.803 276.339 268.652C276.266 269.034 276.016 269.21 275.59 269.21H274.606C274.342 269.21 274.166 269.151 274.107 269.004C274.034 268.872 274.019 268.696 274.078 268.461C274.459 266.096 274.694 263.57 274.753 260.868C274.783 260.633 274.68 260.5 274.445 260.5H267.483C267.16 260.5 266.998 260.339 266.998 260.001V258.914C266.998 258.576 267.16 258.4 267.483 258.4H276.618ZM289.375 266.317C289.361 266.743 289.14 266.963 288.714 266.978H287.818C287.348 266.978 287.113 266.801 287.113 266.449V265.788C284.675 266.522 282.09 266.889 279.344 266.889C278.83 266.889 278.58 266.698 278.58 266.302V261.661C278.58 261.338 278.756 261.161 279.124 261.161H283.442V260.354H279.285C278.815 260.354 278.595 260.177 278.595 259.825V259.046C278.595 258.621 278.771 258.4 279.153 258.4H284.94C285.41 258.4 285.645 258.606 285.645 258.988V262.351C285.645 262.88 285.366 263.129 284.822 263.129H280.739V264.863C283.133 264.745 285.263 264.349 287.113 263.644V258.606C287.113 258.268 287.348 258.092 287.818 258.092H288.685C289.14 258.092 289.375 258.268 289.375 258.621V266.317ZM289.405 272.147C289.405 272.559 289.17 272.764 288.729 272.764H279.329C278.918 272.764 278.712 272.603 278.712 272.265V268.064C278.712 267.712 278.933 267.521 279.388 267.521H288.729C289.17 267.521 289.405 267.712 289.405 268.064V272.147ZM287.113 270.972V269.372H280.989V271.002L287.113 270.972ZM301.647 272.236C301.647 272.588 301.471 272.764 301.119 272.764H299.856C299.488 272.764 299.312 272.573 299.312 272.191V258.621C299.312 258.283 299.488 258.106 299.856 258.106H301.075C301.456 258.106 301.647 258.297 301.647 258.65V272.236ZM294.583 258.106C295.347 258.106 295.963 258.253 296.463 258.547C296.947 258.841 297.329 259.296 297.623 259.884C297.902 260.471 298.093 261.22 298.211 262.101C298.313 262.983 298.372 264.025 298.372 265.2C298.372 266.463 298.313 267.58 298.196 268.52C298.078 269.46 297.873 270.253 297.594 270.884C297.3 271.516 296.918 271.986 296.433 272.294C295.934 272.617 295.317 272.764 294.583 272.764C293.819 272.764 293.188 272.617 292.688 272.294C292.189 271.971 291.792 271.501 291.499 270.87C291.205 270.238 291.014 269.445 290.896 268.505C290.779 267.565 290.72 266.463 290.72 265.2C290.72 264.025 290.779 262.997 290.911 262.116C291.043 261.235 291.264 260.486 291.557 259.898C291.851 259.311 292.248 258.855 292.747 258.562C293.246 258.268 293.848 258.106 294.583 258.106ZM296.169 265.2C296.169 264.378 296.14 263.644 296.11 263.012C296.066 262.395 295.993 261.866 295.875 261.455C295.758 261.044 295.596 260.721 295.391 260.515C295.185 260.31 294.921 260.207 294.598 260.207C294.26 260.207 293.995 260.31 293.79 260.515C293.584 260.721 293.423 261.044 293.305 261.455C293.188 261.866 293.114 262.395 293.085 263.012C293.041 263.644 293.026 264.378 293.026 265.2C293.026 267.036 293.129 268.417 293.349 269.327C293.555 270.238 293.981 270.693 294.598 270.693C294.906 270.693 295.17 270.591 295.376 270.356C295.582 270.121 295.743 269.783 295.861 269.313C295.978 268.857 296.052 268.285 296.096 267.594C296.14 266.919 296.169 266.111 296.169 265.2ZM314.021 262.131C314.388 262.131 314.579 262.307 314.579 262.63V263.82C314.579 264.231 314.388 264.422 314.006 264.422H313.242V272.162C313.242 272.573 313.036 272.764 312.625 272.764H311.48C311.083 272.764 310.892 272.588 310.892 272.206V271.78C307.999 272.221 305.634 272.456 303.784 272.456C303.314 272.456 303.079 272.221 303.079 271.751V259.002C303.079 258.606 303.284 258.4 303.695 258.4H309.159C309.541 258.4 309.747 258.591 309.747 258.958V259.913C309.747 260.295 309.541 260.486 309.13 260.486H305.326V270.341C307.264 270.341 309.115 270.106 310.892 269.665V258.635C310.892 258.283 311.068 258.106 311.436 258.106H312.64C313.036 258.106 313.242 258.283 313.242 258.635V262.131H314.021ZM318.207 271.398C318.177 271.898 318.075 272.236 317.884 272.397C317.693 272.573 317.37 272.676 316.9 272.706C316.4 272.676 316.077 272.573 315.901 272.397C315.725 272.221 315.636 271.898 315.622 271.398C315.636 270.928 315.725 270.591 315.901 270.4C316.062 270.209 316.4 270.106 316.9 270.077C317.399 270.106 317.737 270.194 317.913 270.37C318.089 270.546 318.177 270.899 318.207 271.398Z" fill="#855205"/>
<rect x="31.1885" y="329.25" width="327.708" height="91.7949" rx="14.6872" fill="white"/>
<path d="M183.219 354.74C184.35 354.74 185.275 354.799 185.98 354.916C186.685 355.034 187.243 355.225 187.64 355.46C188.036 355.695 188.3 356.003 188.447 356.356C188.58 356.708 188.653 357.134 188.653 357.604C188.653 358.074 188.565 358.485 188.418 358.838C188.271 359.19 187.992 359.469 187.596 359.704C187.184 359.939 186.641 360.115 185.936 360.233C185.231 360.35 184.32 360.409 183.219 360.409C182.102 360.409 181.192 360.35 180.458 360.233C179.723 360.115 179.136 359.939 178.695 359.704C178.254 359.469 177.931 359.175 177.755 358.823C177.579 358.47 177.491 358.059 177.491 357.589C177.491 357.119 177.564 356.708 177.74 356.356C177.902 356.003 178.196 355.695 178.636 355.46C179.062 355.225 179.65 355.034 180.384 354.916C181.118 354.799 182.073 354.74 183.219 354.74ZM180.942 347.881C180.854 348.057 180.766 348.219 180.693 348.395C183.263 348.366 184.526 350.055 184.497 353.462C184.497 353.888 184.262 354.108 183.821 354.108H182.763C182.382 354.108 182.205 353.917 182.205 353.536C182.176 351.274 181.471 350.26 180.09 350.495C179.914 351.406 179.826 352.434 179.826 353.55C179.826 353.932 179.606 354.108 179.18 354.108H178.181C177.77 354.108 177.564 353.903 177.564 353.492C177.564 351.553 177.887 349.673 178.519 347.881H177.74C177.432 347.881 177.285 347.734 177.285 347.426V346.354C177.285 346.06 177.432 345.898 177.74 345.898H184.32C184.658 345.898 184.834 346.06 184.834 346.368V347.352C184.834 347.705 184.658 347.881 184.306 347.881H180.942ZM185.98 348.718V346.133C185.98 345.781 186.156 345.605 186.509 345.605H187.757C188.124 345.605 188.315 345.781 188.315 346.104V353.727C188.315 354.064 188.124 354.226 187.757 354.226H186.479C186.141 354.226 185.98 354.05 185.98 353.697V351.009H185.187C184.849 351.009 184.687 350.863 184.687 350.569V349.218C184.687 348.894 184.849 348.718 185.201 348.718H185.98ZM183.233 358.588C183.85 358.588 184.364 358.573 184.776 358.529C185.172 358.5 185.495 358.441 185.73 358.353C185.965 358.265 186.127 358.162 186.215 358.045C186.303 357.927 186.362 357.765 186.362 357.589C186.362 357.413 186.318 357.266 186.23 357.134C186.141 357.016 185.98 356.914 185.745 356.826C185.51 356.737 185.187 356.679 184.776 356.635C184.364 356.605 183.85 356.576 183.219 356.576C182.543 356.576 181.97 356.605 181.53 356.635C181.089 356.679 180.737 356.737 180.472 356.826C180.208 356.914 180.032 357.016 179.929 357.134C179.811 357.266 179.767 357.413 179.767 357.589C179.767 357.765 179.811 357.927 179.914 358.045C180.002 358.162 180.178 358.265 180.443 358.353C180.707 358.441 181.06 358.5 181.5 358.529C181.941 358.573 182.528 358.588 183.233 358.588ZM199.746 345.59C200.143 345.59 200.348 345.766 200.348 346.104V348.806H201.068C201.421 348.806 201.597 348.953 201.597 349.247V350.51C201.597 350.833 201.435 350.98 201.112 350.98H200.348V355.269C200.348 355.636 200.143 355.812 199.732 355.812H198.63C198.219 355.812 198.028 355.636 198.028 355.283H190.391C189.979 355.283 189.774 355.078 189.774 354.666V353.873C189.774 353.433 189.979 353.212 190.42 353.212H192.256V352.449C190.714 352.346 189.95 351.479 189.95 349.834C189.979 349.012 190.17 348.41 190.523 348.043H190.2C189.847 348.043 189.671 347.866 189.671 347.484V346.574C189.671 346.221 189.832 346.045 190.185 346.045H192.168V345.649C192.168 345.355 192.344 345.193 192.696 345.193H194.062C194.415 345.193 194.606 345.355 194.606 345.649V346.045H196.691C197.059 346.045 197.249 346.221 197.249 346.544V347.558C197.249 347.881 197.073 348.043 196.75 348.043H196.28C196.662 348.41 196.868 349.012 196.868 349.834C196.868 351.479 196.089 352.346 194.562 352.449V353.242H198.028V346.148C198.028 345.781 198.233 345.59 198.659 345.59H199.746ZM190.405 358.47C189.979 358.47 189.774 358.265 189.774 357.854V357.046C189.774 356.605 189.994 356.37 190.435 356.37H200.099C200.539 356.37 200.774 356.576 200.774 356.958V359.69C200.774 360.071 200.554 360.262 200.128 360.262H199.159C198.703 360.277 198.483 360.086 198.483 359.704V358.47H190.405ZM193.431 348.043C192.564 348.043 192.138 348.542 192.138 349.541C192.138 350.451 192.55 350.907 193.372 350.907C194.224 350.907 194.665 350.451 194.665 349.541C194.665 348.542 194.253 348.043 193.431 348.043ZM212.307 355.357C211.396 355.636 210.295 355.841 209.017 355.988V357.765H212.366C212.762 357.765 212.968 357.956 212.968 358.338V359.352C212.968 359.763 212.762 359.969 212.366 359.969H203.436C202.995 359.969 202.775 359.763 202.775 359.322V358.47C202.775 358 202.995 357.765 203.45 357.765H206.696V356.179C205.698 356.238 204.625 356.253 203.48 356.253C203.01 356.253 202.775 356.047 202.775 355.621V346.427C202.775 346.074 202.98 345.898 203.421 345.898H212.41C212.777 345.898 212.968 346.089 212.968 346.442V347.426C212.968 347.837 212.762 348.028 212.366 348.028H205.11V354.006C207.695 353.976 210.104 353.712 212.366 353.183C212.762 353.11 212.968 353.257 212.968 353.624V354.608C212.938 355.019 212.718 355.269 212.307 355.357Z" fill="#6A6967"/>
<path d="M179.299 379.83C180.767 379.859 181.208 380.741 180.65 382.503L171.368 408.176C171.074 408.823 170.516 409.116 169.752 409.116H167.52C166.462 409.116 166.139 408.734 166.491 407.971L175.039 384.295H167.666V386.762C167.666 387.673 167.226 388.114 166.345 388.114H164.347C163.525 388.114 163.113 387.702 163.113 386.851V381.034C163.113 380.241 163.436 379.83 164.141 379.83H179.299ZM191.296 379.801C192.882 379.801 194.263 380.065 195.438 380.535C196.613 381.034 197.612 381.857 198.405 382.973C199.169 384.089 199.756 385.587 200.167 387.409C200.549 389.23 200.755 391.492 200.755 394.135C200.755 397.073 200.549 399.482 200.138 401.42C199.727 403.359 199.139 404.886 198.346 406.032C197.553 407.178 196.554 407.971 195.379 408.441C194.204 408.911 192.824 409.146 191.267 409.146C189.71 409.146 188.359 408.911 187.184 408.411C186.009 407.941 185.01 407.119 184.217 405.944C183.424 404.798 182.836 403.271 182.425 401.332C182.014 399.423 181.838 397.014 181.838 394.135C181.838 391.315 182.014 388.995 182.425 387.144C182.836 385.323 183.424 383.854 184.217 382.768C185.01 381.681 186.009 380.917 187.184 380.476C188.359 380.036 189.71 379.801 191.296 379.801ZM191.149 404.916C191.972 404.916 192.706 404.74 193.352 404.387C193.999 404.035 194.527 403.447 194.968 402.625C195.379 401.802 195.702 400.686 195.937 399.335C196.172 397.983 196.29 396.28 196.29 394.253C196.29 392.197 196.172 390.522 195.967 389.201C195.732 387.908 195.409 386.88 194.997 386.116C194.586 385.382 194.057 384.882 193.411 384.618C192.765 384.354 192.001 384.236 191.179 384.236C190.356 384.236 189.622 384.412 189.005 384.706C188.359 385.029 187.83 385.558 187.419 386.322C187.008 387.086 186.684 388.114 186.479 389.406C186.244 390.699 186.156 392.314 186.156 394.253C186.156 396.28 186.244 397.983 186.449 399.335C186.655 400.715 186.978 401.831 187.389 402.654C187.801 403.476 188.329 404.064 188.976 404.416C189.593 404.769 190.327 404.945 191.149 404.916ZM219.673 386.41C220.084 385.764 220.671 385.441 221.494 385.441H223.227C224.372 385.441 224.666 385.881 224.108 386.704L210.89 407.912C210.449 408.734 209.773 409.116 208.863 409.116H207.071C205.955 409.116 205.69 408.617 206.307 407.618L219.673 386.41ZM208.422 385.499C211.771 385.499 213.416 387.379 213.386 391.11C213.357 394.84 211.683 396.691 208.393 396.691C205.044 396.662 203.37 394.811 203.37 391.11C203.37 387.409 205.073 385.529 208.422 385.499ZM208.393 393.372C209.568 393.372 210.155 392.637 210.185 391.11C210.185 389.582 209.597 388.819 208.422 388.819C207.218 388.819 206.63 389.582 206.63 391.11C206.63 392.637 207.218 393.401 208.393 393.372ZM221.494 397.983C224.842 397.983 226.517 399.863 226.458 403.594C226.429 407.295 224.754 409.146 221.464 409.146C218.145 409.146 216.471 407.295 216.441 403.594C216.471 399.893 218.145 398.013 221.494 397.983ZM221.464 405.885C222.639 405.885 223.227 405.121 223.256 403.594C223.256 402.066 222.669 401.303 221.494 401.303C220.289 401.303 219.702 402.066 219.702 403.594C219.702 405.121 220.289 405.885 221.464 405.885Z" fill="#357EE7"/>
<path d="M134.125 594.888V602.192H128.866V594.888H134.125ZM130.033 595.829V601.226H132.945V595.829H130.033ZM137.199 593.771V598.176H139.007V599.18H137.199V605.016H136.007V593.771H137.199ZM148.601 593.771V605.041H147.409V593.771H148.601ZM142.59 594.612C144.259 594.612 145.489 596.143 145.489 598.553C145.489 600.975 144.259 602.506 142.59 602.506C140.896 602.506 139.678 600.975 139.678 598.553C139.678 596.143 140.896 594.612 142.59 594.612ZM142.59 595.679C141.548 595.679 140.833 596.783 140.833 598.553C140.833 600.335 141.548 601.439 142.59 601.439C143.619 601.439 144.334 600.335 144.334 598.553C144.334 596.783 143.619 595.679 142.59 595.679ZM159.188 594.863V596.231C159.188 597.875 159.188 599.419 158.698 601.753L157.518 601.64C157.757 600.611 157.882 599.707 157.945 598.866L151.193 599.23L151.043 598.251L158.008 597.988C158.027 597.386 158.027 596.808 158.033 596.231V595.842H151.356V594.863H159.188ZM160.392 602.531V603.51H150.139V602.531H160.392ZM173.244 593.771V605.041H172.064V598.854H169.58V602.255H164.308V594.637H165.513V597.511H168.412V594.637H169.58V597.875H172.064V593.771H173.244ZM165.513 601.276H168.412V598.452H165.513V601.276ZM184.972 599.946V600.9H174.694V599.946H184.972ZM183.906 603.811V604.778H176.012V601.64H177.191V603.811H183.906ZM183.793 598.088V599.004H176.037V594.173H183.717V595.101H177.242V596.131H183.429V597.034H177.242V598.088H183.793ZM190.689 593.959C193.224 593.959 194.705 594.637 194.705 595.892C194.705 597.147 193.224 597.837 190.689 597.837C188.154 597.837 186.673 597.147 186.673 595.892C186.673 594.637 188.154 593.959 190.689 593.959ZM190.689 594.838C188.895 594.838 187.903 595.227 187.916 595.892C187.903 596.582 188.895 596.946 190.689 596.946C192.484 596.946 193.475 596.582 193.475 595.892C193.475 595.227 192.484 594.838 190.689 594.838ZM195.822 598.528V599.481H185.569V598.528H195.822ZM194.53 600.347V602.983H187.978V603.987H194.843V604.903H186.811V602.117H193.35V601.238H186.799V600.347H194.53ZM208.373 596.331V597.298H200.655V593.934H201.822V596.331H208.373ZM209.578 598.164V599.143H204.984V600.222H208.285V602.908H201.759V603.974H208.674V604.903H200.567V602.067H207.105V601.138H200.542V600.222H203.83V599.143H199.287V598.164H209.578ZM219.511 593.771V605.041H218.332V598.992H216.273V598H218.332V593.771H219.511ZM215.608 594.788V598.804H211.755V601.364C213.55 601.358 214.931 601.295 216.499 601.012L216.6 601.991C214.918 602.293 213.437 602.355 211.454 602.368H210.563V597.837H214.454V595.754H210.538V594.788H215.608ZM228.008 596.633C227.996 598.691 229.238 600.749 230.983 601.527L230.267 602.468C228.975 601.853 227.952 600.592 227.431 599.055C226.904 600.699 225.868 602.06 224.519 602.719L223.791 601.715C225.561 600.925 226.803 598.779 226.803 596.633V594.712H228.008V596.633ZM233.191 593.771V605.041H231.999V593.771H233.191ZM238.657 595.792C238.657 597.222 239.649 598.59 241.368 599.168L240.766 600.096C239.492 599.657 238.557 598.779 238.067 597.674C237.578 598.892 236.605 599.845 235.281 600.31L234.641 599.381C236.398 598.779 237.452 597.335 237.465 595.779V595.478H234.993V594.512H241.079V595.478H238.657V595.792ZM243.564 593.771V596.658H245.196V597.662H243.564V600.548H242.372V593.771H243.564ZM243.564 601.1V605.016H242.372V602.067H236.135V601.1H243.564ZM254.339 593.771V598.327H256.146V599.318H254.339V605.016H253.159V593.771H254.339ZM252.18 595.528V596.507H245.516V595.528H248.29V593.922H249.482V595.528H252.18ZM248.892 597.335C250.498 597.335 251.678 598.415 251.691 599.946C251.678 601.489 250.498 602.556 248.892 602.569C247.273 602.556 246.093 601.489 246.093 599.946C246.093 598.415 247.273 597.335 248.892 597.335ZM248.892 598.314C247.938 598.314 247.223 598.979 247.235 599.946C247.223 600.925 247.938 601.577 248.892 601.565C249.846 601.577 250.549 600.925 250.549 599.946C250.549 598.979 249.846 598.314 248.892 598.314ZM265.778 593.771V605.016H264.574V593.771H265.778ZM262.428 594.976C262.428 598.264 261.022 601.125 257.169 602.97L256.542 602.004C259.535 600.58 260.991 598.553 261.223 595.93H257.081V594.976H262.428Z" fill="#363635"/>
<path d="M46.0886 89.1914C46.4411 89.1914 46.632 89.3676 46.632 89.7201V101.631H47.3517C47.7923 101.631 48.0126 101.852 48.0126 102.278V103.247C48.0126 103.658 47.7923 103.864 47.3811 103.864H43.3715C42.9896 103.864 42.8134 103.673 42.8134 103.291V102.234C42.8134 101.837 42.9749 101.631 43.3274 101.631H44.3555V92.6576H43.254C42.6665 92.6576 42.5049 92.4519 42.7399 92.026L44.1352 89.5586C44.2821 89.3236 44.5024 89.1914 44.8255 89.1914H46.0886ZM53.9777 89.7054C54.0952 89.3823 54.3596 89.2061 54.7708 89.2061H55.608C56.1073 89.2061 56.2836 89.4264 56.1514 89.8376L51.6718 103.144C51.4956 103.614 51.2165 103.849 50.8053 103.849H49.924C49.3512 103.849 49.175 103.57 49.3953 102.983L53.9777 89.7054ZM60.8051 89.1914C61.1576 89.1914 61.3485 89.3676 61.3485 89.7201V101.631H62.0682C62.5088 101.631 62.7291 101.852 62.7291 102.278V103.247C62.7291 103.658 62.5088 103.864 62.0975 103.864H58.0879C57.7061 103.864 57.5298 103.673 57.5298 103.291V102.234C57.5298 101.837 57.6914 101.631 58.0439 101.631H59.072V92.6576H57.9704C57.3829 92.6576 57.2214 92.4519 57.4564 92.026L58.8517 89.5586C58.9985 89.3236 59.2188 89.1914 59.542 89.1914H60.8051ZM68.3394 89.1914C69.1325 89.1914 69.8228 89.3236 70.4102 89.5586C70.9977 89.8082 71.4971 90.2195 71.8937 90.7776C72.2755 91.3357 72.5693 92.0847 72.7749 92.9954C72.9658 93.906 73.0686 95.0369 73.0686 96.3587C73.0686 97.8274 72.9658 99.0318 72.7602 100.001C72.5546 100.97 72.2608 101.734 71.8643 102.307C71.4677 102.88 70.9684 103.276 70.3809 103.511C69.7934 103.746 69.1031 103.864 68.3247 103.864C67.5462 103.864 66.8706 103.746 66.2832 103.497C65.6957 103.262 65.1963 102.85 64.7997 102.263C64.4032 101.69 64.1094 100.926 63.9038 99.9571C63.6982 99.0024 63.6101 97.7981 63.6101 96.3587C63.6101 94.9488 63.6982 93.7885 63.9038 92.8632C64.1094 91.9526 64.4032 91.2182 64.7997 90.6748C65.1963 90.1314 65.6957 89.7495 66.2832 89.5292C66.8706 89.3089 67.5462 89.1914 68.3394 89.1914ZM68.2659 101.749C68.6772 101.749 69.0443 101.661 69.3675 101.485C69.6906 101.308 69.9549 101.015 70.1753 100.603C70.3809 100.192 70.5424 99.634 70.6599 98.9584C70.7774 98.2827 70.8362 97.4309 70.8362 96.4175C70.8362 95.3894 70.7774 94.5522 70.6746 93.8913C70.5571 93.245 70.3956 92.731 70.1899 92.3491C69.9843 91.9819 69.72 91.7323 69.3968 91.6001C69.0737 91.4679 68.6918 91.4091 68.2806 91.4091C67.8694 91.4091 67.5022 91.4973 67.1938 91.6441C66.8706 91.8057 66.6063 92.0701 66.4006 92.4519C66.195 92.8338 66.0335 93.3478 65.9307 93.9941C65.8132 94.6403 65.7691 95.4481 65.7691 96.4175C65.7691 97.4309 65.8132 98.2827 65.916 98.9584C66.0188 99.6486 66.1803 100.207 66.386 100.618C66.5916 101.029 66.856 101.323 67.1791 101.499C67.4875 101.675 67.8547 101.764 68.2659 101.749Z" fill="#1C1C1C"/>
<path opacity="0.9" fill-rule="evenodd" clip-rule="evenodd" d="M15.9995 -28.1992H374V746.549H15.9995V-28.1992ZM30.687 77.3647C30.687 72.295 34.7968 68.1852 39.8665 68.1852H349.215C354.285 68.1852 358.395 72.295 358.395 77.3647V103.067C358.395 108.137 354.285 112.247 349.215 112.247H39.8665C34.7968 112.247 30.687 108.137 30.687 103.067V77.3647ZM148.718 421C141.142 421 135 427.142 135 434.718V517.282C135 524.858 141.142 531 148.718 531H245.283C252.859 531 259 524.858 259 517.282V434.718C259 427.142 252.859 421 245.283 421H148.718Z" fill="black" fill-opacity="0.9"/>
<rect x="103.707" y="135.564" width="27.5385" height="27.5385" rx="13.7692" fill="#EF5252"/>
<path d="M119.103 143.936V153.834H117.312V145.672H117.257L114.947 147.148V145.521L117.394 143.936H119.103Z" fill="#FCDEDE"/>
<path d="M110.193 179.557V192.283H107.539V182.07H107.468L104.55 183.898V181.561L107.697 179.557H110.193ZM117.725 192.459C114.544 192.459 112.61 190.086 112.61 185.92C112.61 181.754 114.544 179.381 117.725 179.381C120.907 179.381 122.841 181.771 122.841 185.92C122.841 190.104 120.907 192.459 117.725 192.459ZM117.725 190.279C119.202 190.279 120.151 188.855 120.134 185.92C120.134 183.02 119.202 181.543 117.725 181.543C116.249 181.543 115.317 183.02 115.317 185.92C115.3 188.855 116.249 190.279 117.725 190.279ZM138.406 185.814V187.59H132.377V190.35H130.162V187.59H123.764V185.814H138.406ZM136.526 178.607V184.496H125.592V178.607H136.526ZM127.789 180.348V182.756H134.328V180.348H127.789ZM136.789 191.826V193.619H125.487V188.961H127.719V191.826H136.789ZM152.812 177.904V193.9H150.685V177.904H152.812ZM149.543 178.168V193.162H147.433V185.199H145.324V183.389H147.433V178.168H149.543ZM144.041 182.193C144.041 184.848 144.867 187.537 147.205 188.873L145.886 190.525C144.462 189.682 143.522 188.249 142.986 186.535C142.432 188.398 141.465 189.98 139.998 190.877L138.644 189.225C141 187.783 141.878 184.9 141.878 182.193V181.332H139.259V179.539H146.466V181.332H144.041V182.193ZM167.552 204.904V220.9H165.442V204.904H167.552ZM164.212 205.256V220.197H162.085V214.924H159.817V213.113H162.085V210.934H160.116C159.369 213.57 157.752 215.803 154.755 217.578L153.436 215.996C156.68 214.08 158.103 211.751 158.411 208.613H154.368V206.803H160.643C160.643 207.603 160.591 208.376 160.503 209.123H162.085V205.256H164.212ZM183.469 212.691V214.484H168.879V212.691H175.049V210.564H177.264V212.691H183.469ZM177.299 205.695C177.299 207.559 179.092 209.334 182.696 209.773L181.834 211.514C179.136 211.109 177.15 209.976 176.139 208.367C175.111 209.976 173.124 211.118 170.426 211.514L169.635 209.773C173.168 209.334 175.014 207.506 175.014 205.695V205.168H177.299V205.695ZM181.694 215.609V220.9H179.461V217.35H170.496V215.609H181.694ZM194.069 209.264C194.069 211.848 195.388 214.607 198.077 215.732L196.864 217.49C194.975 216.69 193.674 215.1 192.962 213.148C192.232 215.267 190.905 217.024 189.024 217.895L187.741 216.119C190.396 214.941 191.767 211.971 191.767 209.264V208.279H188.374V206.451H197.409V208.279H194.069V209.264ZM201.259 204.904V220.9H198.991V204.904H201.259ZM217.95 210.969V212.797H215.682V220.865H213.432V204.904H215.682V210.969H217.95ZM205.803 206.434V215.1C207.851 215.073 210.048 214.88 212.36 214.414L212.588 216.277C209.916 216.822 207.315 216.963 204.959 216.963H203.571V206.434H205.803ZM230.879 204.904V211.039H233.146V212.885H230.879V220.865H228.629V204.904H230.879ZM226.607 206.539C226.59 211.32 224.726 215.469 219.347 218.105L218.082 216.383C221.87 214.484 223.9 211.936 224.322 208.367H218.996V206.539H226.607ZM246.901 204.904V220.9H244.669V204.904H246.901ZM236.53 206.434V215.029C238.692 215.003 241.013 214.801 243.368 214.344L243.65 216.189C240.837 216.77 238.2 216.963 235.722 216.945H234.316V206.434H236.53Z" fill="#EF5252"/>
<path d="M168.677 185.252V186.535H154.263V185.252H168.677ZM166.901 187.643V191.105H157.655V192.406H167.393V193.584H155.985V189.998H165.249V188.838H155.968V187.643H166.901ZM166.866 178.432V181.842H157.761V183.037H167.13V184.215H156.108V180.734H165.196V179.609H156.073V178.432H166.866ZM186.554 178.871V180.225H184.252V184.303H186.466V185.621H174.918V184.303H177.15V180.225H174.847V178.871H186.554ZM187.908 187.291V188.68H181.509V193.76H179.857V188.68H173.494V187.291H187.908ZM178.82 184.303H182.617V180.225H178.82V184.303ZM201.452 182.633V183.969H190.606V178.59H192.259V182.633H201.452ZM203.105 185.955V187.291H188.69V185.955H203.105ZM201.558 192.037V193.408H190.483V188.785H192.153V192.037H201.558ZM222.318 185.691V187.027H207.939V185.691H214.32V184.021H209.732V178.748H220.543V180.066H211.385V182.686H220.648V184.021H215.937V185.691H222.318ZM215.111 188.047C218.504 188.047 220.543 189.084 220.543 190.912C220.543 192.74 218.504 193.76 215.111 193.777C211.701 193.76 209.644 192.74 209.644 190.912C209.644 189.084 211.701 188.047 215.111 188.047ZM215.111 189.348C212.703 189.348 211.332 189.91 211.332 190.912C211.332 191.914 212.703 192.477 215.111 192.459C217.484 192.477 218.873 191.914 218.873 190.912C218.873 189.91 217.484 189.348 215.111 189.348ZM235.511 178.01V182.721H237.796V184.127H235.511V189.594H233.841V178.01H235.511ZM236.179 192.09V193.443H225.526V188.381H227.196V192.09H236.179ZM227.566 179.1C229.939 179.1 231.749 180.717 231.767 183.02C231.749 185.305 229.939 186.939 227.566 186.939C225.192 186.939 223.364 185.305 223.382 183.02C223.364 180.717 225.192 179.1 227.566 179.1ZM227.566 180.559C226.124 180.559 224.999 181.561 225.017 183.02C224.999 184.479 226.124 185.48 227.566 185.48C229.025 185.48 230.132 184.479 230.132 183.02C230.132 181.561 229.025 180.559 227.566 180.559ZM110.07 209.035C110.052 211.918 111.792 214.801 114.236 215.891L113.234 217.209C111.423 216.348 109.991 214.581 109.261 212.428C108.523 214.73 107.073 216.638 105.183 217.561L104.164 216.154C106.642 215.047 108.382 212.041 108.382 209.035V206.346H110.07V209.035ZM117.33 205.027V220.812H115.66V205.027H117.33ZM131.858 205.027V209.686H134.143V211.074H131.858V216.471H130.171V205.027H131.858ZM127.587 206.223C127.587 210.354 124.774 213.359 120.169 214.748L119.466 213.412C123.148 212.305 125.442 210.213 125.776 207.611H120.134V206.223H127.587ZM132.509 219.09V220.443H121.856V215.293H123.544V219.09H132.509ZM147.723 205.027V220.812H146.053V205.027H147.723ZM139.303 206.205C141.641 206.205 143.363 208.35 143.363 211.725C143.363 215.117 141.641 217.262 139.303 217.262C136.93 217.262 135.225 215.117 135.225 211.725C135.225 208.35 136.93 206.205 139.303 206.205ZM139.303 207.699C137.844 207.699 136.842 209.246 136.842 211.725C136.842 214.221 137.844 215.768 139.303 215.768C140.744 215.768 141.746 214.221 141.746 211.725C141.746 209.246 140.744 207.699 139.303 207.699ZM118.648 240.904V242.258H112.25V247.76H110.615V242.258H104.287V240.904H118.648ZM117.294 232.959V234.295H112.425C112.452 236.246 114.877 237.986 117.857 238.391L117.242 239.709C114.658 239.305 112.425 238.03 111.476 236.229C110.5 238.03 108.277 239.305 105.728 239.709L105.095 238.391C108.04 237.986 110.465 236.246 110.527 234.295H105.623V232.959H117.294ZM124.616 233.152C127.112 233.135 128.888 234.682 128.905 236.896C128.888 239.111 127.112 240.658 124.616 240.658C122.138 240.658 120.309 239.111 120.327 236.896C120.309 234.682 122.138 233.135 124.616 233.152ZM124.616 234.594C123.087 234.594 121.962 235.508 121.979 236.896C121.962 238.285 123.087 239.199 124.616 239.199C126.145 239.199 127.27 238.285 127.27 236.896C127.27 235.508 126.145 234.594 124.616 234.594ZM132.509 232.027V247.812H130.839V232.027H132.509ZM119.571 243.031C122.436 243.031 126.409 242.996 129.854 242.504L129.977 243.717C126.409 244.402 122.595 244.42 119.782 244.42L119.571 243.031ZM142.467 234.629V235.982H134.645V234.629H137.738V232.484H139.391V234.629H142.467ZM138.565 236.932C140.569 236.932 141.975 238.426 141.992 240.553C141.975 242.697 140.569 244.209 138.565 244.209C136.596 244.209 135.137 242.697 135.155 240.553C135.137 238.426 136.596 236.932 138.565 236.932ZM138.565 238.32C137.422 238.32 136.631 239.252 136.631 240.553C136.631 241.889 137.422 242.785 138.565 242.785C139.69 242.785 140.516 241.889 140.516 240.553C140.516 239.252 139.69 238.32 138.565 238.32ZM148.162 232.027V247.777H146.58V239.955H144.77V247.039H143.188V232.379H144.77V238.584H146.58V232.027H148.162ZM155.554 236.035C155.554 238.918 157.171 241.783 159.58 242.873L158.56 244.209C156.767 243.312 155.422 241.528 154.728 239.375C154.034 241.643 152.654 243.559 150.843 244.508L149.789 243.154C152.232 241.994 153.867 238.953 153.867 236.035V233.346H155.554V236.035ZM163.007 232.027V247.812H161.355V238.619H157.839V237.266H161.355V232.027H163.007ZM182.116 232.432V233.697H179.83V236.369H182.045V237.652H170.496V236.369H172.729V233.697H170.426V232.432H182.116ZM183.469 238.795V240.131H177.106V241.484H181.658V245.088H172.483V246.354H182.098V247.619H170.848V243.91H180.006V242.732H170.83V241.484H175.436V240.131H169.108V238.795H183.469ZM174.381 236.369H178.16V233.697H174.381V236.369ZM197.066 239.287V240.623H192.302V244.473H198.718V245.844H184.304V244.473H190.65V240.623H186.097V233.24H196.925V234.594H187.767V239.287H197.066ZM213.897 240.623V241.977H199.483V240.623H205.864V239.129H201.329V235.121H210.417V233.715H201.294V232.396H212.087V236.352H202.981V237.828H212.403V239.129H207.517V240.623H213.897ZM212.175 243.084V247.654H210.487V244.42H201.101V243.084H212.175ZM226.519 234.629V235.982H218.697V234.629H221.791V232.484H223.443V234.629H226.519ZM222.617 236.932C224.621 236.932 226.027 238.426 226.045 240.553C226.027 242.697 224.621 244.209 222.617 244.209C220.648 244.209 219.189 242.697 219.207 240.553C219.189 238.426 220.648 236.932 222.617 236.932ZM222.617 238.32C221.474 238.32 220.683 239.252 220.683 240.553C220.683 241.889 221.474 242.785 222.617 242.785C223.742 242.785 224.568 241.889 224.568 240.553C224.568 239.252 223.742 238.32 222.617 238.32ZM232.215 232.027V247.777H230.633V239.955H228.822V247.039H227.24V232.379H228.822V238.584H230.633V232.027H232.215ZM251.745 232.01V247.76H250.127V239.639H248.405V247.021H246.84V232.344H248.405V238.268H250.127V232.01H251.745ZM241.883 233.926C241.883 237.389 241.426 240.939 239.229 243.945L237.911 243.154C239.73 240.799 240.328 238.171 240.459 235.279H238.315V233.926H241.883ZM245.61 233.926C245.61 237.406 245.329 241.66 242.973 244.982L241.62 244.227C243.641 241.555 244.063 238.303 244.151 235.279H242.393V233.926H245.61ZM266.203 232.027V247.812H264.533V232.027H266.203ZM255.709 233.346V237.389H259.945V233.346H261.597V244.033H254.039V233.346H255.709ZM255.709 242.662H259.945V238.707H255.709V242.662ZM271.257 233.557L271.099 242.609H269.359L269.2 233.557H271.257ZM270.237 246.406C269.552 246.406 268.972 245.844 268.989 245.158C268.972 244.473 269.552 243.91 270.237 243.91C270.905 243.91 271.486 244.473 271.486 245.158C271.486 245.844 270.905 246.406 270.237 246.406Z" fill="white"/>
<rect x="137" y="296" width="27.5385" height="27.5385" rx="13.7692" fill="#F7A62C"/>
<path d="M147.372 314.27V312.984L150.872 309.607C151.87 308.609 152.389 308.021 152.389 307.188C152.389 306.271 151.665 305.684 150.694 305.684C149.669 305.684 149.012 306.326 149.026 307.324H147.331C147.317 305.451 148.725 304.234 150.708 304.234C152.731 304.234 154.098 305.438 154.098 307.105C154.098 308.227 153.552 309.129 151.61 310.961L149.846 312.711V312.779H154.249V314.27H147.372Z" fill="#543403"/>
<path d="M145.543 340.027V350.258H138.178V340.027H145.543ZM139.812 341.346V348.904H143.891V341.346H139.812ZM149.85 338.463V344.633H152.381V346.039H149.85V354.213H148.18V338.463H149.85ZM165.82 338.463V354.248H164.15V338.463H165.82ZM157.4 339.641C159.738 339.641 161.46 341.785 161.46 345.16C161.46 348.553 159.738 350.697 157.4 350.697C155.027 350.697 153.322 348.553 153.322 345.16C153.322 341.785 155.027 339.641 157.4 339.641ZM157.4 341.135C155.941 341.135 154.939 342.682 154.939 345.16C154.939 347.656 155.941 349.203 157.4 349.203C158.841 349.203 159.843 347.656 159.843 345.16C159.843 342.682 158.841 341.135 157.4 341.135ZM180.647 339.992V341.908C180.647 344.211 180.647 346.373 179.962 349.643L178.309 349.484C178.643 348.043 178.819 346.777 178.907 345.6L169.45 346.109L169.239 344.738L178.995 344.369C179.021 343.525 179.021 342.717 179.03 341.908V341.363H169.678V339.992H180.647ZM182.335 350.732V352.104H167.973V350.732H182.335ZM197.566 345.688V346.971H183.152V345.688H197.566ZM195.791 348.078V351.541H186.545V352.842H196.283V354.02H184.875V350.434H194.139V349.273H184.857V348.078H195.791ZM195.756 338.867V342.277H186.65V343.473H196.02V344.65H184.998V341.17H194.086V340.045H184.963V338.867H195.756ZM215.18 343.648V345.002H204.229V339.236H205.899V343.648H215.18ZM216.815 347.182V348.553H210.364V354.213H208.712V348.553H202.401V347.182H216.815ZM232.012 350.908V352.279H217.598V350.908H232.012ZM230.254 339.623V344.545H221.008V346.848H230.623V348.184H219.356V343.191H228.602V340.977H219.32V339.623H230.254ZM240.828 339.799V341.135H244.255V338.48H245.925V349.959H244.255V345.881H240.828V347.252H233.515V339.799H240.828ZM235.168 341.152V345.934H239.193V341.152H235.168ZM246.277 352.525V353.879H235.642V348.904H237.33V352.525H246.277ZM240.828 344.51H244.255V342.506H240.828V344.51ZM285.688 351.418L284.177 356.428H282.313L283.192 351.418H285.688ZM149.955 365.48V370.543H152.24V371.932H149.955V377.258H148.285V365.48H149.955ZM146.984 367.309V368.662H137.598V367.309H141.465V365.463H143.135V367.309H146.984ZM142.291 369.418C144.559 369.418 146.105 370.596 146.105 372.389C146.105 374.182 144.559 375.342 142.291 375.342C140.006 375.342 138.459 374.182 138.459 372.389C138.459 370.596 140.006 369.418 142.291 369.418ZM142.291 370.701C140.955 370.701 140.059 371.352 140.076 372.389C140.059 373.408 140.955 374.041 142.291 374.041C143.627 374.041 144.523 373.408 144.541 372.389C144.523 371.352 143.627 370.701 142.291 370.701ZM150.623 379.525V380.879H139.971V376.326H141.641V379.525H150.623ZM165.908 365.48V377.117H164.238V371.176H160.792V374.498H153.533V366.518H155.203V369.189H159.14V366.518H160.792V369.822H164.238V365.48H165.908ZM166.259 379.525V380.879H155.624V375.975H157.312V379.525H166.259ZM155.203 373.145H159.14V370.473H155.203V373.145ZM180.006 366.922V368.311H174.469V375.992C177.106 375.983 178.925 375.887 180.99 375.482L181.184 376.854C178.916 377.275 177 377.381 174.029 377.381H172.781V366.922H180.006ZM185.156 365.463V381.248H183.486V372.477H179.109V371.088H183.486V365.463H185.156ZM204.018 370.648V372.002H193.067V366.236H194.737V370.648H204.018ZM205.653 374.182V375.553H199.202V381.213H197.55V375.553H191.239V374.182H205.653ZM220.85 377.908V379.279H206.436V377.908H220.85ZM219.092 366.623V371.545H209.846V373.848H219.461V375.184H208.194V370.191H217.44V367.977H208.158V366.623H219.092ZM229.666 366.799V368.135H233.093V365.48H234.763V376.959H233.093V372.881H229.666V374.252H222.353V366.799H229.666ZM224.005 368.152V372.934H228.031V368.152H224.005ZM235.115 379.525V380.879H224.48V375.904H226.168V379.525H235.115ZM229.666 371.51H233.093V369.506H229.666V371.51ZM275.476 366.641C277.831 366.641 279.501 368.785 279.519 372.16C279.501 375.553 277.831 377.697 275.476 377.697C273.12 377.697 271.433 375.553 271.45 372.16C271.433 368.785 273.12 366.641 275.476 366.641ZM275.476 368.135C274.034 368.135 273.05 369.682 273.05 372.16C273.05 374.656 274.034 376.203 275.476 376.203C276.935 376.203 277.919 374.656 277.919 372.16C277.919 369.682 276.935 368.135 275.476 368.135ZM285.97 369.312V370.736H283.526V374.006H285.97V375.377H283.526V381.213H281.856V365.463H283.526V369.312H285.97ZM304.269 365.445V381.195H302.652V373.074H300.929V380.457H299.365V365.779H300.929V371.703H302.652V365.445H304.269ZM294.408 367.361C294.408 370.824 293.951 374.375 291.754 377.381L290.435 376.59C292.255 374.234 292.852 371.606 292.984 368.715H290.84V367.361H294.408ZM298.134 367.361C298.134 370.842 297.853 375.096 295.498 378.418L294.144 377.662C296.166 374.99 296.588 371.738 296.675 368.715H294.918V367.361H298.134ZM318.728 365.463V381.248H317.058V365.463H318.728ZM308.233 366.781V370.824H312.47V366.781H314.122V377.469H306.564V366.781H308.233ZM308.233 376.098H312.47V372.143H308.233V376.098Z" fill="white"/>
<path d="M264.91 342.295V344.088H260.34V345.793H266.545V347.586H251.92V345.793H258.09V344.088H253.731V338.568H255.963V342.295H264.91ZM264.735 348.816V354.336H262.502V350.627H253.555V348.816H264.735ZM274.412 338.639C277.962 338.639 280.212 339.816 280.23 341.768C280.212 343.701 277.962 344.879 274.412 344.861C270.879 344.879 268.576 343.701 268.576 341.768C268.576 339.816 270.879 338.639 274.412 338.639ZM274.412 340.379C272.179 340.379 270.896 340.854 270.914 341.768C270.896 342.664 272.179 343.121 274.412 343.121C276.627 343.121 277.91 342.664 277.91 341.768C277.91 340.854 276.627 340.379 274.412 340.379ZM279.966 348.711V354.16H268.804V348.711H279.966ZM271.019 350.486V352.367H277.769V350.486H271.019ZM281.707 345.793V347.586H267.117V345.793H281.707ZM254.24 365.34V374.832H252.008V371.053H249.512V369.242H252.008V365.34H254.24ZM248.774 375.184C252.184 375.201 254.276 376.326 254.293 378.277C254.276 380.211 252.184 381.354 248.774 381.354C245.364 381.354 243.272 380.211 243.272 378.277C243.272 376.326 245.364 375.201 248.774 375.184ZM248.774 376.906C246.647 376.906 245.504 377.346 245.504 378.277C245.504 379.191 246.647 379.648 248.774 379.648C250.901 379.648 252.061 379.191 252.061 378.277C252.061 377.346 250.901 376.906 248.774 376.906ZM249.987 366.307V368.1H246.805C246.858 369.963 247.983 371.844 250.479 372.67L249.371 374.428C247.605 373.856 246.392 372.696 245.698 371.246C244.986 372.881 243.711 374.199 241.813 374.85L240.653 373.074C243.281 372.195 244.458 370.104 244.52 368.1H241.303V366.307H249.987ZM262.16 369.699C262.16 372.283 263.478 375.043 266.168 376.168L264.955 377.926C263.065 377.126 261.764 375.535 261.052 373.584C260.323 375.702 258.996 377.46 257.115 378.33L255.832 376.555C258.486 375.377 259.857 372.406 259.857 369.699V368.715H256.464V366.887H265.5V368.715H262.16V369.699ZM269.349 365.34V381.336H267.082V365.34H269.349Z" fill="#F9BC5F"/>
<path d="M66.0705 127.763L65.1525 127.763V127.763L66.0705 127.763ZM94.3193 148.08C94.6404 147.688 94.5825 147.11 94.1902 146.789L87.7961 141.557C87.4037 141.236 86.8254 141.294 86.5044 141.686C86.1833 142.079 86.2412 142.657 86.6335 142.978L92.3172 147.628L87.6669 153.312C87.3459 153.704 87.4037 154.283 87.7961 154.604C88.1885 154.925 88.7668 154.867 89.0878 154.474L94.3193 148.08ZM65.1525 104.355L65.1525 127.763L66.9884 127.763L66.9884 104.355L65.1525 104.355ZM65.1525 127.763C65.1525 133.59 66.9429 137.857 69.6873 140.945C72.4158 144.014 76.0264 145.85 79.5692 146.942C83.1139 148.035 86.6423 148.4 89.2729 148.495C90.591 148.543 91.6908 148.523 92.4638 148.491C92.8504 148.475 93.1558 148.455 93.3662 148.44C93.4715 148.432 93.5531 148.426 93.6093 148.421C93.6374 148.418 93.6592 148.416 93.6744 148.415C93.682 148.414 93.688 148.414 93.6923 148.413C93.6945 148.413 93.6962 148.413 93.6975 148.413C93.6982 148.413 93.6989 148.413 93.6992 148.413C93.6998 148.412 93.7002 148.412 93.6089 147.499C93.5175 146.586 93.5178 146.586 93.518 146.586C93.5179 146.586 93.5179 146.586 93.5177 146.586C93.5174 146.586 93.5166 146.586 93.5154 146.586C93.5131 146.586 93.5091 146.586 93.5035 146.587C93.4922 146.588 93.4745 146.59 93.4505 146.592C93.4025 146.596 93.3294 146.602 93.233 146.609C93.0401 146.623 92.7537 146.641 92.3874 146.656C91.6543 146.687 90.6027 146.706 89.3391 146.661C86.8062 146.569 83.4501 146.217 80.1101 145.188C76.7683 144.157 73.4943 142.464 71.0594 139.725C68.6403 137.003 66.9884 133.182 66.9884 127.763L65.1525 127.763Z" fill="white"/>
<path d="M161.537 462.393L160.619 462.393V462.393L161.537 462.393ZM160.887 449.351C161.246 448.992 161.827 448.992 162.185 449.351L168.027 455.192C168.386 455.551 168.386 456.132 168.027 456.491C167.669 456.849 167.088 456.849 166.729 456.491L161.536 451.298L156.344 456.491C155.985 456.85 155.404 456.85 155.046 456.491C154.687 456.133 154.687 455.551 155.046 455.193L160.887 449.351ZM160.619 483.047L160.619 462.393L162.455 462.393L162.455 483.047L160.619 483.047ZM160.619 462.393C160.619 459.697 160.619 456.598 160.619 454.174C160.619 452.962 160.618 451.919 160.618 451.178C160.618 450.808 160.618 450.513 160.618 450.311C160.618 450.21 160.618 450.133 160.618 450.08C160.618 450.054 160.618 450.034 160.618 450.02C160.618 450.014 160.618 450.009 160.618 450.005C160.618 450.003 160.618 450.002 160.618 450.001C160.618 450.001 160.618 450.001 160.618 450C160.618 450 160.618 450 160.618 450C160.618 450 160.618 450 161.536 450C162.454 450 162.454 450 162.454 450C162.454 450 162.454 450 162.454 450C162.454 450 162.454 450.001 162.454 450.001C162.454 450.002 162.454 450.003 162.454 450.005C162.454 450.008 162.454 450.014 162.454 450.02C162.454 450.034 162.454 450.054 162.454 450.08C162.454 450.132 162.454 450.21 162.454 450.311C162.454 450.513 162.454 450.808 162.454 451.178C162.454 451.919 162.454 452.962 162.454 454.174C162.455 456.598 162.455 459.697 162.455 462.393L160.619 462.393Z" fill="white"/>
<path d="M153.999 414.36L153.081 414.36L153.081 414.36L153.999 414.36ZM153.351 393.351C153.709 392.992 154.291 392.992 154.649 393.351L160.49 399.193C160.849 399.552 160.849 400.133 160.49 400.491C160.132 400.85 159.551 400.85 159.192 400.491L154 395.298L148.807 400.49C148.448 400.849 147.867 400.849 147.509 400.49C147.15 400.132 147.15 399.551 147.509 399.192L153.351 393.351ZM153.081 425.5L153.081 414.36L154.917 414.36L154.917 425.5L153.081 425.5ZM153.081 414.36C153.081 408.644 153.081 403.554 153.082 399.893C153.082 398.062 153.082 396.589 153.082 395.574C153.082 395.066 153.082 394.672 153.082 394.406C153.082 394.273 153.082 394.171 153.082 394.103C153.082 394.069 153.082 394.043 153.082 394.026C153.082 394.017 153.082 394.011 153.082 394.006C153.082 394.004 153.082 394.003 153.082 394.002C153.082 394.001 153.082 394.001 153.082 394C153.082 394 153.082 394 153.082 394C153.082 394 153.082 394 154 394C154.918 394 154.918 394 154.918 394C154.918 394 154.918 394 154.918 394C154.918 394.001 154.918 394.001 154.918 394.002C154.918 394.003 154.918 394.004 154.918 394.007C154.918 394.011 154.918 394.017 154.918 394.026C154.918 394.043 154.918 394.069 154.918 394.103C154.918 394.171 154.918 394.273 154.918 394.406C154.918 394.672 154.918 395.066 154.918 395.574C154.918 396.589 154.918 398.062 154.918 399.893C154.917 403.554 154.917 408.644 154.917 414.36L153.081 414.36Z" fill="white"/>
</g>
<path d="M148.923 567.904V569.732H145.724C145.829 571.358 146.989 572.923 149.38 573.6L148.325 575.357C146.532 574.839 145.284 573.793 144.581 572.439C143.878 573.925 142.595 575.085 140.732 575.639L139.607 573.898C142.076 573.169 143.263 571.499 143.404 569.732H140.187V567.904H148.923ZM145.689 574.971V577.643C146.928 577.581 148.167 577.484 149.327 577.326L149.486 578.943C146.111 579.576 142.507 579.559 139.818 579.576L139.519 577.748C140.688 577.748 142.032 577.748 143.439 577.713V574.971H145.689ZM154.601 572.932V574.812H152.421V582.617H150.171V566.621H152.421V572.932H154.601ZM169.534 575.568V577.396H163.276V582.635H161.061V577.396H154.891V575.568H169.534ZM162.169 567.148C165.596 567.148 168.004 568.572 168.004 570.787C168.004 572.967 165.596 574.355 162.169 574.355C158.741 574.355 156.35 572.967 156.368 570.787C156.35 568.572 158.741 567.148 162.169 567.148ZM162.169 568.941C160.024 568.941 158.653 569.609 158.671 570.787C158.653 571.93 160.024 572.58 162.169 572.58C164.331 572.58 165.684 571.93 165.684 570.787C165.684 569.609 164.331 568.941 162.169 568.941ZM184.748 578.996V580.842H170.105V578.996H176.275V576.588H171.793V571.209H180.846V569.451H171.775V567.658H183.061V572.967H174.043V574.76H183.43V576.588H178.508V578.996H184.748ZM202.573 576.43V582.441H191.885V576.43H202.573ZM194.1 578.205V580.648H200.376V578.205H194.1ZM192.202 567.465V573.266C194.206 573.239 196.262 573.081 198.407 572.65L198.635 574.531C196.104 575.041 193.714 575.164 191.323 575.164H189.987V567.465H192.202ZM202.573 566.621V575.762H200.341V571.121H196.368V569.311H200.341V566.621H202.573ZM217.734 566.621V582.617H215.467V566.621H217.734ZM212.936 568.291C212.936 573.143 211.23 577.168 205.518 579.875L204.34 578.082C208.471 576.131 210.29 573.6 210.65 570.049H205.201V568.291H212.936ZM227.745 567.922V569.135H230.734V566.639H232.966V578.275H230.734V574.355H227.745V575.709H220.152V567.922H227.745ZM222.384 569.697V573.969H225.548V569.697H222.384ZM233.3 580.543V582.336H222.314V577.168H224.581V580.543H233.3ZM227.745 572.58H230.734V570.945H227.745V572.58ZM240.727 570.242C240.727 573.248 241.94 576.166 244.612 577.326L243.241 579.119C241.466 578.249 240.279 576.658 239.62 574.689C238.917 576.781 237.686 578.495 235.858 579.4L234.452 577.572C237.194 576.342 238.442 573.248 238.46 570.242V567.852H240.727V570.242ZM248.18 566.621V582.652H245.966V573.459H242.819V571.648H245.966V566.621H248.18ZM144.159 603.078V604.906H140.784V609.617H138.516V604.906H135.177V609.617H132.944V604.906H129.516V603.078H144.159ZM142.595 600.178V601.953H131.362V594.271H142.419V596.029H133.559V597.207H142.085V598.947H133.559V600.178H142.595ZM157.774 601.549V603.324H153.168V606.031H159.373V607.824H144.731V606.031H150.901V603.324H146.453V594.729H157.651V596.521H148.739V598.121H157.281V599.879H148.739V601.549H157.774ZM173.339 593.621V609.652H171.107V593.621H173.339ZM168.382 594.957V601.127H163.109V604.062C165.544 604.054 167.618 603.913 169.964 603.535L170.158 605.346C167.521 605.803 165.148 605.908 162.23 605.908H160.789V599.352H166.097V596.768H160.771V594.957H168.382ZM188.606 593.621V601.619H186.374V598.631H183.702C183.263 600.31 181.645 601.426 179.589 601.426C177.145 601.426 175.317 599.896 175.335 597.717C175.317 595.59 177.145 594.078 179.589 594.078C181.645 594.078 183.263 595.177 183.702 596.82H186.374V593.621H188.606ZM179.589 595.889C178.341 595.889 177.444 596.592 177.462 597.717C177.444 598.912 178.341 599.615 179.589 599.615C180.802 599.615 181.681 598.912 181.681 597.717C181.681 596.592 180.802 595.889 179.589 595.889ZM188.606 602.322V606.646H180.222V607.684H189.081V609.441H177.972V604.994H186.374V604.045H177.954V602.322H188.606ZM197.616 593.85C201.289 593.85 203.416 594.816 203.434 596.574C203.416 598.35 201.289 599.316 197.616 599.316C193.924 599.316 191.78 598.35 191.78 596.574C191.78 594.816 193.924 593.85 197.616 593.85ZM197.616 595.484C195.26 595.484 194.118 595.871 194.135 596.574C194.118 597.365 195.26 597.664 197.616 597.664C199.989 597.664 201.114 597.365 201.114 596.574C201.114 595.871 199.989 595.484 197.616 595.484ZM204.91 600.072V601.848H190.321V600.072H204.91ZM203.135 602.779V606.857H194.223V607.824H203.557V609.512H192.026V605.293H200.92V604.414H192.008V602.779H203.135ZM222.103 593.639V598.209H224.142V600.055H222.103V604.502H219.853V593.639H222.103ZM209.13 602.445C210.299 602.445 211.635 602.445 213.015 602.41V601.514C211.274 601.268 210.185 600.424 210.202 599.193C210.185 597.717 211.749 596.803 214.122 596.803C216.478 596.803 218.024 597.717 218.042 599.193C218.024 600.424 216.961 601.259 215.247 601.496V602.322C216.565 602.27 217.875 602.164 219.114 602.006L219.272 603.553C215.897 604.15 212.189 604.186 209.358 604.186L209.13 602.445ZM222.103 605.152V609.617H219.853V606.875H211.169V605.152H222.103ZM218.71 594.799V596.434H209.552V594.799H213.015V593.498H215.247V594.799H218.71ZM214.122 598.297C212.98 598.297 212.329 598.578 212.347 599.193C212.329 599.773 212.98 600.107 214.122 600.107C215.247 600.107 215.88 599.773 215.897 599.193C215.88 598.578 215.247 598.297 214.122 598.297ZM237.897 593.639V605.135H235.647V593.639H237.897ZM238.319 607.543V609.336H227.174V603.975H229.442V607.543H238.319ZM229.125 594.658C231.586 594.658 233.502 596.346 233.502 598.684C233.502 601.074 231.586 602.744 229.125 602.744C226.664 602.744 224.748 601.074 224.748 598.684C224.748 596.346 226.664 594.658 229.125 594.658ZM229.125 596.609C227.877 596.592 226.928 597.383 226.946 598.684C226.928 600.02 227.877 600.793 229.125 600.793C230.338 600.793 231.288 600.02 231.288 598.684C231.288 597.383 230.338 596.592 229.125 596.609ZM247.416 596.064V597.84H239.681V596.064H242.459V594.061H244.674V596.064H247.416ZM243.584 598.561C245.623 598.561 247.082 600.143 247.099 602.357C247.082 604.59 245.623 606.172 243.584 606.172C241.545 606.172 240.051 604.59 240.051 602.357C240.051 600.143 241.545 598.561 243.584 598.561ZM243.584 600.424C242.652 600.424 242.019 601.145 242.019 602.357C242.019 603.57 242.652 604.273 243.584 604.273C244.48 604.273 245.113 603.57 245.131 602.357C245.113 601.145 244.48 600.424 243.584 600.424ZM253.533 593.621V609.617H251.406V601.918H250.105V608.932H248.013V593.938H250.105V600.125H251.406V593.621H253.533ZM258.534 595.273L258.306 604.186H256.056L255.827 595.273H258.534ZM257.198 608.158C256.372 608.158 255.704 607.49 255.722 606.682C255.704 605.873 256.372 605.223 257.198 605.223C257.972 605.223 258.657 605.873 258.657 606.682C258.657 607.49 257.972 608.158 257.198 608.158Z" fill="white"/>
<g filter="url(#filter0_f_4991_34700)">
<circle cx="194.085" cy="654" r="15" fill="#F9BC5F"/>
</g>
<g filter="url(#filter1_f_4991_34700)">
<ellipse cx="194.64" cy="654" rx="7.55556" ry="8" fill="#E78F09"/>
</g>
<path d="M209.02 662.811C207.995 662.809 206.986 663.065 206.086 663.555C205.817 662.723 205.373 661.957 204.785 661.31C204.196 660.662 203.476 660.148 202.673 659.801C201.87 659.454 201.002 659.283 200.127 659.298C199.253 659.313 198.391 659.515 197.601 659.89V653.149C197.601 651.518 196.953 649.954 195.8 648.801C194.647 647.648 193.083 647 191.452 647C189.822 647 188.258 647.648 187.105 648.801C185.951 649.954 185.304 651.518 185.304 653.149V670.716L184.465 669.37C183.645 667.96 182.298 666.934 180.721 666.517C179.144 666.101 177.466 666.327 176.057 667.148C174.647 667.968 173.621 669.315 173.204 670.891C172.787 672.468 173.014 674.146 173.834 675.556L180.273 686.535C180.381 686.749 180.531 686.939 180.715 687.092C180.899 687.246 181.113 687.36 181.342 687.428C181.572 687.496 181.813 687.516 182.051 687.488C182.289 687.459 182.518 687.382 182.725 687.261C182.932 687.141 183.112 686.979 183.255 686.786C183.397 686.594 183.498 686.374 183.552 686.14C183.606 685.907 183.612 685.665 183.569 685.429C183.527 685.194 183.436 684.969 183.303 684.77L176.871 673.79C176.691 673.49 176.572 673.157 176.521 672.811C176.471 672.464 176.49 672.111 176.577 671.772C176.665 671.434 176.819 671.115 177.031 670.837C177.243 670.558 177.508 670.324 177.811 670.149C178.114 669.974 178.449 669.861 178.797 669.817C179.144 669.773 179.497 669.798 179.834 669.892C180.171 669.986 180.486 670.146 180.761 670.362C181.036 670.579 181.265 670.849 181.434 671.155L181.465 671.206L185.567 677.793C185.769 678.118 186.071 678.369 186.427 678.507C186.784 678.644 187.176 678.662 187.543 678.557C187.911 678.452 188.234 678.23 188.464 677.924C188.694 677.619 188.818 677.247 188.817 676.864V653.149C188.817 652.45 189.095 651.779 189.589 651.285C190.083 650.791 190.753 650.513 191.452 650.513C192.151 650.513 192.821 650.791 193.316 651.285C193.81 651.779 194.087 652.45 194.087 653.149V668.081C194.087 668.547 194.272 668.994 194.602 669.323C194.931 669.652 195.378 669.838 195.844 669.838C196.31 669.838 196.757 669.652 197.086 669.323C197.416 668.994 197.601 668.547 197.601 668.081V665.446C197.601 664.747 197.878 664.077 198.373 663.582C198.867 663.088 199.537 662.811 200.236 662.811C200.935 662.811 201.605 663.088 202.099 663.582C202.593 664.077 202.871 664.747 202.871 665.446V669.838C202.871 670.303 203.056 670.75 203.386 671.08C203.715 671.409 204.162 671.594 204.628 671.594C205.094 671.594 205.541 671.409 205.87 671.08C206.199 670.75 206.385 670.303 206.385 669.838V668.959C206.385 668.26 206.662 667.59 207.156 667.096C207.65 666.602 208.321 666.324 209.02 666.324C209.718 666.324 210.389 666.602 210.883 667.096C211.377 667.59 211.655 668.26 211.655 668.959V676.864C211.655 681.61 210.096 684.836 210.082 684.862C209.874 685.279 209.84 685.761 209.988 686.203C210.135 686.645 210.452 687.01 210.869 687.218C211.112 687.341 211.382 687.405 211.655 687.405C211.981 687.405 212.301 687.314 212.579 687.143C212.856 686.972 213.081 686.726 213.227 686.434C213.308 686.274 215.17 682.482 215.17 676.864V668.959C215.17 668.152 215.011 667.352 214.702 666.606C214.393 665.86 213.94 665.182 213.369 664.611C212.798 664.04 212.119 663.587 211.373 663.278C210.627 662.969 209.827 662.81 209.02 662.811Z" fill="white"/>
<path d="M92 664L107 672.66V655.34L92 664ZM162 662.5L105.5 662.5V665.5L162 665.5L162 662.5Z" fill="url(#paint0_linear_4991_34700)"/>
<path d="M297 664L282 655.34V672.66L297 664ZM227 665.5L283.5 665.5V662.5L227 662.5L227 665.5Z" fill="url(#paint1_linear_4991_34700)"/>
<circle cx="6" cy="6" r="6" transform="matrix(-1 0 0 1 191 759)" fill="#F7A62C"/>
<circle cx="6" cy="6" r="6" transform="matrix(-1 0 0 1 211 759)" fill="#F7A62C" fill-opacity="0.4"/>
<circle cx="196.339" cy="476.472" r="39.4718" fill="#357EE7"/>
<mask id="mask0_4991_34700" style="mask-type:alpha" maskUnits="userSpaceOnUse" x="170" y="450" width="53" height="53">
<rect x="170.024" y="450.156" width="52.6291" height="52.6291" fill="white"/>
</mask>
<g mask="url(#mask0_4991_34700)">
<path d="M196.339 479.47C194.512 479.47 192.958 478.832 191.679 477.556C190.4 476.281 189.76 474.732 189.76 472.909V459.789C189.76 457.966 190.4 456.418 191.679 455.142C192.958 453.866 194.512 453.229 196.339 453.229C198.166 453.229 199.72 453.866 200.999 455.142C202.278 456.418 202.918 457.966 202.918 459.789V472.909C202.918 474.732 202.278 476.281 200.999 477.556C199.72 478.832 198.166 479.47 196.339 479.47ZM194.146 494.777V488.053C190.345 487.542 187.202 485.848 184.717 482.968C182.231 480.089 180.989 476.736 180.989 472.909H185.375C185.375 475.934 186.444 478.513 188.582 480.645C190.72 482.777 193.305 483.843 196.339 483.843C199.372 483.843 201.958 482.777 204.096 480.645C206.234 478.513 207.303 475.934 207.303 472.909H211.689C211.689 476.736 210.446 480.089 207.961 482.968C205.476 485.848 202.333 487.542 198.532 488.053V494.777H194.146ZM196.339 475.096C196.96 475.096 197.481 474.886 197.901 474.467C198.322 474.048 198.532 473.529 198.532 472.909V459.789C198.532 459.169 198.322 458.65 197.901 458.231C197.481 457.812 196.96 457.602 196.339 457.602C195.718 457.602 195.197 457.812 194.776 458.231C194.356 458.65 194.146 459.169 194.146 459.789V472.909C194.146 473.529 194.356 474.048 194.776 474.467C195.197 474.886 195.718 475.096 196.339 475.096Z" fill="white"/>
</g>
<defs>
<filter id="filter0_f_4991_34700" x="169.085" y="629" width="50" height="50" filterUnits="userSpaceOnUse" color-interpolation-filters="sRGB">
<feFlood flood-opacity="0" result="BackgroundImageFix"/>
<feBlend mode="normal" in="SourceGraphic" in2="BackgroundImageFix" result="shape"/>
<feGaussianBlur stdDeviation="5" result="effect1_foregroundBlur_4991_34700"/>
</filter>
<filter id="filter1_f_4991_34700" x="185.084" y="644" width="19.1113" height="20" filterUnits="userSpaceOnUse" color-interpolation-filters="sRGB">
<feFlood flood-opacity="0" result="BackgroundImageFix"/>
<feBlend mode="normal" in="SourceGraphic" in2="BackgroundImageFix" result="shape"/>
<feGaussianBlur stdDeviation="1" result="effect1_foregroundBlur_4991_34700"/>
</filter>
<linearGradient id="paint0_linear_4991_34700" x1="202.264" y1="2.47064e+06" x2="92" y2="2.47064e+06" gradientUnits="userSpaceOnUse">
<stop stop-color="#2F2F2F"/>
<stop offset="0.38" stop-color="#2F2F2F"/>
<stop offset="1" stop-color="#FFB440"/>
</linearGradient>
<linearGradient id="paint1_linear_4991_34700" x1="186.736" y1="-2.46931e+06" x2="297" y2="-2.46931e+06" gradientUnits="userSpaceOnUse">
<stop stop-color="#2F2F2F"/>
<stop offset="0.38" stop-color="#2F2F2F"/>
<stop offset="1" stop-color="#F9BC5F"/>
</linearGradient>
<clipPath id="clip0_4991_34700">
<rect width="358" height="570" fill="white" transform="translate(16 44)"/>
</clipPath>
</defs>
</svg>
