<svg width="390" height="832" viewBox="0 0 390 832" fill="none" xmlns="http://www.w3.org/2000/svg">
<rect width="390" height="832" fill="#2F2F2F"/>
<g clip-path="url(#clip0_4940_33035)">
<rect width="358" height="570" transform="translate(16 44)" fill="#FBFBFC"/>
<rect x="165.802" y="29.6406" width="84.4513" height="29.3744" rx="14.6872" fill="#F9BC5F"/>
<path d="M191.85 39.7419V48.8281H190.206V41.3357H190.156L188.035 42.6911V41.1977L190.281 39.7419H191.85ZM202.925 38.6124V46.9833H201.532V42.8041H199.248V45.1384H193.94V39.3528H195.333V41.1851H197.868V39.3528H199.248V41.6746H201.532V38.6124H202.925ZM203.176 48.5897V49.7192H195.446V46.155H196.864V48.5897H203.176ZM195.333 44.034H197.868V42.2644H195.333V44.034ZM217.421 44.2724V45.3894H213.041V47.4727H211.661V45.3894H207.055V44.2724H217.421ZM216.091 39.1144V43.2182H208.373V39.1144H216.091ZM209.728 40.2062V42.1264H214.711V40.2062H209.728ZM216.279 48.5897V49.7192H208.31V46.4311H209.703V48.5897H216.279ZM227.681 38.5998V49.9451H226.351V38.5998H227.681ZM225.372 38.8132V49.3929H224.054V43.6826H222.423V42.5531H224.054V38.8132H225.372ZM221.419 41.6997C221.419 43.6198 222.109 45.54 223.728 46.4687L222.9 47.4978C221.852 46.8703 221.155 45.791 220.766 44.4983C220.365 45.8977 219.643 47.0899 218.57 47.7614L217.717 46.7197C219.361 45.7283 220.076 43.67 220.076 41.6997V40.9467H218.106V39.8172H223.251V40.9467H221.419V41.6997Z" fill="#504F4E"/>
<rect x="30.6875" y="79.0996" width="327.708" height="91.7949" rx="14.6872" fill="#FDEACE"/>
<path d="M82.581 114.357H81.9641V122.112C81.9641 122.494 81.7585 122.685 81.3472 122.685H80.4072C79.996 122.685 79.7904 122.494 79.7904 122.112V121.451C77.9692 121.907 75.9277 122.127 73.6511 122.127C73.328 122.127 73.1665 121.98 73.1665 121.686V108.85C73.1665 108.497 73.3721 108.306 73.798 108.306H74.8408C75.2227 108.306 75.4283 108.497 75.4283 108.864V119.865C76.8089 119.865 78.2629 119.689 79.7904 119.307V108.556C79.7904 108.218 79.9666 108.042 80.3485 108.042H81.3619C81.7585 108.042 81.9641 108.218 81.9641 108.571V112.066H82.581V108.556C82.581 108.218 82.7572 108.042 83.1391 108.042H84.1672C84.549 108.042 84.74 108.218 84.74 108.571V122.112C84.74 122.494 84.5343 122.685 84.1525 122.685H83.1978C82.7866 122.685 82.581 122.494 82.581 122.083V114.357ZM97.0809 112.066C97.4921 112.066 97.6977 112.257 97.6977 112.624V113.741C97.6977 114.152 97.4921 114.357 97.1102 114.357H96.3759V122.039C96.3759 122.479 96.1703 122.7 95.7884 122.7H94.6575C94.2462 122.7 94.0406 122.494 94.0406 122.068V108.556C94.0406 108.218 94.2169 108.042 94.5841 108.042H95.8031C96.185 108.042 96.3759 108.218 96.3759 108.571V112.066H97.0809ZM90.501 110.789C90.501 110.568 90.3835 110.451 90.1485 110.451H86.5942C86.2417 110.451 86.0802 110.26 86.0802 109.863V108.967C86.0802 108.556 86.2564 108.336 86.6383 108.336H92.3222C92.7482 108.336 92.9685 108.6 92.9685 109.114C92.9978 115.092 91.6172 119.395 88.8267 122.039C88.577 122.289 88.1804 122.406 87.6517 122.406H86.8145C86.4914 122.406 86.3005 122.318 86.2417 122.127C86.183 121.936 86.3005 121.701 86.5942 121.437C89.2526 118.822 90.5598 115.268 90.501 110.789ZM111.88 120.203C112.292 120.203 112.497 120.423 112.497 120.835V121.789C112.497 122.186 112.292 122.377 111.88 122.377H102.995C102.554 122.377 102.334 122.171 102.334 121.73V120.835C102.334 120.423 102.539 120.203 102.965 120.203H111.88ZM111.954 108.336C112.306 108.336 112.497 108.541 112.497 108.953C112.497 112.536 112.218 115.738 111.675 118.587C111.601 118.969 111.352 119.146 110.926 119.146H109.942C109.677 119.146 109.501 119.087 109.442 118.94C109.369 118.808 109.354 118.631 109.413 118.396C109.795 116.032 110.03 113.506 110.089 110.803C110.118 110.568 110.015 110.436 109.78 110.436H102.818C102.495 110.436 102.334 110.274 102.334 109.937V108.85C102.334 108.512 102.495 108.336 102.818 108.336H111.954ZM124.241 120.658C124.623 120.658 124.813 120.835 124.813 121.172V122.142C124.813 122.524 124.637 122.7 124.285 122.7H114.606C114.209 122.7 114.018 122.538 114.018 122.2V118.69C114.018 118.352 114.195 118.176 114.577 118.176H115.81C116.163 118.176 116.354 118.352 116.354 118.69V120.658H124.241ZM124.711 116.781C124.681 117.207 124.461 117.427 124.02 117.442H123.139C122.669 117.442 122.434 117.266 122.434 116.913V116.34C120.055 117.016 117.47 117.354 114.679 117.354C114.18 117.354 113.93 117.163 113.93 116.766V111.787C113.93 111.464 114.107 111.288 114.488 111.288H118.821V110.274H114.635C114.18 110.274 113.96 110.098 113.96 109.746V108.967C113.96 108.541 114.136 108.321 114.518 108.321H120.319C120.789 108.321 121.024 108.527 121.024 108.909V112.58C121.024 113.109 120.745 113.359 120.187 113.359H116.104V115.268C118.513 115.151 120.613 114.783 122.434 114.137V108.541C122.434 108.204 122.669 108.027 123.139 108.027H124.006C124.476 108.027 124.711 108.204 124.711 108.556V116.781ZM140.428 122.039C140.428 122.479 140.222 122.7 139.84 122.7H138.709C138.298 122.7 138.092 122.494 138.092 122.068V108.556C138.092 108.218 138.269 108.042 138.636 108.042H139.855C140.237 108.042 140.428 108.218 140.428 108.571V122.039ZM134.553 110.789C134.553 110.568 134.435 110.451 134.2 110.451H130.279C129.926 110.451 129.765 110.26 129.765 109.863V108.967C129.765 108.556 129.941 108.336 130.323 108.336H136.374C136.8 108.336 137.02 108.6 137.02 109.114C137.05 115.092 135.522 119.395 132.438 122.039C132.188 122.289 131.792 122.406 131.263 122.406H130.426C130.103 122.406 129.912 122.318 129.853 122.127C129.794 121.936 129.912 121.701 130.205 121.437C133.158 118.822 134.612 115.268 134.553 110.789ZM152.174 120.658C152.556 120.658 152.747 120.835 152.747 121.172V122.142C152.747 122.524 152.571 122.7 152.218 122.7H142.54C142.143 122.7 141.952 122.538 141.952 122.2V118.69C141.952 118.352 142.128 118.176 142.51 118.176H143.744C144.096 118.176 144.287 118.352 144.287 118.69V120.658H152.174ZM152.644 116.781C152.615 117.207 152.395 117.427 151.954 117.442H151.073C150.603 117.442 150.368 117.266 150.368 116.913V116.34C147.989 117.016 145.404 117.354 142.613 117.354C142.114 117.354 141.864 117.163 141.864 116.766V111.787C141.864 111.464 142.04 111.288 142.422 111.288H146.755V110.274H142.569C142.114 110.274 141.893 110.098 141.893 109.746V108.967C141.893 108.541 142.07 108.321 142.452 108.321H148.253C148.723 108.321 148.958 108.527 148.958 108.909V112.58C148.958 113.109 148.679 113.359 148.121 113.359H144.038V115.268C146.446 115.151 148.547 114.783 150.368 114.137V108.541C150.368 108.204 150.603 108.027 151.073 108.027H151.939C152.409 108.027 152.644 108.204 152.644 108.556V116.781ZM167.275 120.203C167.686 120.203 167.891 120.423 167.891 120.835V121.789C167.891 122.186 167.686 122.377 167.275 122.377H158.389C157.948 122.377 157.728 122.171 157.728 121.73V120.835C157.728 120.423 157.934 120.203 158.359 120.203H167.275ZM167.348 108.336C167.701 108.336 167.891 108.541 167.891 108.953C167.891 112.536 167.612 115.738 167.069 118.587C166.996 118.969 166.746 119.146 166.32 119.146H165.336C165.071 119.146 164.895 119.087 164.837 118.94C164.763 118.808 164.748 118.631 164.807 118.396C165.189 116.032 165.424 113.506 165.483 110.803C165.512 110.568 165.409 110.436 165.174 110.436H158.213C157.889 110.436 157.728 110.274 157.728 109.937V108.85C157.728 108.512 157.889 108.336 158.213 108.336H167.348ZM180.105 116.252C180.09 116.678 179.87 116.898 179.444 116.913H178.548C178.078 116.913 177.843 116.737 177.843 116.384V115.723C175.405 116.458 172.82 116.825 170.074 116.825C169.559 116.825 169.31 116.634 169.31 116.237V111.596C169.31 111.273 169.486 111.097 169.853 111.097H174.171V110.289H170.015C169.545 110.289 169.324 110.113 169.324 109.76V108.982C169.324 108.556 169.501 108.336 169.883 108.336H175.669C176.139 108.336 176.374 108.541 176.374 108.923V112.287C176.374 112.815 176.095 113.065 175.552 113.065H171.469V114.798C173.863 114.681 175.992 114.284 177.843 113.579V108.541C177.843 108.204 178.078 108.027 178.548 108.027H179.415C179.87 108.027 180.105 108.204 180.105 108.556V116.252ZM180.134 122.083C180.134 122.494 179.899 122.7 179.459 122.7H170.059C169.648 122.7 169.442 122.538 169.442 122.2V118C169.442 117.647 169.662 117.456 170.118 117.456H179.459C179.899 117.456 180.134 117.647 180.134 118V122.083ZM177.843 120.908V119.307H171.718V120.937L177.843 120.908ZM182.184 117.53C181.743 117.53 181.538 117.324 181.538 116.884V115.944C181.538 115.532 181.729 115.327 182.125 115.327H191.833C192.215 115.342 192.421 115.518 192.421 115.87V116.884C192.421 117.324 192.215 117.53 191.833 117.53H182.184ZM191.833 120.541C192.215 120.541 192.421 120.717 192.421 121.055V122.112C192.421 122.509 192.23 122.7 191.878 122.7H182.096C181.729 122.7 181.552 122.524 181.552 122.156V118.778C181.552 118.396 181.743 118.206 182.14 118.206H183.271C183.653 118.206 183.858 118.396 183.858 118.764V120.541H191.833ZM186.972 107.895C188.103 107.895 189.028 107.969 189.733 108.115C190.438 108.262 190.996 108.468 191.393 108.747C191.789 109.041 192.054 109.393 192.201 109.819C192.348 110.26 192.421 110.759 192.421 111.317C192.421 111.861 192.348 112.331 192.201 112.727C192.054 113.138 191.775 113.476 191.378 113.741C190.967 114.005 190.409 114.211 189.704 114.343C188.999 114.475 188.074 114.534 186.957 114.534C185.9 114.534 185.033 114.475 184.343 114.343C183.638 114.211 183.095 114.005 182.683 113.741C182.272 113.476 181.978 113.138 181.802 112.727C181.626 112.331 181.552 111.861 181.552 111.317C181.552 110.759 181.626 110.26 181.802 109.834C181.964 109.408 182.243 109.055 182.654 108.762C183.065 108.468 183.609 108.262 184.314 108.115C185.004 107.969 185.885 107.895 186.972 107.895ZM186.957 112.536C187.574 112.536 188.088 112.522 188.5 112.463C188.911 112.419 189.234 112.345 189.484 112.243C189.733 112.14 189.909 112.008 190.012 111.861C190.115 111.714 190.174 111.523 190.174 111.317C190.174 111.082 190.115 110.877 190.012 110.7C189.895 110.524 189.719 110.377 189.469 110.26C189.219 110.142 188.896 110.054 188.485 109.995C188.074 109.937 187.56 109.907 186.972 109.907C186.37 109.907 185.871 109.937 185.474 109.995C185.063 110.054 184.74 110.142 184.505 110.26C184.255 110.377 184.079 110.524 183.976 110.7C183.858 110.877 183.814 111.082 183.814 111.317C183.814 111.523 183.858 111.714 183.946 111.861C184.035 112.008 184.196 112.14 184.431 112.243C184.666 112.345 184.975 112.419 185.386 112.463C185.797 112.522 186.311 112.536 186.957 112.536ZM199.955 120.438V120.996H207.871C208.194 120.996 208.371 121.128 208.371 121.422V122.215C208.371 122.538 208.194 122.7 207.871 122.7H198.295C197.84 122.7 197.62 122.494 197.62 122.083V119.704C197.62 119.292 197.81 119.072 198.207 119.072H206.035V118.514H198.236C197.825 118.514 197.62 118.352 197.62 118.015V117.398C197.62 117.031 197.781 116.84 198.134 116.84H207.724C208.15 116.84 208.371 117.016 208.371 117.354V120.012C208.371 120.306 208.194 120.438 207.871 120.438H199.955ZM200.909 110.289C200.807 110.509 200.719 110.73 200.645 110.965C203.406 110.759 204.772 112.316 204.743 115.635C204.743 116.061 204.508 116.282 204.067 116.282H203.01C202.628 116.282 202.452 116.091 202.452 115.709C202.422 113.564 201.644 112.698 200.131 113.109C200.014 113.902 199.94 114.769 199.94 115.709C199.94 116.091 199.72 116.267 199.294 116.267H198.295C197.884 116.267 197.678 116.061 197.678 115.65C197.678 113.887 198.001 112.096 198.633 110.289H197.957C197.649 110.289 197.502 110.142 197.502 109.834V108.776C197.502 108.483 197.649 108.321 197.957 108.321H204.434C204.772 108.321 204.948 108.483 204.948 108.791V109.76C204.948 110.113 204.772 110.289 204.42 110.289H200.909ZM208.796 110.847C209.105 110.847 209.266 111.038 209.266 111.405V112.595C209.266 112.962 209.09 113.138 208.767 113.138H208.018V115.723C208.018 116.105 207.812 116.282 207.416 116.282H206.241C205.844 116.282 205.653 116.105 205.653 115.753V108.512C205.653 108.204 205.844 108.042 206.226 108.042H207.445C207.827 108.042 208.018 108.218 208.018 108.541V110.847H208.796ZM223.515 120.203C223.926 120.203 224.132 120.423 224.132 120.835V121.789C224.132 122.186 223.926 122.377 223.515 122.377H214.629C214.189 122.377 213.968 122.171 213.968 121.73V120.835C213.968 120.423 214.174 120.203 214.6 120.203H223.515ZM223.588 108.336C223.941 108.336 224.132 108.541 224.132 108.953C224.132 112.536 223.853 115.738 223.309 118.587C223.236 118.969 222.986 119.146 222.56 119.146H221.576C221.312 119.146 221.136 119.087 221.077 118.94C221.004 118.808 220.989 118.631 221.048 118.396C221.429 116.032 221.664 113.506 221.723 110.803C221.753 110.568 221.65 110.436 221.415 110.436H214.453C214.13 110.436 213.968 110.274 213.968 109.937V108.85C213.968 108.512 214.13 108.336 214.453 108.336H223.588ZM235.875 120.658C236.257 120.658 236.448 120.835 236.448 121.172V122.142C236.448 122.524 236.272 122.7 235.919 122.7H226.241C225.844 122.7 225.653 122.538 225.653 122.2V118.69C225.653 118.352 225.829 118.176 226.211 118.176H227.445C227.797 118.176 227.988 118.352 227.988 118.69V120.658H235.875ZM236.345 116.781C236.316 117.207 236.096 117.427 235.655 117.442H234.774C234.304 117.442 234.069 117.266 234.069 116.913V116.34C231.689 117.016 229.105 117.354 226.314 117.354C225.815 117.354 225.565 117.163 225.565 116.766V111.787C225.565 111.464 225.741 111.288 226.123 111.288H230.456V110.274H226.27C225.815 110.274 225.594 110.098 225.594 109.746V108.967C225.594 108.541 225.771 108.321 226.152 108.321H231.954C232.424 108.321 232.659 108.527 232.659 108.909V112.58C232.659 113.109 232.38 113.359 231.822 113.359H227.739V115.268C230.147 115.151 232.248 114.783 234.069 114.137V108.541C234.069 108.204 234.304 108.027 234.774 108.027H235.64C236.11 108.027 236.345 108.204 236.345 108.556V116.781ZM252.062 122.039C252.062 122.479 251.857 122.7 251.475 122.7H250.344C249.933 122.7 249.727 122.494 249.727 122.068V108.556C249.727 108.218 249.903 108.042 250.27 108.042H251.489C251.871 108.042 252.062 108.218 252.062 108.571V122.039ZM246.187 110.789C246.187 110.568 246.07 110.451 245.835 110.451H241.913C241.561 110.451 241.399 110.26 241.399 109.863V108.967C241.399 108.556 241.576 108.336 241.957 108.336H248.009C248.435 108.336 248.655 108.6 248.655 109.114C248.684 115.092 247.157 119.395 244.072 122.039C243.823 122.289 243.426 122.406 242.897 122.406H242.06C241.737 122.406 241.546 122.318 241.488 122.127C241.429 121.936 241.546 121.701 241.84 121.437C244.792 118.822 246.246 115.268 246.187 110.789ZM263.809 120.658C264.191 120.658 264.382 120.835 264.382 121.172V122.142C264.382 122.524 264.206 122.7 263.853 122.7H254.174C253.778 122.7 253.587 122.538 253.587 122.2V118.69C253.587 118.352 253.763 118.176 254.145 118.176H255.379C255.731 118.176 255.922 118.352 255.922 118.69V120.658H263.809ZM264.279 116.781C264.25 117.207 264.029 117.427 263.589 117.442H262.708C262.238 117.442 262.003 117.266 262.003 116.913V116.34C259.623 117.016 257.038 117.354 254.248 117.354C253.748 117.354 253.499 117.163 253.499 116.766V111.787C253.499 111.464 253.675 111.288 254.057 111.288H258.389V110.274H254.204C253.748 110.274 253.528 110.098 253.528 109.746V108.967C253.528 108.541 253.704 108.321 254.086 108.321H259.888C260.358 108.321 260.593 108.527 260.593 108.909V112.58C260.593 113.109 260.313 113.359 259.755 113.359H255.672V115.268C258.081 115.151 260.181 114.783 262.003 114.137V108.541C262.003 108.204 262.238 108.027 262.708 108.027H263.574C264.044 108.027 264.279 108.204 264.279 108.556V116.781ZM278.909 120.203C279.32 120.203 279.526 120.423 279.526 120.835V121.789C279.526 122.186 279.32 122.377 278.909 122.377H270.023C269.583 122.377 269.363 122.171 269.363 121.73V120.835C269.363 120.423 269.568 120.203 269.994 120.203H278.909ZM278.983 108.336C279.335 108.336 279.526 108.541 279.526 108.953C279.526 112.536 279.247 115.738 278.704 118.587C278.63 118.969 278.38 119.146 277.955 119.146H276.97C276.706 119.146 276.53 119.087 276.471 118.94C276.398 118.808 276.383 118.631 276.442 118.396C276.824 116.032 277.059 113.506 277.117 110.803C277.147 110.568 277.044 110.436 276.809 110.436H269.847C269.524 110.436 269.363 110.274 269.363 109.937V108.85C269.363 108.512 269.524 108.336 269.847 108.336H278.983ZM291.739 116.252C291.725 116.678 291.504 116.898 291.079 116.913H290.183C289.713 116.913 289.478 116.737 289.478 116.384V115.723C287.04 116.458 284.455 116.825 281.708 116.825C281.194 116.825 280.944 116.634 280.944 116.237V111.596C280.944 111.273 281.121 111.097 281.488 111.097H285.806V110.289H281.649C281.179 110.289 280.959 110.113 280.959 109.76V108.982C280.959 108.556 281.135 108.336 281.517 108.336H287.304C287.774 108.336 288.009 108.541 288.009 108.923V112.287C288.009 112.815 287.73 113.065 287.186 113.065H283.103V114.798C285.497 114.681 287.627 114.284 289.478 113.579V108.541C289.478 108.204 289.713 108.027 290.183 108.027H291.049C291.504 108.027 291.739 108.204 291.739 108.556V116.252ZM291.769 122.083C291.769 122.494 291.534 122.7 291.093 122.7H281.693C281.282 122.7 281.077 122.538 281.077 122.2V118C281.077 117.647 281.297 117.456 281.752 117.456H291.093C291.534 117.456 291.769 117.647 291.769 118V122.083ZM289.478 120.908V119.307H283.353V120.937L289.478 120.908ZM304.012 122.171C304.012 122.524 303.835 122.7 303.483 122.7H302.22C301.853 122.7 301.676 122.509 301.676 122.127V108.556C301.676 108.218 301.853 108.042 302.22 108.042H303.439C303.821 108.042 304.012 108.233 304.012 108.585V122.171ZM296.947 108.042C297.711 108.042 298.328 108.189 298.827 108.483C299.312 108.776 299.694 109.232 299.987 109.819C300.266 110.407 300.457 111.156 300.575 112.037C300.678 112.918 300.736 113.961 300.736 115.136C300.736 116.399 300.678 117.515 300.56 118.455C300.443 119.395 300.237 120.188 299.958 120.82C299.664 121.451 299.282 121.921 298.798 122.23C298.298 122.553 297.681 122.7 296.947 122.7C296.183 122.7 295.552 122.553 295.052 122.23C294.553 121.907 294.156 121.437 293.863 120.805C293.569 120.174 293.378 119.381 293.261 118.441C293.143 117.501 293.084 116.399 293.084 115.136C293.084 113.961 293.143 112.933 293.275 112.052C293.407 111.17 293.628 110.421 293.921 109.834C294.215 109.246 294.612 108.791 295.111 108.497C295.61 108.204 296.213 108.042 296.947 108.042ZM298.533 115.136C298.533 114.313 298.504 113.579 298.474 112.948C298.43 112.331 298.357 111.802 298.239 111.391C298.122 110.979 297.96 110.656 297.755 110.451C297.549 110.245 297.285 110.142 296.962 110.142C296.624 110.142 296.36 110.245 296.154 110.451C295.948 110.656 295.787 110.979 295.669 111.391C295.552 111.802 295.478 112.331 295.449 112.948C295.405 113.579 295.39 114.313 295.39 115.136C295.39 116.972 295.493 118.352 295.713 119.263C295.919 120.174 296.345 120.629 296.962 120.629C297.27 120.629 297.535 120.526 297.74 120.291C297.946 120.056 298.107 119.718 298.225 119.248C298.342 118.793 298.416 118.22 298.46 117.53C298.504 116.854 298.533 116.047 298.533 115.136ZM315.239 120.203C315.65 120.203 315.856 120.423 315.856 120.835V121.789C315.856 122.186 315.65 122.377 315.239 122.377H306.089C305.648 122.377 305.428 122.171 305.428 121.73V120.835C305.428 120.423 305.634 120.203 306.06 120.203H308.454V114.269C308.454 113.843 308.674 113.623 309.144 113.623H310.128C310.569 113.623 310.804 113.843 310.804 114.269V120.203H315.239ZM315.313 108.336C315.665 108.336 315.856 108.541 315.856 108.953C315.856 112.536 315.577 115.738 315.033 118.587C314.96 118.969 314.71 119.146 314.284 119.146H313.3C313.036 119.146 312.86 119.087 312.801 118.94C312.728 118.808 312.713 118.631 312.772 118.396C313.153 116.032 313.388 113.506 313.447 110.803C313.477 110.568 313.374 110.436 313.139 110.436H305.913C305.59 110.436 305.428 110.274 305.428 109.937V108.85C305.428 108.512 305.59 108.336 305.913 108.336H315.313ZM79.6012 144.127C79.6012 144.509 79.3956 144.7 78.999 144.7H78.059C77.6478 144.7 77.4569 144.509 77.4569 144.127V143.628C75.7531 144.083 73.8879 144.303 71.8904 144.303C71.5526 144.303 71.391 144.156 71.391 143.863V130.879C71.391 130.527 71.5967 130.336 72.0226 130.336H73.0654C73.4619 130.336 73.6676 130.527 73.6676 130.894V142.041C75.0188 142.041 76.2819 141.865 77.4569 141.483V136.357H76.1644C75.7238 136.357 75.5181 136.152 75.5181 135.741V134.61C75.5181 134.257 75.7238 134.066 76.1497 134.066H77.4569V130.527C77.4569 130.204 77.6331 130.027 78.0003 130.027H79.0284C79.4102 130.027 79.6012 130.204 79.6012 130.556V144.127ZM80.218 130.527C80.218 130.204 80.409 130.027 80.7908 130.027H81.7896C82.1861 130.027 82.3917 130.204 82.3917 130.556V144.127C82.3917 144.509 82.1861 144.7 81.7749 144.7H80.8349C80.4237 144.7 80.218 144.509 80.218 144.127V130.527ZM94.7321 134.066C95.1433 134.066 95.3489 134.257 95.3489 134.624V135.741C95.3489 136.152 95.1433 136.357 94.7615 136.357H94.0271V144.039C94.0271 144.479 93.8215 144.7 93.4396 144.7H92.3087C91.8975 144.7 91.6918 144.494 91.6918 144.068V130.556C91.6918 130.218 91.8681 130.042 92.2353 130.042H93.4543C93.8362 130.042 94.0271 130.218 94.0271 130.571V134.066H94.7321ZM88.1522 132.789C88.1522 132.568 88.0347 132.451 87.7997 132.451H84.2454C83.8929 132.451 83.7314 132.26 83.7314 131.863V130.967C83.7314 130.556 83.9076 130.336 84.2895 130.336H89.9734C90.3994 130.336 90.6197 130.6 90.6197 131.114C90.649 137.092 89.2684 141.395 86.4779 144.039C86.2282 144.289 85.8316 144.406 85.3029 144.406H84.4657C84.1426 144.406 83.9517 144.318 83.8929 144.127C83.8342 143.936 83.9517 143.701 84.2454 143.437C86.9038 140.822 88.211 137.268 88.1522 132.789ZM109.532 142.203C109.943 142.203 110.148 142.423 110.148 142.835V143.789C110.148 144.186 109.943 144.377 109.532 144.377H100.646C100.205 144.377 99.9849 144.171 99.9849 143.73V142.835C99.9849 142.423 100.191 142.203 100.616 142.203H109.532ZM109.605 130.336C109.958 130.336 110.148 130.541 110.148 130.953C110.148 134.536 109.869 137.738 109.326 140.587C109.253 140.969 109.003 141.146 108.577 141.146H107.593C107.329 141.146 107.152 141.087 107.094 140.94C107.02 140.808 107.005 140.631 107.064 140.396C107.446 138.032 107.681 135.506 107.74 132.803C107.769 132.568 107.666 132.436 107.431 132.436H100.47C100.146 132.436 99.9849 132.274 99.9849 131.937V130.85C99.9849 130.512 100.146 130.336 100.47 130.336H109.605ZM121.892 142.658C122.274 142.658 122.465 142.835 122.465 143.172V144.142C122.465 144.524 122.288 144.7 121.936 144.7H112.257C111.861 144.7 111.67 144.538 111.67 144.2V140.69C111.67 140.352 111.846 140.176 112.228 140.176H113.461C113.814 140.176 114.005 140.352 114.005 140.69V142.658H121.892ZM122.362 138.781C122.333 139.207 122.112 139.427 121.672 139.442H120.79C120.32 139.442 120.085 139.266 120.085 138.913V138.34C117.706 139.016 115.121 139.354 112.331 139.354C111.831 139.354 111.581 139.163 111.581 138.766V133.787C111.581 133.464 111.758 133.288 112.14 133.288H116.472V132.274H112.286C111.831 132.274 111.611 132.098 111.611 131.746V130.967C111.611 130.541 111.787 130.321 112.169 130.321H117.97C118.44 130.321 118.675 130.527 118.675 130.909V134.58C118.675 135.109 118.396 135.359 117.838 135.359H113.755V137.268C116.164 137.151 118.264 136.783 120.085 136.137V130.541C120.085 130.204 120.32 130.027 120.79 130.027H121.657C122.127 130.027 122.362 130.204 122.362 130.556V138.781ZM138.079 144.039C138.079 144.479 137.873 144.7 137.491 144.7H136.36C135.949 144.7 135.744 144.494 135.744 144.068V130.556C135.744 130.218 135.92 130.042 136.287 130.042H137.506C137.888 130.042 138.079 130.218 138.079 130.571V144.039ZM132.204 132.789C132.204 132.568 132.087 132.451 131.852 132.451H127.93C127.578 132.451 127.416 132.26 127.416 131.863V130.967C127.416 130.556 127.592 130.336 127.974 130.336H134.025C134.451 130.336 134.671 130.6 134.671 131.114C134.701 137.092 133.173 141.395 130.089 144.039C129.839 144.289 129.443 144.406 128.914 144.406H128.077C127.754 144.406 127.563 144.318 127.504 144.127C127.445 143.936 127.563 143.701 127.857 143.437C130.809 140.822 132.263 137.268 132.204 132.789ZM149.826 142.658C150.208 142.658 150.398 142.835 150.398 143.172V144.142C150.398 144.524 150.222 144.7 149.87 144.7H140.191C139.794 144.7 139.603 144.538 139.603 144.2V140.69C139.603 140.352 139.78 140.176 140.161 140.176H141.395C141.748 140.176 141.939 140.352 141.939 140.69V142.658H149.826ZM150.296 138.781C150.266 139.207 150.046 139.427 149.605 139.442H148.724C148.254 139.442 148.019 139.266 148.019 138.913V138.34C145.64 139.016 143.055 139.354 140.264 139.354C139.765 139.354 139.515 139.163 139.515 138.766V133.787C139.515 133.464 139.691 133.288 140.073 133.288H144.406V132.274H140.22C139.765 132.274 139.545 132.098 139.545 131.746V130.967C139.545 130.541 139.721 130.321 140.103 130.321H145.904C146.374 130.321 146.609 130.527 146.609 130.909V134.58C146.609 135.109 146.33 135.359 145.772 135.359H141.689V137.268C144.098 137.151 146.198 136.783 148.019 136.137V130.541C148.019 130.204 148.254 130.027 148.724 130.027H149.591C150.061 130.027 150.296 130.204 150.296 130.556V138.781ZM164.926 142.203C165.337 142.203 165.543 142.423 165.543 142.835V143.789C165.543 144.186 165.337 144.377 164.926 144.377H156.04C155.599 144.377 155.379 144.171 155.379 143.73V142.835C155.379 142.423 155.585 142.203 156.011 142.203H164.926ZM164.999 130.336C165.352 130.336 165.543 130.541 165.543 130.953C165.543 134.536 165.264 137.738 164.72 140.587C164.647 140.969 164.397 141.146 163.971 141.146H162.987C162.723 141.146 162.546 141.087 162.488 140.94C162.414 140.808 162.4 140.631 162.458 140.396C162.84 138.032 163.075 135.506 163.134 132.803C163.163 132.568 163.061 132.436 162.826 132.436H155.864C155.541 132.436 155.379 132.274 155.379 131.937V130.85C155.379 130.512 155.541 130.336 155.864 130.336H164.999ZM177.756 138.252C177.741 138.678 177.521 138.898 177.095 138.913H176.199C175.729 138.913 175.494 138.737 175.494 138.384V137.723C173.056 138.458 170.471 138.825 167.725 138.825C167.211 138.825 166.961 138.634 166.961 138.237V133.596C166.961 133.273 167.137 133.097 167.504 133.097H171.822V132.289H167.666C167.196 132.289 166.976 132.113 166.976 131.76V130.982C166.976 130.556 167.152 130.336 167.534 130.336H173.321C173.791 130.336 174.026 130.541 174.026 130.923V134.287C174.026 134.815 173.746 135.065 173.203 135.065H169.12V136.798C171.514 136.681 173.644 136.284 175.494 135.579V130.541C175.494 130.204 175.729 130.027 176.199 130.027H177.066C177.521 130.027 177.756 130.204 177.756 130.556V138.252ZM177.785 144.083C177.785 144.494 177.55 144.7 177.11 144.7H167.71C167.299 144.7 167.093 144.538 167.093 144.2V140C167.093 139.647 167.313 139.456 167.769 139.456H177.11C177.55 139.456 177.785 139.647 177.785 140V144.083ZM175.494 142.908V141.307H169.37V142.937L175.494 142.908ZM179.835 139.53C179.395 139.53 179.189 139.324 179.189 138.884V137.944C179.189 137.532 179.38 137.327 179.776 137.327H189.485C189.867 137.342 190.072 137.518 190.072 137.87V138.884C190.072 139.324 189.867 139.53 189.485 139.53H179.835ZM189.485 142.541C189.867 142.541 190.072 142.717 190.072 143.055V144.112C190.072 144.509 189.881 144.7 189.529 144.7H179.747C179.38 144.7 179.204 144.524 179.204 144.156V140.778C179.204 140.396 179.395 140.206 179.791 140.206H180.922C181.304 140.206 181.51 140.396 181.51 140.764V142.541H189.485ZM184.623 129.895C185.754 129.895 186.679 129.969 187.384 130.115C188.089 130.262 188.648 130.468 189.044 130.747C189.441 131.041 189.705 131.393 189.852 131.819C189.999 132.26 190.072 132.759 190.072 133.317C190.072 133.861 189.999 134.331 189.852 134.727C189.705 135.138 189.426 135.476 189.029 135.741C188.618 136.005 188.06 136.211 187.355 136.343C186.65 136.475 185.725 136.534 184.609 136.534C183.551 136.534 182.685 136.475 181.994 136.343C181.289 136.211 180.746 136.005 180.335 135.741C179.923 135.476 179.63 135.138 179.453 134.727C179.277 134.331 179.204 133.861 179.204 133.317C179.204 132.759 179.277 132.26 179.453 131.834C179.615 131.408 179.894 131.055 180.305 130.762C180.716 130.468 181.26 130.262 181.965 130.115C182.655 129.969 183.536 129.895 184.623 129.895ZM184.609 134.536C185.225 134.536 185.739 134.522 186.151 134.463C186.562 134.419 186.885 134.345 187.135 134.243C187.384 134.14 187.561 134.008 187.663 133.861C187.766 133.714 187.825 133.523 187.825 133.317C187.825 133.082 187.766 132.877 187.663 132.7C187.546 132.524 187.37 132.377 187.12 132.26C186.87 132.142 186.547 132.054 186.136 131.995C185.725 131.937 185.211 131.907 184.623 131.907C184.021 131.907 183.522 131.937 183.125 131.995C182.714 132.054 182.391 132.142 182.156 132.26C181.906 132.377 181.73 132.524 181.627 132.7C181.51 132.877 181.465 133.082 181.465 133.317C181.465 133.523 181.51 133.714 181.598 133.861C181.686 134.008 181.847 134.14 182.082 134.243C182.317 134.345 182.626 134.419 183.037 134.463C183.448 134.522 183.962 134.536 184.609 134.536ZM201.762 135.667V136.519H205.464C205.831 136.519 206.022 136.71 206.022 137.062V138.061C206.022 138.414 205.846 138.575 205.493 138.575H195.653C195.3 138.575 195.124 138.399 195.124 138.032V137.062C195.124 136.71 195.3 136.519 195.653 136.519H199.368V135.667H195.667C195.3 135.667 195.124 135.506 195.124 135.153V130.512C195.124 130.189 195.285 130.013 195.638 130.013H205.434C205.816 130.013 206.022 130.189 206.022 130.512V135.065C206.022 135.476 205.816 135.667 205.42 135.667H201.762ZM197.4 133.714H203.819V131.922H197.4V133.714ZM203.804 144.7C203.437 144.7 203.261 144.538 203.29 144.215C203.407 142.453 202.306 141.63 199.985 141.762C199.545 142.893 198.957 143.76 198.208 144.377C197.944 144.597 197.665 144.7 197.371 144.7H195.565C195.388 144.7 195.3 144.641 195.271 144.509C195.241 144.391 195.33 144.245 195.506 144.098C196.974 142.893 197.797 141.425 197.973 139.706C198.003 139.412 198.194 139.251 198.546 139.251H199.927C200.25 139.251 200.382 139.383 200.353 139.618L200.323 139.882C204.112 139.706 205.978 141.16 205.919 144.245C205.89 144.553 205.713 144.7 205.39 144.7H203.804ZM220.65 142.203C221.061 142.203 221.267 142.423 221.267 142.835V143.789C221.267 144.186 221.061 144.377 220.65 144.377H211.764C211.324 144.377 211.103 144.171 211.103 143.73V142.835C211.103 142.423 211.309 142.203 211.735 142.203H220.65ZM220.723 130.336C221.076 130.336 221.267 130.541 221.267 130.953C221.267 134.536 220.988 137.738 220.444 140.587C220.371 140.969 220.121 141.146 219.695 141.146H218.711C218.447 141.146 218.271 141.087 218.212 140.94C218.138 140.808 218.124 140.631 218.182 140.396C218.564 138.032 218.799 135.506 218.858 132.803C218.887 132.568 218.785 132.436 218.55 132.436H211.588C211.265 132.436 211.103 132.274 211.103 131.937V130.85C211.103 130.512 211.265 130.336 211.588 130.336H220.723ZM233.01 142.658C233.392 142.658 233.583 142.835 233.583 143.172V144.142C233.583 144.524 233.407 144.7 233.054 144.7H223.375C222.979 144.7 222.788 144.538 222.788 144.2V140.69C222.788 140.352 222.964 140.176 223.346 140.176H224.58C224.932 140.176 225.123 140.352 225.123 140.69V142.658H233.01ZM233.48 138.781C233.451 139.207 233.23 139.427 232.79 139.442H231.909C231.439 139.442 231.204 139.266 231.204 138.913V138.34C228.824 139.016 226.239 139.354 223.449 139.354C222.949 139.354 222.7 139.163 222.7 138.766V133.787C222.7 133.464 222.876 133.288 223.258 133.288H227.591V132.274H223.405C222.949 132.274 222.729 132.098 222.729 131.746V130.967C222.729 130.541 222.905 130.321 223.287 130.321H229.089C229.559 130.321 229.794 130.527 229.794 130.909V134.58C229.794 135.109 229.515 135.359 228.956 135.359H224.873V137.268C227.282 137.151 229.382 136.783 231.204 136.137V130.541C231.204 130.204 231.439 130.027 231.909 130.027H232.775C233.245 130.027 233.48 130.204 233.48 130.556V138.781ZM249.197 144.039C249.197 144.479 248.992 144.7 248.61 144.7H247.479C247.068 144.7 246.862 144.494 246.862 144.068V130.556C246.862 130.218 247.038 130.042 247.405 130.042H248.624C249.006 130.042 249.197 130.218 249.197 130.571V144.039ZM243.322 132.789C243.322 132.568 243.205 132.451 242.97 132.451H239.048C238.696 132.451 238.534 132.26 238.534 131.863V130.967C238.534 130.556 238.711 130.336 239.092 130.336H245.143C245.569 130.336 245.79 130.6 245.79 131.114C245.819 137.092 244.292 141.395 241.207 144.039C240.958 144.289 240.561 144.406 240.032 144.406H239.195C238.872 144.406 238.681 144.318 238.622 144.127C238.564 143.936 238.681 143.701 238.975 143.437C241.927 140.822 243.381 137.268 243.322 132.789ZM260.944 142.658C261.326 142.658 261.517 142.835 261.517 143.172V144.142C261.517 144.524 261.34 144.7 260.988 144.7H251.309C250.913 144.7 250.722 144.538 250.722 144.2V140.69C250.722 140.352 250.898 140.176 251.28 140.176H252.513C252.866 140.176 253.057 140.352 253.057 140.69V142.658H260.944ZM261.414 138.781C261.385 139.207 261.164 139.427 260.724 139.442H259.842C259.372 139.442 259.137 139.266 259.137 138.913V138.34C256.758 139.016 254.173 139.354 251.383 139.354C250.883 139.354 250.634 139.163 250.634 138.766V133.787C250.634 133.464 250.81 133.288 251.192 133.288H255.524V132.274H251.339C250.883 132.274 250.663 132.098 250.663 131.746V130.967C250.663 130.541 250.839 130.321 251.221 130.321H257.022C257.492 130.321 257.727 130.527 257.727 130.909V134.58C257.727 135.109 257.448 135.359 256.89 135.359H252.807V137.268C255.216 137.151 257.316 136.783 259.137 136.137V130.541C259.137 130.204 259.372 130.027 259.842 130.027H260.709C261.179 130.027 261.414 130.204 261.414 130.556V138.781ZM276.044 142.203C276.455 142.203 276.661 142.423 276.661 142.835V143.789C276.661 144.186 276.455 144.377 276.044 144.377H267.158C266.718 144.377 266.497 144.171 266.497 143.73V142.835C266.497 142.423 266.703 142.203 267.129 142.203H276.044ZM276.117 130.336C276.47 130.336 276.661 130.541 276.661 130.953C276.661 134.536 276.382 137.738 275.838 140.587C275.765 140.969 275.515 141.146 275.089 141.146H274.105C273.841 141.146 273.665 141.087 273.606 140.94C273.533 140.808 273.518 140.631 273.577 140.396C273.958 138.032 274.193 135.506 274.252 132.803C274.282 132.568 274.179 132.436 273.944 132.436H266.982C266.659 132.436 266.497 132.274 266.497 131.937V130.85C266.497 130.512 266.659 130.336 266.982 130.336H276.117ZM288.874 138.252C288.86 138.678 288.639 138.898 288.213 138.913H287.318C286.848 138.913 286.613 138.737 286.613 138.384V137.723C284.174 138.458 281.59 138.825 278.843 138.825C278.329 138.825 278.079 138.634 278.079 138.237V133.596C278.079 133.273 278.256 133.097 278.623 133.097H282.941V132.289H278.784C278.314 132.289 278.094 132.113 278.094 131.76V130.982C278.094 130.556 278.27 130.336 278.652 130.336H284.439C284.909 130.336 285.144 130.541 285.144 130.923V134.287C285.144 134.815 284.865 135.065 284.321 135.065H280.238V136.798C282.632 136.681 284.762 136.284 286.613 135.579V130.541C286.613 130.204 286.848 130.027 287.318 130.027H288.184C288.639 130.027 288.874 130.204 288.874 130.556V138.252ZM288.904 144.083C288.904 144.494 288.669 144.7 288.228 144.7H278.828C278.417 144.7 278.211 144.538 278.211 144.2V140C278.211 139.647 278.432 139.456 278.887 139.456H288.228C288.669 139.456 288.904 139.647 288.904 140V144.083ZM286.613 142.908V141.307H280.488V142.937L286.613 142.908ZM301.146 144.171C301.146 144.524 300.97 144.7 300.618 144.7H299.355C298.987 144.7 298.811 144.509 298.811 144.127V130.556C298.811 130.218 298.987 130.042 299.355 130.042H300.574C300.955 130.042 301.146 130.233 301.146 130.585V144.171ZM294.082 130.042C294.846 130.042 295.462 130.189 295.962 130.483C296.446 130.776 296.828 131.232 297.122 131.819C297.401 132.407 297.592 133.156 297.71 134.037C297.812 134.918 297.871 135.961 297.871 137.136C297.871 138.399 297.812 139.515 297.695 140.455C297.577 141.395 297.372 142.188 297.093 142.82C296.799 143.451 296.417 143.921 295.932 144.23C295.433 144.553 294.816 144.7 294.082 144.7C293.318 144.7 292.687 144.553 292.187 144.23C291.688 143.907 291.291 143.437 290.998 142.805C290.704 142.174 290.513 141.381 290.395 140.441C290.278 139.501 290.219 138.399 290.219 137.136C290.219 135.961 290.278 134.933 290.41 134.052C290.542 133.17 290.763 132.421 291.056 131.834C291.35 131.246 291.747 130.791 292.246 130.497C292.745 130.204 293.348 130.042 294.082 130.042ZM295.668 137.136C295.668 136.313 295.639 135.579 295.609 134.948C295.565 134.331 295.492 133.802 295.374 133.391C295.257 132.979 295.095 132.656 294.89 132.451C294.684 132.245 294.42 132.142 294.097 132.142C293.759 132.142 293.494 132.245 293.289 132.451C293.083 132.656 292.922 132.979 292.804 133.391C292.687 133.802 292.613 134.331 292.584 134.948C292.54 135.579 292.525 136.313 292.525 137.136C292.525 138.972 292.628 140.352 292.848 141.263C293.054 142.174 293.48 142.629 294.097 142.629C294.405 142.629 294.669 142.526 294.875 142.291C295.081 142.056 295.242 141.718 295.36 141.248C295.477 140.793 295.551 140.22 295.595 139.53C295.639 138.854 295.668 138.047 295.668 137.136ZM313.52 134.066C313.887 134.066 314.078 134.243 314.078 134.566V135.755C314.078 136.167 313.887 136.357 313.505 136.357H312.741V144.098C312.741 144.509 312.536 144.7 312.124 144.7H310.979C310.582 144.7 310.391 144.524 310.391 144.142V143.716C307.498 144.156 305.133 144.391 303.283 144.391C302.813 144.391 302.578 144.156 302.578 143.686V130.938C302.578 130.541 302.783 130.336 303.194 130.336H308.658C309.04 130.336 309.246 130.527 309.246 130.894V131.849C309.246 132.23 309.04 132.421 308.629 132.421H304.825V142.276C306.763 142.276 308.614 142.041 310.391 141.601V130.571C310.391 130.218 310.567 130.042 310.935 130.042H312.139C312.536 130.042 312.741 130.218 312.741 130.571V134.066H313.52ZM317.706 143.334C317.676 143.833 317.574 144.171 317.383 144.333C317.192 144.509 316.869 144.612 316.399 144.641C315.899 144.612 315.576 144.509 315.4 144.333C315.224 144.156 315.135 143.833 315.121 143.334C315.135 142.864 315.224 142.526 315.4 142.335C315.561 142.144 315.899 142.041 316.399 142.012C316.898 142.041 317.236 142.13 317.412 142.306C317.588 142.482 317.676 142.835 317.706 143.334Z" fill="#855205"/>
<rect x="30.6875" y="201.186" width="327.708" height="87.5385" rx="14.6872" fill="white"/>
<path d="M182.718 224.547C183.849 224.547 184.774 224.605 185.479 224.723C186.184 224.84 186.742 225.031 187.139 225.266C187.535 225.501 187.8 225.81 187.946 226.162C188.079 226.515 188.152 226.941 188.152 227.411C188.152 227.881 188.064 228.292 187.917 228.644C187.77 228.997 187.491 229.276 187.095 229.511C186.683 229.746 186.14 229.922 185.435 230.04C184.73 230.157 183.819 230.216 182.718 230.216C181.602 230.216 180.691 230.157 179.957 230.04C179.222 229.922 178.635 229.746 178.194 229.511C177.753 229.276 177.43 228.982 177.254 228.63C177.078 228.277 176.99 227.866 176.99 227.396C176.99 226.926 177.063 226.515 177.239 226.162C177.401 225.81 177.695 225.501 178.135 225.266C178.561 225.031 179.149 224.84 179.883 224.723C180.617 224.605 181.572 224.547 182.718 224.547ZM180.441 217.688C180.353 217.864 180.265 218.025 180.192 218.202C182.762 218.172 184.025 219.861 183.996 223.269C183.996 223.695 183.761 223.915 183.32 223.915H182.262C181.881 223.915 181.704 223.724 181.704 223.342C181.675 221.08 180.97 220.067 179.589 220.302C179.413 221.213 179.325 222.241 179.325 223.357C179.325 223.739 179.105 223.915 178.679 223.915H177.68C177.269 223.915 177.063 223.709 177.063 223.298C177.063 221.359 177.386 219.479 178.018 217.688H177.239C176.931 217.688 176.784 217.541 176.784 217.232V216.16C176.784 215.866 176.931 215.705 177.239 215.705H183.819C184.157 215.705 184.333 215.866 184.333 216.175V217.159C184.333 217.511 184.157 217.688 183.805 217.688H180.441ZM185.479 218.525V215.94C185.479 215.587 185.655 215.411 186.008 215.411H187.256C187.623 215.411 187.814 215.587 187.814 215.911V223.533C187.814 223.871 187.623 224.033 187.256 224.033H185.978C185.64 224.033 185.479 223.856 185.479 223.504V220.816H184.686C184.348 220.816 184.186 220.669 184.186 220.375V219.024C184.186 218.701 184.348 218.525 184.701 218.525H185.479ZM182.732 228.395C183.349 228.395 183.863 228.38 184.275 228.336C184.671 228.306 184.994 228.248 185.229 228.16C185.464 228.071 185.626 227.969 185.714 227.851C185.802 227.734 185.861 227.572 185.861 227.396C185.861 227.22 185.817 227.073 185.729 226.941C185.64 226.823 185.479 226.72 185.244 226.632C185.009 226.544 184.686 226.485 184.275 226.441C183.863 226.412 183.349 226.382 182.718 226.382C182.042 226.382 181.469 226.412 181.029 226.441C180.588 226.485 180.236 226.544 179.971 226.632C179.707 226.72 179.531 226.823 179.428 226.941C179.31 227.073 179.266 227.22 179.266 227.396C179.266 227.572 179.31 227.734 179.413 227.851C179.501 227.969 179.678 228.071 179.942 228.16C180.206 228.248 180.559 228.306 180.999 228.336C181.44 228.38 182.027 228.395 182.732 228.395ZM199.245 215.396C199.642 215.396 199.847 215.573 199.847 215.911V218.613H200.567C200.92 218.613 201.096 218.76 201.096 219.054V220.317C201.096 220.64 200.934 220.787 200.611 220.787H199.847V225.075C199.847 225.442 199.642 225.619 199.231 225.619H198.129C197.718 225.619 197.527 225.442 197.527 225.09H189.89C189.478 225.09 189.273 224.884 189.273 224.473V223.68C189.273 223.239 189.478 223.019 189.919 223.019H191.755V222.255C190.213 222.153 189.449 221.286 189.449 219.641C189.478 218.819 189.669 218.216 190.022 217.849H189.699C189.346 217.849 189.17 217.673 189.17 217.291V216.38C189.17 216.028 189.331 215.852 189.684 215.852H191.667V215.455C191.667 215.161 191.843 215 192.195 215H193.561C193.914 215 194.105 215.161 194.105 215.455V215.852H196.19C196.558 215.852 196.748 216.028 196.748 216.351V217.365C196.748 217.688 196.572 217.849 196.249 217.849H195.779C196.161 218.216 196.367 218.819 196.367 219.641C196.367 221.286 195.588 222.153 194.061 222.255V223.048H197.527V215.955C197.527 215.587 197.733 215.396 198.158 215.396H199.245ZM189.904 228.277C189.478 228.277 189.273 228.071 189.273 227.66V226.852C189.273 226.412 189.493 226.177 189.934 226.177H199.598C200.038 226.177 200.273 226.382 200.273 226.764V229.496C200.273 229.878 200.053 230.069 199.627 230.069H198.658C198.203 230.084 197.982 229.893 197.982 229.511V228.277H189.904ZM192.93 217.849C192.063 217.849 191.637 218.349 191.637 219.347C191.637 220.258 192.049 220.713 192.871 220.713C193.723 220.713 194.164 220.258 194.164 219.347C194.164 218.349 193.752 217.849 192.93 217.849ZM211.806 225.163C210.895 225.442 209.794 225.648 208.516 225.795V227.572H211.865C212.261 227.572 212.467 227.763 212.467 228.145V229.158C212.467 229.57 212.261 229.775 211.865 229.775H202.935C202.494 229.775 202.274 229.57 202.274 229.129V228.277C202.274 227.807 202.494 227.572 202.949 227.572H206.195V225.986C205.197 226.045 204.124 226.059 202.979 226.059C202.509 226.059 202.274 225.854 202.274 225.428V216.234C202.274 215.881 202.479 215.705 202.92 215.705H211.909C212.276 215.705 212.467 215.896 212.467 216.248V217.232C212.467 217.644 212.261 217.835 211.865 217.835H204.609V223.812C207.194 223.783 209.603 223.518 211.865 222.99C212.261 222.916 212.467 223.063 212.467 223.43V224.414C212.437 224.826 212.217 225.075 211.806 225.163Z" fill="#6A6967"/>
<path d="M178.798 249.637C180.266 249.666 180.707 250.547 180.149 252.31L170.867 277.983C170.573 278.629 170.015 278.923 169.251 278.923H167.019C165.961 278.923 165.638 278.541 165.99 277.777L174.538 254.102H167.165V256.569C167.165 257.48 166.725 257.92 165.844 257.92H163.846C163.024 257.92 162.612 257.509 162.612 256.657V250.841C162.612 250.048 162.935 249.637 163.64 249.637H178.798ZM190.795 249.607C192.381 249.607 193.762 249.872 194.937 250.342C196.112 250.841 197.111 251.664 197.904 252.78C198.668 253.896 199.255 255.394 199.666 257.215C200.048 259.037 200.254 261.298 200.254 263.942C200.254 266.879 200.048 269.288 199.637 271.227C199.226 273.166 198.638 274.693 197.845 275.839C197.052 276.984 196.053 277.777 194.878 278.247C193.703 278.717 192.323 278.952 190.766 278.952C189.209 278.952 187.858 278.717 186.683 278.218C185.508 277.748 184.509 276.926 183.716 275.751C182.923 274.605 182.335 273.077 181.924 271.139C181.513 269.229 181.337 266.821 181.337 263.942C181.337 261.122 181.513 258.802 181.924 256.951C182.335 255.13 182.923 253.661 183.716 252.574C184.509 251.487 185.508 250.724 186.683 250.283C187.858 249.842 189.209 249.607 190.795 249.607ZM190.648 274.722C191.471 274.722 192.205 274.546 192.851 274.194C193.498 273.841 194.026 273.254 194.467 272.431C194.878 271.609 195.201 270.493 195.436 269.141C195.671 267.79 195.789 266.086 195.789 264.06C195.789 262.003 195.671 260.329 195.466 259.007C195.231 257.715 194.908 256.687 194.496 255.923C194.085 255.188 193.556 254.689 192.91 254.425C192.264 254.16 191.5 254.043 190.678 254.043C189.855 254.043 189.121 254.219 188.504 254.513C187.858 254.836 187.329 255.365 186.918 256.128C186.507 256.892 186.183 257.92 185.978 259.213C185.743 260.505 185.655 262.121 185.655 264.06C185.655 266.086 185.743 267.79 185.948 269.141C186.154 270.522 186.477 271.638 186.888 272.461C187.3 273.283 187.828 273.871 188.475 274.223C189.092 274.576 189.826 274.752 190.648 274.722ZM219.172 256.217C219.583 255.57 220.17 255.247 220.993 255.247H222.726C223.871 255.247 224.165 255.688 223.607 256.51L210.389 277.719C209.948 278.541 209.272 278.923 208.362 278.923H206.57C205.454 278.923 205.189 278.424 205.806 277.425L219.172 256.217ZM207.921 255.306C211.27 255.306 212.915 257.186 212.885 260.916C212.856 264.647 211.182 266.498 207.892 266.498C204.543 266.468 202.869 264.618 202.869 260.916C202.869 257.215 204.573 255.335 207.921 255.306ZM207.892 263.178C209.067 263.178 209.654 262.444 209.684 260.916C209.684 259.389 209.096 258.625 207.921 258.625C206.717 258.625 206.129 259.389 206.129 260.916C206.129 262.444 206.717 263.208 207.892 263.178ZM220.993 267.79C224.341 267.79 226.016 269.67 225.957 273.401C225.928 277.102 224.253 278.952 220.963 278.952C217.644 278.952 215.97 277.102 215.94 273.401C215.97 269.699 217.644 267.819 220.993 267.79ZM220.963 275.692C222.138 275.692 222.726 274.928 222.755 273.401C222.755 271.873 222.168 271.109 220.993 271.109C219.788 271.109 219.201 271.873 219.201 273.401C219.201 274.928 219.788 275.692 220.963 275.692Z" fill="#357EE7"/>
<circle cx="196.837" cy="408.644" r="39.4718" fill="#357EE7"/>
<mask id="mask0_4940_33035" style="mask-type:alpha" maskUnits="userSpaceOnUse" x="170" y="382" width="54" height="53">
<rect x="170.522" y="382.33" width="52.6291" height="52.6291" fill="white"/>
</mask>
<g mask="url(#mask0_4940_33035)">
<path d="M196.837 412.001C195.01 412.001 193.456 411.363 192.177 410.087C190.898 408.812 190.258 407.263 190.258 405.441V392.32C190.258 390.498 190.898 388.949 192.177 387.673C193.456 386.398 195.01 385.76 196.837 385.76C198.664 385.76 200.218 386.398 201.497 387.673C202.776 388.949 203.416 390.498 203.416 392.32V405.441C203.416 407.263 202.776 408.812 201.497 410.087C200.218 411.363 198.664 412.001 196.837 412.001ZM194.644 427.308V420.584C190.843 420.074 187.7 418.379 185.215 415.5C182.729 412.62 181.487 409.267 181.487 405.441H185.873C185.873 408.466 186.942 411.044 189.08 413.176C191.218 415.308 193.803 416.374 196.837 416.374C199.87 416.374 202.456 415.308 204.594 413.176C206.732 411.044 207.801 408.466 207.801 405.441H212.187C212.187 409.267 210.944 412.62 208.459 415.5C205.974 418.379 202.831 420.074 199.03 420.584V427.308H194.644ZM196.837 407.627C197.458 407.627 197.979 407.418 198.399 406.999C198.82 406.579 199.03 406.06 199.03 405.441V392.32C199.03 391.7 198.82 391.181 198.399 390.762C197.979 390.343 197.458 390.133 196.837 390.133C196.216 390.133 195.695 390.343 195.275 390.762C194.854 391.181 194.644 391.7 194.644 392.32V405.441C194.644 406.06 194.854 406.579 195.275 406.999C195.695 407.418 196.216 407.627 196.837 407.627Z" fill="white"/>
</g>
<path d="M133.623 466.824V474.128H128.365V466.824H133.623ZM129.532 467.765V473.161H132.443V467.765H129.532ZM136.698 465.707V470.112H138.505V471.116H136.698V476.952H135.506V465.707H136.698ZM148.1 465.707V476.977H146.908V465.707H148.1ZM142.088 466.548C143.758 466.548 144.987 468.079 144.987 470.488C144.987 472.91 143.758 474.442 142.088 474.442C140.394 474.442 139.177 472.91 139.177 470.488C139.177 468.079 140.394 466.548 142.088 466.548ZM142.088 467.614C141.047 467.614 140.331 468.719 140.331 470.488C140.331 472.27 141.047 473.375 142.088 473.375C143.117 473.375 143.833 472.27 143.833 470.488C143.833 468.719 143.117 467.614 142.088 467.614ZM158.686 466.799V468.166C158.686 469.811 158.686 471.354 158.197 473.689L157.017 473.576C157.255 472.546 157.381 471.643 157.444 470.802L150.692 471.166L150.541 470.187L157.506 469.923C157.525 469.321 157.525 468.744 157.531 468.166V467.777H150.855V466.799H158.686ZM159.891 474.467V475.446H149.637V474.467H159.891ZM172.743 465.707V476.977H171.563V470.789H169.078V474.191H163.807V466.573H165.012V469.447H167.911V466.573H169.078V469.811H171.563V465.707H172.743ZM165.012 473.212H167.911V470.388H165.012V473.212ZM184.471 471.881V472.835H174.192V471.881H184.471ZM183.404 475.747V476.713H175.51V473.576H176.69V475.747H183.404ZM183.291 470.024V470.94H175.535V466.108H183.216V467.037H176.74V468.066H182.927V468.97H176.74V470.024H183.291ZM190.188 465.895C192.723 465.895 194.204 466.573 194.204 467.828C194.204 469.083 192.723 469.773 190.188 469.773C187.653 469.773 186.172 469.083 186.172 467.828C186.172 466.573 187.653 465.895 190.188 465.895ZM190.188 466.773C188.393 466.773 187.402 467.162 187.414 467.828C187.402 468.518 188.393 468.882 190.188 468.882C191.982 468.882 192.974 468.518 192.974 467.828C192.974 467.162 191.982 466.773 190.188 466.773ZM195.321 470.463V471.417H185.067V470.463H195.321ZM194.028 472.283V474.918H187.477V475.922H194.342V476.839H186.31V474.052H192.848V473.174H186.297V472.283H194.028ZM207.871 468.267V469.233H200.153V465.87H201.32V468.267H207.871ZM209.076 470.099V471.078H204.483V472.157H207.784V474.843H201.257V475.91H208.173V476.839H200.065V474.002H206.604V473.074H200.04V472.157H203.328V471.078H198.785V470.099H209.076ZM219.01 465.707V476.977H217.83V470.927H215.772V469.936H217.83V465.707H219.01ZM215.107 466.723V470.739H211.254V473.299C213.049 473.293 214.429 473.23 215.998 472.948L216.098 473.927C214.416 474.228 212.936 474.291 210.953 474.303H210.062V469.773H213.952V467.69H210.037V466.723H215.107ZM227.507 468.568C227.494 470.626 228.737 472.684 230.481 473.463L229.766 474.404C228.473 473.789 227.45 472.528 226.929 470.99C226.402 472.634 225.367 473.996 224.018 474.655L223.29 473.651C225.059 472.86 226.302 470.714 226.302 468.568V466.648H227.507V468.568ZM232.69 465.707V476.977H231.498V465.707H232.69ZM238.156 467.727C238.156 469.158 239.147 470.526 240.867 471.103L240.264 472.032C238.99 471.593 238.055 470.714 237.566 469.61C237.076 470.827 236.104 471.781 234.78 472.245L234.14 471.317C235.897 470.714 236.951 469.271 236.963 467.715V467.413H234.491V466.447H240.578V467.413H238.156V467.727ZM243.063 465.707V468.593H244.694V469.597H243.063V472.484H241.871V465.707H243.063ZM243.063 473.036V476.952H241.871V474.002H235.633V473.036H243.063ZM253.837 465.707V470.262H255.645V471.254H253.837V476.952H252.658V465.707H253.837ZM251.679 467.464V468.443H245.015V467.464H247.788V465.857H248.98V467.464H251.679ZM248.391 469.271C249.997 469.271 251.177 470.35 251.189 471.881C251.177 473.425 249.997 474.492 248.391 474.504C246.772 474.492 245.592 473.425 245.592 471.881C245.592 470.35 246.772 469.271 248.391 469.271ZM248.391 470.25C247.437 470.25 246.721 470.915 246.734 471.881C246.721 472.86 247.437 473.513 248.391 473.5C249.344 473.513 250.047 472.86 250.047 471.881C250.047 470.915 249.344 470.25 248.391 470.25ZM265.277 465.707V476.952H264.072V465.707H265.277ZM261.926 466.911C261.926 470.2 260.52 473.061 256.668 474.906L256.04 473.94C259.033 472.515 260.489 470.488 260.721 467.865H256.58V466.911H261.926Z" fill="#363635"/>
<rect x="30.6875" y="527.059" width="328.626" height="44.0615" rx="7.34359" fill="#F9BC5F"/>
<path d="M193.78 547.16C194.147 547.16 194.338 547.336 194.338 547.659V548.849C194.338 549.26 194.147 549.451 193.765 549.451H193.001V557.191C193.001 557.603 192.796 557.794 192.384 557.794H191.239C190.842 557.794 190.651 557.617 190.651 557.235V556.81C187.758 557.25 185.393 557.485 183.543 557.485C183.073 557.485 182.838 557.25 182.838 556.78V544.032C182.838 543.635 183.043 543.429 183.455 543.429H188.918C189.3 543.429 189.506 543.62 189.506 543.988V544.942C189.506 545.324 189.3 545.515 188.889 545.515H185.085V555.37C187.024 555.37 188.874 555.135 190.651 554.695V543.664C190.651 543.312 190.827 543.136 191.195 543.136H192.399C192.796 543.136 193.001 543.312 193.001 543.664V547.16H193.78ZM200.8 542.989C204.443 542.989 206.264 544.134 206.264 546.411C206.235 548.555 204.413 549.627 200.786 549.627C197.173 549.613 195.366 548.541 195.381 546.411C195.396 544.134 197.202 542.989 200.8 542.989ZM200.786 547.63C202.93 547.63 204.002 547.233 204.002 546.411C204.002 545.471 202.93 545.001 200.8 545.001C198.685 545.001 197.643 545.471 197.643 546.411C197.643 547.233 198.685 547.63 200.786 547.63ZM205.677 550.127C206.058 550.127 206.264 550.347 206.264 550.773V551.698C206.264 552.066 206.073 552.256 205.721 552.271H195.983C195.572 552.271 195.366 552.066 195.366 551.625V550.773C195.366 550.347 195.572 550.127 196.012 550.127H205.677ZM205.677 553.006C206.058 553.006 206.264 553.182 206.264 553.52V557.118C206.264 557.559 206.058 557.779 205.647 557.779H196.056C195.601 557.779 195.381 557.603 195.381 557.235V553.564C195.381 553.196 195.586 553.006 196.027 553.006H205.677ZM197.628 555.825H203.988V554.944H197.628V555.825Z" fill="#543403"/>
<path opacity="0.9" fill-rule="evenodd" clip-rule="evenodd" d="M16 -159.564H374V615.184H16V-159.564ZM88.518 211.288C88.518 203.176 95.0937 196.6 103.205 196.6H283.123C291.235 196.6 297.81 203.176 297.81 211.288V289.313C297.81 297.425 291.235 304 283.123 304H103.205C95.0937 304 88.518 297.425 88.518 289.313V211.288ZM38.0311 527.061C33.9754 527.061 30.6875 530.348 30.6875 534.404V563.779C30.6875 567.834 33.9754 571.122 38.0311 571.122H351.97C356.025 571.122 359.313 567.834 359.313 563.779V534.404C359.313 530.348 356.025 527.061 351.97 527.061H38.0311Z" fill="black" fill-opacity="0.9"/>
<rect x="212.461" y="62" width="27.5385" height="27.5385" rx="13.7692" fill="#F7A62C"/>
<path d="M226.224 80.4062C224.105 80.4062 222.601 79.2578 222.56 77.5898H224.351C224.406 78.3828 225.199 78.9023 226.224 78.9023C227.318 78.9023 228.097 78.3008 228.097 77.4258C228.097 76.5371 227.331 75.8945 226.046 75.8945H225.158V74.5273H226.046C227.099 74.5273 227.837 73.9395 227.824 73.0781C227.837 72.2441 227.208 71.6836 226.238 71.6836C225.308 71.6836 224.501 72.2031 224.474 73.0371H222.765C222.806 71.3691 224.31 70.2344 226.251 70.2344C228.261 70.2344 229.56 71.4648 229.546 72.9824C229.56 74.0898 228.822 74.8965 227.741 75.1152V75.1973C229.136 75.3887 229.929 76.2773 229.915 77.5215C229.929 79.1895 228.37 80.4062 226.224 80.4062Z" fill="#543403"/>
<path d="M119.903 108.734V110.088H115.174V112.074H121.538V113.41H107.159V112.074H113.504V110.088H109.057V104.779H110.709V108.734H119.903ZM119.762 114.904V120.213H118.075V116.258H108.811V114.904H119.762ZM129.527 104.797C132.99 104.797 135.152 105.922 135.152 107.82C135.152 109.684 132.99 110.791 129.527 110.791C126.082 110.791 123.902 109.684 123.902 107.82C123.902 105.922 126.082 104.797 129.527 104.797ZM129.527 106.115C127.101 106.115 125.607 106.73 125.625 107.82C125.607 108.875 127.101 109.473 129.527 109.49C131.935 109.473 133.429 108.875 133.429 107.82C133.429 106.73 131.935 106.115 129.527 106.115ZM134.959 114.764V120.02H124.078V114.764H134.959ZM125.73 116.1V118.666H133.342V116.1H125.73ZM136.717 112.004V113.357H122.355V112.004H136.717ZM144.724 104.727C148.275 104.727 150.349 105.676 150.349 107.434C150.349 109.191 148.275 110.158 144.724 110.158C141.173 110.158 139.099 109.191 139.099 107.434C139.099 105.676 141.173 104.727 144.724 104.727ZM144.724 105.957C142.21 105.957 140.821 106.502 140.839 107.434C140.821 108.4 142.21 108.91 144.724 108.91C147.237 108.91 148.626 108.4 148.626 107.434C148.626 106.502 147.237 105.957 144.724 105.957ZM151.913 111.125V112.461H137.552V111.125H151.913ZM150.103 113.674V117.365H140.927V118.771H150.542V120.055H139.292V116.152H148.45V114.922H139.275V113.674H150.103ZM108.512 131.463V140.832H106.842V136.842H103.907V135.471H106.842V131.463H108.512ZM103.239 141.271C106.543 141.271 108.565 142.361 108.565 144.242C108.565 146.123 106.543 147.195 103.239 147.213C99.934 147.195 97.8949 146.123 97.9125 144.242C97.8949 142.361 99.934 141.271 103.239 141.271ZM103.239 142.572C100.936 142.572 99.5648 143.17 99.5648 144.242C99.5648 145.297 100.936 145.912 103.239 145.895C105.541 145.912 106.913 145.297 106.913 144.242C106.913 143.17 105.541 142.572 103.239 142.572ZM101.024 134.24C101.024 136.244 102.448 138.178 104.821 138.986L103.959 140.305C102.193 139.689 100.892 138.433 100.215 136.877C99.5209 138.644 98.141 140.059 96.2602 140.744L95.3813 139.408C97.8246 138.564 99.3188 136.438 99.3188 134.258V133.906H95.9086V132.553H104.399V133.906H101.024V134.24ZM122.97 131.48V136.156H125.22V137.527H122.97V142.08H121.301V131.48H122.97ZM110.472 140.322C111.694 140.322 113.109 140.322 114.586 140.27V139.215C112.793 139.03 111.65 138.187 111.668 136.912C111.65 135.471 113.144 134.574 115.412 134.592C117.662 134.574 119.156 135.471 119.156 136.912C119.156 138.178 118.031 139.021 116.256 139.215V140.217C117.662 140.146 119.086 140.032 120.404 139.848L120.545 141.043C117.152 141.641 113.426 141.658 110.648 141.658L110.472 140.322ZM122.97 142.818V147.213H121.301V144.119H112.441V142.818H122.97ZM119.965 132.816V134.064H110.877V132.816H114.586V131.34H116.256V132.816H119.965ZM115.412 135.734C114.058 135.717 113.25 136.156 113.25 136.912C113.25 137.65 114.058 138.125 115.412 138.125C116.748 138.125 117.556 137.65 117.556 136.912C117.556 136.156 116.748 135.717 115.412 135.734ZM138.536 138.723V140.059H133.773V143.908H140.189V145.279H125.775V143.908H132.12V140.059H127.568V132.676H138.396V134.029H129.237V138.723H138.536ZM153.241 131.463V137.738H155.684V139.127H153.241V147.195H151.571V131.463H153.241ZM149.127 133.115C149.11 137.668 147.106 141.729 141.92 144.295L140.989 142.994C144.935 141.025 147.08 138.178 147.422 134.504H141.78V133.115H149.127ZM174.915 137.65V139.021H172.472V147.195H170.802V131.463H172.472V137.65H174.915ZM162.452 132.992V141.852C164.65 141.852 166.944 141.667 169.448 141.148L169.642 142.555C166.952 143.1 164.456 143.24 162.101 143.24H160.8V132.992H162.452ZM189.76 139.76V141.131H175.399V139.76H181.745V138.23C178.792 138.063 176.946 136.921 176.946 135.066C176.946 133.115 179.143 131.92 182.571 131.902C185.981 131.92 188.196 133.115 188.196 135.066C188.196 136.921 186.333 138.063 183.397 138.23V139.76H189.76ZM188.143 145.525V146.879H177.21V142.309H178.897V145.525H188.143ZM182.571 133.256C180.163 133.256 178.651 133.941 178.669 135.066C178.651 136.262 180.163 136.912 182.571 136.912C184.979 136.912 186.473 136.262 186.473 135.066C186.473 133.941 184.979 133.256 182.571 133.256ZM202.865 131.463V137.562H205.396V138.934H202.865V147.248H201.195V131.463H202.865ZM198.629 132.975V134.328H192.934V141.939C195.579 141.931 197.565 141.816 199.807 141.412L200.018 142.818C197.557 143.258 195.465 143.346 192.529 143.328H191.264V132.975H198.629ZM223.608 131.445V147.195H221.991V139.074H220.268V146.457H218.704V131.779H220.268V137.703H221.991V131.445H223.608ZM213.747 133.361C213.747 136.824 213.29 140.375 211.092 143.381L209.774 142.59C211.593 140.234 212.191 137.606 212.323 134.715H210.178V133.361H213.747ZM217.473 133.361C217.473 136.842 217.192 141.096 214.837 144.418L213.483 143.662C215.505 140.99 215.926 137.738 216.014 134.715H214.256V133.361H217.473ZM238.066 131.463V147.248H236.396V131.463H238.066ZM227.572 132.781V136.824H231.809V132.781H233.461V143.469H225.902V132.781H227.572ZM227.572 142.098H231.809V138.143H227.572V142.098ZM163.621 159.852V167.199H156.256V159.852H163.621ZM157.89 161.205V165.881H161.986V161.205H157.89ZM168.015 158.445V163.156H170.301V164.562H168.015V169.994H166.346V158.445H168.015ZM168.683 172.525V173.879H158.031V168.887H159.701V172.525H168.683ZM187.967 158.463V174.213H186.28V158.463H187.967ZM183.274 160.15C183.274 164.756 181.305 168.764 175.909 171.348L175.03 169.994C179.222 167.999 181.261 165.16 181.586 161.486H175.786V160.15H183.274ZM202.338 158.463V164.562H204.869V165.934H202.338V174.248H200.668V158.463H202.338ZM198.101 159.975V161.328H192.406V168.939C195.052 168.931 197.038 168.816 199.279 168.412L199.49 169.818C197.029 170.258 194.937 170.346 192.002 170.328H190.736V159.975H198.101ZM218.378 158.463V174.248H216.726V167.656H213.65V166.268H216.726V163.35H213.738V161.979H216.726V158.463H218.378ZM212.788 159.852V165.6H207.515V169.221C209.747 169.212 211.611 169.106 213.861 168.781L214.001 170.152C211.54 170.539 209.536 170.609 207.04 170.609H205.845V164.281H211.154V161.205H205.81V159.852H212.788ZM222.958 159.746V162.014H227.563V159.746H229.215V166.883H226.087V169.572C227.466 169.511 228.846 169.405 230.13 169.238L230.253 170.469C226.93 171.014 223.256 171.066 220.532 171.066L220.268 169.678C221.507 169.669 222.949 169.669 224.434 169.625V166.883H221.288V159.746H222.958ZM222.958 165.547H227.563V163.279H222.958V165.547ZM232.749 158.463V164.967H235.174V166.373H232.749V174.213H231.079V158.463H232.749ZM238.559 159.992L238.4 169.045H236.66L236.502 159.992H238.559ZM237.539 172.842C236.854 172.842 236.273 172.279 236.291 171.594C236.273 170.908 236.854 170.346 237.539 170.346C238.207 170.346 238.787 170.908 238.787 171.594C238.787 172.279 238.207 172.842 237.539 172.842Z" fill="white"/>
<path d="M169.176 104.34V110.281H171.531V112.109H169.176V120.371H166.926V104.34H169.176ZM164.693 105.816V107.627H159.42V114.641C161.74 114.614 163.656 114.509 165.783 114.131L166.029 116.012C163.551 116.434 161.371 116.504 158.541 116.486H157.187V105.816H164.693ZM188.161 104.34V110.598H190.516V112.443H188.161V120.336H185.946V104.34H188.161ZM184.856 106.73V108.523H175.452V106.73H179.073V104.586H181.323V106.73H184.856ZM180.198 109.42C182.536 109.42 184.276 111.002 184.276 113.234C184.276 115.467 182.536 117.049 180.198 117.049C177.842 117.049 176.102 115.467 176.102 113.234C176.102 111.002 177.842 109.42 180.198 109.42ZM180.198 111.23C179.073 111.248 178.247 112.004 178.247 113.234C178.247 114.482 179.073 115.221 180.198 115.203C181.323 115.221 182.131 114.482 182.131 113.234C182.131 112.004 181.323 111.248 180.198 111.23ZM203.92 105.729V107.24C203.92 109.244 203.92 111.494 203.269 114.887L201.019 114.658C201.626 111.635 201.652 109.385 201.67 107.504H192.248V105.729H203.92ZM205.326 116.557V118.385H190.736V116.557H195.957V111.055H198.189V116.557H205.326ZM224.61 110.404V112.232H222.342V120.301H220.092V104.34H222.342V110.404H224.61ZM212.464 105.869V114.535C214.511 114.509 216.709 114.315 219.02 113.85L219.249 115.713C216.577 116.258 213.975 116.398 211.62 116.398H210.231V105.869H212.464ZM233.18 105.641V106.854H236.168V104.357H238.4V115.994H236.168V112.074H233.18V113.428H225.586V105.641H233.18ZM227.818 107.416V111.688H230.982V107.416H227.818ZM238.734 118.262V120.055H227.748V114.887H230.016V118.262H238.734ZM233.18 110.299H236.168V108.664H233.18V110.299ZM108.67 159.992V172.719H106.015V162.506H105.945L103.027 164.334V161.996L106.174 159.992H108.67ZM115.719 165.74C116.317 165.107 117.073 164.773 117.899 164.773C119.34 164.773 120.571 165.775 122.012 165.775C122.821 165.775 123.559 165.441 124.139 164.809V166.953C123.541 167.586 122.786 167.92 121.959 167.92C120.518 167.92 119.288 166.918 117.846 166.918C117.038 166.918 116.299 167.252 115.719 167.885V165.74ZM130.239 172.719L130.222 170.803L134.792 166.602C135.987 165.459 136.62 164.756 136.62 163.754C136.62 162.629 135.759 161.926 134.599 161.926C133.403 161.926 132.63 162.682 132.63 163.895H130.116C130.099 161.398 131.944 159.816 134.634 159.816C137.359 159.816 139.169 161.363 139.169 163.578C139.169 165.02 138.466 166.215 135.847 168.588L133.913 170.469V170.539H139.345V172.719H130.239ZM154.981 170.68V172.508H140.338V170.68H146.526V167.551H148.758V170.68H154.981ZM153.698 160.537V162.33H148.811C148.996 164.105 150.806 165.907 154.454 166.355L153.645 168.096C150.78 167.735 148.714 166.549 147.651 164.896C146.57 166.549 144.522 167.735 141.657 168.096L140.831 166.355C144.478 165.907 146.289 164.105 146.491 162.33H141.604V160.537H146.526V158.533H148.758V160.537H153.698Z" fill="#F9BC5F"/>
<path d="M273.026 176.442L273.944 176.442L273.944 176.442L273.026 176.442ZM247.099 163.896C246.76 164.273 246.792 164.854 247.169 165.192L253.321 170.707C253.698 171.045 254.279 171.014 254.617 170.636C254.955 170.259 254.924 169.678 254.546 169.34L249.078 164.438L253.981 158.97C254.319 158.593 254.287 158.012 253.91 157.674C253.532 157.335 252.952 157.367 252.614 157.744L247.099 163.896ZM273.944 197.096L273.944 176.442L272.108 176.442L272.108 197.096L273.944 197.096ZM273.944 176.442C273.944 172.768 272.18 170.104 269.626 168.223C267.106 166.368 263.803 165.257 260.592 164.585C257.367 163.911 254.154 163.664 251.757 163.584C250.556 163.544 249.555 163.546 248.851 163.558C248.5 163.563 248.222 163.572 248.032 163.579C247.937 163.583 247.863 163.586 247.812 163.588C247.787 163.589 247.768 163.59 247.754 163.591C247.748 163.591 247.742 163.591 247.739 163.592C247.737 163.592 247.735 163.592 247.734 163.592C247.734 163.592 247.733 163.592 247.733 163.592C247.733 163.592 247.732 163.592 247.782 164.509C247.832 165.425 247.832 165.425 247.832 165.425C247.832 165.425 247.832 165.425 247.832 165.425C247.833 165.425 247.834 165.425 247.835 165.425C247.837 165.425 247.841 165.425 247.847 165.424C247.858 165.424 247.874 165.423 247.897 165.422C247.942 165.42 248.01 165.417 248.1 165.414C248.279 165.407 248.544 165.399 248.882 165.393C249.56 165.382 250.53 165.38 251.696 165.419C254.032 165.497 257.13 165.737 260.216 166.382C263.316 167.03 266.324 168.071 268.537 169.701C270.716 171.306 272.108 173.46 272.108 176.442L273.944 176.442Z" fill="white"/>
<rect x="223" y="390" width="27.5385" height="27.5385" rx="13.7692" fill="#F7A62C"/>
<path d="M232.893 406.424V405.002L237.173 398.371H239.387V404.961H240.686V406.424H239.387V408.27H237.692V406.424H232.893ZM234.712 404.961H237.72V400.395H237.61L234.712 404.893V404.961Z" fill="#543403"/>
<path d="M235.85 430.627V436.727H238.381V438.098H235.85V446.412H234.18V430.627H235.85ZM231.613 432.139V433.492H225.918V441.104C228.563 441.095 230.55 440.98 232.791 440.576L233.002 441.982C230.541 442.422 228.449 442.51 225.514 442.492H224.248V432.139H231.613ZM255.38 431.26V432.244C255.362 433.229 255.362 434.459 255.081 435.988L253.428 435.848C253.675 434.494 253.71 433.492 253.71 432.596H244.499V431.26H255.38ZM257.155 436.797V438.115H242.829V436.797H248.577V434.195H250.212V436.797H257.155ZM255.415 439.416V443.318H246.186V444.883H255.819V446.219H244.516V442.158H253.762V440.77H244.499V439.416H255.415ZM270.383 430.645V434.406H272.686V435.795H270.383V439.838H268.713V430.645H270.383ZM263.299 441.016C263.299 442.378 263.967 443.811 265.408 444.672C266.841 443.74 267.535 442.211 267.535 441.016V440.383H269.17V441.016C269.17 442.668 270.242 444.25 272.299 444.936L271.455 446.184C269.926 445.621 268.871 444.566 268.344 443.266C267.834 444.54 266.885 445.727 265.426 446.324C263.923 445.744 262.974 444.628 262.49 443.336C261.919 444.575 260.882 445.63 259.414 446.184L258.588 444.936C260.592 444.215 261.699 442.545 261.699 441.016V440.383H263.299V441.016ZM265.813 431.4V435.83H260.328V437.711C263.325 437.72 265.171 437.605 267.289 437.201L267.465 438.59C265.162 438.994 263.229 439.082 259.924 439.082H258.658V434.529H264.178V432.771H258.641V431.4H265.813ZM280.376 431.576C283.681 431.576 286.195 433.316 286.195 435.971C286.195 438.625 283.681 440.383 280.376 440.365C277.072 440.383 274.576 438.625 274.576 435.971C274.576 433.316 277.072 431.576 280.376 431.576ZM280.376 432.93C277.968 432.912 276.158 434.143 276.175 435.971C276.158 437.816 277.968 438.994 280.376 438.994C282.785 438.994 284.578 437.816 284.578 435.971C284.578 434.143 282.785 432.912 280.376 432.93ZM287.619 442.949V444.338H273.205V442.949H287.619ZM296.434 431.963V433.299H299.862V430.645H301.532V442.123H299.862V438.045H296.434V439.416H289.122V431.963H296.434ZM290.774 433.316V438.098H294.8V433.316H290.774ZM301.884 444.689V446.043H291.249V441.068H292.936V444.689H301.884ZM296.434 436.674H299.862V434.67H296.434V436.674ZM317.819 469.984V471.602H303.299V469.984H309.557V467.4H305.022V462.197H314.162V460.229H304.986V458.646H316.096V463.744H306.973V465.801H316.465V467.4H311.49V469.984H317.819ZM236.834 494.348V500.254H226.34V494.348H236.834ZM228.256 495.912V498.672H234.918V495.912H228.256ZM226.375 485.436V491.271C228.502 491.245 230.567 491.087 232.773 490.656L232.984 492.291C230.488 492.801 228.186 492.924 225.725 492.924H224.441V485.436H226.375ZM236.834 484.557V493.662H234.883V488.934H230.734V487.352H234.883V484.557H236.834ZM243.066 485.717C245.219 485.717 246.81 487.51 247.091 490.41H250.115V484.557H252.048V500.465H250.115V491.992H247.109C246.898 495.06 245.281 496.949 243.066 496.949C240.675 496.949 238.988 494.787 238.988 491.324C238.988 487.896 240.675 485.717 243.066 485.717ZM243.066 487.475C241.747 487.475 240.851 488.898 240.869 491.324C240.851 493.768 241.747 495.191 243.066 495.191C244.384 495.191 245.263 493.768 245.281 491.324C245.263 488.898 244.384 487.475 243.066 487.475ZM266.366 484.557V490.762H268.721V492.396H266.366V500.412H264.415V484.557H266.366ZM262.165 486.209C262.165 490.885 260.231 494.98 254.94 497.582L253.833 496.07C257.7 494.146 259.792 491.438 260.196 487.826H254.694V486.209H262.165ZM277.274 485.893V487.158H280.473V484.574H282.424V496.141H280.473V492.133H277.274V493.504H269.803V485.893H277.274ZM271.754 487.439V491.975H275.34V487.439H271.754ZM282.775 498.549V500.131H271.947V495.068H273.934V498.549H282.775ZM277.274 490.568H280.473V488.758H277.274V490.568ZM297.471 489.549V491.113H294.518V492.906C295.846 492.854 297.164 492.766 298.403 492.643L298.544 494.049C295.169 494.523 291.512 494.611 288.559 494.611L288.296 493.047C289.605 493.038 291.055 493.029 292.55 492.977V491.113H289.667V485.541H297.348V487.123H291.636V489.549H297.471ZM301.479 484.557V496.492H299.511V484.557H301.479ZM301.936 498.549V500.131H290.827V495.613H292.796V498.549H301.936ZM315.867 484.557V490.586H318.311V492.186H315.867V500.465H313.916V484.557H315.867ZM311.508 486.068V487.65H306.024V494.945C308.493 494.945 310.444 494.822 312.633 494.436L312.861 496.088C310.401 496.51 308.256 496.58 305.391 496.58H304.072V486.068H311.508ZM336.522 484.539V500.43H334.641V492.309H333.147V499.709H331.319V484.855H333.147V490.727H334.641V484.539H336.522ZM326.468 486.455C326.468 490.129 326.028 493.627 323.901 496.65L322.372 495.754C324.086 493.416 324.675 490.964 324.815 488.02H322.864V486.455H326.468ZM330.229 486.455C330.229 490.217 329.931 494.312 327.663 497.635L326.116 496.791C328.015 494.128 328.445 491.157 328.524 488.02H326.96V486.455H330.229ZM350.946 484.557V500.465H348.977V484.557H350.946ZM340.522 485.857V489.83H344.371V485.857H346.305V496.721H338.571V485.857H340.522ZM340.522 495.121H344.371V491.359H340.522V495.121Z" fill="white"/>
<path d="M236.096 457.504V463.445H238.451V465.273H236.096V473.535H233.846V457.504H236.096ZM231.613 458.98V460.791H226.34V467.805C228.66 467.778 230.576 467.673 232.703 467.295L232.949 469.176C230.471 469.598 228.291 469.668 225.461 469.65H224.107V458.98H231.613ZM245.966 457.803C249.517 457.803 251.767 458.98 251.785 460.932C251.767 462.865 249.517 464.043 245.966 464.025C242.433 464.043 240.13 462.865 240.13 460.932C240.13 458.98 242.433 457.803 245.966 457.803ZM245.966 459.543C243.734 459.543 242.451 460.018 242.468 460.932C242.451 461.828 243.734 462.285 245.966 462.285C248.181 462.285 249.464 461.828 249.464 460.932C249.464 460.018 248.181 459.543 245.966 459.543ZM251.521 467.875V473.324H240.359V467.875H251.521ZM242.574 469.65V471.531H249.324V469.65H242.574ZM253.261 464.957V466.75H238.671V464.957H253.261ZM271.649 457.504V473.5H269.486V457.504H271.649ZM268.414 457.82V472.744H266.287V465.326H264.74V463.322H266.287V457.82H268.414ZM265.109 459.314V461.125H264.09V467.77C264.538 467.734 264.969 467.69 265.373 467.629L265.531 469.246C263 469.791 259.731 469.844 257.727 469.844L257.481 467.998H258.816V461.125H257.779V459.314H265.109ZM260.803 467.963L262.051 467.91V461.125H260.803V467.963ZM286.248 457.504V473.535H283.98V457.504H286.248ZM277.564 458.629C279.972 458.629 281.765 460.844 281.765 464.324C281.765 467.84 279.972 470.037 277.564 470.037C275.103 470.037 273.31 467.84 273.328 464.324C273.31 460.844 275.103 458.629 277.564 458.629ZM277.564 460.65C276.316 460.65 275.49 461.951 275.49 464.324C275.49 466.715 276.316 467.998 277.564 467.998C278.777 467.998 279.603 466.715 279.603 464.324C279.603 461.951 278.777 460.65 277.564 460.65ZM294.255 461.863C294.255 464.447 295.573 467.207 298.262 468.332L297.05 470.09C295.16 469.29 293.859 467.699 293.147 465.748C292.418 467.866 291.091 469.624 289.21 470.494L287.927 468.719C290.581 467.541 291.952 464.57 291.952 461.863V460.879H288.559V459.051H297.595V460.879H294.255V461.863ZM301.444 457.504V473.5H299.177V457.504H301.444Z" fill="#F9BC5F"/>
<path d="M185.821 504.11L184.903 504.11L184.903 504.11L185.821 504.11ZM208.563 494.351C208.883 494.744 208.824 495.322 208.431 495.642L202.026 500.859C201.632 501.18 201.054 501.12 200.734 500.727C200.414 500.334 200.473 499.756 200.866 499.436L206.56 494.798L201.923 489.104C201.602 488.711 201.662 488.133 202.055 487.813C202.448 487.493 203.026 487.552 203.346 487.945L208.563 494.351ZM184.903 527.518L184.903 504.11L186.739 504.11L186.739 527.518L184.903 527.518ZM184.903 504.11C184.903 500.894 186.479 498.627 188.749 497.092C190.977 495.586 193.885 494.768 196.694 494.326C199.518 493.882 202.328 493.806 204.424 493.839C205.474 493.856 206.35 493.9 206.965 493.94C207.272 493.96 207.515 493.979 207.682 493.993C207.765 494 207.83 494.006 207.874 494.01C207.896 494.012 207.913 494.014 207.925 494.015C207.931 494.016 207.936 494.016 207.939 494.017C207.941 494.017 207.942 494.017 207.943 494.017C207.943 494.017 207.944 494.017 207.944 494.017C207.945 494.017 207.945 494.017 207.852 494.93C207.758 495.844 207.758 495.844 207.758 495.844C207.758 495.844 207.758 495.844 207.758 495.844C207.758 495.844 207.757 495.843 207.756 495.843C207.754 495.843 207.751 495.843 207.746 495.842C207.737 495.841 207.722 495.84 207.703 495.838C207.663 495.835 207.604 495.829 207.526 495.823C207.371 495.809 207.14 495.791 206.845 495.772C206.255 495.733 205.41 495.691 204.395 495.675C202.359 495.643 199.662 495.718 196.979 496.14C194.279 496.564 191.68 497.327 189.777 498.613C187.917 499.871 186.739 501.61 186.739 504.11L184.903 504.11Z" fill="white"/>
</g>
<circle cx="6" cy="6" r="6" transform="matrix(-1 0 0 1 191 759)" fill="#F7A62C" fill-opacity="0.4"/>
<circle cx="6" cy="6" r="6" transform="matrix(-1 0 0 1 211 759)" fill="#F7A62C"/>
<defs>
<clipPath id="clip0_4940_33035">
<rect width="358" height="570" fill="white" transform="translate(16 44)"/>
</clipPath>
</defs>
</svg>
