<svg width="390" height="844" viewBox="0 0 390 844" fill="none" xmlns="http://www.w3.org/2000/svg">
<g clip-path="url(#clip0_3539_11634)">
<rect width="390" height="844" fill="#FBFBFC"/>
<path fill-rule="evenodd" clip-rule="evenodd" d="M31.717 62.2742C31.3254 61.8826 30.6905 61.8826 30.2989 62.2742L24.2824 68.2907C23.8908 68.6823 23.8908 69.3172 24.2824 69.7088L30.2989 75.7253C30.6905 76.1169 31.3254 76.1169 31.717 75.7253C32.1086 75.3337 32.1086 74.6988 31.717 74.3072L26.4096 68.9998L31.717 63.6923C32.1086 63.3007 32.1086 62.6658 31.717 62.2742Z" fill="#504F4E"/>
<mask id="path-2-inside-1_3539_11634" fill="white">
<path d="M148 56H242V82H148V56Z"/>
</mask>
<path d="M242 74H148V90H242V74Z" fill="#FBD498" mask="url(#path-2-inside-1_3539_11634)"/>
<path d="M165.07 66.7617V68.793H162.551V77.7578H160.051V60.0234H162.551V66.7617H165.07ZM151.574 61.7227V71.3516C153.85 71.3223 156.291 71.1074 158.859 70.5898L159.113 72.6602C156.145 73.2656 153.254 73.4219 150.637 73.4219H149.094V61.7227H151.574ZM170.198 61.2734C172.913 61.2734 174.866 63.7344 174.885 67.6016C174.866 71.5078 172.913 73.9492 170.198 73.9492C167.483 73.9492 165.491 71.5078 165.51 67.6016C165.491 63.7344 167.483 61.2734 170.198 61.2734ZM170.198 63.5195C168.83 63.5195 167.913 64.9648 167.913 67.6016C167.913 70.2578 168.83 71.6836 170.198 71.6836C171.584 71.6836 172.483 70.2578 172.502 67.6016C172.483 64.9648 171.584 63.5195 170.198 63.5195ZM181.955 64.1445V66.2344H179.436V69.3984H181.955V71.4297H179.436V77.7969H176.936V60.0234H179.436V64.1445H181.955ZM186.048 74.5547L184.368 80.1211H182.298L183.274 74.5547H186.048ZM194.213 60.8242V62.9336H197.845V60.8242H200.345V68.5781H191.732V60.8242H194.213ZM194.213 66.625H197.845V64.8086H194.213V66.625ZM205.306 60.0234V63.4805H207.709V65.4922H205.306V69.0664H202.806V60.0234H205.306ZM205.306 69.7305V74.5547H195.99V75.707H205.814V77.6797H193.548V72.7773H202.826V71.6641H193.509V69.7305H205.306ZM216.195 60.3555C220.141 60.3555 222.641 61.6641 222.66 63.832C222.641 65.9805 220.141 67.2891 216.195 67.2695C212.27 67.2891 209.711 65.9805 209.711 63.832C209.711 61.6641 212.27 60.3555 216.195 60.3555ZM216.195 62.2891C213.715 62.2891 212.289 62.8164 212.309 63.832C212.289 64.8281 213.715 65.3359 216.195 65.3359C218.656 65.3359 220.082 64.8281 220.082 63.832C220.082 62.8164 218.656 62.2891 216.195 62.2891ZM222.367 71.5469V77.6016H209.965V71.5469H222.367ZM212.426 73.5195V75.6094H219.926V73.5195H212.426ZM224.301 68.3047V70.2969H208.09V68.3047H224.301ZM239.194 60.043V64.5547H241.459V66.625H239.194V71.1953H236.694V60.043H239.194ZM233.198 71.4102C236.948 71.4102 239.252 72.582 239.252 74.6328C239.252 76.5859 236.948 77.7969 233.198 77.7969C229.448 77.7969 227.123 76.5859 227.123 74.6328C227.123 72.582 229.448 71.4102 233.198 71.4102ZM233.198 73.2852C230.854 73.3047 229.565 73.7344 229.584 74.6328C229.565 75.4727 230.854 75.9023 233.198 75.9023C235.502 75.9023 236.772 75.4727 236.791 74.6328C236.772 73.7344 235.502 73.3047 233.198 73.2852ZM224.936 68.5391C226.176 68.5391 227.612 68.5293 229.116 68.4805V67.25C227.143 66.8984 225.834 65.6387 225.854 63.9492C225.834 61.9375 227.69 60.5508 230.327 60.5508C232.944 60.5508 234.799 61.9375 234.799 63.9492C234.799 65.6094 233.53 66.8594 231.616 67.2305V68.3828C233.012 68.3145 234.409 68.207 235.698 68.0312L235.912 69.75C232.26 70.3945 228.198 70.4531 225.19 70.4531L224.936 68.5391ZM230.327 62.4062C229.018 62.4062 228.159 62.9531 228.178 63.9492C228.159 64.9648 229.018 65.5508 230.327 65.5508C231.596 65.5508 232.455 64.9648 232.455 63.9492C232.455 62.9531 231.596 62.4062 230.327 62.4062Z" fill="#855205"/>
<rect x="16" y="110" width="358" height="14" fill="#FDEACE"/>
<path d="M16 110H69C72.866 110 76 113.134 76 117C76 120.866 72.866 124 69 124H16V110Z" fill="#F9BC5F"/>
<rect x="159.068" y="206.119" width="92" height="32" rx="16" fill="#F9BC5F"/>
<path d="M187.445 226.619H185.654V218.457H185.599L183.289 219.934V218.307L185.736 216.721H187.445V226.619ZM199.51 224.609H197.993V220.057H195.505V222.6H189.721V216.297H191.239V218.293H194.001V216.297H195.505V218.826H197.993V215.49H199.51V224.609ZM199.784 227.59H191.362V223.707H192.907V226.359H199.784V227.59ZM194.001 221.396V219.469H191.239V221.396H194.001ZM215.302 222.873H210.531V225.143H209.027V222.873H204.009V221.656H215.302V222.873ZM213.853 220.508H205.445V216.037H213.853V220.508ZM206.921 219.318H212.349V217.227H206.921V219.318ZM214.058 227.59H205.376V224.008H206.894V226.359H214.058V227.59ZM226.479 227.836H225.03V215.477H226.479V227.836ZM223.963 227.234H222.528V221.014H220.751V219.783H222.528V215.709H223.963V227.234ZM219.657 218.854C219.657 219.578 219.746 220.273 219.923 220.938C220.106 221.604 220.384 222.208 220.757 222.75C221.136 223.292 221.607 223.725 222.172 224.049L221.27 225.17C220.714 224.837 220.242 224.393 219.855 223.837C219.468 223.276 219.162 222.632 218.939 221.902C218.716 222.691 218.404 223.393 218.003 224.008C217.601 224.618 217.118 225.102 216.553 225.457L215.624 224.322C216.198 223.976 216.676 223.513 217.059 222.935C217.447 222.356 217.731 221.718 217.914 221.021C218.1 220.319 218.194 219.596 218.194 218.854V218.033H216.047V216.803H221.653V218.033H219.657V218.854Z" fill="#504F4E"/>
<rect x="16" y="260" width="357" height="100" rx="16" fill="#FDEACE"/>
<path d="M72.5318 298.768H71.8598V307.216C71.8598 307.632 71.6358 307.84 71.1878 307.84H70.1638C69.7158 307.84 69.4918 307.632 69.4918 307.216V306.496C67.5078 306.992 65.2838 307.232 62.8038 307.232C62.4518 307.232 62.2758 307.072 62.2758 306.752V292.768C62.2758 292.384 62.4998 292.176 62.9638 292.176H64.0998C64.5158 292.176 64.7398 292.384 64.7398 292.784V304.768C66.2438 304.768 67.8278 304.576 69.4918 304.16V292.448C69.4918 292.08 69.6838 291.888 70.0998 291.888H71.2038C71.6358 291.888 71.8598 292.08 71.8598 292.464V296.272H72.5318V292.448C72.5318 292.08 72.7238 291.888 73.1398 291.888H74.2598C74.6758 291.888 74.8838 292.08 74.8838 292.464V307.216C74.8838 307.632 74.6598 307.84 74.2438 307.84H73.2038C72.7558 307.84 72.5318 307.632 72.5318 307.184V298.768ZM88.3278 296.272C88.7758 296.272 88.9998 296.48 88.9998 296.88V298.096C88.9998 298.544 88.7758 298.768 88.3598 298.768H87.5598V307.136C87.5598 307.616 87.3358 307.856 86.9198 307.856H85.6878C85.2398 307.856 85.0158 307.632 85.0158 307.168V292.448C85.0158 292.08 85.2078 291.888 85.6078 291.888H86.9358C87.3518 291.888 87.5598 292.08 87.5598 292.464V296.272H88.3278ZM81.1598 294.88C81.1598 294.64 81.0318 294.512 80.7758 294.512H76.9038C76.5198 294.512 76.3438 294.304 76.3438 293.872V292.896C76.3438 292.448 76.5358 292.208 76.9518 292.208H83.1438C83.6078 292.208 83.8478 292.496 83.8478 293.056C83.8798 299.568 82.3758 304.256 79.3358 307.136C79.0638 307.408 78.6318 307.536 78.0558 307.536H77.1438C76.7918 307.536 76.5838 307.44 76.5198 307.232C76.4558 307.024 76.5838 306.768 76.9038 306.48C79.7998 303.632 81.2238 299.76 81.1598 294.88ZM104.45 305.136C104.898 305.136 105.122 305.376 105.122 305.824V306.864C105.122 307.296 104.898 307.504 104.45 307.504H94.7702C94.2902 307.504 94.0502 307.28 94.0502 306.8V305.824C94.0502 305.376 94.2742 305.136 94.7382 305.136H104.45ZM104.53 292.208C104.914 292.208 105.122 292.432 105.122 292.88C105.122 296.784 104.818 300.272 104.226 303.376C104.146 303.792 103.874 303.984 103.41 303.984H102.338C102.05 303.984 101.858 303.92 101.794 303.76C101.714 303.616 101.698 303.424 101.762 303.168C102.178 300.592 102.434 297.84 102.498 294.896C102.53 294.64 102.418 294.496 102.162 294.496H94.5782C94.2262 294.496 94.0502 294.32 94.0502 293.952V292.768C94.0502 292.4 94.2262 292.208 94.5782 292.208H104.53ZM117.915 305.632C118.331 305.632 118.539 305.824 118.539 306.192V307.248C118.539 307.664 118.347 307.856 117.963 307.856H107.419C106.987 307.856 106.779 307.68 106.779 307.312V303.488C106.779 303.12 106.971 302.928 107.387 302.928H108.731C109.115 302.928 109.323 303.12 109.323 303.488V305.632H117.915ZM118.427 301.408C118.395 301.872 118.155 302.112 117.675 302.128H116.715C116.203 302.128 115.947 301.936 115.947 301.552V300.928C113.355 301.664 110.539 302.032 107.499 302.032C106.955 302.032 106.683 301.824 106.683 301.392V295.968C106.683 295.616 106.875 295.424 107.291 295.424H112.011V294.32H107.451C106.955 294.32 106.715 294.128 106.715 293.744V292.896C106.715 292.432 106.907 292.192 107.323 292.192H113.643C114.155 292.192 114.411 292.416 114.411 292.832V296.832C114.411 297.408 114.107 297.68 113.499 297.68H109.051V299.76C111.675 299.632 113.963 299.232 115.947 298.528V292.432C115.947 292.064 116.203 291.872 116.715 291.872H117.659C118.171 291.872 118.427 292.064 118.427 292.448V301.408ZM135.549 307.136C135.549 307.616 135.325 307.856 134.909 307.856H133.677C133.229 307.856 133.005 307.632 133.005 307.168V292.448C133.005 292.08 133.197 291.888 133.597 291.888H134.925C135.341 291.888 135.549 292.08 135.549 292.464V307.136ZM129.149 294.88C129.149 294.64 129.021 294.512 128.765 294.512H124.493C124.109 294.512 123.933 294.304 123.933 293.872V292.896C123.933 292.448 124.125 292.208 124.541 292.208H131.133C131.597 292.208 131.837 292.496 131.837 293.056C131.869 299.568 130.205 304.256 126.845 307.136C126.573 307.408 126.141 307.536 125.565 307.536H124.653C124.301 307.536 124.093 307.44 124.029 307.232C123.965 307.024 124.093 306.768 124.413 306.48C127.629 303.632 129.213 299.76 129.149 294.88ZM148.346 305.632C148.762 305.632 148.97 305.824 148.97 306.192V307.248C148.97 307.664 148.778 307.856 148.394 307.856H137.85C137.418 307.856 137.21 307.68 137.21 307.312V303.488C137.21 303.12 137.402 302.928 137.818 302.928H139.162C139.546 302.928 139.754 303.12 139.754 303.488V305.632H148.346ZM148.858 301.408C148.826 301.872 148.586 302.112 148.106 302.128H147.146C146.634 302.128 146.378 301.936 146.378 301.552V300.928C143.786 301.664 140.97 302.032 137.93 302.032C137.386 302.032 137.114 301.824 137.114 301.392V295.968C137.114 295.616 137.306 295.424 137.722 295.424H142.442V294.32H137.882C137.386 294.32 137.146 294.128 137.146 293.744V292.896C137.146 292.432 137.338 292.192 137.754 292.192H144.074C144.586 292.192 144.842 292.416 144.842 292.832V296.832C144.842 297.408 144.538 297.68 143.93 297.68H139.482V299.76C142.106 299.632 144.394 299.232 146.378 298.528V292.432C146.378 292.064 146.634 291.872 147.146 291.872H148.09C148.602 291.872 148.858 292.064 148.858 292.448V301.408ZM164.796 305.136C165.244 305.136 165.468 305.376 165.468 305.824V306.864C165.468 307.296 165.244 307.504 164.796 307.504H155.116C154.636 307.504 154.396 307.28 154.396 306.8V305.824C154.396 305.376 154.62 305.136 155.084 305.136H164.796ZM164.876 292.208C165.26 292.208 165.468 292.432 165.468 292.88C165.468 296.784 165.164 300.272 164.572 303.376C164.492 303.792 164.22 303.984 163.756 303.984H162.684C162.396 303.984 162.204 303.92 162.14 303.76C162.06 303.616 162.044 303.424 162.108 303.168C162.524 300.592 162.78 297.84 162.844 294.896C162.876 294.64 162.764 294.496 162.508 294.496H154.924C154.572 294.496 154.396 294.32 154.396 293.952V292.768C154.396 292.4 154.572 292.208 154.924 292.208H164.876ZM178.773 300.832C178.757 301.296 178.517 301.536 178.053 301.552H177.077C176.565 301.552 176.309 301.36 176.309 300.976V300.256C173.653 301.056 170.837 301.456 167.845 301.456C167.285 301.456 167.013 301.248 167.013 300.816V295.76C167.013 295.408 167.205 295.216 167.605 295.216H172.309V294.336H167.781C167.269 294.336 167.029 294.144 167.029 293.76V292.912C167.029 292.448 167.221 292.208 167.637 292.208H173.941C174.453 292.208 174.709 292.432 174.709 292.848V296.512C174.709 297.088 174.405 297.36 173.813 297.36H169.365V299.248C171.973 299.12 174.293 298.688 176.309 297.92V292.432C176.309 292.064 176.565 291.872 177.077 291.872H178.021C178.517 291.872 178.773 292.064 178.773 292.448V300.832ZM178.805 307.184C178.805 307.632 178.549 307.856 178.069 307.856H167.829C167.381 307.856 167.157 307.68 167.157 307.312V302.736C167.157 302.352 167.397 302.144 167.893 302.144H178.069C178.549 302.144 178.805 302.352 178.805 302.736V307.184ZM176.309 305.904V304.16H169.637V305.936L176.309 305.904ZM181.038 302.224C180.558 302.224 180.334 302 180.334 301.52V300.496C180.334 300.048 180.542 299.824 180.974 299.824H191.55C191.966 299.84 192.19 300.032 192.19 300.416V301.52C192.19 302 191.966 302.224 191.55 302.224H181.038ZM191.55 305.504C191.966 305.504 192.19 305.696 192.19 306.064V307.216C192.19 307.648 191.982 307.856 191.598 307.856H180.942C180.542 307.856 180.35 307.664 180.35 307.264V303.584C180.35 303.168 180.558 302.96 180.99 302.96H182.222C182.638 302.96 182.862 303.168 182.862 303.568V305.504H191.55ZM186.254 291.728C187.486 291.728 188.494 291.808 189.262 291.968C190.03 292.128 190.638 292.352 191.07 292.656C191.502 292.976 191.79 293.36 191.95 293.824C192.11 294.304 192.19 294.848 192.19 295.456C192.19 296.048 192.11 296.56 191.95 296.992C191.79 297.44 191.486 297.808 191.054 298.096C190.606 298.384 189.998 298.608 189.23 298.752C188.462 298.896 187.454 298.96 186.238 298.96C185.086 298.96 184.142 298.896 183.39 298.752C182.622 298.608 182.03 298.384 181.582 298.096C181.134 297.808 180.814 297.44 180.622 296.992C180.43 296.56 180.35 296.048 180.35 295.456C180.35 294.848 180.43 294.304 180.622 293.84C180.798 293.376 181.102 292.992 181.55 292.672C181.998 292.352 182.59 292.128 183.358 291.968C184.11 291.808 185.07 291.728 186.254 291.728ZM186.238 296.784C186.91 296.784 187.47 296.768 187.918 296.704C188.366 296.656 188.718 296.576 188.99 296.464C189.262 296.352 189.454 296.208 189.566 296.048C189.678 295.888 189.742 295.68 189.742 295.456C189.742 295.2 189.678 294.976 189.566 294.784C189.438 294.592 189.246 294.432 188.974 294.304C188.702 294.176 188.35 294.08 187.902 294.016C187.454 293.952 186.894 293.92 186.254 293.92C185.598 293.92 185.054 293.952 184.622 294.016C184.174 294.08 183.822 294.176 183.566 294.304C183.294 294.432 183.102 294.592 182.99 294.784C182.862 294.976 182.814 295.2 182.814 295.456C182.814 295.68 182.862 295.888 182.958 296.048C183.054 296.208 183.23 296.352 183.486 296.464C183.742 296.576 184.078 296.656 184.526 296.704C184.974 296.768 185.534 296.784 186.238 296.784ZM200.397 305.392V306H209.021C209.373 306 209.565 306.144 209.565 306.464V307.328C209.565 307.68 209.373 307.856 209.021 307.856H198.589C198.093 307.856 197.853 307.632 197.853 307.184V304.592C197.853 304.144 198.061 303.904 198.493 303.904H207.021V303.296H198.525C198.077 303.296 197.853 303.12 197.853 302.752V302.08C197.853 301.68 198.029 301.472 198.413 301.472H208.861C209.325 301.472 209.565 301.664 209.565 302.032V304.928C209.565 305.248 209.373 305.392 209.021 305.392H200.397ZM201.437 294.336C201.325 294.576 201.229 294.816 201.149 295.072C204.157 294.848 205.645 296.544 205.613 300.16C205.613 300.624 205.357 300.864 204.877 300.864H203.725C203.309 300.864 203.117 300.656 203.117 300.24C203.085 297.904 202.237 296.96 200.589 297.408C200.461 298.272 200.381 299.216 200.381 300.24C200.381 300.656 200.141 300.848 199.677 300.848H198.589C198.141 300.848 197.917 300.624 197.917 300.176C197.917 298.256 198.269 296.304 198.957 294.336H198.221C197.885 294.336 197.725 294.176 197.725 293.84V292.688C197.725 292.368 197.885 292.192 198.221 292.192H205.277C205.645 292.192 205.837 292.368 205.837 292.704V293.76C205.837 294.144 205.645 294.336 205.261 294.336H201.437ZM210.029 294.944C210.365 294.944 210.541 295.152 210.541 295.552V296.848C210.541 297.248 210.349 297.44 209.997 297.44H209.181V300.256C209.181 300.672 208.957 300.864 208.525 300.864H207.245C206.813 300.864 206.605 300.672 206.605 300.288V292.4C206.605 292.064 206.813 291.888 207.229 291.888H208.557C208.973 291.888 209.181 292.08 209.181 292.432V294.944H210.029ZM226.063 305.136C226.511 305.136 226.735 305.376 226.735 305.824V306.864C226.735 307.296 226.511 307.504 226.063 307.504H216.383C215.903 307.504 215.663 307.28 215.663 306.8V305.824C215.663 305.376 215.887 305.136 216.351 305.136H226.063ZM226.143 292.208C226.527 292.208 226.735 292.432 226.735 292.88C226.735 296.784 226.431 300.272 225.839 303.376C225.759 303.792 225.487 303.984 225.023 303.984H223.951C223.663 303.984 223.471 303.92 223.407 303.76C223.327 303.616 223.311 303.424 223.375 303.168C223.791 300.592 224.047 297.84 224.111 294.896C224.143 294.64 224.031 294.496 223.775 294.496H216.191C215.839 294.496 215.663 294.32 215.663 293.952V292.768C215.663 292.4 215.839 292.208 216.191 292.208H226.143ZM239.528 305.632C239.944 305.632 240.152 305.824 240.152 306.192V307.248C240.152 307.664 239.96 307.856 239.576 307.856H229.032C228.6 307.856 228.392 307.68 228.392 307.312V303.488C228.392 303.12 228.584 302.928 229 302.928H230.344C230.728 302.928 230.936 303.12 230.936 303.488V305.632H239.528ZM240.04 301.408C240.008 301.872 239.768 302.112 239.288 302.128H238.328C237.816 302.128 237.56 301.936 237.56 301.552V300.928C234.968 301.664 232.152 302.032 229.112 302.032C228.568 302.032 228.296 301.824 228.296 301.392V295.968C228.296 295.616 228.488 295.424 228.904 295.424H233.624V294.32H229.064C228.568 294.32 228.328 294.128 228.328 293.744V292.896C228.328 292.432 228.52 292.192 228.936 292.192H235.256C235.768 292.192 236.024 292.416 236.024 292.832V296.832C236.024 297.408 235.72 297.68 235.112 297.68H230.664V299.76C233.288 299.632 235.576 299.232 237.56 298.528V292.432C237.56 292.064 237.816 291.872 238.328 291.872H239.272C239.784 291.872 240.04 292.064 240.04 292.448V301.408ZM257.162 307.136C257.162 307.616 256.938 307.856 256.522 307.856H255.29C254.842 307.856 254.618 307.632 254.618 307.168V292.448C254.618 292.08 254.81 291.888 255.21 291.888H256.538C256.954 291.888 257.162 292.08 257.162 292.464V307.136ZM250.762 294.88C250.762 294.64 250.634 294.512 250.378 294.512H246.106C245.722 294.512 245.546 294.304 245.546 293.872V292.896C245.546 292.448 245.738 292.208 246.154 292.208H252.746C253.21 292.208 253.45 292.496 253.45 293.056C253.482 299.568 251.818 304.256 248.458 307.136C248.186 307.408 247.754 307.536 247.178 307.536H246.266C245.914 307.536 245.706 307.44 245.642 307.232C245.578 307.024 245.706 306.768 246.026 306.48C249.242 303.632 250.826 299.76 250.762 294.88ZM269.959 305.632C270.375 305.632 270.583 305.824 270.583 306.192V307.248C270.583 307.664 270.391 307.856 270.007 307.856H259.463C259.031 307.856 258.823 307.68 258.823 307.312V303.488C258.823 303.12 259.015 302.928 259.431 302.928H260.775C261.159 302.928 261.367 303.12 261.367 303.488V305.632H269.959ZM270.471 301.408C270.439 301.872 270.199 302.112 269.719 302.128H268.759C268.247 302.128 267.991 301.936 267.991 301.552V300.928C265.399 301.664 262.583 302.032 259.543 302.032C258.999 302.032 258.727 301.824 258.727 301.392V295.968C258.727 295.616 258.919 295.424 259.335 295.424H264.055V294.32H259.495C258.999 294.32 258.759 294.128 258.759 293.744V292.896C258.759 292.432 258.951 292.192 259.367 292.192H265.687C266.199 292.192 266.455 292.416 266.455 292.832V296.832C266.455 297.408 266.151 297.68 265.543 297.68H261.095V299.76C263.719 299.632 266.007 299.232 267.991 298.528V292.432C267.991 292.064 268.247 291.872 268.759 291.872H269.703C270.215 291.872 270.471 292.064 270.471 292.448V301.408ZM286.409 305.136C286.857 305.136 287.081 305.376 287.081 305.824V306.864C287.081 307.296 286.857 307.504 286.409 307.504H276.729C276.249 307.504 276.009 307.28 276.009 306.8V305.824C276.009 305.376 276.233 305.136 276.697 305.136H286.409ZM286.489 292.208C286.873 292.208 287.081 292.432 287.081 292.88C287.081 296.784 286.777 300.272 286.185 303.376C286.105 303.792 285.833 303.984 285.369 303.984H284.297C284.009 303.984 283.817 303.92 283.753 303.76C283.673 303.616 283.657 303.424 283.721 303.168C284.137 300.592 284.393 297.84 284.457 294.896C284.489 294.64 284.377 294.496 284.121 294.496H276.537C276.185 294.496 276.009 294.32 276.009 293.952V292.768C276.009 292.4 276.185 292.208 276.537 292.208H286.489ZM300.386 300.832C300.37 301.296 300.13 301.536 299.666 301.552H298.69C298.178 301.552 297.922 301.36 297.922 300.976V300.256C295.266 301.056 292.45 301.456 289.458 301.456C288.898 301.456 288.626 301.248 288.626 300.816V295.76C288.626 295.408 288.818 295.216 289.218 295.216H293.922V294.336H289.394C288.882 294.336 288.642 294.144 288.642 293.76V292.912C288.642 292.448 288.834 292.208 289.25 292.208H295.554C296.066 292.208 296.322 292.432 296.322 292.848V296.512C296.322 297.088 296.018 297.36 295.426 297.36H290.978V299.248C293.586 299.12 295.906 298.688 297.922 297.92V292.432C297.922 292.064 298.178 291.872 298.69 291.872H299.634C300.13 291.872 300.386 292.064 300.386 292.448V300.832ZM300.418 307.184C300.418 307.632 300.162 307.856 299.682 307.856H289.442C288.994 307.856 288.77 307.68 288.77 307.312V302.736C288.77 302.352 289.01 302.144 289.506 302.144H299.682C300.162 302.144 300.418 302.352 300.418 302.736V307.184ZM297.922 305.904V304.16H291.25V305.936L297.922 305.904ZM313.755 307.28C313.755 307.664 313.563 307.856 313.179 307.856H311.803C311.403 307.856 311.211 307.648 311.211 307.232V292.448C311.211 292.08 311.403 291.888 311.803 291.888H313.131C313.547 291.888 313.755 292.096 313.755 292.48V307.28ZM306.059 291.888C306.891 291.888 307.563 292.048 308.107 292.368C308.635 292.688 309.051 293.184 309.371 293.824C309.675 294.464 309.883 295.28 310.011 296.24C310.123 297.2 310.187 298.336 310.187 299.616C310.187 300.992 310.123 302.208 309.995 303.232C309.867 304.256 309.643 305.12 309.339 305.808C309.019 306.496 308.603 307.008 308.075 307.344C307.531 307.696 306.859 307.856 306.059 307.856C305.227 307.856 304.539 307.696 303.995 307.344C303.451 306.992 303.019 306.48 302.699 305.792C302.379 305.104 302.171 304.24 302.043 303.216C301.915 302.192 301.851 300.992 301.851 299.616C301.851 298.336 301.915 297.216 302.059 296.256C302.203 295.296 302.443 294.48 302.763 293.84C303.083 293.2 303.515 292.704 304.059 292.384C304.603 292.064 305.259 291.888 306.059 291.888ZM307.787 299.616C307.787 298.72 307.755 297.92 307.723 297.232C307.675 296.56 307.595 295.984 307.467 295.536C307.339 295.088 307.163 294.736 306.939 294.512C306.715 294.288 306.427 294.176 306.075 294.176C305.707 294.176 305.419 294.288 305.195 294.512C304.971 294.736 304.795 295.088 304.667 295.536C304.539 295.984 304.459 296.56 304.427 297.232C304.379 297.92 304.363 298.72 304.363 299.616C304.363 301.616 304.475 303.12 304.715 304.112C304.939 305.104 305.403 305.6 306.075 305.6C306.411 305.6 306.699 305.488 306.923 305.232C307.147 304.976 307.323 304.608 307.451 304.096C307.579 303.6 307.659 302.976 307.707 302.224C307.755 301.488 307.787 300.608 307.787 299.616ZM325.986 305.136C326.434 305.136 326.658 305.376 326.658 305.824V306.864C326.658 307.296 326.434 307.504 325.986 307.504H316.018C315.538 307.504 315.298 307.28 315.298 306.8V305.824C315.298 305.376 315.522 305.136 315.986 305.136H318.594V298.672C318.594 298.208 318.834 297.968 319.346 297.968H320.418C320.898 297.968 321.154 298.208 321.154 298.672V305.136H325.986ZM326.066 292.208C326.45 292.208 326.658 292.432 326.658 292.88C326.658 296.784 326.354 300.272 325.762 303.376C325.682 303.792 325.41 303.984 324.946 303.984H323.874C323.586 303.984 323.394 303.92 323.33 303.76C323.25 303.616 323.234 303.424 323.298 303.168C323.714 300.592 323.97 297.84 324.034 294.896C324.066 294.64 323.954 294.496 323.698 294.496H315.826C315.474 294.496 315.298 294.32 315.298 293.952V292.768C315.298 292.4 315.474 292.208 315.826 292.208H326.066ZM69.2857 331.232C69.2857 331.648 69.0617 331.856 68.6297 331.856H67.6057C67.1577 331.856 66.9497 331.648 66.9497 331.232V330.688C65.0937 331.184 63.0617 331.424 60.8857 331.424C60.5177 331.424 60.3417 331.264 60.3417 330.944V316.8C60.3417 316.416 60.5657 316.208 61.0297 316.208H62.1657C62.5977 316.208 62.8217 316.416 62.8217 316.816V328.96C64.2937 328.96 65.6697 328.768 66.9497 328.352V322.768H65.5417C65.0617 322.768 64.8377 322.544 64.8377 322.096V320.864C64.8377 320.48 65.0617 320.272 65.5257 320.272H66.9497V316.416C66.9497 316.064 67.1417 315.872 67.5417 315.872H68.6617C69.0777 315.872 69.2857 316.064 69.2857 316.448V331.232ZM69.9577 316.416C69.9577 316.064 70.1657 315.872 70.5817 315.872H71.6697C72.1017 315.872 72.3257 316.064 72.3257 316.448V331.232C72.3257 331.648 72.1017 331.856 71.6537 331.856H70.6297C70.1817 331.856 69.9577 331.648 69.9577 331.232V316.416ZM85.7691 320.272C86.2171 320.272 86.4411 320.48 86.4411 320.88V322.096C86.4411 322.544 86.2171 322.768 85.8011 322.768H85.0011V331.136C85.0011 331.616 84.7771 331.856 84.3611 331.856H83.1291C82.6811 331.856 82.4571 331.632 82.4571 331.168V316.448C82.4571 316.08 82.6491 315.888 83.0491 315.888H84.3771C84.7931 315.888 85.0011 316.08 85.0011 316.464V320.272H85.7691ZM78.6011 318.88C78.6011 318.64 78.4731 318.512 78.2171 318.512H74.3451C73.9611 318.512 73.7851 318.304 73.7851 317.872V316.896C73.7851 316.448 73.9771 316.208 74.3931 316.208H80.5851C81.0491 316.208 81.2891 316.496 81.2891 317.056C81.3211 323.568 79.8171 328.256 76.7771 331.136C76.5051 331.408 76.0731 331.536 75.4971 331.536H74.5851C74.2331 331.536 74.0251 331.44 73.9611 331.232C73.8971 331.024 74.0251 330.768 74.3451 330.48C77.2411 327.632 78.6651 323.76 78.6011 318.88ZM101.891 329.136C102.339 329.136 102.563 329.376 102.563 329.824V330.864C102.563 331.296 102.339 331.504 101.891 331.504H92.2114C91.7314 331.504 91.4914 331.28 91.4914 330.8V329.824C91.4914 329.376 91.7154 329.136 92.1794 329.136H101.891ZM101.971 316.208C102.355 316.208 102.563 316.432 102.563 316.88C102.563 320.784 102.259 324.272 101.667 327.376C101.587 327.792 101.315 327.984 100.851 327.984H99.7794C99.4914 327.984 99.2994 327.92 99.2354 327.76C99.1554 327.616 99.1394 327.424 99.2034 327.168C99.6194 324.592 99.8754 321.84 99.9394 318.896C99.9714 318.64 99.8594 318.496 99.6034 318.496H92.0194C91.6674 318.496 91.4914 318.32 91.4914 317.952V316.768C91.4914 316.4 91.6674 316.208 92.0194 316.208H101.971ZM115.357 329.632C115.773 329.632 115.981 329.824 115.981 330.192V331.248C115.981 331.664 115.789 331.856 115.405 331.856H104.861C104.429 331.856 104.221 331.68 104.221 331.312V327.488C104.221 327.12 104.413 326.928 104.829 326.928H106.173C106.557 326.928 106.765 327.12 106.765 327.488V329.632H115.357ZM115.869 325.408C115.837 325.872 115.597 326.112 115.117 326.128H114.157C113.645 326.128 113.389 325.936 113.389 325.552V324.928C110.797 325.664 107.981 326.032 104.941 326.032C104.397 326.032 104.125 325.824 104.125 325.392V319.968C104.125 319.616 104.317 319.424 104.733 319.424H109.453V318.32H104.893C104.397 318.32 104.157 318.128 104.157 317.744V316.896C104.157 316.432 104.349 316.192 104.765 316.192H111.085C111.597 316.192 111.853 316.416 111.853 316.832V320.832C111.853 321.408 111.549 321.68 110.941 321.68H106.493V323.76C109.117 323.632 111.405 323.232 113.389 322.528V316.432C113.389 316.064 113.645 315.872 114.157 315.872H115.101C115.613 315.872 115.869 316.064 115.869 316.448V325.408ZM132.99 331.136C132.99 331.616 132.766 331.856 132.35 331.856H131.118C130.67 331.856 130.446 331.632 130.446 331.168V316.448C130.446 316.08 130.638 315.888 131.038 315.888H132.366C132.782 315.888 132.99 316.08 132.99 316.464V331.136ZM126.59 318.88C126.59 318.64 126.462 318.512 126.206 318.512H121.934C121.55 318.512 121.374 318.304 121.374 317.872V316.896C121.374 316.448 121.566 316.208 121.982 316.208H128.574C129.038 316.208 129.278 316.496 129.278 317.056C129.31 323.568 127.646 328.256 124.286 331.136C124.014 331.408 123.582 331.536 123.006 331.536H122.094C121.742 331.536 121.534 331.44 121.47 331.232C121.406 331.024 121.534 330.768 121.854 330.48C125.07 327.632 126.654 323.76 126.59 318.88ZM145.787 329.632C146.203 329.632 146.411 329.824 146.411 330.192V331.248C146.411 331.664 146.219 331.856 145.835 331.856H135.291C134.859 331.856 134.651 331.68 134.651 331.312V327.488C134.651 327.12 134.843 326.928 135.259 326.928H136.603C136.987 326.928 137.195 327.12 137.195 327.488V329.632H145.787ZM146.299 325.408C146.267 325.872 146.027 326.112 145.547 326.128H144.587C144.075 326.128 143.819 325.936 143.819 325.552V324.928C141.227 325.664 138.411 326.032 135.371 326.032C134.827 326.032 134.555 325.824 134.555 325.392V319.968C134.555 319.616 134.747 319.424 135.163 319.424H139.883V318.32H135.323C134.827 318.32 134.587 318.128 134.587 317.744V316.896C134.587 316.432 134.779 316.192 135.195 316.192H141.515C142.027 316.192 142.283 316.416 142.283 316.832V320.832C142.283 321.408 141.979 321.68 141.371 321.68H136.923V323.76C139.547 323.632 141.835 323.232 143.819 322.528V316.432C143.819 316.064 144.075 315.872 144.587 315.872H145.531C146.043 315.872 146.299 316.064 146.299 316.448V325.408ZM162.237 329.136C162.685 329.136 162.909 329.376 162.909 329.824V330.864C162.909 331.296 162.685 331.504 162.237 331.504H152.557C152.077 331.504 151.837 331.28 151.837 330.8V329.824C151.837 329.376 152.061 329.136 152.525 329.136H162.237ZM162.317 316.208C162.701 316.208 162.909 316.432 162.909 316.88C162.909 320.784 162.605 324.272 162.013 327.376C161.933 327.792 161.661 327.984 161.197 327.984H160.125C159.837 327.984 159.645 327.92 159.581 327.76C159.501 327.616 159.485 327.424 159.549 327.168C159.965 324.592 160.221 321.84 160.285 318.896C160.317 318.64 160.205 318.496 159.949 318.496H152.365C152.013 318.496 151.837 318.32 151.837 317.952V316.768C151.837 316.4 152.013 316.208 152.365 316.208H162.317ZM176.214 324.832C176.198 325.296 175.958 325.536 175.494 325.552H174.518C174.006 325.552 173.75 325.36 173.75 324.976V324.256C171.094 325.056 168.278 325.456 165.286 325.456C164.726 325.456 164.454 325.248 164.454 324.816V319.76C164.454 319.408 164.646 319.216 165.046 319.216H169.75V318.336H165.222C164.71 318.336 164.47 318.144 164.47 317.76V316.912C164.47 316.448 164.662 316.208 165.078 316.208H171.382C171.894 316.208 172.15 316.432 172.15 316.848V320.512C172.15 321.088 171.846 321.36 171.254 321.36H166.806V323.248C169.414 323.12 171.734 322.688 173.75 321.92V316.432C173.75 316.064 174.006 315.872 174.518 315.872H175.462C175.958 315.872 176.214 316.064 176.214 316.448V324.832ZM176.246 331.184C176.246 331.632 175.99 331.856 175.51 331.856H165.27C164.822 331.856 164.598 331.68 164.598 331.312V326.736C164.598 326.352 164.838 326.144 165.334 326.144H175.51C175.99 326.144 176.246 326.352 176.246 326.736V331.184ZM173.75 329.904V328.16H167.078V329.936L173.75 329.904ZM178.479 326.224C177.999 326.224 177.775 326 177.775 325.52V324.496C177.775 324.048 177.983 323.824 178.415 323.824H188.991C189.407 323.84 189.631 324.032 189.631 324.416V325.52C189.631 326 189.407 326.224 188.991 326.224H178.479ZM188.991 329.504C189.407 329.504 189.631 329.696 189.631 330.064V331.216C189.631 331.648 189.423 331.856 189.039 331.856H178.383C177.983 331.856 177.791 331.664 177.791 331.264V327.584C177.791 327.168 177.999 326.96 178.431 326.96H179.663C180.079 326.96 180.303 327.168 180.303 327.568V329.504H188.991ZM183.695 315.728C184.927 315.728 185.935 315.808 186.703 315.968C187.471 316.128 188.079 316.352 188.511 316.656C188.943 316.976 189.231 317.36 189.391 317.824C189.551 318.304 189.631 318.848 189.631 319.456C189.631 320.048 189.551 320.56 189.391 320.992C189.231 321.44 188.927 321.808 188.495 322.096C188.047 322.384 187.439 322.608 186.671 322.752C185.903 322.896 184.895 322.96 183.679 322.96C182.527 322.96 181.583 322.896 180.831 322.752C180.063 322.608 179.471 322.384 179.023 322.096C178.575 321.808 178.255 321.44 178.063 320.992C177.871 320.56 177.791 320.048 177.791 319.456C177.791 318.848 177.871 318.304 178.063 317.84C178.239 317.376 178.543 316.992 178.991 316.672C179.439 316.352 180.031 316.128 180.799 315.968C181.551 315.808 182.511 315.728 183.695 315.728ZM183.679 320.784C184.351 320.784 184.911 320.768 185.359 320.704C185.807 320.656 186.159 320.576 186.431 320.464C186.703 320.352 186.895 320.208 187.007 320.048C187.119 319.888 187.183 319.68 187.183 319.456C187.183 319.2 187.119 318.976 187.007 318.784C186.879 318.592 186.687 318.432 186.415 318.304C186.143 318.176 185.791 318.08 185.343 318.016C184.895 317.952 184.335 317.92 183.695 317.92C183.039 317.92 182.495 317.952 182.063 318.016C181.615 318.08 181.263 318.176 181.007 318.304C180.735 318.432 180.543 318.592 180.431 318.784C180.303 318.976 180.255 319.2 180.255 319.456C180.255 319.68 180.303 319.888 180.399 320.048C180.495 320.208 180.671 320.352 180.927 320.464C181.183 320.576 181.519 320.656 181.967 320.704C182.415 320.768 182.975 320.784 183.679 320.784ZM202.366 322.016V322.944H206.398C206.798 322.944 207.006 323.152 207.006 323.536V324.624C207.006 325.008 206.814 325.184 206.43 325.184H195.71C195.326 325.184 195.134 324.992 195.134 324.592V323.536C195.134 323.152 195.326 322.944 195.71 322.944H199.758V322.016H195.726C195.326 322.016 195.134 321.84 195.134 321.456V316.4C195.134 316.048 195.31 315.856 195.694 315.856H206.366C206.782 315.856 207.006 316.048 207.006 316.4V321.36C207.006 321.808 206.782 322.016 206.35 322.016H202.366ZM197.614 319.888H204.606V317.936H197.614V319.888ZM204.59 331.856C204.19 331.856 203.998 331.68 204.03 331.328C204.158 329.408 202.958 328.512 200.43 328.656C199.95 329.888 199.31 330.832 198.494 331.504C198.206 331.744 197.902 331.856 197.582 331.856H195.614C195.422 331.856 195.326 331.792 195.294 331.648C195.262 331.52 195.358 331.36 195.55 331.2C197.15 329.888 198.046 328.288 198.238 326.416C198.27 326.096 198.478 325.92 198.862 325.92H200.366C200.718 325.92 200.862 326.064 200.83 326.32L200.798 326.608C204.926 326.416 206.958 328 206.894 331.36C206.862 331.696 206.67 331.856 206.318 331.856H204.59ZM222.942 329.136C223.39 329.136 223.614 329.376 223.614 329.824V330.864C223.614 331.296 223.39 331.504 222.942 331.504H213.262C212.782 331.504 212.542 331.28 212.542 330.8V329.824C212.542 329.376 212.766 329.136 213.23 329.136H222.942ZM223.022 316.208C223.406 316.208 223.614 316.432 223.614 316.88C223.614 320.784 223.31 324.272 222.718 327.376C222.638 327.792 222.366 327.984 221.902 327.984H220.83C220.542 327.984 220.35 327.92 220.286 327.76C220.206 327.616 220.19 327.424 220.254 327.168C220.67 324.592 220.926 321.84 220.99 318.896C221.022 318.64 220.91 318.496 220.654 318.496H213.07C212.718 318.496 212.542 318.32 212.542 317.952V316.768C212.542 316.4 212.718 316.208 213.07 316.208H223.022ZM236.407 329.632C236.823 329.632 237.031 329.824 237.031 330.192V331.248C237.031 331.664 236.839 331.856 236.455 331.856H225.911C225.479 331.856 225.271 331.68 225.271 331.312V327.488C225.271 327.12 225.463 326.928 225.879 326.928H227.223C227.607 326.928 227.815 327.12 227.815 327.488V329.632H236.407ZM236.919 325.408C236.887 325.872 236.647 326.112 236.167 326.128H235.207C234.695 326.128 234.439 325.936 234.439 325.552V324.928C231.847 325.664 229.031 326.032 225.991 326.032C225.447 326.032 225.175 325.824 225.175 325.392V319.968C225.175 319.616 225.367 319.424 225.783 319.424H230.503V318.32H225.943C225.447 318.32 225.207 318.128 225.207 317.744V316.896C225.207 316.432 225.399 316.192 225.815 316.192H232.135C232.647 316.192 232.903 316.416 232.903 316.832V320.832C232.903 321.408 232.599 321.68 231.991 321.68H227.543V323.76C230.167 323.632 232.455 323.232 234.439 322.528V316.432C234.439 316.064 234.695 315.872 235.207 315.872H236.151C236.663 315.872 236.919 316.064 236.919 316.448V325.408ZM254.041 331.136C254.041 331.616 253.817 331.856 253.401 331.856H252.169C251.721 331.856 251.497 331.632 251.497 331.168V316.448C251.497 316.08 251.689 315.888 252.089 315.888H253.417C253.833 315.888 254.041 316.08 254.041 316.464V331.136ZM247.641 318.88C247.641 318.64 247.513 318.512 247.257 318.512H242.985C242.601 318.512 242.425 318.304 242.425 317.872V316.896C242.425 316.448 242.617 316.208 243.033 316.208H249.625C250.089 316.208 250.329 316.496 250.329 317.056C250.361 323.568 248.697 328.256 245.337 331.136C245.065 331.408 244.633 331.536 244.057 331.536H243.145C242.793 331.536 242.585 331.44 242.521 331.232C242.457 331.024 242.585 330.768 242.905 330.48C246.121 327.632 247.705 323.76 247.641 318.88ZM266.838 329.632C267.254 329.632 267.462 329.824 267.462 330.192V331.248C267.462 331.664 267.27 331.856 266.886 331.856H256.342C255.91 331.856 255.702 331.68 255.702 331.312V327.488C255.702 327.12 255.894 326.928 256.31 326.928H257.654C258.038 326.928 258.246 327.12 258.246 327.488V329.632H266.838ZM267.35 325.408C267.318 325.872 267.078 326.112 266.598 326.128H265.638C265.126 326.128 264.87 325.936 264.87 325.552V324.928C262.278 325.664 259.462 326.032 256.422 326.032C255.878 326.032 255.606 325.824 255.606 325.392V319.968C255.606 319.616 255.798 319.424 256.214 319.424H260.934V318.32H256.374C255.878 318.32 255.638 318.128 255.638 317.744V316.896C255.638 316.432 255.83 316.192 256.246 316.192H262.566C263.078 316.192 263.334 316.416 263.334 316.832V320.832C263.334 321.408 263.03 321.68 262.422 321.68H257.974V323.76C260.598 323.632 262.886 323.232 264.87 322.528V316.432C264.87 316.064 265.126 315.872 265.638 315.872H266.582C267.094 315.872 267.35 316.064 267.35 316.448V325.408ZM283.288 329.136C283.736 329.136 283.96 329.376 283.96 329.824V330.864C283.96 331.296 283.736 331.504 283.288 331.504H273.608C273.128 331.504 272.888 331.28 272.888 330.8V329.824C272.888 329.376 273.112 329.136 273.576 329.136H283.288ZM283.368 316.208C283.752 316.208 283.96 316.432 283.96 316.88C283.96 320.784 283.656 324.272 283.064 327.376C282.984 327.792 282.712 327.984 282.248 327.984H281.176C280.888 327.984 280.696 327.92 280.632 327.76C280.552 327.616 280.536 327.424 280.6 327.168C281.016 324.592 281.272 321.84 281.336 318.896C281.368 318.64 281.256 318.496 281 318.496H273.416C273.064 318.496 272.888 318.32 272.888 317.952V316.768C272.888 316.4 273.064 316.208 273.416 316.208H283.368ZM297.265 324.832C297.249 325.296 297.009 325.536 296.545 325.552H295.569C295.057 325.552 294.801 325.36 294.801 324.976V324.256C292.145 325.056 289.329 325.456 286.337 325.456C285.777 325.456 285.505 325.248 285.505 324.816V319.76C285.505 319.408 285.697 319.216 286.097 319.216H290.801V318.336H286.273C285.761 318.336 285.521 318.144 285.521 317.76V316.912C285.521 316.448 285.713 316.208 286.129 316.208H292.433C292.945 316.208 293.201 316.432 293.201 316.848V320.512C293.201 321.088 292.897 321.36 292.305 321.36H287.857V323.248C290.465 323.12 292.785 322.688 294.801 321.92V316.432C294.801 316.064 295.057 315.872 295.569 315.872H296.513C297.009 315.872 297.265 316.064 297.265 316.448V324.832ZM297.297 331.184C297.297 331.632 297.041 331.856 296.561 331.856H286.321C285.873 331.856 285.649 331.68 285.649 331.312V326.736C285.649 326.352 285.889 326.144 286.385 326.144H296.561C297.041 326.144 297.297 326.352 297.297 326.736V331.184ZM294.801 329.904V328.16H288.129V329.936L294.801 329.904ZM310.634 331.28C310.634 331.664 310.442 331.856 310.058 331.856H308.682C308.282 331.856 308.09 331.648 308.09 331.232V316.448C308.09 316.08 308.282 315.888 308.682 315.888H310.01C310.426 315.888 310.634 316.096 310.634 316.48V331.28ZM302.938 315.888C303.77 315.888 304.442 316.048 304.986 316.368C305.514 316.688 305.93 317.184 306.25 317.824C306.554 318.464 306.762 319.28 306.89 320.24C307.002 321.2 307.066 322.336 307.066 323.616C307.066 324.992 307.002 326.208 306.874 327.232C306.746 328.256 306.522 329.12 306.218 329.808C305.898 330.496 305.482 331.008 304.954 331.344C304.41 331.696 303.738 331.856 302.938 331.856C302.106 331.856 301.418 331.696 300.874 331.344C300.33 330.992 299.898 330.48 299.578 329.792C299.258 329.104 299.05 328.24 298.922 327.216C298.794 326.192 298.73 324.992 298.73 323.616C298.73 322.336 298.794 321.216 298.938 320.256C299.082 319.296 299.322 318.48 299.642 317.84C299.962 317.2 300.394 316.704 300.938 316.384C301.482 316.064 302.138 315.888 302.938 315.888ZM304.666 323.616C304.666 322.72 304.634 321.92 304.602 321.232C304.554 320.56 304.474 319.984 304.346 319.536C304.218 319.088 304.042 318.736 303.818 318.512C303.594 318.288 303.306 318.176 302.954 318.176C302.586 318.176 302.298 318.288 302.074 318.512C301.85 318.736 301.674 319.088 301.546 319.536C301.418 319.984 301.338 320.56 301.306 321.232C301.258 321.92 301.242 322.72 301.242 323.616C301.242 325.616 301.354 327.12 301.594 328.112C301.818 329.104 302.282 329.6 302.954 329.6C303.29 329.6 303.578 329.488 303.802 329.232C304.026 328.976 304.202 328.608 304.33 328.096C304.458 327.6 304.538 326.976 304.586 326.224C304.634 325.488 304.666 324.608 304.666 323.616ZM324.113 320.272C324.513 320.272 324.721 320.464 324.721 320.816V322.112C324.721 322.56 324.513 322.768 324.097 322.768H323.265V331.2C323.265 331.648 323.041 331.856 322.593 331.856H321.345C320.913 331.856 320.705 331.664 320.705 331.248V330.784C317.553 331.264 314.977 331.52 312.961 331.52C312.449 331.52 312.193 331.264 312.193 330.752V316.864C312.193 316.432 312.417 316.208 312.865 316.208H318.817C319.233 316.208 319.457 316.416 319.457 316.816V317.856C319.457 318.272 319.233 318.48 318.785 318.48H314.641V329.216C316.753 329.216 318.769 328.96 320.705 328.48V316.464C320.705 316.08 320.897 315.888 321.297 315.888H322.609C323.041 315.888 323.265 316.08 323.265 316.464V320.272H324.113ZM328.673 330.368C328.641 330.912 328.529 331.28 328.321 331.456C328.113 331.648 327.761 331.76 327.249 331.792C326.705 331.76 326.353 331.648 326.161 331.456C325.969 331.264 325.873 330.912 325.857 330.368C325.873 329.856 325.969 329.488 326.161 329.28C326.337 329.072 326.705 328.96 327.249 328.928C327.793 328.96 328.161 329.056 328.353 329.248C328.545 329.44 328.641 329.824 328.673 330.368Z" fill="#855205"/>
<rect x="16" y="393" width="357" height="100" rx="16" fill="white"/>
<path d="M181.619 420.84C182.851 420.84 183.859 420.904 184.627 421.032C185.395 421.16 186.003 421.368 186.435 421.624C186.867 421.88 187.155 422.216 187.315 422.6C187.459 422.984 187.539 423.448 187.539 423.96C187.539 424.472 187.443 424.92 187.283 425.304C187.123 425.688 186.819 425.992 186.387 426.248C185.939 426.504 185.347 426.696 184.579 426.824C183.811 426.952 182.819 427.016 181.619 427.016C180.403 427.016 179.411 426.952 178.611 426.824C177.811 426.696 177.171 426.504 176.691 426.248C176.211 425.992 175.859 425.672 175.667 425.288C175.475 424.904 175.379 424.456 175.379 423.944C175.379 423.432 175.459 422.984 175.651 422.6C175.827 422.216 176.147 421.88 176.627 421.624C177.091 421.368 177.731 421.16 178.531 421.032C179.331 420.904 180.371 420.84 181.619 420.84ZM179.139 413.368C179.043 413.56 178.947 413.736 178.867 413.928C181.667 413.896 183.043 415.736 183.011 419.448C183.011 419.912 182.755 420.152 182.275 420.152H181.123C180.707 420.152 180.515 419.944 180.515 419.528C180.483 417.064 179.715 415.96 178.211 416.216C178.019 417.208 177.923 418.328 177.923 419.544C177.923 419.96 177.683 420.152 177.219 420.152H176.131C175.683 420.152 175.459 419.928 175.459 419.48C175.459 417.368 175.811 415.32 176.499 413.368H175.651C175.315 413.368 175.155 413.208 175.155 412.872V411.704C175.155 411.384 175.315 411.208 175.651 411.208H182.819C183.187 411.208 183.379 411.384 183.379 411.72V412.792C183.379 413.176 183.187 413.368 182.803 413.368H179.139ZM184.627 414.28V411.464C184.627 411.08 184.819 410.888 185.203 410.888H186.563C186.963 410.888 187.171 411.08 187.171 411.432V419.736C187.171 420.104 186.963 420.28 186.563 420.28H185.171C184.803 420.28 184.627 420.088 184.627 419.704V416.776H183.763C183.395 416.776 183.219 416.616 183.219 416.296V414.824C183.219 414.472 183.395 414.28 183.779 414.28H184.627ZM181.635 425.032C182.307 425.032 182.867 425.016 183.315 424.968C183.747 424.936 184.099 424.872 184.355 424.776C184.611 424.68 184.787 424.568 184.883 424.44C184.979 424.312 185.043 424.136 185.043 423.944C185.043 423.752 184.995 423.592 184.899 423.448C184.803 423.32 184.627 423.208 184.371 423.112C184.115 423.016 183.763 422.952 183.315 422.904C182.867 422.872 182.307 422.84 181.619 422.84C180.883 422.84 180.259 422.872 179.779 422.904C179.299 422.952 178.915 423.016 178.627 423.112C178.339 423.208 178.147 423.32 178.035 423.448C177.907 423.592 177.859 423.752 177.859 423.944C177.859 424.136 177.907 424.312 178.019 424.44C178.115 424.568 178.307 424.68 178.595 424.776C178.883 424.872 179.267 424.936 179.747 424.968C180.227 425.016 180.867 425.032 181.635 425.032ZM199.624 410.872C200.056 410.872 200.28 411.064 200.28 411.432V414.376H201.064C201.448 414.376 201.64 414.536 201.64 414.856V416.232C201.64 416.584 201.464 416.744 201.112 416.744H200.28V421.416C200.28 421.816 200.056 422.008 199.608 422.008H198.408C197.96 422.008 197.752 421.816 197.752 421.432H189.432C188.984 421.432 188.76 421.208 188.76 420.76V419.896C188.76 419.416 188.984 419.176 189.464 419.176H191.464V418.344C189.784 418.232 188.952 417.288 188.952 415.496C188.984 414.6 189.192 413.944 189.576 413.544H189.224C188.84 413.544 188.648 413.352 188.648 412.936V411.944C188.648 411.56 188.824 411.368 189.208 411.368H191.368V410.936C191.368 410.616 191.56 410.44 191.944 410.44H193.432C193.816 410.44 194.024 410.616 194.024 410.936V411.368H196.296C196.696 411.368 196.904 411.56 196.904 411.912V413.016C196.904 413.368 196.712 413.544 196.36 413.544H195.848C196.264 413.944 196.488 414.6 196.488 415.496C196.488 417.288 195.64 418.232 193.976 418.344V419.208H197.752V411.48C197.752 411.08 197.976 410.872 198.44 410.872H199.624ZM189.448 424.904C188.984 424.904 188.76 424.68 188.76 424.232V423.352C188.76 422.872 189 422.616 189.48 422.616H200.008C200.488 422.616 200.744 422.84 200.744 423.256V426.232C200.744 426.648 200.504 426.856 200.04 426.856H198.984C198.488 426.872 198.248 426.664 198.248 426.248V424.904H189.448ZM192.744 413.544C191.8 413.544 191.336 414.088 191.336 415.176C191.336 416.168 191.784 416.664 192.68 416.664C193.608 416.664 194.088 416.168 194.088 415.176C194.088 414.088 193.64 413.544 192.744 413.544ZM213.308 421.512C212.316 421.816 211.116 422.04 209.724 422.2V424.136H213.372C213.804 424.136 214.028 424.344 214.028 424.76V425.864C214.028 426.312 213.804 426.536 213.372 426.536H203.644C203.164 426.536 202.924 426.312 202.924 425.832V424.904C202.924 424.392 203.164 424.136 203.66 424.136H207.196V422.408C206.108 422.472 204.94 422.488 203.692 422.488C203.18 422.488 202.924 422.264 202.924 421.8V411.784C202.924 411.4 203.148 411.208 203.628 411.208H213.42C213.82 411.208 214.028 411.416 214.028 411.8V412.872C214.028 413.32 213.804 413.528 213.372 413.528H205.468V420.04C208.284 420.008 210.908 419.72 213.372 419.144C213.804 419.064 214.028 419.224 214.028 419.624V420.696C213.996 421.144 213.756 421.416 213.308 421.512Z" fill="#6A6967"/>
<path d="M177.349 447.776C178.949 447.808 179.429 448.768 178.821 450.688L168.709 478.656C168.389 479.36 167.781 479.68 166.949 479.68H164.517C163.365 479.68 163.013 479.264 163.397 478.432L172.709 452.64H164.677V455.328C164.677 456.32 164.197 456.8 163.237 456.8H161.061C160.165 456.8 159.717 456.352 159.717 455.424V449.088C159.717 448.224 160.069 447.776 160.837 447.776H177.349ZM190.419 447.744C192.147 447.744 193.651 448.032 194.931 448.544C196.211 449.088 197.299 449.984 198.163 451.2C198.995 452.416 199.635 454.048 200.083 456.032C200.499 458.016 200.723 460.48 200.723 463.36C200.723 466.56 200.499 469.184 200.051 471.296C199.603 473.408 198.963 475.072 198.099 476.32C197.235 477.568 196.147 478.432 194.867 478.944C193.587 479.456 192.083 479.712 190.387 479.712C188.691 479.712 187.219 479.456 185.939 478.912C184.659 478.4 183.571 477.504 182.707 476.224C181.843 474.976 181.203 473.312 180.755 471.2C180.307 469.12 180.115 466.496 180.115 463.36C180.115 460.288 180.307 457.76 180.755 455.744C181.203 453.76 181.843 452.16 182.707 450.976C183.571 449.792 184.659 448.96 185.939 448.48C187.219 448 188.691 447.744 190.419 447.744ZM190.259 475.104C191.155 475.104 191.955 474.912 192.659 474.528C193.363 474.144 193.939 473.504 194.419 472.608C194.867 471.712 195.219 470.496 195.475 469.024C195.731 467.552 195.859 465.696 195.859 463.488C195.859 461.248 195.731 459.424 195.507 457.984C195.251 456.576 194.899 455.456 194.451 454.624C194.003 453.824 193.427 453.28 192.723 452.992C192.019 452.704 191.187 452.576 190.291 452.576C189.395 452.576 188.595 452.768 187.923 453.088C187.219 453.44 186.643 454.016 186.195 454.848C185.747 455.68 185.395 456.8 185.171 458.208C184.915 459.616 184.819 461.376 184.819 463.488C184.819 465.696 184.915 467.552 185.139 469.024C185.363 470.528 185.715 471.744 186.163 472.64C186.611 473.536 187.187 474.176 187.891 474.56C188.563 474.944 189.363 475.136 190.259 475.104ZM221.332 454.944C221.78 454.24 222.42 453.888 223.316 453.888H225.204C226.452 453.888 226.772 454.368 226.164 455.264L211.764 478.368C211.284 479.264 210.548 479.68 209.556 479.68H207.604C206.388 479.68 206.1 479.136 206.772 478.048L221.332 454.944ZM209.076 453.952C212.724 453.952 214.516 456 214.484 460.064C214.452 464.128 212.628 466.144 209.044 466.144C205.396 466.112 203.572 464.096 203.572 460.064C203.572 456.032 205.428 453.984 209.076 453.952ZM209.044 462.528C210.324 462.528 210.964 461.728 210.996 460.064C210.996 458.4 210.356 457.568 209.076 457.568C207.764 457.568 207.124 458.4 207.124 460.064C207.124 461.728 207.764 462.56 209.044 462.528ZM223.316 467.552C226.964 467.552 228.788 469.6 228.724 473.664C228.692 477.696 226.868 479.712 223.284 479.712C219.668 479.712 217.844 477.696 217.812 473.664C217.844 469.632 219.668 467.584 223.316 467.552ZM223.284 476.16C224.564 476.16 225.204 475.328 225.236 473.664C225.236 472 224.596 471.168 223.316 471.168C222.004 471.168 221.364 472 221.364 473.664C221.364 475.328 222.004 476.16 223.284 476.16Z" fill="#357EE7"/>
<circle cx="197" cy="619" r="43" fill="#357EE7"/>
<mask id="mask0_3539_11634" style="mask-type:alpha" maskUnits="userSpaceOnUse" x="168" y="590" width="58" height="58">
<rect x="168.334" y="590.332" width="57.3333" height="57.3333" fill="white"/>
</mask>
<g mask="url(#mask0_3539_11634)">
<path d="M197.001 623.778C195.01 623.778 193.318 623.081 191.924 621.688C190.531 620.294 189.834 618.602 189.834 616.611V602.278C189.834 600.287 190.531 598.595 191.924 597.202C193.318 595.808 195.01 595.111 197.001 595.111C198.991 595.111 200.683 595.808 202.077 597.202C203.47 598.595 204.167 600.287 204.167 602.278V616.611C204.167 618.602 203.47 620.294 202.077 621.688C200.683 623.081 198.991 623.778 197.001 623.778ZM194.612 640.5V633.154C190.471 632.597 187.047 630.746 184.339 627.6C181.632 624.455 180.278 620.792 180.278 616.611H185.056C185.056 619.916 186.221 622.733 188.55 625.062C190.879 627.391 193.696 628.556 197.001 628.556C200.305 628.556 203.122 627.391 205.451 625.062C207.78 622.733 208.945 619.916 208.945 616.611H213.723C213.723 620.792 212.369 624.455 209.662 627.6C206.954 630.746 203.53 632.597 199.389 633.154V640.5H194.612ZM197.001 619C197.677 619 198.245 618.771 198.703 618.313C199.16 617.856 199.389 617.288 199.389 616.611V602.278C199.389 601.601 199.16 601.034 198.703 600.576C198.245 600.118 197.677 599.889 197.001 599.889C196.324 599.889 195.756 600.118 195.298 600.576C194.841 601.034 194.612 601.601 194.612 602.278V616.611C194.612 617.288 194.841 617.856 195.298 618.313C195.756 618.771 196.324 619 197.001 619Z" fill="white"/>
</g>
<path d="M127.88 682.129V690.086H122.151V682.129H127.88ZM123.423 683.154V689.033H126.595V683.154H123.423ZM131.23 680.912V685.711H133.198V686.805H131.23V693.162H129.931V680.912H131.23ZM143.651 680.912V693.189H142.352V680.912H143.651ZM137.102 681.828C138.92 681.828 140.26 683.496 140.26 686.121C140.26 688.76 138.92 690.428 137.102 690.428C135.256 690.428 133.93 688.76 133.93 686.121C133.93 683.496 135.256 681.828 137.102 681.828ZM137.102 682.99C135.967 682.99 135.188 684.193 135.188 686.121C135.188 688.062 135.967 689.266 137.102 689.266C138.223 689.266 139.002 688.062 139.002 686.121C139.002 684.193 138.223 682.99 137.102 682.99ZM155.183 682.102V683.592C155.183 685.383 155.183 687.064 154.65 689.607L153.365 689.484C153.625 688.363 153.761 687.379 153.83 686.463L146.474 686.859L146.31 685.793L153.898 685.506C153.919 684.85 153.919 684.221 153.925 683.592V683.168H146.652V682.102H155.183ZM156.496 690.455V691.521H145.326V690.455H156.496ZM170.496 680.912V693.189H169.211V686.449H166.504V690.154H160.762V681.855H162.074V684.986H165.233V681.855H166.504V685.383H169.211V680.912H170.496ZM162.074 689.088H165.233V686.012H162.074V689.088ZM183.273 687.639V688.678H172.076V687.639H183.273ZM182.111 691.85V692.902H173.511V689.484H174.796V691.85H182.111ZM181.988 685.615V686.613H173.539V681.35H181.906V682.361H174.851V683.482H181.591V684.467H174.851V685.615H181.988ZM189.501 681.117C192.262 681.117 193.876 681.855 193.876 683.223C193.876 684.59 192.262 685.342 189.501 685.342C186.739 685.342 185.126 684.59 185.126 683.223C185.126 681.855 186.739 681.117 189.501 681.117ZM189.501 682.074C187.546 682.074 186.466 682.498 186.479 683.223C186.466 683.975 187.546 684.371 189.501 684.371C191.456 684.371 192.536 683.975 192.536 683.223C192.536 682.498 191.456 682.074 189.501 682.074ZM195.092 686.094V687.133H183.923V686.094H195.092ZM193.684 688.076V690.947H186.548V692.041H194.026V693.039H185.276V690.004H192.399V689.047H185.262V688.076H193.684ZM208.765 683.701V684.754H200.357V681.09H201.628V683.701H208.765ZM210.077 685.697V686.764H205.074V687.939H208.669V690.865H201.56V692.027H209.093V693.039H200.261V689.949H207.384V688.938H200.234V687.939H203.816V686.764H198.866V685.697H210.077ZM220.899 680.912V693.189H219.614V686.6H217.372V685.52H219.614V680.912H220.899ZM216.647 682.02V686.395H212.45V689.184C214.405 689.177 215.909 689.108 217.618 688.801L217.727 689.867C215.895 690.195 214.282 690.264 212.122 690.277H211.151V685.342H215.389V683.072H211.124V682.02H216.647ZM230.155 684.029C230.142 686.271 231.495 688.514 233.396 689.361L232.616 690.387C231.208 689.717 230.094 688.343 229.526 686.668C228.952 688.459 227.824 689.942 226.355 690.66L225.562 689.566C227.489 688.705 228.843 686.367 228.843 684.029V681.938H230.155V684.029ZM235.802 680.912V693.189H234.503V680.912H235.802ZM241.756 683.113C241.756 684.672 242.836 686.162 244.709 686.791L244.053 687.803C242.665 687.324 241.647 686.367 241.114 685.164C240.58 686.49 239.521 687.529 238.079 688.035L237.381 687.023C239.295 686.367 240.444 684.795 240.457 683.1V682.771H237.764V681.719H244.395V682.771H241.756V683.113ZM247.102 680.912V684.057H248.879V685.15H247.102V688.295H245.803V680.912H247.102ZM247.102 688.896V693.162H245.803V689.949H239.008V688.896H247.102ZM258.84 680.912V685.875H260.808V686.955H258.84V693.162H257.554V680.912H258.84ZM256.488 682.826V683.893H249.228V682.826H252.25V681.076H253.549V682.826H256.488ZM252.906 684.795C254.656 684.795 255.941 685.971 255.955 687.639C255.941 689.32 254.656 690.482 252.906 690.496C251.142 690.482 249.857 689.32 249.857 687.639C249.857 685.971 251.142 684.795 252.906 684.795ZM252.906 685.861C251.867 685.861 251.088 686.586 251.101 687.639C251.088 688.705 251.867 689.416 252.906 689.402C253.945 689.416 254.711 688.705 254.711 687.639C254.711 686.586 253.945 685.861 252.906 685.861ZM271.302 680.912V693.162H269.989V680.912H271.302ZM267.651 682.225C267.651 685.807 266.12 688.924 261.923 690.934L261.239 689.881C264.5 688.329 266.086 686.121 266.339 683.264H261.827V682.225H267.651Z" fill="#363635"/>
<path d="M32.232 131.872C32.616 131.872 32.824 132.064 32.824 132.448V145.424H33.608C34.088 145.424 34.328 145.664 34.328 146.128V147.184C34.328 147.632 34.088 147.856 33.64 147.856H29.272C28.856 147.856 28.664 147.648 28.664 147.232V146.08C28.664 145.648 28.84 145.424 29.224 145.424H30.344V135.648H29.144C28.504 135.648 28.328 135.424 28.584 134.96L30.104 132.272C30.264 132.016 30.504 131.872 30.856 131.872H32.232ZM40.8263 132.432C40.9543 132.08 41.2422 131.888 41.6903 131.888H42.6023C43.1462 131.888 43.3383 132.128 43.1943 132.576L38.3142 147.072C38.1223 147.584 37.8182 147.84 37.3702 147.84H36.4102C35.7862 147.84 35.5942 147.536 35.8342 146.896L40.8263 132.432ZM48.2639 131.872C48.6479 131.872 48.8559 132.064 48.8559 132.448V145.424H49.6399C50.1199 145.424 50.3599 145.664 50.3599 146.128V147.184C50.3599 147.632 50.1199 147.856 49.6719 147.856H45.3039C44.8879 147.856 44.6959 147.648 44.6959 147.232V146.08C44.6959 145.648 44.8719 145.424 45.2559 145.424H46.3759V135.648H45.1759C44.5359 135.648 44.3599 135.424 44.6159 134.96L46.1359 132.272C46.2959 132.016 46.5359 131.872 46.8879 131.872H48.2639ZM56.4716 131.872C57.3356 131.872 58.0876 132.016 58.7276 132.272C59.3676 132.544 59.9116 132.992 60.3436 133.6C60.7596 134.208 61.0796 135.024 61.3036 136.016C61.5116 137.008 61.6236 138.24 61.6236 139.68C61.6236 141.28 61.5116 142.592 61.2876 143.648C61.0636 144.704 60.7436 145.536 60.3116 146.16C59.8796 146.784 59.3356 147.216 58.6956 147.472C58.0556 147.728 57.3036 147.856 56.4556 147.856C55.6076 147.856 54.8716 147.728 54.2316 147.456C53.5916 147.2 53.0476 146.752 52.6156 146.112C52.1836 145.488 51.8636 144.656 51.6396 143.6C51.4156 142.56 51.3196 141.248 51.3196 139.68C51.3196 138.144 51.4156 136.88 51.6396 135.872C51.8636 134.88 52.1836 134.08 52.6156 133.488C53.0476 132.896 53.5916 132.48 54.2316 132.24C54.8716 132 55.6076 131.872 56.4716 131.872ZM56.3916 145.552C56.8396 145.552 57.2396 145.456 57.5916 145.264C57.9436 145.072 58.2316 144.752 58.4716 144.304C58.6956 143.856 58.8716 143.248 58.9996 142.512C59.1276 141.776 59.1916 140.848 59.1916 139.744C59.1916 138.624 59.1276 137.712 59.0156 136.992C58.8876 136.288 58.7116 135.728 58.4876 135.312C58.2636 134.912 57.9756 134.64 57.6236 134.496C57.2716 134.352 56.8556 134.288 56.4076 134.288C55.9596 134.288 55.5596 134.384 55.2236 134.544C54.8716 134.72 54.5836 135.008 54.3596 135.424C54.1356 135.84 53.9596 136.4 53.8476 137.104C53.7196 137.808 53.6716 138.688 53.6716 139.744C53.6716 140.848 53.7196 141.776 53.8316 142.512C53.9436 143.264 54.1196 143.872 54.3436 144.32C54.5676 144.768 54.8556 145.088 55.2076 145.28C55.5436 145.472 55.9436 145.568 56.3916 145.552Z" fill="#1C1C1C"/>
<rect x="16" y="748" width="358" height="48" rx="8" fill="#F9BC5F"/>
<path d="M193.832 770.272C194.232 770.272 194.44 770.464 194.44 770.816V772.112C194.44 772.56 194.232 772.768 193.816 772.768H192.984V781.2C192.984 781.648 192.76 781.856 192.312 781.856H191.064C190.632 781.856 190.424 781.664 190.424 781.248V780.784C187.272 781.264 184.696 781.52 182.68 781.52C182.168 781.52 181.912 781.264 181.912 780.752V766.864C181.912 766.432 182.136 766.208 182.584 766.208H188.536C188.952 766.208 189.176 766.416 189.176 766.816V767.856C189.176 768.272 188.952 768.48 188.504 768.48H184.36V779.216C186.472 779.216 188.488 778.96 190.424 778.48V766.464C190.424 766.08 190.616 765.888 191.016 765.888H192.328C192.76 765.888 192.984 766.08 192.984 766.464V770.272H193.832ZM201.48 765.728C205.448 765.728 207.432 766.976 207.432 769.456C207.4 771.792 205.416 772.96 201.464 772.96C197.528 772.944 195.56 771.776 195.576 769.456C195.592 766.976 197.56 765.728 201.48 765.728ZM201.464 770.784C203.8 770.784 204.968 770.352 204.968 769.456C204.968 768.432 203.8 767.92 201.48 767.92C199.176 767.92 198.04 768.432 198.04 769.456C198.04 770.352 199.176 770.784 201.464 770.784ZM206.792 773.504C207.208 773.504 207.432 773.744 207.432 774.208V775.216C207.432 775.616 207.224 775.824 206.84 775.84H196.232C195.784 775.84 195.56 775.616 195.56 775.136V774.208C195.56 773.744 195.784 773.504 196.264 773.504H206.792ZM206.792 776.64C207.208 776.64 207.432 776.832 207.432 777.2V781.12C207.432 781.6 207.208 781.84 206.76 781.84H196.312C195.816 781.84 195.576 781.648 195.576 781.248V777.248C195.576 776.848 195.8 776.64 196.28 776.64H206.792ZM198.024 779.712H204.952V778.752H198.024V779.712Z" fill="#543403"/>
<path opacity="0.9" fill-rule="evenodd" clip-rule="evenodd" d="M0 0H390V843.999H0V0ZM79 402C79 393.163 86.1634 386 95 386H291C299.837 386 307 393.163 307 402V487C307 495.837 299.837 503 291 503H95C86.1634 503 79 495.837 79 487V402ZM24 748C19.5817 748 16 751.582 16 756V788C16 792.418 19.5817 796 24 796H366C370.418 796 374 792.418 374 788V756C374 751.582 370.418 748 366 748H24Z" fill="black" fill-opacity="0.9"/>
<rect x="210" y="260" width="30" height="30" rx="15" fill="#F7A62C"/>
<path d="M224.992 281.156C222.57 281.156 220.852 279.844 220.805 277.938H222.852C222.914 278.844 223.82 279.438 224.992 279.438C226.242 279.438 227.133 278.75 227.133 277.75C227.133 276.734 226.258 276 224.789 276H223.773V274.438H224.789C225.992 274.438 226.836 273.766 226.82 272.781C226.836 271.828 226.117 271.188 225.008 271.188C223.945 271.188 223.023 271.781 222.992 272.734H221.039C221.086 270.828 222.805 269.531 225.023 269.531C227.32 269.531 228.805 270.938 228.789 272.672C228.805 273.938 227.961 274.859 226.727 275.109V275.203C228.32 275.422 229.227 276.438 229.211 277.859C229.227 279.766 227.445 281.156 224.992 281.156Z" fill="#543403"/>
<path d="M140.358 308.504V309.808H136.477V311.346H141.721V312.649H129.636V311.346H134.851V309.808H131.188V305.296H132.8V308.504H140.358ZM140.227 313.777V318.304H138.601V315.096H131.013V313.777H140.227ZM148.32 305.325C151.25 305.325 153.081 306.292 153.096 307.903C153.081 309.485 151.25 310.438 148.32 310.423C145.42 310.438 143.545 309.485 143.545 307.903C143.545 306.292 145.42 305.325 148.32 305.325ZM148.32 306.6C146.387 306.6 145.229 307.054 145.244 307.903C145.229 308.709 146.387 309.148 148.32 309.163C150.254 309.148 151.411 308.709 151.411 307.903C151.411 307.054 150.254 306.6 148.32 306.6ZM152.905 313.689V318.143H143.721V313.689H152.905ZM145.332 314.979V316.824H151.323V314.979H145.332ZM154.37 311.316V312.635H142.3V311.316H154.37ZM160.984 305.267C164.002 305.267 165.745 306.072 165.759 307.537C165.745 309.017 164.002 309.808 160.984 309.822C157.966 309.808 156.209 309.017 156.209 307.537C156.209 306.072 157.966 305.267 160.984 305.267ZM160.984 306.468C158.963 306.468 157.908 306.849 157.922 307.537C157.908 308.27 158.963 308.606 160.984 308.606C163.035 308.606 164.075 308.27 164.075 307.537C164.075 306.849 163.035 306.468 160.984 306.468ZM167.034 310.525V311.829H154.963V310.525H167.034ZM165.525 312.723V315.96H157.996V316.941H165.891V318.187H156.399V314.803H163.928V313.924H156.384V312.723H165.525ZM130.734 328.062V335.928H129.108V332.69H126.853V331.357H129.108V328.062H130.734ZM126.252 336.265C129.064 336.265 130.778 337.188 130.778 338.784C130.778 340.381 129.064 341.304 126.252 341.304C123.454 341.304 121.74 340.381 121.755 338.784C121.74 337.188 123.454 336.265 126.252 336.265ZM126.252 337.51C124.406 337.51 123.366 337.949 123.366 338.784C123.366 339.604 124.406 340.044 126.252 340.044C128.098 340.044 129.152 339.604 129.152 338.784C129.152 337.949 128.098 337.51 126.252 337.51ZM124.509 330.332C124.509 331.943 125.578 333.569 127.629 334.258L126.809 335.547C125.336 335.049 124.289 334.038 123.718 332.793C123.132 334.207 122.026 335.334 120.451 335.898L119.602 334.609C121.726 333.877 122.854 332.09 122.854 330.347V330.244H120.1V328.926H127.248V330.244H124.509V330.332ZM142.798 328.076V331.929H144.585V333.276H142.798V337.026H141.172V328.076H142.798ZM132.192 335.444C133.188 335.444 134.338 335.437 135.532 335.4V334.595C134.06 334.412 133.13 333.701 133.13 332.661C133.13 331.445 134.404 330.684 136.323 330.698C138.257 330.684 139.516 331.445 139.516 332.661C139.516 333.694 138.608 334.397 137.158 334.58V335.342C138.286 335.291 139.421 335.203 140.483 335.063L140.615 336.191C137.788 336.689 134.697 336.719 132.368 336.719L132.192 335.444ZM142.798 337.598V341.304H141.172V338.872H133.862V337.598H142.798ZM140.132 329.116V330.317H132.529V329.116H135.532V327.959H137.158V329.116H140.132ZM136.323 331.797C135.298 331.782 134.682 332.09 134.697 332.661C134.682 333.203 135.298 333.555 136.323 333.54C137.348 333.555 137.964 333.203 137.964 332.661C137.964 332.09 137.348 331.782 136.323 331.797ZM155.725 334.082V335.371H151.799V338.403H157.073V339.736H144.973V338.403H150.188V335.371H146.438V329.043H155.623V330.347H148.064V334.082H155.725ZM168.008 328.062V333.232H169.971V334.595H168.008V341.274H166.382V328.062H168.008ZM164.507 329.438C164.507 333.335 162.896 336.748 158.487 338.916L157.564 337.656C160.787 336.052 162.53 333.796 162.867 330.786H158.282V329.438H164.507ZM185.895 333.174V334.507H183.932V341.274H182.306V328.062H183.932V333.174H185.895ZM175.641 329.351V336.66C177.406 336.631 179.288 336.477 181.28 336.06L181.456 337.437C179.229 337.876 177.105 338.008 175.143 338.008H174.029V329.351H175.641ZM198.295 334.961V336.279H186.224V334.961H191.425V333.789C189.008 333.613 187.47 332.639 187.47 331.108C187.47 329.453 189.359 328.428 192.245 328.428C195.131 328.428 197.006 329.453 197.02 331.108C197.006 332.639 195.482 333.613 193.065 333.789V334.961H198.295ZM196.932 339.722V341.04H187.719V337.188H189.345V339.722H196.932ZM192.245 329.717C190.326 329.731 189.154 330.229 189.169 331.108C189.154 332.031 190.326 332.5 192.245 332.5C194.179 332.5 195.336 332.031 195.336 331.108C195.336 330.229 194.179 329.731 192.245 329.717ZM209.259 328.062V333.086H211.296V334.419H209.259V341.318H207.633V328.062H209.259ZM205.627 329.321V330.64H201.056V336.719C203.114 336.719 204.74 336.616 206.564 336.294L206.754 337.671C204.704 338.022 202.917 338.081 200.529 338.081H199.43V329.321H205.627ZM226.472 328.047V341.289H224.904V334.521H223.659V340.688H222.136V328.311H223.659V333.203H224.904V328.047H226.472ZM218.093 329.644C218.093 332.705 217.727 335.62 215.954 338.14L214.68 337.393C216.108 335.444 216.599 333.401 216.716 330.947H215.09V329.644H218.093ZM221.228 329.644C221.228 332.778 220.979 336.191 219.089 338.96L217.8 338.257C219.382 336.038 219.741 333.562 219.807 330.947H218.503V329.644H221.228ZM238.491 328.062V341.318H236.851V328.062H238.491ZM229.805 329.146V332.456H233.013V329.146H234.624V338.198H228.179V329.146H229.805ZM229.805 336.865H233.013V333.73H229.805V336.865ZM176.234 352.204V358.459H169.964V352.204H176.234ZM171.561 353.508V357.17H174.637V353.508H171.561ZM179.954 351.062V354.943H181.8V356.306H179.954V360.729H178.328V351.062H179.954ZM180.482 362.722V364.04H171.473V359.792H173.099V362.722H180.482ZM196.493 351.062V364.304H194.852V351.062H196.493ZM192.538 352.468C192.538 356.408 191.014 359.763 186.371 361.96L185.521 360.656C188.986 359.008 190.597 356.767 190.883 353.757H186.195V352.468H192.538ZM208.468 351.062V356.086H210.504V357.419H208.468V364.318H206.842V351.062H208.468ZM204.836 352.321V353.64H200.265V359.719C202.323 359.719 203.949 359.616 205.773 359.294L205.963 360.671C203.913 361.022 202.126 361.081 199.738 361.081H198.639V352.321H204.836ZM221.85 351.062V364.318H220.224V358.884H217.807V357.551H220.224V355.28H217.851V353.947H220.224V351.062H221.85ZM217.104 352.204V357.155H212.856V359.968C214.606 359.953 216.13 359.88 217.91 359.616L218.041 360.949C216.005 361.271 214.321 361.315 212.27 361.315H211.245V355.881H215.507V353.508H211.201V352.204H217.104ZM225.71 352.131V353.903H229.153V352.131H230.779V358.181H228.259V360.305C229.343 360.246 230.434 360.166 231.452 360.026L231.57 361.228C228.801 361.711 225.769 361.726 223.498 361.74L223.264 360.393C224.267 360.385 225.425 360.385 226.633 360.349V358.181H224.099V352.131H225.71ZM225.71 356.877H229.153V355.148H225.71V356.877ZM233.84 351.062V356.438H235.759V357.8H233.84V364.304H232.214V351.062H233.84ZM238.813 352.395L238.652 359.88H236.997L236.821 352.395H238.813ZM237.832 363.117C237.202 363.117 236.689 362.604 236.689 361.975C236.689 361.359 237.202 360.847 237.832 360.847C238.433 360.847 238.96 361.359 238.96 361.975C238.96 362.604 238.433 363.117 237.832 363.117Z" fill="white"/>
<path d="M181.566 304.9V309.734H183.397V311.639H181.566V318.494H179.207V304.9H181.566ZM177.625 306.116V308.006H173.597V313.338C175.289 313.316 176.82 313.221 178.446 312.957L178.695 314.891C176.614 315.242 174.725 315.286 172.44 315.271H171.268V306.116H177.625ZM197.196 304.9V310.042H199.027V311.961H197.196V318.45H194.867V304.9H197.196ZM194.208 306.834V308.694H186.312V306.834H189.11V305.149H191.454V306.834H194.208ZM190.282 309.222C192.289 309.222 193.827 310.599 193.827 312.518C193.827 314.451 192.289 315.828 190.282 315.828C188.231 315.828 186.722 314.451 186.722 312.518C186.722 310.599 188.231 309.222 190.282 309.222ZM190.282 311.111C189.52 311.111 188.964 311.609 188.978 312.518C188.964 313.47 189.52 313.924 190.282 313.924C191.029 313.924 191.571 313.47 191.571 312.518C191.571 311.609 191.029 311.111 190.282 311.111ZM210.402 305.955V307.2C210.402 308.914 210.402 310.848 209.831 313.821L207.458 313.602C207.963 311.177 208.022 309.332 208.029 307.801H200.295V305.955H210.402ZM211.413 315.066V316.956H199.049V315.066H203.21V310.54H205.539V315.066H211.413ZM227.219 309.866V311.771H225.49V318.421H223.132V304.9H225.49V309.866H227.219ZM217.375 306.175V313.25C218.965 313.213 220.7 313.045 222.473 312.693L222.707 314.642C220.481 315.096 218.225 315.198 216.262 315.184H215.031V306.175H217.375ZM234.434 305.955V306.878H236.528V304.93H238.872V314.759H236.528V311.639H234.434V312.737H227.856V305.955H234.434ZM230.2 307.801V310.921H232.134V307.801H230.2ZM239.15 316.385V318.26H229.688V313.807H232.075V316.385H239.15ZM234.434 309.808H236.528V308.753H234.434V309.808ZM130.441 352.395V363H127.643V354.973H127.584L125.241 356.379V353.991L127.863 352.395H130.441ZM135.964 356.965C136.477 356.438 137.136 356.174 137.854 356.174C139.113 356.174 140.139 356.994 141.428 356.994C142.131 356.994 142.775 356.745 143.273 356.262V358.43C142.761 358.942 142.102 359.206 141.384 359.206C140.124 359.206 139.099 358.4 137.81 358.4C137.106 358.4 136.477 358.635 135.964 359.118V356.965ZM148.035 363V360.993L151.975 357.683C152.781 356.994 153.279 356.496 153.279 355.734C153.279 354.914 152.693 354.401 151.873 354.401C151.052 354.401 150.496 354.914 150.496 355.822H147.844C147.844 353.61 149.441 352.248 151.873 352.248C154.378 352.248 155.989 353.537 155.989 355.5C155.989 356.73 155.374 357.771 152.986 359.777L151.917 360.7V360.759H156.106V363H148.035ZM169.092 361.125V363.029H156.714V361.125H161.739V358.752H164.068V361.125H169.092ZM168.096 352.57V354.445H164.156C164.361 355.625 165.569 357.053 168.843 357.39L168.008 359.221C165.489 358.942 163.811 358.005 162.896 356.76C161.98 358.005 160.325 358.942 157.813 359.221L156.963 357.39C160.237 357.053 161.438 355.625 161.665 354.445H157.725V352.57H161.739V351.003H164.068V352.57H168.096Z" fill="#F9BC5F"/>
<path d="M280 364.043L281 364.043L280 364.043ZM251.755 350.375C251.387 350.787 251.421 351.419 251.832 351.788L258.534 357.795C258.945 358.164 259.577 358.13 259.946 357.718C260.314 357.307 260.28 356.675 259.869 356.306L253.912 350.966L259.252 345.009C259.621 344.598 259.587 343.966 259.175 343.597C258.764 343.229 258.132 343.263 257.763 343.674L251.755 350.375ZM281 386.543L281 364.043L279 364.043L279 386.543L281 386.543ZM281 364.043C281 360.041 279.078 357.138 276.296 355.089C273.551 353.068 269.953 351.858 266.455 351.127C262.941 350.392 259.442 350.123 256.83 350.036C255.522 349.992 254.431 349.994 253.665 350.007C253.282 350.013 252.98 350.023 252.772 350.03C252.668 350.034 252.588 350.038 252.533 350.04C252.505 350.041 252.484 350.042 252.47 350.043C252.462 350.044 252.457 350.044 252.453 350.044C252.451 350.044 252.449 350.044 252.448 350.044C252.447 350.044 252.447 350.044 252.446 350.044C252.446 350.044 252.446 350.044 252.5 351.043C252.554 352.041 252.554 352.041 252.554 352.041C252.554 352.041 252.554 352.041 252.555 352.041C252.555 352.041 252.556 352.041 252.557 352.041C252.56 352.041 252.564 352.041 252.57 352.041C252.582 352.04 252.6 352.039 252.625 352.038C252.674 352.036 252.748 352.033 252.846 352.029C253.041 352.022 253.33 352.013 253.699 352.007C254.436 351.994 255.494 351.992 256.764 352.035C259.308 352.119 262.684 352.381 266.045 353.084C269.422 353.79 272.699 354.924 275.11 356.7C277.484 358.448 279 360.795 279 364.043L281 364.043Z" fill="white"/>
<rect x="224" y="628" width="30" height="30" rx="15" fill="#F7A62C"/>
<path d="M234.57 645.266L239.461 637.688H241.992V645.219H243.477V646.891H241.992V649H240.055V646.891H234.57V645.266ZM240.086 645.219V640H239.961L236.648 645.141V645.219H240.086Z" fill="#543403"/>
<path d="M234.811 676.086H236.847V677.419H234.811V684.318H233.185V671.062H234.811V676.086ZM231.178 673.64H226.607V679.719C227.677 679.719 228.641 679.687 229.5 679.624C230.36 679.56 231.231 679.45 232.115 679.294L232.306 680.671C231.349 680.837 230.401 680.947 229.464 681C228.531 681.054 227.403 681.081 226.08 681.081H224.981V672.321H231.178V673.64ZM250.939 672.395C250.939 672.971 250.924 673.498 250.895 673.977C250.871 674.45 250.807 674.973 250.705 675.544L249.093 675.397C249.23 674.592 249.303 673.747 249.313 672.863H241.769V671.574H250.939V672.395ZM252.404 677.419H240.392V676.145H245.05V674.079H246.662V676.145H252.404V677.419ZM250.968 681.784H243.395V682.897H251.305V684.172H241.769V680.671H249.342V679.675H241.754V678.371H250.968V681.784ZM263.471 674.152H265.331V675.5H263.471V678.767H261.845V671.076H263.471V674.152ZM257.582 679.646C257.573 680.231 257.704 680.791 257.978 681.323C258.251 681.855 258.662 682.302 259.208 682.663C259.755 682.287 260.17 681.826 260.454 681.279C260.737 680.727 260.883 680.183 260.893 679.646V679.221H262.475V679.646C262.475 680.124 262.568 680.578 262.753 681.008C262.944 681.438 263.229 681.821 263.61 682.158C263.996 682.49 264.472 682.751 265.038 682.941L264.233 684.143C263.608 683.913 263.08 683.596 262.651 683.19C262.221 682.785 261.889 682.309 261.655 681.762C261.43 682.319 261.115 682.814 260.71 683.249C260.309 683.684 259.819 684.021 259.238 684.26C258.637 684.025 258.132 683.696 257.722 683.271C257.316 682.851 257.004 682.363 256.784 681.806C256.54 682.338 256.205 682.805 255.781 683.205C255.361 683.61 254.853 683.923 254.257 684.143L253.452 682.941C253.998 682.741 254.462 682.468 254.843 682.121C255.229 681.774 255.519 681.386 255.715 680.957C255.91 680.527 256.01 680.09 256.015 679.646V679.221H257.582V679.646ZM259.575 675.544H255.165V676.892C256.43 676.882 257.475 676.85 258.3 676.796C259.13 676.738 259.951 676.633 260.761 676.481L260.937 677.8C260.043 677.966 259.142 678.076 258.234 678.129C257.326 678.183 256.122 678.21 254.623 678.21H253.539V674.299H257.978V673.01H253.525V671.691H259.575V675.544ZM271.711 671.809C272.639 671.809 273.479 671.965 274.231 672.277C274.983 672.585 275.573 673.022 276.003 673.588C276.433 674.155 276.648 674.807 276.648 675.544C276.648 676.291 276.433 676.95 276.003 677.521C275.573 678.088 274.983 678.527 274.231 678.84C273.484 679.152 272.644 679.309 271.711 679.309C270.783 679.309 269.946 679.152 269.199 678.84C268.452 678.527 267.863 678.088 267.434 677.521C267.009 676.95 266.799 676.291 266.804 675.544C266.799 674.807 267.009 674.155 267.434 673.588C267.863 673.022 268.452 672.585 269.199 672.277C269.946 671.965 270.783 671.809 271.711 671.809ZM271.711 673.127C271.076 673.122 270.505 673.22 269.997 673.42C269.489 673.62 269.092 673.906 268.803 674.277C268.515 674.643 268.371 675.065 268.371 675.544C268.371 676.032 268.515 676.462 268.803 676.833C269.092 677.199 269.487 677.482 269.99 677.683C270.498 677.878 271.071 677.976 271.711 677.976C272.356 677.976 272.929 677.878 273.432 677.683C273.94 677.482 274.336 677.199 274.619 676.833C274.907 676.462 275.051 676.032 275.051 675.544C275.051 675.065 274.907 674.643 274.619 674.277C274.336 673.906 273.94 673.62 273.432 673.42C272.925 673.22 272.351 673.122 271.711 673.127ZM277.79 682.634H265.691V681.301H277.79V682.634ZM285.151 673.229H287.817V671.076H289.443V680.715H287.817V677.375H285.151V678.518H278.926V672.175H285.151V673.229ZM280.552 677.243H283.54V673.464H280.552V677.243ZM289.736 684.04H280.713V679.821H282.368V682.722H289.736V684.04ZM287.817 676.071V674.562H285.151V676.071H287.817ZM302.825 705.766H290.725V704.418H295.94V702.265H292.161V697.929H299.778V696.288H292.132V694.97H301.389V699.218H293.787V700.932H301.697V702.265H297.552V704.418H302.825V705.766ZM235.528 730.143H226.783V725.221H235.528V730.143ZM228.38 728.824H233.932V726.524H228.38V728.824ZM226.812 722.657C227.75 722.647 228.653 722.604 229.522 722.525C230.392 722.442 231.266 722.315 232.145 722.145L232.32 723.507C231.344 723.707 230.372 723.846 229.405 723.924C228.443 723.998 227.398 724.034 226.271 724.034H225.201V717.794H226.812V722.657ZM235.528 724.649H233.902V720.709H230.445V719.391H233.902V717.062H235.528V724.649ZM240.721 718.028C241.317 718.028 241.854 718.187 242.333 718.504C242.811 718.822 243.202 719.276 243.505 719.867C243.807 720.453 243.995 721.144 244.069 721.939H246.596V717.062H248.207V730.318H246.596V723.258H244.091C244.032 724.098 243.854 724.83 243.556 725.455C243.258 726.075 242.865 726.554 242.377 726.891C241.888 727.223 241.337 727.389 240.721 727.389C240.057 727.389 239.469 727.198 238.956 726.817C238.444 726.437 238.043 725.892 237.755 725.184C237.467 724.476 237.323 723.648 237.323 722.701C237.323 721.764 237.467 720.943 237.755 720.24C238.043 719.532 238.444 718.988 238.956 718.607C239.474 718.221 240.062 718.028 240.721 718.028ZM240.721 719.493C240.355 719.493 240.033 719.623 239.755 719.881C239.476 720.135 239.262 720.504 239.11 720.987C238.959 721.466 238.886 722.037 238.89 722.701C238.886 723.37 238.959 723.946 239.11 724.43C239.262 724.913 239.476 725.284 239.755 725.543C240.033 725.797 240.355 725.924 240.721 725.924C241.088 725.924 241.408 725.797 241.681 725.543C241.959 725.284 242.174 724.913 242.325 724.43C242.482 723.946 242.562 723.37 242.567 722.701C242.562 722.037 242.482 721.463 242.325 720.98C242.174 720.497 241.959 720.128 241.681 719.874C241.408 719.62 241.088 719.493 240.721 719.493ZM260.138 722.232H262.101V723.595H260.138V730.274H258.512V717.062H260.138V722.232ZM256.637 718.438C256.637 722.784 254.63 725.943 250.617 727.916L249.694 726.656C251.305 725.855 252.548 724.886 253.422 723.749C254.301 722.611 254.823 721.29 254.989 719.786H250.412V718.438H256.637ZM269.228 719.229H271.894V717.076H273.52V726.715H271.894V723.375H269.228V724.518H263.002V718.175H269.228V719.229ZM264.628 723.243H267.617V719.464H264.628V723.243ZM273.813 730.04H264.789V725.821H266.445V728.722H273.813V730.04ZM271.894 722.071V720.562H269.228V722.071H271.894ZM286.06 722.525H283.599V724.027C284.785 723.973 285.864 723.897 286.836 723.8L286.953 724.972C285.674 725.152 284.338 725.277 282.947 725.345C281.555 725.409 280.117 725.44 278.633 725.44L278.413 724.137C279.971 724.127 281.152 724.11 281.958 724.085V722.525H279.556V717.882H285.957V719.2H281.196V721.222H286.06V722.525ZM289.399 727.008H287.759V717.062H289.399V727.008ZM289.78 730.04H280.522V726.275H282.163V728.722H289.78V730.04ZM301.389 722.086H303.426V723.419H301.389V730.318H299.763V717.062H301.389V722.086ZM297.757 719.64H293.186V725.719C294.256 725.719 295.22 725.687 296.079 725.624C296.939 725.56 297.81 725.45 298.694 725.294L298.885 726.671C297.928 726.837 296.98 726.947 296.043 727C295.11 727.054 293.982 727.081 292.659 727.081H291.56V718.321H297.757V719.64ZM318.602 730.289H317.035V723.521H315.789V729.688H314.266V717.311H315.789V722.203H317.035V717.047H318.602V730.289ZM310.223 718.644C310.223 719.771 310.164 720.814 310.047 721.771C309.93 722.728 309.713 723.663 309.395 724.576C309.083 725.484 308.646 726.339 308.084 727.14L306.81 726.393C307.494 725.465 307.987 724.486 308.289 723.456C308.597 722.42 308.78 721.251 308.839 719.947H307.22V718.644H310.223ZM313.358 718.644C313.358 719.874 313.307 721.007 313.204 722.042C313.101 723.077 312.892 724.105 312.574 725.125C312.262 726.146 311.81 727.091 311.219 727.96L309.93 727.257C310.433 726.554 310.826 725.812 311.109 725.03C311.397 724.244 311.6 723.443 311.717 722.628C311.839 721.808 311.912 720.914 311.937 719.947H310.633V718.644H313.358ZM330.621 730.318H328.981V717.062H330.621V730.318ZM321.935 721.456H325.143V718.146H326.754V727.198H320.309V718.146H321.935V721.456ZM325.143 725.865V722.73H321.935V725.865H325.143Z" fill="white"/>
<path d="M235.118 698.734H236.949V700.639H235.118V707.494H232.76V693.9H235.118V698.734ZM231.178 697.006H227.149V702.345C228.053 702.331 228.893 702.294 229.669 702.235C230.45 702.177 231.227 702.084 231.998 701.957L232.247 703.891C231.383 704.042 230.519 704.145 229.654 704.198C228.79 704.247 227.799 704.271 226.681 704.271H225.992H224.82V695.116H231.178V697.006ZM243.153 694.135C244.164 694.135 245.045 694.245 245.797 694.464C246.549 694.679 247.13 694.992 247.54 695.402C247.95 695.807 248.158 696.288 248.163 696.845C248.158 697.392 247.95 697.868 247.54 698.273C247.13 698.673 246.547 698.981 245.79 699.196C245.038 699.411 244.159 699.516 243.153 699.511C242.147 699.516 241.263 699.411 240.502 699.196C239.745 698.981 239.159 698.673 238.744 698.273C238.329 697.868 238.124 697.392 238.129 696.845C238.124 696.293 238.329 695.812 238.744 695.402C239.159 694.992 239.745 694.679 240.502 694.464C241.263 694.245 242.147 694.135 243.153 694.135ZM243.153 695.937C242.279 695.937 241.63 696.01 241.205 696.156C240.78 696.298 240.57 696.527 240.575 696.845C240.57 697.143 240.78 697.362 241.205 697.504C241.635 697.641 242.284 697.709 243.153 697.709C244.003 697.709 244.645 697.638 245.079 697.497C245.514 697.355 245.731 697.138 245.731 696.845C245.731 696.527 245.514 696.298 245.079 696.156C244.65 696.01 244.008 695.937 243.153 695.937ZM247.87 707.333H238.363V702.602H247.87V707.333ZM240.663 705.458H245.57V704.447H240.663V705.458ZM249.335 701.913H236.971V700.053H249.335V701.913ZM264.555 707.45H262.314V693.9H264.555V707.45ZM261.772 706.864H259.56V700.8H258.608V698.705H259.56V694.135H261.772V706.864ZM258.871 697.196H258.183V702.418C258.329 702.404 258.408 702.396 258.417 702.396L259.047 702.309L259.194 703.979C258.256 704.198 257.231 704.345 256.118 704.418C255.004 704.486 253.867 704.521 252.704 704.521L252.455 702.631H253.378V697.196H252.69V695.336H258.871V697.196ZM256.059 702.565V697.196H255.458V702.587L256.059 702.565ZM276.706 707.494H274.333V693.9H276.706V707.494ZM269.265 694.809C269.953 694.804 270.571 695.001 271.118 695.402C271.67 695.802 272.102 696.374 272.414 697.116C272.727 697.853 272.883 698.71 272.883 699.687C272.883 700.678 272.727 701.547 272.414 702.294C272.102 703.036 271.67 703.607 271.118 704.008C270.571 704.408 269.953 704.608 269.265 704.608C268.562 704.608 267.932 704.408 267.375 704.008C266.819 703.607 266.382 703.036 266.064 702.294C265.747 701.547 265.588 700.678 265.588 699.687C265.588 698.71 265.747 697.853 266.064 697.116C266.382 696.374 266.819 695.802 267.375 695.402C267.932 695.001 268.562 694.804 269.265 694.809ZM269.265 696.933C268.821 696.923 268.474 697.15 268.225 697.614C267.981 698.078 267.859 698.769 267.859 699.687C267.859 700.614 267.981 701.308 268.225 701.767C268.474 702.226 268.821 702.455 269.265 702.455C269.685 702.455 270.017 702.226 270.261 701.767C270.505 701.303 270.627 700.609 270.627 699.687C270.627 698.778 270.503 698.09 270.254 697.621C270.009 697.152 269.68 696.923 269.265 696.933ZM283.423 697.299C283.423 698.061 283.528 698.795 283.738 699.503C283.948 700.207 284.292 700.846 284.771 701.422C285.254 701.999 285.884 702.445 286.66 702.763L285.415 704.594C284.663 704.286 284.028 703.854 283.511 703.297C282.993 702.736 282.581 702.074 282.273 701.312C281.965 702.157 281.548 702.89 281.021 703.51C280.493 704.13 279.849 704.608 279.087 704.945L277.769 703.1C278.54 702.763 279.167 702.289 279.651 701.679C280.134 701.068 280.483 700.39 280.698 699.643C280.913 698.891 281.021 698.109 281.021 697.299V697.064H278.354V695.16H286.016V697.064H283.423V697.299ZM289.37 707.45H286.997V693.9H289.37V707.45Z" fill="#F9BC5F"/>
<path d="M185 723L184 723L185 723ZM209.775 712.368C210.124 712.797 210.06 713.427 209.632 713.775L202.653 719.459C202.225 719.808 201.595 719.743 201.246 719.315C200.898 718.887 200.962 718.257 201.39 717.908L207.593 712.856L202.541 706.653C202.192 706.225 202.257 705.595 202.685 705.246C203.113 704.898 203.743 704.962 204.092 705.39L209.775 712.368ZM184 748.5L184 723L186 723L186 748.5L184 748.5ZM184 723C184 719.496 185.717 717.027 188.19 715.355C190.617 713.714 193.785 712.823 196.845 712.342C199.921 711.858 202.983 711.775 205.266 711.811C206.41 711.829 207.364 711.877 208.034 711.921C208.369 711.943 208.633 711.964 208.815 711.979C208.906 711.987 208.976 711.993 209.025 711.998C209.049 712 209.067 712.002 209.08 712.003C209.087 712.004 209.092 712.004 209.095 712.005C209.097 712.005 209.099 712.005 209.1 712.005C209.1 712.005 209.101 712.005 209.101 712.005C209.101 712.005 209.102 712.005 209 713C208.898 713.995 208.898 713.995 208.899 713.995C208.898 713.995 208.898 713.995 208.898 713.995C208.898 713.995 208.897 713.995 208.896 713.995C208.894 713.994 208.89 713.994 208.885 713.993C208.875 713.992 208.859 713.991 208.838 713.989C208.795 713.985 208.731 713.979 208.646 713.972C208.476 713.957 208.225 713.938 207.904 713.917C207.261 713.875 206.34 713.828 205.234 713.811C203.017 713.776 200.079 713.858 197.155 714.318C194.215 714.78 191.383 715.61 189.31 717.012C187.283 718.382 186 720.277 186 723L184 723Z" fill="white"/>
</g>
<defs>
<clipPath id="clip0_3539_11634">
<rect width="390" height="844" fill="white"/>
</clipPath>
</defs>
</svg>
