<?xml version="1.0" encoding="UTF-8"?>
<svg id="_레이어_1" data-name="레이어 1" xmlns="http://www.w3.org/2000/svg" viewBox="0 0 232.73 72.37">
  <defs>
    <style>
      .cls-1, .cls-2 {
        fill: #008cff;
      }

      .cls-2 {
        fill-rule: evenodd;
      }

      .cls-3 {
        fill: #fff;
      }

      .cls-4 {
        fill: #1c1b1f;
      }
    </style>
  </defs>
  <path class="cls-4" d="M29.28.54l-5.66,12.01c-.29.62.16,1.33.84,1.33h11.32c.68,0,1.14-.71.84-1.33L30.97.54c-.34-.71-1.35-.71-1.69,0Z"/>
  <path class="cls-4" d="M12.93,41.68l2.02-3.21c.39-.62-.06-1.43-.79-1.43h-4.03c-.73,0-1.18.81-.79,1.43l2.02,3.21c.37.58,1.22.58,1.58,0Z"/>
  <path class="cls-4" d="M23.58,41.68l2.02-3.21c.39-.62-.06-1.43-.79-1.43h-4.03c-.73,0-1.18.81-.79,1.43l2.02,3.21c.37.58,1.22.58,1.58,0Z"/>
  <path class="cls-1" d="M76.75,41.26c-1.5,0-2.22-.72-2.22-2.28v-3.84c0-1.5.72-2.28,2.16-2.28h39.86c1.68,0,2.52.84,2.52,2.46v3.48c0,1.68-.84,2.46-2.4,2.46h-39.92ZM117.08,11.96c1.26,0,1.92.84,1.92,2.52,0,6.24-.96,11.05-2.82,14.41-.66,1.38-1.74,2.04-3.24,2.04h-4.74c-.9,0-1.44-.18-1.68-.6-.24-.42-.12-1.02.24-1.86,1.14-2.46,1.86-4.62,2.1-6.42.12-.96-.3-1.5-1.26-1.5h-31.03c-1.32,0-1.98-.66-1.98-2.04v-4.44c0-1.38.66-2.1,1.98-2.1h40.52ZM76.99,52.12c-1.68,0-2.46-.78-2.46-2.4v-3.3c0-1.5.78-2.28,2.46-2.28h39.38c1.74,0,2.64.78,2.64,2.28v12.37c0,1.62-.9,2.4-2.58,2.4h-32.72v2.64h32.84c1.62,0,2.46.78,2.46,2.28v3.24c0,1.68-.84,2.46-2.46,2.46h-39.5c-1.68,0-2.52-.72-2.52-2.28v-12.55c0-1.56.78-2.34,2.46-2.34h32.9v-2.52h-32.9Z"/>
  <path class="cls-4" d="M181.1,69.47c0,1.56-.84,2.34-2.46,2.34h-3.9c-1.68,0-2.46-.78-2.46-2.34v-31.69h-2.28v31.69c0,1.56-.84,2.34-2.52,2.34h-3.84c-1.68,0-2.52-.78-2.52-2.34V14.25c0-1.5.78-2.28,2.34-2.28h4.26c1.5,0,2.28.78,2.28,2.22v14.23h2.28v-14.17c0-1.5.72-2.28,2.28-2.28h4.2c1.56,0,2.34.72,2.34,2.16v55.35ZM135.65,23.19c.06-.9-.36-1.38-1.26-1.38h-5.82c-1.56,0-2.34-.72-2.34-2.28v-3.96c0-1.56.72-2.4,2.22-2.4h27.37c1.68,0,2.58,1.08,2.58,3.18,0,23.83-2.88,41.24-8.52,52.16-.72,1.38-1.86,2.04-3.42,2.04h-4.14c-1.2,0-2.04-.24-2.4-.78-.36-.48-.3-1.26.18-2.34,5.7-12.01,8.58-26.71,8.58-44.24.06-.9-.36-1.38-1.26-1.38h-2.22c-.24,18.01-3.48,33.62-9.72,46.7-.72,1.38-1.98,2.04-3.84,2.04h-3.66c-.9,0-1.5-.24-1.86-.84-.36-.54-.18-1.56.6-3.12,6-13.09,8.94-27.55,8.94-43.4ZM232.73,69.83c-.12,1.44-1.02,2.16-2.76,2.16h-3.96c-1.92,0-2.88-.72-2.88-2.16V14.49c0-1.68.96-2.52,2.88-2.52h4.08c1.74,0,2.64.72,2.64,2.16v55.71ZM219.11,66.59c0,.96-2.46,1.92-7.32,2.82-4.86.9-11.89,1.32-21.01,1.26-1.92,0-2.76-.72-2.64-2.28V15.33c0-1.44.9-2.16,2.82-2.16h3.78c1.68.06,2.46.78,2.46,2.1v7.2h12.79v-7.2c0-1.44.9-2.16,2.82-2.16h3.48c1.86.06,2.82.78,2.82,2.16v51.32ZM197.14,62.39c4.26,0,8.52-.36,12.79-1.08v-30.55h-12.73l-.06,31.63Z"/>
  <path class="cls-2" d="M60.25,12.12H2.8c-1.55,0-2.8,1.25-2.8,2.8v20.25c0,1.55,1.25,2.8,2.8,2.8h29.04c1.55,0,2.8,1.25,2.8,2.8v28.79c0,1.55,1.25,2.8,2.8,2.8h20c1.55,0,2.8-1.25,2.8-2.8V12.12s0,0,0,0h0Z"/>
  <circle class="cls-3" cx="12.68" cy="24.15" r="2.58"/>
  <circle class="cls-3" cx="22.4" cy="24.15" r="2.58"/>
</svg>